<?xml version="1.0" encoding="UTF-8" standalone="no"?>
<!DOCTYPE svg PUBLIC "-//W3C//DTD SVG 1.1//EN"
 "http://www.w3.org/Graphics/SVG/1.1/DTD/svg11.dtd">
<!-- Generated by graphviz version 2.43.0 (0)
 -->
<!-- Title: G Pages: 1 -->
<svg width="2247pt" height="382pt"
 viewBox="0.00 0.00 2247.00 382.43" xmlns="http://www.w3.org/2000/svg" xmlns:xlink="http://www.w3.org/1999/xlink">
<g id="graph0" class="graph" transform="scale(1 1) rotate(0) translate(4 378.43)">
<title>G</title>
<polygon fill="white" stroke="transparent" points="-4,4 -4,-378.43 2243,-378.43 2243,4 -4,4"/>
<g id="clust1" class="cluster">
<title>cluster_0</title>
<polygon fill="none" stroke="black" points="8,-8 8,-366.43 919,-366.43 919,-8 8,-8"/>
<text text-anchor="middle" x="463.5" y="-330.43" font-family="Times,serif" font-size="40.00">Tree 0, Class {&#39;window.open.opener&#39;: &#39;null&#39;}</text>
</g>
<g id="clust4" class="cluster">
<title>cluster_1</title>
<polygon fill="none" stroke="black" points="927,-8 927,-366.43 2231,-366.43 2231,-8 927,-8"/>
<text text-anchor="middle" x="1579" y="-330.43" font-family="Times,serif" font-size="40.00">Tree 0, Class {&#39;window.open.opener&#39;: &#39;object [object Window]&#39;}</text>
</g>
<!-- SG_0_Node_0 -->
<g id="node1" class="node">
<title>SG_0_Node_0</title>
<polygon fill="none" stroke="black" points="165.5,-306.43 64.5,-306.43 64.5,-270.43 165.5,-270.43 165.5,-306.43"/>
<text text-anchor="middle" x="115" y="-283.43" font-family="Times,serif" font-size="20.00">browser</text>
</g>
<!-- SG_0_Node_1 -->
<g id="node2" class="node">
<title>SG_0_Node_1</title>
<ellipse fill="none" stroke="black" cx="64" cy="-37.21" rx="33.88" ry="21.43"/>
<text text-anchor="middle" x="64" y="-32.21" font-family="Times,serif" font-size="20.00">0.0</text>
</g>
<!-- SG_0_Node_0&#45;&gt;SG_0_Node_1 -->
<g id="edge1" class="edge">
<title>SG_0_Node_0&#45;&gt;SG_0_Node_1</title>
<path fill="none" stroke="black" d="M80.89,-270.24C74.5,-265.39 68.69,-259.47 65,-252.43 34,-193.23 46.03,-111.6 55.95,-68.19"/>
<polygon fill="black" stroke="black" points="59.4,-68.81 58.34,-58.27 52.59,-67.17 59.4,-68.81"/>
<text text-anchor="middle" x="110.5" y="-170.43" font-family="Times,serif" font-size="20.00">[NA]</text>
<text text-anchor="middle" x="110.5" y="-148.43" font-family="Times,serif" font-size="20.00">11 levels</text>
</g>
<!-- SG_0_Node_2 -->
<g id="node3" class="node">
<title>SG_0_Node_2</title>
<ellipse fill="none" stroke="black" cx="178" cy="-37.21" rx="33.88" ry="21.43"/>
<text text-anchor="middle" x="178" y="-32.21" font-family="Times,serif" font-size="20.00">1.0</text>
</g>
<!-- SG_0_Node_0&#45;&gt;SG_0_Node_2 -->
<g id="edge2" class="edge">
<title>SG_0_Node_0&#45;&gt;SG_0_Node_2</title>
<path fill="none" stroke="black" d="M141.13,-270.32C146.95,-265.26 152.43,-259.22 156,-252.43 187.07,-193.22 185.46,-112.19 181.68,-68.73"/>
<polygon fill="black" stroke="black" points="185.14,-68.13 180.68,-58.52 178.17,-68.81 185.14,-68.13"/>
<text text-anchor="middle" x="542.5" y="-236.43" font-family="Times,serif" font-size="20.00">brave Ubuntu 22.04 1.59.120 (118.0.5993.88) selenium headless&#45;new</text>
<text text-anchor="middle" x="542.5" y="-214.43" font-family="Times,serif" font-size="20.00">brave Ubuntu 22.04 1.59.120 (118.0.5993.88) selenium xvfb</text>
<text text-anchor="middle" x="542.5" y="-192.43" font-family="Times,serif" font-size="20.00">brave Ubuntu 22.04 1.60.114 (119.0.6045.124) selenium headless&#45;new</text>
<text text-anchor="middle" x="542.5" y="-170.43" font-family="Times,serif" font-size="20.00">brave Ubuntu 22.04 1.60.114 (119.0.6045.124) selenium xvfb</text>
<text text-anchor="middle" x="542.5" y="-148.43" font-family="Times,serif" font-size="20.00">brave macOS 14.0 1.60.118 (119.0.6045.163) selenium headless&#45;new</text>
<text text-anchor="middle" x="542.5" y="-126.43" font-family="Times,serif" font-size="20.00">brave macOS 14.0 1.60.118 (119.0.6045.163) selenium real</text>
<text text-anchor="middle" x="542.5" y="-104.43" font-family="Times,serif" font-size="20.00">chrome Ubuntu 22.04 119 selenium headless&#45;new</text>
<text text-anchor="middle" x="542.5" y="-82.43" font-family="Times,serif" font-size="20.00">chrome Ubuntu 22.04 119 selenium xvfb</text>
</g>
<!-- SG_1_Node_0 -->
<g id="node4" class="node">
<title>SG_1_Node_0</title>
<polygon fill="none" stroke="black" points="1398.5,-306.43 1297.5,-306.43 1297.5,-270.43 1398.5,-270.43 1398.5,-306.43"/>
<text text-anchor="middle" x="1348" y="-283.43" font-family="Times,serif" font-size="20.00">browser</text>
</g>
<!-- SG_1_Node_1 -->
<g id="node5" class="node">
<title>SG_1_Node_1</title>
<ellipse fill="none" stroke="black" cx="1158" cy="-37.21" rx="33.88" ry="21.43"/>
<text text-anchor="middle" x="1158" y="-32.21" font-family="Times,serif" font-size="20.00">0.0</text>
</g>
<!-- SG_1_Node_0&#45;&gt;SG_1_Node_1 -->
<g id="edge3" class="edge">
<title>SG_1_Node_0&#45;&gt;SG_1_Node_1</title>
<path fill="none" stroke="black" d="M1297.28,-285.12C1247.42,-281.67 1176.33,-273.17 1159,-252.43 1115.32,-200.16 1133.63,-113.04 1147.58,-67.69"/>
<polygon fill="black" stroke="black" points="1150.92,-68.74 1150.65,-58.15 1144.26,-66.6 1150.92,-68.74"/>
<text text-anchor="middle" x="1518.5" y="-236.43" font-family="Times,serif" font-size="20.00">brave Ubuntu 22.04 1.59.120 (118.0.5993.88) selenium headless&#45;new</text>
<text text-anchor="middle" x="1518.5" y="-214.43" font-family="Times,serif" font-size="20.00">brave Ubuntu 22.04 1.59.120 (118.0.5993.88) selenium xvfb</text>
<text text-anchor="middle" x="1518.5" y="-192.43" font-family="Times,serif" font-size="20.00">brave Ubuntu 22.04 1.60.114 (119.0.6045.124) selenium headless&#45;new</text>
<text text-anchor="middle" x="1518.5" y="-170.43" font-family="Times,serif" font-size="20.00">brave Ubuntu 22.04 1.60.114 (119.0.6045.124) selenium xvfb</text>
<text text-anchor="middle" x="1518.5" y="-148.43" font-family="Times,serif" font-size="20.00">brave macOS 14.0 1.60.118 (119.0.6045.163) selenium headless&#45;new</text>
<text text-anchor="middle" x="1518.5" y="-126.43" font-family="Times,serif" font-size="20.00">brave macOS 14.0 1.60.118 (119.0.6045.163) selenium real</text>
<text text-anchor="middle" x="1518.5" y="-104.43" font-family="Times,serif" font-size="20.00">chrome Ubuntu 22.04 119 selenium headless&#45;new</text>
<text text-anchor="middle" x="1518.5" y="-82.43" font-family="Times,serif" font-size="20.00">chrome Ubuntu 22.04 119 selenium xvfb</text>
</g>
<!-- SG_1_Node_2 -->
<g id="node6" class="node">
<title>SG_1_Node_2</title>
<ellipse fill="none" stroke="black" cx="1900" cy="-37.21" rx="33.88" ry="21.43"/>
<text text-anchor="middle" x="1900" y="-32.21" font-family="Times,serif" font-size="20.00">1.0</text>
</g>
<!-- SG_1_Node_0&#45;&gt;SG_1_Node_2 -->
<g id="edge4" class="edge">
<title>SG_1_Node_0&#45;&gt;SG_1_Node_2</title>
<path fill="none" stroke="black" d="M1398.67,-287.72C1524.58,-287.94 1843.98,-285.23 1878,-252.43 1927.54,-204.66 1917.21,-114.83 1907.5,-68.13"/>
<polygon fill="black" stroke="black" points="1910.9,-67.32 1905.33,-58.31 1904.07,-68.82 1910.9,-67.32"/>
<text text-anchor="middle" x="1960.5" y="-170.43" font-family="Times,serif" font-size="20.00">[NA]</text>
<text text-anchor="middle" x="1960.5" y="-148.43" font-family="Times,serif" font-size="20.00">11 levels</text>
</g>
</g>
</svg>
