<?xml version="1.0" encoding="UTF-8" standalone="no"?>
<!DOCTYPE svg PUBLIC "-//W3C//DTD SVG 1.1//EN"
 "http://www.w3.org/Graphics/SVG/1.1/DTD/svg11.dtd">
<!-- Generated by graphviz version 2.43.0 (0)
 -->
<!-- Title: G Pages: 1 -->
<svg width="1251pt" height="250pt"
 viewBox="0.00 0.00 1251.00 250.43" xmlns="http://www.w3.org/2000/svg" xmlns:xlink="http://www.w3.org/1999/xlink">
<g id="graph0" class="graph" transform="scale(1 1) rotate(0) translate(4 246.43)">
<title>G</title>
<polygon fill="white" stroke="transparent" points="-4,4 -4,-246.43 1247,-246.43 1247,4 -4,4"/>
<g id="clust1" class="cluster">
<title>cluster_0</title>
<polygon fill="none" stroke="black" points="8,-8 8,-234.43 587,-234.43 587,-8 8,-8"/>
<text text-anchor="middle" x="297.5" y="-198.43" font-family="Times,serif" font-size="40.00">Tree 0, Class message send</text>
</g>
<g id="clust4" class="cluster">
<title>cluster_1</title>
<polygon fill="none" stroke="black" points="595,-8 595,-234.43 1235,-234.43 1235,-8 595,-8"/>
<text text-anchor="middle" x="915" y="-198.43" font-family="Times,serif" font-size="40.00">Tree 0, Class message timeout</text>
</g>
<!-- SG_0_Node_0 -->
<g id="node1" class="node">
<title>SG_0_Node_0</title>
<polygon fill="none" stroke="black" points="311.5,-174.43 210.5,-174.43 210.5,-138.43 311.5,-138.43 311.5,-174.43"/>
<text text-anchor="middle" x="261" y="-151.43" font-family="Times,serif" font-size="20.00">browser</text>
</g>
<!-- SG_0_Node_1 -->
<g id="node2" class="node">
<title>SG_0_Node_1</title>
<ellipse fill="none" stroke="black" cx="66" cy="-37.21" rx="33.88" ry="21.43"/>
<text text-anchor="middle" x="66" y="-32.21" font-family="Times,serif" font-size="20.00">0.0</text>
</g>
<!-- SG_0_Node_0&#45;&gt;SG_0_Node_1 -->
<g id="edge1" class="edge">
<title>SG_0_Node_0&#45;&gt;SG_0_Node_1</title>
<path fill="none" stroke="black" d="M210.4,-153.39C159.19,-150.14 85.07,-141.79 67,-120.43 55.09,-106.35 54.94,-85.54 57.72,-68.38"/>
<polygon fill="black" stroke="black" points="61.22,-68.76 59.75,-58.27 54.36,-67.38 61.22,-68.76"/>
<text text-anchor="middle" x="258" y="-93.43" font-family="Times,serif" font-size="20.00">safari macOS 14.0 17.0 selenium real</text>
</g>
<!-- SG_0_Node_2 -->
<g id="node3" class="node">
<title>SG_0_Node_2</title>
<ellipse fill="none" stroke="black" cx="471" cy="-37.21" rx="33.88" ry="21.43"/>
<text text-anchor="middle" x="471" y="-32.21" font-family="Times,serif" font-size="20.00">1.0</text>
</g>
<!-- SG_0_Node_0&#45;&gt;SG_0_Node_2 -->
<g id="edge2" class="edge">
<title>SG_0_Node_0&#45;&gt;SG_0_Node_2</title>
<path fill="none" stroke="black" d="M311.8,-152C360.51,-147.69 429.45,-138.52 449,-120.43 463.1,-107.38 468.55,-86.38 470.5,-68.87"/>
<polygon fill="black" stroke="black" points="474.02,-68.76 471.31,-58.52 467.04,-68.22 474.02,-68.76"/>
<text text-anchor="middle" x="514.5" y="-104.43" font-family="Times,serif" font-size="20.00">[NA]</text>
<text text-anchor="middle" x="514.5" y="-82.43" font-family="Times,serif" font-size="20.00">18 levels</text>
</g>
<!-- SG_1_Node_0 -->
<g id="node4" class="node">
<title>SG_1_Node_0</title>
<polygon fill="none" stroke="black" points="752.5,-174.43 651.5,-174.43 651.5,-138.43 752.5,-138.43 752.5,-174.43"/>
<text text-anchor="middle" x="702" y="-151.43" font-family="Times,serif" font-size="20.00">browser</text>
</g>
<!-- SG_1_Node_1 -->
<g id="node5" class="node">
<title>SG_1_Node_1</title>
<ellipse fill="none" stroke="black" cx="669" cy="-37.21" rx="33.88" ry="21.43"/>
<text text-anchor="middle" x="669" y="-32.21" font-family="Times,serif" font-size="20.00">0.0</text>
</g>
<!-- SG_1_Node_0&#45;&gt;SG_1_Node_1 -->
<g id="edge3" class="edge">
<title>SG_1_Node_0&#45;&gt;SG_1_Node_1</title>
<path fill="none" stroke="black" d="M681.85,-138.33C677.07,-133.12 672.6,-127.01 670,-120.43 663.61,-104.25 663.07,-84.84 664.27,-68.94"/>
<polygon fill="black" stroke="black" points="667.79,-68.89 665.32,-58.58 660.83,-68.18 667.79,-68.89"/>
<text text-anchor="middle" x="715.5" y="-104.43" font-family="Times,serif" font-size="20.00">[NA]</text>
<text text-anchor="middle" x="715.5" y="-82.43" font-family="Times,serif" font-size="20.00">18 levels</text>
</g>
<!-- SG_1_Node_2 -->
<g id="node6" class="node">
<title>SG_1_Node_2</title>
<ellipse fill="none" stroke="black" cx="783" cy="-37.21" rx="33.88" ry="21.43"/>
<text text-anchor="middle" x="783" y="-32.21" font-family="Times,serif" font-size="20.00">1.0</text>
</g>
<!-- SG_1_Node_0&#45;&gt;SG_1_Node_2 -->
<g id="edge4" class="edge">
<title>SG_1_Node_0&#45;&gt;SG_1_Node_2</title>
<path fill="none" stroke="black" d="M740.69,-138.36C748.31,-133.5 755.61,-127.55 761,-120.43 772.2,-105.65 777.71,-85.6 780.41,-69"/>
<polygon fill="black" stroke="black" points="783.93,-69.06 781.81,-58.68 777,-68.12 783.93,-69.06"/>
<text text-anchor="middle" x="969" y="-93.43" font-family="Times,serif" font-size="20.00">safari macOS 14.0 17.0 selenium real</text>
</g>
</g>
</svg>
