<?xml version="1.0" encoding="UTF-8" standalone="no"?>
<!DOCTYPE svg PUBLIC "-//W3C//DTD SVG 1.1//EN"
 "http://www.w3.org/Graphics/SVG/1.1/DTD/svg11.dtd">
<!-- Generated by graphviz version 2.43.0 (0)
 -->
<!-- Title: G Pages: 1 -->
<svg width="1269pt" height="294pt"
 viewBox="0.00 0.00 1269.00 294.43" xmlns="http://www.w3.org/2000/svg" xmlns:xlink="http://www.w3.org/1999/xlink">
<g id="graph0" class="graph" transform="scale(1 1) rotate(0) translate(4 290.43)">
<title>G</title>
<polygon fill="white" stroke="transparent" points="-4,4 -4,-290.43 1265,-290.43 1265,4 -4,4"/>
<g id="clust1" class="cluster">
<title>cluster_0</title>
<polygon fill="none" stroke="black" points="8,-8 8,-278.43 605,-278.43 605,-8 8,-8"/>
<text text-anchor="middle" x="306.5" y="-242.43" font-family="Times,serif" font-size="40.00">Tree 0, Class message send</text>
</g>
<g id="clust4" class="cluster">
<title>cluster_1</title>
<polygon fill="none" stroke="black" points="613,-8 613,-278.43 1253,-278.43 1253,-8 613,-8"/>
<text text-anchor="middle" x="933" y="-242.43" font-family="Times,serif" font-size="40.00">Tree 0, Class message timeout</text>
</g>
<!-- SG_0_Node_0 -->
<g id="node1" class="node">
<title>SG_0_Node_0</title>
<polygon fill="none" stroke="black" points="157.5,-218.43 56.5,-218.43 56.5,-182.43 157.5,-182.43 157.5,-218.43"/>
<text text-anchor="middle" x="107" y="-195.43" font-family="Times,serif" font-size="20.00">browser</text>
</g>
<!-- SG_0_Node_1 -->
<g id="node2" class="node">
<title>SG_0_Node_1</title>
<ellipse fill="none" stroke="black" cx="50" cy="-37.21" rx="33.88" ry="21.43"/>
<text text-anchor="middle" x="50" y="-32.21" font-family="Times,serif" font-size="20.00">0.0</text>
</g>
<!-- SG_0_Node_0&#45;&gt;SG_0_Node_1 -->
<g id="edge1" class="edge">
<title>SG_0_Node_0&#45;&gt;SG_0_Node_1</title>
<path fill="none" stroke="black" d="M56.34,-185.84C46.31,-180.77 37.03,-173.85 31,-164.43 9.91,-131.49 22.06,-114.5 31,-76.43 31.76,-73.18 32.84,-69.9 34.11,-66.68"/>
<polygon fill="black" stroke="black" points="37.38,-67.94 38.32,-57.39 31,-65.06 37.38,-67.94"/>
<text text-anchor="middle" x="76.5" y="-126.43" font-family="Times,serif" font-size="20.00">[NA]</text>
<text text-anchor="middle" x="76.5" y="-104.43" font-family="Times,serif" font-size="20.00">15 levels</text>
</g>
<!-- SG_0_Node_2 -->
<g id="node3" class="node">
<title>SG_0_Node_2</title>
<ellipse fill="none" stroke="black" cx="148" cy="-37.21" rx="33.88" ry="21.43"/>
<text text-anchor="middle" x="148" y="-32.21" font-family="Times,serif" font-size="20.00">1.0</text>
</g>
<!-- SG_0_Node_0&#45;&gt;SG_0_Node_2 -->
<g id="edge2" class="edge">
<title>SG_0_Node_0&#45;&gt;SG_0_Node_2</title>
<path fill="none" stroke="black" d="M117.83,-182.13C120.87,-176.64 123.91,-170.43 126,-164.43 136.99,-132.86 142.66,-94.85 145.47,-68.85"/>
<polygon fill="black" stroke="black" points="148.95,-69.14 146.47,-58.84 141.99,-68.44 148.95,-69.14"/>
<text text-anchor="middle" x="368.5" y="-148.43" font-family="Times,serif" font-size="20.00">firefox Ubuntu 22.04 119 selenium headless</text>
<text text-anchor="middle" x="368.5" y="-126.43" font-family="Times,serif" font-size="20.00">firefox Ubuntu 22.04 119 selenium xvfb</text>
<text text-anchor="middle" x="368.5" y="-104.43" font-family="Times,serif" font-size="20.00">firefox macOS 14.0 119 selenium headless</text>
<text text-anchor="middle" x="368.5" y="-82.43" font-family="Times,serif" font-size="20.00">firefox macOS 14.0 119 selenium real</text>
</g>
<!-- SG_1_Node_0 -->
<g id="node4" class="node">
<title>SG_1_Node_0</title>
<polygon fill="none" stroke="black" points="949.5,-218.43 848.5,-218.43 848.5,-182.43 949.5,-182.43 949.5,-218.43"/>
<text text-anchor="middle" x="899" y="-195.43" font-family="Times,serif" font-size="20.00">browser</text>
</g>
<!-- SG_1_Node_1 -->
<g id="node5" class="node">
<title>SG_1_Node_1</title>
<ellipse fill="none" stroke="black" cx="668" cy="-37.21" rx="33.88" ry="21.43"/>
<text text-anchor="middle" x="668" y="-32.21" font-family="Times,serif" font-size="20.00">0.0</text>
</g>
<!-- SG_1_Node_0&#45;&gt;SG_1_Node_1 -->
<g id="edge3" class="edge">
<title>SG_1_Node_0&#45;&gt;SG_1_Node_1</title>
<path fill="none" stroke="black" d="M848.31,-199.07C787.75,-197.46 691.74,-190.68 669,-164.43 646.25,-138.17 651.3,-96.03 658.43,-67.75"/>
<polygon fill="black" stroke="black" points="661.83,-68.58 661.11,-58.01 655.08,-66.73 661.83,-68.58"/>
<text text-anchor="middle" x="893.5" y="-148.43" font-family="Times,serif" font-size="20.00">firefox Ubuntu 22.04 119 selenium headless</text>
<text text-anchor="middle" x="893.5" y="-126.43" font-family="Times,serif" font-size="20.00">firefox Ubuntu 22.04 119 selenium xvfb</text>
<text text-anchor="middle" x="893.5" y="-104.43" font-family="Times,serif" font-size="20.00">firefox macOS 14.0 119 selenium headless</text>
<text text-anchor="middle" x="893.5" y="-82.43" font-family="Times,serif" font-size="20.00">firefox macOS 14.0 119 selenium real</text>
</g>
<!-- SG_1_Node_2 -->
<g id="node6" class="node">
<title>SG_1_Node_2</title>
<ellipse fill="none" stroke="black" cx="1140" cy="-37.21" rx="33.88" ry="21.43"/>
<text text-anchor="middle" x="1140" y="-32.21" font-family="Times,serif" font-size="20.00">1.0</text>
</g>
<!-- SG_1_Node_0&#45;&gt;SG_1_Node_2 -->
<g id="edge4" class="edge">
<title>SG_1_Node_0&#45;&gt;SG_1_Node_2</title>
<path fill="none" stroke="black" d="M949.66,-197.96C1006.81,-195.21 1094.83,-187.27 1118,-164.43 1143,-139.78 1145.53,-97.55 1143.8,-68.78"/>
<polygon fill="black" stroke="black" points="1147.27,-68.17 1142.97,-58.48 1140.29,-68.73 1147.27,-68.17"/>
<text text-anchor="middle" x="1189.5" y="-126.43" font-family="Times,serif" font-size="20.00">[NA]</text>
<text text-anchor="middle" x="1189.5" y="-104.43" font-family="Times,serif" font-size="20.00">15 levels</text>
</g>
</g>
</svg>
