<?xml version="1.0" encoding="UTF-8" standalone="no"?>
<!DOCTYPE svg PUBLIC "-//W3C//DTD SVG 1.1//EN"
 "http://www.w3.org/Graphics/SVG/1.1/DTD/svg11.dtd">
<!-- Generated by graphviz version 2.43.0 (0)
 -->
<!-- Title: G Pages: 1 -->
<svg width="1590pt" height="316pt"
 viewBox="0.00 0.00 1590.00 316.43" xmlns="http://www.w3.org/2000/svg" xmlns:xlink="http://www.w3.org/1999/xlink">
<g id="graph0" class="graph" transform="scale(1 1) rotate(0) translate(4 312.43)">
<title>G</title>
<polygon fill="white" stroke="transparent" points="-4,4 -4,-312.43 1586,-312.43 1586,4 -4,4"/>
<g id="clust1" class="cluster">
<title>cluster_0</title>
<polygon fill="none" stroke="black" points="8,-8 8,-300.43 793,-300.43 793,-8 8,-8"/>
<text text-anchor="middle" x="400.5" y="-264.43" font-family="Times,serif" font-size="40.00">Tree 0, Class fullscreenEnabled: false</text>
</g>
<g id="clust4" class="cluster">
<title>cluster_1</title>
<polygon fill="none" stroke="black" points="801,-8 801,-300.43 1574,-300.43 1574,-8 801,-8"/>
<text text-anchor="middle" x="1187.5" y="-264.43" font-family="Times,serif" font-size="40.00">Tree 0, Class fullscreenEnabled: true</text>
</g>
<!-- SG_0_Node_0 -->
<g id="node1" class="node">
<title>SG_0_Node_0</title>
<polygon fill="none" stroke="black" points="344.5,-240.43 243.5,-240.43 243.5,-204.43 344.5,-204.43 344.5,-240.43"/>
<text text-anchor="middle" x="294" y="-217.43" font-family="Times,serif" font-size="20.00">browser</text>
</g>
<!-- SG_0_Node_1 -->
<g id="node2" class="node">
<title>SG_0_Node_1</title>
<ellipse fill="none" stroke="black" cx="136" cy="-37.21" rx="33.88" ry="21.43"/>
<text text-anchor="middle" x="136" y="-32.21" font-family="Times,serif" font-size="20.00">0.0</text>
</g>
<!-- SG_0_Node_0&#45;&gt;SG_0_Node_1 -->
<g id="edge1" class="edge">
<title>SG_0_Node_0&#45;&gt;SG_0_Node_1</title>
<path fill="none" stroke="black" d="M243.11,-216.87C202.49,-212.06 150.24,-202.83 137,-186.43 110.17,-153.18 117.72,-100.72 126.34,-67.95"/>
<polygon fill="black" stroke="black" points="129.79,-68.62 129.14,-58.05 123.05,-66.72 129.79,-68.62"/>
<text text-anchor="middle" x="361.5" y="-170.43" font-family="Times,serif" font-size="20.00">firefox Ubuntu 22.04 119 selenium headless</text>
<text text-anchor="middle" x="361.5" y="-148.43" font-family="Times,serif" font-size="20.00">firefox Ubuntu 22.04 119 selenium xvfb</text>
<text text-anchor="middle" x="361.5" y="-126.43" font-family="Times,serif" font-size="20.00">firefox macOS 14.0 119 selenium headless</text>
<text text-anchor="middle" x="361.5" y="-104.43" font-family="Times,serif" font-size="20.00">firefox macOS 14.0 119 selenium real</text>
<text text-anchor="middle" x="361.5" y="-82.43" font-family="Times,serif" font-size="20.00">safari macOS 14.0 17.0 selenium real</text>
</g>
<!-- SG_0_Node_2 -->
<g id="node3" class="node">
<title>SG_0_Node_2</title>
<ellipse fill="none" stroke="black" cx="608" cy="-37.21" rx="33.88" ry="21.43"/>
<text text-anchor="middle" x="608" y="-32.21" font-family="Times,serif" font-size="20.00">1.0</text>
</g>
<!-- SG_0_Node_0&#45;&gt;SG_0_Node_2 -->
<g id="edge2" class="edge">
<title>SG_0_Node_0&#45;&gt;SG_0_Node_2</title>
<path fill="none" stroke="black" d="M344.7,-218.66C423.73,-213.87 569.05,-202.91 586,-186.43 617.13,-156.15 617.02,-102.34 613.17,-68.56"/>
<polygon fill="black" stroke="black" points="616.6,-67.81 611.82,-58.35 609.66,-68.72 616.6,-67.81"/>
<text text-anchor="middle" x="659.5" y="-137.43" font-family="Times,serif" font-size="20.00">[NA]</text>
<text text-anchor="middle" x="659.5" y="-115.43" font-family="Times,serif" font-size="20.00">14 levels</text>
</g>
<!-- SG_1_Node_0 -->
<g id="node4" class="node">
<title>SG_1_Node_0</title>
<polygon fill="none" stroke="black" points="958.5,-240.43 857.5,-240.43 857.5,-204.43 958.5,-204.43 958.5,-240.43"/>
<text text-anchor="middle" x="908" y="-217.43" font-family="Times,serif" font-size="20.00">browser</text>
</g>
<!-- SG_1_Node_1 -->
<g id="node5" class="node">
<title>SG_1_Node_1</title>
<ellipse fill="none" stroke="black" cx="875" cy="-37.21" rx="33.88" ry="21.43"/>
<text text-anchor="middle" x="875" y="-32.21" font-family="Times,serif" font-size="20.00">0.0</text>
</g>
<!-- SG_1_Node_0&#45;&gt;SG_1_Node_1 -->
<g id="edge3" class="edge">
<title>SG_1_Node_0&#45;&gt;SG_1_Node_1</title>
<path fill="none" stroke="black" d="M887.83,-204.34C883.04,-199.13 878.58,-193.02 876,-186.43 860.96,-148.07 864.34,-99.71 868.99,-68.87"/>
<polygon fill="black" stroke="black" points="872.48,-69.17 870.65,-58.73 865.58,-68.03 872.48,-69.17"/>
<text text-anchor="middle" x="921.5" y="-137.43" font-family="Times,serif" font-size="20.00">[NA]</text>
<text text-anchor="middle" x="921.5" y="-115.43" font-family="Times,serif" font-size="20.00">14 levels</text>
</g>
<!-- SG_1_Node_2 -->
<g id="node6" class="node">
<title>SG_1_Node_2</title>
<ellipse fill="none" stroke="black" cx="989" cy="-37.21" rx="33.88" ry="21.43"/>
<text text-anchor="middle" x="989" y="-32.21" font-family="Times,serif" font-size="20.00">1.0</text>
</g>
<!-- SG_1_Node_0&#45;&gt;SG_1_Node_2 -->
<g id="edge4" class="edge">
<title>SG_1_Node_0&#45;&gt;SG_1_Node_2</title>
<path fill="none" stroke="black" d="M947.91,-204.41C955.27,-199.59 962.15,-193.64 967,-186.43 990.65,-151.21 993.1,-100.72 991.76,-68.71"/>
<polygon fill="black" stroke="black" points="995.24,-68.39 991.18,-58.61 988.26,-68.79 995.24,-68.39"/>
<text text-anchor="middle" x="1216.5" y="-170.43" font-family="Times,serif" font-size="20.00">firefox Ubuntu 22.04 119 selenium headless</text>
<text text-anchor="middle" x="1216.5" y="-148.43" font-family="Times,serif" font-size="20.00">firefox Ubuntu 22.04 119 selenium xvfb</text>
<text text-anchor="middle" x="1216.5" y="-126.43" font-family="Times,serif" font-size="20.00">firefox macOS 14.0 119 selenium headless</text>
<text text-anchor="middle" x="1216.5" y="-104.43" font-family="Times,serif" font-size="20.00">firefox macOS 14.0 119 selenium real</text>
<text text-anchor="middle" x="1216.5" y="-82.43" font-family="Times,serif" font-size="20.00">safari macOS 14.0 17.0 selenium real</text>
</g>
</g>
</svg>
