<?xml version="1.0" encoding="UTF-8" standalone="no"?>
<!DOCTYPE svg PUBLIC "-//W3C//DTD SVG 1.1//EN"
 "http://www.w3.org/Graphics/SVG/1.1/DTD/svg11.dtd">
<!-- Generated by graphviz version 2.43.0 (0)
 -->
<!-- Title: G Pages: 1 -->
<svg width="1226pt" height="316pt"
 viewBox="0.00 0.00 1226.00 316.43" xmlns="http://www.w3.org/2000/svg" xmlns:xlink="http://www.w3.org/1999/xlink">
<g id="graph0" class="graph" transform="scale(1 1) rotate(0) translate(4 312.43)">
<title>G</title>
<polygon fill="white" stroke="transparent" points="-4,4 -4,-312.43 1222,-312.43 1222,4 -4,4"/>
<g id="clust1" class="cluster">
<title>cluster_0</title>
<polygon fill="none" stroke="black" points="8,-8 8,-300.43 605,-300.43 605,-8 8,-8"/>
<text text-anchor="middle" x="306.5" y="-264.43" font-family="Times,serif" font-size="40.00">Tree 0, Class error</text>
</g>
<g id="clust4" class="cluster">
<title>cluster_1</title>
<polygon fill="none" stroke="black" points="613,-8 613,-300.43 1210,-300.43 1210,-8 613,-8"/>
<text text-anchor="middle" x="911.5" y="-264.43" font-family="Times,serif" font-size="40.00">Tree 0, Class load</text>
</g>
<!-- SG_0_Node_0 -->
<g id="node1" class="node">
<title>SG_0_Node_0</title>
<polygon fill="none" stroke="black" points="157.5,-240.43 56.5,-240.43 56.5,-204.43 157.5,-204.43 157.5,-240.43"/>
<text text-anchor="middle" x="107" y="-217.43" font-family="Times,serif" font-size="20.00">browser</text>
</g>
<!-- SG_0_Node_1 -->
<g id="node2" class="node">
<title>SG_0_Node_1</title>
<ellipse fill="none" stroke="black" cx="50" cy="-37.21" rx="33.88" ry="21.43"/>
<text text-anchor="middle" x="50" y="-32.21" font-family="Times,serif" font-size="20.00">0.0</text>
</g>
<!-- SG_0_Node_0&#45;&gt;SG_0_Node_1 -->
<g id="edge1" class="edge">
<title>SG_0_Node_0&#45;&gt;SG_0_Node_1</title>
<path fill="none" stroke="black" d="M56.34,-207.84C46.31,-202.77 37.03,-195.85 31,-186.43 4.63,-145.26 19.82,-124.02 31,-76.43 31.76,-73.18 32.84,-69.9 34.11,-66.68"/>
<polygon fill="black" stroke="black" points="37.38,-67.94 38.32,-57.39 31,-65.06 37.38,-67.94"/>
<text text-anchor="middle" x="76.5" y="-137.43" font-family="Times,serif" font-size="20.00">[NA]</text>
<text text-anchor="middle" x="76.5" y="-115.43" font-family="Times,serif" font-size="20.00">14 levels</text>
</g>
<!-- SG_0_Node_2 -->
<g id="node3" class="node">
<title>SG_0_Node_2</title>
<ellipse fill="none" stroke="black" cx="148" cy="-37.21" rx="33.88" ry="21.43"/>
<text text-anchor="middle" x="148" y="-32.21" font-family="Times,serif" font-size="20.00">1.0</text>
</g>
<!-- SG_0_Node_0&#45;&gt;SG_0_Node_2 -->
<g id="edge2" class="edge">
<title>SG_0_Node_0&#45;&gt;SG_0_Node_2</title>
<path fill="none" stroke="black" d="M117.92,-204.17C120.96,-198.68 123.98,-192.46 126,-186.43 139.12,-147.14 144.43,-99.39 146.57,-68.9"/>
<polygon fill="black" stroke="black" points="150.07,-69.08 147.2,-58.87 143.08,-68.63 150.07,-69.08"/>
<text text-anchor="middle" x="369.5" y="-170.43" font-family="Times,serif" font-size="20.00">firefox Ubuntu 22.04 119 selenium headless</text>
<text text-anchor="middle" x="369.5" y="-148.43" font-family="Times,serif" font-size="20.00">firefox Ubuntu 22.04 119 selenium xvfb</text>
<text text-anchor="middle" x="369.5" y="-126.43" font-family="Times,serif" font-size="20.00">firefox macOS 14.0 119 selenium headless</text>
<text text-anchor="middle" x="369.5" y="-104.43" font-family="Times,serif" font-size="20.00">firefox macOS 14.0 119 selenium real</text>
<text text-anchor="middle" x="369.5" y="-82.43" font-family="Times,serif" font-size="20.00">safari macOS 14.0 17.0 selenium real</text>
</g>
<!-- SG_1_Node_0 -->
<g id="node4" class="node">
<title>SG_1_Node_0</title>
<polygon fill="none" stroke="black" points="941.5,-240.43 840.5,-240.43 840.5,-204.43 941.5,-204.43 941.5,-240.43"/>
<text text-anchor="middle" x="891" y="-217.43" font-family="Times,serif" font-size="20.00">browser</text>
</g>
<!-- SG_1_Node_1 -->
<g id="node5" class="node">
<title>SG_1_Node_1</title>
<ellipse fill="none" stroke="black" cx="655" cy="-37.21" rx="33.88" ry="21.43"/>
<text text-anchor="middle" x="655" y="-32.21" font-family="Times,serif" font-size="20.00">0.0</text>
</g>
<!-- SG_1_Node_0&#45;&gt;SG_1_Node_1 -->
<g id="edge3" class="edge">
<title>SG_1_Node_0&#45;&gt;SG_1_Node_1</title>
<path fill="none" stroke="black" d="M840.28,-222C773.63,-221.54 661.96,-216.19 636,-186.43 607.21,-153.42 624.66,-99.48 639.88,-66.58"/>
<polygon fill="black" stroke="black" points="643.07,-68.02 644.27,-57.49 636.77,-64.97 643.07,-68.02"/>
<text text-anchor="middle" x="860.5" y="-170.43" font-family="Times,serif" font-size="20.00">firefox Ubuntu 22.04 119 selenium headless</text>
<text text-anchor="middle" x="860.5" y="-148.43" font-family="Times,serif" font-size="20.00">firefox Ubuntu 22.04 119 selenium xvfb</text>
<text text-anchor="middle" x="860.5" y="-126.43" font-family="Times,serif" font-size="20.00">firefox macOS 14.0 119 selenium headless</text>
<text text-anchor="middle" x="860.5" y="-104.43" font-family="Times,serif" font-size="20.00">firefox macOS 14.0 119 selenium real</text>
<text text-anchor="middle" x="860.5" y="-82.43" font-family="Times,serif" font-size="20.00">safari macOS 14.0 17.0 selenium real</text>
</g>
<!-- SG_1_Node_2 -->
<g id="node6" class="node">
<title>SG_1_Node_2</title>
<ellipse fill="none" stroke="black" cx="1111" cy="-37.21" rx="33.88" ry="21.43"/>
<text text-anchor="middle" x="1111" y="-32.21" font-family="Times,serif" font-size="20.00">1.0</text>
</g>
<!-- SG_1_Node_0&#45;&gt;SG_1_Node_2 -->
<g id="edge4" class="edge">
<title>SG_1_Node_0&#45;&gt;SG_1_Node_2</title>
<path fill="none" stroke="black" d="M941.6,-219.06C993.39,-215.54 1069.04,-206.94 1089,-186.43 1119.2,-155.38 1119.42,-102.03 1115.89,-68.52"/>
<polygon fill="black" stroke="black" points="1119.34,-67.89 1114.64,-58.39 1112.39,-68.74 1119.34,-67.89"/>
<text text-anchor="middle" x="1162.5" y="-137.43" font-family="Times,serif" font-size="20.00">[NA]</text>
<text text-anchor="middle" x="1162.5" y="-115.43" font-family="Times,serif" font-size="20.00">14 levels</text>
</g>
</g>
</svg>
