<?xml version="1.0" encoding="UTF-8" standalone="no"?>
<!DOCTYPE svg PUBLIC "-//W3C//DTD SVG 1.1//EN"
 "http://www.w3.org/Graphics/SVG/1.1/DTD/svg11.dtd">
<!-- Generated by graphviz version 2.43.0 (0)
 -->
<!-- Title: G Pages: 1 -->
<svg width="2063pt" height="316pt"
 viewBox="0.00 0.00 2063.00 316.43" xmlns="http://www.w3.org/2000/svg" xmlns:xlink="http://www.w3.org/1999/xlink">
<g id="graph0" class="graph" transform="scale(1 1) rotate(0) translate(4 312.43)">
<title>G</title>
<polygon fill="white" stroke="transparent" points="-4,4 -4,-312.43 2059,-312.43 2059,4 -4,4"/>
<g id="clust1" class="cluster">
<title>cluster_0</title>
<polygon fill="none" stroke="black" points="8,-8 8,-300.43 964,-300.43 964,-8 8,-8"/>
<text text-anchor="middle" x="486" y="-264.43" font-family="Times,serif" font-size="40.00">Tree 0, Class window.originAgentCluster: true</text>
</g>
<g id="clust4" class="cluster">
<title>cluster_1</title>
<polygon fill="none" stroke="black" points="972,-8 972,-300.43 2047,-300.43 2047,-8 972,-8"/>
<text text-anchor="middle" x="1509.5" y="-264.43" font-family="Times,serif" font-size="40.00">Tree 0, Class window.originAgentCluster: undefined</text>
</g>
<!-- SG_0_Node_0 -->
<g id="node1" class="node">
<title>SG_0_Node_0</title>
<polygon fill="none" stroke="black" points="344.5,-240.43 243.5,-240.43 243.5,-204.43 344.5,-204.43 344.5,-240.43"/>
<text text-anchor="middle" x="294" y="-217.43" font-family="Times,serif" font-size="20.00">browser</text>
</g>
<!-- SG_0_Node_1 -->
<g id="node2" class="node">
<title>SG_0_Node_1</title>
<ellipse fill="none" stroke="black" cx="172" cy="-37.21" rx="33.88" ry="21.43"/>
<text text-anchor="middle" x="172" y="-32.21" font-family="Times,serif" font-size="20.00">0.0</text>
</g>
<!-- SG_0_Node_0&#45;&gt;SG_0_Node_1 -->
<g id="edge1" class="edge">
<title>SG_0_Node_0&#45;&gt;SG_0_Node_1</title>
<path fill="none" stroke="black" d="M243.41,-220.31C218.03,-216.86 189.3,-207.96 173,-186.43 147.28,-152.46 154.42,-100.42 162.66,-67.91"/>
<polygon fill="black" stroke="black" points="166.09,-68.65 165.34,-58.08 159.33,-66.81 166.09,-68.65"/>
<text text-anchor="middle" x="397.5" y="-170.43" font-family="Times,serif" font-size="20.00">firefox Ubuntu 22.04 119 selenium headless</text>
<text text-anchor="middle" x="397.5" y="-148.43" font-family="Times,serif" font-size="20.00">firefox Ubuntu 22.04 119 selenium xvfb</text>
<text text-anchor="middle" x="397.5" y="-126.43" font-family="Times,serif" font-size="20.00">firefox macOS 14.0 119 selenium headless</text>
<text text-anchor="middle" x="397.5" y="-104.43" font-family="Times,serif" font-size="20.00">firefox macOS 14.0 119 selenium real</text>
<text text-anchor="middle" x="397.5" y="-82.43" font-family="Times,serif" font-size="20.00">safari macOS 14.0 17.0 selenium real</text>
</g>
<!-- SG_0_Node_2 -->
<g id="node3" class="node">
<title>SG_0_Node_2</title>
<ellipse fill="none" stroke="black" cx="644" cy="-37.21" rx="33.88" ry="21.43"/>
<text text-anchor="middle" x="644" y="-32.21" font-family="Times,serif" font-size="20.00">1.0</text>
</g>
<!-- SG_0_Node_0&#45;&gt;SG_0_Node_2 -->
<g id="edge2" class="edge">
<title>SG_0_Node_0&#45;&gt;SG_0_Node_2</title>
<path fill="none" stroke="black" d="M344.59,-219.39C431.65,-215.39 602.4,-205.24 622,-186.43 653.33,-156.36 653.16,-102.48 649.24,-68.63"/>
<polygon fill="black" stroke="black" points="652.67,-67.85 647.87,-58.4 645.73,-68.78 652.67,-67.85"/>
<text text-anchor="middle" x="696.5" y="-137.43" font-family="Times,serif" font-size="20.00">[NA]</text>
<text text-anchor="middle" x="696.5" y="-115.43" font-family="Times,serif" font-size="20.00">14 levels</text>
</g>
<!-- SG_1_Node_0 -->
<g id="node4" class="node">
<title>SG_1_Node_0</title>
<polygon fill="none" stroke="black" points="1129.5,-240.43 1028.5,-240.43 1028.5,-204.43 1129.5,-204.43 1129.5,-240.43"/>
<text text-anchor="middle" x="1079" y="-217.43" font-family="Times,serif" font-size="20.00">browser</text>
</g>
<!-- SG_1_Node_1 -->
<g id="node5" class="node">
<title>SG_1_Node_1</title>
<ellipse fill="none" stroke="black" cx="1046" cy="-37.21" rx="33.88" ry="21.43"/>
<text text-anchor="middle" x="1046" y="-32.21" font-family="Times,serif" font-size="20.00">0.0</text>
</g>
<!-- SG_1_Node_0&#45;&gt;SG_1_Node_1 -->
<g id="edge3" class="edge">
<title>SG_1_Node_0&#45;&gt;SG_1_Node_1</title>
<path fill="none" stroke="black" d="M1058.83,-204.34C1054.04,-199.13 1049.58,-193.02 1047,-186.43 1031.96,-148.07 1035.34,-99.71 1039.99,-68.87"/>
<polygon fill="black" stroke="black" points="1043.48,-69.17 1041.65,-58.73 1036.58,-68.03 1043.48,-69.17"/>
<text text-anchor="middle" x="1092.5" y="-137.43" font-family="Times,serif" font-size="20.00">[NA]</text>
<text text-anchor="middle" x="1092.5" y="-115.43" font-family="Times,serif" font-size="20.00">14 levels</text>
</g>
<!-- SG_1_Node_2 -->
<g id="node6" class="node">
<title>SG_1_Node_2</title>
<ellipse fill="none" stroke="black" cx="1160" cy="-37.21" rx="33.88" ry="21.43"/>
<text text-anchor="middle" x="1160" y="-32.21" font-family="Times,serif" font-size="20.00">1.0</text>
</g>
<!-- SG_1_Node_0&#45;&gt;SG_1_Node_2 -->
<g id="edge4" class="edge">
<title>SG_1_Node_0&#45;&gt;SG_1_Node_2</title>
<path fill="none" stroke="black" d="M1118.91,-204.41C1126.27,-199.59 1133.15,-193.64 1138,-186.43 1161.65,-151.21 1164.1,-100.72 1162.76,-68.71"/>
<polygon fill="black" stroke="black" points="1166.24,-68.39 1162.18,-58.61 1159.26,-68.79 1166.24,-68.39"/>
<text text-anchor="middle" x="1387.5" y="-170.43" font-family="Times,serif" font-size="20.00">firefox Ubuntu 22.04 119 selenium headless</text>
<text text-anchor="middle" x="1387.5" y="-148.43" font-family="Times,serif" font-size="20.00">firefox Ubuntu 22.04 119 selenium xvfb</text>
<text text-anchor="middle" x="1387.5" y="-126.43" font-family="Times,serif" font-size="20.00">firefox macOS 14.0 119 selenium headless</text>
<text text-anchor="middle" x="1387.5" y="-104.43" font-family="Times,serif" font-size="20.00">firefox macOS 14.0 119 selenium real</text>
<text text-anchor="middle" x="1387.5" y="-82.43" font-family="Times,serif" font-size="20.00">safari macOS 14.0 17.0 selenium real</text>
</g>
</g>
</svg>
