<?xml version="1.0" encoding="UTF-8" standalone="no"?>
<!DOCTYPE svg PUBLIC "-//W3C//DTD SVG 1.1//EN"
 "http://www.w3.org/Graphics/SVG/1.1/DTD/svg11.dtd">
<!-- Generated by graphviz version 2.43.0 (0)
 -->
<!-- Title: G Pages: 1 -->
<svg width="4266pt" height="1215pt"
 viewBox="0.00 0.00 4266.00 1214.56" xmlns="http://www.w3.org/2000/svg" xmlns:xlink="http://www.w3.org/1999/xlink">
<g id="graph0" class="graph" transform="scale(1 1) rotate(0) translate(4 1210.56)">
<title>G</title>
<polygon fill="white" stroke="transparent" points="-4,4 -4,-1210.56 4262,-1210.56 4262,4 -4,4"/>
<g id="clust1" class="cluster">
<title>cluster_0</title>
<polygon fill="none" stroke="black" points="8,-8 8,-1198.56 1448,-1198.56 1448,-8 8,-8"/>
<text text-anchor="middle" x="728" y="-1162.56" font-family="Times,serif" font-size="40.00">Tree 0, Class window.originAgentCluster: false</text>
</g>
<g id="clust9" class="cluster">
<title>cluster_1</title>
<polygon fill="none" stroke="black" points="1456,-130.43 1456,-1198.56 3167,-1198.56 3167,-130.43 1456,-130.43"/>
<text text-anchor="middle" x="2311.5" y="-1162.56" font-family="Times,serif" font-size="40.00">Tree 0, Class window.originAgentCluster: true</text>
</g>
<g id="clust16" class="cluster">
<title>cluster_2</title>
<polygon fill="none" stroke="black" points="3175,-862.13 3175,-1198.56 4250,-1198.56 4250,-862.13 3175,-862.13"/>
<text text-anchor="middle" x="3712.5" y="-1162.56" font-family="Times,serif" font-size="40.00">Tree 0, Class window.originAgentCluster: undefined</text>
</g>
<!-- SG_0_Node_0 -->
<g id="node1" class="node">
<title>SG_0_Node_0</title>
<polygon fill="none" stroke="black" points="723,-1138.56 591,-1138.56 591,-1102.56 723,-1102.56 723,-1138.56"/>
<text text-anchor="middle" x="657" y="-1115.56" font-family="Times,serif" font-size="20.00">resp_origin</text>
</g>
<!-- SG_0_Node_1 -->
<g id="node2" class="node">
<title>SG_0_Node_1</title>
<polygon fill="none" stroke="black" points="198.5,-909.35 97.5,-909.35 97.5,-873.35 198.5,-873.35 198.5,-909.35"/>
<text text-anchor="middle" x="148" y="-886.35" font-family="Times,serif" font-size="20.00">browser</text>
</g>
<!-- SG_0_Node_0&#45;&gt;SG_0_Node_1 -->
<g id="edge1" class="edge">
<title>SG_0_Node_0&#45;&gt;SG_0_Node_1</title>
<path fill="none" stroke="black" d="M590.71,-1119.49C499.91,-1118.33 342.45,-1112.23 293,-1084.56 224.98,-1046.49 179.12,-961.9 159.22,-918.75"/>
<polygon fill="black" stroke="black" points="162.34,-917.15 155.05,-909.47 155.96,-920.02 162.34,-917.15"/>
<text text-anchor="middle" x="500.5" y="-1046.56" font-family="Times,serif" font-size="20.00">[NA]</text>
<text text-anchor="middle" x="500.5" y="-1024.56" font-family="Times,serif" font-size="20.00">https://headers.webappsec.eu</text>
<text text-anchor="middle" x="500.5" y="-1002.56" font-family="Times,serif" font-size="20.00">https://headers.websec.saarland</text>
<text text-anchor="middle" x="500.5" y="-980.56" font-family="Times,serif" font-size="20.00">https://sub.headers.websec.saarland</text>
<text text-anchor="middle" x="500.5" y="-958.56" font-family="Times,serif" font-size="20.00">https://sub.sub.headers.websec.saarland</text>
</g>
<!-- SG_0_Node_2 -->
<g id="node3" class="node">
<title>SG_0_Node_2</title>
<polygon fill="none" stroke="black" points="927.5,-909.35 826.5,-909.35 826.5,-873.35 927.5,-873.35 927.5,-909.35"/>
<text text-anchor="middle" x="877" y="-886.35" font-family="Times,serif" font-size="20.00">browser</text>
</g>
<!-- SG_0_Node_0&#45;&gt;SG_0_Node_2 -->
<g id="edge2" class="edge">
<title>SG_0_Node_0&#45;&gt;SG_0_Node_2</title>
<path fill="none" stroke="black" d="M687.25,-1102.55C695.62,-1097.26 704.47,-1091.08 712,-1084.56 772.71,-1031.94 830.8,-956.54 859.09,-917.66"/>
<polygon fill="black" stroke="black" points="861.97,-919.65 864.99,-909.5 856.3,-915.56 861.97,-919.65"/>
<text text-anchor="middle" x="1051.5" y="-1035.56" font-family="Times,serif" font-size="20.00">http://headers.webappsec.eu</text>
<text text-anchor="middle" x="1051.5" y="-1013.56" font-family="Times,serif" font-size="20.00">http://headers.websec.saarland</text>
<text text-anchor="middle" x="1051.5" y="-991.56" font-family="Times,serif" font-size="20.00">http://sub.headers.websec.saarland</text>
<text text-anchor="middle" x="1051.5" y="-969.56" font-family="Times,serif" font-size="20.00">http://sub.sub.headers.websec.saarland</text>
</g>
<!-- SG_0_Node_3 -->
<g id="node4" class="node">
<title>SG_0_Node_3</title>
<polygon fill="none" stroke="black" points="153.5,-720.92 16.5,-720.92 16.5,-684.92 153.5,-684.92 153.5,-720.92"/>
<text text-anchor="middle" x="85" y="-697.92" font-family="Times,serif" font-size="20.00">raw_header</text>
</g>
<!-- SG_0_Node_1&#45;&gt;SG_0_Node_3 -->
<g id="edge5" class="edge">
<title>SG_0_Node_1&#45;&gt;SG_0_Node_3</title>
<path fill="none" stroke="black" d="M97.31,-886.31C74.37,-881.66 49.25,-871.99 35,-852.13 6.5,-812.41 13.33,-785.96 35,-742.13 37.67,-736.74 41.5,-731.89 45.88,-727.61"/>
<polygon fill="black" stroke="black" points="48.34,-730.12 53.65,-720.95 43.78,-724.81 48.34,-730.12"/>
<text text-anchor="middle" x="80.5" y="-803.13" font-family="Times,serif" font-size="20.00">[NA]</text>
<text text-anchor="middle" x="80.5" y="-781.13" font-family="Times,serif" font-size="20.00">17 levels</text>
</g>
<!-- SG_0_Node_4 -->
<g id="node5" class="node">
<title>SG_0_Node_4</title>
<polygon fill="none" stroke="black" points="539.5,-720.92 402.5,-720.92 402.5,-684.92 539.5,-684.92 539.5,-720.92"/>
<text text-anchor="middle" x="471" y="-697.92" font-family="Times,serif" font-size="20.00">raw_header</text>
</g>
<!-- SG_0_Node_1&#45;&gt;SG_0_Node_4 -->
<g id="edge6" class="edge">
<title>SG_0_Node_1&#45;&gt;SG_0_Node_4</title>
<path fill="none" stroke="black" d="M144.27,-873.3C138.61,-842.41 131.92,-777.13 167,-742.13 197.68,-711.53 312.45,-704.4 391.85,-703.26"/>
<polygon fill="black" stroke="black" points="392.36,-706.76 402.32,-703.14 392.28,-699.76 392.36,-706.76"/>
<text text-anchor="middle" x="520" y="-803.13" font-family="Times,serif" font-size="20.00">brave Ubuntu 22.04 1.59.120 (118.0.5993.88) selenium headless&#45;new</text>
<text text-anchor="middle" x="520" y="-781.13" font-family="Times,serif" font-size="20.00">brave Ubuntu 22.04 1.59.120 (118.0.5993.88) selenium xvfb</text>
</g>
<!-- SG_0_Node_8 -->
<g id="node6" class="node">
<title>SG_0_Node_8</title>
<ellipse fill="none" stroke="black" cx="877" cy="-702.92" rx="33.88" ry="21.43"/>
<text text-anchor="middle" x="877" y="-697.92" font-family="Times,serif" font-size="20.00">0.0</text>
</g>
<!-- SG_0_Node_2&#45;&gt;SG_0_Node_8 -->
<g id="edge3" class="edge">
<title>SG_0_Node_2&#45;&gt;SG_0_Node_8</title>
<path fill="none" stroke="black" d="M877,-873.14C877,-841.52 877,-773.78 877,-734.26"/>
<polygon fill="black" stroke="black" points="880.5,-734.16 877,-724.16 873.5,-734.16 880.5,-734.16"/>
<text text-anchor="middle" x="1101.5" y="-836.13" font-family="Times,serif" font-size="20.00">firefox Ubuntu 22.04 119 selenium headless</text>
<text text-anchor="middle" x="1101.5" y="-814.13" font-family="Times,serif" font-size="20.00">firefox Ubuntu 22.04 119 selenium xvfb</text>
<text text-anchor="middle" x="1101.5" y="-792.13" font-family="Times,serif" font-size="20.00">firefox macOS 14.0 119 selenium headless</text>
<text text-anchor="middle" x="1101.5" y="-770.13" font-family="Times,serif" font-size="20.00">firefox macOS 14.0 119 selenium real</text>
<text text-anchor="middle" x="1101.5" y="-748.13" font-family="Times,serif" font-size="20.00">safari macOS 14.0 17.0 selenium real</text>
</g>
<!-- SG_0_Node_9 -->
<g id="node7" class="node">
<title>SG_0_Node_9</title>
<ellipse fill="none" stroke="black" cx="1349" cy="-702.92" rx="33.88" ry="21.43"/>
<text text-anchor="middle" x="1349" y="-697.92" font-family="Times,serif" font-size="20.00">1.0</text>
</g>
<!-- SG_0_Node_2&#45;&gt;SG_0_Node_9 -->
<g id="edge4" class="edge">
<title>SG_0_Node_2&#45;&gt;SG_0_Node_9</title>
<path fill="none" stroke="black" d="M927.66,-889.52C1039.19,-887.22 1298.39,-879 1327,-852.13 1358.65,-822.4 1358.38,-768.42 1354.36,-734.46"/>
<polygon fill="black" stroke="black" points="1357.78,-733.63 1352.96,-724.19 1350.84,-734.58 1357.78,-733.63"/>
<text text-anchor="middle" x="1401.5" y="-803.13" font-family="Times,serif" font-size="20.00">[NA]</text>
<text text-anchor="middle" x="1401.5" y="-781.13" font-family="Times,serif" font-size="20.00">14 levels</text>
</g>
<!-- SG_0_Node_10 -->
<g id="node8" class="node">
<title>SG_0_Node_10</title>
<ellipse fill="none" stroke="black" cx="50" cy="-514.49" rx="33.88" ry="21.43"/>
<text text-anchor="middle" x="50" y="-509.49" font-family="Times,serif" font-size="20.00">0.0</text>
</g>
<!-- SG_0_Node_3&#45;&gt;SG_0_Node_10 -->
<g id="edge9" class="edge">
<title>SG_0_Node_3&#45;&gt;SG_0_Node_10</title>
<path fill="none" stroke="black" d="M60.64,-684.58C54.35,-678.74 48.4,-671.65 45,-663.71 28.63,-625.42 34.94,-576.36 41.8,-545.42"/>
<polygon fill="black" stroke="black" points="45.22,-546.2 44.12,-535.66 38.4,-544.58 45.22,-546.2"/>
<text text-anchor="middle" x="90.5" y="-614.71" font-family="Times,serif" font-size="20.00">[NA]</text>
<text text-anchor="middle" x="90.5" y="-592.71" font-family="Times,serif" font-size="20.00">11 levels</text>
</g>
<!-- SG_0_Node_5 -->
<g id="node9" class="node">
<title>SG_0_Node_5</title>
<polygon fill="none" stroke="black" points="208.5,-532.49 107.5,-532.49 107.5,-496.49 208.5,-496.49 208.5,-532.49"/>
<text text-anchor="middle" x="158" y="-509.49" font-family="Times,serif" font-size="20.00">browser</text>
</g>
<!-- SG_0_Node_3&#45;&gt;SG_0_Node_5 -->
<g id="edge10" class="edge">
<title>SG_0_Node_3&#45;&gt;SG_0_Node_5</title>
<path fill="none" stroke="black" d="M115.89,-684.76C123.6,-679.04 131.07,-671.97 136,-663.71 158.28,-626.33 160.84,-574.52 159.93,-543.09"/>
<polygon fill="black" stroke="black" points="163.42,-542.72 159.5,-532.88 156.43,-543.02 163.42,-542.72"/>
<text text-anchor="middle" x="305" y="-603.71" font-family="Times,serif" font-size="20.00">[[&#39;origin&#45;agent&#45;cluster&#39;, &#39;?0&#39;]]</text>
</g>
<!-- SG_0_Node_11 -->
<g id="node10" class="node">
<title>SG_0_Node_11</title>
<ellipse fill="none" stroke="black" cx="471" cy="-514.49" rx="33.88" ry="21.43"/>
<text text-anchor="middle" x="471" y="-509.49" font-family="Times,serif" font-size="20.00">0.0</text>
</g>
<!-- SG_0_Node_4&#45;&gt;SG_0_Node_11 -->
<g id="edge7" class="edge">
<title>SG_0_Node_4&#45;&gt;SG_0_Node_11</title>
<path fill="none" stroke="black" d="M471,-684.71C471,-653.09 471,-585.35 471,-545.84"/>
<polygon fill="black" stroke="black" points="474.5,-545.73 471,-535.73 467.5,-545.73 474.5,-545.73"/>
<text text-anchor="middle" x="616" y="-603.71" font-family="Times,serif" font-size="20.00">[[&#39;origin&#45;agent&#45;cluster&#39;, &#39;?1&#39;]]</text>
</g>
<!-- SG_0_Node_12 -->
<g id="node11" class="node">
<title>SG_0_Node_12</title>
<ellipse fill="none" stroke="black" cx="784" cy="-514.49" rx="33.88" ry="21.43"/>
<text text-anchor="middle" x="784" y="-509.49" font-family="Times,serif" font-size="20.00">1.0</text>
</g>
<!-- SG_0_Node_4&#45;&gt;SG_0_Node_12 -->
<g id="edge8" class="edge">
<title>SG_0_Node_4&#45;&gt;SG_0_Node_12</title>
<path fill="none" stroke="black" d="M539.7,-702.12C615.7,-700.79 731.48,-693.72 762,-663.71 792.96,-633.26 792.9,-579.5 789.11,-545.77"/>
<polygon fill="black" stroke="black" points="792.54,-545.05 787.78,-535.58 785.6,-545.95 792.54,-545.05"/>
<text text-anchor="middle" x="835.5" y="-614.71" font-family="Times,serif" font-size="20.00">[NA]</text>
<text text-anchor="middle" x="835.5" y="-592.71" font-family="Times,serif" font-size="20.00">11 levels</text>
</g>
<!-- SG_0_Node_13 -->
<g id="node12" class="node">
<title>SG_0_Node_13</title>
<ellipse fill="none" stroke="black" cx="104" cy="-326.07" rx="33.88" ry="21.43"/>
<text text-anchor="middle" x="104" y="-321.07" font-family="Times,serif" font-size="20.00">0.0</text>
</g>
<!-- SG_0_Node_5&#45;&gt;SG_0_Node_13 -->
<g id="edge11" class="edge">
<title>SG_0_Node_5&#45;&gt;SG_0_Node_13</title>
<path fill="none" stroke="black" d="M124.29,-496.39C116.58,-490.77 109.37,-483.75 105,-475.28 85.81,-438.09 90.6,-388.35 96.64,-357"/>
<polygon fill="black" stroke="black" points="100.09,-357.62 98.71,-347.12 93.23,-356.19 100.09,-357.62"/>
<text text-anchor="middle" x="329.5" y="-459.28" font-family="Times,serif" font-size="20.00">firefox Ubuntu 22.04 119 selenium headless</text>
<text text-anchor="middle" x="329.5" y="-437.28" font-family="Times,serif" font-size="20.00">firefox Ubuntu 22.04 119 selenium xvfb</text>
<text text-anchor="middle" x="329.5" y="-415.28" font-family="Times,serif" font-size="20.00">firefox macOS 14.0 119 selenium headless</text>
<text text-anchor="middle" x="329.5" y="-393.28" font-family="Times,serif" font-size="20.00">firefox macOS 14.0 119 selenium real</text>
<text text-anchor="middle" x="329.5" y="-371.28" font-family="Times,serif" font-size="20.00">safari macOS 14.0 17.0 selenium real</text>
</g>
<!-- SG_0_Node_6 -->
<g id="node13" class="node">
<title>SG_0_Node_6</title>
<polygon fill="none" stroke="black" points="642,-344.07 510,-344.07 510,-308.07 642,-308.07 642,-344.07"/>
<text text-anchor="middle" x="576" y="-321.07" font-family="Times,serif" font-size="20.00">resp_origin</text>
</g>
<!-- SG_0_Node_5&#45;&gt;SG_0_Node_6 -->
<g id="edge12" class="edge">
<title>SG_0_Node_5&#45;&gt;SG_0_Node_6</title>
<path fill="none" stroke="black" d="M208.82,-509.4C314.3,-500.81 547.8,-481.17 554,-475.28 586.5,-444.4 585.21,-387.92 580.9,-354.31"/>
<polygon fill="black" stroke="black" points="584.34,-353.65 579.43,-344.26 577.41,-354.66 584.34,-353.65"/>
<text text-anchor="middle" x="628.5" y="-426.28" font-family="Times,serif" font-size="20.00">[NA]</text>
<text text-anchor="middle" x="628.5" y="-404.28" font-family="Times,serif" font-size="20.00">12 levels</text>
</g>
<!-- SG_0_Node_7 -->
<g id="node14" class="node">
<title>SG_0_Node_7</title>
<polygon fill="none" stroke="black" points="374,-177.64 252,-177.64 252,-141.64 374,-141.64 374,-177.64"/>
<text text-anchor="middle" x="313" y="-154.64" font-family="Times,serif" font-size="20.00">org_origin</text>
</g>
<!-- SG_0_Node_6&#45;&gt;SG_0_Node_7 -->
<g id="edge13" class="edge">
<title>SG_0_Node_6&#45;&gt;SG_0_Node_7</title>
<path fill="none" stroke="black" d="M509.89,-325.07C439.68,-323.5 335.36,-316.12 310,-286.85 286.48,-259.71 294.3,-215.6 302.98,-187.36"/>
<polygon fill="black" stroke="black" points="306.34,-188.34 306.15,-177.74 299.69,-186.14 306.34,-188.34"/>
<text text-anchor="middle" x="496.5" y="-237.85" font-family="Times,serif" font-size="20.00">https://sub.headers.websec.saarland</text>
</g>
<!-- SG_0_Node_14 -->
<g id="node15" class="node">
<title>SG_0_Node_14</title>
<ellipse fill="none" stroke="black" cx="709" cy="-159.64" rx="33.88" ry="21.43"/>
<text text-anchor="middle" x="709" y="-154.64" font-family="Times,serif" font-size="20.00">1.0</text>
</g>
<!-- SG_0_Node_6&#45;&gt;SG_0_Node_14 -->
<g id="edge14" class="edge">
<title>SG_0_Node_6&#45;&gt;SG_0_Node_14</title>
<path fill="none" stroke="black" d="M642.22,-314.74C658.99,-309.08 675.5,-300.35 687,-286.85 709.52,-260.44 712.76,-219.32 711.85,-191.25"/>
<polygon fill="black" stroke="black" points="715.35,-190.99 711.34,-181.18 708.36,-191.35 715.35,-190.99"/>
<text text-anchor="middle" x="918.5" y="-270.85" font-family="Times,serif" font-size="20.00">[NA]</text>
<text text-anchor="middle" x="918.5" y="-248.85" font-family="Times,serif" font-size="20.00">https://headers.webappsec.eu</text>
<text text-anchor="middle" x="918.5" y="-226.85" font-family="Times,serif" font-size="20.00">https://headers.websec.saarland</text>
<text text-anchor="middle" x="918.5" y="-204.85" font-family="Times,serif" font-size="20.00">https://sub.sub.headers.websec.saarland</text>
</g>
<!-- SG_0_Node_15 -->
<g id="node16" class="node">
<title>SG_0_Node_15</title>
<ellipse fill="none" stroke="black" cx="181" cy="-37.21" rx="33.88" ry="21.43"/>
<text text-anchor="middle" x="181" y="-32.21" font-family="Times,serif" font-size="20.00">0.0</text>
</g>
<!-- SG_0_Node_7&#45;&gt;SG_0_Node_15 -->
<g id="edge15" class="edge">
<title>SG_0_Node_7&#45;&gt;SG_0_Node_15</title>
<path fill="none" stroke="black" d="M251.87,-156.26C226.1,-151.86 198.34,-141.93 182,-120.43 170.92,-105.84 170.7,-85.21 173.23,-68.26"/>
<polygon fill="black" stroke="black" points="176.7,-68.75 175.1,-58.28 169.82,-67.47 176.7,-68.75"/>
<text text-anchor="middle" x="368.5" y="-93.43" font-family="Times,serif" font-size="20.00">https://sub.headers.websec.saarland</text>
</g>
<!-- SG_0_Node_16 -->
<g id="node17" class="node">
<title>SG_0_Node_16</title>
<ellipse fill="none" stroke="black" cx="577" cy="-37.21" rx="33.88" ry="21.43"/>
<text text-anchor="middle" x="577" y="-32.21" font-family="Times,serif" font-size="20.00">1.0</text>
</g>
<!-- SG_0_Node_7&#45;&gt;SG_0_Node_16 -->
<g id="edge16" class="edge">
<title>SG_0_Node_7&#45;&gt;SG_0_Node_16</title>
<path fill="none" stroke="black" d="M374.26,-156.42C437.05,-152.88 529.08,-143.76 555,-120.43 569.28,-107.57 574.73,-86.57 576.63,-69.01"/>
<polygon fill="black" stroke="black" points="580.15,-68.86 577.41,-58.63 573.17,-68.34 580.15,-68.86"/>
<text text-anchor="middle" x="756.5" y="-104.43" font-family="Times,serif" font-size="20.00">[NA]</text>
<text text-anchor="middle" x="756.5" y="-82.43" font-family="Times,serif" font-size="20.00">http://sub.headers.websec.saarland</text>
</g>
<!-- SG_1_Node_0 -->
<g id="node18" class="node">
<title>SG_1_Node_0</title>
<polygon fill="none" stroke="black" points="1951.5,-1138.56 1850.5,-1138.56 1850.5,-1102.56 1951.5,-1102.56 1951.5,-1138.56"/>
<text text-anchor="middle" x="1901" y="-1115.56" font-family="Times,serif" font-size="20.00">browser</text>
</g>
<!-- SG_1_Node_1 -->
<g id="node19" class="node">
<title>SG_1_Node_1</title>
<polygon fill="none" stroke="black" points="1605.5,-909.35 1468.5,-909.35 1468.5,-873.35 1605.5,-873.35 1605.5,-909.35"/>
<text text-anchor="middle" x="1537" y="-886.35" font-family="Times,serif" font-size="20.00">raw_header</text>
</g>
<!-- SG_1_Node_0&#45;&gt;SG_1_Node_1 -->
<g id="edge17" class="edge">
<title>SG_1_Node_0&#45;&gt;SG_1_Node_1</title>
<path fill="none" stroke="black" d="M1850.35,-1118.36C1755.47,-1115.6 1558.65,-1107.18 1538,-1084.56 1496.72,-1039.35 1514.09,-960.23 1527.25,-919.01"/>
<polygon fill="black" stroke="black" points="1530.61,-919.99 1530.47,-909.4 1523.98,-917.77 1530.61,-919.99"/>
<text text-anchor="middle" x="1891" y="-1068.56" font-family="Times,serif" font-size="20.00">brave Ubuntu 22.04 1.59.120 (118.0.5993.88) selenium headless&#45;new</text>
<text text-anchor="middle" x="1891" y="-1046.56" font-family="Times,serif" font-size="20.00">brave Ubuntu 22.04 1.59.120 (118.0.5993.88) selenium xvfb</text>
<text text-anchor="middle" x="1891" y="-1024.56" font-family="Times,serif" font-size="20.00">firefox Ubuntu 22.04 119 selenium headless</text>
<text text-anchor="middle" x="1891" y="-1002.56" font-family="Times,serif" font-size="20.00">firefox Ubuntu 22.04 119 selenium xvfb</text>
<text text-anchor="middle" x="1891" y="-980.56" font-family="Times,serif" font-size="20.00">firefox macOS 14.0 119 selenium headless</text>
<text text-anchor="middle" x="1891" y="-958.56" font-family="Times,serif" font-size="20.00">firefox macOS 14.0 119 selenium real</text>
<text text-anchor="middle" x="1891" y="-936.56" font-family="Times,serif" font-size="20.00">safari macOS 14.0 17.0 selenium real</text>
</g>
<!-- SG_1_Node_2 -->
<g id="node20" class="node">
<title>SG_1_Node_2</title>
<polygon fill="none" stroke="black" points="2332,-909.35 2200,-909.35 2200,-873.35 2332,-873.35 2332,-909.35"/>
<text text-anchor="middle" x="2266" y="-886.35" font-family="Times,serif" font-size="20.00">resp_origin</text>
</g>
<!-- SG_1_Node_0&#45;&gt;SG_1_Node_2 -->
<g id="edge18" class="edge">
<title>SG_1_Node_0&#45;&gt;SG_1_Node_2</title>
<path fill="none" stroke="black" d="M1951.82,-1117.83C2042.27,-1114.27 2223.64,-1104.67 2244,-1084.56 2287.85,-1041.24 2280.14,-961.25 2272.25,-919.42"/>
<polygon fill="black" stroke="black" points="2275.64,-918.52 2270.22,-909.42 2268.78,-919.92 2275.64,-918.52"/>
<text text-anchor="middle" x="2323.5" y="-1013.56" font-family="Times,serif" font-size="20.00">[NA]</text>
<text text-anchor="middle" x="2323.5" y="-991.56" font-family="Times,serif" font-size="20.00">12 levels</text>
</g>
<!-- SG_1_Node_8 -->
<g id="node21" class="node">
<title>SG_1_Node_8</title>
<ellipse fill="none" stroke="black" cx="1517" cy="-702.92" rx="33.88" ry="21.43"/>
<text text-anchor="middle" x="1517" y="-697.92" font-family="Times,serif" font-size="20.00">0.0</text>
</g>
<!-- SG_1_Node_1&#45;&gt;SG_1_Node_8 -->
<g id="edge27" class="edge">
<title>SG_1_Node_1&#45;&gt;SG_1_Node_8</title>
<path fill="none" stroke="black" d="M1526.35,-873.1C1522.99,-866.75 1519.72,-859.34 1518,-852.13 1508.5,-812.28 1510.43,-764.66 1513.25,-734.36"/>
<polygon fill="black" stroke="black" points="1516.73,-734.71 1514.26,-724.4 1509.77,-734 1516.73,-734.71"/>
<text text-anchor="middle" x="1563.5" y="-803.13" font-family="Times,serif" font-size="20.00">[NA]</text>
<text text-anchor="middle" x="1563.5" y="-781.13" font-family="Times,serif" font-size="20.00">11 levels</text>
</g>
<!-- SG_1_Node_3 -->
<g id="node22" class="node">
<title>SG_1_Node_3</title>
<polygon fill="none" stroke="black" points="1681.5,-720.92 1580.5,-720.92 1580.5,-684.92 1681.5,-684.92 1681.5,-720.92"/>
<text text-anchor="middle" x="1631" y="-697.92" font-family="Times,serif" font-size="20.00">browser</text>
</g>
<!-- SG_1_Node_1&#45;&gt;SG_1_Node_3 -->
<g id="edge28" class="edge">
<title>SG_1_Node_1&#45;&gt;SG_1_Node_3</title>
<path fill="none" stroke="black" d="M1584.53,-873.26C1593.93,-867.85 1602.79,-860.92 1609,-852.13 1634.24,-816.4 1635.82,-763.66 1633.92,-731.67"/>
<polygon fill="black" stroke="black" points="1637.38,-730.99 1633.14,-721.28 1630.4,-731.52 1637.38,-730.99"/>
<text text-anchor="middle" x="1779" y="-792.13" font-family="Times,serif" font-size="20.00">[[&#39;origin&#45;agent&#45;cluster&#39;, &#39;?1&#39;]]</text>
</g>
<!-- SG_1_Node_9 -->
<g id="node23" class="node">
<title>SG_1_Node_9</title>
<ellipse fill="none" stroke="black" cx="2265" cy="-702.92" rx="33.88" ry="21.43"/>
<text text-anchor="middle" x="2265" y="-697.92" font-family="Times,serif" font-size="20.00">0.0</text>
</g>
<!-- SG_1_Node_2&#45;&gt;SG_1_Node_9 -->
<g id="edge19" class="edge">
<title>SG_1_Node_2&#45;&gt;SG_1_Node_9</title>
<path fill="none" stroke="black" d="M2265.91,-873.14C2265.74,-841.52 2265.37,-773.78 2265.16,-734.26"/>
<polygon fill="black" stroke="black" points="2268.66,-734.14 2265.11,-724.16 2261.66,-734.18 2268.66,-734.14"/>
<text text-anchor="middle" x="2467.5" y="-825.13" font-family="Times,serif" font-size="20.00">http://headers.webappsec.eu</text>
<text text-anchor="middle" x="2467.5" y="-803.13" font-family="Times,serif" font-size="20.00">http://headers.websec.saarland</text>
<text text-anchor="middle" x="2467.5" y="-781.13" font-family="Times,serif" font-size="20.00">http://sub.headers.websec.saarland</text>
<text text-anchor="middle" x="2467.5" y="-759.13" font-family="Times,serif" font-size="20.00">http://sub.sub.headers.websec.saarland</text>
</g>
<!-- SG_1_Node_4 -->
<g id="node24" class="node">
<title>SG_1_Node_4</title>
<polygon fill="none" stroke="black" points="2761.5,-720.92 2624.5,-720.92 2624.5,-684.92 2761.5,-684.92 2761.5,-720.92"/>
<text text-anchor="middle" x="2693" y="-697.92" font-family="Times,serif" font-size="20.00">raw_header</text>
</g>
<!-- SG_1_Node_2&#45;&gt;SG_1_Node_4 -->
<g id="edge20" class="edge">
<title>SG_1_Node_2&#45;&gt;SG_1_Node_4</title>
<path fill="none" stroke="black" d="M2332.31,-888.49C2440.88,-884.82 2646.98,-874.91 2671,-852.13 2703.54,-821.29 2702.23,-764.8 2697.91,-731.17"/>
<polygon fill="black" stroke="black" points="2701.35,-730.51 2696.44,-721.12 2694.42,-731.52 2701.35,-730.51"/>
<text text-anchor="middle" x="2907.5" y="-836.13" font-family="Times,serif" font-size="20.00">[NA]</text>
<text text-anchor="middle" x="2907.5" y="-814.13" font-family="Times,serif" font-size="20.00">https://headers.webappsec.eu</text>
<text text-anchor="middle" x="2907.5" y="-792.13" font-family="Times,serif" font-size="20.00">https://headers.websec.saarland</text>
<text text-anchor="middle" x="2907.5" y="-770.13" font-family="Times,serif" font-size="20.00">https://sub.headers.websec.saarland</text>
<text text-anchor="middle" x="2907.5" y="-748.13" font-family="Times,serif" font-size="20.00">https://sub.sub.headers.websec.saarland</text>
</g>
<!-- SG_1_Node_10 -->
<g id="node25" class="node">
<title>SG_1_Node_10</title>
<ellipse fill="none" stroke="black" cx="1498" cy="-514.49" rx="33.88" ry="21.43"/>
<text text-anchor="middle" x="1498" y="-509.49" font-family="Times,serif" font-size="20.00">0.0</text>
</g>
<!-- SG_1_Node_3&#45;&gt;SG_1_Node_10 -->
<g id="edge29" class="edge">
<title>SG_1_Node_3&#45;&gt;SG_1_Node_10</title>
<path fill="none" stroke="black" d="M1580.26,-687.2C1573.46,-685.3 1566.57,-683.43 1560,-681.71 1526.84,-673.01 1506.22,-690.63 1485,-663.71 1458.33,-629.88 1471.92,-577.24 1484.64,-544.64"/>
<polygon fill="black" stroke="black" points="1487.95,-545.79 1488.51,-535.21 1481.47,-543.13 1487.95,-545.79"/>
<text text-anchor="middle" x="1709.5" y="-647.71" font-family="Times,serif" font-size="20.00">firefox Ubuntu 22.04 119 selenium headless</text>
<text text-anchor="middle" x="1709.5" y="-625.71" font-family="Times,serif" font-size="20.00">firefox Ubuntu 22.04 119 selenium xvfb</text>
<text text-anchor="middle" x="1709.5" y="-603.71" font-family="Times,serif" font-size="20.00">firefox macOS 14.0 119 selenium headless</text>
<text text-anchor="middle" x="1709.5" y="-581.71" font-family="Times,serif" font-size="20.00">firefox macOS 14.0 119 selenium real</text>
<text text-anchor="middle" x="1709.5" y="-559.71" font-family="Times,serif" font-size="20.00">safari macOS 14.0 17.0 selenium real</text>
</g>
<!-- SG_1_Node_5 -->
<g id="node26" class="node">
<title>SG_1_Node_5</title>
<polygon fill="none" stroke="black" points="1976,-532.49 1844,-532.49 1844,-496.49 1976,-496.49 1976,-532.49"/>
<text text-anchor="middle" x="1910" y="-509.49" font-family="Times,serif" font-size="20.00">resp_origin</text>
</g>
<!-- SG_1_Node_3&#45;&gt;SG_1_Node_5 -->
<g id="edge30" class="edge">
<title>SG_1_Node_3&#45;&gt;SG_1_Node_5</title>
<path fill="none" stroke="black" d="M1681.6,-699.14C1763.49,-694.12 1917.61,-682.3 1934,-663.71 1966.33,-627.04 1947.53,-600.69 1934,-553.71 1932.8,-549.56 1931.01,-545.42 1928.93,-541.49"/>
<polygon fill="black" stroke="black" points="1931.85,-539.55 1923.71,-532.76 1925.84,-543.14 1931.85,-539.55"/>
<text text-anchor="middle" x="2304" y="-614.71" font-family="Times,serif" font-size="20.00">brave Ubuntu 22.04 1.59.120 (118.0.5993.88) selenium headless&#45;new</text>
<text text-anchor="middle" x="2304" y="-592.71" font-family="Times,serif" font-size="20.00">brave Ubuntu 22.04 1.59.120 (118.0.5993.88) selenium xvfb</text>
</g>
<!-- SG_1_Node_6 -->
<g id="node27" class="node">
<title>SG_1_Node_6</title>
<polygon fill="none" stroke="black" points="2756,-532.49 2624,-532.49 2624,-496.49 2756,-496.49 2756,-532.49"/>
<text text-anchor="middle" x="2690" y="-509.49" font-family="Times,serif" font-size="20.00">resp_origin</text>
</g>
<!-- SG_1_Node_4&#45;&gt;SG_1_Node_6 -->
<g id="edge21" class="edge">
<title>SG_1_Node_4&#45;&gt;SG_1_Node_6</title>
<path fill="none" stroke="black" d="M2691.94,-684.81C2691.57,-678.21 2691.2,-670.61 2691,-663.71 2689.76,-621.56 2689.69,-572.64 2689.81,-542.88"/>
<polygon fill="black" stroke="black" points="2693.31,-542.86 2689.86,-532.84 2686.31,-542.82 2693.31,-542.86"/>
<text text-anchor="middle" x="2836" y="-603.71" font-family="Times,serif" font-size="20.00">[[&#39;origin&#45;agent&#45;cluster&#39;, &#39;?0&#39;]]</text>
</g>
<!-- SG_1_Node_11 -->
<g id="node28" class="node">
<title>SG_1_Node_11</title>
<ellipse fill="none" stroke="black" cx="3003" cy="-514.49" rx="33.88" ry="21.43"/>
<text text-anchor="middle" x="3003" y="-509.49" font-family="Times,serif" font-size="20.00">1.0</text>
</g>
<!-- SG_1_Node_4&#45;&gt;SG_1_Node_11 -->
<g id="edge22" class="edge">
<title>SG_1_Node_4&#45;&gt;SG_1_Node_11</title>
<path fill="none" stroke="black" d="M2761.67,-702C2836.9,-700.56 2950.9,-693.34 2981,-663.71 3011.94,-633.24 3011.89,-579.48 3008.1,-545.77"/>
<polygon fill="black" stroke="black" points="3011.54,-545.04 3006.77,-535.58 3004.59,-545.95 3011.54,-545.04"/>
<text text-anchor="middle" x="3054.5" y="-614.71" font-family="Times,serif" font-size="20.00">[NA]</text>
<text text-anchor="middle" x="3054.5" y="-592.71" font-family="Times,serif" font-size="20.00">11 levels</text>
</g>
<!-- SG_1_Node_12 -->
<g id="node29" class="node">
<title>SG_1_Node_12</title>
<ellipse fill="none" stroke="black" cx="1498" cy="-326.07" rx="33.88" ry="21.43"/>
<text text-anchor="middle" x="1498" y="-321.07" font-family="Times,serif" font-size="20.00">0.0</text>
</g>
<!-- SG_1_Node_5&#45;&gt;SG_1_Node_12 -->
<g id="edge31" class="edge">
<title>SG_1_Node_5&#45;&gt;SG_1_Node_12</title>
<path fill="none" stroke="black" d="M1843.59,-512.03C1733.7,-508.93 1523.82,-499.83 1501,-475.28 1471.62,-443.68 1479.44,-389.9 1488.33,-356.54"/>
<polygon fill="black" stroke="black" points="1491.7,-357.47 1491.08,-346.9 1484.97,-355.55 1491.7,-357.47"/>
<text text-anchor="middle" x="1703.5" y="-448.28" font-family="Times,serif" font-size="20.00">http://headers.webappsec.eu</text>
<text text-anchor="middle" x="1703.5" y="-426.28" font-family="Times,serif" font-size="20.00">http://headers.websec.saarland</text>
<text text-anchor="middle" x="1703.5" y="-404.28" font-family="Times,serif" font-size="20.00">http://sub.headers.websec.saarland</text>
<text text-anchor="middle" x="1703.5" y="-382.28" font-family="Times,serif" font-size="20.00">http://sub.sub.headers.websec.saarland</text>
</g>
<!-- SG_1_Node_13 -->
<g id="node30" class="node">
<title>SG_1_Node_13</title>
<ellipse fill="none" stroke="black" cx="1910" cy="-326.07" rx="33.88" ry="21.43"/>
<text text-anchor="middle" x="1910" y="-321.07" font-family="Times,serif" font-size="20.00">1.0</text>
</g>
<!-- SG_1_Node_5&#45;&gt;SG_1_Node_13 -->
<g id="edge32" class="edge">
<title>SG_1_Node_5&#45;&gt;SG_1_Node_13</title>
<path fill="none" stroke="black" d="M1910,-496.29C1910,-464.66 1910,-396.92 1910,-357.41"/>
<polygon fill="black" stroke="black" points="1913.5,-357.31 1910,-347.31 1906.5,-357.31 1913.5,-357.31"/>
<text text-anchor="middle" x="2117.5" y="-459.28" font-family="Times,serif" font-size="20.00">[NA]</text>
<text text-anchor="middle" x="2117.5" y="-437.28" font-family="Times,serif" font-size="20.00">https://headers.webappsec.eu</text>
<text text-anchor="middle" x="2117.5" y="-415.28" font-family="Times,serif" font-size="20.00">https://headers.websec.saarland</text>
<text text-anchor="middle" x="2117.5" y="-393.28" font-family="Times,serif" font-size="20.00">https://sub.headers.websec.saarland</text>
<text text-anchor="middle" x="2117.5" y="-371.28" font-family="Times,serif" font-size="20.00">https://sub.sub.headers.websec.saarland</text>
</g>
<!-- SG_1_Node_14 -->
<g id="node31" class="node">
<title>SG_1_Node_14</title>
<ellipse fill="none" stroke="black" cx="2348" cy="-326.07" rx="33.88" ry="21.43"/>
<text text-anchor="middle" x="2348" y="-321.07" font-family="Times,serif" font-size="20.00">0.0</text>
</g>
<!-- SG_1_Node_6&#45;&gt;SG_1_Node_14 -->
<g id="edge23" class="edge">
<title>SG_1_Node_6&#45;&gt;SG_1_Node_14</title>
<path fill="none" stroke="black" d="M2623.99,-510.84C2529.03,-506.34 2363.24,-495.65 2345,-475.28 2316.22,-443.13 2326.42,-389.52 2336.89,-356.35"/>
<polygon fill="black" stroke="black" points="2340.25,-357.35 2340.11,-346.76 2333.61,-355.13 2340.25,-357.35"/>
<text text-anchor="middle" x="2552.5" y="-448.28" font-family="Times,serif" font-size="20.00">[NA]</text>
<text text-anchor="middle" x="2552.5" y="-426.28" font-family="Times,serif" font-size="20.00">https://headers.webappsec.eu</text>
<text text-anchor="middle" x="2552.5" y="-404.28" font-family="Times,serif" font-size="20.00">https://headers.websec.saarland</text>
<text text-anchor="middle" x="2552.5" y="-382.28" font-family="Times,serif" font-size="20.00">https://sub.sub.headers.websec.saarland</text>
</g>
<!-- SG_1_Node_7 -->
<g id="node32" class="node">
<title>SG_1_Node_7</title>
<polygon fill="none" stroke="black" points="2847,-344.07 2725,-344.07 2725,-308.07 2847,-308.07 2847,-344.07"/>
<text text-anchor="middle" x="2786" y="-321.07" font-family="Times,serif" font-size="20.00">org_origin</text>
</g>
<!-- SG_1_Node_6&#45;&gt;SG_1_Node_7 -->
<g id="edge24" class="edge">
<title>SG_1_Node_6&#45;&gt;SG_1_Node_7</title>
<path fill="none" stroke="black" d="M2739.21,-496.43C2748.73,-491.03 2757.69,-484.1 2764,-475.28 2789.56,-439.54 2790.97,-386.44 2788.97,-354.45"/>
<polygon fill="black" stroke="black" points="2792.46,-354.16 2788.19,-344.46 2785.48,-354.7 2792.46,-354.16"/>
<text text-anchor="middle" x="2975.5" y="-415.28" font-family="Times,serif" font-size="20.00">https://sub.headers.websec.saarland</text>
</g>
<!-- SG_1_Node_15 -->
<g id="node33" class="node">
<title>SG_1_Node_15</title>
<ellipse fill="none" stroke="black" cx="2400" cy="-159.64" rx="33.88" ry="21.43"/>
<text text-anchor="middle" x="2400" y="-154.64" font-family="Times,serif" font-size="20.00">0.0</text>
</g>
<!-- SG_1_Node_7&#45;&gt;SG_1_Node_15 -->
<g id="edge25" class="edge">
<title>SG_1_Node_7&#45;&gt;SG_1_Node_15</title>
<path fill="none" stroke="black" d="M2724.71,-322.73C2626,-318.37 2440.63,-307.51 2419,-286.85 2393.6,-262.59 2392.37,-219.97 2395.12,-191.04"/>
<polygon fill="black" stroke="black" points="2398.6,-191.4 2396.27,-181.06 2391.65,-190.59 2398.6,-191.4"/>
<text text-anchor="middle" x="2600.5" y="-248.85" font-family="Times,serif" font-size="20.00">[NA]</text>
<text text-anchor="middle" x="2600.5" y="-226.85" font-family="Times,serif" font-size="20.00">http://sub.headers.websec.saarland</text>
</g>
<!-- SG_1_Node_16 -->
<g id="node34" class="node">
<title>SG_1_Node_16</title>
<ellipse fill="none" stroke="black" cx="2786" cy="-159.64" rx="33.88" ry="21.43"/>
<text text-anchor="middle" x="2786" y="-154.64" font-family="Times,serif" font-size="20.00">1.0</text>
</g>
<!-- SG_1_Node_7&#45;&gt;SG_1_Node_16 -->
<g id="edge26" class="edge">
<title>SG_1_Node_7&#45;&gt;SG_1_Node_16</title>
<path fill="none" stroke="black" d="M2786,-307.78C2786,-280.18 2786,-225.77 2786,-191.4"/>
<polygon fill="black" stroke="black" points="2789.5,-191.01 2786,-181.01 2782.5,-191.01 2789.5,-191.01"/>
<text text-anchor="middle" x="2972.5" y="-237.85" font-family="Times,serif" font-size="20.00">https://sub.headers.websec.saarland</text>
</g>
<!-- SG_2_Node_0 -->
<g id="node35" class="node">
<title>SG_2_Node_0</title>
<polygon fill="none" stroke="black" points="3332.5,-1138.56 3231.5,-1138.56 3231.5,-1102.56 3332.5,-1102.56 3332.5,-1138.56"/>
<text text-anchor="middle" x="3282" y="-1115.56" font-family="Times,serif" font-size="20.00">browser</text>
</g>
<!-- SG_2_Node_1 -->
<g id="node36" class="node">
<title>SG_2_Node_1</title>
<ellipse fill="none" stroke="black" cx="3249" cy="-891.35" rx="33.88" ry="21.43"/>
<text text-anchor="middle" x="3249" y="-886.35" font-family="Times,serif" font-size="20.00">0.0</text>
</g>
<!-- SG_2_Node_0&#45;&gt;SG_2_Node_1 -->
<g id="edge33" class="edge">
<title>SG_2_Node_0&#45;&gt;SG_2_Node_1</title>
<path fill="none" stroke="black" d="M3261.82,-1102.48C3257.04,-1097.27 3252.58,-1091.15 3250,-1084.56 3228.94,-1030.73 3235.92,-961.75 3242.64,-922.76"/>
<polygon fill="black" stroke="black" points="3246.14,-923.06 3244.5,-912.6 3239.26,-921.8 3246.14,-923.06"/>
<text text-anchor="middle" x="3295.5" y="-1013.56" font-family="Times,serif" font-size="20.00">[NA]</text>
<text text-anchor="middle" x="3295.5" y="-991.56" font-family="Times,serif" font-size="20.00">14 levels</text>
</g>
<!-- SG_2_Node_2 -->
<g id="node37" class="node">
<title>SG_2_Node_2</title>
<ellipse fill="none" stroke="black" cx="3363" cy="-891.35" rx="33.88" ry="21.43"/>
<text text-anchor="middle" x="3363" y="-886.35" font-family="Times,serif" font-size="20.00">1.0</text>
</g>
<!-- SG_2_Node_0&#45;&gt;SG_2_Node_2 -->
<g id="edge34" class="edge">
<title>SG_2_Node_0&#45;&gt;SG_2_Node_2</title>
<path fill="none" stroke="black" d="M3322.4,-1102.46C3329.63,-1097.67 3336.34,-1091.76 3341,-1084.56 3373.09,-1035 3371.49,-962.87 3367.33,-922.53"/>
<polygon fill="black" stroke="black" points="3370.79,-922.05 3366.17,-912.52 3363.84,-922.86 3370.79,-922.05"/>
<text text-anchor="middle" x="3593.5" y="-1046.56" font-family="Times,serif" font-size="20.00">firefox Ubuntu 22.04 119 selenium headless</text>
<text text-anchor="middle" x="3593.5" y="-1024.56" font-family="Times,serif" font-size="20.00">firefox Ubuntu 22.04 119 selenium xvfb</text>
<text text-anchor="middle" x="3593.5" y="-1002.56" font-family="Times,serif" font-size="20.00">firefox macOS 14.0 119 selenium headless</text>
<text text-anchor="middle" x="3593.5" y="-980.56" font-family="Times,serif" font-size="20.00">firefox macOS 14.0 119 selenium real</text>
<text text-anchor="middle" x="3593.5" y="-958.56" font-family="Times,serif" font-size="20.00">safari macOS 14.0 17.0 selenium real</text>
</g>
</g>
</svg>
