<?xml version="1.0" encoding="UTF-8" standalone="no"?>
<!DOCTYPE svg PUBLIC "-//W3C//DTD SVG 1.1//EN"
 "http://www.w3.org/Graphics/SVG/1.1/DTD/svg11.dtd">
<!-- Generated by graphviz version 2.43.0 (0)
 -->
<!-- Title: G Pages: 1 -->
<svg width="6153pt" height="593pt"
 viewBox="0.00 0.00 6153.00 592.85" xmlns="http://www.w3.org/2000/svg" xmlns:xlink="http://www.w3.org/1999/xlink">
<g id="graph0" class="graph" transform="scale(1 1) rotate(0) translate(4 588.85)">
<title>G</title>
<polygon fill="white" stroke="transparent" points="-4,4 -4,-588.85 6149,-588.85 6149,4 -4,4"/>
<g id="clust1" class="cluster">
<title>cluster_0</title>
<polygon fill="none" stroke="black" points="8,-8 8,-576.85 885,-576.85 885,-8 8,-8"/>
<text text-anchor="middle" x="446.5" y="-540.85" font-family="Times,serif" font-size="40.00">Tree 0, Class No performance entry</text>
</g>
<g id="clust5" class="cluster">
<title>cluster_1</title>
<polygon fill="none" stroke="black" points="893,-8 893,-576.85 3943,-576.85 3943,-8 893,-8"/>
<text text-anchor="middle" x="2418" y="-540.85" font-family="Times,serif" font-size="40.00">Tree 0, Class {&#39;requestStart != 0&#39;: False}</text>
</g>
<g id="clust9" class="cluster">
<title>cluster_2</title>
<polygon fill="none" stroke="black" points="3951,-8 3951,-576.85 6135,-576.85 6135,-8 3951,-8"/>
<text text-anchor="middle" x="5043" y="-540.85" font-family="Times,serif" font-size="40.00">Tree 0, Class {&#39;requestStart != 0&#39;: True}</text>
</g>
<!-- SG_0_Node_0 -->
<g id="node1" class="node">
<title>SG_0_Node_0</title>
<polygon fill="none" stroke="black" points="336.5,-516.85 235.5,-516.85 235.5,-480.85 336.5,-480.85 336.5,-516.85"/>
<text text-anchor="middle" x="286" y="-493.85" font-family="Times,serif" font-size="20.00">browser</text>
</g>
<!-- SG_0_Node_2 -->
<g id="node2" class="node">
<title>SG_0_Node_2</title>
<ellipse fill="none" stroke="black" cx="50" cy="-313.64" rx="33.88" ry="21.43"/>
<text text-anchor="middle" x="50" y="-308.64" font-family="Times,serif" font-size="20.00">0.0</text>
</g>
<!-- SG_0_Node_0&#45;&gt;SG_0_Node_2 -->
<g id="edge1" class="edge">
<title>SG_0_Node_0&#45;&gt;SG_0_Node_2</title>
<path fill="none" stroke="black" d="M235.48,-498.16C170.75,-497.35 63.92,-491.55 39,-462.85 10.64,-430.19 24.14,-376.74 36.84,-343.74"/>
<polygon fill="black" stroke="black" points="40.2,-344.78 40.71,-334.2 33.71,-342.15 40.2,-344.78"/>
<text text-anchor="middle" x="263.5" y="-446.85" font-family="Times,serif" font-size="20.00">firefox Ubuntu 22.04 119 selenium headless</text>
<text text-anchor="middle" x="263.5" y="-424.85" font-family="Times,serif" font-size="20.00">firefox Ubuntu 22.04 119 selenium xvfb</text>
<text text-anchor="middle" x="263.5" y="-402.85" font-family="Times,serif" font-size="20.00">firefox macOS 14.0 119 selenium headless</text>
<text text-anchor="middle" x="263.5" y="-380.85" font-family="Times,serif" font-size="20.00">firefox macOS 14.0 119 selenium real</text>
<text text-anchor="middle" x="263.5" y="-358.85" font-family="Times,serif" font-size="20.00">safari macOS 14.0 17.0 selenium real</text>
</g>
<!-- SG_0_Node_1 -->
<g id="node3" class="node">
<title>SG_0_Node_1</title>
<polygon fill="none" stroke="black" points="538,-331.64 406,-331.64 406,-295.64 538,-295.64 538,-331.64"/>
<text text-anchor="middle" x="472" y="-308.64" font-family="Times,serif" font-size="20.00">resp_origin</text>
</g>
<!-- SG_0_Node_0&#45;&gt;SG_0_Node_1 -->
<g id="edge2" class="edge">
<title>SG_0_Node_0&#45;&gt;SG_0_Node_1</title>
<path fill="none" stroke="black" d="M336.79,-496.47C391.24,-493.79 472.52,-485.93 492,-462.85 523.54,-425.5 503.67,-400.33 492,-352.85 491.02,-348.88 489.55,-344.85 487.84,-340.99"/>
<polygon fill="black" stroke="black" points="490.85,-339.19 483.24,-331.82 484.59,-342.32 490.85,-339.19"/>
<text text-anchor="middle" x="553.5" y="-413.85" font-family="Times,serif" font-size="20.00">[NA]</text>
<text text-anchor="middle" x="553.5" y="-391.85" font-family="Times,serif" font-size="20.00">14 levels</text>
</g>
<!-- SG_0_Node_3 -->
<g id="node4" class="node">
<title>SG_0_Node_3</title>
<ellipse fill="none" stroke="black" cx="50" cy="-37.21" rx="33.88" ry="21.43"/>
<text text-anchor="middle" x="50" y="-32.21" font-family="Times,serif" font-size="20.00">0.0</text>
</g>
<!-- SG_0_Node_1&#45;&gt;SG_0_Node_3 -->
<g id="edge3" class="edge">
<title>SG_0_Node_1&#45;&gt;SG_0_Node_3</title>
<path fill="none" stroke="black" d="M405.74,-311.36C293.64,-308.52 76.43,-299.77 53,-274.43 0.77,-217.94 23.47,-117.41 39.34,-67.71"/>
<polygon fill="black" stroke="black" points="42.67,-68.79 42.49,-58.19 36.02,-66.58 42.67,-68.79"/>
<text text-anchor="middle" x="260.5" y="-192.43" font-family="Times,serif" font-size="20.00">https://headers.webappsec.eu</text>
<text text-anchor="middle" x="260.5" y="-170.43" font-family="Times,serif" font-size="20.00">https://headers.websec.saarland</text>
<text text-anchor="middle" x="260.5" y="-148.43" font-family="Times,serif" font-size="20.00">https://sub.sub.headers.websec.saarland</text>
</g>
<!-- SG_0_Node_4 -->
<g id="node5" class="node">
<title>SG_0_Node_4</title>
<ellipse fill="none" stroke="black" cx="472" cy="-37.21" rx="33.88" ry="21.43"/>
<text text-anchor="middle" x="472" y="-32.21" font-family="Times,serif" font-size="20.00">1.0</text>
</g>
<!-- SG_0_Node_1&#45;&gt;SG_0_Node_4 -->
<g id="edge4" class="edge">
<title>SG_0_Node_1&#45;&gt;SG_0_Node_4</title>
<path fill="none" stroke="black" d="M472,-295.47C472,-250.17 472,-126.89 472,-69"/>
<polygon fill="black" stroke="black" points="475.5,-68.67 472,-58.67 468.5,-68.67 475.5,-68.67"/>
<text text-anchor="middle" x="674.5" y="-214.43" font-family="Times,serif" font-size="20.00">[NA]</text>
<text text-anchor="middle" x="674.5" y="-192.43" font-family="Times,serif" font-size="20.00">http://headers.webappsec.eu</text>
<text text-anchor="middle" x="674.5" y="-170.43" font-family="Times,serif" font-size="20.00">http://headers.websec.saarland</text>
<text text-anchor="middle" x="674.5" y="-148.43" font-family="Times,serif" font-size="20.00">http://sub.headers.websec.saarland</text>
<text text-anchor="middle" x="674.5" y="-126.43" font-family="Times,serif" font-size="20.00">http://sub.sub.headers.websec.saarland</text>
</g>
<!-- SG_1_Node_0 -->
<g id="node6" class="node">
<title>SG_1_Node_0</title>
<polygon fill="none" stroke="black" points="1535.5,-516.85 1434.5,-516.85 1434.5,-480.85 1535.5,-480.85 1535.5,-516.85"/>
<text text-anchor="middle" x="1485" y="-493.85" font-family="Times,serif" font-size="20.00">browser</text>
</g>
<!-- SG_1_Node_1 -->
<g id="node7" class="node">
<title>SG_1_Node_1</title>
<polygon fill="none" stroke="black" points="1413,-331.64 1281,-331.64 1281,-295.64 1413,-295.64 1413,-331.64"/>
<text text-anchor="middle" x="1347" y="-308.64" font-family="Times,serif" font-size="20.00">resp_origin</text>
</g>
<!-- SG_1_Node_0&#45;&gt;SG_1_Node_1 -->
<g id="edge5" class="edge">
<title>SG_1_Node_0&#45;&gt;SG_1_Node_1</title>
<path fill="none" stroke="black" d="M1472.02,-480.62C1447.61,-448.21 1394.76,-378.05 1366.22,-340.15"/>
<polygon fill="black" stroke="black" points="1368.66,-337.58 1359.85,-331.7 1363.07,-341.79 1368.66,-337.58"/>
<text text-anchor="middle" x="1503.5" y="-413.85" font-family="Times,serif" font-size="20.00">[NA]</text>
<text text-anchor="middle" x="1503.5" y="-391.85" font-family="Times,serif" font-size="20.00">14 levels</text>
</g>
<!-- SG_1_Node_2 -->
<g id="node8" class="node">
<title>SG_1_Node_2</title>
<polygon fill="none" stroke="black" points="1853.5,-331.64 1716.5,-331.64 1716.5,-295.64 1853.5,-295.64 1853.5,-331.64"/>
<text text-anchor="middle" x="1785" y="-308.64" font-family="Times,serif" font-size="20.00">raw_header</text>
</g>
<!-- SG_1_Node_0&#45;&gt;SG_1_Node_2 -->
<g id="edge6" class="edge">
<title>SG_1_Node_0&#45;&gt;SG_1_Node_2</title>
<path fill="none" stroke="black" d="M1519.58,-480.84C1530.39,-475.31 1542.3,-469.01 1553,-462.85 1625.44,-421.19 1707.15,-367.3 1751.68,-337.32"/>
<polygon fill="black" stroke="black" points="1753.74,-340.15 1760.07,-331.65 1749.83,-334.35 1753.74,-340.15"/>
<text text-anchor="middle" x="1948.5" y="-446.85" font-family="Times,serif" font-size="20.00">firefox Ubuntu 22.04 119 selenium headless</text>
<text text-anchor="middle" x="1948.5" y="-424.85" font-family="Times,serif" font-size="20.00">firefox Ubuntu 22.04 119 selenium xvfb</text>
<text text-anchor="middle" x="1948.5" y="-402.85" font-family="Times,serif" font-size="20.00">firefox macOS 14.0 119 selenium headless</text>
<text text-anchor="middle" x="1948.5" y="-380.85" font-family="Times,serif" font-size="20.00">firefox macOS 14.0 119 selenium real</text>
<text text-anchor="middle" x="1948.5" y="-358.85" font-family="Times,serif" font-size="20.00">safari macOS 14.0 17.0 selenium real</text>
</g>
<!-- SG_1_Node_3 -->
<g id="node9" class="node">
<title>SG_1_Node_3</title>
<ellipse fill="none" stroke="black" cx="935" cy="-37.21" rx="33.88" ry="21.43"/>
<text text-anchor="middle" x="935" y="-32.21" font-family="Times,serif" font-size="20.00">0.0</text>
</g>
<!-- SG_1_Node_1&#45;&gt;SG_1_Node_3 -->
<g id="edge9" class="edge">
<title>SG_1_Node_1&#45;&gt;SG_1_Node_3</title>
<path fill="none" stroke="black" d="M1280.57,-311.2C1170.65,-308.12 960.73,-299.06 938,-274.43 885.83,-217.88 908.5,-117.38 924.35,-67.7"/>
<polygon fill="black" stroke="black" points="927.68,-68.78 927.5,-58.18 921.03,-66.58 927.68,-68.78"/>
<text text-anchor="middle" x="1140.5" y="-214.43" font-family="Times,serif" font-size="20.00">[NA]</text>
<text text-anchor="middle" x="1140.5" y="-192.43" font-family="Times,serif" font-size="20.00">http://headers.webappsec.eu</text>
<text text-anchor="middle" x="1140.5" y="-170.43" font-family="Times,serif" font-size="20.00">http://headers.websec.saarland</text>
<text text-anchor="middle" x="1140.5" y="-148.43" font-family="Times,serif" font-size="20.00">http://sub.headers.websec.saarland</text>
<text text-anchor="middle" x="1140.5" y="-126.43" font-family="Times,serif" font-size="20.00">http://sub.sub.headers.websec.saarland</text>
</g>
<!-- SG_1_Node_4 -->
<g id="node10" class="node">
<title>SG_1_Node_4</title>
<ellipse fill="none" stroke="black" cx="1347" cy="-37.21" rx="33.88" ry="21.43"/>
<text text-anchor="middle" x="1347" y="-32.21" font-family="Times,serif" font-size="20.00">1.0</text>
</g>
<!-- SG_1_Node_1&#45;&gt;SG_1_Node_4 -->
<g id="edge10" class="edge">
<title>SG_1_Node_1&#45;&gt;SG_1_Node_4</title>
<path fill="none" stroke="black" d="M1347,-295.47C1347,-250.17 1347,-126.89 1347,-69"/>
<polygon fill="black" stroke="black" points="1350.5,-68.67 1347,-58.67 1343.5,-68.67 1350.5,-68.67"/>
<text text-anchor="middle" x="1554.5" y="-192.43" font-family="Times,serif" font-size="20.00">https://headers.webappsec.eu</text>
<text text-anchor="middle" x="1554.5" y="-170.43" font-family="Times,serif" font-size="20.00">https://headers.websec.saarland</text>
<text text-anchor="middle" x="1554.5" y="-148.43" font-family="Times,serif" font-size="20.00">https://sub.sub.headers.websec.saarland</text>
</g>
<!-- SG_1_Node_5 -->
<g id="node11" class="node">
<title>SG_1_Node_5</title>
<ellipse fill="none" stroke="black" cx="1785" cy="-37.21" rx="33.88" ry="21.43"/>
<text text-anchor="middle" x="1785" y="-32.21" font-family="Times,serif" font-size="20.00">0.0</text>
</g>
<!-- SG_1_Node_2&#45;&gt;SG_1_Node_5 -->
<g id="edge7" class="edge">
<title>SG_1_Node_2&#45;&gt;SG_1_Node_5</title>
<path fill="none" stroke="black" d="M1785,-295.47C1785,-250.17 1785,-126.89 1785,-69"/>
<polygon fill="black" stroke="black" points="1788.5,-68.67 1785,-58.67 1781.5,-68.67 1788.5,-68.67"/>
<text text-anchor="middle" x="2309.5" y="-214.43" font-family="Times,serif" font-size="20.00">[[&#39;Timing&#45;Allow&#45;Origin&#39;, &#39;*&#39;], [&#39;location&#39;, &#39;https://sub.headers.websec.saarland/_hp/common/empty.html&#39;]]</text>
<text text-anchor="middle" x="2309.5" y="-192.43" font-family="Times,serif" font-size="20.00">[[&#39;Timing&#45;Allow&#45;Origin&#39;, &#39;*&#39;]]</text>
<text text-anchor="middle" x="2309.5" y="-170.43" font-family="Times,serif" font-size="20.00">[[&#39;Timing&#45;Allow&#45;Origin&#39;, &#39;https://sub.headers.websec.saarland&#39;], [&#39;Timing&#45;Allow&#45;Origin&#39;, &#39;*&#39;]]</text>
<text text-anchor="middle" x="2309.5" y="-148.43" font-family="Times,serif" font-size="20.00">[[&#39;Timing&#45;Allow&#45;Origin&#39;, &#39;https://sub.headers.websec.saarland&#39;]]</text>
<text text-anchor="middle" x="2309.5" y="-126.43" font-family="Times,serif" font-size="20.00">[[&#39;Timing&#45;Allow&#45;Origin&#39;, &#39;null&#39;], [&#39;Timing&#45;Allow&#45;Origin&#39;, &#39;*&#39;]]</text>
</g>
<!-- SG_1_Node_6 -->
<g id="node12" class="node">
<title>SG_1_Node_6</title>
<ellipse fill="none" stroke="black" cx="2857" cy="-37.21" rx="33.88" ry="21.43"/>
<text text-anchor="middle" x="2857" y="-32.21" font-family="Times,serif" font-size="20.00">1.0</text>
</g>
<!-- SG_1_Node_2&#45;&gt;SG_1_Node_6 -->
<g id="edge8" class="edge">
<title>SG_1_Node_2&#45;&gt;SG_1_Node_6</title>
<path fill="none" stroke="black" d="M1853.63,-312.61C2081.32,-312.17 2799.33,-308.14 2835,-274.43 2863.9,-247.12 2861.72,-126.66 2858.9,-69.08"/>
<polygon fill="black" stroke="black" points="2862.38,-68.57 2858.36,-58.77 2855.39,-68.94 2862.38,-68.57"/>
<text text-anchor="middle" x="3399" y="-258.43" font-family="Times,serif" font-size="20.00">[NA]</text>
<text text-anchor="middle" x="3399" y="-236.43" font-family="Times,serif" font-size="20.00">[[&#39;Timing&#45;Allow&#45;Origin&#39;, &#39;http://sub.headers.websec.saarland&#39;]]</text>
<text text-anchor="middle" x="3399" y="-214.43" font-family="Times,serif" font-size="20.00">[[&#39;Timing&#45;Allow&#45;Origin&#39;, &#39;https://headers.websec.saarland&#39;]]</text>
<text text-anchor="middle" x="3399" y="-192.43" font-family="Times,serif" font-size="20.00">[[&#39;Timing&#45;Allow&#45;Origin&#39;, &#39;https://sub.headers.websec.saarland/&#39;]]</text>
<text text-anchor="middle" x="3399" y="-170.43" font-family="Times,serif" font-size="20.00">[[&#39;Timing&#45;Allow&#45;Origin&#39;, &#39;https://sub.headers.websec.saarland:443&#39;]]</text>
<text text-anchor="middle" x="3399" y="-148.43" font-family="Times,serif" font-size="20.00">[[&#39;Timing&#45;Allow&#45;Origin&#39;, &#39;null&#39;], [&#39;location&#39;, &#39;https://sub.headers.websec.saarland/_hp/common/empty.html&#39;]]</text>
<text text-anchor="middle" x="3399" y="-126.43" font-family="Times,serif" font-size="20.00">[[&#39;Timing&#45;Allow&#45;Origin&#39;, &#39;null&#39;]]</text>
<text text-anchor="middle" x="3399" y="-104.43" font-family="Times,serif" font-size="20.00">[[&#39;Timing&#45;Allow&#45;Origin&#39;, &#39;sub.headers.websec.saarland&#39;]]</text>
<text text-anchor="middle" x="3399" y="-82.43" font-family="Times,serif" font-size="20.00">[]</text>
</g>
<!-- SG_2_Node_0 -->
<g id="node13" class="node">
<title>SG_2_Node_0</title>
<polygon fill="none" stroke="black" points="4108.5,-516.85 4007.5,-516.85 4007.5,-480.85 4108.5,-480.85 4108.5,-516.85"/>
<text text-anchor="middle" x="4058" y="-493.85" font-family="Times,serif" font-size="20.00">browser</text>
</g>
<!-- SG_2_Node_2 -->
<g id="node14" class="node">
<title>SG_2_Node_2</title>
<ellipse fill="none" stroke="black" cx="4025" cy="-313.64" rx="33.88" ry="21.43"/>
<text text-anchor="middle" x="4025" y="-308.64" font-family="Times,serif" font-size="20.00">0.0</text>
</g>
<!-- SG_2_Node_0&#45;&gt;SG_2_Node_2 -->
<g id="edge11" class="edge">
<title>SG_2_Node_0&#45;&gt;SG_2_Node_2</title>
<path fill="none" stroke="black" d="M4040.72,-480.71C4036.43,-475.42 4032.38,-469.28 4030,-462.85 4015.7,-424.19 4017.33,-375.91 4020.56,-345.17"/>
<polygon fill="black" stroke="black" points="4024.06,-345.41 4021.75,-335.07 4017.1,-344.59 4024.06,-345.41"/>
<text text-anchor="middle" x="4075.5" y="-413.85" font-family="Times,serif" font-size="20.00">[NA]</text>
<text text-anchor="middle" x="4075.5" y="-391.85" font-family="Times,serif" font-size="20.00">14 levels</text>
</g>
<!-- SG_2_Node_1 -->
<g id="node15" class="node">
<title>SG_2_Node_1</title>
<polygon fill="none" stroke="black" points="4213.5,-331.64 4076.5,-331.64 4076.5,-295.64 4213.5,-295.64 4213.5,-331.64"/>
<text text-anchor="middle" x="4145" y="-308.64" font-family="Times,serif" font-size="20.00">raw_header</text>
</g>
<!-- SG_2_Node_0&#45;&gt;SG_2_Node_1 -->
<g id="edge12" class="edge">
<title>SG_2_Node_0&#45;&gt;SG_2_Node_1</title>
<path fill="none" stroke="black" d="M4101.15,-480.83C4108.78,-476.05 4115.9,-470.12 4121,-462.85 4146.19,-426.98 4148.64,-374.27 4147.36,-342.34"/>
<polygon fill="black" stroke="black" points="4150.83,-341.76 4146.78,-331.97 4143.84,-342.15 4150.83,-341.76"/>
<text text-anchor="middle" x="4371.5" y="-446.85" font-family="Times,serif" font-size="20.00">firefox Ubuntu 22.04 119 selenium headless</text>
<text text-anchor="middle" x="4371.5" y="-424.85" font-family="Times,serif" font-size="20.00">firefox Ubuntu 22.04 119 selenium xvfb</text>
<text text-anchor="middle" x="4371.5" y="-402.85" font-family="Times,serif" font-size="20.00">firefox macOS 14.0 119 selenium headless</text>
<text text-anchor="middle" x="4371.5" y="-380.85" font-family="Times,serif" font-size="20.00">firefox macOS 14.0 119 selenium real</text>
<text text-anchor="middle" x="4371.5" y="-358.85" font-family="Times,serif" font-size="20.00">safari macOS 14.0 17.0 selenium real</text>
</g>
<!-- SG_2_Node_3 -->
<g id="node16" class="node">
<title>SG_2_Node_3</title>
<ellipse fill="none" stroke="black" cx="3993" cy="-37.21" rx="33.88" ry="21.43"/>
<text text-anchor="middle" x="3993" y="-32.21" font-family="Times,serif" font-size="20.00">0.0</text>
</g>
<!-- SG_2_Node_1&#45;&gt;SG_2_Node_3 -->
<g id="edge13" class="edge">
<title>SG_2_Node_1&#45;&gt;SG_2_Node_3</title>
<path fill="none" stroke="black" d="M4081.21,-295.58C4076.74,-294.48 4072.31,-293.42 4068,-292.43 4028.25,-283.24 4003.86,-305.97 3978,-274.43 3929.13,-214.82 3959.93,-115.74 3979.89,-67.04"/>
<polygon fill="black" stroke="black" points="3983.15,-68.3 3983.83,-57.72 3976.71,-65.57 3983.15,-68.3"/>
<text text-anchor="middle" x="4517" y="-258.43" font-family="Times,serif" font-size="20.00">[NA]</text>
<text text-anchor="middle" x="4517" y="-236.43" font-family="Times,serif" font-size="20.00">[[&#39;Timing&#45;Allow&#45;Origin&#39;, &#39;http://sub.headers.websec.saarland&#39;]]</text>
<text text-anchor="middle" x="4517" y="-214.43" font-family="Times,serif" font-size="20.00">[[&#39;Timing&#45;Allow&#45;Origin&#39;, &#39;https://headers.websec.saarland&#39;]]</text>
<text text-anchor="middle" x="4517" y="-192.43" font-family="Times,serif" font-size="20.00">[[&#39;Timing&#45;Allow&#45;Origin&#39;, &#39;https://sub.headers.websec.saarland/&#39;]]</text>
<text text-anchor="middle" x="4517" y="-170.43" font-family="Times,serif" font-size="20.00">[[&#39;Timing&#45;Allow&#45;Origin&#39;, &#39;https://sub.headers.websec.saarland:443&#39;]]</text>
<text text-anchor="middle" x="4517" y="-148.43" font-family="Times,serif" font-size="20.00">[[&#39;Timing&#45;Allow&#45;Origin&#39;, &#39;null&#39;], [&#39;location&#39;, &#39;https://sub.headers.websec.saarland/_hp/common/empty.html&#39;]]</text>
<text text-anchor="middle" x="4517" y="-126.43" font-family="Times,serif" font-size="20.00">[[&#39;Timing&#45;Allow&#45;Origin&#39;, &#39;null&#39;]]</text>
<text text-anchor="middle" x="4517" y="-104.43" font-family="Times,serif" font-size="20.00">[[&#39;Timing&#45;Allow&#45;Origin&#39;, &#39;sub.headers.websec.saarland&#39;]]</text>
<text text-anchor="middle" x="4517" y="-82.43" font-family="Times,serif" font-size="20.00">[]</text>
</g>
<!-- SG_2_Node_4 -->
<g id="node17" class="node">
<title>SG_2_Node_4</title>
<ellipse fill="none" stroke="black" cx="5078" cy="-37.21" rx="33.88" ry="21.43"/>
<text text-anchor="middle" x="5078" y="-32.21" font-family="Times,serif" font-size="20.00">1.0</text>
</g>
<!-- SG_2_Node_1&#45;&gt;SG_2_Node_4 -->
<g id="edge14" class="edge">
<title>SG_2_Node_1&#45;&gt;SG_2_Node_4</title>
<path fill="none" stroke="black" d="M4213.79,-312.2C4420.79,-310.57 5025.59,-303.32 5056,-274.43 5112.03,-221.19 5097.74,-119.08 5086.11,-68.35"/>
<polygon fill="black" stroke="black" points="5089.45,-67.24 5083.7,-58.34 5082.64,-68.88 5089.45,-67.24"/>
<text text-anchor="middle" x="5620.5" y="-214.43" font-family="Times,serif" font-size="20.00">[[&#39;Timing&#45;Allow&#45;Origin&#39;, &#39;*&#39;], [&#39;location&#39;, &#39;https://sub.headers.websec.saarland/_hp/common/empty.html&#39;]]</text>
<text text-anchor="middle" x="5620.5" y="-192.43" font-family="Times,serif" font-size="20.00">[[&#39;Timing&#45;Allow&#45;Origin&#39;, &#39;*&#39;]]</text>
<text text-anchor="middle" x="5620.5" y="-170.43" font-family="Times,serif" font-size="20.00">[[&#39;Timing&#45;Allow&#45;Origin&#39;, &#39;https://sub.headers.websec.saarland&#39;], [&#39;Timing&#45;Allow&#45;Origin&#39;, &#39;*&#39;]]</text>
<text text-anchor="middle" x="5620.5" y="-148.43" font-family="Times,serif" font-size="20.00">[[&#39;Timing&#45;Allow&#45;Origin&#39;, &#39;https://sub.headers.websec.saarland&#39;]]</text>
<text text-anchor="middle" x="5620.5" y="-126.43" font-family="Times,serif" font-size="20.00">[[&#39;Timing&#45;Allow&#45;Origin&#39;, &#39;null&#39;], [&#39;Timing&#45;Allow&#45;Origin&#39;, &#39;*&#39;]]</text>
</g>
</g>
</svg>
