<?xml version="1.0" encoding="UTF-8" standalone="no"?>
<!DOCTYPE svg PUBLIC "-//W3C//DTD SVG 1.1//EN"
 "http://www.w3.org/Graphics/SVG/1.1/DTD/svg11.dtd">
<!-- Generated by graphviz version 2.43.0 (0)
 -->
<!-- Title: G Pages: 1 -->
<svg width="2436pt" height="366pt"
 viewBox="0.00 0.00 2436.00 366.43" xmlns="http://www.w3.org/2000/svg" xmlns:xlink="http://www.w3.org/1999/xlink">
<g id="graph0" class="graph" transform="scale(1 1) rotate(0) translate(4 362.43)">
<title>G</title>
<polygon fill="white" stroke="transparent" points="-4,4 -4,-362.43 2432,-362.43 2432,4 -4,4"/>
<g id="clust1" class="cluster">
<title>cluster_0</title>
<polygon fill="none" stroke="black" points="8,-8 8,-350.43 1210,-350.43 1210,-8 8,-8"/>
<text text-anchor="middle" x="609" y="-314.43" font-family="Times,serif" font-size="40.00">Tree 0, Class message send</text>
</g>
<g id="clust5" class="cluster">
<title>cluster_1</title>
<polygon fill="none" stroke="black" points="1218,-8 1218,-350.43 2420,-350.43 2420,-8 1218,-8"/>
<text text-anchor="middle" x="1819" y="-314.43" font-family="Times,serif" font-size="40.00">Tree 0, Class message timeout</text>
</g>
<!-- SG_0_Node_0 -->
<g id="node1" class="node">
<title>SG_0_Node_0</title>
<polygon fill="none" stroke="black" points="370.5,-290.43 233.5,-290.43 233.5,-254.43 370.5,-254.43 370.5,-290.43"/>
<text text-anchor="middle" x="302" y="-267.43" font-family="Times,serif" font-size="20.00">raw_header</text>
</g>
<!-- SG_0_Node_1 -->
<g id="node2" class="node">
<title>SG_0_Node_1</title>
<polygon fill="none" stroke="black" points="117.5,-174.43 16.5,-174.43 16.5,-138.43 117.5,-138.43 117.5,-174.43"/>
<text text-anchor="middle" x="67" y="-151.43" font-family="Times,serif" font-size="20.00">browser</text>
</g>
<!-- SG_0_Node_0&#45;&gt;SG_0_Node_1 -->
<g id="edge1" class="edge">
<title>SG_0_Node_0&#45;&gt;SG_0_Node_1</title>
<path fill="none" stroke="black" d="M233.45,-272.28C163.06,-271.52 60.32,-265.29 35,-236.43 22.1,-221.73 27.92,-210.66 35,-192.43 36.36,-188.92 38.26,-185.55 40.45,-182.38"/>
<polygon fill="black" stroke="black" points="43.25,-184.48 46.8,-174.5 37.8,-180.09 43.25,-184.48"/>
<text text-anchor="middle" x="266.5" y="-209.43" font-family="Times,serif" font-size="20.00">[[&#39;Content&#45;Security&#45;Policy&#39;, &quot;script&#45;src &#39;self&#39;&quot;]]</text>
</g>
<!-- SG_0_Node_2 -->
<g id="node3" class="node">
<title>SG_0_Node_2</title>
<polygon fill="none" stroke="black" points="611.5,-174.43 510.5,-174.43 510.5,-138.43 611.5,-138.43 611.5,-174.43"/>
<text text-anchor="middle" x="561" y="-151.43" font-family="Times,serif" font-size="20.00">browser</text>
</g>
<!-- SG_0_Node_0&#45;&gt;SG_0_Node_2 -->
<g id="edge2" class="edge">
<title>SG_0_Node_0&#45;&gt;SG_0_Node_2</title>
<path fill="none" stroke="black" d="M370.75,-264.44C418.39,-258.62 476.9,-249.21 498,-236.43 519.14,-223.62 516.56,-211.72 532,-192.43 534.53,-189.26 537.22,-185.95 539.9,-182.69"/>
<polygon fill="black" stroke="black" points="542.76,-184.72 546.43,-174.78 537.36,-180.26 542.76,-184.72"/>
<text text-anchor="middle" x="873" y="-220.43" font-family="Times,serif" font-size="20.00">[NA]</text>
<text text-anchor="middle" x="873" y="-198.43" font-family="Times,serif" font-size="20.00">[[&#39;Content&#45;Security&#45;Policy&#39;, &#39;script&#45;src *.headers.websec.saarland&#39;]]</text>
</g>
<!-- SG_0_Node_3 -->
<g id="node4" class="node">
<title>SG_0_Node_3</title>
<ellipse fill="none" stroke="black" cx="50" cy="-37.21" rx="33.88" ry="21.43"/>
<text text-anchor="middle" x="50" y="-32.21" font-family="Times,serif" font-size="20.00">0.0</text>
</g>
<!-- SG_0_Node_1&#45;&gt;SG_0_Node_3 -->
<g id="edge5" class="edge">
<title>SG_0_Node_1&#45;&gt;SG_0_Node_3</title>
<path fill="none" stroke="black" d="M52.29,-138.35C48.51,-132.97 44.96,-126.76 43,-120.43 37.78,-103.59 39.2,-83.95 42.07,-68.08"/>
<polygon fill="black" stroke="black" points="45.51,-68.77 44.12,-58.27 38.65,-67.34 45.51,-68.77"/>
<text text-anchor="middle" x="88.5" y="-104.43" font-family="Times,serif" font-size="20.00">[NA]</text>
<text text-anchor="middle" x="88.5" y="-82.43" font-family="Times,serif" font-size="20.00">18 levels</text>
</g>
<!-- SG_0_Node_4 -->
<g id="node5" class="node">
<title>SG_0_Node_4</title>
<ellipse fill="none" stroke="black" cx="156" cy="-37.21" rx="33.88" ry="21.43"/>
<text text-anchor="middle" x="156" y="-32.21" font-family="Times,serif" font-size="20.00">1.0</text>
</g>
<!-- SG_0_Node_1&#45;&gt;SG_0_Node_4 -->
<g id="edge6" class="edge">
<title>SG_0_Node_1&#45;&gt;SG_0_Node_4</title>
<path fill="none" stroke="black" d="M112.27,-138.4C120.43,-133.63 128.17,-127.7 134,-120.43 145.78,-105.72 151.28,-85.26 153.84,-68.44"/>
<polygon fill="black" stroke="black" points="157.31,-68.87 155.08,-58.51 150.37,-68 157.31,-68.87"/>
<text text-anchor="middle" x="343" y="-93.43" font-family="Times,serif" font-size="20.00">safari macOS 14.0 17.0 selenium real</text>
</g>
<!-- SG_0_Node_5 -->
<g id="node6" class="node">
<title>SG_0_Node_5</title>
<ellipse fill="none" stroke="black" cx="561" cy="-37.21" rx="33.88" ry="21.43"/>
<text text-anchor="middle" x="561" y="-32.21" font-family="Times,serif" font-size="20.00">0.0</text>
</g>
<!-- SG_0_Node_2&#45;&gt;SG_0_Node_5 -->
<g id="edge3" class="edge">
<title>SG_0_Node_2&#45;&gt;SG_0_Node_5</title>
<path fill="none" stroke="black" d="M561,-138.38C561,-120.16 561,-90.89 561,-68.68"/>
<polygon fill="black" stroke="black" points="564.5,-68.43 561,-58.43 557.5,-68.43 564.5,-68.43"/>
<text text-anchor="middle" x="752" y="-93.43" font-family="Times,serif" font-size="20.00">safari macOS 14.0 17.0 selenium real</text>
</g>
<!-- SG_0_Node_6 -->
<g id="node7" class="node">
<title>SG_0_Node_6</title>
<ellipse fill="none" stroke="black" cx="966" cy="-37.21" rx="33.88" ry="21.43"/>
<text text-anchor="middle" x="966" y="-32.21" font-family="Times,serif" font-size="20.00">1.0</text>
</g>
<!-- SG_0_Node_2&#45;&gt;SG_0_Node_6 -->
<g id="edge4" class="edge">
<title>SG_0_Node_2&#45;&gt;SG_0_Node_6</title>
<path fill="none" stroke="black" d="M611.63,-153.98C709.92,-150.73 919.11,-141.4 944,-120.43 958.92,-107.85 964.3,-86.37 966.02,-68.52"/>
<polygon fill="black" stroke="black" points="969.51,-68.72 966.64,-58.52 962.52,-68.28 969.51,-68.72"/>
<text text-anchor="middle" x="1010.5" y="-104.43" font-family="Times,serif" font-size="20.00">[NA]</text>
<text text-anchor="middle" x="1010.5" y="-82.43" font-family="Times,serif" font-size="20.00">18 levels</text>
</g>
<!-- SG_1_Node_0 -->
<g id="node8" class="node">
<title>SG_1_Node_0</title>
<polygon fill="none" stroke="black" points="1690.5,-290.43 1553.5,-290.43 1553.5,-254.43 1690.5,-254.43 1690.5,-290.43"/>
<text text-anchor="middle" x="1622" y="-267.43" font-family="Times,serif" font-size="20.00">raw_header</text>
</g>
<!-- SG_1_Node_1 -->
<g id="node9" class="node">
<title>SG_1_Node_1</title>
<polygon fill="none" stroke="black" points="1327.5,-174.43 1226.5,-174.43 1226.5,-138.43 1327.5,-138.43 1327.5,-174.43"/>
<text text-anchor="middle" x="1277" y="-151.43" font-family="Times,serif" font-size="20.00">browser</text>
</g>
<!-- SG_1_Node_0&#45;&gt;SG_1_Node_1 -->
<g id="edge7" class="edge">
<title>SG_1_Node_0&#45;&gt;SG_1_Node_1</title>
<path fill="none" stroke="black" d="M1553.43,-270.03C1449.41,-267.2 1261.59,-259 1241,-236.43 1227.82,-221.98 1233.39,-210.44 1241,-192.43 1242.56,-188.74 1244.72,-185.25 1247.21,-182"/>
<polygon fill="black" stroke="black" points="1249.89,-184.25 1253.94,-174.46 1244.67,-179.59 1249.89,-184.25"/>
<text text-anchor="middle" x="1582" y="-220.43" font-family="Times,serif" font-size="20.00">[NA]</text>
<text text-anchor="middle" x="1582" y="-198.43" font-family="Times,serif" font-size="20.00">[[&#39;Content&#45;Security&#45;Policy&#39;, &#39;script&#45;src *.headers.websec.saarland&#39;]]</text>
</g>
<!-- SG_1_Node_2 -->
<g id="node10" class="node">
<title>SG_1_Node_2</title>
<polygon fill="none" stroke="black" points="1999.5,-174.43 1898.5,-174.43 1898.5,-138.43 1999.5,-138.43 1999.5,-174.43"/>
<text text-anchor="middle" x="1949" y="-151.43" font-family="Times,serif" font-size="20.00">browser</text>
</g>
<!-- SG_1_Node_0&#45;&gt;SG_1_Node_2 -->
<g id="edge8" class="edge">
<title>SG_1_Node_0&#45;&gt;SG_1_Node_2</title>
<path fill="none" stroke="black" d="M1690.82,-272.19C1769.72,-271.61 1892.6,-265.8 1927,-236.43 1941.79,-223.79 1947.06,-202.14 1948.76,-184.69"/>
<polygon fill="black" stroke="black" points="1952.27,-184.7 1949.41,-174.49 1945.28,-184.25 1952.27,-184.7"/>
<text text-anchor="middle" x="2178.5" y="-209.43" font-family="Times,serif" font-size="20.00">[[&#39;Content&#45;Security&#45;Policy&#39;, &quot;script&#45;src &#39;self&#39;&quot;]]</text>
</g>
<!-- SG_1_Node_3 -->
<g id="node11" class="node">
<title>SG_1_Node_3</title>
<ellipse fill="none" stroke="black" cx="1268" cy="-37.21" rx="33.88" ry="21.43"/>
<text text-anchor="middle" x="1268" y="-32.21" font-family="Times,serif" font-size="20.00">0.0</text>
</g>
<!-- SG_1_Node_1&#45;&gt;SG_1_Node_3 -->
<g id="edge11" class="edge">
<title>SG_1_Node_1&#45;&gt;SG_1_Node_3</title>
<path fill="none" stroke="black" d="M1272.28,-138.11C1270.95,-132.51 1269.69,-126.24 1269,-120.43 1266.97,-103.38 1266.63,-84.21 1266.83,-68.67"/>
<polygon fill="black" stroke="black" points="1270.34,-68.64 1267.05,-58.56 1263.34,-68.49 1270.34,-68.64"/>
<text text-anchor="middle" x="1314.5" y="-104.43" font-family="Times,serif" font-size="20.00">[NA]</text>
<text text-anchor="middle" x="1314.5" y="-82.43" font-family="Times,serif" font-size="20.00">18 levels</text>
</g>
<!-- SG_1_Node_4 -->
<g id="node12" class="node">
<title>SG_1_Node_4</title>
<ellipse fill="none" stroke="black" cx="1382" cy="-37.21" rx="33.88" ry="21.43"/>
<text text-anchor="middle" x="1382" y="-32.21" font-family="Times,serif" font-size="20.00">1.0</text>
</g>
<!-- SG_1_Node_1&#45;&gt;SG_1_Node_4 -->
<g id="edge12" class="edge">
<title>SG_1_Node_1&#45;&gt;SG_1_Node_4</title>
<path fill="none" stroke="black" d="M1327.8,-142.49C1339.75,-137.33 1351.47,-130.21 1360,-120.43 1372.46,-106.13 1377.95,-85.5 1380.34,-68.48"/>
<polygon fill="black" stroke="black" points="1383.83,-68.77 1381.45,-58.44 1376.87,-67.99 1383.83,-68.77"/>
<text text-anchor="middle" x="1569" y="-93.43" font-family="Times,serif" font-size="20.00">safari macOS 14.0 17.0 selenium real</text>
</g>
<!-- SG_1_Node_5 -->
<g id="node13" class="node">
<title>SG_1_Node_5</title>
<ellipse fill="none" stroke="black" cx="1848" cy="-37.21" rx="33.88" ry="21.43"/>
<text text-anchor="middle" x="1848" y="-32.21" font-family="Times,serif" font-size="20.00">0.0</text>
</g>
<!-- SG_1_Node_2&#45;&gt;SG_1_Node_5 -->
<g id="edge9" class="edge">
<title>SG_1_Node_2&#45;&gt;SG_1_Node_5</title>
<path fill="none" stroke="black" d="M1898.48,-149.9C1879.84,-145.15 1860.49,-136.41 1849,-120.43 1838.38,-105.64 1838.09,-85.19 1840.48,-68.38"/>
<polygon fill="black" stroke="black" points="1843.93,-68.92 1842.24,-58.47 1837.04,-67.7 1843.93,-68.92"/>
<text text-anchor="middle" x="2040" y="-93.43" font-family="Times,serif" font-size="20.00">safari macOS 14.0 17.0 selenium real</text>
</g>
<!-- SG_1_Node_6 -->
<g id="node14" class="node">
<title>SG_1_Node_6</title>
<ellipse fill="none" stroke="black" cx="2253" cy="-37.21" rx="33.88" ry="21.43"/>
<text text-anchor="middle" x="2253" y="-32.21" font-family="Times,serif" font-size="20.00">1.0</text>
</g>
<!-- SG_1_Node_2&#45;&gt;SG_1_Node_6 -->
<g id="edge10" class="edge">
<title>SG_1_Node_2&#45;&gt;SG_1_Node_6</title>
<path fill="none" stroke="black" d="M1999.65,-155.72C2071.35,-155.06 2197.47,-149.62 2231,-120.43 2245.49,-107.81 2250.93,-86.8 2252.79,-69.18"/>
<polygon fill="black" stroke="black" points="2256.31,-68.98 2253.52,-58.75 2249.33,-68.48 2256.31,-68.98"/>
<text text-anchor="middle" x="2296.5" y="-104.43" font-family="Times,serif" font-size="20.00">[NA]</text>
<text text-anchor="middle" x="2296.5" y="-82.43" font-family="Times,serif" font-size="20.00">18 levels</text>
</g>
</g>
</svg>
