<?xml version="1.0" encoding="UTF-8" standalone="no"?>
<!DOCTYPE svg PUBLIC "-//W3C//DTD SVG 1.1//EN"
 "http://www.w3.org/Graphics/SVG/1.1/DTD/svg11.dtd">
<!-- Generated by graphviz version 2.43.0 (0)
 -->
<!-- Title: G Pages: 1 -->
<svg width="7222pt" height="250pt"
 viewBox="0.00 0.00 7222.00 250.43" xmlns="http://www.w3.org/2000/svg" xmlns:xlink="http://www.w3.org/1999/xlink">
<g id="graph0" class="graph" transform="scale(1 1) rotate(0) translate(4 246.43)">
<title>G</title>
<polygon fill="white" stroke="transparent" points="-4,4 -4,-246.43 7218,-246.43 7218,4 -4,4"/>
<g id="clust1" class="cluster">
<title>cluster_0</title>
<polygon fill="none" stroke="black" points="8,-8 8,-234.43 3612,-234.43 3612,-8 8,-8"/>
<text text-anchor="middle" x="1810" y="-198.43" font-family="Times,serif" font-size="40.00">Tree 0, Class {&#39;image&#45;events&#39;: {&#39;swag.jpg&#39;: &#39;error&#39;, &#39;swag&#45;same&#45;site.jpg&#39;: &#39;error&#39;, &#39;swag&#45;cross&#45;site.jpg&#39;: &#39;load&#39;, &#39;swag&#45;same&#45;origin.jpg&#39;: &#39;error&#39;}, &#39;window.crossOriginIsolated&#39;: False}</text>
</g>
<g id="clust4" class="cluster">
<title>cluster_1</title>
<polygon fill="none" stroke="black" points="3620,-8 3620,-234.43 7206,-234.43 7206,-8 3620,-8"/>
<text text-anchor="middle" x="5413" y="-198.43" font-family="Times,serif" font-size="40.00">Tree 0, Class {&#39;image&#45;events&#39;: {&#39;swag.jpg&#39;: &#39;load&#39;, &#39;swag&#45;same&#45;site.jpg&#39;: &#39;error&#39;, &#39;swag&#45;cross&#45;site.jpg&#39;: &#39;load&#39;, &#39;swag&#45;same&#45;origin.jpg&#39;: &#39;error&#39;}, &#39;window.crossOriginIsolated&#39;: False}</text>
</g>
<!-- SG_0_Node_0 -->
<g id="node1" class="node">
<title>SG_0_Node_0</title>
<polygon fill="none" stroke="black" points="165.5,-174.43 64.5,-174.43 64.5,-138.43 165.5,-138.43 165.5,-174.43"/>
<text text-anchor="middle" x="115" y="-151.43" font-family="Times,serif" font-size="20.00">browser</text>
</g>
<!-- SG_0_Node_1 -->
<g id="node2" class="node">
<title>SG_0_Node_1</title>
<ellipse fill="none" stroke="black" cx="82" cy="-37.21" rx="33.88" ry="21.43"/>
<text text-anchor="middle" x="82" y="-32.21" font-family="Times,serif" font-size="20.00">0.0</text>
</g>
<!-- SG_0_Node_0&#45;&gt;SG_0_Node_1 -->
<g id="edge1" class="edge">
<title>SG_0_Node_0&#45;&gt;SG_0_Node_1</title>
<path fill="none" stroke="black" d="M94.85,-138.33C90.07,-133.12 85.6,-127.01 83,-120.43 76.61,-104.25 76.07,-84.84 77.27,-68.94"/>
<polygon fill="black" stroke="black" points="80.79,-68.89 78.32,-58.58 73.83,-68.18 80.79,-68.89"/>
<text text-anchor="middle" x="128.5" y="-104.43" font-family="Times,serif" font-size="20.00">[NA]</text>
<text text-anchor="middle" x="128.5" y="-82.43" font-family="Times,serif" font-size="20.00">18 levels</text>
</g>
<!-- SG_0_Node_2 -->
<g id="node3" class="node">
<title>SG_0_Node_2</title>
<ellipse fill="none" stroke="black" cx="196" cy="-37.21" rx="33.88" ry="21.43"/>
<text text-anchor="middle" x="196" y="-32.21" font-family="Times,serif" font-size="20.00">1.0</text>
</g>
<!-- SG_0_Node_0&#45;&gt;SG_0_Node_2 -->
<g id="edge2" class="edge">
<title>SG_0_Node_0&#45;&gt;SG_0_Node_2</title>
<path fill="none" stroke="black" d="M153.69,-138.36C161.31,-133.5 168.61,-127.55 174,-120.43 185.2,-105.65 190.71,-85.6 193.41,-69"/>
<polygon fill="black" stroke="black" points="196.93,-69.06 194.81,-58.68 190,-68.12 196.93,-69.06"/>
<text text-anchor="middle" x="382" y="-93.43" font-family="Times,serif" font-size="20.00">safari macOS 14.0 17.0 selenium real</text>
</g>
<!-- SG_1_Node_0 -->
<g id="node4" class="node">
<title>SG_1_Node_0</title>
<polygon fill="none" stroke="black" points="3923.5,-174.43 3822.5,-174.43 3822.5,-138.43 3923.5,-138.43 3923.5,-174.43"/>
<text text-anchor="middle" x="3873" y="-151.43" font-family="Times,serif" font-size="20.00">browser</text>
</g>
<!-- SG_1_Node_1 -->
<g id="node5" class="node">
<title>SG_1_Node_1</title>
<ellipse fill="none" stroke="black" cx="3767" cy="-37.21" rx="33.88" ry="21.43"/>
<text text-anchor="middle" x="3767" y="-32.21" font-family="Times,serif" font-size="20.00">0.0</text>
</g>
<!-- SG_1_Node_0&#45;&gt;SG_1_Node_1 -->
<g id="edge3" class="edge">
<title>SG_1_Node_0&#45;&gt;SG_1_Node_1</title>
<path fill="none" stroke="black" d="M3822.48,-151.1C3802.18,-146.6 3780.63,-137.73 3768,-120.43 3757.2,-105.63 3756.98,-85 3759.44,-68.11"/>
<polygon fill="black" stroke="black" points="3762.9,-68.63 3761.25,-58.16 3756.02,-67.37 3762.9,-68.63"/>
<text text-anchor="middle" x="3959" y="-93.43" font-family="Times,serif" font-size="20.00">safari macOS 14.0 17.0 selenium real</text>
</g>
<!-- SG_1_Node_2 -->
<g id="node6" class="node">
<title>SG_1_Node_2</title>
<ellipse fill="none" stroke="black" cx="4172" cy="-37.21" rx="33.88" ry="21.43"/>
<text text-anchor="middle" x="4172" y="-32.21" font-family="Times,serif" font-size="20.00">1.0</text>
</g>
<!-- SG_1_Node_0&#45;&gt;SG_1_Node_2 -->
<g id="edge4" class="edge">
<title>SG_1_Node_0&#45;&gt;SG_1_Node_2</title>
<path fill="none" stroke="black" d="M3923.64,-155.58C3994.23,-154.73 4117.22,-149.03 4150,-120.43 4164.47,-107.8 4169.92,-86.79 4171.78,-69.17"/>
<polygon fill="black" stroke="black" points="4175.3,-68.97 4172.52,-58.75 4168.32,-68.47 4175.3,-68.97"/>
<text text-anchor="middle" x="4215.5" y="-104.43" font-family="Times,serif" font-size="20.00">[NA]</text>
<text text-anchor="middle" x="4215.5" y="-82.43" font-family="Times,serif" font-size="20.00">18 levels</text>
</g>
</g>
</svg>
