<?xml version="1.0" encoding="UTF-8" standalone="no"?>
<!DOCTYPE svg PUBLIC "-//W3C//DTD SVG 1.1//EN"
 "http://www.w3.org/Graphics/SVG/1.1/DTD/svg11.dtd">
<!-- Generated by graphviz version 2.43.0 (0)
 -->
<!-- Title: G Pages: 1 -->
<svg width="6682pt" height="1105pt"
 viewBox="0.00 0.00 6682.00 1104.56" xmlns="http://www.w3.org/2000/svg" xmlns:xlink="http://www.w3.org/1999/xlink">
<g id="graph0" class="graph" transform="scale(1 1) rotate(0) translate(4 1100.56)">
<title>G</title>
<polygon fill="white" stroke="transparent" points="-4,4 -4,-1100.56 6678,-1100.56 6678,4 -4,4"/>
<g id="clust1" class="cluster">
<title>cluster_0</title>
<polygon fill="none" stroke="black" points="8,-8 8,-1088.56 2288,-1088.56 2288,-8 8,-8"/>
<text text-anchor="middle" x="1148" y="-1052.56" font-family="Times,serif" font-size="40.00">Tree 0, Class {&#39;window.open.opener&#39;: &#39;null&#39;}</text>
</g>
<g id="clust9" class="cluster">
<title>cluster_1</title>
<polygon fill="none" stroke="black" points="2296,-730.13 2296,-1088.56 4378,-1088.56 4378,-730.13 2296,-730.13"/>
<text text-anchor="middle" x="3337" y="-1052.56" font-family="Times,serif" font-size="40.00">Tree 0, Class {&#39;window.open.opener&#39;: &#39;object TypeError: null is not an object (evaluating &#39;w.opener&#39;)&#39;}</text>
</g>
<g id="clust12" class="cluster">
<title>cluster_2</title>
<polygon fill="none" stroke="black" points="4386,-8 4386,-1088.56 6666,-1088.56 6666,-8 4386,-8"/>
<text text-anchor="middle" x="5526" y="-1052.56" font-family="Times,serif" font-size="40.00">Tree 0, Class {&#39;window.open.opener&#39;: &#39;object [object Window]&#39;}</text>
</g>
<!-- SG_0_Node_0 -->
<g id="node1" class="node">
<title>SG_0_Node_0</title>
<polygon fill="none" stroke="black" points="563.5,-1028.56 426.5,-1028.56 426.5,-992.56 563.5,-992.56 563.5,-1028.56"/>
<text text-anchor="middle" x="495" y="-1005.56" font-family="Times,serif" font-size="20.00">raw_header</text>
</g>
<!-- SG_0_Node_7 -->
<g id="node2" class="node">
<title>SG_0_Node_7</title>
<ellipse fill="none" stroke="black" cx="50" cy="-759.35" rx="33.88" ry="21.43"/>
<text text-anchor="middle" x="50" y="-754.35" font-family="Times,serif" font-size="20.00">0.0</text>
</g>
<!-- SG_0_Node_0&#45;&gt;SG_0_Node_7 -->
<g id="edge1" class="edge">
<title>SG_0_Node_0&#45;&gt;SG_0_Node_7</title>
<path fill="none" stroke="black" d="M426.49,-1009.41C303.89,-1008.43 57.3,-1002.92 31,-974.56 -22.19,-917.2 13.11,-874.71 31,-798.56 31.76,-795.31 32.84,-792.03 34.11,-788.82"/>
<polygon fill="black" stroke="black" points="37.38,-790.08 38.32,-779.52 31,-787.19 37.38,-790.08"/>
<text text-anchor="middle" x="455" y="-958.56" font-family="Times,serif" font-size="20.00">[NA]</text>
<text text-anchor="middle" x="455" y="-936.56" font-family="Times,serif" font-size="20.00">[[&#39;Cross&#45;Origin&#45;Opener&#45;Policy&#39;, &#39;&#39;]]</text>
<text text-anchor="middle" x="455" y="-914.56" font-family="Times,serif" font-size="20.00">[[&#39;Cross&#45;Origin&#45;Opener&#45;Policy&#39;, &#39;*&#39;]]</text>
<text text-anchor="middle" x="455" y="-892.56" font-family="Times,serif" font-size="20.00">[[&#39;Cross&#45;Origin&#45;Opener&#45;Policy&#39;, &#39;null&#39;]]</text>
<text text-anchor="middle" x="455" y="-870.56" font-family="Times,serif" font-size="20.00">[[&#39;Cross&#45;Origin&#45;Opener&#45;Policy&#39;, &#39;same&#45;origin&#45;plus&#45;COEP&#39;]]</text>
<text text-anchor="middle" x="455" y="-848.56" font-family="Times,serif" font-size="20.00">[[&#39;Cross&#45;Origin&#45;Opener&#45;Policy&#39;, &#39;unsafe&#45;none&#39;]]</text>
<text text-anchor="middle" x="455" y="-826.56" font-family="Times,serif" font-size="20.00">[[&#39;Cross&#45;Origin&#45;Opener&#45;Policy&#39;, &#39;unsafe&#45;none, same&#45;origin, same&#45;origin&#45;plus&#45;COEP&#39;]]</text>
<text text-anchor="middle" x="455" y="-804.56" font-family="Times,serif" font-size="20.00">[]</text>
</g>
<!-- SG_0_Node_1 -->
<g id="node3" class="node">
<title>SG_0_Node_1</title>
<polygon fill="none" stroke="black" points="971,-777.35 839,-777.35 839,-741.35 971,-741.35 971,-777.35"/>
<text text-anchor="middle" x="905" y="-754.35" font-family="Times,serif" font-size="20.00">resp_origin</text>
</g>
<!-- SG_0_Node_0&#45;&gt;SG_0_Node_1 -->
<g id="edge2" class="edge">
<title>SG_0_Node_0&#45;&gt;SG_0_Node_1</title>
<path fill="none" stroke="black" d="M563.7,-1008.02C669.07,-1004.98 860.8,-996.48 883,-974.56 908.76,-949.11 908.13,-839.51 906.3,-787.69"/>
<polygon fill="black" stroke="black" points="909.79,-787.42 905.9,-777.56 902.8,-787.69 909.79,-787.42"/>
<text text-anchor="middle" x="1594.5" y="-914.56" font-family="Times,serif" font-size="20.00">[[&#39;Cross&#45;Origin&#45;Opener&#45;Policy&#39;, &#39;same&#45;origin&#39;], [&#39;location&#39;, &#39;https://sub.headers.websec.saarland/_hp/common/empty.html&#39;]]</text>
<text text-anchor="middle" x="1594.5" y="-892.56" font-family="Times,serif" font-size="20.00">[[&#39;Cross&#45;Origin&#45;Opener&#45;Policy&#39;, &#39;same&#45;origin&#39;]]</text>
<text text-anchor="middle" x="1594.5" y="-870.56" font-family="Times,serif" font-size="20.00">[[&#39;Cross&#45;Origin&#45;Opener&#45;Policy&#39;, &#39;same&#45;origin&#45;allow&#45;popups&#39;], [&#39;location&#39;, &#39;https://sub.headers.websec.saarland/_hp/common/empty.html&#39;]]</text>
<text text-anchor="middle" x="1594.5" y="-848.56" font-family="Times,serif" font-size="20.00">[[&#39;Cross&#45;Origin&#45;Opener&#45;Policy&#39;, &#39;same&#45;origin&#45;allow&#45;popups&#39;]]</text>
</g>
<!-- SG_0_Node_2 -->
<g id="node4" class="node">
<title>SG_0_Node_2</title>
<polygon fill="none" stroke="black" points="699.5,-588.92 598.5,-588.92 598.5,-552.92 699.5,-552.92 699.5,-588.92"/>
<text text-anchor="middle" x="649" y="-565.92" font-family="Times,serif" font-size="20.00">browser</text>
</g>
<!-- SG_0_Node_1&#45;&gt;SG_0_Node_2 -->
<g id="edge3" class="edge">
<title>SG_0_Node_1&#45;&gt;SG_0_Node_2</title>
<path fill="none" stroke="black" d="M838.75,-758.04C770.41,-756.14 670.43,-748.43 646,-720.13 617.17,-686.73 628.3,-631.59 638.8,-598.81"/>
<polygon fill="black" stroke="black" points="642.22,-599.61 642.13,-589.01 635.6,-597.35 642.22,-599.61"/>
<text text-anchor="middle" x="848.5" y="-704.13" font-family="Times,serif" font-size="20.00">[NA]</text>
<text text-anchor="middle" x="848.5" y="-682.13" font-family="Times,serif" font-size="20.00">http://headers.webappsec.eu</text>
<text text-anchor="middle" x="848.5" y="-660.13" font-family="Times,serif" font-size="20.00">http://headers.websec.saarland</text>
<text text-anchor="middle" x="848.5" y="-638.13" font-family="Times,serif" font-size="20.00">http://sub.headers.websec.saarland</text>
<text text-anchor="middle" x="848.5" y="-616.13" font-family="Times,serif" font-size="20.00">http://sub.sub.headers.websec.saarland</text>
</g>
<!-- SG_0_Node_3 -->
<g id="node5" class="node">
<title>SG_0_Node_3</title>
<polygon fill="none" stroke="black" points="1127.5,-588.92 1026.5,-588.92 1026.5,-552.92 1127.5,-552.92 1127.5,-588.92"/>
<text text-anchor="middle" x="1077" y="-565.92" font-family="Times,serif" font-size="20.00">browser</text>
</g>
<!-- SG_0_Node_1&#45;&gt;SG_0_Node_3 -->
<g id="edge4" class="edge">
<title>SG_0_Node_1&#45;&gt;SG_0_Node_3</title>
<path fill="none" stroke="black" d="M971.36,-748.81C1005.97,-742.45 1043.47,-732.9 1055,-720.13 1084.76,-687.17 1084.61,-632.27 1081.21,-599.34"/>
<polygon fill="black" stroke="black" points="1084.65,-598.59 1079.97,-589.08 1077.7,-599.43 1084.65,-598.59"/>
<text text-anchor="middle" x="1289.5" y="-693.13" font-family="Times,serif" font-size="20.00">https://headers.webappsec.eu</text>
<text text-anchor="middle" x="1289.5" y="-671.13" font-family="Times,serif" font-size="20.00">https://headers.websec.saarland</text>
<text text-anchor="middle" x="1289.5" y="-649.13" font-family="Times,serif" font-size="20.00">https://sub.headers.websec.saarland</text>
<text text-anchor="middle" x="1289.5" y="-627.13" font-family="Times,serif" font-size="20.00">https://sub.sub.headers.websec.saarland</text>
</g>
<!-- SG_0_Node_8 -->
<g id="node6" class="node">
<title>SG_0_Node_8</title>
<ellipse fill="none" stroke="black" cx="575" cy="-448.49" rx="33.88" ry="21.43"/>
<text text-anchor="middle" x="575" y="-443.49" font-family="Times,serif" font-size="20.00">0.0</text>
</g>
<!-- SG_0_Node_2&#45;&gt;SG_0_Node_8 -->
<g id="edge7" class="edge">
<title>SG_0_Node_2&#45;&gt;SG_0_Node_8</title>
<path fill="none" stroke="black" d="M598.13,-553.64C588.54,-548.2 579.73,-541.05 574,-531.71 564.64,-516.43 564.7,-496.37 567.19,-479.89"/>
<polygon fill="black" stroke="black" points="570.7,-480.14 569.1,-469.67 563.82,-478.85 570.7,-480.14"/>
<text text-anchor="middle" x="619.5" y="-504.71" font-family="Times,serif" font-size="20.00">14 levels</text>
</g>
<!-- SG_0_Node_4 -->
<g id="node7" class="node">
<title>SG_0_Node_4</title>
<polygon fill="none" stroke="black" points="759,-466.49 627,-466.49 627,-430.49 759,-430.49 759,-466.49"/>
<text text-anchor="middle" x="693" y="-443.49" font-family="Times,serif" font-size="20.00">resp_origin</text>
</g>
<!-- SG_0_Node_2&#45;&gt;SG_0_Node_4 -->
<g id="edge8" class="edge">
<title>SG_0_Node_2&#45;&gt;SG_0_Node_4</title>
<path fill="none" stroke="black" d="M658.91,-552.76C662.39,-546.3 666.15,-538.79 669,-531.71 676.25,-513.72 682.34,-492.72 686.57,-476.45"/>
<polygon fill="black" stroke="black" points="690.03,-477.07 689.08,-466.51 683.24,-475.35 690.03,-477.07"/>
<text text-anchor="middle" x="727.5" y="-515.71" font-family="Times,serif" font-size="20.00">[NA]</text>
<text text-anchor="middle" x="727.5" y="-493.71" font-family="Times,serif" font-size="20.00">14 levels</text>
</g>
<!-- SG_0_Node_9 -->
<g id="node8" class="node">
<title>SG_0_Node_9</title>
<ellipse fill="none" stroke="black" cx="944" cy="-448.49" rx="33.88" ry="21.43"/>
<text text-anchor="middle" x="944" y="-443.49" font-family="Times,serif" font-size="20.00">0.0</text>
</g>
<!-- SG_0_Node_3&#45;&gt;SG_0_Node_9 -->
<g id="edge5" class="edge">
<title>SG_0_Node_3&#45;&gt;SG_0_Node_9</title>
<path fill="none" stroke="black" d="M1026.2,-569.2C997.53,-565.85 963.78,-556.39 945,-531.71 933.9,-517.13 933.68,-496.5 936.22,-479.55"/>
<polygon fill="black" stroke="black" points="939.69,-480.04 938.09,-469.56 932.81,-478.75 939.69,-480.04"/>
<text text-anchor="middle" x="1191.5" y="-504.71" font-family="Times,serif" font-size="20.00">brave iPadOS 17.2 1.61 (23.12.18.22) intent real</text>
</g>
<!-- SG_0_Node_10 -->
<g id="node9" class="node">
<title>SG_0_Node_10</title>
<ellipse fill="none" stroke="black" cx="1460" cy="-448.49" rx="33.88" ry="21.43"/>
<text text-anchor="middle" x="1460" y="-443.49" font-family="Times,serif" font-size="20.00">1.0</text>
</g>
<!-- SG_0_Node_3&#45;&gt;SG_0_Node_10 -->
<g id="edge6" class="edge">
<title>SG_0_Node_3&#45;&gt;SG_0_Node_10</title>
<path fill="none" stroke="black" d="M1127.63,-567.71C1221.44,-563.15 1414.89,-551.47 1438,-531.71 1452.76,-519.08 1458.17,-497.74 1459.93,-479.97"/>
<polygon fill="black" stroke="black" points="1463.44,-479.95 1460.6,-469.74 1456.45,-479.49 1463.44,-479.95"/>
<text text-anchor="middle" x="1503.5" y="-515.71" font-family="Times,serif" font-size="20.00">[NA]</text>
<text text-anchor="middle" x="1503.5" y="-493.71" font-family="Times,serif" font-size="20.00">27 levels</text>
</g>
<!-- SG_0_Node_5 -->
<g id="node10" class="node">
<title>SG_0_Node_5</title>
<polygon fill="none" stroke="black" points="454,-300.07 332,-300.07 332,-264.07 454,-264.07 454,-300.07"/>
<text text-anchor="middle" x="393" y="-277.07" font-family="Times,serif" font-size="20.00">org_origin</text>
</g>
<!-- SG_0_Node_4&#45;&gt;SG_0_Node_5 -->
<g id="edge9" class="edge">
<title>SG_0_Node_4&#45;&gt;SG_0_Node_5</title>
<path fill="none" stroke="black" d="M633.86,-430.47C628.53,-429.27 623.18,-428.17 618,-427.28 592.96,-422.95 407.25,-427.94 390,-409.28 365.62,-382.9 373.68,-338.57 382.64,-310.09"/>
<polygon fill="black" stroke="black" points="386.04,-310.97 385.93,-300.37 379.41,-308.73 386.04,-310.97"/>
<text text-anchor="middle" x="571.5" y="-360.28" font-family="Times,serif" font-size="20.00">http://sub.headers.websec.saarland</text>
</g>
<!-- SG_0_Node_11 -->
<g id="node11" class="node">
<title>SG_0_Node_11</title>
<ellipse fill="none" stroke="black" cx="779" cy="-282.07" rx="33.88" ry="21.43"/>
<text text-anchor="middle" x="779" y="-277.07" font-family="Times,serif" font-size="20.00">1.0</text>
</g>
<!-- SG_0_Node_4&#45;&gt;SG_0_Node_11 -->
<g id="edge10" class="edge">
<title>SG_0_Node_4&#45;&gt;SG_0_Node_11</title>
<path fill="none" stroke="black" d="M733.5,-430.44C742.47,-424.91 751.06,-417.92 757,-409.28 776.47,-380.97 780.46,-340.86 780.55,-313.51"/>
<polygon fill="black" stroke="black" points="784.05,-313.3 780.41,-303.35 777.05,-313.39 784.05,-313.3"/>
<text text-anchor="middle" x="982.5" y="-393.28" font-family="Times,serif" font-size="20.00">[NA]</text>
<text text-anchor="middle" x="982.5" y="-371.28" font-family="Times,serif" font-size="20.00">http://headers.webappsec.eu</text>
<text text-anchor="middle" x="982.5" y="-349.28" font-family="Times,serif" font-size="20.00">http://headers.websec.saarland</text>
<text text-anchor="middle" x="982.5" y="-327.28" font-family="Times,serif" font-size="20.00">http://sub.sub.headers.websec.saarland</text>
</g>
<!-- SG_0_Node_12 -->
<g id="node12" class="node">
<title>SG_0_Node_12</title>
<ellipse fill="none" stroke="black" cx="61" cy="-159.64" rx="33.88" ry="21.43"/>
<text text-anchor="middle" x="61" y="-154.64" font-family="Times,serif" font-size="20.00">0.0</text>
</g>
<!-- SG_0_Node_5&#45;&gt;SG_0_Node_12 -->
<g id="edge11" class="edge">
<title>SG_0_Node_5&#45;&gt;SG_0_Node_12</title>
<path fill="none" stroke="black" d="M331.92,-278.43C240.25,-273.83 75.88,-262.89 58,-242.85 45.52,-228.87 46.62,-207.61 50.66,-190.22"/>
<polygon fill="black" stroke="black" points="54.06,-191.08 53.3,-180.51 47.3,-189.24 54.06,-191.08"/>
<text text-anchor="middle" x="239.5" y="-226.85" font-family="Times,serif" font-size="20.00">[NA]</text>
<text text-anchor="middle" x="239.5" y="-204.85" font-family="Times,serif" font-size="20.00">http://sub.headers.websec.saarland</text>
</g>
<!-- SG_0_Node_6 -->
<g id="node13" class="node">
<title>SG_0_Node_6</title>
<polygon fill="none" stroke="black" points="497.5,-177.64 396.5,-177.64 396.5,-141.64 497.5,-141.64 497.5,-177.64"/>
<text text-anchor="middle" x="447" y="-154.64" font-family="Times,serif" font-size="20.00">browser</text>
</g>
<!-- SG_0_Node_5&#45;&gt;SG_0_Node_6 -->
<g id="edge12" class="edge">
<title>SG_0_Node_5&#45;&gt;SG_0_Node_6</title>
<path fill="none" stroke="black" d="M410.05,-263.96C415.48,-257.74 421.09,-250.38 425,-242.85 433.94,-225.65 439.5,-204.47 442.79,-187.92"/>
<polygon fill="black" stroke="black" points="446.28,-188.27 444.64,-177.8 439.4,-187.01 446.28,-188.27"/>
<text text-anchor="middle" x="626.5" y="-215.85" font-family="Times,serif" font-size="20.00">https://sub.headers.websec.saarland</text>
</g>
<!-- SG_0_Node_13 -->
<g id="node14" class="node">
<title>SG_0_Node_13</title>
<ellipse fill="none" stroke="black" cx="248" cy="-37.21" rx="33.88" ry="21.43"/>
<text text-anchor="middle" x="248" y="-32.21" font-family="Times,serif" font-size="20.00">0.0</text>
</g>
<!-- SG_0_Node_6&#45;&gt;SG_0_Node_13 -->
<g id="edge13" class="edge">
<title>SG_0_Node_6&#45;&gt;SG_0_Node_13</title>
<path fill="none" stroke="black" d="M396.27,-155.95C343.96,-152 267.47,-142.52 249,-120.43 237.17,-106.28 237.03,-85.47 239.79,-68.33"/>
<polygon fill="black" stroke="black" points="243.28,-68.72 241.8,-58.23 236.41,-67.35 243.28,-68.72"/>
<text text-anchor="middle" x="441.5" y="-93.43" font-family="Times,serif" font-size="20.00">brave Android 11 1.60.116 intent real</text>
</g>
<!-- SG_0_Node_14 -->
<g id="node15" class="node">
<title>SG_0_Node_14</title>
<ellipse fill="none" stroke="black" cx="656" cy="-37.21" rx="33.88" ry="21.43"/>
<text text-anchor="middle" x="656" y="-32.21" font-family="Times,serif" font-size="20.00">1.0</text>
</g>
<!-- SG_0_Node_6&#45;&gt;SG_0_Node_14 -->
<g id="edge14" class="edge">
<title>SG_0_Node_6&#45;&gt;SG_0_Node_14</title>
<path fill="none" stroke="black" d="M497.57,-154.27C546.05,-149.05 614.64,-138.66 634,-120.43 647.98,-107.26 653.44,-86.26 655.42,-68.78"/>
<polygon fill="black" stroke="black" points="658.94,-68.7 656.25,-58.45 651.96,-68.14 658.94,-68.7"/>
<text text-anchor="middle" x="699.5" y="-104.43" font-family="Times,serif" font-size="20.00">[NA]</text>
<text text-anchor="middle" x="699.5" y="-82.43" font-family="Times,serif" font-size="20.00">13 levels</text>
</g>
<!-- SG_1_Node_0 -->
<g id="node16" class="node">
<title>SG_1_Node_0</title>
<polygon fill="none" stroke="black" points="2453.5,-1028.56 2352.5,-1028.56 2352.5,-992.56 2453.5,-992.56 2453.5,-1028.56"/>
<text text-anchor="middle" x="2403" y="-1005.56" font-family="Times,serif" font-size="20.00">browser</text>
</g>
<!-- SG_1_Node_1 -->
<g id="node17" class="node">
<title>SG_1_Node_1</title>
<ellipse fill="none" stroke="black" cx="2370" cy="-759.35" rx="33.88" ry="21.43"/>
<text text-anchor="middle" x="2370" y="-754.35" font-family="Times,serif" font-size="20.00">0.0</text>
</g>
<!-- SG_1_Node_0&#45;&gt;SG_1_Node_1 -->
<g id="edge15" class="edge">
<title>SG_1_Node_0&#45;&gt;SG_1_Node_1</title>
<path fill="none" stroke="black" d="M2382.82,-992.48C2378.04,-987.27 2373.58,-981.15 2371,-974.56 2346.85,-912.77 2355.87,-833.08 2363.56,-790.44"/>
<polygon fill="black" stroke="black" points="2367.03,-790.91 2365.46,-780.43 2360.16,-789.6 2367.03,-790.91"/>
<text text-anchor="middle" x="2416.5" y="-892.56" font-family="Times,serif" font-size="20.00">[NA]</text>
<text text-anchor="middle" x="2416.5" y="-870.56" font-family="Times,serif" font-size="20.00">27 levels</text>
</g>
<!-- SG_1_Node_2 -->
<g id="node18" class="node">
<title>SG_1_Node_2</title>
<ellipse fill="none" stroke="black" cx="2484" cy="-759.35" rx="33.88" ry="21.43"/>
<text text-anchor="middle" x="2484" y="-754.35" font-family="Times,serif" font-size="20.00">1.0</text>
</g>
<!-- SG_1_Node_0&#45;&gt;SG_1_Node_2 -->
<g id="edge16" class="edge">
<title>SG_1_Node_0&#45;&gt;SG_1_Node_2</title>
<path fill="none" stroke="black" d="M2443.47,-992.5C2450.69,-987.71 2457.38,-981.78 2462,-974.56 2498.28,-917.82 2494.39,-834.86 2488.91,-790.68"/>
<polygon fill="black" stroke="black" points="2492.35,-790.01 2487.54,-780.57 2485.41,-790.95 2492.35,-790.01"/>
<text text-anchor="middle" x="2738.5" y="-881.56" font-family="Times,serif" font-size="20.00">brave iPadOS 17.2 1.61 (23.12.18.22) intent real</text>
</g>
<!-- SG_2_Node_0 -->
<g id="node19" class="node">
<title>SG_2_Node_0</title>
<polygon fill="none" stroke="black" points="5204.5,-1028.56 5067.5,-1028.56 5067.5,-992.56 5204.5,-992.56 5204.5,-1028.56"/>
<text text-anchor="middle" x="5136" y="-1005.56" font-family="Times,serif" font-size="20.00">raw_header</text>
</g>
<!-- SG_2_Node_1 -->
<g id="node20" class="node">
<title>SG_2_Node_1</title>
<polygon fill="none" stroke="black" points="4526,-777.35 4394,-777.35 4394,-741.35 4526,-741.35 4526,-777.35"/>
<text text-anchor="middle" x="4460" y="-754.35" font-family="Times,serif" font-size="20.00">resp_origin</text>
</g>
<!-- SG_2_Node_0&#45;&gt;SG_2_Node_1 -->
<g id="edge17" class="edge">
<title>SG_2_Node_0&#45;&gt;SG_2_Node_1</title>
<path fill="none" stroke="black" d="M5067.49,-1008.79C4890.74,-1006.46 4431.5,-998.17 4409,-974.56 4382.02,-946.25 4391.5,-833.54 4409,-798.56 4411.7,-793.17 4415.55,-788.35 4419.95,-784.09"/>
<polygon fill="black" stroke="black" points="4422.4,-786.6 4427.77,-777.46 4417.88,-781.26 4422.4,-786.6"/>
<text text-anchor="middle" x="5096.5" y="-914.56" font-family="Times,serif" font-size="20.00">[[&#39;Cross&#45;Origin&#45;Opener&#45;Policy&#39;, &#39;same&#45;origin&#39;], [&#39;location&#39;, &#39;https://sub.headers.websec.saarland/_hp/common/empty.html&#39;]]</text>
<text text-anchor="middle" x="5096.5" y="-892.56" font-family="Times,serif" font-size="20.00">[[&#39;Cross&#45;Origin&#45;Opener&#45;Policy&#39;, &#39;same&#45;origin&#39;]]</text>
<text text-anchor="middle" x="5096.5" y="-870.56" font-family="Times,serif" font-size="20.00">[[&#39;Cross&#45;Origin&#45;Opener&#45;Policy&#39;, &#39;same&#45;origin&#45;allow&#45;popups&#39;], [&#39;location&#39;, &#39;https://sub.headers.websec.saarland/_hp/common/empty.html&#39;]]</text>
<text text-anchor="middle" x="5096.5" y="-848.56" font-family="Times,serif" font-size="20.00">[[&#39;Cross&#45;Origin&#45;Opener&#45;Policy&#39;, &#39;same&#45;origin&#45;allow&#45;popups&#39;]]</text>
</g>
<!-- SG_2_Node_2 -->
<g id="node21" class="node">
<title>SG_2_Node_2</title>
<polygon fill="none" stroke="black" points="5860.5,-777.35 5759.5,-777.35 5759.5,-741.35 5860.5,-741.35 5860.5,-777.35"/>
<text text-anchor="middle" x="5810" y="-754.35" font-family="Times,serif" font-size="20.00">browser</text>
</g>
<!-- SG_2_Node_0&#45;&gt;SG_2_Node_2 -->
<g id="edge18" class="edge">
<title>SG_2_Node_0&#45;&gt;SG_2_Node_2</title>
<path fill="none" stroke="black" d="M5204.68,-1008.25C5367.93,-1004.82 5767.13,-994.43 5788,-974.56 5838.98,-926 5826.86,-832.95 5816.89,-787.16"/>
<polygon fill="black" stroke="black" points="5820.29,-786.32 5814.63,-777.36 5813.47,-787.89 5820.29,-786.32"/>
<text text-anchor="middle" x="6249" y="-958.56" font-family="Times,serif" font-size="20.00">[NA]</text>
<text text-anchor="middle" x="6249" y="-936.56" font-family="Times,serif" font-size="20.00">[[&#39;Cross&#45;Origin&#45;Opener&#45;Policy&#39;, &#39;&#39;]]</text>
<text text-anchor="middle" x="6249" y="-914.56" font-family="Times,serif" font-size="20.00">[[&#39;Cross&#45;Origin&#45;Opener&#45;Policy&#39;, &#39;*&#39;]]</text>
<text text-anchor="middle" x="6249" y="-892.56" font-family="Times,serif" font-size="20.00">[[&#39;Cross&#45;Origin&#45;Opener&#45;Policy&#39;, &#39;null&#39;]]</text>
<text text-anchor="middle" x="6249" y="-870.56" font-family="Times,serif" font-size="20.00">[[&#39;Cross&#45;Origin&#45;Opener&#45;Policy&#39;, &#39;same&#45;origin&#45;plus&#45;COEP&#39;]]</text>
<text text-anchor="middle" x="6249" y="-848.56" font-family="Times,serif" font-size="20.00">[[&#39;Cross&#45;Origin&#45;Opener&#45;Policy&#39;, &#39;unsafe&#45;none&#39;]]</text>
<text text-anchor="middle" x="6249" y="-826.56" font-family="Times,serif" font-size="20.00">[[&#39;Cross&#45;Origin&#45;Opener&#45;Policy&#39;, &#39;unsafe&#45;none, same&#45;origin, same&#45;origin&#45;plus&#45;COEP&#39;]]</text>
<text text-anchor="middle" x="6249" y="-804.56" font-family="Times,serif" font-size="20.00">[]</text>
</g>
<!-- SG_2_Node_8 -->
<g id="node22" class="node">
<title>SG_2_Node_8</title>
<ellipse fill="none" stroke="black" cx="4444" cy="-570.92" rx="33.88" ry="21.43"/>
<text text-anchor="middle" x="4444" y="-565.92" font-family="Times,serif" font-size="20.00">0.0</text>
</g>
<!-- SG_2_Node_1&#45;&gt;SG_2_Node_8 -->
<g id="edge21" class="edge">
<title>SG_2_Node_1&#45;&gt;SG_2_Node_8</title>
<path fill="none" stroke="black" d="M4451.74,-741.25C4449.04,-734.79 4446.38,-727.27 4445,-720.13 4437.28,-680.08 4438.74,-632.79 4440.97,-602.59"/>
<polygon fill="black" stroke="black" points="4444.48,-602.54 4441.81,-592.29 4437.51,-601.97 4444.48,-602.54"/>
<text text-anchor="middle" x="4652.5" y="-693.13" font-family="Times,serif" font-size="20.00">https://headers.webappsec.eu</text>
<text text-anchor="middle" x="4652.5" y="-671.13" font-family="Times,serif" font-size="20.00">https://headers.websec.saarland</text>
<text text-anchor="middle" x="4652.5" y="-649.13" font-family="Times,serif" font-size="20.00">https://sub.headers.websec.saarland</text>
<text text-anchor="middle" x="4652.5" y="-627.13" font-family="Times,serif" font-size="20.00">https://sub.sub.headers.websec.saarland</text>
</g>
<!-- SG_2_Node_3 -->
<g id="node23" class="node">
<title>SG_2_Node_3</title>
<polygon fill="none" stroke="black" points="4932.5,-588.92 4831.5,-588.92 4831.5,-552.92 4932.5,-552.92 4932.5,-588.92"/>
<text text-anchor="middle" x="4882" y="-565.92" font-family="Times,serif" font-size="20.00">browser</text>
</g>
<!-- SG_2_Node_1&#45;&gt;SG_2_Node_3 -->
<g id="edge22" class="edge">
<title>SG_2_Node_1&#45;&gt;SG_2_Node_3</title>
<path fill="none" stroke="black" d="M4526.36,-756.41C4633.82,-752.63 4836.35,-742.58 4860,-720.13 4892.52,-689.27 4891.22,-632.78 4886.9,-599.17"/>
<polygon fill="black" stroke="black" points="4890.34,-598.5 4885.43,-589.12 4883.42,-599.52 4890.34,-598.5"/>
<text text-anchor="middle" x="5091.5" y="-704.13" font-family="Times,serif" font-size="20.00">[NA]</text>
<text text-anchor="middle" x="5091.5" y="-682.13" font-family="Times,serif" font-size="20.00">http://headers.webappsec.eu</text>
<text text-anchor="middle" x="5091.5" y="-660.13" font-family="Times,serif" font-size="20.00">http://headers.websec.saarland</text>
<text text-anchor="middle" x="5091.5" y="-638.13" font-family="Times,serif" font-size="20.00">http://sub.headers.websec.saarland</text>
<text text-anchor="middle" x="5091.5" y="-616.13" font-family="Times,serif" font-size="20.00">http://sub.sub.headers.websec.saarland</text>
</g>
<!-- SG_2_Node_9 -->
<g id="node24" class="node">
<title>SG_2_Node_9</title>
<ellipse fill="none" stroke="black" cx="5560" cy="-570.92" rx="33.88" ry="21.43"/>
<text text-anchor="middle" x="5560" y="-565.92" font-family="Times,serif" font-size="20.00">0.0</text>
</g>
<!-- SG_2_Node_2&#45;&gt;SG_2_Node_9 -->
<g id="edge19" class="edge">
<title>SG_2_Node_2&#45;&gt;SG_2_Node_9</title>
<path fill="none" stroke="black" d="M5759.34,-758.01C5694.11,-756.37 5586.13,-749.21 5561,-720.13 5532.99,-687.72 5540.99,-634.78 5550.01,-601.72"/>
<polygon fill="black" stroke="black" points="5553.48,-602.32 5552.93,-591.74 5546.76,-600.35 5553.48,-602.32"/>
<text text-anchor="middle" x="5807.5" y="-660.13" font-family="Times,serif" font-size="20.00">brave iPadOS 17.2 1.61 (23.12.18.22) intent real</text>
</g>
<!-- SG_2_Node_10 -->
<g id="node25" class="node">
<title>SG_2_Node_10</title>
<ellipse fill="none" stroke="black" cx="6076" cy="-570.92" rx="33.88" ry="21.43"/>
<text text-anchor="middle" x="6076" y="-565.92" font-family="Times,serif" font-size="20.00">1.0</text>
</g>
<!-- SG_2_Node_2&#45;&gt;SG_2_Node_10 -->
<g id="edge20" class="edge">
<title>SG_2_Node_2&#45;&gt;SG_2_Node_10</title>
<path fill="none" stroke="black" d="M5860.71,-757.26C5924.15,-754.77 6027.69,-746.65 6054,-720.13 6084.5,-689.39 6084.63,-635.95 6081,-602.33"/>
<polygon fill="black" stroke="black" points="6084.44,-601.66 6079.72,-592.17 6077.5,-602.53 6084.44,-601.66"/>
<text text-anchor="middle" x="6127.5" y="-671.13" font-family="Times,serif" font-size="20.00">[NA]</text>
<text text-anchor="middle" x="6127.5" y="-649.13" font-family="Times,serif" font-size="20.00">27 levels</text>
</g>
<!-- SG_2_Node_4 -->
<g id="node26" class="node">
<title>SG_2_Node_4</title>
<polygon fill="none" stroke="black" points="4889,-466.49 4757,-466.49 4757,-430.49 4889,-430.49 4889,-466.49"/>
<text text-anchor="middle" x="4823" y="-443.49" font-family="Times,serif" font-size="20.00">resp_origin</text>
</g>
<!-- SG_2_Node_3&#45;&gt;SG_2_Node_4 -->
<g id="edge23" class="edge">
<title>SG_2_Node_3&#45;&gt;SG_2_Node_4</title>
<path fill="none" stroke="black" d="M4846.31,-552.87C4838.27,-547.28 4830.72,-540.26 4826,-531.71 4816.89,-515.19 4816.38,-493.83 4818.02,-477.03"/>
<polygon fill="black" stroke="black" points="4821.54,-477.1 4819.34,-466.74 4814.6,-476.21 4821.54,-477.1"/>
<text text-anchor="middle" x="4871.5" y="-515.71" font-family="Times,serif" font-size="20.00">[NA]</text>
<text text-anchor="middle" x="4871.5" y="-493.71" font-family="Times,serif" font-size="20.00">15 levels</text>
</g>
<!-- SG_2_Node_11 -->
<g id="node27" class="node">
<title>SG_2_Node_11</title>
<ellipse fill="none" stroke="black" cx="4941" cy="-448.49" rx="33.88" ry="21.43"/>
<text text-anchor="middle" x="4941" y="-443.49" font-family="Times,serif" font-size="20.00">1.0</text>
</g>
<!-- SG_2_Node_3&#45;&gt;SG_2_Node_11 -->
<g id="edge24" class="edge">
<title>SG_2_Node_3&#45;&gt;SG_2_Node_11</title>
<path fill="none" stroke="black" d="M4900.96,-552.62C4906.78,-546.49 4912.76,-539.23 4917,-531.71 4926.04,-515.66 4931.95,-495.89 4935.64,-479.76"/>
<polygon fill="black" stroke="black" points="4939.11,-480.27 4937.76,-469.76 4932.26,-478.82 4939.11,-480.27"/>
<text text-anchor="middle" x="4978.5" y="-504.71" font-family="Times,serif" font-size="20.00">13 levels</text>
</g>
<!-- SG_2_Node_12 -->
<g id="node28" class="node">
<title>SG_2_Node_12</title>
<ellipse fill="none" stroke="black" cx="4475" cy="-282.07" rx="33.88" ry="21.43"/>
<text text-anchor="middle" x="4475" y="-277.07" font-family="Times,serif" font-size="20.00">0.0</text>
</g>
<!-- SG_2_Node_4&#45;&gt;SG_2_Node_12 -->
<g id="edge25" class="edge">
<title>SG_2_Node_4&#45;&gt;SG_2_Node_12</title>
<path fill="none" stroke="black" d="M4756.64,-444.96C4660.17,-440.6 4490.62,-430.04 4472,-409.28 4448.8,-383.41 4455.48,-341.18 4463.94,-312.77"/>
<polygon fill="black" stroke="black" points="4467.35,-313.58 4467.08,-302.99 4460.69,-311.44 4467.35,-313.58"/>
<text text-anchor="middle" x="4674.5" y="-393.28" font-family="Times,serif" font-size="20.00">[NA]</text>
<text text-anchor="middle" x="4674.5" y="-371.28" font-family="Times,serif" font-size="20.00">http://headers.webappsec.eu</text>
<text text-anchor="middle" x="4674.5" y="-349.28" font-family="Times,serif" font-size="20.00">http://headers.websec.saarland</text>
<text text-anchor="middle" x="4674.5" y="-327.28" font-family="Times,serif" font-size="20.00">http://sub.sub.headers.websec.saarland</text>
</g>
<!-- SG_2_Node_5 -->
<g id="node29" class="node">
<title>SG_2_Node_5</title>
<polygon fill="none" stroke="black" points="4964,-300.07 4842,-300.07 4842,-264.07 4964,-264.07 4964,-300.07"/>
<text text-anchor="middle" x="4903" y="-277.07" font-family="Times,serif" font-size="20.00">org_origin</text>
</g>
<!-- SG_2_Node_4&#45;&gt;SG_2_Node_5 -->
<g id="edge26" class="edge">
<title>SG_2_Node_4&#45;&gt;SG_2_Node_5</title>
<path fill="none" stroke="black" d="M4858.84,-430.39C4867.29,-424.78 4875.45,-417.75 4881,-409.28 4900.51,-379.53 4904.23,-337.68 4904.27,-310.47"/>
<polygon fill="black" stroke="black" points="4907.77,-310.07 4904.11,-300.12 4900.77,-310.17 4907.77,-310.07"/>
<text text-anchor="middle" x="5085.5" y="-360.28" font-family="Times,serif" font-size="20.00">http://sub.headers.websec.saarland</text>
</g>
<!-- SG_2_Node_6 -->
<g id="node30" class="node">
<title>SG_2_Node_6</title>
<polygon fill="none" stroke="black" points="4772.5,-177.64 4671.5,-177.64 4671.5,-141.64 4772.5,-141.64 4772.5,-177.64"/>
<text text-anchor="middle" x="4722" y="-154.64" font-family="Times,serif" font-size="20.00">browser</text>
</g>
<!-- SG_2_Node_5&#45;&gt;SG_2_Node_6 -->
<g id="edge27" class="edge">
<title>SG_2_Node_5&#45;&gt;SG_2_Node_6</title>
<path fill="none" stroke="black" d="M4841.57,-275.25C4797.64,-269.73 4743.78,-259.71 4729,-242.85 4716.04,-228.07 4714.96,-205.49 4716.76,-187.74"/>
<polygon fill="black" stroke="black" points="4720.24,-188.06 4718.12,-177.68 4713.31,-187.12 4720.24,-188.06"/>
<text text-anchor="middle" x="4915.5" y="-215.85" font-family="Times,serif" font-size="20.00">https://sub.headers.websec.saarland</text>
</g>
<!-- SG_2_Node_7 -->
<g id="node31" class="node">
<title>SG_2_Node_7</title>
<polygon fill="none" stroke="black" points="5180.5,-177.64 5079.5,-177.64 5079.5,-141.64 5180.5,-141.64 5180.5,-177.64"/>
<text text-anchor="middle" x="5130" y="-154.64" font-family="Times,serif" font-size="20.00">browser</text>
</g>
<!-- SG_2_Node_5&#45;&gt;SG_2_Node_7 -->
<g id="edge28" class="edge">
<title>SG_2_Node_5&#45;&gt;SG_2_Node_7</title>
<path fill="none" stroke="black" d="M4964.36,-276.01C5015.02,-270.65 5081.76,-260.46 5102,-242.85 5117.78,-229.12 5124.68,-206.12 5127.69,-187.93"/>
<polygon fill="black" stroke="black" points="5131.18,-188.27 5129.05,-177.89 5124.24,-187.33 5131.18,-188.27"/>
<text text-anchor="middle" x="5306.5" y="-226.85" font-family="Times,serif" font-size="20.00">[NA]</text>
<text text-anchor="middle" x="5306.5" y="-204.85" font-family="Times,serif" font-size="20.00">http://sub.headers.websec.saarland</text>
</g>
<!-- SG_2_Node_13 -->
<g id="node32" class="node">
<title>SG_2_Node_13</title>
<ellipse fill="none" stroke="black" cx="4608" cy="-37.21" rx="33.88" ry="21.43"/>
<text text-anchor="middle" x="4608" y="-32.21" font-family="Times,serif" font-size="20.00">0.0</text>
</g>
<!-- SG_2_Node_6&#45;&gt;SG_2_Node_13 -->
<g id="edge31" class="edge">
<title>SG_2_Node_6&#45;&gt;SG_2_Node_13</title>
<path fill="none" stroke="black" d="M4671.05,-148.07C4654.9,-142.37 4638.33,-133.66 4627,-120.43 4614.78,-106.14 4610.03,-85.51 4608.34,-68.49"/>
<polygon fill="black" stroke="black" points="4611.83,-68.18 4607.65,-58.45 4604.85,-68.67 4611.83,-68.18"/>
<text text-anchor="middle" x="4672.5" y="-104.43" font-family="Times,serif" font-size="20.00">[NA]</text>
<text text-anchor="middle" x="4672.5" y="-82.43" font-family="Times,serif" font-size="20.00">14 levels</text>
</g>
<!-- SG_2_Node_14 -->
<g id="node33" class="node">
<title>SG_2_Node_14</title>
<ellipse fill="none" stroke="black" cx="4722" cy="-37.21" rx="33.88" ry="21.43"/>
<text text-anchor="middle" x="4722" y="-32.21" font-family="Times,serif" font-size="20.00">1.0</text>
</g>
<!-- SG_2_Node_6&#45;&gt;SG_2_Node_14 -->
<g id="edge32" class="edge">
<title>SG_2_Node_6&#45;&gt;SG_2_Node_14</title>
<path fill="none" stroke="black" d="M4722,-141.39C4722,-122.52 4722,-91.92 4722,-68.93"/>
<polygon fill="black" stroke="black" points="4725.5,-68.66 4722,-58.66 4718.5,-68.66 4725.5,-68.66"/>
<text text-anchor="middle" x="4914.5" y="-93.43" font-family="Times,serif" font-size="20.00">brave Android 11 1.60.116 intent real</text>
</g>
<!-- SG_2_Node_15 -->
<g id="node34" class="node">
<title>SG_2_Node_15</title>
<ellipse fill="none" stroke="black" cx="5130" cy="-37.21" rx="33.88" ry="21.43"/>
<text text-anchor="middle" x="5130" y="-32.21" font-family="Times,serif" font-size="20.00">0.0</text>
</g>
<!-- SG_2_Node_7&#45;&gt;SG_2_Node_15 -->
<g id="edge29" class="edge">
<title>SG_2_Node_7&#45;&gt;SG_2_Node_15</title>
<path fill="none" stroke="black" d="M5130,-141.39C5130,-122.52 5130,-91.92 5130,-68.93"/>
<polygon fill="black" stroke="black" points="5133.5,-68.66 5130,-58.66 5126.5,-68.66 5133.5,-68.66"/>
<text text-anchor="middle" x="5376.5" y="-93.43" font-family="Times,serif" font-size="20.00">brave iPadOS 17.2 1.61 (23.12.18.22) intent real</text>
</g>
<!-- SG_2_Node_16 -->
<g id="node35" class="node">
<title>SG_2_Node_16</title>
<ellipse fill="none" stroke="black" cx="5646" cy="-37.21" rx="33.88" ry="21.43"/>
<text text-anchor="middle" x="5646" y="-32.21" font-family="Times,serif" font-size="20.00">1.0</text>
</g>
<!-- SG_2_Node_7&#45;&gt;SG_2_Node_16 -->
<g id="edge30" class="edge">
<title>SG_2_Node_7&#45;&gt;SG_2_Node_16</title>
<path fill="none" stroke="black" d="M5180.88,-157.98C5300.19,-155.99 5590.46,-148.29 5624,-120.43 5639.01,-107.96 5644.39,-86.47 5646.08,-68.59"/>
<polygon fill="black" stroke="black" points="5649.57,-68.77 5646.69,-58.57 5642.59,-68.34 5649.57,-68.77"/>
<text text-anchor="middle" x="5690.5" y="-104.43" font-family="Times,serif" font-size="20.00">[NA]</text>
<text text-anchor="middle" x="5690.5" y="-82.43" font-family="Times,serif" font-size="20.00">14 levels</text>
</g>
</g>
</svg>
