<?xml version="1.0" encoding="UTF-8" standalone="no"?>
<!DOCTYPE svg PUBLIC "-//W3C//DTD SVG 1.1//EN"
 "http://www.w3.org/Graphics/SVG/1.1/DTD/svg11.dtd">
<!-- Generated by graphviz version 2.43.0 (0)
 -->
<!-- Title: G Pages: 1 -->
<svg width="1271pt" height="316pt"
 viewBox="0.00 0.00 1271.00 316.43" xmlns="http://www.w3.org/2000/svg" xmlns:xlink="http://www.w3.org/1999/xlink">
<g id="graph0" class="graph" transform="scale(1 1) rotate(0) translate(4 312.43)">
<title>G</title>
<polygon fill="white" stroke="transparent" points="-4,4 -4,-312.43 1267,-312.43 1267,4 -4,4"/>
<g id="clust1" class="cluster">
<title>cluster_0</title>
<polygon fill="none" stroke="black" points="8,-8 8,-300.43 607,-300.43 607,-8 8,-8"/>
<text text-anchor="middle" x="307.5" y="-264.43" font-family="Times,serif" font-size="40.00">Tree 0, Class message send</text>
</g>
<g id="clust4" class="cluster">
<title>cluster_1</title>
<polygon fill="none" stroke="black" points="615,-8 615,-300.43 1255,-300.43 1255,-8 615,-8"/>
<text text-anchor="middle" x="935" y="-264.43" font-family="Times,serif" font-size="40.00">Tree 0, Class message timeout</text>
</g>
<!-- SG_0_Node_0 -->
<g id="node1" class="node">
<title>SG_0_Node_0</title>
<polygon fill="none" stroke="black" points="157.5,-240.43 56.5,-240.43 56.5,-204.43 157.5,-204.43 157.5,-240.43"/>
<text text-anchor="middle" x="107" y="-217.43" font-family="Times,serif" font-size="20.00">browser</text>
</g>
<!-- SG_0_Node_1 -->
<g id="node2" class="node">
<title>SG_0_Node_1</title>
<ellipse fill="none" stroke="black" cx="50" cy="-37.21" rx="33.88" ry="21.43"/>
<text text-anchor="middle" x="50" y="-32.21" font-family="Times,serif" font-size="20.00">0.0</text>
</g>
<!-- SG_0_Node_0&#45;&gt;SG_0_Node_1 -->
<g id="edge1" class="edge">
<title>SG_0_Node_0&#45;&gt;SG_0_Node_1</title>
<path fill="none" stroke="black" d="M56.34,-207.84C46.31,-202.77 37.03,-195.85 31,-186.43 4.63,-145.26 19.82,-124.02 31,-76.43 31.76,-73.18 32.84,-69.9 34.11,-66.68"/>
<polygon fill="black" stroke="black" points="37.38,-67.94 38.32,-57.39 31,-65.06 37.38,-67.94"/>
<text text-anchor="middle" x="76.5" y="-137.43" font-family="Times,serif" font-size="20.00">[NA]</text>
<text text-anchor="middle" x="76.5" y="-115.43" font-family="Times,serif" font-size="20.00">23 levels</text>
</g>
<!-- SG_0_Node_2 -->
<g id="node3" class="node">
<title>SG_0_Node_2</title>
<ellipse fill="none" stroke="black" cx="148" cy="-37.21" rx="33.88" ry="21.43"/>
<text text-anchor="middle" x="148" y="-32.21" font-family="Times,serif" font-size="20.00">1.0</text>
</g>
<!-- SG_0_Node_0&#45;&gt;SG_0_Node_2 -->
<g id="edge2" class="edge">
<title>SG_0_Node_0&#45;&gt;SG_0_Node_2</title>
<path fill="none" stroke="black" d="M117.92,-204.17C120.96,-198.68 123.98,-192.46 126,-186.43 139.12,-147.14 144.43,-99.39 146.57,-68.9"/>
<polygon fill="black" stroke="black" points="150.07,-69.08 147.2,-58.87 143.08,-68.63 150.07,-69.08"/>
<text text-anchor="middle" x="370.5" y="-170.43" font-family="Times,serif" font-size="20.00">firefox Ubuntu 22.04 119 selenium headless</text>
<text text-anchor="middle" x="370.5" y="-148.43" font-family="Times,serif" font-size="20.00">firefox Ubuntu 22.04 119 selenium xvfb</text>
<text text-anchor="middle" x="370.5" y="-126.43" font-family="Times,serif" font-size="20.00">firefox macOS 14.2.1 120 selenium headless</text>
<text text-anchor="middle" x="370.5" y="-104.43" font-family="Times,serif" font-size="20.00">firefox macOS 14.2.1 120 selenium real</text>
<text text-anchor="middle" x="370.5" y="-82.43" font-family="Times,serif" font-size="20.00">firefox_beta Android 11 122.0b1 intent real</text>
</g>
<!-- SG_1_Node_0 -->
<g id="node4" class="node">
<title>SG_1_Node_0</title>
<polygon fill="none" stroke="black" points="952.5,-240.43 851.5,-240.43 851.5,-204.43 952.5,-204.43 952.5,-240.43"/>
<text text-anchor="middle" x="902" y="-217.43" font-family="Times,serif" font-size="20.00">browser</text>
</g>
<!-- SG_1_Node_1 -->
<g id="node5" class="node">
<title>SG_1_Node_1</title>
<ellipse fill="none" stroke="black" cx="669" cy="-37.21" rx="33.88" ry="21.43"/>
<text text-anchor="middle" x="669" y="-32.21" font-family="Times,serif" font-size="20.00">0.0</text>
</g>
<!-- SG_1_Node_0&#45;&gt;SG_1_Node_1 -->
<g id="edge3" class="edge">
<title>SG_1_Node_0&#45;&gt;SG_1_Node_1</title>
<path fill="none" stroke="black" d="M851.4,-221.16C790.35,-219.64 693,-212.98 670,-186.43 641.95,-154.05 649.96,-101.1 658.99,-68.03"/>
<polygon fill="black" stroke="black" points="662.46,-68.62 661.92,-58.04 655.75,-66.66 662.46,-68.62"/>
<text text-anchor="middle" x="895.5" y="-170.43" font-family="Times,serif" font-size="20.00">firefox Ubuntu 22.04 119 selenium headless</text>
<text text-anchor="middle" x="895.5" y="-148.43" font-family="Times,serif" font-size="20.00">firefox Ubuntu 22.04 119 selenium xvfb</text>
<text text-anchor="middle" x="895.5" y="-126.43" font-family="Times,serif" font-size="20.00">firefox macOS 14.2.1 120 selenium headless</text>
<text text-anchor="middle" x="895.5" y="-104.43" font-family="Times,serif" font-size="20.00">firefox macOS 14.2.1 120 selenium real</text>
<text text-anchor="middle" x="895.5" y="-82.43" font-family="Times,serif" font-size="20.00">firefox_beta Android 11 122.0b1 intent real</text>
</g>
<!-- SG_1_Node_2 -->
<g id="node6" class="node">
<title>SG_1_Node_2</title>
<ellipse fill="none" stroke="black" cx="1143" cy="-37.21" rx="33.88" ry="21.43"/>
<text text-anchor="middle" x="1143" y="-32.21" font-family="Times,serif" font-size="20.00">1.0</text>
</g>
<!-- SG_1_Node_0&#45;&gt;SG_1_Node_2 -->
<g id="edge4" class="edge">
<title>SG_1_Node_0&#45;&gt;SG_1_Node_2</title>
<path fill="none" stroke="black" d="M952.51,-220.07C1009.75,-217.43 1098.09,-209.59 1121,-186.43 1151.45,-155.63 1151.6,-102.21 1147.98,-68.61"/>
<polygon fill="black" stroke="black" points="1151.43,-67.94 1146.71,-58.45 1144.48,-68.81 1151.43,-67.94"/>
<text text-anchor="middle" x="1194.5" y="-137.43" font-family="Times,serif" font-size="20.00">[NA]</text>
<text text-anchor="middle" x="1194.5" y="-115.43" font-family="Times,serif" font-size="20.00">23 levels</text>
</g>
</g>
</svg>
