<?xml version="1.0" encoding="UTF-8" standalone="no"?>
<!DOCTYPE svg PUBLIC "-//W3C//DTD SVG 1.1//EN"
 "http://www.w3.org/Graphics/SVG/1.1/DTD/svg11.dtd">
<!-- Generated by graphviz version 2.43.0 (0)
 -->
<!-- Title: G Pages: 1 -->
<svg width="1618pt" height="706pt"
 viewBox="0.00 0.00 1618.00 705.71" xmlns="http://www.w3.org/2000/svg" xmlns:xlink="http://www.w3.org/1999/xlink">
<g id="graph0" class="graph" transform="scale(1 1) rotate(0) translate(4 701.71)">
<title>G</title>
<polygon fill="white" stroke="transparent" points="-4,4 -4,-701.71 1614,-701.71 1614,4 -4,4"/>
<g id="clust1" class="cluster">
<title>cluster_0</title>
<polygon fill="none" stroke="black" points="8,-8 8,-689.71 801,-689.71 801,-8 8,-8"/>
<text text-anchor="middle" x="404.5" y="-653.71" font-family="Times,serif" font-size="40.00">Tree 0, Class message send</text>
</g>
<g id="clust7" class="cluster">
<title>cluster_1</title>
<polygon fill="none" stroke="black" points="809,-8 809,-689.71 1602,-689.71 1602,-8 809,-8"/>
<text text-anchor="middle" x="1205.5" y="-653.71" font-family="Times,serif" font-size="40.00">Tree 0, Class message timeout</text>
</g>
<!-- SG_0_Node_0 -->
<g id="node1" class="node">
<title>SG_0_Node_0</title>
<polygon fill="none" stroke="black" points="366.5,-629.71 265.5,-629.71 265.5,-593.71 366.5,-593.71 366.5,-629.71"/>
<text text-anchor="middle" x="316" y="-606.71" font-family="Times,serif" font-size="20.00">browser</text>
</g>
<!-- SG_0_Node_4 -->
<g id="node2" class="node">
<title>SG_0_Node_4</title>
<ellipse fill="none" stroke="black" cx="118" cy="-404.49" rx="33.88" ry="21.43"/>
<text text-anchor="middle" x="118" y="-399.49" font-family="Times,serif" font-size="20.00">0.0</text>
</g>
<!-- SG_0_Node_0&#45;&gt;SG_0_Node_4 -->
<g id="edge1" class="edge">
<title>SG_0_Node_0&#45;&gt;SG_0_Node_4</title>
<path fill="none" stroke="black" d="M265.07,-608.83C213.04,-605.72 137.36,-597.48 119,-575.71 86.01,-536.57 97.2,-472.47 107.9,-435.1"/>
<polygon fill="black" stroke="black" points="111.31,-435.9 110.86,-425.31 104.61,-433.87 111.31,-435.9"/>
<text text-anchor="middle" x="365.5" y="-559.71" font-family="Times,serif" font-size="20.00">brave iPadOS 17.2 1.61 (23.12.18.22) intent real</text>
<text text-anchor="middle" x="365.5" y="-537.71" font-family="Times,serif" font-size="20.00">chrome iPadOS 17.2 120.0.6099.119 intent real</text>
<text text-anchor="middle" x="365.5" y="-515.71" font-family="Times,serif" font-size="20.00">edge iPadOS 17.2 120.0.2210.116 intent real</text>
<text text-anchor="middle" x="365.5" y="-493.71" font-family="Times,serif" font-size="20.00">firefox iPadOS 17.2 121.0 (36782) intent real</text>
<text text-anchor="middle" x="365.5" y="-471.71" font-family="Times,serif" font-size="20.00">operagx iPadOS 17.2 2.2.2 intent real</text>
<text text-anchor="middle" x="365.5" y="-449.71" font-family="Times,serif" font-size="20.00">safari macOS 14.2.1 17.2 selenium real</text>
</g>
<!-- SG_0_Node_1 -->
<g id="node3" class="node">
<title>SG_0_Node_1</title>
<polygon fill="none" stroke="black" points="684.5,-422.49 583.5,-422.49 583.5,-386.49 684.5,-386.49 684.5,-422.49"/>
<text text-anchor="middle" x="634" y="-399.49" font-family="Times,serif" font-size="20.00">browser</text>
</g>
<!-- SG_0_Node_0&#45;&gt;SG_0_Node_1 -->
<g id="edge2" class="edge">
<title>SG_0_Node_0&#45;&gt;SG_0_Node_1</title>
<path fill="none" stroke="black" d="M366.78,-608.06C446.79,-603.41 594.92,-592.61 612,-575.71 649.69,-538.42 645.62,-470.73 639.63,-432.92"/>
<polygon fill="black" stroke="black" points="643,-431.9 637.83,-422.65 636.11,-433.11 643,-431.9"/>
<text text-anchor="middle" x="688.5" y="-515.71" font-family="Times,serif" font-size="20.00">[NA]</text>
<text text-anchor="middle" x="688.5" y="-493.71" font-family="Times,serif" font-size="20.00">22 levels</text>
</g>
<!-- SG_0_Node_2 -->
<g id="node4" class="node">
<title>SG_0_Node_2</title>
<polygon fill="none" stroke="black" points="327.5,-300.07 190.5,-300.07 190.5,-264.07 327.5,-264.07 327.5,-300.07"/>
<text text-anchor="middle" x="259" y="-277.07" font-family="Times,serif" font-size="20.00">raw_header</text>
</g>
<!-- SG_0_Node_1&#45;&gt;SG_0_Node_2 -->
<g id="edge3" class="edge">
<title>SG_0_Node_1&#45;&gt;SG_0_Node_2</title>
<path fill="none" stroke="black" d="M583.14,-402.07C485.06,-398.79 277.54,-389.1 256,-365.28 242.73,-350.6 244.7,-327.72 249.31,-309.82"/>
<polygon fill="black" stroke="black" points="252.67,-310.8 252.14,-300.22 245.95,-308.82 252.67,-310.8"/>
<text text-anchor="middle" x="449" y="-338.28" font-family="Times,serif" font-size="20.00">edge macOS 14.2.1 120 selenium real</text>
</g>
<!-- SG_0_Node_5 -->
<g id="node5" class="node">
<title>SG_0_Node_5</title>
<ellipse fill="none" stroke="black" cx="668" cy="-282.07" rx="33.88" ry="21.43"/>
<text text-anchor="middle" x="668" y="-277.07" font-family="Times,serif" font-size="20.00">1.0</text>
</g>
<!-- SG_0_Node_1&#45;&gt;SG_0_Node_5 -->
<g id="edge4" class="edge">
<title>SG_0_Node_1&#45;&gt;SG_0_Node_5</title>
<path fill="none" stroke="black" d="M639.53,-386.42C641.62,-379.83 643.98,-372.22 646,-365.28 651.04,-347.94 656.28,-328.41 660.39,-312.75"/>
<polygon fill="black" stroke="black" points="663.77,-313.63 662.9,-303.07 657,-311.86 663.77,-313.63"/>
<text text-anchor="middle" x="702.5" y="-349.28" font-family="Times,serif" font-size="20.00">[NA]</text>
<text text-anchor="middle" x="702.5" y="-327.28" font-family="Times,serif" font-size="20.00">21 levels</text>
</g>
<!-- SG_0_Node_3 -->
<g id="node6" class="node">
<title>SG_0_Node_3</title>
<polygon fill="none" stroke="black" points="196,-177.64 74,-177.64 74,-141.64 196,-141.64 196,-177.64"/>
<text text-anchor="middle" x="135" y="-154.64" font-family="Times,serif" font-size="20.00">org_origin</text>
</g>
<!-- SG_0_Node_2&#45;&gt;SG_0_Node_3 -->
<g id="edge5" class="edge">
<title>SG_0_Node_2&#45;&gt;SG_0_Node_3</title>
<path fill="none" stroke="black" d="M190.28,-275.19C169.55,-269.84 148.9,-260.15 136,-242.85 124.48,-227.41 124.83,-205.39 127.74,-188.03"/>
<polygon fill="black" stroke="black" points="131.23,-188.42 129.79,-177.92 124.37,-187.02 131.23,-188.42"/>
<text text-anchor="middle" x="379" y="-215.85" font-family="Times,serif" font-size="20.00">[[&#39;Content&#45;Security&#45;Policy&#39;, &#39;frame&#45;ancestors *&#39;]]</text>
</g>
<!-- SG_0_Node_6 -->
<g id="node7" class="node">
<title>SG_0_Node_6</title>
<ellipse fill="none" stroke="black" cx="644" cy="-159.64" rx="33.88" ry="21.43"/>
<text text-anchor="middle" x="644" y="-154.64" font-family="Times,serif" font-size="20.00">1.0</text>
</g>
<!-- SG_0_Node_2&#45;&gt;SG_0_Node_6 -->
<g id="edge6" class="edge">
<title>SG_0_Node_2&#45;&gt;SG_0_Node_6</title>
<path fill="none" stroke="black" d="M327.78,-277.99C426.81,-272.93 600.14,-261.53 622,-242.85 636.77,-230.23 642.17,-208.9 643.93,-191.12"/>
<polygon fill="black" stroke="black" points="647.44,-191.1 644.6,-180.89 640.45,-190.64 647.44,-191.1"/>
<text text-anchor="middle" x="687.5" y="-226.85" font-family="Times,serif" font-size="20.00">[NA]</text>
<text text-anchor="middle" x="687.5" y="-204.85" font-family="Times,serif" font-size="20.00">18 levels</text>
</g>
<!-- SG_0_Node_7 -->
<g id="node8" class="node">
<title>SG_0_Node_7</title>
<ellipse fill="none" stroke="black" cx="50" cy="-37.21" rx="33.88" ry="21.43"/>
<text text-anchor="middle" x="50" y="-32.21" font-family="Times,serif" font-size="20.00">0.0</text>
</g>
<!-- SG_0_Node_3&#45;&gt;SG_0_Node_7 -->
<g id="edge7" class="edge">
<title>SG_0_Node_3&#45;&gt;SG_0_Node_7</title>
<path fill="none" stroke="black" d="M73.79,-148.08C58.65,-142.42 44.17,-133.75 35,-120.43 24.27,-104.84 28.37,-83.8 34.96,-66.91"/>
<polygon fill="black" stroke="black" points="38.27,-68.08 39.05,-57.51 31.85,-65.29 38.27,-68.08"/>
<text text-anchor="middle" x="216.5" y="-104.43" font-family="Times,serif" font-size="20.00">[NA]</text>
<text text-anchor="middle" x="216.5" y="-82.43" font-family="Times,serif" font-size="20.00">http://sub.headers.websec.saarland</text>
</g>
<!-- SG_0_Node_8 -->
<g id="node9" class="node">
<title>SG_0_Node_8</title>
<ellipse fill="none" stroke="black" cx="420" cy="-37.21" rx="33.88" ry="21.43"/>
<text text-anchor="middle" x="420" y="-32.21" font-family="Times,serif" font-size="20.00">1.0</text>
</g>
<!-- SG_0_Node_3&#45;&gt;SG_0_Node_8 -->
<g id="edge8" class="edge">
<title>SG_0_Node_3&#45;&gt;SG_0_Node_8</title>
<path fill="none" stroke="black" d="M196.29,-157.34C264.51,-154.61 368.99,-146.22 398,-120.43 412.36,-107.66 417.8,-86.66 419.69,-69.07"/>
<polygon fill="black" stroke="black" points="423.21,-68.9 420.45,-58.67 416.23,-68.39 423.21,-68.9"/>
<text text-anchor="middle" x="604.5" y="-93.43" font-family="Times,serif" font-size="20.00">https://sub.headers.websec.saarland</text>
</g>
<!-- SG_1_Node_0 -->
<g id="node10" class="node">
<title>SG_1_Node_0</title>
<polygon fill="none" stroke="black" points="1023.5,-629.71 922.5,-629.71 922.5,-593.71 1023.5,-593.71 1023.5,-629.71"/>
<text text-anchor="middle" x="973" y="-606.71" font-family="Times,serif" font-size="20.00">browser</text>
</g>
<!-- SG_1_Node_1 -->
<g id="node11" class="node">
<title>SG_1_Node_1</title>
<polygon fill="none" stroke="black" points="966.5,-422.49 865.5,-422.49 865.5,-386.49 966.5,-386.49 966.5,-422.49"/>
<text text-anchor="middle" x="916" y="-399.49" font-family="Times,serif" font-size="20.00">browser</text>
</g>
<!-- SG_1_Node_0&#45;&gt;SG_1_Node_1 -->
<g id="edge9" class="edge">
<title>SG_1_Node_0&#45;&gt;SG_1_Node_1</title>
<path fill="none" stroke="black" d="M934.03,-593.63C927.21,-588.84 921.02,-582.91 917,-575.71 891.94,-530.81 900.48,-468.31 908.53,-432.88"/>
<polygon fill="black" stroke="black" points="912.02,-433.34 910.97,-422.8 905.21,-431.69 912.02,-433.34"/>
<text text-anchor="middle" x="962.5" y="-515.71" font-family="Times,serif" font-size="20.00">[NA]</text>
<text text-anchor="middle" x="962.5" y="-493.71" font-family="Times,serif" font-size="20.00">22 levels</text>
</g>
<!-- SG_1_Node_4 -->
<g id="node12" class="node">
<title>SG_1_Node_4</title>
<ellipse fill="none" stroke="black" cx="1030" cy="-404.49" rx="33.88" ry="21.43"/>
<text text-anchor="middle" x="1030" y="-399.49" font-family="Times,serif" font-size="20.00">1.0</text>
</g>
<!-- SG_1_Node_0&#45;&gt;SG_1_Node_4 -->
<g id="edge10" class="edge">
<title>SG_1_Node_0&#45;&gt;SG_1_Node_4</title>
<path fill="none" stroke="black" d="M994.49,-593.68C999.72,-588.46 1004.74,-582.34 1008,-575.71 1030.1,-530.75 1032.66,-471.44 1031.82,-436.01"/>
<polygon fill="black" stroke="black" points="1035.31,-435.7 1031.46,-425.82 1028.31,-435.94 1035.31,-435.7"/>
<text text-anchor="middle" x="1277.5" y="-559.71" font-family="Times,serif" font-size="20.00">brave iPadOS 17.2 1.61 (23.12.18.22) intent real</text>
<text text-anchor="middle" x="1277.5" y="-537.71" font-family="Times,serif" font-size="20.00">chrome iPadOS 17.2 120.0.6099.119 intent real</text>
<text text-anchor="middle" x="1277.5" y="-515.71" font-family="Times,serif" font-size="20.00">edge iPadOS 17.2 120.0.2210.116 intent real</text>
<text text-anchor="middle" x="1277.5" y="-493.71" font-family="Times,serif" font-size="20.00">firefox iPadOS 17.2 121.0 (36782) intent real</text>
<text text-anchor="middle" x="1277.5" y="-471.71" font-family="Times,serif" font-size="20.00">operagx iPadOS 17.2 2.2.2 intent real</text>
<text text-anchor="middle" x="1277.5" y="-449.71" font-family="Times,serif" font-size="20.00">safari macOS 14.2.1 17.2 selenium real</text>
</g>
<!-- SG_1_Node_5 -->
<g id="node13" class="node">
<title>SG_1_Node_5</title>
<ellipse fill="none" stroke="black" cx="883" cy="-282.07" rx="33.88" ry="21.43"/>
<text text-anchor="middle" x="883" y="-277.07" font-family="Times,serif" font-size="20.00">0.0</text>
</g>
<!-- SG_1_Node_1&#45;&gt;SG_1_Node_5 -->
<g id="edge11" class="edge">
<title>SG_1_Node_1&#45;&gt;SG_1_Node_5</title>
<path fill="none" stroke="black" d="M900.3,-386.45C895.48,-380.24 890.74,-372.86 888,-365.28 882.08,-348.89 880.66,-329.47 880.8,-313.62"/>
<polygon fill="black" stroke="black" points="884.31,-313.4 881.11,-303.3 877.32,-313.19 884.31,-313.4"/>
<text text-anchor="middle" x="933.5" y="-349.28" font-family="Times,serif" font-size="20.00">[NA]</text>
<text text-anchor="middle" x="933.5" y="-327.28" font-family="Times,serif" font-size="20.00">21 levels</text>
</g>
<!-- SG_1_Node_2 -->
<g id="node14" class="node">
<title>SG_1_Node_2</title>
<polygon fill="none" stroke="black" points="1071.5,-300.07 934.5,-300.07 934.5,-264.07 1071.5,-264.07 1071.5,-300.07"/>
<text text-anchor="middle" x="1003" y="-277.07" font-family="Times,serif" font-size="20.00">raw_header</text>
</g>
<!-- SG_1_Node_1&#45;&gt;SG_1_Node_2 -->
<g id="edge12" class="edge">
<title>SG_1_Node_1&#45;&gt;SG_1_Node_2</title>
<path fill="none" stroke="black" d="M954.24,-386.46C963.42,-380.85 972.46,-373.8 979,-365.28 991.22,-349.36 997.23,-327.37 1000.18,-310.14"/>
<polygon fill="black" stroke="black" points="1003.66,-310.52 1001.64,-300.12 996.73,-309.51 1003.66,-310.52"/>
<text text-anchor="middle" x="1190" y="-338.28" font-family="Times,serif" font-size="20.00">edge macOS 14.2.1 120 selenium real</text>
</g>
<!-- SG_1_Node_6 -->
<g id="node15" class="node">
<title>SG_1_Node_6</title>
<ellipse fill="none" stroke="black" cx="941" cy="-159.64" rx="33.88" ry="21.43"/>
<text text-anchor="middle" x="941" y="-154.64" font-family="Times,serif" font-size="20.00">0.0</text>
</g>
<!-- SG_1_Node_2&#45;&gt;SG_1_Node_6 -->
<g id="edge13" class="edge">
<title>SG_1_Node_2&#45;&gt;SG_1_Node_6</title>
<path fill="none" stroke="black" d="M959.45,-263.98C950.88,-258.54 943.01,-251.6 938,-242.85 929.1,-227.29 929.65,-207.23 932.52,-190.82"/>
<polygon fill="black" stroke="black" points="936.02,-191.15 934.66,-180.64 929.17,-189.71 936.02,-191.15"/>
<text text-anchor="middle" x="983.5" y="-226.85" font-family="Times,serif" font-size="20.00">[NA]</text>
<text text-anchor="middle" x="983.5" y="-204.85" font-family="Times,serif" font-size="20.00">18 levels</text>
</g>
<!-- SG_1_Node_3 -->
<g id="node16" class="node">
<title>SG_1_Node_3</title>
<polygon fill="none" stroke="black" points="1116,-177.64 994,-177.64 994,-141.64 1116,-141.64 1116,-177.64"/>
<text text-anchor="middle" x="1055" y="-154.64" font-family="Times,serif" font-size="20.00">org_origin</text>
</g>
<!-- SG_1_Node_2&#45;&gt;SG_1_Node_3 -->
<g id="edge14" class="edge">
<title>SG_1_Node_2&#45;&gt;SG_1_Node_3</title>
<path fill="none" stroke="black" d="M1018.95,-263.81C1024.04,-257.58 1029.3,-250.25 1033,-242.85 1041.67,-225.51 1047.23,-204.34 1050.6,-187.82"/>
<polygon fill="black" stroke="black" points="1054.08,-188.21 1052.5,-177.73 1047.21,-186.91 1054.08,-188.21"/>
<text text-anchor="middle" x="1291" y="-215.85" font-family="Times,serif" font-size="20.00">[[&#39;Content&#45;Security&#45;Policy&#39;, &#39;frame&#45;ancestors *&#39;]]</text>
</g>
<!-- SG_1_Node_7 -->
<g id="node17" class="node">
<title>SG_1_Node_7</title>
<ellipse fill="none" stroke="black" cx="851" cy="-37.21" rx="33.88" ry="21.43"/>
<text text-anchor="middle" x="851" y="-32.21" font-family="Times,serif" font-size="20.00">0.0</text>
</g>
<!-- SG_1_Node_3&#45;&gt;SG_1_Node_7 -->
<g id="edge15" class="edge">
<title>SG_1_Node_3&#45;&gt;SG_1_Node_7</title>
<path fill="none" stroke="black" d="M998.23,-141.62C993.44,-140.44 988.65,-139.36 984,-138.43 950.65,-131.75 854.59,-145.85 832,-120.43 818.95,-105.74 824.79,-83.86 833.31,-66.37"/>
<polygon fill="black" stroke="black" points="836.6,-67.65 838.22,-57.18 830.42,-64.35 836.6,-67.65"/>
<text text-anchor="middle" x="1018.5" y="-93.43" font-family="Times,serif" font-size="20.00">https://sub.headers.websec.saarland</text>
</g>
<!-- SG_1_Node_8 -->
<g id="node18" class="node">
<title>SG_1_Node_8</title>
<ellipse fill="none" stroke="black" cx="1231" cy="-37.21" rx="33.88" ry="21.43"/>
<text text-anchor="middle" x="1231" y="-32.21" font-family="Times,serif" font-size="20.00">1.0</text>
</g>
<!-- SG_1_Node_3&#45;&gt;SG_1_Node_8 -->
<g id="edge16" class="edge">
<title>SG_1_Node_3&#45;&gt;SG_1_Node_8</title>
<path fill="none" stroke="black" d="M1116.39,-149.9C1153.32,-143.44 1195.68,-133.5 1209,-120.43 1222.62,-107.05 1228.1,-86.24 1230.18,-68.9"/>
<polygon fill="black" stroke="black" points="1233.69,-68.92 1231.08,-58.65 1226.72,-68.31 1233.69,-68.92"/>
<text text-anchor="middle" x="1409.5" y="-104.43" font-family="Times,serif" font-size="20.00">[NA]</text>
<text text-anchor="middle" x="1409.5" y="-82.43" font-family="Times,serif" font-size="20.00">http://sub.headers.websec.saarland</text>
</g>
</g>
</svg>
