<?xml version="1.0" encoding="UTF-8" standalone="no"?>
<!DOCTYPE svg PUBLIC "-//W3C//DTD SVG 1.1//EN"
 "http://www.w3.org/Graphics/SVG/1.1/DTD/svg11.dtd">
<!-- Generated by graphviz version 2.43.0 (0)
 -->
<!-- Title: G Pages: 1 -->
<svg width="1314pt" height="338pt"
 viewBox="0.00 0.00 1314.00 338.43" xmlns="http://www.w3.org/2000/svg" xmlns:xlink="http://www.w3.org/1999/xlink">
<g id="graph0" class="graph" transform="scale(1 1) rotate(0) translate(4 334.43)">
<title>G</title>
<polygon fill="white" stroke="transparent" points="-4,4 -4,-334.43 1310,-334.43 1310,4 -4,4"/>
<g id="clust1" class="cluster">
<title>cluster_0</title>
<polygon fill="none" stroke="black" points="8,-8 8,-322.43 649,-322.43 649,-8 8,-8"/>
<text text-anchor="middle" x="328.5" y="-286.43" font-family="Times,serif" font-size="40.00">Tree 0, Class message send</text>
</g>
<g id="clust4" class="cluster">
<title>cluster_1</title>
<polygon fill="none" stroke="black" points="657,-8 657,-322.43 1298,-322.43 1298,-8 657,-8"/>
<text text-anchor="middle" x="977.5" y="-286.43" font-family="Times,serif" font-size="40.00">Tree 0, Class message timeout</text>
</g>
<!-- SG_0_Node_0 -->
<g id="node1" class="node">
<title>SG_0_Node_0</title>
<polygon fill="none" stroke="black" points="358.5,-262.43 257.5,-262.43 257.5,-226.43 358.5,-226.43 358.5,-262.43"/>
<text text-anchor="middle" x="308" y="-239.43" font-family="Times,serif" font-size="20.00">browser</text>
</g>
<!-- SG_0_Node_1 -->
<g id="node2" class="node">
<title>SG_0_Node_1</title>
<ellipse fill="none" stroke="black" cx="50" cy="-37.21" rx="33.88" ry="21.43"/>
<text text-anchor="middle" x="50" y="-32.21" font-family="Times,serif" font-size="20.00">0.0</text>
</g>
<!-- SG_0_Node_0&#45;&gt;SG_0_Node_1 -->
<g id="edge1" class="edge">
<title>SG_0_Node_0&#45;&gt;SG_0_Node_1</title>
<path fill="none" stroke="black" d="M257.47,-240.61C181.65,-235.86 45.71,-225.11 31,-208.43 -3.39,-169.42 18.07,-104.28 35.13,-66.91"/>
<polygon fill="black" stroke="black" points="38.42,-68.13 39.55,-57.6 32.1,-65.13 38.42,-68.13"/>
<text text-anchor="middle" x="277.5" y="-192.43" font-family="Times,serif" font-size="20.00">brave iPadOS 17.2 1.61 (23.12.18.22) intent real</text>
<text text-anchor="middle" x="277.5" y="-170.43" font-family="Times,serif" font-size="20.00">chrome iPadOS 17.2 120.0.6099.119 intent real</text>
<text text-anchor="middle" x="277.5" y="-148.43" font-family="Times,serif" font-size="20.00">edge iPadOS 17.2 120.0.2210.116 intent real</text>
<text text-anchor="middle" x="277.5" y="-126.43" font-family="Times,serif" font-size="20.00">firefox iPadOS 17.2 121.0 (36782) intent real</text>
<text text-anchor="middle" x="277.5" y="-104.43" font-family="Times,serif" font-size="20.00">operagx iPadOS 17.2 2.2.2 intent real</text>
<text text-anchor="middle" x="277.5" y="-82.43" font-family="Times,serif" font-size="20.00">safari macOS 14.2.1 17.2 selenium real</text>
</g>
<!-- SG_0_Node_2 -->
<g id="node3" class="node">
<title>SG_0_Node_2</title>
<ellipse fill="none" stroke="black" cx="550" cy="-37.21" rx="33.88" ry="21.43"/>
<text text-anchor="middle" x="550" y="-32.21" font-family="Times,serif" font-size="20.00">1.0</text>
</g>
<!-- SG_0_Node_0&#45;&gt;SG_0_Node_2 -->
<g id="edge2" class="edge">
<title>SG_0_Node_0&#45;&gt;SG_0_Node_2</title>
<path fill="none" stroke="black" d="M358.56,-242.19C416.12,-239.66 505.16,-231.94 528,-208.43 563.96,-171.4 561.33,-106.55 555.87,-68.49"/>
<polygon fill="black" stroke="black" points="559.31,-67.83 554.28,-58.5 552.39,-68.93 559.31,-67.83"/>
<text text-anchor="middle" x="604.5" y="-148.43" font-family="Times,serif" font-size="20.00">[NA]</text>
<text text-anchor="middle" x="604.5" y="-126.43" font-family="Times,serif" font-size="20.00">22 levels</text>
</g>
<!-- SG_1_Node_0 -->
<g id="node4" class="node">
<title>SG_1_Node_0</title>
<polygon fill="none" stroke="black" points="806.5,-262.43 705.5,-262.43 705.5,-226.43 806.5,-226.43 806.5,-262.43"/>
<text text-anchor="middle" x="756" y="-239.43" font-family="Times,serif" font-size="20.00">browser</text>
</g>
<!-- SG_1_Node_1 -->
<g id="node5" class="node">
<title>SG_1_Node_1</title>
<ellipse fill="none" stroke="black" cx="699" cy="-37.21" rx="33.88" ry="21.43"/>
<text text-anchor="middle" x="699" y="-32.21" font-family="Times,serif" font-size="20.00">0.0</text>
</g>
<!-- SG_1_Node_0&#45;&gt;SG_1_Node_1 -->
<g id="edge3" class="edge">
<title>SG_1_Node_0&#45;&gt;SG_1_Node_1</title>
<path fill="none" stroke="black" d="M705.34,-229.84C695.31,-224.77 686.03,-217.85 680,-208.43 648.36,-159.02 666.58,-133.54 680,-76.43 680.76,-73.18 681.84,-69.9 683.11,-66.68"/>
<polygon fill="black" stroke="black" points="686.38,-67.94 687.32,-57.39 680,-65.06 686.38,-67.94"/>
<text text-anchor="middle" x="725.5" y="-148.43" font-family="Times,serif" font-size="20.00">[NA]</text>
<text text-anchor="middle" x="725.5" y="-126.43" font-family="Times,serif" font-size="20.00">22 levels</text>
</g>
<!-- SG_1_Node_2 -->
<g id="node6" class="node">
<title>SG_1_Node_2</title>
<ellipse fill="none" stroke="black" cx="797" cy="-37.21" rx="33.88" ry="21.43"/>
<text text-anchor="middle" x="797" y="-32.21" font-family="Times,serif" font-size="20.00">1.0</text>
</g>
<!-- SG_1_Node_0&#45;&gt;SG_1_Node_2 -->
<g id="edge4" class="edge">
<title>SG_1_Node_0&#45;&gt;SG_1_Node_2</title>
<path fill="none" stroke="black" d="M766.99,-226.19C770.04,-220.7 773.04,-214.48 775,-208.43 790.23,-161.36 794.96,-103.75 796.4,-69.07"/>
<polygon fill="black" stroke="black" points="799.91,-68.77 796.76,-58.65 792.92,-68.53 799.91,-68.77"/>
<text text-anchor="middle" x="1042.5" y="-192.43" font-family="Times,serif" font-size="20.00">brave iPadOS 17.2 1.61 (23.12.18.22) intent real</text>
<text text-anchor="middle" x="1042.5" y="-170.43" font-family="Times,serif" font-size="20.00">chrome iPadOS 17.2 120.0.6099.119 intent real</text>
<text text-anchor="middle" x="1042.5" y="-148.43" font-family="Times,serif" font-size="20.00">edge iPadOS 17.2 120.0.2210.116 intent real</text>
<text text-anchor="middle" x="1042.5" y="-126.43" font-family="Times,serif" font-size="20.00">firefox iPadOS 17.2 121.0 (36782) intent real</text>
<text text-anchor="middle" x="1042.5" y="-104.43" font-family="Times,serif" font-size="20.00">operagx iPadOS 17.2 2.2.2 intent real</text>
<text text-anchor="middle" x="1042.5" y="-82.43" font-family="Times,serif" font-size="20.00">safari macOS 14.2.1 17.2 selenium real</text>
</g>
</g>
</svg>
