<?xml version="1.0" encoding="UTF-8" standalone="no"?>
<!DOCTYPE svg PUBLIC "-//W3C//DTD SVG 1.1//EN"
 "http://www.w3.org/Graphics/SVG/1.1/DTD/svg11.dtd">
<!-- Generated by graphviz version 2.43.0 (0)
 -->
<!-- Title: G Pages: 1 -->
<svg width="3012pt" height="1202pt"
 viewBox="0.00 0.00 3012.00 1202.13" xmlns="http://www.w3.org/2000/svg" xmlns:xlink="http://www.w3.org/1999/xlink">
<g id="graph0" class="graph" transform="scale(1 1) rotate(0) translate(4 1198.13)">
<title>G</title>
<polygon fill="white" stroke="transparent" points="-4,4 -4,-1198.13 3008,-1198.13 3008,4 -4,4"/>
<g id="clust1" class="cluster">
<title>cluster_0</title>
<polygon fill="none" stroke="black" points="8,-130.43 8,-1186.13 853,-1186.13 853,-130.43 8,-130.43"/>
<text text-anchor="middle" x="430.5" y="-1150.13" font-family="Times,serif" font-size="40.00">Tree 0, Class fullscreenEnabled: false</text>
</g>
<g id="clust7" class="cluster">
<title>cluster_1</title>
<polygon fill="none" stroke="black" points="861,-8 861,-1186.13 2097,-1186.13 2097,-8 861,-8"/>
<text text-anchor="middle" x="1479" y="-1150.13" font-family="Times,serif" font-size="40.00">Tree 0, Class fullscreenEnabled: true</text>
</g>
<g id="clust14" class="cluster">
<title>cluster_2</title>
<polygon fill="none" stroke="black" points="2105,-783.71 2105,-1186.13 2996,-1186.13 2996,-783.71 2105,-783.71"/>
<text text-anchor="middle" x="2550.5" y="-1150.13" font-family="Times,serif" font-size="40.00">Tree 0, Class fullscreenEnabled: undefined</text>
</g>
<!-- SG_0_Node_0 -->
<g id="node1" class="node">
<title>SG_0_Node_0</title>
<polygon fill="none" stroke="black" points="387.5,-1126.13 250.5,-1126.13 250.5,-1090.13 387.5,-1090.13 387.5,-1126.13"/>
<text text-anchor="middle" x="319" y="-1103.13" font-family="Times,serif" font-size="20.00">raw_header</text>
</g>
<!-- SG_0_Node_4 -->
<g id="node2" class="node">
<title>SG_0_Node_4</title>
<ellipse fill="none" stroke="black" cx="150" cy="-812.92" rx="33.88" ry="21.43"/>
<text text-anchor="middle" x="150" y="-807.92" font-family="Times,serif" font-size="20.00">0.0</text>
</g>
<!-- SG_0_Node_0&#45;&gt;SG_0_Node_4 -->
<g id="edge1" class="edge">
<title>SG_0_Node_0&#45;&gt;SG_0_Node_4</title>
<path fill="none" stroke="black" d="M250.41,-1101.51C209.74,-1096.59 163.72,-1087.71 151,-1072.13 97.18,-1006.21 122.63,-896.06 139.38,-843.53"/>
<polygon fill="black" stroke="black" points="142.78,-844.42 142.59,-833.82 136.13,-842.22 142.78,-844.42"/>
<text text-anchor="middle" x="391" y="-1056.13" font-family="Times,serif" font-size="20.00">[[&#39;Feature&#45;Policy&#39;, &quot;fullscreen &#39;self&#39;&quot;]]</text>
<text text-anchor="middle" x="391" y="-1034.13" font-family="Times,serif" font-size="20.00">[[&#39;Feature&#45;Policy&#39;, &#39;fullscreen *&#39;]]</text>
<text text-anchor="middle" x="391" y="-1012.13" font-family="Times,serif" font-size="20.00">[[&#39;Permissions&#45;Policy&#39;, &#39;*&#39;]]</text>
<text text-anchor="middle" x="391" y="-990.13" font-family="Times,serif" font-size="20.00">[[&#39;Permissions&#45;Policy&#39;, &#39;fullscreen=&#39;]]</text>
<text text-anchor="middle" x="391" y="-968.13" font-family="Times,serif" font-size="20.00">[[&#39;Permissions&#45;Policy&#39;, &#39;fullscreen=(self none)&#39;]]</text>
<text text-anchor="middle" x="391" y="-946.13" font-family="Times,serif" font-size="20.00">[[&#39;Permissions&#45;Policy&#39;, &#39;fullscreen=(self)&#39;]]</text>
<text text-anchor="middle" x="391" y="-924.13" font-family="Times,serif" font-size="20.00">[[&#39;Permissions&#45;Policy&#39;, &#39;fullscreen=(self,none)&#39;]]</text>
<text text-anchor="middle" x="391" y="-902.13" font-family="Times,serif" font-size="20.00">[[&#39;Permissions&#45;Policy&#39;, &#39;fullscreen=*&#39;]]</text>
<text text-anchor="middle" x="391" y="-880.13" font-family="Times,serif" font-size="20.00">[[&#39;Permissions&#45;Policy&#39;, &#39;null&#39;]]</text>
<text text-anchor="middle" x="391" y="-858.13" font-family="Times,serif" font-size="20.00">[]</text>
</g>
<!-- SG_0_Node_1 -->
<g id="node3" class="node">
<title>SG_0_Node_1</title>
<polygon fill="none" stroke="black" points="703.5,-830.92 602.5,-830.92 602.5,-794.92 703.5,-794.92 703.5,-830.92"/>
<text text-anchor="middle" x="653" y="-807.92" font-family="Times,serif" font-size="20.00">browser</text>
</g>
<!-- SG_0_Node_0&#45;&gt;SG_0_Node_1 -->
<g id="edge2" class="edge">
<title>SG_0_Node_0&#45;&gt;SG_0_Node_1</title>
<path fill="none" stroke="black" d="M387.57,-1103.99C474.28,-1099.33 614.34,-1089.24 631,-1072.13 691.93,-1009.55 673.1,-893.4 660.44,-840.91"/>
<polygon fill="black" stroke="black" points="663.78,-839.85 657.94,-831.01 657,-841.56 663.78,-839.85"/>
<text text-anchor="middle" x="718.5" y="-968.13" font-family="Times,serif" font-size="20.00">[NA]</text>
<text text-anchor="middle" x="718.5" y="-946.13" font-family="Times,serif" font-size="20.00">12 levels</text>
</g>
<!-- SG_0_Node_5 -->
<g id="node4" class="node">
<title>SG_0_Node_5</title>
<ellipse fill="none" stroke="black" cx="585" cy="-536.49" rx="33.88" ry="21.43"/>
<text text-anchor="middle" x="585" y="-531.49" font-family="Times,serif" font-size="20.00">0.0</text>
</g>
<!-- SG_0_Node_1&#45;&gt;SG_0_Node_5 -->
<g id="edge3" class="edge">
<title>SG_0_Node_1&#45;&gt;SG_0_Node_5</title>
<path fill="none" stroke="black" d="M606.78,-794.77C598.09,-789.38 590.13,-782.47 585,-773.71 546.88,-708.55 563.58,-614.96 575.97,-567.52"/>
<polygon fill="black" stroke="black" points="579.43,-568.15 578.69,-557.58 572.68,-566.31 579.43,-568.15"/>
<text text-anchor="middle" x="630.5" y="-669.71" font-family="Times,serif" font-size="20.00">11 levels</text>
</g>
<!-- SG_0_Node_2 -->
<g id="node5" class="node">
<title>SG_0_Node_2</title>
<polygon fill="none" stroke="black" points="773.5,-554.49 636.5,-554.49 636.5,-518.49 773.5,-518.49 773.5,-554.49"/>
<text text-anchor="middle" x="705" y="-531.49" font-family="Times,serif" font-size="20.00">raw_header</text>
</g>
<!-- SG_0_Node_1&#45;&gt;SG_0_Node_2 -->
<g id="edge4" class="edge">
<title>SG_0_Node_1&#45;&gt;SG_0_Node_2</title>
<path fill="none" stroke="black" d="M667.95,-794.73C672.58,-788.5 677.19,-781.16 680,-773.71 707,-702.05 707.98,-610.06 706.49,-564.94"/>
<polygon fill="black" stroke="black" points="709.98,-564.63 706.08,-554.78 702.98,-564.91 709.98,-564.63"/>
<text text-anchor="middle" x="751.5" y="-680.71" font-family="Times,serif" font-size="20.00">[NA]</text>
<text text-anchor="middle" x="751.5" y="-658.71" font-family="Times,serif" font-size="20.00">17 levels</text>
</g>
<!-- SG_0_Node_3 -->
<g id="node6" class="node">
<title>SG_0_Node_3</title>
<polygon fill="none" stroke="black" points="148,-432.07 16,-432.07 16,-396.07 148,-396.07 148,-432.07"/>
<text text-anchor="middle" x="82" y="-409.07" font-family="Times,serif" font-size="20.00">resp_origin</text>
</g>
<!-- SG_0_Node_2&#45;&gt;SG_0_Node_3 -->
<g id="edge5" class="edge">
<title>SG_0_Node_2&#45;&gt;SG_0_Node_3</title>
<path fill="none" stroke="black" d="M645.58,-518.47C639.68,-517.21 633.75,-516.11 628,-515.28 595.49,-510.58 59.87,-520.86 37,-497.28 23.38,-483.24 28.79,-471.03 37,-453.28 39.37,-448.16 42.79,-443.48 46.72,-439.28"/>
<polygon fill="black" stroke="black" points="49.3,-441.66 54.19,-432.26 44.51,-436.56 49.3,-441.66"/>
<text text-anchor="middle" x="382.5" y="-470.28" font-family="Times,serif" font-size="20.00">[[&#39;Feature&#45;Policy&#39;, &#39;fullscreen https://sub.headers.websec.saarland&#39;]]</text>
</g>
<!-- SG_0_Node_6 -->
<g id="node7" class="node">
<title>SG_0_Node_6</title>
<ellipse fill="none" stroke="black" cx="754" cy="-414.07" rx="33.88" ry="21.43"/>
<text text-anchor="middle" x="754" y="-409.07" font-family="Times,serif" font-size="20.00">1.0</text>
</g>
<!-- SG_0_Node_2&#45;&gt;SG_0_Node_6 -->
<g id="edge6" class="edge">
<title>SG_0_Node_2&#45;&gt;SG_0_Node_6</title>
<path fill="none" stroke="black" d="M719.02,-518.41C723.68,-512.07 728.55,-504.63 732,-497.28 739.72,-480.82 745.1,-461.19 748.61,-445.24"/>
<polygon fill="black" stroke="black" points="752.05,-445.86 750.65,-435.36 745.2,-444.44 752.05,-445.86"/>
<text text-anchor="middle" x="791.5" y="-481.28" font-family="Times,serif" font-size="20.00">[NA]</text>
<text text-anchor="middle" x="791.5" y="-459.28" font-family="Times,serif" font-size="20.00">11 levels</text>
</g>
<!-- SG_0_Node_7 -->
<g id="node8" class="node">
<title>SG_0_Node_7</title>
<ellipse fill="none" stroke="black" cx="50" cy="-159.64" rx="33.88" ry="21.43"/>
<text text-anchor="middle" x="50" y="-154.64" font-family="Times,serif" font-size="20.00">0.0</text>
</g>
<!-- SG_0_Node_3&#45;&gt;SG_0_Node_7 -->
<g id="edge7" class="edge">
<title>SG_0_Node_3&#45;&gt;SG_0_Node_7</title>
<path fill="none" stroke="black" d="M52.49,-395.7C45.46,-390.01 38.89,-383.02 35,-374.85 1.39,-304.22 20.46,-275.71 35,-198.85 35.58,-195.8 36.39,-192.68 37.35,-189.6"/>
<polygon fill="black" stroke="black" points="40.69,-190.65 40.76,-180.05 34.1,-188.29 40.69,-190.65"/>
<text text-anchor="middle" x="221.5" y="-281.85" font-family="Times,serif" font-size="20.00">https://sub.headers.websec.saarland</text>
</g>
<!-- SG_0_Node_8 -->
<g id="node9" class="node">
<title>SG_0_Node_8</title>
<ellipse fill="none" stroke="black" cx="430" cy="-159.64" rx="33.88" ry="21.43"/>
<text text-anchor="middle" x="430" y="-154.64" font-family="Times,serif" font-size="20.00">1.0</text>
</g>
<!-- SG_0_Node_3&#45;&gt;SG_0_Node_8 -->
<g id="edge8" class="edge">
<title>SG_0_Node_3&#45;&gt;SG_0_Node_8</title>
<path fill="none" stroke="black" d="M148.26,-409.68C238.27,-404.43 390.12,-392.99 408,-374.85 432.92,-349.57 432.97,-243.91 431.34,-191.04"/>
<polygon fill="black" stroke="black" points="434.83,-190.78 430.99,-180.91 427.84,-191.02 434.83,-190.78"/>
<text text-anchor="middle" x="638.5" y="-358.85" font-family="Times,serif" font-size="20.00">[NA]</text>
<text text-anchor="middle" x="638.5" y="-336.85" font-family="Times,serif" font-size="20.00">http://headers.webappsec.eu</text>
<text text-anchor="middle" x="638.5" y="-314.85" font-family="Times,serif" font-size="20.00">http://headers.websec.saarland</text>
<text text-anchor="middle" x="638.5" y="-292.85" font-family="Times,serif" font-size="20.00">http://sub.headers.websec.saarland</text>
<text text-anchor="middle" x="638.5" y="-270.85" font-family="Times,serif" font-size="20.00">http://sub.sub.headers.websec.saarland</text>
<text text-anchor="middle" x="638.5" y="-248.85" font-family="Times,serif" font-size="20.00">https://headers.webappsec.eu</text>
<text text-anchor="middle" x="638.5" y="-226.85" font-family="Times,serif" font-size="20.00">https://headers.websec.saarland</text>
<text text-anchor="middle" x="638.5" y="-204.85" font-family="Times,serif" font-size="20.00">https://sub.sub.headers.websec.saarland</text>
</g>
<!-- SG_1_Node_0 -->
<g id="node10" class="node">
<title>SG_1_Node_0</title>
<polygon fill="none" stroke="black" points="1326.5,-1126.13 1189.5,-1126.13 1189.5,-1090.13 1326.5,-1090.13 1326.5,-1126.13"/>
<text text-anchor="middle" x="1258" y="-1103.13" font-family="Times,serif" font-size="20.00">raw_header</text>
</g>
<!-- SG_1_Node_1 -->
<g id="node11" class="node">
<title>SG_1_Node_1</title>
<polygon fill="none" stroke="black" points="1051.5,-830.92 950.5,-830.92 950.5,-794.92 1051.5,-794.92 1051.5,-830.92"/>
<text text-anchor="middle" x="1001" y="-807.92" font-family="Times,serif" font-size="20.00">browser</text>
</g>
<!-- SG_1_Node_0&#45;&gt;SG_1_Node_1 -->
<g id="edge9" class="edge">
<title>SG_1_Node_0&#45;&gt;SG_1_Node_1</title>
<path fill="none" stroke="black" d="M1243.07,-1090.1C1199.69,-1040.61 1073.5,-896.64 1022.63,-838.6"/>
<polygon fill="black" stroke="black" points="1025.19,-836.21 1015.97,-831 1019.93,-840.82 1025.19,-836.21"/>
<text text-anchor="middle" x="1271.5" y="-968.13" font-family="Times,serif" font-size="20.00">[NA]</text>
<text text-anchor="middle" x="1271.5" y="-946.13" font-family="Times,serif" font-size="20.00">12 levels</text>
</g>
<!-- SG_1_Node_2 -->
<g id="node12" class="node">
<title>SG_1_Node_2</title>
<polygon fill="none" stroke="black" points="1567.5,-830.92 1466.5,-830.92 1466.5,-794.92 1567.5,-794.92 1567.5,-830.92"/>
<text text-anchor="middle" x="1517" y="-807.92" font-family="Times,serif" font-size="20.00">browser</text>
</g>
<!-- SG_1_Node_0&#45;&gt;SG_1_Node_2 -->
<g id="edge10" class="edge">
<title>SG_1_Node_0&#45;&gt;SG_1_Node_2</title>
<path fill="none" stroke="black" d="M1294.68,-1090.1C1303.77,-1085.01 1313.15,-1078.94 1321,-1072.13 1403.29,-1000.78 1473.18,-889.74 1502.38,-839.8"/>
<polygon fill="black" stroke="black" points="1505.53,-841.34 1507.51,-830.93 1499.48,-837.83 1505.53,-841.34"/>
<text text-anchor="middle" x="1732" y="-1056.13" font-family="Times,serif" font-size="20.00">[[&#39;Feature&#45;Policy&#39;, &quot;fullscreen &#39;self&#39;&quot;]]</text>
<text text-anchor="middle" x="1732" y="-1034.13" font-family="Times,serif" font-size="20.00">[[&#39;Feature&#45;Policy&#39;, &#39;fullscreen *&#39;]]</text>
<text text-anchor="middle" x="1732" y="-1012.13" font-family="Times,serif" font-size="20.00">[[&#39;Permissions&#45;Policy&#39;, &#39;*&#39;]]</text>
<text text-anchor="middle" x="1732" y="-990.13" font-family="Times,serif" font-size="20.00">[[&#39;Permissions&#45;Policy&#39;, &#39;fullscreen=&#39;]]</text>
<text text-anchor="middle" x="1732" y="-968.13" font-family="Times,serif" font-size="20.00">[[&#39;Permissions&#45;Policy&#39;, &#39;fullscreen=(self none)&#39;]]</text>
<text text-anchor="middle" x="1732" y="-946.13" font-family="Times,serif" font-size="20.00">[[&#39;Permissions&#45;Policy&#39;, &#39;fullscreen=(self)&#39;]]</text>
<text text-anchor="middle" x="1732" y="-924.13" font-family="Times,serif" font-size="20.00">[[&#39;Permissions&#45;Policy&#39;, &#39;fullscreen=(self,none)&#39;]]</text>
<text text-anchor="middle" x="1732" y="-902.13" font-family="Times,serif" font-size="20.00">[[&#39;Permissions&#45;Policy&#39;, &#39;fullscreen=*&#39;]]</text>
<text text-anchor="middle" x="1732" y="-880.13" font-family="Times,serif" font-size="20.00">[[&#39;Permissions&#45;Policy&#39;, &#39;null&#39;]]</text>
<text text-anchor="middle" x="1732" y="-858.13" font-family="Times,serif" font-size="20.00">[]</text>
</g>
<!-- SG_1_Node_3 -->
<g id="node13" class="node">
<title>SG_1_Node_3</title>
<polygon fill="none" stroke="black" points="1006.5,-554.49 869.5,-554.49 869.5,-518.49 1006.5,-518.49 1006.5,-554.49"/>
<text text-anchor="middle" x="938" y="-531.49" font-family="Times,serif" font-size="20.00">raw_header</text>
</g>
<!-- SG_1_Node_1&#45;&gt;SG_1_Node_3 -->
<g id="edge13" class="edge">
<title>SG_1_Node_1&#45;&gt;SG_1_Node_3</title>
<path fill="none" stroke="black" d="M950.4,-805.61C930.68,-800.41 909.98,-790.93 898,-773.71 847.75,-701.46 863.4,-656.62 898,-575.71 900.07,-570.86 903.09,-566.34 906.56,-562.23"/>
<polygon fill="black" stroke="black" points="909.25,-564.47 913.64,-554.83 904.2,-559.63 909.25,-564.47"/>
<text text-anchor="middle" x="943.5" y="-680.71" font-family="Times,serif" font-size="20.00">[NA]</text>
<text text-anchor="middle" x="943.5" y="-658.71" font-family="Times,serif" font-size="20.00">19 levels</text>
</g>
<!-- SG_1_Node_6 -->
<g id="node14" class="node">
<title>SG_1_Node_6</title>
<ellipse fill="none" stroke="black" cx="1058" cy="-536.49" rx="33.88" ry="21.43"/>
<text text-anchor="middle" x="1058" y="-531.49" font-family="Times,serif" font-size="20.00">1.0</text>
</g>
<!-- SG_1_Node_1&#45;&gt;SG_1_Node_6 -->
<g id="edge14" class="edge">
<title>SG_1_Node_1&#45;&gt;SG_1_Node_6</title>
<path fill="none" stroke="black" d="M998.54,-794.9C993.51,-754.62 985.25,-651.2 1020,-575.71 1022.51,-570.26 1026.14,-565.15 1030.17,-560.54"/>
<polygon fill="black" stroke="black" points="1032.76,-562.91 1037.22,-553.3 1027.74,-558.03 1032.76,-562.91"/>
<text text-anchor="middle" x="1266.5" y="-757.71" font-family="Times,serif" font-size="20.00">brave iPadOS 17.2 1.61 (23.12.18.22) intent real</text>
<text text-anchor="middle" x="1266.5" y="-735.71" font-family="Times,serif" font-size="20.00">chrome iPadOS 17.2 120.0.6099.119 intent real</text>
<text text-anchor="middle" x="1266.5" y="-713.71" font-family="Times,serif" font-size="20.00">edge iPadOS 17.2 120.0.2210.116 intent real</text>
<text text-anchor="middle" x="1266.5" y="-691.71" font-family="Times,serif" font-size="20.00">firefox Ubuntu 22.04 119 selenium headless</text>
<text text-anchor="middle" x="1266.5" y="-669.71" font-family="Times,serif" font-size="20.00">firefox Ubuntu 22.04 119 selenium xvfb</text>
<text text-anchor="middle" x="1266.5" y="-647.71" font-family="Times,serif" font-size="20.00">firefox macOS 14.2.1 120 selenium headless</text>
<text text-anchor="middle" x="1266.5" y="-625.71" font-family="Times,serif" font-size="20.00">firefox macOS 14.2.1 120 selenium real</text>
<text text-anchor="middle" x="1266.5" y="-603.71" font-family="Times,serif" font-size="20.00">firefox_beta Android 11 122.0b1 intent real</text>
<text text-anchor="middle" x="1266.5" y="-581.71" font-family="Times,serif" font-size="20.00">safari macOS 14.2.1 17.2 selenium real</text>
</g>
<!-- SG_1_Node_7 -->
<g id="node15" class="node">
<title>SG_1_Node_7</title>
<ellipse fill="none" stroke="black" cx="1517" cy="-536.49" rx="33.88" ry="21.43"/>
<text text-anchor="middle" x="1517" y="-531.49" font-family="Times,serif" font-size="20.00">0.0</text>
</g>
<!-- SG_1_Node_2&#45;&gt;SG_1_Node_7 -->
<g id="edge11" class="edge">
<title>SG_1_Node_2&#45;&gt;SG_1_Node_7</title>
<path fill="none" stroke="black" d="M1517,-794.75C1517,-749.45 1517,-626.17 1517,-568.28"/>
<polygon fill="black" stroke="black" points="1520.5,-567.95 1517,-557.95 1513.5,-567.95 1520.5,-567.95"/>
<text text-anchor="middle" x="1746" y="-680.71" font-family="Times,serif" font-size="20.00">firefox iPadOS 17.2 121.0 (36782) intent real</text>
<text text-anchor="middle" x="1746" y="-658.71" font-family="Times,serif" font-size="20.00">operagx iPadOS 17.2 2.2.2 intent real</text>
</g>
<!-- SG_1_Node_8 -->
<g id="node16" class="node">
<title>SG_1_Node_8</title>
<ellipse fill="none" stroke="black" cx="1998" cy="-536.49" rx="33.88" ry="21.43"/>
<text text-anchor="middle" x="1998" y="-531.49" font-family="Times,serif" font-size="20.00">1.0</text>
</g>
<!-- SG_1_Node_2&#45;&gt;SG_1_Node_8 -->
<g id="edge12" class="edge">
<title>SG_1_Node_2&#45;&gt;SG_1_Node_8</title>
<path fill="none" stroke="black" d="M1567.5,-811.3C1680.77,-809.41 1947.45,-801.98 1976,-773.71 2030.92,-719.32 2017.15,-617.75 2005.88,-567.38"/>
<polygon fill="black" stroke="black" points="2009.24,-566.38 2003.54,-557.45 2002.42,-567.99 2009.24,-566.38"/>
<text text-anchor="middle" x="2061.5" y="-680.71" font-family="Times,serif" font-size="20.00">[NA]</text>
<text text-anchor="middle" x="2061.5" y="-658.71" font-family="Times,serif" font-size="20.00">26 levels</text>
</g>
<!-- SG_1_Node_9 -->
<g id="node17" class="node">
<title>SG_1_Node_9</title>
<ellipse fill="none" stroke="black" cx="920" cy="-414.07" rx="33.88" ry="21.43"/>
<text text-anchor="middle" x="920" y="-409.07" font-family="Times,serif" font-size="20.00">0.0</text>
</g>
<!-- SG_1_Node_3&#45;&gt;SG_1_Node_9 -->
<g id="edge15" class="edge">
<title>SG_1_Node_3&#45;&gt;SG_1_Node_9</title>
<path fill="none" stroke="black" d="M930.45,-518.31C927.94,-511.84 925.43,-504.34 924,-497.28 920.59,-480.44 919.5,-461.28 919.3,-445.69"/>
<polygon fill="black" stroke="black" points="922.8,-445.55 919.29,-435.55 915.8,-445.55 922.8,-445.55"/>
<text text-anchor="middle" x="969.5" y="-481.28" font-family="Times,serif" font-size="20.00">[NA]</text>
<text text-anchor="middle" x="969.5" y="-459.28" font-family="Times,serif" font-size="20.00">11 levels</text>
</g>
<!-- SG_1_Node_4 -->
<g id="node18" class="node">
<title>SG_1_Node_4</title>
<polygon fill="none" stroke="black" points="1104,-432.07 972,-432.07 972,-396.07 1104,-396.07 1104,-432.07"/>
<text text-anchor="middle" x="1038" y="-409.07" font-family="Times,serif" font-size="20.00">resp_origin</text>
</g>
<!-- SG_1_Node_3&#45;&gt;SG_1_Node_4 -->
<g id="edge16" class="edge">
<title>SG_1_Node_3&#45;&gt;SG_1_Node_4</title>
<path fill="none" stroke="black" d="M987.94,-518.34C998.04,-512.93 1007.77,-506.02 1015,-497.28 1027.76,-481.87 1033.46,-459.85 1035.99,-442.48"/>
<polygon fill="black" stroke="black" points="1039.49,-442.71 1037.2,-432.36 1032.54,-441.88 1039.49,-442.71"/>
<text text-anchor="middle" x="1379.5" y="-470.28" font-family="Times,serif" font-size="20.00">[[&#39;Feature&#45;Policy&#39;, &#39;fullscreen https://sub.headers.websec.saarland&#39;]]</text>
</g>
<!-- SG_1_Node_10 -->
<g id="node19" class="node">
<title>SG_1_Node_10</title>
<ellipse fill="none" stroke="black" cx="924" cy="-159.64" rx="33.88" ry="21.43"/>
<text text-anchor="middle" x="924" y="-154.64" font-family="Times,serif" font-size="20.00">0.0</text>
</g>
<!-- SG_1_Node_4&#45;&gt;SG_1_Node_10 -->
<g id="edge17" class="edge">
<title>SG_1_Node_4&#45;&gt;SG_1_Node_10</title>
<path fill="none" stroke="black" d="M978.01,-396.04C952.86,-388.31 928.57,-379.81 925,-374.85 885.45,-320 901.58,-234.99 914.25,-190.35"/>
<polygon fill="black" stroke="black" points="917.62,-191.26 917.11,-180.68 910.91,-189.27 917.62,-191.26"/>
<text text-anchor="middle" x="1132.5" y="-358.85" font-family="Times,serif" font-size="20.00">[NA]</text>
<text text-anchor="middle" x="1132.5" y="-336.85" font-family="Times,serif" font-size="20.00">http://headers.webappsec.eu</text>
<text text-anchor="middle" x="1132.5" y="-314.85" font-family="Times,serif" font-size="20.00">http://headers.websec.saarland</text>
<text text-anchor="middle" x="1132.5" y="-292.85" font-family="Times,serif" font-size="20.00">http://sub.headers.websec.saarland</text>
<text text-anchor="middle" x="1132.5" y="-270.85" font-family="Times,serif" font-size="20.00">http://sub.sub.headers.websec.saarland</text>
<text text-anchor="middle" x="1132.5" y="-248.85" font-family="Times,serif" font-size="20.00">https://headers.webappsec.eu</text>
<text text-anchor="middle" x="1132.5" y="-226.85" font-family="Times,serif" font-size="20.00">https://headers.websec.saarland</text>
<text text-anchor="middle" x="1132.5" y="-204.85" font-family="Times,serif" font-size="20.00">https://sub.sub.headers.websec.saarland</text>
</g>
<!-- SG_1_Node_5 -->
<g id="node20" class="node">
<title>SG_1_Node_5</title>
<polygon fill="none" stroke="black" points="1412.5,-177.64 1311.5,-177.64 1311.5,-141.64 1412.5,-141.64 1412.5,-177.64"/>
<text text-anchor="middle" x="1362" y="-154.64" font-family="Times,serif" font-size="20.00">browser</text>
</g>
<!-- SG_1_Node_4&#45;&gt;SG_1_Node_5 -->
<g id="edge18" class="edge">
<title>SG_1_Node_4&#45;&gt;SG_1_Node_5</title>
<path fill="none" stroke="black" d="M1104.29,-413.92C1183.2,-413.42 1308.29,-407.32 1340,-374.85 1388.97,-324.71 1378.02,-233.13 1368.64,-187.69"/>
<polygon fill="black" stroke="black" points="1372.01,-186.72 1366.45,-177.7 1365.17,-188.22 1372.01,-186.72"/>
<text text-anchor="middle" x="1562.5" y="-281.85" font-family="Times,serif" font-size="20.00">https://sub.headers.websec.saarland</text>
</g>
<!-- SG_1_Node_11 -->
<g id="node21" class="node">
<title>SG_1_Node_11</title>
<ellipse fill="none" stroke="black" cx="1132" cy="-37.21" rx="33.88" ry="21.43"/>
<text text-anchor="middle" x="1132" y="-32.21" font-family="Times,serif" font-size="20.00">0.0</text>
</g>
<!-- SG_1_Node_5&#45;&gt;SG_1_Node_11 -->
<g id="edge19" class="edge">
<title>SG_1_Node_5&#45;&gt;SG_1_Node_11</title>
<path fill="none" stroke="black" d="M1311.24,-157.49C1250.9,-154.92 1155.53,-146.7 1133,-120.43 1121,-106.43 1120.85,-85.62 1123.66,-68.44"/>
<polygon fill="black" stroke="black" points="1127.15,-68.8 1125.7,-58.31 1120.29,-67.42 1127.15,-68.8"/>
<text text-anchor="middle" x="1362" y="-104.43" font-family="Times,serif" font-size="20.00">firefox iPadOS 17.2 121.0 (36782) intent real</text>
<text text-anchor="middle" x="1362" y="-82.43" font-family="Times,serif" font-size="20.00">operagx iPadOS 17.2 2.2.2 intent real</text>
</g>
<!-- SG_1_Node_12 -->
<g id="node22" class="node">
<title>SG_1_Node_12</title>
<ellipse fill="none" stroke="black" cx="1613" cy="-37.21" rx="33.88" ry="21.43"/>
<text text-anchor="middle" x="1613" y="-32.21" font-family="Times,serif" font-size="20.00">1.0</text>
</g>
<!-- SG_1_Node_5&#45;&gt;SG_1_Node_12 -->
<g id="edge20" class="edge">
<title>SG_1_Node_5&#45;&gt;SG_1_Node_12</title>
<path fill="none" stroke="black" d="M1412.54,-156.46C1471.88,-152.86 1565.49,-143.6 1591,-120.43 1605.22,-107.51 1610.67,-86.51 1612.59,-68.97"/>
<polygon fill="black" stroke="black" points="1616.11,-68.83 1613.38,-58.59 1609.13,-68.3 1616.11,-68.83"/>
<text text-anchor="middle" x="1656.5" y="-104.43" font-family="Times,serif" font-size="20.00">[NA]</text>
<text text-anchor="middle" x="1656.5" y="-82.43" font-family="Times,serif" font-size="20.00">17 levels</text>
</g>
<!-- SG_2_Node_0 -->
<g id="node23" class="node">
<title>SG_2_Node_0</title>
<polygon fill="none" stroke="black" points="2262.5,-1126.13 2161.5,-1126.13 2161.5,-1090.13 2262.5,-1090.13 2262.5,-1126.13"/>
<text text-anchor="middle" x="2212" y="-1103.13" font-family="Times,serif" font-size="20.00">browser</text>
</g>
<!-- SG_2_Node_1 -->
<g id="node24" class="node">
<title>SG_2_Node_1</title>
<ellipse fill="none" stroke="black" cx="2179" cy="-812.92" rx="33.88" ry="21.43"/>
<text text-anchor="middle" x="2179" y="-807.92" font-family="Times,serif" font-size="20.00">0.0</text>
</g>
<!-- SG_2_Node_0&#45;&gt;SG_2_Node_1 -->
<g id="edge21" class="edge">
<title>SG_2_Node_0&#45;&gt;SG_2_Node_1</title>
<path fill="none" stroke="black" d="M2191.81,-1090.05C2187.03,-1084.84 2182.58,-1078.73 2180,-1072.13 2149.77,-994.71 2162.8,-894 2172.29,-844.34"/>
<polygon fill="black" stroke="black" points="2175.77,-844.75 2174.3,-834.26 2168.91,-843.38 2175.77,-844.75"/>
<text text-anchor="middle" x="2225.5" y="-968.13" font-family="Times,serif" font-size="20.00">[NA]</text>
<text text-anchor="middle" x="2225.5" y="-946.13" font-family="Times,serif" font-size="20.00">26 levels</text>
</g>
<!-- SG_2_Node_2 -->
<g id="node25" class="node">
<title>SG_2_Node_2</title>
<ellipse fill="none" stroke="black" cx="2293" cy="-812.92" rx="33.88" ry="21.43"/>
<text text-anchor="middle" x="2293" y="-807.92" font-family="Times,serif" font-size="20.00">1.0</text>
</g>
<!-- SG_2_Node_0&#45;&gt;SG_2_Node_2 -->
<g id="edge22" class="edge">
<title>SG_2_Node_0&#45;&gt;SG_2_Node_2</title>
<path fill="none" stroke="black" d="M2252.86,-1089.94C2259.97,-1085.18 2266.51,-1079.3 2271,-1072.13 2315.75,-1000.79 2306.82,-895.72 2298.79,-844.4"/>
<polygon fill="black" stroke="black" points="2302.2,-843.58 2297.1,-834.29 2295.29,-844.73 2302.2,-843.58"/>
<text text-anchor="middle" x="2534" y="-968.13" font-family="Times,serif" font-size="20.00">firefox iPadOS 17.2 121.0 (36782) intent real</text>
<text text-anchor="middle" x="2534" y="-946.13" font-family="Times,serif" font-size="20.00">operagx iPadOS 17.2 2.2.2 intent real</text>
</g>
</g>
</svg>
