<?xml version="1.0" encoding="UTF-8" standalone="no"?>
<!DOCTYPE svg PUBLIC "-//W3C//DTD SVG 1.1//EN"
 "http://www.w3.org/Graphics/SVG/1.1/DTD/svg11.dtd">
<!-- Generated by graphviz version 2.43.0 (0)
 -->
<!-- Title: G Pages: 1 -->
<svg width="4017pt" height="1523pt"
 viewBox="0.00 0.00 4017.00 1522.56" xmlns="http://www.w3.org/2000/svg" xmlns:xlink="http://www.w3.org/1999/xlink">
<g id="graph0" class="graph" transform="scale(1 1) rotate(0) translate(4 1518.56)">
<title>G</title>
<polygon fill="white" stroke="transparent" points="-4,4 -4,-1518.56 4013,-1518.56 4013,4 -4,4"/>
<g id="clust1" class="cluster">
<title>cluster_0</title>
<polygon fill="none" stroke="black" points="8,-8 8,-1506.56 1858,-1506.56 1858,-8 8,-8"/>
<text text-anchor="middle" x="933" y="-1470.56" font-family="Times,serif" font-size="40.00">Tree 0, Class fullscreenEnabled: false</text>
</g>
<g id="clust9" class="cluster">
<title>cluster_1</title>
<polygon fill="none" stroke="black" points="1866,-8 1866,-1506.56 3102,-1506.56 3102,-8 1866,-8"/>
<text text-anchor="middle" x="2484" y="-1470.56" font-family="Times,serif" font-size="40.00">Tree 0, Class fullscreenEnabled: true</text>
</g>
<g id="clust17" class="cluster">
<title>cluster_2</title>
<polygon fill="none" stroke="black" points="3110,-1170.13 3110,-1506.56 4001,-1506.56 4001,-1170.13 3110,-1170.13"/>
<text text-anchor="middle" x="3555.5" y="-1470.56" font-family="Times,serif" font-size="40.00">Tree 0, Class fullscreenEnabled: undefined</text>
</g>
<!-- SG_0_Node_0 -->
<g id="node1" class="node">
<title>SG_0_Node_0</title>
<polygon fill="none" stroke="black" points="366.5,-1446.56 265.5,-1446.56 265.5,-1410.56 366.5,-1410.56 366.5,-1446.56"/>
<text text-anchor="middle" x="316" y="-1423.56" font-family="Times,serif" font-size="20.00">browser</text>
</g>
<!-- SG_0_Node_7 -->
<g id="node2" class="node">
<title>SG_0_Node_7</title>
<ellipse fill="none" stroke="black" cx="183" cy="-1199.35" rx="33.88" ry="21.43"/>
<text text-anchor="middle" x="183" y="-1194.35" font-family="Times,serif" font-size="20.00">0.0</text>
</g>
<!-- SG_0_Node_0&#45;&gt;SG_0_Node_7 -->
<g id="edge1" class="edge">
<title>SG_0_Node_0&#45;&gt;SG_0_Node_7</title>
<path fill="none" stroke="black" d="M265.16,-1420.54C232.41,-1414.86 194.12,-1405.64 184,-1392.56 147.67,-1345.6 161.36,-1271.07 173.08,-1229.97"/>
<polygon fill="black" stroke="black" points="176.47,-1230.87 175.99,-1220.28 169.77,-1228.85 176.47,-1230.87"/>
<text text-anchor="middle" x="430.5" y="-1332.56" font-family="Times,serif" font-size="20.00">brave iPadOS 17.2 1.61 (23.12.18.22) intent real</text>
<text text-anchor="middle" x="430.5" y="-1310.56" font-family="Times,serif" font-size="20.00">firefox iPadOS 17.2 121.0 (36782) intent real</text>
<text text-anchor="middle" x="430.5" y="-1288.56" font-family="Times,serif" font-size="20.00">operagx iPadOS 17.2 2.2.2 intent real</text>
</g>
<!-- SG_0_Node_1 -->
<g id="node3" class="node">
<title>SG_0_Node_1</title>
<polygon fill="none" stroke="black" points="765,-1217.35 633,-1217.35 633,-1181.35 765,-1181.35 765,-1217.35"/>
<text text-anchor="middle" x="699" y="-1194.35" font-family="Times,serif" font-size="20.00">resp_origin</text>
</g>
<!-- SG_0_Node_0&#45;&gt;SG_0_Node_1 -->
<g id="edge2" class="edge">
<title>SG_0_Node_0&#45;&gt;SG_0_Node_1</title>
<path fill="none" stroke="black" d="M366.53,-1426.12C460.65,-1422.96 655.3,-1413.88 677,-1392.56 720.96,-1349.35 713.2,-1269.31 705.28,-1227.45"/>
<polygon fill="black" stroke="black" points="708.67,-1226.54 703.24,-1217.44 701.81,-1227.93 708.67,-1226.54"/>
<text text-anchor="middle" x="756.5" y="-1321.56" font-family="Times,serif" font-size="20.00">[NA]</text>
<text text-anchor="middle" x="756.5" y="-1299.56" font-family="Times,serif" font-size="20.00">25 levels</text>
</g>
<!-- SG_0_Node_2 -->
<g id="node4" class="node">
<title>SG_0_Node_2</title>
<polygon fill="none" stroke="black" points="726.5,-984.92 589.5,-984.92 589.5,-948.92 726.5,-948.92 726.5,-984.92"/>
<text text-anchor="middle" x="658" y="-961.92" font-family="Times,serif" font-size="20.00">raw_header</text>
</g>
<!-- SG_0_Node_1&#45;&gt;SG_0_Node_2 -->
<g id="edge3" class="edge">
<title>SG_0_Node_1&#45;&gt;SG_0_Node_2</title>
<path fill="none" stroke="black" d="M674.67,-1180.99C668.38,-1175.15 662.42,-1168.07 659,-1160.13 635.41,-1105.36 644.27,-1033.4 651.77,-994.93"/>
<polygon fill="black" stroke="black" points="655.22,-995.51 653.82,-985.01 648.36,-994.1 655.22,-995.51"/>
<text text-anchor="middle" x="845.5" y="-1089.13" font-family="Times,serif" font-size="20.00">http://sub.headers.websec.saarland</text>
<text text-anchor="middle" x="845.5" y="-1067.13" font-family="Times,serif" font-size="20.00">https://sub.headers.websec.saarland</text>
</g>
<!-- SG_0_Node_8 -->
<g id="node5" class="node">
<title>SG_0_Node_8</title>
<ellipse fill="none" stroke="black" cx="1054" cy="-966.92" rx="33.88" ry="21.43"/>
<text text-anchor="middle" x="1054" y="-961.92" font-family="Times,serif" font-size="20.00">1.0</text>
</g>
<!-- SG_0_Node_1&#45;&gt;SG_0_Node_8 -->
<g id="edge4" class="edge">
<title>SG_0_Node_1&#45;&gt;SG_0_Node_8</title>
<path fill="none" stroke="black" d="M765.11,-1195.12C856.81,-1189.99 1013.51,-1178.63 1032,-1160.13 1074.47,-1117.65 1068.34,-1040.71 1060.78,-998.2"/>
<polygon fill="black" stroke="black" points="1064.18,-997.33 1058.86,-988.17 1057.31,-998.65 1064.18,-997.33"/>
<text text-anchor="middle" x="1273.5" y="-1144.13" font-family="Times,serif" font-size="20.00">[NA]</text>
<text text-anchor="middle" x="1273.5" y="-1122.13" font-family="Times,serif" font-size="20.00">http://headers.webappsec.eu</text>
<text text-anchor="middle" x="1273.5" y="-1100.13" font-family="Times,serif" font-size="20.00">http://headers.websec.saarland</text>
<text text-anchor="middle" x="1273.5" y="-1078.13" font-family="Times,serif" font-size="20.00">http://sub.sub.headers.websec.saarland</text>
<text text-anchor="middle" x="1273.5" y="-1056.13" font-family="Times,serif" font-size="20.00">https://headers.webappsec.eu</text>
<text text-anchor="middle" x="1273.5" y="-1034.13" font-family="Times,serif" font-size="20.00">https://headers.websec.saarland</text>
<text text-anchor="middle" x="1273.5" y="-1012.13" font-family="Times,serif" font-size="20.00">https://sub.sub.headers.websec.saarland</text>
</g>
<!-- SG_0_Node_3 -->
<g id="node6" class="node">
<title>SG_0_Node_3</title>
<polygon fill="none" stroke="black" points="605.5,-708.49 468.5,-708.49 468.5,-672.49 605.5,-672.49 605.5,-708.49"/>
<text text-anchor="middle" x="537" y="-685.49" font-family="Times,serif" font-size="20.00">raw_header</text>
</g>
<!-- SG_0_Node_2&#45;&gt;SG_0_Node_3 -->
<g id="edge5" class="edge">
<title>SG_0_Node_2&#45;&gt;SG_0_Node_3</title>
<path fill="none" stroke="black" d="M650.43,-948.75C629.93,-902.26 573.23,-773.67 548.63,-717.88"/>
<polygon fill="black" stroke="black" points="551.8,-716.39 544.57,-708.65 545.4,-719.21 551.8,-716.39"/>
<text text-anchor="middle" x="685.5" y="-834.71" font-family="Times,serif" font-size="20.00">[NA]</text>
<text text-anchor="middle" x="685.5" y="-812.71" font-family="Times,serif" font-size="20.00">11 levels</text>
</g>
<!-- SG_0_Node_4 -->
<g id="node7" class="node">
<title>SG_0_Node_4</title>
<polygon fill="none" stroke="black" points="1301.5,-708.49 1200.5,-708.49 1200.5,-672.49 1301.5,-672.49 1301.5,-708.49"/>
<text text-anchor="middle" x="1251" y="-685.49" font-family="Times,serif" font-size="20.00">browser</text>
</g>
<!-- SG_0_Node_2&#45;&gt;SG_0_Node_4 -->
<g id="edge6" class="edge">
<title>SG_0_Node_2&#45;&gt;SG_0_Node_4</title>
<path fill="none" stroke="black" d="M695.09,-948.75C798.68,-900.82 1090.86,-765.6 1204.75,-712.9"/>
<polygon fill="black" stroke="black" points="1206.31,-716.03 1213.92,-708.65 1203.37,-709.68 1206.31,-716.03"/>
<text text-anchor="middle" x="1209.5" y="-823.71" font-family="Times,serif" font-size="20.00">11 levels</text>
</g>
<!-- SG_0_Node_9 -->
<g id="node8" class="node">
<title>SG_0_Node_9</title>
<ellipse fill="none" stroke="black" cx="50" cy="-370.07" rx="33.88" ry="21.43"/>
<text text-anchor="middle" x="50" y="-365.07" font-family="Times,serif" font-size="20.00">0.0</text>
</g>
<!-- SG_0_Node_3&#45;&gt;SG_0_Node_9 -->
<g id="edge9" class="edge">
<title>SG_0_Node_3&#45;&gt;SG_0_Node_9</title>
<path fill="none" stroke="black" d="M468.04,-689.08C341.08,-687.61 80.73,-680.96 53,-651.28 -11.38,-582.36 20.02,-457.13 39.06,-400.4"/>
<polygon fill="black" stroke="black" points="42.37,-401.54 42.34,-390.95 35.76,-399.25 42.37,-401.54"/>
<text text-anchor="middle" x="293" y="-635.28" font-family="Times,serif" font-size="20.00">[NA]</text>
<text text-anchor="middle" x="293" y="-613.28" font-family="Times,serif" font-size="20.00">[[&#39;Feature&#45;Policy&#39;, &quot;fullscreen &#39;self&#39;&quot;]]</text>
<text text-anchor="middle" x="293" y="-591.28" font-family="Times,serif" font-size="20.00">[[&#39;Feature&#45;Policy&#39;, &#39;fullscreen *&#39;]]</text>
<text text-anchor="middle" x="293" y="-569.28" font-family="Times,serif" font-size="20.00">[[&#39;Permissions&#45;Policy&#39;, &#39;*&#39;]]</text>
<text text-anchor="middle" x="293" y="-547.28" font-family="Times,serif" font-size="20.00">[[&#39;Permissions&#45;Policy&#39;, &#39;fullscreen=&#39;]]</text>
<text text-anchor="middle" x="293" y="-525.28" font-family="Times,serif" font-size="20.00">[[&#39;Permissions&#45;Policy&#39;, &#39;fullscreen=(self none)&#39;]]</text>
<text text-anchor="middle" x="293" y="-503.28" font-family="Times,serif" font-size="20.00">[[&#39;Permissions&#45;Policy&#39;, &#39;fullscreen=(self)&#39;]]</text>
<text text-anchor="middle" x="293" y="-481.28" font-family="Times,serif" font-size="20.00">[[&#39;Permissions&#45;Policy&#39;, &#39;fullscreen=(self,none)&#39;]]</text>
<text text-anchor="middle" x="293" y="-459.28" font-family="Times,serif" font-size="20.00">[[&#39;Permissions&#45;Policy&#39;, &#39;fullscreen=*&#39;]]</text>
<text text-anchor="middle" x="293" y="-437.28" font-family="Times,serif" font-size="20.00">[[&#39;Permissions&#45;Policy&#39;, &#39;null&#39;]]</text>
<text text-anchor="middle" x="293" y="-415.28" font-family="Times,serif" font-size="20.00">[]</text>
</g>
<!-- SG_0_Node_5 -->
<g id="node9" class="node">
<title>SG_0_Node_5</title>
<polygon fill="none" stroke="black" points="598,-388.07 476,-388.07 476,-352.07 598,-352.07 598,-388.07"/>
<text text-anchor="middle" x="537" y="-365.07" font-family="Times,serif" font-size="20.00">org_origin</text>
</g>
<!-- SG_0_Node_3&#45;&gt;SG_0_Node_5 -->
<g id="edge10" class="edge">
<title>SG_0_Node_3&#45;&gt;SG_0_Node_5</title>
<path fill="none" stroke="black" d="M537,-672.37C537,-620.11 537,-462.29 537,-398.38"/>
<polygon fill="black" stroke="black" points="540.5,-398.27 537,-388.27 533.5,-398.27 540.5,-398.27"/>
<text text-anchor="middle" x="882.5" y="-525.28" font-family="Times,serif" font-size="20.00">[[&#39;Feature&#45;Policy&#39;, &#39;fullscreen https://sub.headers.websec.saarland&#39;]]</text>
</g>
<!-- SG_0_Node_10 -->
<g id="node10" class="node">
<title>SG_0_Node_10</title>
<ellipse fill="none" stroke="black" cx="1251" cy="-370.07" rx="33.88" ry="21.43"/>
<text text-anchor="middle" x="1251" y="-365.07" font-family="Times,serif" font-size="20.00">0.0</text>
</g>
<!-- SG_0_Node_4&#45;&gt;SG_0_Node_10 -->
<g id="edge7" class="edge">
<title>SG_0_Node_4&#45;&gt;SG_0_Node_10</title>
<path fill="none" stroke="black" d="M1251,-672.37C1251,-620.98 1251,-467.52 1251,-401.65"/>
<polygon fill="black" stroke="black" points="1254.5,-401.5 1251,-391.5 1247.5,-401.5 1254.5,-401.5"/>
<text text-anchor="middle" x="1493.5" y="-602.28" font-family="Times,serif" font-size="20.00">chrome iPadOS 17.2 120.0.6099.119 intent real</text>
<text text-anchor="middle" x="1493.5" y="-580.28" font-family="Times,serif" font-size="20.00">edge iPadOS 17.2 120.0.2210.116 intent real</text>
<text text-anchor="middle" x="1493.5" y="-558.28" font-family="Times,serif" font-size="20.00">firefox Ubuntu 22.04 119 selenium headless</text>
<text text-anchor="middle" x="1493.5" y="-536.28" font-family="Times,serif" font-size="20.00">firefox Ubuntu 22.04 119 selenium xvfb</text>
<text text-anchor="middle" x="1493.5" y="-514.28" font-family="Times,serif" font-size="20.00">firefox macOS 14.2.1 120 selenium headless</text>
<text text-anchor="middle" x="1493.5" y="-492.28" font-family="Times,serif" font-size="20.00">firefox macOS 14.2.1 120 selenium real</text>
<text text-anchor="middle" x="1493.5" y="-470.28" font-family="Times,serif" font-size="20.00">firefox_beta Android 11 122.0b1 intent real</text>
<text text-anchor="middle" x="1493.5" y="-448.28" font-family="Times,serif" font-size="20.00">safari macOS 14.2.1 17.2 selenium real</text>
</g>
<!-- SG_0_Node_11 -->
<g id="node11" class="node">
<title>SG_0_Node_11</title>
<ellipse fill="none" stroke="black" cx="1759" cy="-370.07" rx="33.88" ry="21.43"/>
<text text-anchor="middle" x="1759" y="-365.07" font-family="Times,serif" font-size="20.00">1.0</text>
</g>
<!-- SG_0_Node_4&#45;&gt;SG_0_Node_11 -->
<g id="edge8" class="edge">
<title>SG_0_Node_4&#45;&gt;SG_0_Node_11</title>
<path fill="none" stroke="black" d="M1301.84,-689.15C1420.24,-687.85 1706.7,-681.58 1737,-651.28 1771.32,-616.96 1765.59,-466.78 1761.32,-401.52"/>
<polygon fill="black" stroke="black" points="1764.81,-401.18 1760.63,-391.45 1757.83,-401.66 1764.81,-401.18"/>
<text text-anchor="middle" x="1809.5" y="-536.28" font-family="Times,serif" font-size="20.00">[NA]</text>
<text text-anchor="middle" x="1809.5" y="-514.28" font-family="Times,serif" font-size="20.00">17 levels</text>
</g>
<!-- SG_0_Node_12 -->
<g id="node12" class="node">
<title>SG_0_Node_12</title>
<ellipse fill="none" stroke="black" cx="151" cy="-247.64" rx="33.88" ry="21.43"/>
<text text-anchor="middle" x="151" y="-242.64" font-family="Times,serif" font-size="20.00">0.0</text>
</g>
<!-- SG_0_Node_5&#45;&gt;SG_0_Node_12 -->
<g id="edge11" class="edge">
<title>SG_0_Node_5&#45;&gt;SG_0_Node_12</title>
<path fill="none" stroke="black" d="M475.74,-366.87C375.45,-362.68 185.1,-352.02 163,-330.85 149.46,-317.88 146.57,-296.88 147.02,-279.35"/>
<polygon fill="black" stroke="black" points="150.53,-279.18 147.66,-268.99 143.55,-278.75 150.53,-279.18"/>
<text text-anchor="middle" x="349.5" y="-314.85" font-family="Times,serif" font-size="20.00">[NA]</text>
<text text-anchor="middle" x="349.5" y="-292.85" font-family="Times,serif" font-size="20.00">https://sub.headers.websec.saarland</text>
</g>
<!-- SG_0_Node_6 -->
<g id="node13" class="node">
<title>SG_0_Node_6</title>
<polygon fill="none" stroke="black" points="597.5,-265.64 496.5,-265.64 496.5,-229.64 597.5,-229.64 597.5,-265.64"/>
<text text-anchor="middle" x="547" y="-242.64" font-family="Times,serif" font-size="20.00">browser</text>
</g>
<!-- SG_0_Node_5&#45;&gt;SG_0_Node_6 -->
<g id="edge12" class="edge">
<title>SG_0_Node_5&#45;&gt;SG_0_Node_6</title>
<path fill="none" stroke="black" d="M538.43,-351.81C540.07,-332.05 542.78,-299.4 544.72,-276.13"/>
<polygon fill="black" stroke="black" points="548.23,-276.12 545.57,-265.86 541.25,-275.54 548.23,-276.12"/>
<text text-anchor="middle" x="724.5" y="-303.85" font-family="Times,serif" font-size="20.00">http://sub.headers.websec.saarland</text>
</g>
<!-- SG_0_Node_13 -->
<g id="node14" class="node">
<title>SG_0_Node_13</title>
<ellipse fill="none" stroke="black" cx="298" cy="-37.21" rx="33.88" ry="21.43"/>
<text text-anchor="middle" x="298" y="-32.21" font-family="Times,serif" font-size="20.00">0.0</text>
</g>
<!-- SG_0_Node_6&#45;&gt;SG_0_Node_13 -->
<g id="edge13" class="edge">
<title>SG_0_Node_6&#45;&gt;SG_0_Node_13</title>
<path fill="none" stroke="black" d="M496.26,-246.27C431.26,-244.59 323.97,-237.37 299,-208.43 265.56,-169.67 276.92,-105.43 287.76,-67.94"/>
<polygon fill="black" stroke="black" points="291.18,-68.71 290.76,-58.12 284.49,-66.66 291.18,-68.71"/>
<text text-anchor="middle" x="541.5" y="-192.43" font-family="Times,serif" font-size="20.00">chrome iPadOS 17.2 120.0.6099.119 intent real</text>
<text text-anchor="middle" x="541.5" y="-170.43" font-family="Times,serif" font-size="20.00">edge iPadOS 17.2 120.0.2210.116 intent real</text>
<text text-anchor="middle" x="541.5" y="-148.43" font-family="Times,serif" font-size="20.00">firefox Ubuntu 22.04 119 selenium headless</text>
<text text-anchor="middle" x="541.5" y="-126.43" font-family="Times,serif" font-size="20.00">firefox Ubuntu 22.04 119 selenium xvfb</text>
<text text-anchor="middle" x="541.5" y="-104.43" font-family="Times,serif" font-size="20.00">firefox macOS 14.2.1 120 selenium headless</text>
<text text-anchor="middle" x="541.5" y="-82.43" font-family="Times,serif" font-size="20.00">firefox macOS 14.2.1 120 selenium real</text>
</g>
<!-- SG_0_Node_14 -->
<g id="node15" class="node">
<title>SG_0_Node_14</title>
<ellipse fill="none" stroke="black" cx="806" cy="-37.21" rx="33.88" ry="21.43"/>
<text text-anchor="middle" x="806" y="-32.21" font-family="Times,serif" font-size="20.00">1.0</text>
</g>
<!-- SG_0_Node_6&#45;&gt;SG_0_Node_14 -->
<g id="edge14" class="edge">
<title>SG_0_Node_6&#45;&gt;SG_0_Node_14</title>
<path fill="none" stroke="black" d="M597.67,-245.36C659.5,-242.66 758.91,-234.31 784,-208.43 819.92,-171.36 817.3,-106.53 811.85,-68.47"/>
<polygon fill="black" stroke="black" points="815.3,-67.82 810.27,-58.49 808.38,-68.92 815.3,-67.82"/>
<text text-anchor="middle" x="860.5" y="-148.43" font-family="Times,serif" font-size="20.00">[NA]</text>
<text text-anchor="middle" x="860.5" y="-126.43" font-family="Times,serif" font-size="20.00">19 levels</text>
</g>
<!-- SG_1_Node_0 -->
<g id="node16" class="node">
<title>SG_1_Node_0</title>
<polygon fill="none" stroke="black" points="2349,-1446.56 2217,-1446.56 2217,-1410.56 2349,-1410.56 2349,-1446.56"/>
<text text-anchor="middle" x="2283" y="-1423.56" font-family="Times,serif" font-size="20.00">resp_origin</text>
</g>
<!-- SG_1_Node_1 -->
<g id="node17" class="node">
<title>SG_1_Node_1</title>
<polygon fill="none" stroke="black" points="2056.5,-1217.35 1955.5,-1217.35 1955.5,-1181.35 2056.5,-1181.35 2056.5,-1217.35"/>
<text text-anchor="middle" x="2006" y="-1194.35" font-family="Times,serif" font-size="20.00">browser</text>
</g>
<!-- SG_1_Node_0&#45;&gt;SG_1_Node_1 -->
<g id="edge15" class="edge">
<title>SG_1_Node_0&#45;&gt;SG_1_Node_1</title>
<path fill="none" stroke="black" d="M2216.96,-1427.58C2149.38,-1426.1 2050.73,-1419.24 2025,-1392.56 1982.39,-1348.37 1991,-1269.09 1999.37,-1227.5"/>
<polygon fill="black" stroke="black" points="2002.83,-1228.06 2001.52,-1217.55 1995.99,-1226.58 2002.83,-1228.06"/>
<text text-anchor="middle" x="2232.5" y="-1376.56" font-family="Times,serif" font-size="20.00">[NA]</text>
<text text-anchor="middle" x="2232.5" y="-1354.56" font-family="Times,serif" font-size="20.00">http://headers.webappsec.eu</text>
<text text-anchor="middle" x="2232.5" y="-1332.56" font-family="Times,serif" font-size="20.00">http://headers.websec.saarland</text>
<text text-anchor="middle" x="2232.5" y="-1310.56" font-family="Times,serif" font-size="20.00">http://sub.sub.headers.websec.saarland</text>
<text text-anchor="middle" x="2232.5" y="-1288.56" font-family="Times,serif" font-size="20.00">https://headers.webappsec.eu</text>
<text text-anchor="middle" x="2232.5" y="-1266.56" font-family="Times,serif" font-size="20.00">https://headers.websec.saarland</text>
<text text-anchor="middle" x="2232.5" y="-1244.56" font-family="Times,serif" font-size="20.00">https://sub.sub.headers.websec.saarland</text>
</g>
<!-- SG_1_Node_2 -->
<g id="node18" class="node">
<title>SG_1_Node_2</title>
<polygon fill="none" stroke="black" points="2590.5,-1217.35 2453.5,-1217.35 2453.5,-1181.35 2590.5,-1181.35 2590.5,-1217.35"/>
<text text-anchor="middle" x="2522" y="-1194.35" font-family="Times,serif" font-size="20.00">raw_header</text>
</g>
<!-- SG_1_Node_0&#45;&gt;SG_1_Node_2 -->
<g id="edge16" class="edge">
<title>SG_1_Node_0&#45;&gt;SG_1_Node_2</title>
<path fill="none" stroke="black" d="M2349.13,-1419.5C2386.88,-1413.71 2429.5,-1404.76 2444,-1392.56 2494.56,-1350 2512.72,-1269.67 2518.94,-1227.61"/>
<polygon fill="black" stroke="black" points="2522.43,-1227.92 2520.31,-1217.54 2515.5,-1226.98 2522.43,-1227.92"/>
<text text-anchor="middle" x="2702.5" y="-1321.56" font-family="Times,serif" font-size="20.00">http://sub.headers.websec.saarland</text>
<text text-anchor="middle" x="2702.5" y="-1299.56" font-family="Times,serif" font-size="20.00">https://sub.headers.websec.saarland</text>
</g>
<!-- SG_1_Node_8 -->
<g id="node19" class="node">
<title>SG_1_Node_8</title>
<ellipse fill="none" stroke="black" cx="1908" cy="-966.92" rx="33.88" ry="21.43"/>
<text text-anchor="middle" x="1908" y="-961.92" font-family="Times,serif" font-size="20.00">0.0</text>
</g>
<!-- SG_1_Node_1&#45;&gt;SG_1_Node_8 -->
<g id="edge29" class="edge">
<title>SG_1_Node_1&#45;&gt;SG_1_Node_8</title>
<path fill="none" stroke="black" d="M1955.27,-1191.23C1936.6,-1185.88 1917.28,-1176.51 1906,-1160.13 1872.49,-1111.45 1886.3,-1038.15 1897.99,-997.58"/>
<polygon fill="black" stroke="black" points="1901.42,-998.35 1900.97,-987.76 1894.72,-996.32 1901.42,-998.35"/>
<text text-anchor="middle" x="1951.5" y="-1089.13" font-family="Times,serif" font-size="20.00">[NA]</text>
<text text-anchor="middle" x="1951.5" y="-1067.13" font-family="Times,serif" font-size="20.00">27 levels</text>
</g>
<!-- SG_1_Node_9 -->
<g id="node20" class="node">
<title>SG_1_Node_9</title>
<ellipse fill="none" stroke="black" cx="2000" cy="-966.92" rx="33.88" ry="21.43"/>
<text text-anchor="middle" x="2000" y="-961.92" font-family="Times,serif" font-size="20.00">1.0</text>
</g>
<!-- SG_1_Node_1&#45;&gt;SG_1_Node_9 -->
<g id="edge30" class="edge">
<title>SG_1_Node_1&#45;&gt;SG_1_Node_9</title>
<path fill="none" stroke="black" d="M2005.55,-1181.03C2004.54,-1142.12 2002.07,-1047.38 2000.79,-998.38"/>
<polygon fill="black" stroke="black" points="2004.29,-998.28 2000.53,-988.38 1997.29,-998.46 2004.29,-998.28"/>
<text text-anchor="middle" x="2250.5" y="-1078.13" font-family="Times,serif" font-size="20.00">brave iPadOS 17.2 1.61 (23.12.18.22) intent real</text>
</g>
<!-- SG_1_Node_3 -->
<g id="node21" class="node">
<title>SG_1_Node_3</title>
<polygon fill="none" stroke="black" points="2152.5,-984.92 2051.5,-984.92 2051.5,-948.92 2152.5,-948.92 2152.5,-984.92"/>
<text text-anchor="middle" x="2102" y="-961.92" font-family="Times,serif" font-size="20.00">browser</text>
</g>
<!-- SG_1_Node_2&#45;&gt;SG_1_Node_3 -->
<g id="edge17" class="edge">
<title>SG_1_Node_2&#45;&gt;SG_1_Node_3</title>
<path fill="none" stroke="black" d="M2520.63,-1181.25C2516.86,-1135.32 2506.23,-1012.25 2500,-1006.13 2476.45,-983.01 2268.27,-973.15 2162.75,-969.61"/>
<polygon fill="black" stroke="black" points="2162.67,-966.11 2152.56,-969.28 2162.44,-973.11 2162.67,-966.11"/>
<text text-anchor="middle" x="2563.5" y="-1078.13" font-family="Times,serif" font-size="20.00">11 levels</text>
</g>
<!-- SG_1_Node_4 -->
<g id="node22" class="node">
<title>SG_1_Node_4</title>
<polygon fill="none" stroke="black" points="2686.5,-984.92 2585.5,-984.92 2585.5,-948.92 2686.5,-948.92 2686.5,-984.92"/>
<text text-anchor="middle" x="2636" y="-961.92" font-family="Times,serif" font-size="20.00">browser</text>
</g>
<!-- SG_1_Node_2&#45;&gt;SG_1_Node_4 -->
<g id="edge18" class="edge">
<title>SG_1_Node_2&#45;&gt;SG_1_Node_4</title>
<path fill="none" stroke="black" d="M2587.92,-1181.27C2597.98,-1176 2607.24,-1169.11 2614,-1160.13 2650.64,-1111.49 2646.42,-1035.34 2640.83,-995.04"/>
<polygon fill="black" stroke="black" points="2644.29,-994.5 2639.33,-985.14 2637.37,-995.55 2644.29,-994.5"/>
<text text-anchor="middle" x="2689.5" y="-1089.13" font-family="Times,serif" font-size="20.00">[NA]</text>
<text text-anchor="middle" x="2689.5" y="-1067.13" font-family="Times,serif" font-size="20.00">11 levels</text>
</g>
<!-- SG_1_Node_10 -->
<g id="node23" class="node">
<title>SG_1_Node_10</title>
<ellipse fill="none" stroke="black" cx="1908" cy="-690.49" rx="33.88" ry="21.43"/>
<text text-anchor="middle" x="1908" y="-685.49" font-family="Times,serif" font-size="20.00">0.0</text>
</g>
<!-- SG_1_Node_3&#45;&gt;SG_1_Node_10 -->
<g id="edge27" class="edge">
<title>SG_1_Node_3&#45;&gt;SG_1_Node_10</title>
<path fill="none" stroke="black" d="M2054.91,-948.83C2050.91,-947.67 2046.9,-946.61 2043,-945.71 2011.36,-938.4 1919.5,-952.04 1898,-927.71 1847.02,-870.01 1876.12,-770.04 1895.31,-720.73"/>
<polygon fill="black" stroke="black" points="1898.63,-721.87 1899.11,-711.29 1892.13,-719.26 1898.63,-721.87"/>
<text text-anchor="middle" x="1943.5" y="-834.71" font-family="Times,serif" font-size="20.00">[NA]</text>
<text text-anchor="middle" x="1943.5" y="-812.71" font-family="Times,serif" font-size="20.00">19 levels</text>
</g>
<!-- SG_1_Node_11 -->
<g id="node24" class="node">
<title>SG_1_Node_11</title>
<ellipse fill="none" stroke="black" cx="2006" cy="-690.49" rx="33.88" ry="21.43"/>
<text text-anchor="middle" x="2006" y="-685.49" font-family="Times,serif" font-size="20.00">1.0</text>
</g>
<!-- SG_1_Node_3&#45;&gt;SG_1_Node_11 -->
<g id="edge28" class="edge">
<title>SG_1_Node_3&#45;&gt;SG_1_Node_11</title>
<path fill="none" stroke="black" d="M2052.86,-948.86C2031.23,-940.86 2010.01,-932.14 2007,-927.71 1984.82,-895.03 1995.45,-777.83 2002.07,-721.78"/>
<polygon fill="black" stroke="black" points="2005.56,-722.09 2003.29,-711.74 1998.61,-721.24 2005.56,-722.09"/>
<text text-anchor="middle" x="2253.5" y="-911.71" font-family="Times,serif" font-size="20.00">brave iPadOS 17.2 1.61 (23.12.18.22) intent real</text>
<text text-anchor="middle" x="2253.5" y="-889.71" font-family="Times,serif" font-size="20.00">chrome iPadOS 17.2 120.0.6099.119 intent real</text>
<text text-anchor="middle" x="2253.5" y="-867.71" font-family="Times,serif" font-size="20.00">edge iPadOS 17.2 120.0.2210.116 intent real</text>
<text text-anchor="middle" x="2253.5" y="-845.71" font-family="Times,serif" font-size="20.00">firefox Ubuntu 22.04 119 selenium headless</text>
<text text-anchor="middle" x="2253.5" y="-823.71" font-family="Times,serif" font-size="20.00">firefox Ubuntu 22.04 119 selenium xvfb</text>
<text text-anchor="middle" x="2253.5" y="-801.71" font-family="Times,serif" font-size="20.00">firefox macOS 14.2.1 120 selenium headless</text>
<text text-anchor="middle" x="2253.5" y="-779.71" font-family="Times,serif" font-size="20.00">firefox macOS 14.2.1 120 selenium real</text>
<text text-anchor="middle" x="2253.5" y="-757.71" font-family="Times,serif" font-size="20.00">firefox_beta Android 11 122.0b1 intent real</text>
<text text-anchor="middle" x="2253.5" y="-735.71" font-family="Times,serif" font-size="20.00">safari macOS 14.2.1 17.2 selenium real</text>
</g>
<!-- SG_1_Node_12 -->
<g id="node25" class="node">
<title>SG_1_Node_12</title>
<ellipse fill="none" stroke="black" cx="2508" cy="-690.49" rx="33.88" ry="21.43"/>
<text text-anchor="middle" x="2508" y="-685.49" font-family="Times,serif" font-size="20.00">0.0</text>
</g>
<!-- SG_1_Node_4&#45;&gt;SG_1_Node_12 -->
<g id="edge19" class="edge">
<title>SG_1_Node_4&#45;&gt;SG_1_Node_12</title>
<path fill="none" stroke="black" d="M2585.48,-962.35C2561.44,-957.86 2534.6,-948.19 2519,-927.71 2495.05,-896.25 2500.91,-778.44 2505.28,-722"/>
<polygon fill="black" stroke="black" points="2508.78,-722.15 2506.1,-711.9 2501.8,-721.58 2508.78,-722.15"/>
<text text-anchor="middle" x="2748" y="-834.71" font-family="Times,serif" font-size="20.00">firefox iPadOS 17.2 121.0 (36782) intent real</text>
<text text-anchor="middle" x="2748" y="-812.71" font-family="Times,serif" font-size="20.00">operagx iPadOS 17.2 2.2.2 intent real</text>
</g>
<!-- SG_1_Node_5 -->
<g id="node26" class="node">
<title>SG_1_Node_5</title>
<polygon fill="none" stroke="black" points="2696.5,-708.49 2559.5,-708.49 2559.5,-672.49 2696.5,-672.49 2696.5,-708.49"/>
<text text-anchor="middle" x="2628" y="-685.49" font-family="Times,serif" font-size="20.00">raw_header</text>
</g>
<!-- SG_1_Node_4&#45;&gt;SG_1_Node_5 -->
<g id="edge20" class="edge">
<title>SG_1_Node_4&#45;&gt;SG_1_Node_5</title>
<path fill="none" stroke="black" d="M2686.64,-963.97C2777.77,-959.95 2961.73,-949.23 2981,-927.71 3039.7,-862.14 3039.78,-795.19 2981,-729.71 2963.03,-709.68 2805.42,-699.2 2706.97,-694.55"/>
<polygon fill="black" stroke="black" points="2706.9,-691.05 2696.75,-694.08 2706.58,-698.04 2706.9,-691.05"/>
<text text-anchor="middle" x="3070.5" y="-834.71" font-family="Times,serif" font-size="20.00">[NA]</text>
<text text-anchor="middle" x="3070.5" y="-812.71" font-family="Times,serif" font-size="20.00">26 levels</text>
</g>
<!-- SG_1_Node_6 -->
<g id="node27" class="node">
<title>SG_1_Node_6</title>
<polygon fill="none" stroke="black" points="1996,-388.07 1874,-388.07 1874,-352.07 1996,-352.07 1996,-388.07"/>
<text text-anchor="middle" x="1935" y="-365.07" font-family="Times,serif" font-size="20.00">org_origin</text>
</g>
<!-- SG_1_Node_5&#45;&gt;SG_1_Node_6 -->
<g id="edge21" class="edge">
<title>SG_1_Node_5&#45;&gt;SG_1_Node_6</title>
<path fill="none" stroke="black" d="M2568.58,-672.46C2562.68,-671.2 2556.75,-670.1 2551,-669.28 2516.29,-664.29 1944.44,-676.43 1920,-651.28 1852.9,-582.23 1898.34,-452.79 1922.55,-397.35"/>
<polygon fill="black" stroke="black" points="1925.76,-398.76 1926.65,-388.2 1919.37,-395.89 1925.76,-398.76"/>
<text text-anchor="middle" x="2265.5" y="-525.28" font-family="Times,serif" font-size="20.00">[[&#39;Feature&#45;Policy&#39;, &#39;fullscreen https://sub.headers.websec.saarland&#39;]]</text>
</g>
<!-- SG_1_Node_13 -->
<g id="node28" class="node">
<title>SG_1_Node_13</title>
<ellipse fill="none" stroke="black" cx="2614" cy="-370.07" rx="33.88" ry="21.43"/>
<text text-anchor="middle" x="2614" y="-365.07" font-family="Times,serif" font-size="20.00">1.0</text>
</g>
<!-- SG_1_Node_5&#45;&gt;SG_1_Node_13 -->
<g id="edge22" class="edge">
<title>SG_1_Node_5&#45;&gt;SG_1_Node_13</title>
<path fill="none" stroke="black" d="M2627.25,-672.37C2624.99,-620.98 2618.24,-467.52 2615.34,-401.65"/>
<polygon fill="black" stroke="black" points="2618.83,-401.34 2614.9,-391.5 2611.84,-401.64 2618.83,-401.34"/>
<text text-anchor="middle" x="2866" y="-635.28" font-family="Times,serif" font-size="20.00">[NA]</text>
<text text-anchor="middle" x="2866" y="-613.28" font-family="Times,serif" font-size="20.00">[[&#39;Feature&#45;Policy&#39;, &quot;fullscreen &#39;self&#39;&quot;]]</text>
<text text-anchor="middle" x="2866" y="-591.28" font-family="Times,serif" font-size="20.00">[[&#39;Feature&#45;Policy&#39;, &#39;fullscreen *&#39;]]</text>
<text text-anchor="middle" x="2866" y="-569.28" font-family="Times,serif" font-size="20.00">[[&#39;Permissions&#45;Policy&#39;, &#39;*&#39;]]</text>
<text text-anchor="middle" x="2866" y="-547.28" font-family="Times,serif" font-size="20.00">[[&#39;Permissions&#45;Policy&#39;, &#39;fullscreen=&#39;]]</text>
<text text-anchor="middle" x="2866" y="-525.28" font-family="Times,serif" font-size="20.00">[[&#39;Permissions&#45;Policy&#39;, &#39;fullscreen=(self none)&#39;]]</text>
<text text-anchor="middle" x="2866" y="-503.28" font-family="Times,serif" font-size="20.00">[[&#39;Permissions&#45;Policy&#39;, &#39;fullscreen=(self)&#39;]]</text>
<text text-anchor="middle" x="2866" y="-481.28" font-family="Times,serif" font-size="20.00">[[&#39;Permissions&#45;Policy&#39;, &#39;fullscreen=(self,none)&#39;]]</text>
<text text-anchor="middle" x="2866" y="-459.28" font-family="Times,serif" font-size="20.00">[[&#39;Permissions&#45;Policy&#39;, &#39;fullscreen=*&#39;]]</text>
<text text-anchor="middle" x="2866" y="-437.28" font-family="Times,serif" font-size="20.00">[[&#39;Permissions&#45;Policy&#39;, &#39;null&#39;]]</text>
<text text-anchor="middle" x="2866" y="-415.28" font-family="Times,serif" font-size="20.00">[]</text>
</g>
<!-- SG_1_Node_7 -->
<g id="node29" class="node">
<title>SG_1_Node_7</title>
<polygon fill="none" stroke="black" points="1980.5,-265.64 1879.5,-265.64 1879.5,-229.64 1980.5,-229.64 1980.5,-265.64"/>
<text text-anchor="middle" x="1930" y="-242.64" font-family="Times,serif" font-size="20.00">browser</text>
</g>
<!-- SG_1_Node_6&#45;&gt;SG_1_Node_7 -->
<g id="edge23" class="edge">
<title>SG_1_Node_6&#45;&gt;SG_1_Node_7</title>
<path fill="none" stroke="black" d="M1932.87,-351.97C1932.14,-345.38 1931.4,-337.78 1931,-330.85 1929.93,-312.56 1929.69,-291.94 1929.7,-275.93"/>
<polygon fill="black" stroke="black" points="1933.2,-275.68 1929.75,-265.66 1926.2,-275.64 1933.2,-275.68"/>
<text text-anchor="middle" x="2112.5" y="-303.85" font-family="Times,serif" font-size="20.00">http://sub.headers.websec.saarland</text>
</g>
<!-- SG_1_Node_14 -->
<g id="node30" class="node">
<title>SG_1_Node_14</title>
<ellipse fill="none" stroke="black" cx="2316" cy="-247.64" rx="33.88" ry="21.43"/>
<text text-anchor="middle" x="2316" y="-242.64" font-family="Times,serif" font-size="20.00">1.0</text>
</g>
<!-- SG_1_Node_6&#45;&gt;SG_1_Node_14 -->
<g id="edge24" class="edge">
<title>SG_1_Node_6&#45;&gt;SG_1_Node_14</title>
<path fill="none" stroke="black" d="M1996.27,-366.29C2092.86,-361.36 2271.88,-349.77 2294,-330.85 2308.76,-318.23 2314.16,-296.89 2315.93,-279.11"/>
<polygon fill="black" stroke="black" points="2319.43,-279.09 2316.6,-268.89 2312.45,-278.64 2319.43,-279.09"/>
<text text-anchor="middle" x="2500.5" y="-314.85" font-family="Times,serif" font-size="20.00">[NA]</text>
<text text-anchor="middle" x="2500.5" y="-292.85" font-family="Times,serif" font-size="20.00">https://sub.headers.websec.saarland</text>
</g>
<!-- SG_1_Node_15 -->
<g id="node31" class="node">
<title>SG_1_Node_15</title>
<ellipse fill="none" stroke="black" cx="1919" cy="-37.21" rx="33.88" ry="21.43"/>
<text text-anchor="middle" x="1919" y="-32.21" font-family="Times,serif" font-size="20.00">0.0</text>
</g>
<!-- SG_1_Node_7&#45;&gt;SG_1_Node_15 -->
<g id="edge25" class="edge">
<title>SG_1_Node_7&#45;&gt;SG_1_Node_15</title>
<path fill="none" stroke="black" d="M1924.49,-229.32C1922.69,-222.84 1920.91,-215.36 1920,-208.43 1913.61,-159.91 1915.07,-102.95 1916.9,-68.76"/>
<polygon fill="black" stroke="black" points="1920.41,-68.69 1917.49,-58.5 1913.42,-68.28 1920.41,-68.69"/>
<text text-anchor="middle" x="1965.5" y="-148.43" font-family="Times,serif" font-size="20.00">[NA]</text>
<text text-anchor="middle" x="1965.5" y="-126.43" font-family="Times,serif" font-size="20.00">20 levels</text>
</g>
<!-- SG_1_Node_16 -->
<g id="node32" class="node">
<title>SG_1_Node_16</title>
<ellipse fill="none" stroke="black" cx="2033" cy="-37.21" rx="33.88" ry="21.43"/>
<text text-anchor="middle" x="2033" y="-32.21" font-family="Times,serif" font-size="20.00">1.0</text>
</g>
<!-- SG_1_Node_7&#45;&gt;SG_1_Node_16 -->
<g id="edge26" class="edge">
<title>SG_1_Node_7&#45;&gt;SG_1_Node_16</title>
<path fill="none" stroke="black" d="M1980.57,-232.17C1992.22,-226.55 2003.4,-218.86 2011,-208.43 2040.93,-167.32 2040.73,-105.38 2037.27,-68.65"/>
<polygon fill="black" stroke="black" points="2040.74,-68.12 2036.18,-58.55 2033.78,-68.87 2040.74,-68.12"/>
<text text-anchor="middle" x="2280.5" y="-192.43" font-family="Times,serif" font-size="20.00">chrome iPadOS 17.2 120.0.6099.119 intent real</text>
<text text-anchor="middle" x="2280.5" y="-170.43" font-family="Times,serif" font-size="20.00">edge iPadOS 17.2 120.0.2210.116 intent real</text>
<text text-anchor="middle" x="2280.5" y="-148.43" font-family="Times,serif" font-size="20.00">firefox Ubuntu 22.04 119 selenium headless</text>
<text text-anchor="middle" x="2280.5" y="-126.43" font-family="Times,serif" font-size="20.00">firefox Ubuntu 22.04 119 selenium xvfb</text>
<text text-anchor="middle" x="2280.5" y="-104.43" font-family="Times,serif" font-size="20.00">firefox macOS 14.2.1 120 selenium headless</text>
<text text-anchor="middle" x="2280.5" y="-82.43" font-family="Times,serif" font-size="20.00">firefox macOS 14.2.1 120 selenium real</text>
</g>
<!-- SG_2_Node_0 -->
<g id="node33" class="node">
<title>SG_2_Node_0</title>
<polygon fill="none" stroke="black" points="3267.5,-1446.56 3166.5,-1446.56 3166.5,-1410.56 3267.5,-1410.56 3267.5,-1446.56"/>
<text text-anchor="middle" x="3217" y="-1423.56" font-family="Times,serif" font-size="20.00">browser</text>
</g>
<!-- SG_2_Node_1 -->
<g id="node34" class="node">
<title>SG_2_Node_1</title>
<ellipse fill="none" stroke="black" cx="3184" cy="-1199.35" rx="33.88" ry="21.43"/>
<text text-anchor="middle" x="3184" y="-1194.35" font-family="Times,serif" font-size="20.00">0.0</text>
</g>
<!-- SG_2_Node_0&#45;&gt;SG_2_Node_1 -->
<g id="edge31" class="edge">
<title>SG_2_Node_0&#45;&gt;SG_2_Node_1</title>
<path fill="none" stroke="black" d="M3196.82,-1410.48C3192.04,-1405.27 3187.58,-1399.15 3185,-1392.56 3163.94,-1338.73 3170.92,-1269.75 3177.64,-1230.76"/>
<polygon fill="black" stroke="black" points="3181.14,-1231.06 3179.5,-1220.6 3174.26,-1229.8 3181.14,-1231.06"/>
<text text-anchor="middle" x="3230.5" y="-1321.56" font-family="Times,serif" font-size="20.00">[NA]</text>
<text text-anchor="middle" x="3230.5" y="-1299.56" font-family="Times,serif" font-size="20.00">26 levels</text>
</g>
<!-- SG_2_Node_2 -->
<g id="node35" class="node">
<title>SG_2_Node_2</title>
<ellipse fill="none" stroke="black" cx="3298" cy="-1199.35" rx="33.88" ry="21.43"/>
<text text-anchor="middle" x="3298" y="-1194.35" font-family="Times,serif" font-size="20.00">1.0</text>
</g>
<!-- SG_2_Node_0&#45;&gt;SG_2_Node_2 -->
<g id="edge32" class="edge">
<title>SG_2_Node_0&#45;&gt;SG_2_Node_2</title>
<path fill="none" stroke="black" d="M3257.4,-1410.46C3264.63,-1405.67 3271.34,-1399.76 3276,-1392.56 3308.09,-1343 3306.49,-1270.87 3302.33,-1230.53"/>
<polygon fill="black" stroke="black" points="3305.79,-1230.05 3301.17,-1220.52 3298.84,-1230.86 3305.79,-1230.05"/>
<text text-anchor="middle" x="3533" y="-1321.56" font-family="Times,serif" font-size="20.00">firefox iPadOS 17.2 121.0 (36782) intent real</text>
<text text-anchor="middle" x="3533" y="-1299.56" font-family="Times,serif" font-size="20.00">operagx iPadOS 17.2 2.2.2 intent real</text>
</g>
</g>
</svg>
