<?xml version="1.0" encoding="UTF-8" standalone="no"?>
<!DOCTYPE svg PUBLIC "-//W3C//DTD SVG 1.1//EN"
 "http://www.w3.org/Graphics/SVG/1.1/DTD/svg11.dtd">
<!-- Generated by graphviz version 2.43.0 (0)
 -->
<!-- Title: G Pages: 1 -->
<svg width="2795pt" height="759pt"
 viewBox="0.00 0.00 2795.00 759.28" xmlns="http://www.w3.org/2000/svg" xmlns:xlink="http://www.w3.org/1999/xlink">
<g id="graph0" class="graph" transform="scale(1 1) rotate(0) translate(4 755.28)">
<title>G</title>
<polygon fill="white" stroke="transparent" points="-4,4 -4,-755.28 2791,-755.28 2791,4 -4,4"/>
<g id="clust1" class="cluster">
<title>cluster_0</title>
<polygon fill="none" stroke="black" points="8,-306.43 8,-743.28 885,-743.28 885,-306.43 8,-306.43"/>
<text text-anchor="middle" x="446.5" y="-707.28" font-family="Times,serif" font-size="40.00">Tree 0, Class error</text>
</g>
<g id="clust5" class="cluster">
<title>cluster_1</title>
<polygon fill="none" stroke="black" points="893,-8 893,-743.28 1894,-743.28 1894,-8 893,-8"/>
<text text-anchor="middle" x="1393.5" y="-707.28" font-family="Times,serif" font-size="40.00">Tree 0, Class load</text>
</g>
<g id="clust10" class="cluster">
<title>cluster_2</title>
<polygon fill="none" stroke="black" points="1902,-306.43 1902,-743.28 2779,-743.28 2779,-306.43 1902,-306.43"/>
<text text-anchor="middle" x="2340.5" y="-707.28" font-family="Times,serif" font-size="40.00">Tree 0, Class message timeout</text>
</g>
<!-- SG_0_Node_0 -->
<g id="node1" class="node">
<title>SG_0_Node_0</title>
<polygon fill="none" stroke="black" points="165.5,-683.28 64.5,-683.28 64.5,-647.28 165.5,-647.28 165.5,-683.28"/>
<text text-anchor="middle" x="115" y="-660.28" font-family="Times,serif" font-size="20.00">browser</text>
</g>
<!-- SG_0_Node_2 -->
<g id="node2" class="node">
<title>SG_0_Node_2</title>
<ellipse fill="none" stroke="black" cx="82" cy="-546.07" rx="33.88" ry="21.43"/>
<text text-anchor="middle" x="82" y="-541.07" font-family="Times,serif" font-size="20.00">0.0</text>
</g>
<!-- SG_0_Node_0&#45;&gt;SG_0_Node_2 -->
<g id="edge1" class="edge">
<title>SG_0_Node_0&#45;&gt;SG_0_Node_2</title>
<path fill="none" stroke="black" d="M97.17,-647.21C92.72,-641.91 88.51,-635.75 86,-629.28 79.7,-613.04 78.49,-593.63 78.95,-577.75"/>
<polygon fill="black" stroke="black" points="82.47,-577.57 79.5,-567.4 75.48,-577.2 82.47,-577.57"/>
<text text-anchor="middle" x="131.5" y="-613.28" font-family="Times,serif" font-size="20.00">[NA]</text>
<text text-anchor="middle" x="131.5" y="-591.28" font-family="Times,serif" font-size="20.00">17 levels</text>
</g>
<!-- SG_0_Node_1 -->
<g id="node3" class="node">
<title>SG_0_Node_1</title>
<polygon fill="none" stroke="black" points="266,-564.07 134,-564.07 134,-528.07 266,-528.07 266,-564.07"/>
<text text-anchor="middle" x="200" y="-541.07" font-family="Times,serif" font-size="20.00">resp_origin</text>
</g>
<!-- SG_0_Node_0&#45;&gt;SG_0_Node_1 -->
<g id="edge2" class="edge">
<title>SG_0_Node_0&#45;&gt;SG_0_Node_1</title>
<path fill="none" stroke="black" d="M155.9,-647.28C163.8,-642.44 171.36,-636.48 177,-629.28 189.34,-613.53 195.06,-591.54 197.71,-574.26"/>
<polygon fill="black" stroke="black" points="201.2,-574.57 199,-564.2 194.26,-573.68 201.2,-574.57"/>
<text text-anchor="middle" x="240.5" y="-602.28" font-family="Times,serif" font-size="20.00">11 levels</text>
</g>
<!-- SG_0_Node_3 -->
<g id="node4" class="node">
<title>SG_0_Node_3</title>
<ellipse fill="none" stroke="black" cx="50" cy="-335.64" rx="33.88" ry="21.43"/>
<text text-anchor="middle" x="50" y="-330.64" font-family="Times,serif" font-size="20.00">0.0</text>
</g>
<!-- SG_0_Node_1&#45;&gt;SG_0_Node_3 -->
<g id="edge3" class="edge">
<title>SG_0_Node_1&#45;&gt;SG_0_Node_3</title>
<path fill="none" stroke="black" d="M137.87,-527.98C133.52,-526.89 129.2,-525.84 125,-524.85 85.29,-515.54 60.86,-538.4 35,-506.85 2.2,-466.84 21.05,-402.34 36.41,-365.29"/>
<polygon fill="black" stroke="black" points="39.64,-366.62 40.4,-356.06 33.22,-363.85 39.64,-366.62"/>
<text text-anchor="middle" x="237.5" y="-468.85" font-family="Times,serif" font-size="20.00">http://headers.webappsec.eu</text>
<text text-anchor="middle" x="237.5" y="-446.85" font-family="Times,serif" font-size="20.00">http://headers.websec.saarland</text>
<text text-anchor="middle" x="237.5" y="-424.85" font-family="Times,serif" font-size="20.00">http://sub.headers.websec.saarland</text>
<text text-anchor="middle" x="237.5" y="-402.85" font-family="Times,serif" font-size="20.00">http://sub.sub.headers.websec.saarland</text>
</g>
<!-- SG_0_Node_4 -->
<g id="node5" class="node">
<title>SG_0_Node_4</title>
<ellipse fill="none" stroke="black" cx="462" cy="-335.64" rx="33.88" ry="21.43"/>
<text text-anchor="middle" x="462" y="-330.64" font-family="Times,serif" font-size="20.00">1.0</text>
</g>
<!-- SG_0_Node_1&#45;&gt;SG_0_Node_4 -->
<g id="edge4" class="edge">
<title>SG_0_Node_1&#45;&gt;SG_0_Node_4</title>
<path fill="none" stroke="black" d="M266.02,-543.19C328.61,-539.94 416.49,-531.07 440,-506.85 475.96,-469.83 473.33,-404.98 467.87,-366.91"/>
<polygon fill="black" stroke="black" points="471.31,-366.26 466.28,-356.93 464.39,-367.35 471.31,-366.26"/>
<text text-anchor="middle" x="678.5" y="-479.85" font-family="Times,serif" font-size="20.00">[NA]</text>
<text text-anchor="middle" x="678.5" y="-457.85" font-family="Times,serif" font-size="20.00">https://headers.webappsec.eu</text>
<text text-anchor="middle" x="678.5" y="-435.85" font-family="Times,serif" font-size="20.00">https://headers.websec.saarland</text>
<text text-anchor="middle" x="678.5" y="-413.85" font-family="Times,serif" font-size="20.00">https://sub.headers.websec.saarland</text>
<text text-anchor="middle" x="678.5" y="-391.85" font-family="Times,serif" font-size="20.00">https://sub.sub.headers.websec.saarland</text>
</g>
<!-- SG_1_Node_0 -->
<g id="node6" class="node">
<title>SG_1_Node_0</title>
<polygon fill="none" stroke="black" points="1278.5,-683.28 1177.5,-683.28 1177.5,-647.28 1278.5,-647.28 1278.5,-683.28"/>
<text text-anchor="middle" x="1228" y="-660.28" font-family="Times,serif" font-size="20.00">browser</text>
</g>
<!-- SG_1_Node_1 -->
<g id="node7" class="node">
<title>SG_1_Node_1</title>
<polygon fill="none" stroke="black" points="1236,-564.07 1104,-564.07 1104,-528.07 1236,-528.07 1236,-564.07"/>
<text text-anchor="middle" x="1170" y="-541.07" font-family="Times,serif" font-size="20.00">resp_origin</text>
</g>
<!-- SG_1_Node_0&#45;&gt;SG_1_Node_1 -->
<g id="edge5" class="edge">
<title>SG_1_Node_0&#45;&gt;SG_1_Node_1</title>
<path fill="none" stroke="black" d="M1191.18,-647.23C1184.38,-642.39 1178.12,-636.44 1174,-629.28 1164.59,-612.92 1163.82,-591.56 1165.29,-574.71"/>
<polygon fill="black" stroke="black" points="1168.81,-574.73 1166.5,-564.39 1161.86,-573.91 1168.81,-574.73"/>
<text text-anchor="middle" x="1219.5" y="-602.28" font-family="Times,serif" font-size="20.00">11 levels</text>
</g>
<!-- SG_1_Node_3 -->
<g id="node8" class="node">
<title>SG_1_Node_3</title>
<ellipse fill="none" stroke="black" cx="1288" cy="-546.07" rx="33.88" ry="21.43"/>
<text text-anchor="middle" x="1288" y="-541.07" font-family="Times,serif" font-size="20.00">1.0</text>
</g>
<!-- SG_1_Node_0&#45;&gt;SG_1_Node_3 -->
<g id="edge6" class="edge">
<title>SG_1_Node_0&#45;&gt;SG_1_Node_3</title>
<path fill="none" stroke="black" d="M1250.08,-647.09C1255.61,-641.88 1261.07,-635.79 1265,-629.28 1274.49,-613.56 1280.18,-593.81 1283.52,-577.6"/>
<polygon fill="black" stroke="black" points="1287.01,-578.01 1285.4,-567.54 1280.13,-576.73 1287.01,-578.01"/>
<text text-anchor="middle" x="1326.5" y="-613.28" font-family="Times,serif" font-size="20.00">[NA]</text>
<text text-anchor="middle" x="1326.5" y="-591.28" font-family="Times,serif" font-size="20.00">17 levels</text>
</g>
<!-- SG_1_Node_4 -->
<g id="node9" class="node">
<title>SG_1_Node_4</title>
<ellipse fill="none" stroke="black" cx="945" cy="-335.64" rx="33.88" ry="21.43"/>
<text text-anchor="middle" x="945" y="-330.64" font-family="Times,serif" font-size="20.00">0.0</text>
</g>
<!-- SG_1_Node_1&#45;&gt;SG_1_Node_4 -->
<g id="edge7" class="edge">
<title>SG_1_Node_1&#45;&gt;SG_1_Node_4</title>
<path fill="none" stroke="black" d="M1103.78,-543.16C1044.01,-539.88 962.42,-530.98 942,-506.85 908.93,-467.78 921.98,-403.65 933.89,-366.27"/>
<polygon fill="black" stroke="black" points="937.31,-367.07 937.17,-356.48 930.67,-364.84 937.31,-367.07"/>
<text text-anchor="middle" x="1149.5" y="-479.85" font-family="Times,serif" font-size="20.00">[NA]</text>
<text text-anchor="middle" x="1149.5" y="-457.85" font-family="Times,serif" font-size="20.00">https://headers.webappsec.eu</text>
<text text-anchor="middle" x="1149.5" y="-435.85" font-family="Times,serif" font-size="20.00">https://headers.websec.saarland</text>
<text text-anchor="middle" x="1149.5" y="-413.85" font-family="Times,serif" font-size="20.00">https://sub.headers.websec.saarland</text>
<text text-anchor="middle" x="1149.5" y="-391.85" font-family="Times,serif" font-size="20.00">https://sub.sub.headers.websec.saarland</text>
</g>
<!-- SG_1_Node_2 -->
<g id="node10" class="node">
<title>SG_1_Node_2</title>
<polygon fill="none" stroke="black" points="1433.5,-353.64 1332.5,-353.64 1332.5,-317.64 1433.5,-317.64 1433.5,-353.64"/>
<text text-anchor="middle" x="1383" y="-330.64" font-family="Times,serif" font-size="20.00">browser</text>
</g>
<!-- SG_1_Node_1&#45;&gt;SG_1_Node_2 -->
<g id="edge8" class="edge">
<title>SG_1_Node_1&#45;&gt;SG_1_Node_2</title>
<path fill="none" stroke="black" d="M1231.26,-527.97C1235.9,-526.86 1240.51,-525.8 1245,-524.85 1270.52,-519.45 1342.79,-525.53 1361,-506.85 1398.01,-468.89 1394.2,-401.47 1388.44,-363.88"/>
<polygon fill="black" stroke="black" points="1391.83,-362.95 1386.71,-353.68 1384.93,-364.12 1391.83,-362.95"/>
<text text-anchor="middle" x="1594.5" y="-468.85" font-family="Times,serif" font-size="20.00">http://headers.webappsec.eu</text>
<text text-anchor="middle" x="1594.5" y="-446.85" font-family="Times,serif" font-size="20.00">http://headers.websec.saarland</text>
<text text-anchor="middle" x="1594.5" y="-424.85" font-family="Times,serif" font-size="20.00">http://sub.headers.websec.saarland</text>
<text text-anchor="middle" x="1594.5" y="-402.85" font-family="Times,serif" font-size="20.00">http://sub.sub.headers.websec.saarland</text>
</g>
<!-- SG_1_Node_5 -->
<g id="node11" class="node">
<title>SG_1_Node_5</title>
<ellipse fill="none" stroke="black" cx="935" cy="-37.21" rx="33.88" ry="21.43"/>
<text text-anchor="middle" x="935" y="-32.21" font-family="Times,serif" font-size="20.00">0.0</text>
</g>
<!-- SG_1_Node_2&#45;&gt;SG_1_Node_5 -->
<g id="edge9" class="edge">
<title>SG_1_Node_2&#45;&gt;SG_1_Node_5</title>
<path fill="none" stroke="black" d="M1332.26,-331.27C1215.21,-323.37 935.77,-303.79 929,-296.43 870.98,-233.32 902.96,-120.46 922.88,-67.36"/>
<polygon fill="black" stroke="black" points="926.21,-68.45 926.55,-57.86 919.68,-65.93 926.21,-68.45"/>
<text text-anchor="middle" x="1154.5" y="-181.43" font-family="Times,serif" font-size="20.00">firefox macOS 14.2.1 120 selenium headless</text>
</g>
<!-- SG_1_Node_6 -->
<g id="node12" class="node">
<title>SG_1_Node_6</title>
<ellipse fill="none" stroke="black" cx="1393" cy="-37.21" rx="33.88" ry="21.43"/>
<text text-anchor="middle" x="1393" y="-32.21" font-family="Times,serif" font-size="20.00">1.0</text>
</g>
<!-- SG_1_Node_2&#45;&gt;SG_1_Node_6 -->
<g id="edge10" class="edge">
<title>SG_1_Node_2&#45;&gt;SG_1_Node_6</title>
<path fill="none" stroke="black" d="M1383.58,-317.42C1385.22,-268.93 1389.88,-130.74 1391.97,-68.85"/>
<polygon fill="black" stroke="black" points="1395.47,-68.67 1392.31,-58.56 1388.48,-68.43 1395.47,-68.67"/>
<text text-anchor="middle" x="1637.5" y="-280.43" font-family="Times,serif" font-size="20.00">brave iPadOS 17.2 1.61 (23.12.18.22) intent real</text>
<text text-anchor="middle" x="1637.5" y="-258.43" font-family="Times,serif" font-size="20.00">chrome iPadOS 17.2 120.0.6099.119 intent real</text>
<text text-anchor="middle" x="1637.5" y="-236.43" font-family="Times,serif" font-size="20.00">edge iPadOS 17.2 120.0.2210.116 intent real</text>
<text text-anchor="middle" x="1637.5" y="-214.43" font-family="Times,serif" font-size="20.00">firefox Ubuntu 22.04 119 selenium headless</text>
<text text-anchor="middle" x="1637.5" y="-192.43" font-family="Times,serif" font-size="20.00">firefox Ubuntu 22.04 119 selenium xvfb</text>
<text text-anchor="middle" x="1637.5" y="-170.43" font-family="Times,serif" font-size="20.00">firefox iPadOS 17.2 121.0 (36782) intent real</text>
<text text-anchor="middle" x="1637.5" y="-148.43" font-family="Times,serif" font-size="20.00">firefox macOS 14.2.1 120 selenium real</text>
<text text-anchor="middle" x="1637.5" y="-126.43" font-family="Times,serif" font-size="20.00">firefox_beta Android 11 122.0b1 intent real</text>
<text text-anchor="middle" x="1637.5" y="-104.43" font-family="Times,serif" font-size="20.00">operagx iPadOS 17.2 2.2.2 intent real</text>
<text text-anchor="middle" x="1637.5" y="-82.43" font-family="Times,serif" font-size="20.00">safari macOS 14.2.1 17.2 selenium real</text>
</g>
<!-- SG_2_Node_0 -->
<g id="node13" class="node">
<title>SG_2_Node_0</title>
<polygon fill="none" stroke="black" points="2059.5,-683.28 1958.5,-683.28 1958.5,-647.28 2059.5,-647.28 2059.5,-683.28"/>
<text text-anchor="middle" x="2009" y="-660.28" font-family="Times,serif" font-size="20.00">browser</text>
</g>
<!-- SG_2_Node_2 -->
<g id="node14" class="node">
<title>SG_2_Node_2</title>
<ellipse fill="none" stroke="black" cx="1976" cy="-546.07" rx="33.88" ry="21.43"/>
<text text-anchor="middle" x="1976" y="-541.07" font-family="Times,serif" font-size="20.00">0.0</text>
</g>
<!-- SG_2_Node_0&#45;&gt;SG_2_Node_2 -->
<g id="edge11" class="edge">
<title>SG_2_Node_0&#45;&gt;SG_2_Node_2</title>
<path fill="none" stroke="black" d="M1991.17,-647.21C1986.72,-641.91 1982.51,-635.75 1980,-629.28 1973.7,-613.04 1972.49,-593.63 1972.95,-577.75"/>
<polygon fill="black" stroke="black" points="1976.47,-577.57 1973.5,-567.4 1969.48,-577.2 1976.47,-577.57"/>
<text text-anchor="middle" x="2025.5" y="-613.28" font-family="Times,serif" font-size="20.00">[NA]</text>
<text text-anchor="middle" x="2025.5" y="-591.28" font-family="Times,serif" font-size="20.00">27 levels</text>
</g>
<!-- SG_2_Node_1 -->
<g id="node15" class="node">
<title>SG_2_Node_1</title>
<polygon fill="none" stroke="black" points="2160,-564.07 2028,-564.07 2028,-528.07 2160,-528.07 2160,-564.07"/>
<text text-anchor="middle" x="2094" y="-541.07" font-family="Times,serif" font-size="20.00">resp_origin</text>
</g>
<!-- SG_2_Node_0&#45;&gt;SG_2_Node_1 -->
<g id="edge12" class="edge">
<title>SG_2_Node_0&#45;&gt;SG_2_Node_1</title>
<path fill="none" stroke="black" d="M2049.9,-647.28C2057.8,-642.44 2065.36,-636.48 2071,-629.28 2083.34,-613.53 2089.06,-591.54 2091.71,-574.26"/>
<polygon fill="black" stroke="black" points="2095.2,-574.57 2093,-564.2 2088.26,-573.68 2095.2,-574.57"/>
<text text-anchor="middle" x="2314.5" y="-602.28" font-family="Times,serif" font-size="20.00">firefox macOS 14.2.1 120 selenium headless</text>
</g>
<!-- SG_2_Node_3 -->
<g id="node16" class="node">
<title>SG_2_Node_3</title>
<ellipse fill="none" stroke="black" cx="1944" cy="-335.64" rx="33.88" ry="21.43"/>
<text text-anchor="middle" x="1944" y="-330.64" font-family="Times,serif" font-size="20.00">0.0</text>
</g>
<!-- SG_2_Node_1&#45;&gt;SG_2_Node_3 -->
<g id="edge13" class="edge">
<title>SG_2_Node_1&#45;&gt;SG_2_Node_3</title>
<path fill="none" stroke="black" d="M2031.87,-527.98C2027.52,-526.89 2023.2,-525.84 2019,-524.85 1979.29,-515.54 1954.86,-538.4 1929,-506.85 1896.2,-466.84 1915.05,-402.34 1930.41,-365.29"/>
<polygon fill="black" stroke="black" points="1933.64,-366.62 1934.4,-356.06 1927.22,-363.85 1933.64,-366.62"/>
<text text-anchor="middle" x="2136.5" y="-490.85" font-family="Times,serif" font-size="20.00">[NA]</text>
<text text-anchor="middle" x="2136.5" y="-468.85" font-family="Times,serif" font-size="20.00">http://headers.webappsec.eu</text>
<text text-anchor="middle" x="2136.5" y="-446.85" font-family="Times,serif" font-size="20.00">https://headers.webappsec.eu</text>
<text text-anchor="middle" x="2136.5" y="-424.85" font-family="Times,serif" font-size="20.00">https://headers.websec.saarland</text>
<text text-anchor="middle" x="2136.5" y="-402.85" font-family="Times,serif" font-size="20.00">https://sub.headers.websec.saarland</text>
<text text-anchor="middle" x="2136.5" y="-380.85" font-family="Times,serif" font-size="20.00">https://sub.sub.headers.websec.saarland</text>
</g>
<!-- SG_2_Node_4 -->
<g id="node17" class="node">
<title>SG_2_Node_4</title>
<ellipse fill="none" stroke="black" cx="2366" cy="-335.64" rx="33.88" ry="21.43"/>
<text text-anchor="middle" x="2366" y="-330.64" font-family="Times,serif" font-size="20.00">1.0</text>
</g>
<!-- SG_2_Node_1&#45;&gt;SG_2_Node_4 -->
<g id="edge14" class="edge">
<title>SG_2_Node_1&#45;&gt;SG_2_Node_4</title>
<path fill="none" stroke="black" d="M2160.01,-543.7C2225.35,-540.86 2319.11,-532.33 2344,-506.85 2380.07,-469.94 2377.4,-405.05 2371.9,-366.95"/>
<polygon fill="black" stroke="black" points="2375.34,-366.28 2370.31,-356.95 2368.43,-367.38 2375.34,-366.28"/>
<text text-anchor="middle" x="2577.5" y="-457.85" font-family="Times,serif" font-size="20.00">http://headers.websec.saarland</text>
<text text-anchor="middle" x="2577.5" y="-435.85" font-family="Times,serif" font-size="20.00">http://sub.headers.websec.saarland</text>
<text text-anchor="middle" x="2577.5" y="-413.85" font-family="Times,serif" font-size="20.00">http://sub.sub.headers.websec.saarland</text>
</g>
</g>
</svg>
