<?xml version="1.0" encoding="UTF-8" standalone="no"?>
<!DOCTYPE svg PUBLIC "-//W3C//DTD SVG 1.1//EN"
 "http://www.w3.org/Graphics/SVG/1.1/DTD/svg11.dtd">
<!-- Generated by graphviz version 2.43.0 (0)
 -->
<!-- Title: G Pages: 1 -->
<svg width="4505pt" height="1105pt"
 viewBox="0.00 0.00 4505.00 1104.56" xmlns="http://www.w3.org/2000/svg" xmlns:xlink="http://www.w3.org/1999/xlink">
<g id="graph0" class="graph" transform="scale(1 1) rotate(0) translate(4 1100.56)">
<title>G</title>
<polygon fill="white" stroke="transparent" points="-4,4 -4,-1100.56 4501,-1100.56 4501,4 -4,4"/>
<g id="clust1" class="cluster">
<title>cluster_0</title>
<polygon fill="none" stroke="black" points="8,-8 8,-1088.56 1687,-1088.56 1687,-8 8,-8"/>
<text text-anchor="middle" x="847.5" y="-1052.56" font-family="Times,serif" font-size="40.00">Tree 0, Class window.originAgentCluster: false</text>
</g>
<g id="clust9" class="cluster">
<title>cluster_1</title>
<polygon fill="none" stroke="black" points="1695,-8 1695,-1088.56 3406,-1088.56 3406,-8 1695,-8"/>
<text text-anchor="middle" x="2550.5" y="-1052.56" font-family="Times,serif" font-size="40.00">Tree 0, Class window.originAgentCluster: true</text>
</g>
<g id="clust17" class="cluster">
<title>cluster_2</title>
<polygon fill="none" stroke="black" points="3414,-862.13 3414,-1088.56 4489,-1088.56 4489,-862.13 3414,-862.13"/>
<text text-anchor="middle" x="3951.5" y="-1052.56" font-family="Times,serif" font-size="40.00">Tree 0, Class window.originAgentCluster: undefined</text>
</g>
<!-- SG_0_Node_0 -->
<g id="node1" class="node">
<title>SG_0_Node_0</title>
<polygon fill="none" stroke="black" points="778.5,-1028.56 677.5,-1028.56 677.5,-992.56 778.5,-992.56 778.5,-1028.56"/>
<text text-anchor="middle" x="728" y="-1005.56" font-family="Times,serif" font-size="20.00">browser</text>
</g>
<!-- SG_0_Node_9 -->
<g id="node2" class="node">
<title>SG_0_Node_9</title>
<ellipse fill="none" stroke="black" cx="669" cy="-891.35" rx="33.88" ry="21.43"/>
<text text-anchor="middle" x="669" y="-886.35" font-family="Times,serif" font-size="20.00">0.0</text>
</g>
<!-- SG_0_Node_0&#45;&gt;SG_0_Node_9 -->
<g id="edge1" class="edge">
<title>SG_0_Node_0&#45;&gt;SG_0_Node_9</title>
<path fill="none" stroke="black" d="M690.23,-992.42C683.41,-987.62 677.15,-981.7 673,-974.56 664.05,-959.15 662.87,-939.25 664.01,-922.89"/>
<polygon fill="black" stroke="black" points="667.52,-923.03 665.04,-912.73 660.55,-922.32 667.52,-923.03"/>
<text text-anchor="middle" x="718.5" y="-947.56" font-family="Times,serif" font-size="20.00">11 levels</text>
</g>
<!-- SG_0_Node_1 -->
<g id="node3" class="node">
<title>SG_0_Node_1</title>
<polygon fill="none" stroke="black" points="853,-909.35 721,-909.35 721,-873.35 853,-873.35 853,-909.35"/>
<text text-anchor="middle" x="787" y="-886.35" font-family="Times,serif" font-size="20.00">resp_origin</text>
</g>
<!-- SG_0_Node_0&#45;&gt;SG_0_Node_1 -->
<g id="edge2" class="edge">
<title>SG_0_Node_0&#45;&gt;SG_0_Node_1</title>
<path fill="none" stroke="black" d="M749.48,-992.28C754.85,-987.07 760.17,-981 764,-974.56 774,-957.73 779.8,-936.38 783.08,-919.66"/>
<polygon fill="black" stroke="black" points="786.59,-919.89 784.88,-909.43 779.7,-918.67 786.59,-919.89"/>
<text text-anchor="middle" x="825.5" y="-958.56" font-family="Times,serif" font-size="20.00">[NA]</text>
<text text-anchor="middle" x="825.5" y="-936.56" font-family="Times,serif" font-size="20.00">17 levels</text>
</g>
<!-- SG_0_Node_2 -->
<g id="node4" class="node">
<title>SG_0_Node_2</title>
<polygon fill="none" stroke="black" points="618.5,-720.92 517.5,-720.92 517.5,-684.92 618.5,-684.92 618.5,-720.92"/>
<text text-anchor="middle" x="568" y="-697.92" font-family="Times,serif" font-size="20.00">browser</text>
</g>
<!-- SG_0_Node_1&#45;&gt;SG_0_Node_2 -->
<g id="edge3" class="edge">
<title>SG_0_Node_1&#45;&gt;SG_0_Node_2</title>
<path fill="none" stroke="black" d="M747.95,-873.21C736.56,-868.89 723.96,-864.74 712,-862.13 696.44,-858.74 579.9,-863.74 569,-852.13 538.8,-819.97 548.6,-764.41 558.37,-731.22"/>
<polygon fill="black" stroke="black" points="561.84,-731.88 561.49,-721.29 555.16,-729.78 561.84,-731.88"/>
<text text-anchor="middle" x="776.5" y="-836.13" font-family="Times,serif" font-size="20.00">[NA]</text>
<text text-anchor="middle" x="776.5" y="-814.13" font-family="Times,serif" font-size="20.00">https://headers.webappsec.eu</text>
<text text-anchor="middle" x="776.5" y="-792.13" font-family="Times,serif" font-size="20.00">https://headers.websec.saarland</text>
<text text-anchor="middle" x="776.5" y="-770.13" font-family="Times,serif" font-size="20.00">https://sub.headers.websec.saarland</text>
<text text-anchor="middle" x="776.5" y="-748.13" font-family="Times,serif" font-size="20.00">https://sub.sub.headers.websec.saarland</text>
</g>
<!-- SG_0_Node_10 -->
<g id="node5" class="node">
<title>SG_0_Node_10</title>
<ellipse fill="none" stroke="black" cx="1006" cy="-702.92" rx="33.88" ry="21.43"/>
<text text-anchor="middle" x="1006" y="-697.92" font-family="Times,serif" font-size="20.00">1.0</text>
</g>
<!-- SG_0_Node_1&#45;&gt;SG_0_Node_10 -->
<g id="edge4" class="edge">
<title>SG_0_Node_1&#45;&gt;SG_0_Node_10</title>
<path fill="none" stroke="black" d="M853.09,-885.63C903.12,-880.62 966.18,-870.76 984,-852.13 1013.94,-820.84 1014.24,-767.56 1010.79,-734.13"/>
<polygon fill="black" stroke="black" points="1014.25,-733.54 1009.57,-724.03 1007.3,-734.38 1014.25,-733.54"/>
<text text-anchor="middle" x="1214.5" y="-825.13" font-family="Times,serif" font-size="20.00">http://headers.webappsec.eu</text>
<text text-anchor="middle" x="1214.5" y="-803.13" font-family="Times,serif" font-size="20.00">http://headers.websec.saarland</text>
<text text-anchor="middle" x="1214.5" y="-781.13" font-family="Times,serif" font-size="20.00">http://sub.headers.websec.saarland</text>
<text text-anchor="middle" x="1214.5" y="-759.13" font-family="Times,serif" font-size="20.00">http://sub.sub.headers.websec.saarland</text>
</g>
<!-- SG_0_Node_3 -->
<g id="node6" class="node">
<title>SG_0_Node_3</title>
<polygon fill="none" stroke="black" points="498.5,-576.49 361.5,-576.49 361.5,-540.49 498.5,-540.49 498.5,-576.49"/>
<text text-anchor="middle" x="430" y="-553.49" font-family="Times,serif" font-size="20.00">raw_header</text>
</g>
<!-- SG_0_Node_2&#45;&gt;SG_0_Node_3 -->
<g id="edge5" class="edge">
<title>SG_0_Node_2&#45;&gt;SG_0_Node_3</title>
<path fill="none" stroke="black" d="M551.35,-684.74C527.01,-659.61 481.56,-612.7 453.72,-583.97"/>
<polygon fill="black" stroke="black" points="456.18,-581.48 446.71,-576.73 451.15,-586.35 456.18,-581.48"/>
<text text-anchor="middle" x="572.5" y="-636.71" font-family="Times,serif" font-size="20.00">[NA]</text>
<text text-anchor="middle" x="572.5" y="-614.71" font-family="Times,serif" font-size="20.00">14 levels</text>
</g>
<!-- SG_0_Node_4 -->
<g id="node7" class="node">
<title>SG_0_Node_4</title>
<polygon fill="none" stroke="black" points="873.5,-576.49 736.5,-576.49 736.5,-540.49 873.5,-540.49 873.5,-576.49"/>
<text text-anchor="middle" x="805" y="-553.49" font-family="Times,serif" font-size="20.00">raw_header</text>
</g>
<!-- SG_0_Node_2&#45;&gt;SG_0_Node_4 -->
<g id="edge6" class="edge">
<title>SG_0_Node_2&#45;&gt;SG_0_Node_4</title>
<path fill="none" stroke="black" d="M596.59,-684.74C639.5,-658.95 720.57,-610.23 767.96,-581.75"/>
<polygon fill="black" stroke="black" points="769.91,-584.66 776.68,-576.51 766.31,-578.66 769.91,-584.66"/>
<text text-anchor="middle" x="1087" y="-647.71" font-family="Times,serif" font-size="20.00">brave Ubuntu 22.04 1.59.120 (118.0.5993.88) selenium headless&#45;new</text>
<text text-anchor="middle" x="1087" y="-625.71" font-family="Times,serif" font-size="20.00">brave Ubuntu 22.04 1.59.120 (118.0.5993.88) selenium xvfb</text>
<text text-anchor="middle" x="1087" y="-603.71" font-family="Times,serif" font-size="20.00">opera Android 11 78.4.4143.75735 intent real</text>
</g>
<!-- SG_0_Node_11 -->
<g id="node8" class="node">
<title>SG_0_Node_11</title>
<ellipse fill="none" stroke="black" cx="312" cy="-348.07" rx="33.88" ry="21.43"/>
<text text-anchor="middle" x="312" y="-343.07" font-family="Times,serif" font-size="20.00">0.0</text>
</g>
<!-- SG_0_Node_3&#45;&gt;SG_0_Node_11 -->
<g id="edge13" class="edge">
<title>SG_0_Node_3&#45;&gt;SG_0_Node_11</title>
<path fill="none" stroke="black" d="M361.64,-540.4C351.42,-535.14 341.99,-528.26 335,-519.28 303.66,-479.01 303.94,-416.53 307.57,-379.52"/>
<polygon fill="black" stroke="black" points="311.08,-379.68 308.72,-369.35 304.12,-378.9 311.08,-379.68"/>
<text text-anchor="middle" x="380.5" y="-459.28" font-family="Times,serif" font-size="20.00">[NA]</text>
<text text-anchor="middle" x="380.5" y="-437.28" font-family="Times,serif" font-size="20.00">11 levels</text>
</g>
<!-- SG_0_Node_5 -->
<g id="node9" class="node">
<title>SG_0_Node_5</title>
<polygon fill="none" stroke="black" points="496,-366.07 364,-366.07 364,-330.07 496,-330.07 496,-366.07"/>
<text text-anchor="middle" x="430" y="-343.07" font-family="Times,serif" font-size="20.00">resp_origin</text>
</g>
<!-- SG_0_Node_3&#45;&gt;SG_0_Node_5 -->
<g id="edge14" class="edge">
<title>SG_0_Node_3&#45;&gt;SG_0_Node_5</title>
<path fill="none" stroke="black" d="M430,-540.44C430,-504.41 430,-420.27 430,-376.55"/>
<polygon fill="black" stroke="black" points="433.5,-376.36 430,-366.36 426.5,-376.36 433.5,-376.36"/>
<text text-anchor="middle" x="575" y="-448.28" font-family="Times,serif" font-size="20.00">[[&#39;origin&#45;agent&#45;cluster&#39;, &#39;?0&#39;]]</text>
</g>
<!-- SG_0_Node_6 -->
<g id="node10" class="node">
<title>SG_0_Node_6</title>
<polygon fill="none" stroke="black" points="934,-366.07 802,-366.07 802,-330.07 934,-330.07 934,-366.07"/>
<text text-anchor="middle" x="868" y="-343.07" font-family="Times,serif" font-size="20.00">resp_origin</text>
</g>
<!-- SG_0_Node_4&#45;&gt;SG_0_Node_6 -->
<g id="edge7" class="edge">
<title>SG_0_Node_4&#45;&gt;SG_0_Node_6</title>
<path fill="none" stroke="black" d="M799.94,-540.17C791.53,-507.75 778.19,-436.74 806,-387.28 809.21,-381.57 813.67,-376.6 818.73,-372.31"/>
<polygon fill="black" stroke="black" points="821.13,-374.88 827.09,-366.12 816.97,-369.26 821.13,-374.88"/>
<text text-anchor="middle" x="951" y="-448.28" font-family="Times,serif" font-size="20.00">[[&#39;origin&#45;agent&#45;cluster&#39;, &#39;?1&#39;]]</text>
</g>
<!-- SG_0_Node_12 -->
<g id="node11" class="node">
<title>SG_0_Node_12</title>
<ellipse fill="none" stroke="black" cx="1118" cy="-348.07" rx="33.88" ry="21.43"/>
<text text-anchor="middle" x="1118" y="-343.07" font-family="Times,serif" font-size="20.00">1.0</text>
</g>
<!-- SG_0_Node_4&#45;&gt;SG_0_Node_12 -->
<g id="edge8" class="edge">
<title>SG_0_Node_4&#45;&gt;SG_0_Node_12</title>
<path fill="none" stroke="black" d="M873.8,-557.79C949.89,-556.56 1065.77,-549.58 1096,-519.28 1132.55,-482.65 1129.64,-417.38 1123.98,-379.19"/>
<polygon fill="black" stroke="black" points="1127.41,-378.49 1122.34,-369.18 1120.5,-379.62 1127.41,-378.49"/>
<text text-anchor="middle" x="1172.5" y="-459.28" font-family="Times,serif" font-size="20.00">[NA]</text>
<text text-anchor="middle" x="1172.5" y="-437.28" font-family="Times,serif" font-size="20.00">11 levels</text>
</g>
<!-- SG_0_Node_7 -->
<g id="node12" class="node">
<title>SG_0_Node_7</title>
<polygon fill="none" stroke="black" points="138,-177.64 16,-177.64 16,-141.64 138,-141.64 138,-177.64"/>
<text text-anchor="middle" x="77" y="-154.64" font-family="Times,serif" font-size="20.00">org_origin</text>
</g>
<!-- SG_0_Node_5&#45;&gt;SG_0_Node_7 -->
<g id="edge15" class="edge">
<title>SG_0_Node_5&#45;&gt;SG_0_Node_7</title>
<path fill="none" stroke="black" d="M371.29,-330.03C365.82,-328.81 360.32,-327.72 355,-326.85 321.82,-321.45 76.05,-333.32 53,-308.85 19.47,-273.27 39.47,-245.83 53,-198.85 54.2,-194.7 55.99,-190.57 58.07,-186.63"/>
<polygon fill="black" stroke="black" points="61.16,-188.29 63.29,-177.91 55.15,-184.69 61.16,-188.29"/>
<text text-anchor="middle" x="239.5" y="-248.85" font-family="Times,serif" font-size="20.00">https://sub.headers.websec.saarland</text>
</g>
<!-- SG_0_Node_13 -->
<g id="node13" class="node">
<title>SG_0_Node_13</title>
<ellipse fill="none" stroke="black" cx="430" cy="-159.64" rx="33.88" ry="21.43"/>
<text text-anchor="middle" x="430" y="-154.64" font-family="Times,serif" font-size="20.00">1.0</text>
</g>
<!-- SG_0_Node_5&#45;&gt;SG_0_Node_13 -->
<g id="edge16" class="edge">
<title>SG_0_Node_5&#45;&gt;SG_0_Node_13</title>
<path fill="none" stroke="black" d="M430,-329.86C430,-298.24 430,-230.5 430,-190.99"/>
<polygon fill="black" stroke="black" points="433.5,-190.88 430,-180.88 426.5,-190.88 433.5,-190.88"/>
<text text-anchor="middle" x="637.5" y="-281.85" font-family="Times,serif" font-size="20.00">[NA]</text>
<text text-anchor="middle" x="637.5" y="-259.85" font-family="Times,serif" font-size="20.00">https://headers.webappsec.eu</text>
<text text-anchor="middle" x="637.5" y="-237.85" font-family="Times,serif" font-size="20.00">https://headers.websec.saarland</text>
<text text-anchor="middle" x="637.5" y="-215.85" font-family="Times,serif" font-size="20.00">https://sub.sub.headers.websec.saarland</text>
</g>
<!-- SG_0_Node_14 -->
<g id="node14" class="node">
<title>SG_0_Node_14</title>
<ellipse fill="none" stroke="black" cx="868" cy="-159.64" rx="33.88" ry="21.43"/>
<text text-anchor="middle" x="868" y="-154.64" font-family="Times,serif" font-size="20.00">0.0</text>
</g>
<!-- SG_0_Node_6&#45;&gt;SG_0_Node_14 -->
<g id="edge9" class="edge">
<title>SG_0_Node_6&#45;&gt;SG_0_Node_14</title>
<path fill="none" stroke="black" d="M868,-329.86C868,-298.24 868,-230.5 868,-190.99"/>
<polygon fill="black" stroke="black" points="871.5,-190.88 868,-180.88 864.5,-190.88 871.5,-190.88"/>
<text text-anchor="middle" x="1075.5" y="-281.85" font-family="Times,serif" font-size="20.00">[NA]</text>
<text text-anchor="middle" x="1075.5" y="-259.85" font-family="Times,serif" font-size="20.00">https://headers.webappsec.eu</text>
<text text-anchor="middle" x="1075.5" y="-237.85" font-family="Times,serif" font-size="20.00">https://headers.websec.saarland</text>
<text text-anchor="middle" x="1075.5" y="-215.85" font-family="Times,serif" font-size="20.00">https://sub.sub.headers.websec.saarland</text>
</g>
<!-- SG_0_Node_8 -->
<g id="node15" class="node">
<title>SG_0_Node_8</title>
<polygon fill="none" stroke="black" points="1367,-177.64 1245,-177.64 1245,-141.64 1367,-141.64 1367,-177.64"/>
<text text-anchor="middle" x="1306" y="-154.64" font-family="Times,serif" font-size="20.00">org_origin</text>
</g>
<!-- SG_0_Node_6&#45;&gt;SG_0_Node_8 -->
<g id="edge10" class="edge">
<title>SG_0_Node_6&#45;&gt;SG_0_Node_8</title>
<path fill="none" stroke="black" d="M934.17,-340.41C974.8,-336.37 1027.9,-331.18 1075,-326.85 1098.21,-324.72 1267.02,-324.82 1284,-308.85 1316.66,-278.14 1315.32,-221.6 1310.95,-187.94"/>
<polygon fill="black" stroke="black" points="1314.39,-187.25 1309.47,-177.87 1307.46,-188.27 1314.39,-187.25"/>
<text text-anchor="middle" x="1499.5" y="-248.85" font-family="Times,serif" font-size="20.00">https://sub.headers.websec.saarland</text>
</g>
<!-- SG_0_Node_15 -->
<g id="node16" class="node">
<title>SG_0_Node_15</title>
<ellipse fill="none" stroke="black" cx="63" cy="-37.21" rx="33.88" ry="21.43"/>
<text text-anchor="middle" x="63" y="-32.21" font-family="Times,serif" font-size="20.00">0.0</text>
</g>
<!-- SG_0_Node_7&#45;&gt;SG_0_Node_15 -->
<g id="edge17" class="edge">
<title>SG_0_Node_7&#45;&gt;SG_0_Node_15</title>
<path fill="none" stroke="black" d="M69.86,-141.44C67.52,-134.97 65.21,-127.47 64,-120.43 61.1,-103.51 60.7,-84.35 61.1,-68.78"/>
<polygon fill="black" stroke="black" points="64.6,-68.77 61.47,-58.65 57.6,-68.51 64.6,-68.77"/>
<text text-anchor="middle" x="250.5" y="-104.43" font-family="Times,serif" font-size="20.00">[NA]</text>
<text text-anchor="middle" x="250.5" y="-82.43" font-family="Times,serif" font-size="20.00">https://sub.headers.websec.saarland</text>
</g>
<!-- SG_0_Node_16 -->
<g id="node17" class="node">
<title>SG_0_Node_16</title>
<ellipse fill="none" stroke="black" cx="459" cy="-37.21" rx="33.88" ry="21.43"/>
<text text-anchor="middle" x="459" y="-32.21" font-family="Times,serif" font-size="20.00">1.0</text>
</g>
<!-- SG_0_Node_7&#45;&gt;SG_0_Node_16 -->
<g id="edge18" class="edge">
<title>SG_0_Node_7&#45;&gt;SG_0_Node_16</title>
<path fill="none" stroke="black" d="M138.05,-155.89C234.81,-150.99 414.79,-139.42 437,-120.43 451.76,-107.8 457.16,-86.46 458.93,-68.69"/>
<polygon fill="black" stroke="black" points="462.44,-68.67 459.6,-58.46 455.45,-68.21 462.44,-68.67"/>
<text text-anchor="middle" x="638.5" y="-93.43" font-family="Times,serif" font-size="20.00">http://sub.headers.websec.saarland</text>
</g>
<!-- SG_0_Node_17 -->
<g id="node18" class="node">
<title>SG_0_Node_17</title>
<ellipse fill="none" stroke="black" cx="920" cy="-37.21" rx="33.88" ry="21.43"/>
<text text-anchor="middle" x="920" y="-32.21" font-family="Times,serif" font-size="20.00">0.0</text>
</g>
<!-- SG_0_Node_8&#45;&gt;SG_0_Node_17 -->
<g id="edge11" class="edge">
<title>SG_0_Node_8&#45;&gt;SG_0_Node_17</title>
<path fill="none" stroke="black" d="M1244.88,-156.11C1146.43,-151.48 961.41,-140.23 939,-120.43 924.73,-107.81 920.05,-86.81 918.91,-69.19"/>
<polygon fill="black" stroke="black" points="922.39,-68.65 918.59,-58.76 915.39,-68.86 922.39,-68.65"/>
<text text-anchor="middle" x="1120.5" y="-93.43" font-family="Times,serif" font-size="20.00">http://sub.headers.websec.saarland</text>
</g>
<!-- SG_0_Node_18 -->
<g id="node19" class="node">
<title>SG_0_Node_18</title>
<ellipse fill="none" stroke="black" cx="1306" cy="-37.21" rx="33.88" ry="21.43"/>
<text text-anchor="middle" x="1306" y="-32.21" font-family="Times,serif" font-size="20.00">1.0</text>
</g>
<!-- SG_0_Node_8&#45;&gt;SG_0_Node_18 -->
<g id="edge12" class="edge">
<title>SG_0_Node_8&#45;&gt;SG_0_Node_18</title>
<path fill="none" stroke="black" d="M1306,-141.39C1306,-122.52 1306,-91.92 1306,-68.93"/>
<polygon fill="black" stroke="black" points="1309.5,-68.66 1306,-58.66 1302.5,-68.66 1309.5,-68.66"/>
<text text-anchor="middle" x="1492.5" y="-104.43" font-family="Times,serif" font-size="20.00">[NA]</text>
<text text-anchor="middle" x="1492.5" y="-82.43" font-family="Times,serif" font-size="20.00">https://sub.headers.websec.saarland</text>
</g>
<!-- SG_1_Node_0 -->
<g id="node20" class="node">
<title>SG_1_Node_0</title>
<polygon fill="none" stroke="black" points="2010.5,-1028.56 1909.5,-1028.56 1909.5,-992.56 2010.5,-992.56 2010.5,-1028.56"/>
<text text-anchor="middle" x="1960" y="-1005.56" font-family="Times,serif" font-size="20.00">browser</text>
</g>
<!-- SG_1_Node_1 -->
<g id="node21" class="node">
<title>SG_1_Node_1</title>
<polygon fill="none" stroke="black" points="1921.5,-909.35 1784.5,-909.35 1784.5,-873.35 1921.5,-873.35 1921.5,-909.35"/>
<text text-anchor="middle" x="1853" y="-886.35" font-family="Times,serif" font-size="20.00">raw_header</text>
</g>
<!-- SG_1_Node_0&#45;&gt;SG_1_Node_1 -->
<g id="edge19" class="edge">
<title>SG_1_Node_0&#45;&gt;SG_1_Node_1</title>
<path fill="none" stroke="black" d="M1944.44,-992.51C1926.29,-972.64 1896.15,-939.61 1875.46,-916.95"/>
<polygon fill="black" stroke="black" points="1877.9,-914.44 1868.58,-909.41 1872.73,-919.15 1877.9,-914.44"/>
<text text-anchor="middle" x="1970.5" y="-947.56" font-family="Times,serif" font-size="20.00">14 levels</text>
</g>
<!-- SG_1_Node_2 -->
<g id="node22" class="node">
<title>SG_1_Node_2</title>
<polygon fill="none" stroke="black" points="2232,-909.35 2100,-909.35 2100,-873.35 2232,-873.35 2232,-909.35"/>
<text text-anchor="middle" x="2166" y="-886.35" font-family="Times,serif" font-size="20.00">resp_origin</text>
</g>
<!-- SG_1_Node_0&#45;&gt;SG_1_Node_2 -->
<g id="edge20" class="edge">
<title>SG_1_Node_0&#45;&gt;SG_1_Node_2</title>
<path fill="none" stroke="black" d="M1989.95,-992.51C2026.19,-971.9 2087.27,-937.14 2127.11,-914.47"/>
<polygon fill="black" stroke="black" points="2129.05,-917.4 2136.01,-909.41 2125.59,-911.31 2129.05,-917.4"/>
<text text-anchor="middle" x="2138.5" y="-958.56" font-family="Times,serif" font-size="20.00">[NA]</text>
<text text-anchor="middle" x="2138.5" y="-936.56" font-family="Times,serif" font-size="20.00">14 levels</text>
</g>
<!-- SG_1_Node_10 -->
<g id="node23" class="node">
<title>SG_1_Node_10</title>
<ellipse fill="none" stroke="black" cx="1739" cy="-702.92" rx="33.88" ry="21.43"/>
<text text-anchor="middle" x="1739" y="-697.92" font-family="Times,serif" font-size="20.00">0.0</text>
</g>
<!-- SG_1_Node_1&#45;&gt;SG_1_Node_10 -->
<g id="edge29" class="edge">
<title>SG_1_Node_1&#45;&gt;SG_1_Node_10</title>
<path fill="none" stroke="black" d="M1784.58,-873.29C1774.37,-868.02 1764.96,-861.13 1758,-852.13 1731.92,-818.38 1731.5,-766.85 1734.54,-734.3"/>
<polygon fill="black" stroke="black" points="1738.06,-734.36 1735.67,-724.04 1731.1,-733.59 1738.06,-734.36"/>
<text text-anchor="middle" x="1803.5" y="-803.13" font-family="Times,serif" font-size="20.00">[NA]</text>
<text text-anchor="middle" x="1803.5" y="-781.13" font-family="Times,serif" font-size="20.00">11 levels</text>
</g>
<!-- SG_1_Node_3 -->
<g id="node24" class="node">
<title>SG_1_Node_3</title>
<polygon fill="none" stroke="black" points="1903.5,-720.92 1802.5,-720.92 1802.5,-684.92 1903.5,-684.92 1903.5,-720.92"/>
<text text-anchor="middle" x="1853" y="-697.92" font-family="Times,serif" font-size="20.00">browser</text>
</g>
<!-- SG_1_Node_1&#45;&gt;SG_1_Node_3 -->
<g id="edge30" class="edge">
<title>SG_1_Node_1&#45;&gt;SG_1_Node_3</title>
<path fill="none" stroke="black" d="M1853,-873.14C1853,-840.68 1853,-770.16 1853,-731.18"/>
<polygon fill="black" stroke="black" points="1856.5,-731.08 1853,-721.08 1849.5,-731.08 1856.5,-731.08"/>
<text text-anchor="middle" x="1998" y="-792.13" font-family="Times,serif" font-size="20.00">[[&#39;origin&#45;agent&#45;cluster&#39;, &#39;?1&#39;]]</text>
</g>
<!-- SG_1_Node_11 -->
<g id="node25" class="node">
<title>SG_1_Node_11</title>
<ellipse fill="none" stroke="black" cx="2166" cy="-702.92" rx="33.88" ry="21.43"/>
<text text-anchor="middle" x="2166" y="-697.92" font-family="Times,serif" font-size="20.00">0.0</text>
</g>
<!-- SG_1_Node_2&#45;&gt;SG_1_Node_11 -->
<g id="edge21" class="edge">
<title>SG_1_Node_2&#45;&gt;SG_1_Node_11</title>
<path fill="none" stroke="black" d="M2166,-873.14C2166,-841.52 2166,-773.78 2166,-734.26"/>
<polygon fill="black" stroke="black" points="2169.5,-734.16 2166,-724.16 2162.5,-734.16 2169.5,-734.16"/>
<text text-anchor="middle" x="2368.5" y="-825.13" font-family="Times,serif" font-size="20.00">http://headers.webappsec.eu</text>
<text text-anchor="middle" x="2368.5" y="-803.13" font-family="Times,serif" font-size="20.00">http://headers.websec.saarland</text>
<text text-anchor="middle" x="2368.5" y="-781.13" font-family="Times,serif" font-size="20.00">http://sub.headers.websec.saarland</text>
<text text-anchor="middle" x="2368.5" y="-759.13" font-family="Times,serif" font-size="20.00">http://sub.sub.headers.websec.saarland</text>
</g>
<!-- SG_1_Node_4 -->
<g id="node26" class="node">
<title>SG_1_Node_4</title>
<polygon fill="none" stroke="black" points="2662.5,-720.92 2525.5,-720.92 2525.5,-684.92 2662.5,-684.92 2662.5,-720.92"/>
<text text-anchor="middle" x="2594" y="-697.92" font-family="Times,serif" font-size="20.00">raw_header</text>
</g>
<!-- SG_1_Node_2&#45;&gt;SG_1_Node_4 -->
<g id="edge22" class="edge">
<title>SG_1_Node_2&#45;&gt;SG_1_Node_4</title>
<path fill="none" stroke="black" d="M2232.04,-888.52C2340.76,-884.88 2547.88,-874.99 2572,-852.13 2604.54,-821.29 2603.24,-764.8 2598.91,-731.17"/>
<polygon fill="black" stroke="black" points="2602.35,-730.51 2597.44,-721.12 2595.43,-731.52 2602.35,-730.51"/>
<text text-anchor="middle" x="2808.5" y="-836.13" font-family="Times,serif" font-size="20.00">[NA]</text>
<text text-anchor="middle" x="2808.5" y="-814.13" font-family="Times,serif" font-size="20.00">https://headers.webappsec.eu</text>
<text text-anchor="middle" x="2808.5" y="-792.13" font-family="Times,serif" font-size="20.00">https://headers.websec.saarland</text>
<text text-anchor="middle" x="2808.5" y="-770.13" font-family="Times,serif" font-size="20.00">https://sub.headers.websec.saarland</text>
<text text-anchor="middle" x="2808.5" y="-748.13" font-family="Times,serif" font-size="20.00">https://sub.sub.headers.websec.saarland</text>
</g>
<!-- SG_1_Node_12 -->
<g id="node27" class="node">
<title>SG_1_Node_12</title>
<ellipse fill="none" stroke="black" cx="1739" cy="-558.49" rx="33.88" ry="21.43"/>
<text text-anchor="middle" x="1739" y="-553.49" font-family="Times,serif" font-size="20.00">0.0</text>
</g>
<!-- SG_1_Node_3&#45;&gt;SG_1_Node_12 -->
<g id="edge31" class="edge">
<title>SG_1_Node_3&#45;&gt;SG_1_Node_12</title>
<path fill="none" stroke="black" d="M1802.4,-686.21C1783.53,-679.38 1765.17,-671.23 1759,-663.71 1742.15,-643.17 1737.94,-612.72 1737.47,-590.02"/>
<polygon fill="black" stroke="black" points="1740.97,-589.91 1737.49,-579.9 1733.97,-589.89 1740.97,-589.91"/>
<text text-anchor="middle" x="1804.5" y="-625.71" font-family="Times,serif" font-size="20.00">11 levels</text>
</g>
<!-- SG_1_Node_5 -->
<g id="node28" class="node">
<title>SG_1_Node_5</title>
<polygon fill="none" stroke="black" points="1923,-576.49 1791,-576.49 1791,-540.49 1923,-540.49 1923,-576.49"/>
<text text-anchor="middle" x="1857" y="-553.49" font-family="Times,serif" font-size="20.00">resp_origin</text>
</g>
<!-- SG_1_Node_3&#45;&gt;SG_1_Node_5 -->
<g id="edge32" class="edge">
<title>SG_1_Node_3&#45;&gt;SG_1_Node_5</title>
<path fill="none" stroke="black" d="M1853.48,-684.74C1854.16,-660.46 1855.42,-615.87 1856.23,-586.97"/>
<polygon fill="black" stroke="black" points="1859.73,-586.83 1856.52,-576.73 1852.74,-586.63 1859.73,-586.83"/>
<text text-anchor="middle" x="2208" y="-647.71" font-family="Times,serif" font-size="20.00">brave Ubuntu 22.04 1.59.120 (118.0.5993.88) selenium headless&#45;new</text>
<text text-anchor="middle" x="2208" y="-625.71" font-family="Times,serif" font-size="20.00">brave Ubuntu 22.04 1.59.120 (118.0.5993.88) selenium xvfb</text>
<text text-anchor="middle" x="2208" y="-603.71" font-family="Times,serif" font-size="20.00">opera Android 11 78.4.4143.75735 intent real</text>
</g>
<!-- SG_1_Node_6 -->
<g id="node29" class="node">
<title>SG_1_Node_6</title>
<polygon fill="none" stroke="black" points="2656,-576.49 2524,-576.49 2524,-540.49 2656,-540.49 2656,-576.49"/>
<text text-anchor="middle" x="2590" y="-553.49" font-family="Times,serif" font-size="20.00">resp_origin</text>
</g>
<!-- SG_1_Node_4&#45;&gt;SG_1_Node_6 -->
<g id="edge23" class="edge">
<title>SG_1_Node_4&#45;&gt;SG_1_Node_6</title>
<path fill="none" stroke="black" d="M2592.4,-684.81C2591.86,-678.22 2591.3,-670.62 2591,-663.71 2589.86,-637.69 2589.68,-607.99 2589.75,-586.97"/>
<polygon fill="black" stroke="black" points="2593.25,-586.85 2589.8,-576.84 2586.25,-586.82 2593.25,-586.85"/>
<text text-anchor="middle" x="2736" y="-625.71" font-family="Times,serif" font-size="20.00">[[&#39;origin&#45;agent&#45;cluster&#39;, &#39;?0&#39;]]</text>
</g>
<!-- SG_1_Node_13 -->
<g id="node30" class="node">
<title>SG_1_Node_13</title>
<ellipse fill="none" stroke="black" cx="2903" cy="-558.49" rx="33.88" ry="21.43"/>
<text text-anchor="middle" x="2903" y="-553.49" font-family="Times,serif" font-size="20.00">1.0</text>
</g>
<!-- SG_1_Node_4&#45;&gt;SG_1_Node_13 -->
<g id="edge24" class="edge">
<title>SG_1_Node_4&#45;&gt;SG_1_Node_13</title>
<path fill="none" stroke="black" d="M2662.78,-701.62C2737.46,-699.81 2850.22,-692.24 2881,-663.71 2900.87,-645.28 2905.2,-613.8 2905.27,-590.25"/>
<polygon fill="black" stroke="black" points="2908.77,-589.98 2905.04,-580.06 2901.77,-590.13 2908.77,-589.98"/>
<text text-anchor="middle" x="2950.5" y="-636.71" font-family="Times,serif" font-size="20.00">[NA]</text>
<text text-anchor="middle" x="2950.5" y="-614.71" font-family="Times,serif" font-size="20.00">11 levels</text>
</g>
<!-- SG_1_Node_7 -->
<g id="node31" class="node">
<title>SG_1_Node_7</title>
<polygon fill="none" stroke="black" points="1835,-366.07 1703,-366.07 1703,-330.07 1835,-330.07 1835,-366.07"/>
<text text-anchor="middle" x="1769" y="-343.07" font-family="Times,serif" font-size="20.00">resp_origin</text>
</g>
<!-- SG_1_Node_5&#45;&gt;SG_1_Node_7 -->
<g id="edge33" class="edge">
<title>SG_1_Node_5&#45;&gt;SG_1_Node_7</title>
<path fill="none" stroke="black" d="M1793.52,-540.41C1759.07,-530.99 1723.21,-520.88 1722,-519.28 1686.61,-472.49 1696.8,-440.26 1722,-387.28 1724.43,-382.17 1727.91,-377.53 1731.89,-373.38"/>
<polygon fill="black" stroke="black" points="1734.47,-375.76 1739.49,-366.43 1729.75,-370.6 1734.47,-375.76"/>
<text text-anchor="middle" x="1924.5" y="-503.28" font-family="Times,serif" font-size="20.00">[NA]</text>
<text text-anchor="middle" x="1924.5" y="-481.28" font-family="Times,serif" font-size="20.00">http://headers.webappsec.eu</text>
<text text-anchor="middle" x="1924.5" y="-459.28" font-family="Times,serif" font-size="20.00">http://headers.websec.saarland</text>
<text text-anchor="middle" x="1924.5" y="-437.28" font-family="Times,serif" font-size="20.00">http://sub.headers.websec.saarland</text>
<text text-anchor="middle" x="1924.5" y="-415.28" font-family="Times,serif" font-size="20.00">http://sub.sub.headers.websec.saarland</text>
<text text-anchor="middle" x="1924.5" y="-393.28" font-family="Times,serif" font-size="20.00">https://sub.headers.websec.saarland</text>
</g>
<!-- SG_1_Node_14 -->
<g id="node32" class="node">
<title>SG_1_Node_14</title>
<ellipse fill="none" stroke="black" cx="2149" cy="-348.07" rx="33.88" ry="21.43"/>
<text text-anchor="middle" x="2149" y="-343.07" font-family="Times,serif" font-size="20.00">1.0</text>
</g>
<!-- SG_1_Node_5&#45;&gt;SG_1_Node_14 -->
<g id="edge34" class="edge">
<title>SG_1_Node_5&#45;&gt;SG_1_Node_14</title>
<path fill="none" stroke="black" d="M1923.09,-557.02C1993.74,-555.02 2099.34,-547.27 2127,-519.28 2163.37,-482.47 2160.52,-417.26 2154.92,-379.13"/>
<polygon fill="black" stroke="black" points="2158.36,-378.45 2153.3,-369.14 2151.45,-379.57 2158.36,-378.45"/>
<text text-anchor="middle" x="2365.5" y="-470.28" font-family="Times,serif" font-size="20.00">https://headers.webappsec.eu</text>
<text text-anchor="middle" x="2365.5" y="-448.28" font-family="Times,serif" font-size="20.00">https://headers.websec.saarland</text>
<text text-anchor="middle" x="2365.5" y="-426.28" font-family="Times,serif" font-size="20.00">https://sub.sub.headers.websec.saarland</text>
</g>
<!-- SG_1_Node_15 -->
<g id="node33" class="node">
<title>SG_1_Node_15</title>
<ellipse fill="none" stroke="black" cx="2587" cy="-348.07" rx="33.88" ry="21.43"/>
<text text-anchor="middle" x="2587" y="-343.07" font-family="Times,serif" font-size="20.00">0.0</text>
</g>
<!-- SG_1_Node_6&#45;&gt;SG_1_Node_15 -->
<g id="edge25" class="edge">
<title>SG_1_Node_6&#45;&gt;SG_1_Node_15</title>
<path fill="none" stroke="black" d="M2588.93,-540.38C2588.57,-533.79 2588.2,-526.19 2588,-519.28 2586.58,-470.5 2586.58,-413.83 2586.75,-379.74"/>
<polygon fill="black" stroke="black" points="2590.25,-379.53 2586.81,-369.51 2583.25,-379.49 2590.25,-379.53"/>
<text text-anchor="middle" x="2795.5" y="-481.28" font-family="Times,serif" font-size="20.00">[NA]</text>
<text text-anchor="middle" x="2795.5" y="-459.28" font-family="Times,serif" font-size="20.00">https://headers.webappsec.eu</text>
<text text-anchor="middle" x="2795.5" y="-437.28" font-family="Times,serif" font-size="20.00">https://headers.websec.saarland</text>
<text text-anchor="middle" x="2795.5" y="-415.28" font-family="Times,serif" font-size="20.00">https://sub.sub.headers.websec.saarland</text>
</g>
<!-- SG_1_Node_8 -->
<g id="node34" class="node">
<title>SG_1_Node_8</title>
<polygon fill="none" stroke="black" points="3086,-366.07 2964,-366.07 2964,-330.07 3086,-330.07 3086,-366.07"/>
<text text-anchor="middle" x="3025" y="-343.07" font-family="Times,serif" font-size="20.00">org_origin</text>
</g>
<!-- SG_1_Node_6&#45;&gt;SG_1_Node_8 -->
<g id="edge26" class="edge">
<title>SG_1_Node_6&#45;&gt;SG_1_Node_8</title>
<path fill="none" stroke="black" d="M2656.06,-552.44C2771.15,-543.49 2996.83,-525.23 3003,-519.28 3041.16,-482.48 3036.9,-414.6 3030.76,-376.63"/>
<polygon fill="black" stroke="black" points="3034.12,-375.55 3028.92,-366.32 3027.23,-376.78 3034.12,-375.55"/>
<text text-anchor="middle" x="3220.5" y="-448.28" font-family="Times,serif" font-size="20.00">https://sub.headers.websec.saarland</text>
</g>
<!-- SG_1_Node_16 -->
<g id="node35" class="node">
<title>SG_1_Node_16</title>
<ellipse fill="none" stroke="black" cx="1753" cy="-159.64" rx="33.88" ry="21.43"/>
<text text-anchor="middle" x="1753" y="-154.64" font-family="Times,serif" font-size="20.00">0.0</text>
</g>
<!-- SG_1_Node_7&#45;&gt;SG_1_Node_16 -->
<g id="edge35" class="edge">
<title>SG_1_Node_7&#45;&gt;SG_1_Node_16</title>
<path fill="none" stroke="black" d="M1760.74,-329.97C1758.04,-323.51 1755.38,-315.99 1754,-308.85 1746.28,-268.8 1747.74,-221.51 1749.97,-191.31"/>
<polygon fill="black" stroke="black" points="1753.48,-191.26 1750.81,-181.01 1746.51,-190.69 1753.48,-191.26"/>
<text text-anchor="middle" x="1956.5" y="-292.85" font-family="Times,serif" font-size="20.00">[NA]</text>
<text text-anchor="middle" x="1956.5" y="-270.85" font-family="Times,serif" font-size="20.00">http://headers.webappsec.eu</text>
<text text-anchor="middle" x="1956.5" y="-248.85" font-family="Times,serif" font-size="20.00">http://headers.websec.saarland</text>
<text text-anchor="middle" x="1956.5" y="-226.85" font-family="Times,serif" font-size="20.00">http://sub.headers.websec.saarland</text>
<text text-anchor="middle" x="1956.5" y="-204.85" font-family="Times,serif" font-size="20.00">http://sub.sub.headers.websec.saarland</text>
</g>
<!-- SG_1_Node_9 -->
<g id="node36" class="node">
<title>SG_1_Node_9</title>
<polygon fill="none" stroke="black" points="2242,-177.64 2120,-177.64 2120,-141.64 2242,-141.64 2242,-177.64"/>
<text text-anchor="middle" x="2181" y="-154.64" font-family="Times,serif" font-size="20.00">org_origin</text>
</g>
<!-- SG_1_Node_7&#45;&gt;SG_1_Node_9 -->
<g id="edge36" class="edge">
<title>SG_1_Node_7&#45;&gt;SG_1_Node_9</title>
<path fill="none" stroke="black" d="M1835.39,-344.95C1940.59,-340.95 2136.08,-330.66 2159,-308.85 2191.48,-277.95 2190.2,-221.48 2185.89,-187.87"/>
<polygon fill="black" stroke="black" points="2189.33,-187.22 2184.43,-177.83 2182.41,-188.23 2189.33,-187.22"/>
<text text-anchor="middle" x="2374.5" y="-248.85" font-family="Times,serif" font-size="20.00">https://sub.headers.websec.saarland</text>
</g>
<!-- SG_1_Node_17 -->
<g id="node37" class="node">
<title>SG_1_Node_17</title>
<ellipse fill="none" stroke="black" cx="2639" cy="-159.64" rx="33.88" ry="21.43"/>
<text text-anchor="middle" x="2639" y="-154.64" font-family="Times,serif" font-size="20.00">0.0</text>
</g>
<!-- SG_1_Node_8&#45;&gt;SG_1_Node_17 -->
<g id="edge27" class="edge">
<title>SG_1_Node_8&#45;&gt;SG_1_Node_17</title>
<path fill="none" stroke="black" d="M2963.66,-344.78C2864.88,-340.49 2679.4,-329.75 2658,-308.85 2627.02,-278.6 2628.36,-224.78 2633.05,-190.99"/>
<polygon fill="black" stroke="black" points="2636.56,-191.2 2634.65,-180.78 2629.64,-190.12 2636.56,-191.2"/>
<text text-anchor="middle" x="2839.5" y="-248.85" font-family="Times,serif" font-size="20.00">http://sub.headers.websec.saarland</text>
</g>
<!-- SG_1_Node_18 -->
<g id="node38" class="node">
<title>SG_1_Node_18</title>
<ellipse fill="none" stroke="black" cx="3025" cy="-159.64" rx="33.88" ry="21.43"/>
<text text-anchor="middle" x="3025" y="-154.64" font-family="Times,serif" font-size="20.00">1.0</text>
</g>
<!-- SG_1_Node_8&#45;&gt;SG_1_Node_18 -->
<g id="edge28" class="edge">
<title>SG_1_Node_8&#45;&gt;SG_1_Node_18</title>
<path fill="none" stroke="black" d="M3025,-329.86C3025,-298.24 3025,-230.5 3025,-190.99"/>
<polygon fill="black" stroke="black" points="3028.5,-190.88 3025,-180.88 3021.5,-190.88 3028.5,-190.88"/>
<text text-anchor="middle" x="3211.5" y="-259.85" font-family="Times,serif" font-size="20.00">[NA]</text>
<text text-anchor="middle" x="3211.5" y="-237.85" font-family="Times,serif" font-size="20.00">https://sub.headers.websec.saarland</text>
</g>
<!-- SG_1_Node_19 -->
<g id="node39" class="node">
<title>SG_1_Node_19</title>
<ellipse fill="none" stroke="black" cx="1983" cy="-37.21" rx="33.88" ry="21.43"/>
<text text-anchor="middle" x="1983" y="-32.21" font-family="Times,serif" font-size="20.00">0.0</text>
</g>
<!-- SG_1_Node_9&#45;&gt;SG_1_Node_19 -->
<g id="edge37" class="edge">
<title>SG_1_Node_9&#45;&gt;SG_1_Node_19</title>
<path fill="none" stroke="black" d="M2119.79,-155.04C2068.55,-150.6 2001.14,-140.95 1984,-120.43 1972.18,-106.27 1972.04,-85.47 1974.79,-68.33"/>
<polygon fill="black" stroke="black" points="1978.28,-68.71 1976.81,-58.22 1971.42,-67.35 1978.28,-68.71"/>
<text text-anchor="middle" x="2170.5" y="-104.43" font-family="Times,serif" font-size="20.00">[NA]</text>
<text text-anchor="middle" x="2170.5" y="-82.43" font-family="Times,serif" font-size="20.00">https://sub.headers.websec.saarland</text>
</g>
<!-- SG_1_Node_20 -->
<g id="node40" class="node">
<title>SG_1_Node_20</title>
<ellipse fill="none" stroke="black" cx="2379" cy="-37.21" rx="33.88" ry="21.43"/>
<text text-anchor="middle" x="2379" y="-32.21" font-family="Times,serif" font-size="20.00">1.0</text>
</g>
<!-- SG_1_Node_9&#45;&gt;SG_1_Node_20 -->
<g id="edge38" class="edge">
<title>SG_1_Node_9&#45;&gt;SG_1_Node_20</title>
<path fill="none" stroke="black" d="M2242.32,-152.14C2286.31,-146.25 2340.59,-136.07 2357,-120.43 2370.81,-107.25 2376.29,-86.44 2378.32,-69.05"/>
<polygon fill="black" stroke="black" points="2381.84,-69.02 2379.19,-58.77 2374.86,-68.44 2381.84,-69.02"/>
<text text-anchor="middle" x="2557.5" y="-93.43" font-family="Times,serif" font-size="20.00">http://sub.headers.websec.saarland</text>
</g>
<!-- SG_2_Node_0 -->
<g id="node41" class="node">
<title>SG_2_Node_0</title>
<polygon fill="none" stroke="black" points="3571.5,-1028.56 3470.5,-1028.56 3470.5,-992.56 3571.5,-992.56 3571.5,-1028.56"/>
<text text-anchor="middle" x="3521" y="-1005.56" font-family="Times,serif" font-size="20.00">browser</text>
</g>
<!-- SG_2_Node_1 -->
<g id="node42" class="node">
<title>SG_2_Node_1</title>
<ellipse fill="none" stroke="black" cx="3488" cy="-891.35" rx="33.88" ry="21.43"/>
<text text-anchor="middle" x="3488" y="-886.35" font-family="Times,serif" font-size="20.00">0.0</text>
</g>
<!-- SG_2_Node_0&#45;&gt;SG_2_Node_1 -->
<g id="edge39" class="edge">
<title>SG_2_Node_0&#45;&gt;SG_2_Node_1</title>
<path fill="none" stroke="black" d="M3500.85,-992.47C3496.07,-987.25 3491.6,-981.14 3489,-974.56 3482.61,-958.38 3482.07,-938.97 3483.27,-923.08"/>
<polygon fill="black" stroke="black" points="3486.79,-923.02 3484.32,-912.72 3479.83,-922.31 3486.79,-923.02"/>
<text text-anchor="middle" x="3534.5" y="-958.56" font-family="Times,serif" font-size="20.00">[NA]</text>
<text text-anchor="middle" x="3534.5" y="-936.56" font-family="Times,serif" font-size="20.00">17 levels</text>
</g>
<!-- SG_2_Node_2 -->
<g id="node43" class="node">
<title>SG_2_Node_2</title>
<ellipse fill="none" stroke="black" cx="3602" cy="-891.35" rx="33.88" ry="21.43"/>
<text text-anchor="middle" x="3602" y="-886.35" font-family="Times,serif" font-size="20.00">1.0</text>
</g>
<!-- SG_2_Node_0&#45;&gt;SG_2_Node_2 -->
<g id="edge40" class="edge">
<title>SG_2_Node_0&#45;&gt;SG_2_Node_2</title>
<path fill="none" stroke="black" d="M3559.69,-992.49C3567.31,-987.63 3574.61,-981.68 3580,-974.56 3591.2,-959.78 3596.71,-939.73 3599.41,-923.13"/>
<polygon fill="black" stroke="black" points="3602.93,-923.19 3600.81,-912.81 3596,-922.25 3602.93,-923.19"/>
<text text-anchor="middle" x="3642.5" y="-947.56" font-family="Times,serif" font-size="20.00">11 levels</text>
</g>
</g>
</svg>
