<?xml version="1.0" encoding="UTF-8" standalone="no"?>
<!DOCTYPE svg PUBLIC "-//W3C//DTD SVG 1.1//EN"
 "http://www.w3.org/Graphics/SVG/1.1/DTD/svg11.dtd">
<!-- Generated by graphviz version 2.43.0 (0)
 -->
<!-- Title: G Pages: 1 -->
<svg width="2063pt" height="250pt"
 viewBox="0.00 0.00 2063.00 250.43" xmlns="http://www.w3.org/2000/svg" xmlns:xlink="http://www.w3.org/1999/xlink">
<g id="graph0" class="graph" transform="scale(1 1) rotate(0) translate(4 246.43)">
<title>G</title>
<polygon fill="white" stroke="transparent" points="-4,4 -4,-246.43 2059,-246.43 2059,4 -4,4"/>
<g id="clust1" class="cluster">
<title>cluster_0</title>
<polygon fill="none" stroke="black" points="8,-8 8,-234.43 964,-234.43 964,-8 8,-8"/>
<text text-anchor="middle" x="486" y="-198.43" font-family="Times,serif" font-size="40.00">Tree 0, Class window.originAgentCluster: true</text>
</g>
<g id="clust4" class="cluster">
<title>cluster_1</title>
<polygon fill="none" stroke="black" points="972,-8 972,-234.43 2047,-234.43 2047,-8 972,-8"/>
<text text-anchor="middle" x="1509.5" y="-198.43" font-family="Times,serif" font-size="40.00">Tree 0, Class window.originAgentCluster: undefined</text>
</g>
<!-- SG_0_Node_0 -->
<g id="node1" class="node">
<title>SG_0_Node_0</title>
<polygon fill="none" stroke="black" points="165.5,-174.43 64.5,-174.43 64.5,-138.43 165.5,-138.43 165.5,-174.43"/>
<text text-anchor="middle" x="115" y="-151.43" font-family="Times,serif" font-size="20.00">browser</text>
</g>
<!-- SG_0_Node_1 -->
<g id="node2" class="node">
<title>SG_0_Node_1</title>
<ellipse fill="none" stroke="black" cx="82" cy="-37.21" rx="33.88" ry="21.43"/>
<text text-anchor="middle" x="82" y="-32.21" font-family="Times,serif" font-size="20.00">0.0</text>
</g>
<!-- SG_0_Node_0&#45;&gt;SG_0_Node_1 -->
<g id="edge1" class="edge">
<title>SG_0_Node_0&#45;&gt;SG_0_Node_1</title>
<path fill="none" stroke="black" d="M94.85,-138.33C90.07,-133.12 85.6,-127.01 83,-120.43 76.61,-104.25 76.07,-84.84 77.27,-68.94"/>
<polygon fill="black" stroke="black" points="80.79,-68.89 78.32,-58.58 73.83,-68.18 80.79,-68.89"/>
<text text-anchor="middle" x="128.5" y="-93.43" font-family="Times,serif" font-size="20.00">11 levels</text>
</g>
<!-- SG_0_Node_2 -->
<g id="node3" class="node">
<title>SG_0_Node_2</title>
<ellipse fill="none" stroke="black" cx="196" cy="-37.21" rx="33.88" ry="21.43"/>
<text text-anchor="middle" x="196" y="-32.21" font-family="Times,serif" font-size="20.00">1.0</text>
</g>
<!-- SG_0_Node_0&#45;&gt;SG_0_Node_2 -->
<g id="edge2" class="edge">
<title>SG_0_Node_0&#45;&gt;SG_0_Node_2</title>
<path fill="none" stroke="black" d="M153.69,-138.36C161.31,-133.5 168.61,-127.55 174,-120.43 185.2,-105.65 190.71,-85.6 193.41,-69"/>
<polygon fill="black" stroke="black" points="196.93,-69.06 194.81,-58.68 190,-68.12 196.93,-69.06"/>
<text text-anchor="middle" x="236.5" y="-104.43" font-family="Times,serif" font-size="20.00">[NA]</text>
<text text-anchor="middle" x="236.5" y="-82.43" font-family="Times,serif" font-size="20.00">17 levels</text>
</g>
<!-- SG_1_Node_0 -->
<g id="node4" class="node">
<title>SG_1_Node_0</title>
<polygon fill="none" stroke="black" points="1129.5,-174.43 1028.5,-174.43 1028.5,-138.43 1129.5,-138.43 1129.5,-174.43"/>
<text text-anchor="middle" x="1079" y="-151.43" font-family="Times,serif" font-size="20.00">browser</text>
</g>
<!-- SG_1_Node_1 -->
<g id="node5" class="node">
<title>SG_1_Node_1</title>
<ellipse fill="none" stroke="black" cx="1046" cy="-37.21" rx="33.88" ry="21.43"/>
<text text-anchor="middle" x="1046" y="-32.21" font-family="Times,serif" font-size="20.00">0.0</text>
</g>
<!-- SG_1_Node_0&#45;&gt;SG_1_Node_1 -->
<g id="edge3" class="edge">
<title>SG_1_Node_0&#45;&gt;SG_1_Node_1</title>
<path fill="none" stroke="black" d="M1058.85,-138.33C1054.07,-133.12 1049.6,-127.01 1047,-120.43 1040.61,-104.25 1040.07,-84.84 1041.27,-68.94"/>
<polygon fill="black" stroke="black" points="1044.79,-68.89 1042.32,-58.58 1037.83,-68.18 1044.79,-68.89"/>
<text text-anchor="middle" x="1092.5" y="-104.43" font-family="Times,serif" font-size="20.00">[NA]</text>
<text text-anchor="middle" x="1092.5" y="-82.43" font-family="Times,serif" font-size="20.00">17 levels</text>
</g>
<!-- SG_1_Node_2 -->
<g id="node6" class="node">
<title>SG_1_Node_2</title>
<ellipse fill="none" stroke="black" cx="1160" cy="-37.21" rx="33.88" ry="21.43"/>
<text text-anchor="middle" x="1160" y="-32.21" font-family="Times,serif" font-size="20.00">1.0</text>
</g>
<!-- SG_1_Node_0&#45;&gt;SG_1_Node_2 -->
<g id="edge4" class="edge">
<title>SG_1_Node_0&#45;&gt;SG_1_Node_2</title>
<path fill="none" stroke="black" d="M1117.69,-138.36C1125.31,-133.5 1132.61,-127.55 1138,-120.43 1149.2,-105.65 1154.71,-85.6 1157.41,-69"/>
<polygon fill="black" stroke="black" points="1160.93,-69.06 1158.81,-58.68 1154,-68.12 1160.93,-69.06"/>
<text text-anchor="middle" x="1200.5" y="-93.43" font-family="Times,serif" font-size="20.00">11 levels</text>
</g>
</g>
</svg>
