<?xml version="1.0" encoding="UTF-8" standalone="no"?>
<!DOCTYPE svg PUBLIC "-//W3C//DTD SVG 1.1//EN"
 "http://www.w3.org/Graphics/SVG/1.1/DTD/svg11.dtd">
<!-- Generated by graphviz version 2.43.0 (0)
 -->
<!-- Title: G Pages: 1 -->
<svg width="7019pt" height="1058pt"
 viewBox="0.00 0.00 7019.00 1057.71" xmlns="http://www.w3.org/2000/svg" xmlns:xlink="http://www.w3.org/1999/xlink">
<g id="graph0" class="graph" transform="scale(1 1) rotate(0) translate(4 1053.71)">
<title>G</title>
<polygon fill="white" stroke="transparent" points="-4,4 -4,-1053.71 7015,-1053.71 7015,4 -4,4"/>
<g id="clust1" class="cluster">
<title>cluster_0</title>
<polygon fill="none" stroke="black" points="8,-384.85 8,-1041.71 885,-1041.71 885,-384.85 8,-384.85"/>
<text text-anchor="middle" x="446.5" y="-1005.71" font-family="Times,serif" font-size="40.00">Tree 0, Class No performance entry</text>
</g>
<g id="clust5" class="cluster">
<title>cluster_1</title>
<polygon fill="none" stroke="black" points="893,-8 893,-1041.71 3943,-1041.71 3943,-8 893,-8"/>
<text text-anchor="middle" x="2418" y="-1005.71" font-family="Times,serif" font-size="40.00">Tree 0, Class {&#39;requestStart != 0&#39;: False}</text>
</g>
<g id="clust11" class="cluster">
<title>cluster_2</title>
<polygon fill="none" stroke="black" points="3951,-8 3951,-1041.71 7001,-1041.71 7001,-8 3951,-8"/>
<text text-anchor="middle" x="5476" y="-1005.71" font-family="Times,serif" font-size="40.00">Tree 0, Class {&#39;requestStart != 0&#39;: True}</text>
</g>
<!-- SG_0_Node_0 -->
<g id="node1" class="node">
<title>SG_0_Node_0</title>
<polygon fill="none" stroke="black" points="358.5,-981.71 257.5,-981.71 257.5,-945.71 358.5,-945.71 358.5,-981.71"/>
<text text-anchor="middle" x="308" y="-958.71" font-family="Times,serif" font-size="20.00">browser</text>
</g>
<!-- SG_0_Node_2 -->
<g id="node2" class="node">
<title>SG_0_Node_2</title>
<ellipse fill="none" stroke="black" cx="50" cy="-690.49" rx="33.88" ry="21.43"/>
<text text-anchor="middle" x="50" y="-685.49" font-family="Times,serif" font-size="20.00">0.0</text>
</g>
<!-- SG_0_Node_0&#45;&gt;SG_0_Node_2 -->
<g id="edge1" class="edge">
<title>SG_0_Node_0&#45;&gt;SG_0_Node_2</title>
<path fill="none" stroke="black" d="M257.41,-959.68C183.49,-954.73 53.16,-943.83 39,-927.71 -11.82,-869.85 17.74,-769.96 37.17,-720.7"/>
<polygon fill="black" stroke="black" points="40.48,-721.85 41.01,-711.26 34,-719.21 40.48,-721.85"/>
<text text-anchor="middle" x="285.5" y="-911.71" font-family="Times,serif" font-size="20.00">brave iPadOS 17.2 1.61 (23.12.18.22) intent real</text>
<text text-anchor="middle" x="285.5" y="-889.71" font-family="Times,serif" font-size="20.00">firefox Ubuntu 22.04 119 selenium headless</text>
<text text-anchor="middle" x="285.5" y="-867.71" font-family="Times,serif" font-size="20.00">firefox Ubuntu 22.04 119 selenium xvfb</text>
<text text-anchor="middle" x="285.5" y="-845.71" font-family="Times,serif" font-size="20.00">firefox iPadOS 17.2 121.0 (36782) intent real</text>
<text text-anchor="middle" x="285.5" y="-823.71" font-family="Times,serif" font-size="20.00">firefox macOS 14.2.1 120 selenium headless</text>
<text text-anchor="middle" x="285.5" y="-801.71" font-family="Times,serif" font-size="20.00">firefox macOS 14.2.1 120 selenium real</text>
<text text-anchor="middle" x="285.5" y="-779.71" font-family="Times,serif" font-size="20.00">firefox_beta Android 11 122.0b1 intent real</text>
<text text-anchor="middle" x="285.5" y="-757.71" font-family="Times,serif" font-size="20.00">operagx iPadOS 17.2 2.2.2 intent real</text>
<text text-anchor="middle" x="285.5" y="-735.71" font-family="Times,serif" font-size="20.00">safari macOS 14.2.1 17.2 selenium real</text>
</g>
<!-- SG_0_Node_1 -->
<g id="node3" class="node">
<title>SG_0_Node_1</title>
<polygon fill="none" stroke="black" points="538,-708.49 406,-708.49 406,-672.49 538,-672.49 538,-708.49"/>
<text text-anchor="middle" x="472" y="-685.49" font-family="Times,serif" font-size="20.00">resp_origin</text>
</g>
<!-- SG_0_Node_0&#45;&gt;SG_0_Node_1 -->
<g id="edge2" class="edge">
<title>SG_0_Node_0&#45;&gt;SG_0_Node_1</title>
<path fill="none" stroke="black" d="M358.55,-962.31C418.63,-960.64 513.6,-953.8 536,-927.71 593.31,-860.93 579.44,-806.24 536,-729.71 532.65,-723.81 527.99,-718.72 522.7,-714.37"/>
<polygon fill="black" stroke="black" points="524.73,-711.51 514.57,-708.49 520.63,-717.19 524.73,-711.51"/>
<text text-anchor="middle" x="618.5" y="-834.71" font-family="Times,serif" font-size="20.00">[NA]</text>
<text text-anchor="middle" x="618.5" y="-812.71" font-family="Times,serif" font-size="20.00">19 levels</text>
</g>
<!-- SG_0_Node_3 -->
<g id="node4" class="node">
<title>SG_0_Node_3</title>
<ellipse fill="none" stroke="black" cx="50" cy="-414.07" rx="33.88" ry="21.43"/>
<text text-anchor="middle" x="50" y="-409.07" font-family="Times,serif" font-size="20.00">0.0</text>
</g>
<!-- SG_0_Node_1&#45;&gt;SG_0_Node_3 -->
<g id="edge3" class="edge">
<title>SG_0_Node_1&#45;&gt;SG_0_Node_3</title>
<path fill="none" stroke="black" d="M405.74,-688.22C293.64,-685.37 76.43,-676.62 53,-651.28 0.77,-594.8 23.47,-494.27 39.34,-444.56"/>
<polygon fill="black" stroke="black" points="42.67,-445.64 42.49,-435.05 36.02,-443.44 42.67,-445.64"/>
<text text-anchor="middle" x="260.5" y="-569.28" font-family="Times,serif" font-size="20.00">https://headers.webappsec.eu</text>
<text text-anchor="middle" x="260.5" y="-547.28" font-family="Times,serif" font-size="20.00">https://headers.websec.saarland</text>
<text text-anchor="middle" x="260.5" y="-525.28" font-family="Times,serif" font-size="20.00">https://sub.sub.headers.websec.saarland</text>
</g>
<!-- SG_0_Node_4 -->
<g id="node5" class="node">
<title>SG_0_Node_4</title>
<ellipse fill="none" stroke="black" cx="472" cy="-414.07" rx="33.88" ry="21.43"/>
<text text-anchor="middle" x="472" y="-409.07" font-family="Times,serif" font-size="20.00">1.0</text>
</g>
<!-- SG_0_Node_1&#45;&gt;SG_0_Node_4 -->
<g id="edge4" class="edge">
<title>SG_0_Node_1&#45;&gt;SG_0_Node_4</title>
<path fill="none" stroke="black" d="M472,-672.33C472,-627.02 472,-503.74 472,-445.86"/>
<polygon fill="black" stroke="black" points="475.5,-445.52 472,-435.52 468.5,-445.52 475.5,-445.52"/>
<text text-anchor="middle" x="674.5" y="-591.28" font-family="Times,serif" font-size="20.00">[NA]</text>
<text text-anchor="middle" x="674.5" y="-569.28" font-family="Times,serif" font-size="20.00">http://headers.webappsec.eu</text>
<text text-anchor="middle" x="674.5" y="-547.28" font-family="Times,serif" font-size="20.00">http://headers.websec.saarland</text>
<text text-anchor="middle" x="674.5" y="-525.28" font-family="Times,serif" font-size="20.00">http://sub.headers.websec.saarland</text>
<text text-anchor="middle" x="674.5" y="-503.28" font-family="Times,serif" font-size="20.00">http://sub.sub.headers.websec.saarland</text>
</g>
<!-- SG_1_Node_0 -->
<g id="node6" class="node">
<title>SG_1_Node_0</title>
<polygon fill="none" stroke="black" points="1535.5,-981.71 1434.5,-981.71 1434.5,-945.71 1535.5,-945.71 1535.5,-981.71"/>
<text text-anchor="middle" x="1485" y="-958.71" font-family="Times,serif" font-size="20.00">browser</text>
</g>
<!-- SG_1_Node_1 -->
<g id="node7" class="node">
<title>SG_1_Node_1</title>
<polygon fill="none" stroke="black" points="1413,-708.49 1281,-708.49 1281,-672.49 1413,-672.49 1413,-708.49"/>
<text text-anchor="middle" x="1347" y="-685.49" font-family="Times,serif" font-size="20.00">resp_origin</text>
</g>
<!-- SG_1_Node_0&#45;&gt;SG_1_Node_1 -->
<g id="edge5" class="edge">
<title>SG_1_Node_0&#45;&gt;SG_1_Node_1</title>
<path fill="none" stroke="black" d="M1476.16,-945.33C1452.64,-899.12 1388.46,-772.97 1360.41,-717.85"/>
<polygon fill="black" stroke="black" points="1363.42,-716.05 1355.77,-708.73 1357.18,-719.23 1363.42,-716.05"/>
<text text-anchor="middle" x="1509.5" y="-834.71" font-family="Times,serif" font-size="20.00">[NA]</text>
<text text-anchor="middle" x="1509.5" y="-812.71" font-family="Times,serif" font-size="20.00">19 levels</text>
</g>
<!-- SG_1_Node_2 -->
<g id="node8" class="node">
<title>SG_1_Node_2</title>
<polygon fill="none" stroke="black" points="1853.5,-708.49 1716.5,-708.49 1716.5,-672.49 1853.5,-672.49 1853.5,-708.49"/>
<text text-anchor="middle" x="1785" y="-685.49" font-family="Times,serif" font-size="20.00">raw_header</text>
</g>
<!-- SG_1_Node_0&#45;&gt;SG_1_Node_2 -->
<g id="edge6" class="edge">
<title>SG_1_Node_0&#45;&gt;SG_1_Node_2</title>
<path fill="none" stroke="black" d="M1527.99,-945.62C1538.56,-940.56 1549.55,-934.52 1559,-927.71 1647.2,-864.12 1729.96,-763.42 1766.02,-716.76"/>
<polygon fill="black" stroke="black" points="1768.9,-718.76 1772.2,-708.7 1763.34,-714.5 1768.9,-718.76"/>
<text text-anchor="middle" x="2001.5" y="-911.71" font-family="Times,serif" font-size="20.00">brave iPadOS 17.2 1.61 (23.12.18.22) intent real</text>
<text text-anchor="middle" x="2001.5" y="-889.71" font-family="Times,serif" font-size="20.00">firefox Ubuntu 22.04 119 selenium headless</text>
<text text-anchor="middle" x="2001.5" y="-867.71" font-family="Times,serif" font-size="20.00">firefox Ubuntu 22.04 119 selenium xvfb</text>
<text text-anchor="middle" x="2001.5" y="-845.71" font-family="Times,serif" font-size="20.00">firefox iPadOS 17.2 121.0 (36782) intent real</text>
<text text-anchor="middle" x="2001.5" y="-823.71" font-family="Times,serif" font-size="20.00">firefox macOS 14.2.1 120 selenium headless</text>
<text text-anchor="middle" x="2001.5" y="-801.71" font-family="Times,serif" font-size="20.00">firefox macOS 14.2.1 120 selenium real</text>
<text text-anchor="middle" x="2001.5" y="-779.71" font-family="Times,serif" font-size="20.00">firefox_beta Android 11 122.0b1 intent real</text>
<text text-anchor="middle" x="2001.5" y="-757.71" font-family="Times,serif" font-size="20.00">operagx iPadOS 17.2 2.2.2 intent real</text>
<text text-anchor="middle" x="2001.5" y="-735.71" font-family="Times,serif" font-size="20.00">safari macOS 14.2.1 17.2 selenium real</text>
</g>
<!-- SG_1_Node_6 -->
<g id="node9" class="node">
<title>SG_1_Node_6</title>
<ellipse fill="none" stroke="black" cx="935" cy="-414.07" rx="33.88" ry="21.43"/>
<text text-anchor="middle" x="935" y="-409.07" font-family="Times,serif" font-size="20.00">0.0</text>
</g>
<!-- SG_1_Node_1&#45;&gt;SG_1_Node_6 -->
<g id="edge13" class="edge">
<title>SG_1_Node_1&#45;&gt;SG_1_Node_6</title>
<path fill="none" stroke="black" d="M1280.57,-688.05C1170.65,-684.98 960.73,-675.91 938,-651.28 885.83,-594.74 908.5,-494.24 924.35,-444.55"/>
<polygon fill="black" stroke="black" points="927.68,-445.63 927.5,-435.04 921.03,-443.43 927.68,-445.63"/>
<text text-anchor="middle" x="1140.5" y="-591.28" font-family="Times,serif" font-size="20.00">[NA]</text>
<text text-anchor="middle" x="1140.5" y="-569.28" font-family="Times,serif" font-size="20.00">http://headers.webappsec.eu</text>
<text text-anchor="middle" x="1140.5" y="-547.28" font-family="Times,serif" font-size="20.00">http://headers.websec.saarland</text>
<text text-anchor="middle" x="1140.5" y="-525.28" font-family="Times,serif" font-size="20.00">http://sub.headers.websec.saarland</text>
<text text-anchor="middle" x="1140.5" y="-503.28" font-family="Times,serif" font-size="20.00">http://sub.sub.headers.websec.saarland</text>
</g>
<!-- SG_1_Node_3 -->
<g id="node10" class="node">
<title>SG_1_Node_3</title>
<polygon fill="none" stroke="black" points="1397.5,-432.07 1296.5,-432.07 1296.5,-396.07 1397.5,-396.07 1397.5,-432.07"/>
<text text-anchor="middle" x="1347" y="-409.07" font-family="Times,serif" font-size="20.00">browser</text>
</g>
<!-- SG_1_Node_1&#45;&gt;SG_1_Node_3 -->
<g id="edge14" class="edge">
<title>SG_1_Node_1&#45;&gt;SG_1_Node_3</title>
<path fill="none" stroke="black" d="M1347,-672.33C1347,-626.12 1347,-498.83 1347,-442.5"/>
<polygon fill="black" stroke="black" points="1350.5,-442.23 1347,-432.23 1343.5,-442.23 1350.5,-442.23"/>
<text text-anchor="middle" x="1554.5" y="-569.28" font-family="Times,serif" font-size="20.00">https://headers.webappsec.eu</text>
<text text-anchor="middle" x="1554.5" y="-547.28" font-family="Times,serif" font-size="20.00">https://headers.websec.saarland</text>
<text text-anchor="middle" x="1554.5" y="-525.28" font-family="Times,serif" font-size="20.00">https://sub.sub.headers.websec.saarland</text>
</g>
<!-- SG_1_Node_4 -->
<g id="node11" class="node">
<title>SG_1_Node_4</title>
<polygon fill="none" stroke="black" points="1835.5,-432.07 1734.5,-432.07 1734.5,-396.07 1835.5,-396.07 1835.5,-432.07"/>
<text text-anchor="middle" x="1785" y="-409.07" font-family="Times,serif" font-size="20.00">browser</text>
</g>
<!-- SG_1_Node_2&#45;&gt;SG_1_Node_4 -->
<g id="edge7" class="edge">
<title>SG_1_Node_2&#45;&gt;SG_1_Node_4</title>
<path fill="none" stroke="black" d="M1785,-672.33C1785,-626.12 1785,-498.83 1785,-442.5"/>
<polygon fill="black" stroke="black" points="1788.5,-442.23 1785,-432.23 1781.5,-442.23 1788.5,-442.23"/>
<text text-anchor="middle" x="2309.5" y="-591.28" font-family="Times,serif" font-size="20.00">[[&#39;Timing&#45;Allow&#45;Origin&#39;, &#39;*&#39;], [&#39;location&#39;, &#39;https://sub.headers.websec.saarland/_hp/common/empty.html&#39;]]</text>
<text text-anchor="middle" x="2309.5" y="-569.28" font-family="Times,serif" font-size="20.00">[[&#39;Timing&#45;Allow&#45;Origin&#39;, &#39;*&#39;]]</text>
<text text-anchor="middle" x="2309.5" y="-547.28" font-family="Times,serif" font-size="20.00">[[&#39;Timing&#45;Allow&#45;Origin&#39;, &#39;https://sub.headers.websec.saarland&#39;], [&#39;Timing&#45;Allow&#45;Origin&#39;, &#39;*&#39;]]</text>
<text text-anchor="middle" x="2309.5" y="-525.28" font-family="Times,serif" font-size="20.00">[[&#39;Timing&#45;Allow&#45;Origin&#39;, &#39;https://sub.headers.websec.saarland&#39;]]</text>
<text text-anchor="middle" x="2309.5" y="-503.28" font-family="Times,serif" font-size="20.00">[[&#39;Timing&#45;Allow&#45;Origin&#39;, &#39;null&#39;], [&#39;Timing&#45;Allow&#45;Origin&#39;, &#39;*&#39;]]</text>
</g>
<!-- SG_1_Node_7 -->
<g id="node12" class="node">
<title>SG_1_Node_7</title>
<ellipse fill="none" stroke="black" cx="2857" cy="-414.07" rx="33.88" ry="21.43"/>
<text text-anchor="middle" x="2857" y="-409.07" font-family="Times,serif" font-size="20.00">1.0</text>
</g>
<!-- SG_1_Node_2&#45;&gt;SG_1_Node_7 -->
<g id="edge8" class="edge">
<title>SG_1_Node_2&#45;&gt;SG_1_Node_7</title>
<path fill="none" stroke="black" d="M1853.63,-689.46C2081.32,-689.03 2799.33,-684.99 2835,-651.28 2863.9,-623.97 2861.72,-503.51 2858.9,-445.93"/>
<polygon fill="black" stroke="black" points="2862.38,-445.42 2858.36,-435.62 2855.39,-445.79 2862.38,-445.42"/>
<text text-anchor="middle" x="3399" y="-635.28" font-family="Times,serif" font-size="20.00">[NA]</text>
<text text-anchor="middle" x="3399" y="-613.28" font-family="Times,serif" font-size="20.00">[[&#39;Timing&#45;Allow&#45;Origin&#39;, &#39;http://sub.headers.websec.saarland&#39;]]</text>
<text text-anchor="middle" x="3399" y="-591.28" font-family="Times,serif" font-size="20.00">[[&#39;Timing&#45;Allow&#45;Origin&#39;, &#39;https://headers.websec.saarland&#39;]]</text>
<text text-anchor="middle" x="3399" y="-569.28" font-family="Times,serif" font-size="20.00">[[&#39;Timing&#45;Allow&#45;Origin&#39;, &#39;https://sub.headers.websec.saarland/&#39;]]</text>
<text text-anchor="middle" x="3399" y="-547.28" font-family="Times,serif" font-size="20.00">[[&#39;Timing&#45;Allow&#45;Origin&#39;, &#39;https://sub.headers.websec.saarland:443&#39;]]</text>
<text text-anchor="middle" x="3399" y="-525.28" font-family="Times,serif" font-size="20.00">[[&#39;Timing&#45;Allow&#45;Origin&#39;, &#39;null&#39;], [&#39;location&#39;, &#39;https://sub.headers.websec.saarland/_hp/common/empty.html&#39;]]</text>
<text text-anchor="middle" x="3399" y="-503.28" font-family="Times,serif" font-size="20.00">[[&#39;Timing&#45;Allow&#45;Origin&#39;, &#39;null&#39;]]</text>
<text text-anchor="middle" x="3399" y="-481.28" font-family="Times,serif" font-size="20.00">[[&#39;Timing&#45;Allow&#45;Origin&#39;, &#39;sub.headers.websec.saarland&#39;]]</text>
<text text-anchor="middle" x="3399" y="-459.28" font-family="Times,serif" font-size="20.00">[]</text>
</g>
<!-- SG_1_Node_8 -->
<g id="node13" class="node">
<title>SG_1_Node_8</title>
<ellipse fill="none" stroke="black" cx="992" cy="-159.64" rx="33.88" ry="21.43"/>
<text text-anchor="middle" x="992" y="-154.64" font-family="Times,serif" font-size="20.00">0.0</text>
</g>
<!-- SG_1_Node_3&#45;&gt;SG_1_Node_8 -->
<g id="edge15" class="edge">
<title>SG_1_Node_3&#45;&gt;SG_1_Node_8</title>
<path fill="none" stroke="black" d="M1296.29,-411.34C1202.4,-407.61 1009.16,-397.28 989,-374.85 943.34,-324.06 964.72,-235.93 980.47,-190.15"/>
<polygon fill="black" stroke="black" points="983.84,-191.12 983.91,-180.53 977.24,-188.76 983.84,-191.12"/>
<text text-anchor="middle" x="1231.5" y="-292.85" font-family="Times,serif" font-size="20.00">chrome iPadOS 17.2 120.0.6099.119 intent real</text>
<text text-anchor="middle" x="1231.5" y="-270.85" font-family="Times,serif" font-size="20.00">edge iPadOS 17.2 120.0.2210.116 intent real</text>
</g>
<!-- SG_1_Node_9 -->
<g id="node14" class="node">
<title>SG_1_Node_9</title>
<ellipse fill="none" stroke="black" cx="1500" cy="-159.64" rx="33.88" ry="21.43"/>
<text text-anchor="middle" x="1500" y="-154.64" font-family="Times,serif" font-size="20.00">1.0</text>
</g>
<!-- SG_1_Node_3&#45;&gt;SG_1_Node_9 -->
<g id="edge16" class="edge">
<title>SG_1_Node_3&#45;&gt;SG_1_Node_9</title>
<path fill="none" stroke="black" d="M1397.61,-411.48C1425.58,-407.78 1458.51,-398.24 1478,-374.85 1521.53,-322.6 1514.31,-236.44 1506.48,-190.95"/>
<polygon fill="black" stroke="black" points="1509.87,-190.03 1504.61,-180.83 1502.98,-191.3 1509.87,-190.03"/>
<text text-anchor="middle" x="1557.5" y="-292.85" font-family="Times,serif" font-size="20.00">[NA]</text>
<text text-anchor="middle" x="1557.5" y="-270.85" font-family="Times,serif" font-size="20.00">17 levels</text>
</g>
<!-- SG_1_Node_10 -->
<g id="node15" class="node">
<title>SG_1_Node_10</title>
<ellipse fill="none" stroke="black" cx="1728" cy="-159.64" rx="33.88" ry="21.43"/>
<text text-anchor="middle" x="1728" y="-154.64" font-family="Times,serif" font-size="20.00">0.0</text>
</g>
<!-- SG_1_Node_4&#45;&gt;SG_1_Node_10 -->
<g id="edge9" class="edge">
<title>SG_1_Node_4&#45;&gt;SG_1_Node_10</title>
<path fill="none" stroke="black" d="M1748.83,-395.92C1740.9,-390.36 1733.53,-383.38 1729,-374.85 1697.65,-315.84 1709.82,-234.13 1719.86,-190.67"/>
<polygon fill="black" stroke="black" points="1723.31,-191.27 1722.27,-180.73 1716.51,-189.62 1723.31,-191.27"/>
<text text-anchor="middle" x="1975.5" y="-358.85" font-family="Times,serif" font-size="20.00">brave iPadOS 17.2 1.61 (23.12.18.22) intent real</text>
<text text-anchor="middle" x="1975.5" y="-336.85" font-family="Times,serif" font-size="20.00">firefox Ubuntu 22.04 119 selenium headless</text>
<text text-anchor="middle" x="1975.5" y="-314.85" font-family="Times,serif" font-size="20.00">firefox Ubuntu 22.04 119 selenium xvfb</text>
<text text-anchor="middle" x="1975.5" y="-292.85" font-family="Times,serif" font-size="20.00">firefox iPadOS 17.2 121.0 (36782) intent real</text>
<text text-anchor="middle" x="1975.5" y="-270.85" font-family="Times,serif" font-size="20.00">firefox macOS 14.2.1 120 selenium headless</text>
<text text-anchor="middle" x="1975.5" y="-248.85" font-family="Times,serif" font-size="20.00">firefox macOS 14.2.1 120 selenium real</text>
<text text-anchor="middle" x="1975.5" y="-226.85" font-family="Times,serif" font-size="20.00">operagx iPadOS 17.2 2.2.2 intent real</text>
<text text-anchor="middle" x="1975.5" y="-204.85" font-family="Times,serif" font-size="20.00">safari macOS 14.2.1 17.2 selenium real</text>
</g>
<!-- SG_1_Node_5 -->
<g id="node16" class="node">
<title>SG_1_Node_5</title>
<polygon fill="none" stroke="black" points="2312.5,-177.64 2175.5,-177.64 2175.5,-141.64 2312.5,-141.64 2312.5,-177.64"/>
<text text-anchor="middle" x="2244" y="-154.64" font-family="Times,serif" font-size="20.00">status_code</text>
</g>
<!-- SG_1_Node_4&#45;&gt;SG_1_Node_5 -->
<g id="edge10" class="edge">
<title>SG_1_Node_4&#45;&gt;SG_1_Node_5</title>
<path fill="none" stroke="black" d="M1835.51,-412.2C1944.66,-409.83 2194.94,-401.51 2222,-374.85 2272.04,-325.57 2260.48,-233.26 2250.79,-187.61"/>
<polygon fill="black" stroke="black" points="2254.2,-186.82 2248.59,-177.84 2247.37,-188.36 2254.2,-186.82"/>
<text text-anchor="middle" x="2480" y="-281.85" font-family="Times,serif" font-size="20.00">firefox_beta Android 11 122.0b1 intent real</text>
</g>
<!-- SG_1_Node_11 -->
<g id="node17" class="node">
<title>SG_1_Node_11</title>
<ellipse fill="none" stroke="black" cx="2203" cy="-37.21" rx="33.88" ry="21.43"/>
<text text-anchor="middle" x="2203" y="-32.21" font-family="Times,serif" font-size="20.00">0.0</text>
</g>
<!-- SG_1_Node_5&#45;&gt;SG_1_Node_11 -->
<g id="edge11" class="edge">
<title>SG_1_Node_5&#45;&gt;SG_1_Node_11</title>
<path fill="none" stroke="black" d="M2225.94,-141.47C2220.57,-135.35 2215.26,-128.07 2212,-120.43 2205.14,-104.33 2202.77,-84.93 2202.17,-69.01"/>
<polygon fill="black" stroke="black" points="2205.66,-68.58 2202.01,-58.64 2198.66,-68.69 2205.66,-68.58"/>
<text text-anchor="middle" x="2235.5" y="-104.43" font-family="Times,serif" font-size="20.00">[NA]</text>
<text text-anchor="middle" x="2235.5" y="-82.43" font-family="Times,serif" font-size="20.00">200</text>
</g>
<!-- SG_1_Node_12 -->
<g id="node18" class="node">
<title>SG_1_Node_12</title>
<ellipse fill="none" stroke="black" cx="2289" cy="-37.21" rx="33.88" ry="21.43"/>
<text text-anchor="middle" x="2289" y="-32.21" font-family="Times,serif" font-size="20.00">1.0</text>
</g>
<!-- SG_1_Node_5&#45;&gt;SG_1_Node_12 -->
<g id="edge12" class="edge">
<title>SG_1_Node_5&#45;&gt;SG_1_Node_12</title>
<path fill="none" stroke="black" d="M2250.81,-141.55C2253.41,-134.96 2256.38,-127.36 2259,-120.43 2265.58,-103.06 2272.71,-83.53 2278.37,-67.87"/>
<polygon fill="black" stroke="black" points="2281.76,-68.79 2281.86,-58.2 2275.18,-66.42 2281.76,-68.79"/>
<text text-anchor="middle" x="2293.5" y="-93.43" font-family="Times,serif" font-size="20.00">302</text>
</g>
<!-- SG_2_Node_0 -->
<g id="node19" class="node">
<title>SG_2_Node_0</title>
<polygon fill="none" stroke="black" points="4593.5,-981.71 4492.5,-981.71 4492.5,-945.71 4593.5,-945.71 4593.5,-981.71"/>
<text text-anchor="middle" x="4543" y="-958.71" font-family="Times,serif" font-size="20.00">browser</text>
</g>
<!-- SG_2_Node_1 -->
<g id="node20" class="node">
<title>SG_2_Node_1</title>
<polygon fill="none" stroke="black" points="4471,-708.49 4339,-708.49 4339,-672.49 4471,-672.49 4471,-708.49"/>
<text text-anchor="middle" x="4405" y="-685.49" font-family="Times,serif" font-size="20.00">resp_origin</text>
</g>
<!-- SG_2_Node_0&#45;&gt;SG_2_Node_1 -->
<g id="edge17" class="edge">
<title>SG_2_Node_0&#45;&gt;SG_2_Node_1</title>
<path fill="none" stroke="black" d="M4534.16,-945.33C4510.64,-899.12 4446.46,-772.97 4418.41,-717.85"/>
<polygon fill="black" stroke="black" points="4421.42,-716.05 4413.77,-708.73 4415.18,-719.23 4421.42,-716.05"/>
<text text-anchor="middle" x="4567.5" y="-834.71" font-family="Times,serif" font-size="20.00">[NA]</text>
<text text-anchor="middle" x="4567.5" y="-812.71" font-family="Times,serif" font-size="20.00">19 levels</text>
</g>
<!-- SG_2_Node_2 -->
<g id="node21" class="node">
<title>SG_2_Node_2</title>
<polygon fill="none" stroke="black" points="4911.5,-708.49 4774.5,-708.49 4774.5,-672.49 4911.5,-672.49 4911.5,-708.49"/>
<text text-anchor="middle" x="4843" y="-685.49" font-family="Times,serif" font-size="20.00">raw_header</text>
</g>
<!-- SG_2_Node_0&#45;&gt;SG_2_Node_2 -->
<g id="edge18" class="edge">
<title>SG_2_Node_0&#45;&gt;SG_2_Node_2</title>
<path fill="none" stroke="black" d="M4585.99,-945.62C4596.56,-940.56 4607.55,-934.52 4617,-927.71 4705.2,-864.12 4787.96,-763.42 4824.02,-716.76"/>
<polygon fill="black" stroke="black" points="4826.9,-718.76 4830.2,-708.7 4821.34,-714.5 4826.9,-718.76"/>
<text text-anchor="middle" x="5059.5" y="-911.71" font-family="Times,serif" font-size="20.00">brave iPadOS 17.2 1.61 (23.12.18.22) intent real</text>
<text text-anchor="middle" x="5059.5" y="-889.71" font-family="Times,serif" font-size="20.00">firefox Ubuntu 22.04 119 selenium headless</text>
<text text-anchor="middle" x="5059.5" y="-867.71" font-family="Times,serif" font-size="20.00">firefox Ubuntu 22.04 119 selenium xvfb</text>
<text text-anchor="middle" x="5059.5" y="-845.71" font-family="Times,serif" font-size="20.00">firefox iPadOS 17.2 121.0 (36782) intent real</text>
<text text-anchor="middle" x="5059.5" y="-823.71" font-family="Times,serif" font-size="20.00">firefox macOS 14.2.1 120 selenium headless</text>
<text text-anchor="middle" x="5059.5" y="-801.71" font-family="Times,serif" font-size="20.00">firefox macOS 14.2.1 120 selenium real</text>
<text text-anchor="middle" x="5059.5" y="-779.71" font-family="Times,serif" font-size="20.00">firefox_beta Android 11 122.0b1 intent real</text>
<text text-anchor="middle" x="5059.5" y="-757.71" font-family="Times,serif" font-size="20.00">operagx iPadOS 17.2 2.2.2 intent real</text>
<text text-anchor="middle" x="5059.5" y="-735.71" font-family="Times,serif" font-size="20.00">safari macOS 14.2.1 17.2 selenium real</text>
</g>
<!-- SG_2_Node_6 -->
<g id="node22" class="node">
<title>SG_2_Node_6</title>
<ellipse fill="none" stroke="black" cx="3993" cy="-414.07" rx="33.88" ry="21.43"/>
<text text-anchor="middle" x="3993" y="-409.07" font-family="Times,serif" font-size="20.00">0.0</text>
</g>
<!-- SG_2_Node_1&#45;&gt;SG_2_Node_6 -->
<g id="edge25" class="edge">
<title>SG_2_Node_1&#45;&gt;SG_2_Node_6</title>
<path fill="none" stroke="black" d="M4338.57,-688.05C4228.65,-684.98 4018.73,-675.91 3996,-651.28 3943.83,-594.74 3966.5,-494.24 3982.35,-444.55"/>
<polygon fill="black" stroke="black" points="3985.68,-445.63 3985.5,-435.04 3979.03,-443.43 3985.68,-445.63"/>
<text text-anchor="middle" x="4198.5" y="-591.28" font-family="Times,serif" font-size="20.00">[NA]</text>
<text text-anchor="middle" x="4198.5" y="-569.28" font-family="Times,serif" font-size="20.00">http://headers.webappsec.eu</text>
<text text-anchor="middle" x="4198.5" y="-547.28" font-family="Times,serif" font-size="20.00">http://headers.websec.saarland</text>
<text text-anchor="middle" x="4198.5" y="-525.28" font-family="Times,serif" font-size="20.00">http://sub.headers.websec.saarland</text>
<text text-anchor="middle" x="4198.5" y="-503.28" font-family="Times,serif" font-size="20.00">http://sub.sub.headers.websec.saarland</text>
</g>
<!-- SG_2_Node_3 -->
<g id="node23" class="node">
<title>SG_2_Node_3</title>
<polygon fill="none" stroke="black" points="4455.5,-432.07 4354.5,-432.07 4354.5,-396.07 4455.5,-396.07 4455.5,-432.07"/>
<text text-anchor="middle" x="4405" y="-409.07" font-family="Times,serif" font-size="20.00">browser</text>
</g>
<!-- SG_2_Node_1&#45;&gt;SG_2_Node_3 -->
<g id="edge26" class="edge">
<title>SG_2_Node_1&#45;&gt;SG_2_Node_3</title>
<path fill="none" stroke="black" d="M4405,-672.33C4405,-626.12 4405,-498.83 4405,-442.5"/>
<polygon fill="black" stroke="black" points="4408.5,-442.23 4405,-432.23 4401.5,-442.23 4408.5,-442.23"/>
<text text-anchor="middle" x="4612.5" y="-569.28" font-family="Times,serif" font-size="20.00">https://headers.webappsec.eu</text>
<text text-anchor="middle" x="4612.5" y="-547.28" font-family="Times,serif" font-size="20.00">https://headers.websec.saarland</text>
<text text-anchor="middle" x="4612.5" y="-525.28" font-family="Times,serif" font-size="20.00">https://sub.sub.headers.websec.saarland</text>
</g>
<!-- SG_2_Node_7 -->
<g id="node24" class="node">
<title>SG_2_Node_7</title>
<ellipse fill="none" stroke="black" cx="4843" cy="-414.07" rx="33.88" ry="21.43"/>
<text text-anchor="middle" x="4843" y="-409.07" font-family="Times,serif" font-size="20.00">0.0</text>
</g>
<!-- SG_2_Node_2&#45;&gt;SG_2_Node_7 -->
<g id="edge19" class="edge">
<title>SG_2_Node_2&#45;&gt;SG_2_Node_7</title>
<path fill="none" stroke="black" d="M4843,-672.33C4843,-627.02 4843,-503.74 4843,-445.86"/>
<polygon fill="black" stroke="black" points="4846.5,-445.52 4843,-435.52 4839.5,-445.52 4846.5,-445.52"/>
<text text-anchor="middle" x="5382" y="-635.28" font-family="Times,serif" font-size="20.00">[NA]</text>
<text text-anchor="middle" x="5382" y="-613.28" font-family="Times,serif" font-size="20.00">[[&#39;Timing&#45;Allow&#45;Origin&#39;, &#39;http://sub.headers.websec.saarland&#39;]]</text>
<text text-anchor="middle" x="5382" y="-591.28" font-family="Times,serif" font-size="20.00">[[&#39;Timing&#45;Allow&#45;Origin&#39;, &#39;https://headers.websec.saarland&#39;]]</text>
<text text-anchor="middle" x="5382" y="-569.28" font-family="Times,serif" font-size="20.00">[[&#39;Timing&#45;Allow&#45;Origin&#39;, &#39;https://sub.headers.websec.saarland/&#39;]]</text>
<text text-anchor="middle" x="5382" y="-547.28" font-family="Times,serif" font-size="20.00">[[&#39;Timing&#45;Allow&#45;Origin&#39;, &#39;https://sub.headers.websec.saarland:443&#39;]]</text>
<text text-anchor="middle" x="5382" y="-525.28" font-family="Times,serif" font-size="20.00">[[&#39;Timing&#45;Allow&#45;Origin&#39;, &#39;null&#39;], [&#39;location&#39;, &#39;https://sub.headers.websec.saarland/_hp/common/empty.html&#39;]]</text>
<text text-anchor="middle" x="5382" y="-503.28" font-family="Times,serif" font-size="20.00">[[&#39;Timing&#45;Allow&#45;Origin&#39;, &#39;null&#39;]]</text>
<text text-anchor="middle" x="5382" y="-481.28" font-family="Times,serif" font-size="20.00">[[&#39;Timing&#45;Allow&#45;Origin&#39;, &#39;sub.headers.websec.saarland&#39;]]</text>
<text text-anchor="middle" x="5382" y="-459.28" font-family="Times,serif" font-size="20.00">[]</text>
</g>
<!-- SG_2_Node_4 -->
<g id="node25" class="node">
<title>SG_2_Node_4</title>
<polygon fill="none" stroke="black" points="5994.5,-432.07 5893.5,-432.07 5893.5,-396.07 5994.5,-396.07 5994.5,-432.07"/>
<text text-anchor="middle" x="5944" y="-409.07" font-family="Times,serif" font-size="20.00">browser</text>
</g>
<!-- SG_2_Node_2&#45;&gt;SG_2_Node_4 -->
<g id="edge20" class="edge">
<title>SG_2_Node_2&#45;&gt;SG_2_Node_4</title>
<path fill="none" stroke="black" d="M4911.5,-689.53C5143.2,-689.34 5885.22,-686 5922,-651.28 5979.34,-597.15 5963.22,-491.87 5951.44,-442.22"/>
<polygon fill="black" stroke="black" points="5954.77,-441.09 5948.95,-432.23 5947.98,-442.78 5954.77,-441.09"/>
<text text-anchor="middle" x="6486.5" y="-591.28" font-family="Times,serif" font-size="20.00">[[&#39;Timing&#45;Allow&#45;Origin&#39;, &#39;*&#39;], [&#39;location&#39;, &#39;https://sub.headers.websec.saarland/_hp/common/empty.html&#39;]]</text>
<text text-anchor="middle" x="6486.5" y="-569.28" font-family="Times,serif" font-size="20.00">[[&#39;Timing&#45;Allow&#45;Origin&#39;, &#39;*&#39;]]</text>
<text text-anchor="middle" x="6486.5" y="-547.28" font-family="Times,serif" font-size="20.00">[[&#39;Timing&#45;Allow&#45;Origin&#39;, &#39;https://sub.headers.websec.saarland&#39;], [&#39;Timing&#45;Allow&#45;Origin&#39;, &#39;*&#39;]]</text>
<text text-anchor="middle" x="6486.5" y="-525.28" font-family="Times,serif" font-size="20.00">[[&#39;Timing&#45;Allow&#45;Origin&#39;, &#39;https://sub.headers.websec.saarland&#39;]]</text>
<text text-anchor="middle" x="6486.5" y="-503.28" font-family="Times,serif" font-size="20.00">[[&#39;Timing&#45;Allow&#45;Origin&#39;, &#39;null&#39;], [&#39;Timing&#45;Allow&#45;Origin&#39;, &#39;*&#39;]]</text>
</g>
<!-- SG_2_Node_8 -->
<g id="node26" class="node">
<title>SG_2_Node_8</title>
<ellipse fill="none" stroke="black" cx="4348" cy="-159.64" rx="33.88" ry="21.43"/>
<text text-anchor="middle" x="4348" y="-154.64" font-family="Times,serif" font-size="20.00">0.0</text>
</g>
<!-- SG_2_Node_3&#45;&gt;SG_2_Node_8 -->
<g id="edge27" class="edge">
<title>SG_2_Node_3&#45;&gt;SG_2_Node_8</title>
<path fill="none" stroke="black" d="M4368.83,-395.92C4360.9,-390.36 4353.53,-383.38 4349,-374.85 4317.65,-315.84 4329.82,-234.13 4339.86,-190.67"/>
<polygon fill="black" stroke="black" points="4343.31,-191.27 4342.27,-180.73 4336.51,-189.62 4343.31,-191.27"/>
<text text-anchor="middle" x="4394.5" y="-292.85" font-family="Times,serif" font-size="20.00">[NA]</text>
<text text-anchor="middle" x="4394.5" y="-270.85" font-family="Times,serif" font-size="20.00">17 levels</text>
</g>
<!-- SG_2_Node_9 -->
<g id="node27" class="node">
<title>SG_2_Node_9</title>
<ellipse fill="none" stroke="black" cx="4462" cy="-159.64" rx="33.88" ry="21.43"/>
<text text-anchor="middle" x="4462" y="-154.64" font-family="Times,serif" font-size="20.00">1.0</text>
</g>
<!-- SG_2_Node_3&#45;&gt;SG_2_Node_9 -->
<g id="edge28" class="edge">
<title>SG_2_Node_3&#45;&gt;SG_2_Node_9</title>
<path fill="none" stroke="black" d="M4425.15,-395.79C4430.9,-389.77 4436.54,-382.57 4440,-374.85 4467.31,-314.01 4467.24,-233.95 4464.69,-191"/>
<polygon fill="black" stroke="black" points="4468.18,-190.65 4464,-180.91 4461.19,-191.12 4468.18,-190.65"/>
<text text-anchor="middle" x="4707.5" y="-292.85" font-family="Times,serif" font-size="20.00">chrome iPadOS 17.2 120.0.6099.119 intent real</text>
<text text-anchor="middle" x="4707.5" y="-270.85" font-family="Times,serif" font-size="20.00">edge iPadOS 17.2 120.0.2210.116 intent real</text>
</g>
<!-- SG_2_Node_5 -->
<g id="node28" class="node">
<title>SG_2_Node_5</title>
<polygon fill="none" stroke="black" points="5780.5,-177.64 5643.5,-177.64 5643.5,-141.64 5780.5,-141.64 5780.5,-177.64"/>
<text text-anchor="middle" x="5712" y="-154.64" font-family="Times,serif" font-size="20.00">status_code</text>
</g>
<!-- SG_2_Node_4&#45;&gt;SG_2_Node_5 -->
<g id="edge21" class="edge">
<title>SG_2_Node_4&#45;&gt;SG_2_Node_5</title>
<path fill="none" stroke="black" d="M5893.3,-412.03C5832.44,-409.59 5735.71,-401.5 5713,-374.85 5667.91,-321.94 5688.14,-232.08 5702.33,-187.44"/>
<polygon fill="black" stroke="black" points="5705.68,-188.47 5705.51,-177.88 5699.04,-186.27 5705.68,-188.47"/>
<text text-anchor="middle" x="5934" y="-281.85" font-family="Times,serif" font-size="20.00">firefox_beta Android 11 122.0b1 intent real</text>
</g>
<!-- SG_2_Node_10 -->
<g id="node29" class="node">
<title>SG_2_Node_10</title>
<ellipse fill="none" stroke="black" cx="6177" cy="-159.64" rx="33.88" ry="21.43"/>
<text text-anchor="middle" x="6177" y="-154.64" font-family="Times,serif" font-size="20.00">1.0</text>
</g>
<!-- SG_2_Node_4&#45;&gt;SG_2_Node_10 -->
<g id="edge22" class="edge">
<title>SG_2_Node_4&#45;&gt;SG_2_Node_10</title>
<path fill="none" stroke="black" d="M5994.62,-410.72C6050.02,-407.03 6133.82,-397.73 6155,-374.85 6201.42,-324.72 6192.77,-236.99 6184.03,-190.89"/>
<polygon fill="black" stroke="black" points="6187.42,-190.02 6182.01,-180.92 6180.56,-191.41 6187.42,-190.02"/>
<text text-anchor="middle" x="6436.5" y="-358.85" font-family="Times,serif" font-size="20.00">brave iPadOS 17.2 1.61 (23.12.18.22) intent real</text>
<text text-anchor="middle" x="6436.5" y="-336.85" font-family="Times,serif" font-size="20.00">firefox Ubuntu 22.04 119 selenium headless</text>
<text text-anchor="middle" x="6436.5" y="-314.85" font-family="Times,serif" font-size="20.00">firefox Ubuntu 22.04 119 selenium xvfb</text>
<text text-anchor="middle" x="6436.5" y="-292.85" font-family="Times,serif" font-size="20.00">firefox iPadOS 17.2 121.0 (36782) intent real</text>
<text text-anchor="middle" x="6436.5" y="-270.85" font-family="Times,serif" font-size="20.00">firefox macOS 14.2.1 120 selenium headless</text>
<text text-anchor="middle" x="6436.5" y="-248.85" font-family="Times,serif" font-size="20.00">firefox macOS 14.2.1 120 selenium real</text>
<text text-anchor="middle" x="6436.5" y="-226.85" font-family="Times,serif" font-size="20.00">operagx iPadOS 17.2 2.2.2 intent real</text>
<text text-anchor="middle" x="6436.5" y="-204.85" font-family="Times,serif" font-size="20.00">safari macOS 14.2.1 17.2 selenium real</text>
</g>
<!-- SG_2_Node_11 -->
<g id="node30" class="node">
<title>SG_2_Node_11</title>
<ellipse fill="none" stroke="black" cx="5672" cy="-37.21" rx="33.88" ry="21.43"/>
<text text-anchor="middle" x="5672" y="-32.21" font-family="Times,serif" font-size="20.00">0.0</text>
</g>
<!-- SG_2_Node_5&#45;&gt;SG_2_Node_11 -->
<g id="edge23" class="edge">
<title>SG_2_Node_5&#45;&gt;SG_2_Node_11</title>
<path fill="none" stroke="black" d="M5697.27,-141.37C5692.66,-135.13 5688,-127.8 5685,-120.43 5678.37,-104.11 5675.11,-84.7 5673.51,-68.83"/>
<polygon fill="black" stroke="black" points="5676.96,-68.17 5672.64,-58.5 5669.99,-68.75 5676.96,-68.17"/>
<text text-anchor="middle" x="5704.5" y="-93.43" font-family="Times,serif" font-size="20.00">302</text>
</g>
<!-- SG_2_Node_12 -->
<g id="node31" class="node">
<title>SG_2_Node_12</title>
<ellipse fill="none" stroke="black" cx="5758" cy="-37.21" rx="33.88" ry="21.43"/>
<text text-anchor="middle" x="5758" y="-32.21" font-family="Times,serif" font-size="20.00">1.0</text>
</g>
<!-- SG_2_Node_5&#45;&gt;SG_2_Node_12 -->
<g id="edge24" class="edge">
<title>SG_2_Node_5&#45;&gt;SG_2_Node_12</title>
<path fill="none" stroke="black" d="M5718.59,-141.39C5725.94,-122.15 5737.95,-90.71 5746.78,-67.59"/>
<polygon fill="black" stroke="black" points="5750.05,-68.84 5750.35,-58.24 5743.51,-66.34 5750.05,-68.84"/>
<text text-anchor="middle" x="5766.5" y="-104.43" font-family="Times,serif" font-size="20.00">[NA]</text>
<text text-anchor="middle" x="5766.5" y="-82.43" font-family="Times,serif" font-size="20.00">200</text>
</g>
</g>
</svg>
