<?xml version="1.0" encoding="UTF-8" standalone="no"?>
<!DOCTYPE svg PUBLIC "-//W3C//DTD SVG 1.1//EN"
 "http://www.w3.org/Graphics/SVG/1.1/DTD/svg11.dtd">
<!-- Generated by graphviz version 2.43.0 (0)
 -->
<!-- Title: G Pages: 1 -->
<svg width="2574pt" height="454pt"
 viewBox="0.00 0.00 2574.00 454.43" xmlns="http://www.w3.org/2000/svg" xmlns:xlink="http://www.w3.org/1999/xlink">
<g id="graph0" class="graph" transform="scale(1 1) rotate(0) translate(4 450.43)">
<title>G</title>
<polygon fill="white" stroke="transparent" points="-4,4 -4,-450.43 2570,-450.43 2570,4 -4,4"/>
<g id="clust1" class="cluster">
<title>cluster_0</title>
<polygon fill="none" stroke="black" points="8,-8 8,-438.43 1279,-438.43 1279,-8 8,-8"/>
<text text-anchor="middle" x="643.5" y="-402.43" font-family="Times,serif" font-size="40.00">Tree 0, Class message send</text>
</g>
<g id="clust5" class="cluster">
<title>cluster_1</title>
<polygon fill="none" stroke="black" points="1287,-8 1287,-438.43 2558,-438.43 2558,-8 1287,-8"/>
<text text-anchor="middle" x="1922.5" y="-402.43" font-family="Times,serif" font-size="40.00">Tree 0, Class message timeout</text>
</g>
<!-- SG_0_Node_0 -->
<g id="node1" class="node">
<title>SG_0_Node_0</title>
<polygon fill="none" stroke="black" points="414.5,-378.43 277.5,-378.43 277.5,-342.43 414.5,-342.43 414.5,-378.43"/>
<text text-anchor="middle" x="346" y="-355.43" font-family="Times,serif" font-size="20.00">raw_header</text>
</g>
<!-- SG_0_Node_1 -->
<g id="node2" class="node">
<title>SG_0_Node_1</title>
<polygon fill="none" stroke="black" points="153.5,-262.43 52.5,-262.43 52.5,-226.43 153.5,-226.43 153.5,-262.43"/>
<text text-anchor="middle" x="103" y="-239.43" font-family="Times,serif" font-size="20.00">browser</text>
</g>
<!-- SG_0_Node_0&#45;&gt;SG_0_Node_1 -->
<g id="edge1" class="edge">
<title>SG_0_Node_0&#45;&gt;SG_0_Node_1</title>
<path fill="none" stroke="black" d="M277.38,-359.08C213.94,-357.13 126.22,-349.76 104,-324.43 91.79,-310.51 92.18,-289.3 95.28,-272.36"/>
<polygon fill="black" stroke="black" points="98.72,-272.99 97.46,-262.47 91.89,-271.48 98.72,-272.99"/>
<text text-anchor="middle" x="335.5" y="-297.43" font-family="Times,serif" font-size="20.00">[[&#39;Content&#45;Security&#45;Policy&#39;, &quot;script&#45;src &#39;self&#39;&quot;]]</text>
</g>
<!-- SG_0_Node_2 -->
<g id="node3" class="node">
<title>SG_0_Node_2</title>
<polygon fill="none" stroke="black" points="714.5,-262.43 613.5,-262.43 613.5,-226.43 714.5,-226.43 714.5,-262.43"/>
<text text-anchor="middle" x="664" y="-239.43" font-family="Times,serif" font-size="20.00">browser</text>
</g>
<!-- SG_0_Node_0&#45;&gt;SG_0_Node_2 -->
<g id="edge2" class="edge">
<title>SG_0_Node_0&#45;&gt;SG_0_Node_2</title>
<path fill="none" stroke="black" d="M414.58,-354.11C469.65,-348.84 541.81,-339.35 567,-324.43 588.26,-311.83 582.26,-296.54 601,-280.43 606.29,-275.88 612.27,-271.65 618.38,-267.82"/>
<polygon fill="black" stroke="black" points="620.54,-270.61 627.36,-262.5 616.97,-264.58 620.54,-270.61"/>
<text text-anchor="middle" x="942" y="-308.43" font-family="Times,serif" font-size="20.00">[NA]</text>
<text text-anchor="middle" x="942" y="-286.43" font-family="Times,serif" font-size="20.00">[[&#39;Content&#45;Security&#45;Policy&#39;, &#39;script&#45;src *.headers.websec.saarland&#39;]]</text>
</g>
<!-- SG_0_Node_3 -->
<g id="node4" class="node">
<title>SG_0_Node_3</title>
<ellipse fill="none" stroke="black" cx="50" cy="-37.21" rx="33.88" ry="21.43"/>
<text text-anchor="middle" x="50" y="-32.21" font-family="Times,serif" font-size="20.00">0.0</text>
</g>
<!-- SG_0_Node_1&#45;&gt;SG_0_Node_3 -->
<g id="edge5" class="edge">
<title>SG_0_Node_1&#45;&gt;SG_0_Node_3</title>
<path fill="none" stroke="black" d="M52.38,-227.91C43.88,-223.03 36.16,-216.67 31,-208.43 -0.12,-158.69 17.58,-133.54 31,-76.43 31.76,-73.18 32.84,-69.9 34.11,-66.68"/>
<polygon fill="black" stroke="black" points="37.38,-67.94 38.32,-57.39 31,-65.06 37.38,-67.94"/>
<text text-anchor="middle" x="76.5" y="-148.43" font-family="Times,serif" font-size="20.00">[NA]</text>
<text text-anchor="middle" x="76.5" y="-126.43" font-family="Times,serif" font-size="20.00">22 levels</text>
</g>
<!-- SG_0_Node_4 -->
<g id="node5" class="node">
<title>SG_0_Node_4</title>
<ellipse fill="none" stroke="black" cx="148" cy="-37.21" rx="33.88" ry="21.43"/>
<text text-anchor="middle" x="148" y="-32.21" font-family="Times,serif" font-size="20.00">1.0</text>
</g>
<!-- SG_0_Node_1&#45;&gt;SG_0_Node_4 -->
<g id="edge6" class="edge">
<title>SG_0_Node_1&#45;&gt;SG_0_Node_4</title>
<path fill="none" stroke="black" d="M116.6,-226.1C120.21,-220.71 123.73,-214.56 126,-208.43 143.32,-161.71 147.4,-103.41 148.15,-68.58"/>
<polygon fill="black" stroke="black" points="151.65,-68.61 148.28,-58.57 144.65,-68.52 151.65,-68.61"/>
<text text-anchor="middle" x="393.5" y="-192.43" font-family="Times,serif" font-size="20.00">brave iPadOS 17.2 1.61 (23.12.18.22) intent real</text>
<text text-anchor="middle" x="393.5" y="-170.43" font-family="Times,serif" font-size="20.00">chrome iPadOS 17.2 120.0.6099.119 intent real</text>
<text text-anchor="middle" x="393.5" y="-148.43" font-family="Times,serif" font-size="20.00">edge iPadOS 17.2 120.0.2210.116 intent real</text>
<text text-anchor="middle" x="393.5" y="-126.43" font-family="Times,serif" font-size="20.00">firefox iPadOS 17.2 121.0 (36782) intent real</text>
<text text-anchor="middle" x="393.5" y="-104.43" font-family="Times,serif" font-size="20.00">operagx iPadOS 17.2 2.2.2 intent real</text>
<text text-anchor="middle" x="393.5" y="-82.43" font-family="Times,serif" font-size="20.00">safari macOS 14.2.1 17.2 selenium real</text>
</g>
<!-- SG_0_Node_5 -->
<g id="node6" class="node">
<title>SG_0_Node_5</title>
<ellipse fill="none" stroke="black" cx="664" cy="-37.21" rx="33.88" ry="21.43"/>
<text text-anchor="middle" x="664" y="-32.21" font-family="Times,serif" font-size="20.00">0.0</text>
</g>
<!-- SG_0_Node_2&#45;&gt;SG_0_Node_5 -->
<g id="edge3" class="edge">
<title>SG_0_Node_2&#45;&gt;SG_0_Node_5</title>
<path fill="none" stroke="black" d="M664,-226.28C664,-191.49 664,-112.18 664,-68.49"/>
<polygon fill="black" stroke="black" points="667.5,-68.45 664,-58.45 660.5,-68.45 667.5,-68.45"/>
<text text-anchor="middle" x="910.5" y="-192.43" font-family="Times,serif" font-size="20.00">brave iPadOS 17.2 1.61 (23.12.18.22) intent real</text>
<text text-anchor="middle" x="910.5" y="-170.43" font-family="Times,serif" font-size="20.00">chrome iPadOS 17.2 120.0.6099.119 intent real</text>
<text text-anchor="middle" x="910.5" y="-148.43" font-family="Times,serif" font-size="20.00">edge iPadOS 17.2 120.0.2210.116 intent real</text>
<text text-anchor="middle" x="910.5" y="-126.43" font-family="Times,serif" font-size="20.00">firefox iPadOS 17.2 121.0 (36782) intent real</text>
<text text-anchor="middle" x="910.5" y="-104.43" font-family="Times,serif" font-size="20.00">operagx iPadOS 17.2 2.2.2 intent real</text>
<text text-anchor="middle" x="910.5" y="-82.43" font-family="Times,serif" font-size="20.00">safari macOS 14.2.1 17.2 selenium real</text>
</g>
<!-- SG_0_Node_6 -->
<g id="node7" class="node">
<title>SG_0_Node_6</title>
<ellipse fill="none" stroke="black" cx="1180" cy="-37.21" rx="33.88" ry="21.43"/>
<text text-anchor="middle" x="1180" y="-32.21" font-family="Times,serif" font-size="20.00">1.0</text>
</g>
<!-- SG_0_Node_2&#45;&gt;SG_0_Node_6 -->
<g id="edge4" class="edge">
<title>SG_0_Node_2&#45;&gt;SG_0_Node_6</title>
<path fill="none" stroke="black" d="M714.67,-243.4C834.23,-242.84 1126.27,-238.38 1158,-208.43 1195.73,-172.81 1192.31,-106.9 1186.27,-68.38"/>
<polygon fill="black" stroke="black" points="1189.67,-67.55 1184.52,-58.29 1182.78,-68.74 1189.67,-67.55"/>
<text text-anchor="middle" x="1235.5" y="-148.43" font-family="Times,serif" font-size="20.00">[NA]</text>
<text text-anchor="middle" x="1235.5" y="-126.43" font-family="Times,serif" font-size="20.00">22 levels</text>
</g>
<!-- SG_1_Node_0 -->
<g id="node8" class="node">
<title>SG_1_Node_0</title>
<polygon fill="none" stroke="black" points="1775.5,-378.43 1638.5,-378.43 1638.5,-342.43 1775.5,-342.43 1775.5,-378.43"/>
<text text-anchor="middle" x="1707" y="-355.43" font-family="Times,serif" font-size="20.00">raw_header</text>
</g>
<!-- SG_1_Node_1 -->
<g id="node9" class="node">
<title>SG_1_Node_1</title>
<polygon fill="none" stroke="black" points="1414.5,-262.43 1313.5,-262.43 1313.5,-226.43 1414.5,-226.43 1414.5,-262.43"/>
<text text-anchor="middle" x="1364" y="-239.43" font-family="Times,serif" font-size="20.00">browser</text>
</g>
<!-- SG_1_Node_0&#45;&gt;SG_1_Node_1 -->
<g id="edge7" class="edge">
<title>SG_1_Node_0&#45;&gt;SG_1_Node_1</title>
<path fill="none" stroke="black" d="M1638.47,-357.21C1543.94,-353.45 1383.07,-344.19 1365,-324.43 1352.51,-310.76 1352.91,-289.54 1356.08,-272.54"/>
<polygon fill="black" stroke="black" points="1359.54,-273.12 1358.33,-262.6 1352.71,-271.58 1359.54,-273.12"/>
<text text-anchor="middle" x="1706" y="-308.43" font-family="Times,serif" font-size="20.00">[NA]</text>
<text text-anchor="middle" x="1706" y="-286.43" font-family="Times,serif" font-size="20.00">[[&#39;Content&#45;Security&#45;Policy&#39;, &#39;script&#45;src *.headers.websec.saarland&#39;]]</text>
</g>
<!-- SG_1_Node_2 -->
<g id="node10" class="node">
<title>SG_1_Node_2</title>
<polygon fill="none" stroke="black" points="2119.5,-262.43 2018.5,-262.43 2018.5,-226.43 2119.5,-226.43 2119.5,-262.43"/>
<text text-anchor="middle" x="2069" y="-239.43" font-family="Times,serif" font-size="20.00">browser</text>
</g>
<!-- SG_1_Node_0&#45;&gt;SG_1_Node_2 -->
<g id="edge8" class="edge">
<title>SG_1_Node_0&#45;&gt;SG_1_Node_2</title>
<path fill="none" stroke="black" d="M1775.66,-356.46C1869,-351.81 2026.73,-341.53 2047,-324.43 2061.87,-311.88 2067.13,-290.22 2068.81,-272.75"/>
<polygon fill="black" stroke="black" points="2072.32,-272.73 2069.44,-262.53 2065.33,-272.3 2072.32,-272.73"/>
<text text-anchor="middle" x="2298.5" y="-297.43" font-family="Times,serif" font-size="20.00">[[&#39;Content&#45;Security&#45;Policy&#39;, &quot;script&#45;src &#39;self&#39;&quot;]]</text>
</g>
<!-- SG_1_Node_3 -->
<g id="node11" class="node">
<title>SG_1_Node_3</title>
<ellipse fill="none" stroke="black" cx="1329" cy="-37.21" rx="33.88" ry="21.43"/>
<text text-anchor="middle" x="1329" y="-32.21" font-family="Times,serif" font-size="20.00">0.0</text>
</g>
<!-- SG_1_Node_1&#45;&gt;SG_1_Node_3 -->
<g id="edge11" class="edge">
<title>SG_1_Node_1&#45;&gt;SG_1_Node_3</title>
<path fill="none" stroke="black" d="M1329.86,-226.25C1323.48,-221.4 1317.67,-215.48 1314,-208.43 1286.91,-156.39 1303.09,-134.07 1314,-76.43 1314.58,-73.37 1315.39,-70.25 1316.35,-67.17"/>
<polygon fill="black" stroke="black" points="1319.69,-68.22 1319.76,-57.63 1313.1,-65.87 1319.69,-68.22"/>
<text text-anchor="middle" x="1359.5" y="-148.43" font-family="Times,serif" font-size="20.00">[NA]</text>
<text text-anchor="middle" x="1359.5" y="-126.43" font-family="Times,serif" font-size="20.00">22 levels</text>
</g>
<!-- SG_1_Node_4 -->
<g id="node12" class="node">
<title>SG_1_Node_4</title>
<ellipse fill="none" stroke="black" cx="1427" cy="-37.21" rx="33.88" ry="21.43"/>
<text text-anchor="middle" x="1427" y="-32.21" font-family="Times,serif" font-size="20.00">1.0</text>
</g>
<!-- SG_1_Node_1&#45;&gt;SG_1_Node_4 -->
<g id="edge12" class="edge">
<title>SG_1_Node_1&#45;&gt;SG_1_Node_4</title>
<path fill="none" stroke="black" d="M1390.01,-226.25C1395.83,-221.19 1401.35,-215.17 1405,-208.43 1417.72,-184.94 1423.42,-110.85 1425.68,-68.57"/>
<polygon fill="black" stroke="black" points="1429.18,-68.72 1426.19,-58.55 1422.19,-68.36 1429.18,-68.72"/>
<text text-anchor="middle" x="1671.5" y="-192.43" font-family="Times,serif" font-size="20.00">brave iPadOS 17.2 1.61 (23.12.18.22) intent real</text>
<text text-anchor="middle" x="1671.5" y="-170.43" font-family="Times,serif" font-size="20.00">chrome iPadOS 17.2 120.0.6099.119 intent real</text>
<text text-anchor="middle" x="1671.5" y="-148.43" font-family="Times,serif" font-size="20.00">edge iPadOS 17.2 120.0.2210.116 intent real</text>
<text text-anchor="middle" x="1671.5" y="-126.43" font-family="Times,serif" font-size="20.00">firefox iPadOS 17.2 121.0 (36782) intent real</text>
<text text-anchor="middle" x="1671.5" y="-104.43" font-family="Times,serif" font-size="20.00">operagx iPadOS 17.2 2.2.2 intent real</text>
<text text-anchor="middle" x="1671.5" y="-82.43" font-family="Times,serif" font-size="20.00">safari macOS 14.2.1 17.2 selenium real</text>
</g>
<!-- SG_1_Node_5 -->
<g id="node13" class="node">
<title>SG_1_Node_5</title>
<ellipse fill="none" stroke="black" cx="1943" cy="-37.21" rx="33.88" ry="21.43"/>
<text text-anchor="middle" x="1943" y="-32.21" font-family="Times,serif" font-size="20.00">0.0</text>
</g>
<!-- SG_1_Node_2&#45;&gt;SG_1_Node_5 -->
<g id="edge9" class="edge">
<title>SG_1_Node_2&#45;&gt;SG_1_Node_5</title>
<path fill="none" stroke="black" d="M2018.48,-235.6C1987.99,-229.73 1953.3,-220.61 1944,-208.43 1913.11,-167.95 1923.35,-104.85 1933.35,-67.92"/>
<polygon fill="black" stroke="black" points="1936.73,-68.82 1936.12,-58.24 1930,-66.88 1936.73,-68.82"/>
<text text-anchor="middle" x="2190.5" y="-192.43" font-family="Times,serif" font-size="20.00">brave iPadOS 17.2 1.61 (23.12.18.22) intent real</text>
<text text-anchor="middle" x="2190.5" y="-170.43" font-family="Times,serif" font-size="20.00">chrome iPadOS 17.2 120.0.6099.119 intent real</text>
<text text-anchor="middle" x="2190.5" y="-148.43" font-family="Times,serif" font-size="20.00">edge iPadOS 17.2 120.0.2210.116 intent real</text>
<text text-anchor="middle" x="2190.5" y="-126.43" font-family="Times,serif" font-size="20.00">firefox iPadOS 17.2 121.0 (36782) intent real</text>
<text text-anchor="middle" x="2190.5" y="-104.43" font-family="Times,serif" font-size="20.00">operagx iPadOS 17.2 2.2.2 intent real</text>
<text text-anchor="middle" x="2190.5" y="-82.43" font-family="Times,serif" font-size="20.00">safari macOS 14.2.1 17.2 selenium real</text>
</g>
<!-- SG_1_Node_6 -->
<g id="node14" class="node">
<title>SG_1_Node_6</title>
<ellipse fill="none" stroke="black" cx="2459" cy="-37.21" rx="33.88" ry="21.43"/>
<text text-anchor="middle" x="2459" y="-32.21" font-family="Times,serif" font-size="20.00">1.0</text>
</g>
<!-- SG_1_Node_2&#45;&gt;SG_1_Node_6 -->
<g id="edge10" class="edge">
<title>SG_1_Node_2&#45;&gt;SG_1_Node_6</title>
<path fill="none" stroke="black" d="M2119.73,-242.06C2215.34,-238.98 2414.65,-230.03 2437,-208.43 2474.2,-172.46 2471.05,-106.95 2465.18,-68.54"/>
<polygon fill="black" stroke="black" points="2468.6,-67.75 2463.48,-58.47 2461.69,-68.92 2468.6,-67.75"/>
<text text-anchor="middle" x="2513.5" y="-148.43" font-family="Times,serif" font-size="20.00">[NA]</text>
<text text-anchor="middle" x="2513.5" y="-126.43" font-family="Times,serif" font-size="20.00">22 levels</text>
</g>
</g>
</svg>
