<?xml version="1.0" encoding="UTF-8" standalone="no"?>
<!DOCTYPE svg PUBLIC "-//W3C//DTD SVG 1.1//EN"
 "http://www.w3.org/Graphics/SVG/1.1/DTD/svg11.dtd">
<!-- Generated by graphviz version 2.43.0 (0)
 -->
<!-- Title: G Pages: 1 -->
<svg width="8023pt" height="706pt"
 viewBox="0.00 0.00 8023.00 705.71" xmlns="http://www.w3.org/2000/svg" xmlns:xlink="http://www.w3.org/1999/xlink">
<g id="graph0" class="graph" transform="scale(1 1) rotate(0) translate(4 701.71)">
<title>G</title>
<polygon fill="white" stroke="transparent" points="-4,4 -4,-701.71 8019,-701.71 8019,4 -4,4"/>
<g id="clust1" class="cluster">
<title>cluster_0</title>
<polygon fill="none" stroke="black" points="8,-296.85 8,-689.71 801,-689.71 801,-296.85 8,-296.85"/>
<text text-anchor="middle" x="404.5" y="-653.71" font-family="Times,serif" font-size="40.00">Tree 0, Class message timeout</text>
</g>
<g id="clust5" class="cluster">
<title>cluster_1</title>
<polygon fill="none" stroke="black" points="809,-8 809,-689.71 4413,-689.71 4413,-8 809,-8"/>
<text text-anchor="middle" x="2611" y="-653.71" font-family="Times,serif" font-size="40.00">Tree 0, Class {&#39;image&#45;events&#39;: {&#39;swag.jpg&#39;: &#39;error&#39;, &#39;swag&#45;same&#45;site.jpg&#39;: &#39;error&#39;, &#39;swag&#45;cross&#45;site.jpg&#39;: &#39;load&#39;, &#39;swag&#45;same&#45;origin.jpg&#39;: &#39;error&#39;}, &#39;window.crossOriginIsolated&#39;: False}</text>
</g>
<g id="clust11" class="cluster">
<title>cluster_2</title>
<polygon fill="none" stroke="black" points="4421,-8 4421,-689.71 8007,-689.71 8007,-8 4421,-8"/>
<text text-anchor="middle" x="6214" y="-653.71" font-family="Times,serif" font-size="40.00">Tree 0, Class {&#39;image&#45;events&#39;: {&#39;swag.jpg&#39;: &#39;load&#39;, &#39;swag&#45;same&#45;site.jpg&#39;: &#39;error&#39;, &#39;swag&#45;cross&#45;site.jpg&#39;: &#39;load&#39;, &#39;swag&#45;same&#45;origin.jpg&#39;: &#39;error&#39;}, &#39;window.crossOriginIsolated&#39;: False}</text>
</g>
<!-- SG_0_Node_0 -->
<g id="node1" class="node">
<title>SG_0_Node_0</title>
<polygon fill="none" stroke="black" points="165.5,-629.71 64.5,-629.71 64.5,-593.71 165.5,-593.71 165.5,-629.71"/>
<text text-anchor="middle" x="115" y="-606.71" font-family="Times,serif" font-size="20.00">browser</text>
</g>
<!-- SG_0_Node_2 -->
<g id="node2" class="node">
<title>SG_0_Node_2</title>
<ellipse fill="none" stroke="black" cx="52" cy="-448.49" rx="33.88" ry="21.43"/>
<text text-anchor="middle" x="52" y="-443.49" font-family="Times,serif" font-size="20.00">0.0</text>
</g>
<!-- SG_0_Node_0&#45;&gt;SG_0_Node_2 -->
<g id="edge1" class="edge">
<title>SG_0_Node_0&#45;&gt;SG_0_Node_2</title>
<path fill="none" stroke="black" d="M67.19,-593.61C59.94,-588.92 53.41,-583.04 49,-575.71 31.47,-546.56 36.29,-506.38 42.81,-479.24"/>
<polygon fill="black" stroke="black" points="46.21,-480.09 45.35,-469.53 39.43,-478.32 46.21,-480.09"/>
<text text-anchor="middle" x="94.5" y="-537.71" font-family="Times,serif" font-size="20.00">[NA]</text>
<text text-anchor="middle" x="94.5" y="-515.71" font-family="Times,serif" font-size="20.00">27 levels</text>
</g>
<!-- SG_0_Node_1 -->
<g id="node3" class="node">
<title>SG_0_Node_1</title>
<polygon fill="none" stroke="black" points="227,-466.49 105,-466.49 105,-430.49 227,-430.49 227,-466.49"/>
<text text-anchor="middle" x="166" y="-443.49" font-family="Times,serif" font-size="20.00">org_origin</text>
</g>
<!-- SG_0_Node_0&#45;&gt;SG_0_Node_1 -->
<g id="edge2" class="edge">
<title>SG_0_Node_0&#45;&gt;SG_0_Node_1</title>
<path fill="none" stroke="black" d="M132.32,-593.42C136.76,-588.12 141.09,-582.01 144,-575.71 158.74,-543.75 163.66,-503.09 165.27,-476.69"/>
<polygon fill="black" stroke="black" points="168.77,-476.81 165.77,-466.65 161.78,-476.46 168.77,-476.81"/>
<text text-anchor="middle" x="476" y="-526.71" font-family="Times,serif" font-size="20.00">brave macOS 14.2.1 1.60.118 (119.0.6045.163) selenium real</text>
</g>
<!-- SG_0_Node_3 -->
<g id="node4" class="node">
<title>SG_0_Node_3</title>
<ellipse fill="none" stroke="black" cx="50" cy="-326.07" rx="33.88" ry="21.43"/>
<text text-anchor="middle" x="50" y="-321.07" font-family="Times,serif" font-size="20.00">0.0</text>
</g>
<!-- SG_0_Node_1&#45;&gt;SG_0_Node_3 -->
<g id="edge3" class="edge">
<title>SG_0_Node_1&#45;&gt;SG_0_Node_3</title>
<path fill="none" stroke="black" d="M106.27,-430.49C72,-420.66 35.6,-410.08 35,-409.28 23.58,-394.05 27.81,-372.82 34.64,-355.76"/>
<polygon fill="black" stroke="black" points="38,-356.82 38.87,-346.27 31.61,-353.98 38,-356.82"/>
<text text-anchor="middle" x="216.5" y="-382.28" font-family="Times,serif" font-size="20.00">http://sub.headers.websec.saarland</text>
</g>
<!-- SG_0_Node_4 -->
<g id="node5" class="node">
<title>SG_0_Node_4</title>
<ellipse fill="none" stroke="black" cx="420" cy="-326.07" rx="33.88" ry="21.43"/>
<text text-anchor="middle" x="420" y="-321.07" font-family="Times,serif" font-size="20.00">1.0</text>
</g>
<!-- SG_0_Node_1&#45;&gt;SG_0_Node_4 -->
<g id="edge4" class="edge">
<title>SG_0_Node_1&#45;&gt;SG_0_Node_4</title>
<path fill="none" stroke="black" d="M227.24,-444.78C287.37,-440.86 373.54,-431.45 398,-409.28 412.23,-396.38 417.68,-375.38 419.6,-357.83"/>
<polygon fill="black" stroke="black" points="423.12,-357.69 420.39,-347.45 416.14,-357.16 423.12,-357.69"/>
<text text-anchor="middle" x="604.5" y="-393.28" font-family="Times,serif" font-size="20.00">[NA]</text>
<text text-anchor="middle" x="604.5" y="-371.28" font-family="Times,serif" font-size="20.00">https://sub.headers.websec.saarland</text>
</g>
<!-- SG_1_Node_0 -->
<g id="node6" class="node">
<title>SG_1_Node_0</title>
<polygon fill="none" stroke="black" points="1435.5,-629.71 1334.5,-629.71 1334.5,-593.71 1435.5,-593.71 1435.5,-629.71"/>
<text text-anchor="middle" x="1385" y="-606.71" font-family="Times,serif" font-size="20.00">browser</text>
</g>
<!-- SG_1_Node_1 -->
<g id="node7" class="node">
<title>SG_1_Node_1</title>
<polygon fill="none" stroke="black" points="1178.5,-466.49 1077.5,-466.49 1077.5,-430.49 1178.5,-430.49 1178.5,-466.49"/>
<text text-anchor="middle" x="1128" y="-443.49" font-family="Times,serif" font-size="20.00">browser</text>
</g>
<!-- SG_1_Node_0&#45;&gt;SG_1_Node_1 -->
<g id="edge5" class="edge">
<title>SG_1_Node_0&#45;&gt;SG_1_Node_1</title>
<path fill="none" stroke="black" d="M1357.5,-593.45C1310.74,-564.12 1215.78,-504.55 1163.87,-471.99"/>
<polygon fill="black" stroke="black" points="1165.64,-468.97 1155.31,-466.62 1161.92,-474.9 1165.64,-468.97"/>
<text text-anchor="middle" x="1367.5" y="-537.71" font-family="Times,serif" font-size="20.00">[NA]</text>
<text text-anchor="middle" x="1367.5" y="-515.71" font-family="Times,serif" font-size="20.00">25 levels</text>
</g>
<!-- SG_1_Node_2 -->
<g id="node8" class="node">
<title>SG_1_Node_2</title>
<polygon fill="none" stroke="black" points="1705,-466.49 1583,-466.49 1583,-430.49 1705,-430.49 1705,-466.49"/>
<text text-anchor="middle" x="1644" y="-443.49" font-family="Times,serif" font-size="20.00">org_origin</text>
</g>
<!-- SG_1_Node_0&#45;&gt;SG_1_Node_2 -->
<g id="edge6" class="edge">
<title>SG_1_Node_0&#45;&gt;SG_1_Node_2</title>
<path fill="none" stroke="black" d="M1412.72,-593.45C1459.84,-564.12 1555.54,-504.55 1607.86,-471.99"/>
<polygon fill="black" stroke="black" points="1609.84,-474.88 1616.48,-466.62 1606.14,-468.93 1609.84,-474.88"/>
<text text-anchor="middle" x="1823.5" y="-548.71" font-family="Times,serif" font-size="20.00">chrome iPadOS 17.2 120.0.6099.119 intent real</text>
<text text-anchor="middle" x="1823.5" y="-526.71" font-family="Times,serif" font-size="20.00">operagx iPadOS 17.2 2.2.2 intent real</text>
<text text-anchor="middle" x="1823.5" y="-504.71" font-family="Times,serif" font-size="20.00">safari macOS 14.2.1 17.2 selenium real</text>
</g>
<!-- SG_1_Node_5 -->
<g id="node9" class="node">
<title>SG_1_Node_5</title>
<ellipse fill="none" stroke="black" cx="1011" cy="-326.07" rx="33.88" ry="21.43"/>
<text text-anchor="middle" x="1011" y="-321.07" font-family="Times,serif" font-size="20.00">0.0</text>
</g>
<!-- SG_1_Node_1&#45;&gt;SG_1_Node_5 -->
<g id="edge9" class="edge">
<title>SG_1_Node_1&#45;&gt;SG_1_Node_5</title>
<path fill="none" stroke="black" d="M1077.31,-436.69C1061.18,-430.98 1044.55,-422.32 1033,-409.28 1020.42,-395.08 1014.93,-374.45 1012.57,-357.41"/>
<polygon fill="black" stroke="black" points="1016.04,-356.92 1011.48,-347.35 1009.08,-357.67 1016.04,-356.92"/>
<text text-anchor="middle" x="1078.5" y="-393.28" font-family="Times,serif" font-size="20.00">[NA]</text>
<text text-anchor="middle" x="1078.5" y="-371.28" font-family="Times,serif" font-size="20.00">24 levels</text>
</g>
<!-- SG_1_Node_3 -->
<g id="node10" class="node">
<title>SG_1_Node_3</title>
<polygon fill="none" stroke="black" points="1195,-344.07 1063,-344.07 1063,-308.07 1195,-308.07 1195,-344.07"/>
<text text-anchor="middle" x="1129" y="-321.07" font-family="Times,serif" font-size="20.00">resp_origin</text>
</g>
<!-- SG_1_Node_1&#45;&gt;SG_1_Node_3 -->
<g id="edge10" class="edge">
<title>SG_1_Node_1&#45;&gt;SG_1_Node_3</title>
<path fill="none" stroke="black" d="M1128.14,-430.24C1128.31,-410.48 1128.58,-377.83 1128.77,-354.55"/>
<polygon fill="black" stroke="black" points="1132.27,-354.32 1128.86,-344.29 1125.27,-354.26 1132.27,-354.32"/>
<text text-anchor="middle" x="1374.5" y="-382.28" font-family="Times,serif" font-size="20.00">brave iPadOS 17.2 1.61 (23.12.18.22) intent real</text>
</g>
<!-- SG_1_Node_6 -->
<g id="node11" class="node">
<title>SG_1_Node_6</title>
<ellipse fill="none" stroke="black" cx="1644" cy="-326.07" rx="33.88" ry="21.43"/>
<text text-anchor="middle" x="1644" y="-321.07" font-family="Times,serif" font-size="20.00">0.0</text>
</g>
<!-- SG_1_Node_2&#45;&gt;SG_1_Node_6 -->
<g id="edge7" class="edge">
<title>SG_1_Node_2&#45;&gt;SG_1_Node_6</title>
<path fill="none" stroke="black" d="M1644,-430.24C1644,-411.37 1644,-380.77 1644,-357.78"/>
<polygon fill="black" stroke="black" points="1647.5,-357.51 1644,-347.51 1640.5,-357.51 1647.5,-357.51"/>
<text text-anchor="middle" x="1830.5" y="-382.28" font-family="Times,serif" font-size="20.00">https://sub.headers.websec.saarland</text>
</g>
<!-- SG_1_Node_7 -->
<g id="node12" class="node">
<title>SG_1_Node_7</title>
<ellipse fill="none" stroke="black" cx="2040" cy="-326.07" rx="33.88" ry="21.43"/>
<text text-anchor="middle" x="2040" y="-321.07" font-family="Times,serif" font-size="20.00">1.0</text>
</g>
<!-- SG_1_Node_2&#45;&gt;SG_1_Node_7 -->
<g id="edge8" class="edge">
<title>SG_1_Node_2&#45;&gt;SG_1_Node_7</title>
<path fill="none" stroke="black" d="M1705,-445.01C1804.91,-440.4 1994.71,-429.12 2018,-409.28 2032.86,-396.62 2038.24,-375.14 2039.97,-357.31"/>
<polygon fill="black" stroke="black" points="2043.46,-357.53 2040.61,-347.33 2036.48,-357.09 2043.46,-357.53"/>
<text text-anchor="middle" x="2219.5" y="-393.28" font-family="Times,serif" font-size="20.00">[NA]</text>
<text text-anchor="middle" x="2219.5" y="-371.28" font-family="Times,serif" font-size="20.00">http://sub.headers.websec.saarland</text>
</g>
<!-- SG_1_Node_8 -->
<g id="node13" class="node">
<title>SG_1_Node_8</title>
<ellipse fill="none" stroke="black" cx="990" cy="-159.64" rx="33.88" ry="21.43"/>
<text text-anchor="middle" x="990" y="-154.64" font-family="Times,serif" font-size="20.00">0.0</text>
</g>
<!-- SG_1_Node_3&#45;&gt;SG_1_Node_8 -->
<g id="edge11" class="edge">
<title>SG_1_Node_3&#45;&gt;SG_1_Node_8</title>
<path fill="none" stroke="black" d="M1088.22,-308.02C1077.26,-303.91 1065.3,-299.84 1054,-296.85 1040.3,-293.23 1000.25,-297.6 991,-286.85 968.34,-260.52 973.36,-218.4 980.47,-190.15"/>
<polygon fill="black" stroke="black" points="983.87,-190.99 983.14,-180.42 977.12,-189.14 983.87,-190.99"/>
<text text-anchor="middle" x="1198.5" y="-270.85" font-family="Times,serif" font-size="20.00">[NA]</text>
<text text-anchor="middle" x="1198.5" y="-248.85" font-family="Times,serif" font-size="20.00">https://headers.webappsec.eu</text>
<text text-anchor="middle" x="1198.5" y="-226.85" font-family="Times,serif" font-size="20.00">https://headers.websec.saarland</text>
<text text-anchor="middle" x="1198.5" y="-204.85" font-family="Times,serif" font-size="20.00">https://sub.sub.headers.websec.saarland</text>
</g>
<!-- SG_1_Node_4 -->
<g id="node14" class="node">
<title>SG_1_Node_4</title>
<polygon fill="none" stroke="black" points="1489,-177.64 1367,-177.64 1367,-141.64 1489,-141.64 1489,-177.64"/>
<text text-anchor="middle" x="1428" y="-154.64" font-family="Times,serif" font-size="20.00">org_origin</text>
</g>
<!-- SG_1_Node_3&#45;&gt;SG_1_Node_4 -->
<g id="edge12" class="edge">
<title>SG_1_Node_3&#45;&gt;SG_1_Node_4</title>
<path fill="none" stroke="black" d="M1195.26,-324.64C1267.52,-322.71 1376.79,-315.04 1406,-286.85 1432.25,-261.51 1433.89,-216.82 1431.69,-187.99"/>
<polygon fill="black" stroke="black" points="1435.15,-187.4 1430.69,-177.79 1428.18,-188.08 1435.15,-187.4"/>
<text text-anchor="middle" x="1618.5" y="-237.85" font-family="Times,serif" font-size="20.00">https://sub.headers.websec.saarland</text>
</g>
<!-- SG_1_Node_9 -->
<g id="node15" class="node">
<title>SG_1_Node_9</title>
<ellipse fill="none" stroke="black" cx="1230" cy="-37.21" rx="33.88" ry="21.43"/>
<text text-anchor="middle" x="1230" y="-32.21" font-family="Times,serif" font-size="20.00">0.0</text>
</g>
<!-- SG_1_Node_4&#45;&gt;SG_1_Node_9 -->
<g id="edge13" class="edge">
<title>SG_1_Node_4&#45;&gt;SG_1_Node_9</title>
<path fill="none" stroke="black" d="M1366.79,-155.04C1315.55,-150.6 1248.14,-140.95 1231,-120.43 1219.18,-106.27 1219.04,-85.47 1221.79,-68.33"/>
<polygon fill="black" stroke="black" points="1225.28,-68.71 1223.81,-58.22 1218.42,-67.35 1225.28,-68.71"/>
<text text-anchor="middle" x="1417.5" y="-93.43" font-family="Times,serif" font-size="20.00">https://sub.headers.websec.saarland</text>
</g>
<!-- SG_1_Node_10 -->
<g id="node16" class="node">
<title>SG_1_Node_10</title>
<ellipse fill="none" stroke="black" cx="1626" cy="-37.21" rx="33.88" ry="21.43"/>
<text text-anchor="middle" x="1626" y="-32.21" font-family="Times,serif" font-size="20.00">1.0</text>
</g>
<!-- SG_1_Node_4&#45;&gt;SG_1_Node_10 -->
<g id="edge14" class="edge">
<title>SG_1_Node_4&#45;&gt;SG_1_Node_10</title>
<path fill="none" stroke="black" d="M1489.32,-152.14C1533.31,-146.25 1587.59,-136.07 1604,-120.43 1617.81,-107.25 1623.29,-86.44 1625.32,-69.05"/>
<polygon fill="black" stroke="black" points="1628.84,-69.02 1626.19,-58.77 1621.86,-68.44 1628.84,-69.02"/>
<text text-anchor="middle" x="1804.5" y="-104.43" font-family="Times,serif" font-size="20.00">[NA]</text>
<text text-anchor="middle" x="1804.5" y="-82.43" font-family="Times,serif" font-size="20.00">http://sub.headers.websec.saarland</text>
</g>
<!-- SG_2_Node_0 -->
<g id="node17" class="node">
<title>SG_2_Node_0</title>
<polygon fill="none" stroke="black" points="6446.5,-629.71 6345.5,-629.71 6345.5,-593.71 6446.5,-593.71 6446.5,-629.71"/>
<text text-anchor="middle" x="6396" y="-606.71" font-family="Times,serif" font-size="20.00">browser</text>
</g>
<!-- SG_2_Node_1 -->
<g id="node18" class="node">
<title>SG_2_Node_1</title>
<polygon fill="none" stroke="black" points="6040,-466.49 5918,-466.49 5918,-430.49 6040,-430.49 6040,-466.49"/>
<text text-anchor="middle" x="5979" y="-443.49" font-family="Times,serif" font-size="20.00">org_origin</text>
</g>
<!-- SG_2_Node_0&#45;&gt;SG_2_Node_1 -->
<g id="edge15" class="edge">
<title>SG_2_Node_0&#45;&gt;SG_2_Node_1</title>
<path fill="none" stroke="black" d="M6345.34,-609.11C6248.15,-605.61 6042.88,-595.9 6018,-575.71 5988.5,-551.77 5980.85,-505.96 5979.12,-476.61"/>
<polygon fill="black" stroke="black" points="5982.62,-476.47 5978.72,-466.61 5975.62,-476.74 5982.62,-476.47"/>
<text text-anchor="middle" x="6330" y="-559.71" font-family="Times,serif" font-size="20.00">brave macOS 14.2.1 1.60.118 (119.0.6045.163) selenium real</text>
<text text-anchor="middle" x="6330" y="-537.71" font-family="Times,serif" font-size="20.00">chrome iPadOS 17.2 120.0.6099.119 intent real</text>
<text text-anchor="middle" x="6330" y="-515.71" font-family="Times,serif" font-size="20.00">operagx iPadOS 17.2 2.2.2 intent real</text>
<text text-anchor="middle" x="6330" y="-493.71" font-family="Times,serif" font-size="20.00">safari macOS 14.2.1 17.2 selenium real</text>
</g>
<!-- SG_2_Node_2 -->
<g id="node19" class="node">
<title>SG_2_Node_2</title>
<polygon fill="none" stroke="black" points="6831.5,-466.49 6730.5,-466.49 6730.5,-430.49 6831.5,-430.49 6831.5,-466.49"/>
<text text-anchor="middle" x="6781" y="-443.49" font-family="Times,serif" font-size="20.00">browser</text>
</g>
<!-- SG_2_Node_0&#45;&gt;SG_2_Node_2 -->
<g id="edge16" class="edge">
<title>SG_2_Node_0&#45;&gt;SG_2_Node_2</title>
<path fill="none" stroke="black" d="M6446.74,-607.23C6509.35,-602.31 6611.74,-592.06 6646,-575.71 6695.02,-552.3 6738.24,-504.66 6761.9,-475.07"/>
<polygon fill="black" stroke="black" points="6764.91,-476.9 6768.32,-466.87 6759.4,-472.59 6764.91,-476.9"/>
<text text-anchor="middle" x="6794.5" y="-537.71" font-family="Times,serif" font-size="20.00">[NA]</text>
<text text-anchor="middle" x="6794.5" y="-515.71" font-family="Times,serif" font-size="20.00">24 levels</text>
</g>
<!-- SG_2_Node_3 -->
<g id="node20" class="node">
<title>SG_2_Node_3</title>
<polygon fill="none" stroke="black" points="5228.5,-344.07 5127.5,-344.07 5127.5,-308.07 5228.5,-308.07 5228.5,-344.07"/>
<text text-anchor="middle" x="5178" y="-321.07" font-family="Times,serif" font-size="20.00">browser</text>
</g>
<!-- SG_2_Node_1&#45;&gt;SG_2_Node_3 -->
<g id="edge23" class="edge">
<title>SG_2_Node_1&#45;&gt;SG_2_Node_3</title>
<path fill="none" stroke="black" d="M5917.76,-442.69C5844.75,-436.6 5719.12,-424.97 5612,-409.28 5477.84,-389.62 5321.97,-357.9 5238.38,-340.16"/>
<polygon fill="black" stroke="black" points="5239.06,-336.72 5228.55,-338.06 5237.6,-343.57 5239.06,-336.72"/>
<text text-anchor="middle" x="5793.5" y="-382.28" font-family="Times,serif" font-size="20.00">http://sub.headers.websec.saarland</text>
</g>
<!-- SG_2_Node_4 -->
<g id="node21" class="node">
<title>SG_2_Node_4</title>
<polygon fill="none" stroke="black" points="6029.5,-344.07 5928.5,-344.07 5928.5,-308.07 6029.5,-308.07 6029.5,-344.07"/>
<text text-anchor="middle" x="5979" y="-321.07" font-family="Times,serif" font-size="20.00">browser</text>
</g>
<!-- SG_2_Node_1&#45;&gt;SG_2_Node_4 -->
<g id="edge24" class="edge">
<title>SG_2_Node_1&#45;&gt;SG_2_Node_4</title>
<path fill="none" stroke="black" d="M5979,-430.24C5979,-410.48 5979,-377.83 5979,-354.55"/>
<polygon fill="black" stroke="black" points="5982.5,-354.29 5979,-344.29 5975.5,-354.29 5982.5,-354.29"/>
<text text-anchor="middle" x="6165.5" y="-393.28" font-family="Times,serif" font-size="20.00">[NA]</text>
<text text-anchor="middle" x="6165.5" y="-371.28" font-family="Times,serif" font-size="20.00">https://sub.headers.websec.saarland</text>
</g>
<!-- SG_2_Node_5 -->
<g id="node22" class="node">
<title>SG_2_Node_5</title>
<polygon fill="none" stroke="black" points="7046,-344.07 6914,-344.07 6914,-308.07 7046,-308.07 7046,-344.07"/>
<text text-anchor="middle" x="6980" y="-321.07" font-family="Times,serif" font-size="20.00">resp_origin</text>
</g>
<!-- SG_2_Node_2&#45;&gt;SG_2_Node_5 -->
<g id="edge17" class="edge">
<title>SG_2_Node_2&#45;&gt;SG_2_Node_5</title>
<path fill="none" stroke="black" d="M6775.48,-430.23C6770.8,-411.93 6766.99,-383.24 6782,-365.28 6797.65,-346.56 6854.96,-336.89 6903.93,-331.97"/>
<polygon fill="black" stroke="black" points="6904.29,-335.46 6913.91,-331.02 6903.62,-328.49 6904.29,-335.46"/>
<text text-anchor="middle" x="7028.5" y="-382.28" font-family="Times,serif" font-size="20.00">brave iPadOS 17.2 1.61 (23.12.18.22) intent real</text>
</g>
<!-- SG_2_Node_7 -->
<g id="node23" class="node">
<title>SG_2_Node_7</title>
<ellipse fill="none" stroke="black" cx="7297" cy="-326.07" rx="33.88" ry="21.43"/>
<text text-anchor="middle" x="7297" y="-321.07" font-family="Times,serif" font-size="20.00">1.0</text>
</g>
<!-- SG_2_Node_2&#45;&gt;SG_2_Node_7 -->
<g id="edge18" class="edge">
<title>SG_2_Node_2&#45;&gt;SG_2_Node_7</title>
<path fill="none" stroke="black" d="M6831.88,-446.84C6951.19,-444.84 7241.46,-437.14 7275,-409.28 7290.01,-396.81 7295.39,-375.32 7297.08,-357.44"/>
<polygon fill="black" stroke="black" points="7300.57,-357.62 7297.69,-347.43 7293.59,-357.19 7300.57,-357.62"/>
<text text-anchor="middle" x="7341.5" y="-393.28" font-family="Times,serif" font-size="20.00">[NA]</text>
<text text-anchor="middle" x="7341.5" y="-371.28" font-family="Times,serif" font-size="20.00">23 levels</text>
</g>
<!-- SG_2_Node_8 -->
<g id="node24" class="node">
<title>SG_2_Node_8</title>
<ellipse fill="none" stroke="black" cx="4670" cy="-159.64" rx="33.88" ry="21.43"/>
<text text-anchor="middle" x="4670" y="-154.64" font-family="Times,serif" font-size="20.00">0.0</text>
</g>
<!-- SG_2_Node_3&#45;&gt;SG_2_Node_8 -->
<g id="edge27" class="edge">
<title>SG_2_Node_3&#45;&gt;SG_2_Node_8</title>
<path fill="none" stroke="black" d="M5127.43,-324.61C5008.87,-323.06 4720.59,-316.26 4689,-286.85 4663.29,-262.92 4662.14,-220.22 4664.98,-191.19"/>
<polygon fill="black" stroke="black" points="4668.47,-191.51 4666.18,-181.17 4661.52,-190.68 4668.47,-191.51"/>
<text text-anchor="middle" x="4931.5" y="-259.85" font-family="Times,serif" font-size="20.00">chrome iPadOS 17.2 120.0.6099.119 intent real</text>
<text text-anchor="middle" x="4931.5" y="-237.85" font-family="Times,serif" font-size="20.00">operagx iPadOS 17.2 2.2.2 intent real</text>
<text text-anchor="middle" x="4931.5" y="-215.85" font-family="Times,serif" font-size="20.00">safari macOS 14.2.1 17.2 selenium real</text>
</g>
<!-- SG_2_Node_9 -->
<g id="node25" class="node">
<title>SG_2_Node_9</title>
<ellipse fill="none" stroke="black" cx="5178" cy="-159.64" rx="33.88" ry="21.43"/>
<text text-anchor="middle" x="5178" y="-154.64" font-family="Times,serif" font-size="20.00">1.0</text>
</g>
<!-- SG_2_Node_3&#45;&gt;SG_2_Node_9 -->
<g id="edge28" class="edge">
<title>SG_2_Node_3&#45;&gt;SG_2_Node_9</title>
<path fill="none" stroke="black" d="M5178,-307.78C5178,-280.18 5178,-225.77 5178,-191.4"/>
<polygon fill="black" stroke="black" points="5181.5,-191.01 5178,-181.01 5174.5,-191.01 5181.5,-191.01"/>
<text text-anchor="middle" x="5490" y="-237.85" font-family="Times,serif" font-size="20.00">brave macOS 14.2.1 1.60.118 (119.0.6045.163) selenium real</text>
</g>
<!-- SG_2_Node_10 -->
<g id="node26" class="node">
<title>SG_2_Node_10</title>
<ellipse fill="none" stroke="black" cx="5825" cy="-159.64" rx="33.88" ry="21.43"/>
<text text-anchor="middle" x="5825" y="-154.64" font-family="Times,serif" font-size="20.00">0.0</text>
</g>
<!-- SG_2_Node_4&#45;&gt;SG_2_Node_10 -->
<g id="edge25" class="edge">
<title>SG_2_Node_4&#45;&gt;SG_2_Node_10</title>
<path fill="none" stroke="black" d="M5928.17,-319.08C5888.71,-313.26 5838.66,-302.93 5826,-286.85 5804.72,-259.83 5809.16,-218.5 5815.78,-190.57"/>
<polygon fill="black" stroke="black" points="5819.25,-191.13 5818.37,-180.57 5812.47,-189.37 5819.25,-191.13"/>
<text text-anchor="middle" x="6138" y="-237.85" font-family="Times,serif" font-size="20.00">brave macOS 14.2.1 1.60.118 (119.0.6045.163) selenium real</text>
</g>
<!-- SG_2_Node_11 -->
<g id="node27" class="node">
<title>SG_2_Node_11</title>
<ellipse fill="none" stroke="black" cx="6472" cy="-159.64" rx="33.88" ry="21.43"/>
<text text-anchor="middle" x="6472" y="-154.64" font-family="Times,serif" font-size="20.00">1.0</text>
</g>
<!-- SG_2_Node_4&#45;&gt;SG_2_Node_11 -->
<g id="edge26" class="edge">
<title>SG_2_Node_4&#45;&gt;SG_2_Node_11</title>
<path fill="none" stroke="black" d="M6029.8,-324.39C6145.2,-322.39 6419.47,-314.71 6450,-286.85 6476.05,-263.09 6478.27,-220.35 6476.19,-191.26"/>
<polygon fill="black" stroke="black" points="6479.67,-190.86 6475.26,-181.22 6472.7,-191.5 6479.67,-190.86"/>
<text text-anchor="middle" x="6718.5" y="-259.85" font-family="Times,serif" font-size="20.00">chrome iPadOS 17.2 120.0.6099.119 intent real</text>
<text text-anchor="middle" x="6718.5" y="-237.85" font-family="Times,serif" font-size="20.00">operagx iPadOS 17.2 2.2.2 intent real</text>
<text text-anchor="middle" x="6718.5" y="-215.85" font-family="Times,serif" font-size="20.00">safari macOS 14.2.1 17.2 selenium real</text>
</g>
<!-- SG_2_Node_6 -->
<g id="node28" class="node">
<title>SG_2_Node_6</title>
<polygon fill="none" stroke="black" points="7041,-177.64 6919,-177.64 6919,-141.64 7041,-141.64 7041,-177.64"/>
<text text-anchor="middle" x="6980" y="-154.64" font-family="Times,serif" font-size="20.00">org_origin</text>
</g>
<!-- SG_2_Node_5&#45;&gt;SG_2_Node_6 -->
<g id="edge19" class="edge">
<title>SG_2_Node_5&#45;&gt;SG_2_Node_6</title>
<path fill="none" stroke="black" d="M6980,-307.78C6980,-279.21 6980,-221.92 6980,-187.87"/>
<polygon fill="black" stroke="black" points="6983.5,-187.69 6980,-177.69 6976.5,-187.69 6983.5,-187.69"/>
<text text-anchor="middle" x="7166.5" y="-237.85" font-family="Times,serif" font-size="20.00">https://sub.headers.websec.saarland</text>
</g>
<!-- SG_2_Node_12 -->
<g id="node29" class="node">
<title>SG_2_Node_12</title>
<ellipse fill="none" stroke="black" cx="7376" cy="-159.64" rx="33.88" ry="21.43"/>
<text text-anchor="middle" x="7376" y="-154.64" font-family="Times,serif" font-size="20.00">1.0</text>
</g>
<!-- SG_2_Node_5&#45;&gt;SG_2_Node_12 -->
<g id="edge20" class="edge">
<title>SG_2_Node_5&#45;&gt;SG_2_Node_12</title>
<path fill="none" stroke="black" d="M7046.16,-318.2C7101.65,-312.45 7182.99,-304.06 7254,-296.85 7276.22,-294.6 7337.64,-302.06 7354,-286.85 7379.83,-262.84 7382.1,-220.17 7380.09,-191.15"/>
<polygon fill="black" stroke="black" points="7383.57,-190.79 7379.19,-181.14 7376.6,-191.42 7383.57,-190.79"/>
<text text-anchor="middle" x="7587.5" y="-270.85" font-family="Times,serif" font-size="20.00">[NA]</text>
<text text-anchor="middle" x="7587.5" y="-248.85" font-family="Times,serif" font-size="20.00">https://headers.webappsec.eu</text>
<text text-anchor="middle" x="7587.5" y="-226.85" font-family="Times,serif" font-size="20.00">https://headers.websec.saarland</text>
<text text-anchor="middle" x="7587.5" y="-204.85" font-family="Times,serif" font-size="20.00">https://sub.sub.headers.websec.saarland</text>
</g>
<!-- SG_2_Node_13 -->
<g id="node30" class="node">
<title>SG_2_Node_13</title>
<ellipse fill="none" stroke="black" cx="6787" cy="-37.21" rx="33.88" ry="21.43"/>
<text text-anchor="middle" x="6787" y="-32.21" font-family="Times,serif" font-size="20.00">0.0</text>
</g>
<!-- SG_2_Node_6&#45;&gt;SG_2_Node_13 -->
<g id="edge21" class="edge">
<title>SG_2_Node_6&#45;&gt;SG_2_Node_13</title>
<path fill="none" stroke="black" d="M6918.86,-154.68C6869.1,-150.04 6804.51,-140.29 6788,-120.43 6776.22,-106.24 6776.07,-85.44 6778.82,-68.31"/>
<polygon fill="black" stroke="black" points="6782.31,-68.7 6780.82,-58.21 6775.44,-67.33 6782.31,-68.7"/>
<text text-anchor="middle" x="6969.5" y="-93.43" font-family="Times,serif" font-size="20.00">http://sub.headers.websec.saarland</text>
</g>
<!-- SG_2_Node_14 -->
<g id="node31" class="node">
<title>SG_2_Node_14</title>
<ellipse fill="none" stroke="black" cx="7173" cy="-37.21" rx="33.88" ry="21.43"/>
<text text-anchor="middle" x="7173" y="-32.21" font-family="Times,serif" font-size="20.00">1.0</text>
</g>
<!-- SG_2_Node_6&#45;&gt;SG_2_Node_14 -->
<g id="edge22" class="edge">
<title>SG_2_Node_6&#45;&gt;SG_2_Node_14</title>
<path fill="none" stroke="black" d="M7041.36,-151.68C7083.79,-145.64 7135.3,-135.48 7151,-120.43 7164.78,-107.21 7170.25,-86.4 7172.29,-69.02"/>
<polygon fill="black" stroke="black" points="7175.81,-69 7173.17,-58.74 7168.83,-68.41 7175.81,-69"/>
<text text-anchor="middle" x="7356.5" y="-104.43" font-family="Times,serif" font-size="20.00">[NA]</text>
<text text-anchor="middle" x="7356.5" y="-82.43" font-family="Times,serif" font-size="20.00">https://sub.headers.websec.saarland</text>
</g>
</g>
</svg>
