<?xml version="1.0" encoding="UTF-8" standalone="no"?>
<!DOCTYPE svg PUBLIC "-//W3C//DTD SVG 1.1//EN"
 "http://www.w3.org/Graphics/SVG/1.1/DTD/svg11.dtd">
<!-- Generated by graphviz version 2.43.0 (0)
 -->
<!-- Title: G Pages: 1 -->
<svg width="2610pt" height="495pt"
 viewBox="0.00 0.00 2610.00 495.28" xmlns="http://www.w3.org/2000/svg" xmlns:xlink="http://www.w3.org/1999/xlink">
<g id="graph0" class="graph" transform="scale(1 1) rotate(0) translate(4 491.28)">
<title>G</title>
<polygon fill="white" stroke="transparent" points="-4,4 -4,-491.28 2606,-491.28 2606,4 -4,4"/>
<g id="clust1" class="cluster">
<title>cluster_0</title>
<polygon fill="none" stroke="black" points="8,-8 8,-479.28 1297,-479.28 1297,-8 8,-8"/>
<text text-anchor="middle" x="652.5" y="-443.28" font-family="Times,serif" font-size="40.00">Tree 0, Class error</text>
</g>
<g id="clust6" class="cluster">
<title>cluster_1</title>
<polygon fill="none" stroke="black" points="1305,-8 1305,-479.28 2594,-479.28 2594,-8 1305,-8"/>
<text text-anchor="middle" x="1949.5" y="-443.28" font-family="Times,serif" font-size="40.00">Tree 0, Class message timeout</text>
</g>
<!-- SG_0_Node_0 -->
<g id="node1" class="node">
<title>SG_0_Node_0</title>
<polygon fill="none" stroke="black" points="690.5,-419.28 589.5,-419.28 589.5,-383.28 690.5,-383.28 690.5,-419.28"/>
<text text-anchor="middle" x="640" y="-396.28" font-family="Times,serif" font-size="20.00">browser</text>
</g>
<!-- SG_0_Node_1 -->
<g id="node2" class="node">
<title>SG_0_Node_1</title>
<polygon fill="none" stroke="black" points="334,-300.07 202,-300.07 202,-264.07 334,-264.07 334,-300.07"/>
<text text-anchor="middle" x="268" y="-277.07" font-family="Times,serif" font-size="20.00">resp_origin</text>
</g>
<!-- SG_0_Node_0&#45;&gt;SG_0_Node_1 -->
<g id="edge1" class="edge">
<title>SG_0_Node_0&#45;&gt;SG_0_Node_1</title>
<path fill="none" stroke="black" d="M589.37,-399.19C492.88,-396.58 290.29,-388.39 269,-365.28 255.66,-350.8 256.4,-328.06 259.93,-310.16"/>
<polygon fill="black" stroke="black" points="263.37,-310.81 262.24,-300.28 256.55,-309.22 263.37,-310.81"/>
<text text-anchor="middle" x="629.5" y="-349.28" font-family="Times,serif" font-size="20.00">brave macOS 14.2.1 1.60.118 (119.0.6045.163) selenium headless&#45;new</text>
<text text-anchor="middle" x="629.5" y="-327.28" font-family="Times,serif" font-size="20.00">chrome macOS 14.2.1 120 selenium headless&#45;new</text>
</g>
<!-- SG_0_Node_3 -->
<g id="node3" class="node">
<title>SG_0_Node_3</title>
<ellipse fill="none" stroke="black" cx="1012" cy="-282.07" rx="33.88" ry="21.43"/>
<text text-anchor="middle" x="1012" y="-277.07" font-family="Times,serif" font-size="20.00">1.0</text>
</g>
<!-- SG_0_Node_0&#45;&gt;SG_0_Node_3 -->
<g id="edge2" class="edge">
<title>SG_0_Node_0&#45;&gt;SG_0_Node_3</title>
<path fill="none" stroke="black" d="M690.86,-398.35C782.44,-394.43 967.7,-384.24 990,-365.28 1004.87,-352.64 1010.25,-331.16 1011.98,-313.32"/>
<polygon fill="black" stroke="black" points="1015.47,-313.54 1012.62,-303.34 1008.49,-313.09 1015.47,-313.54"/>
<text text-anchor="middle" x="1055.5" y="-349.28" font-family="Times,serif" font-size="20.00">[NA]</text>
<text text-anchor="middle" x="1055.5" y="-327.28" font-family="Times,serif" font-size="20.00">26 levels</text>
</g>
<!-- SG_0_Node_4 -->
<g id="node4" class="node">
<title>SG_0_Node_4</title>
<ellipse fill="none" stroke="black" cx="159" cy="-137.64" rx="33.88" ry="21.43"/>
<text text-anchor="middle" x="159" y="-132.64" font-family="Times,serif" font-size="20.00">0.0</text>
</g>
<!-- SG_0_Node_1&#45;&gt;SG_0_Node_4 -->
<g id="edge3" class="edge">
<title>SG_0_Node_1&#45;&gt;SG_0_Node_4</title>
<path fill="none" stroke="black" d="M201.81,-271.41C185.57,-265.76 170,-256.85 160,-242.85 144.84,-221.63 146.44,-191.26 150.73,-168.77"/>
<polygon fill="black" stroke="black" points="154.2,-169.27 152.91,-158.75 147.36,-167.78 154.2,-169.27"/>
<text text-anchor="middle" x="367.5" y="-226.85" font-family="Times,serif" font-size="20.00">[NA]</text>
<text text-anchor="middle" x="367.5" y="-204.85" font-family="Times,serif" font-size="20.00">https://sub.headers.websec.saarland</text>
<text text-anchor="middle" x="367.5" y="-182.85" font-family="Times,serif" font-size="20.00">https://sub.sub.headers.websec.saarland</text>
</g>
<!-- SG_0_Node_2 -->
<g id="node5" class="node">
<title>SG_0_Node_2</title>
<polygon fill="none" stroke="black" points="647.5,-155.64 546.5,-155.64 546.5,-119.64 647.5,-119.64 647.5,-155.64"/>
<text text-anchor="middle" x="597" y="-132.64" font-family="Times,serif" font-size="20.00">browser</text>
</g>
<!-- SG_0_Node_1&#45;&gt;SG_0_Node_2 -->
<g id="edge4" class="edge">
<title>SG_0_Node_1&#45;&gt;SG_0_Node_2</title>
<path fill="none" stroke="black" d="M334.14,-281.52C413.73,-280.63 540.94,-274.16 575,-242.85 595.9,-223.65 599.64,-190.01 599.29,-166.15"/>
<polygon fill="black" stroke="black" points="602.78,-165.81 598.89,-155.96 595.79,-166.09 602.78,-165.81"/>
<text text-anchor="middle" x="764.5" y="-215.85" font-family="Times,serif" font-size="20.00">https://headers.webappsec.eu</text>
<text text-anchor="middle" x="764.5" y="-193.85" font-family="Times,serif" font-size="20.00">https://headers.websec.saarland</text>
</g>
<!-- SG_0_Node_5 -->
<g id="node6" class="node">
<title>SG_0_Node_5</title>
<ellipse fill="none" stroke="black" cx="50" cy="-37.21" rx="33.88" ry="21.43"/>
<text text-anchor="middle" x="50" y="-32.21" font-family="Times,serif" font-size="20.00">0.0</text>
</g>
<!-- SG_0_Node_2&#45;&gt;SG_0_Node_5 -->
<g id="edge5" class="edge">
<title>SG_0_Node_2&#45;&gt;SG_0_Node_5</title>
<path fill="none" stroke="black" d="M546.18,-134.12C408.81,-127.21 39.75,-107.79 31,-98.43 22.61,-89.45 25.21,-76.8 30.78,-65.41"/>
<polygon fill="black" stroke="black" points="33.86,-67.06 35.73,-56.64 27.77,-63.62 33.86,-67.06"/>
<text text-anchor="middle" x="391.5" y="-82.43" font-family="Times,serif" font-size="20.00">brave macOS 14.2.1 1.60.118 (119.0.6045.163) selenium headless&#45;new</text>
</g>
<!-- SG_0_Node_6 -->
<g id="node7" class="node">
<title>SG_0_Node_6</title>
<ellipse fill="none" stroke="black" cx="778" cy="-37.21" rx="33.88" ry="21.43"/>
<text text-anchor="middle" x="778" y="-32.21" font-family="Times,serif" font-size="20.00">1.0</text>
</g>
<!-- SG_0_Node_2&#45;&gt;SG_0_Node_6 -->
<g id="edge6" class="edge">
<title>SG_0_Node_2&#45;&gt;SG_0_Node_6</title>
<path fill="none" stroke="black" d="M647.82,-136.45C682.2,-133.7 726.55,-124.69 756,-98.43 764.62,-90.74 769.87,-79.38 773.06,-68.6"/>
<polygon fill="black" stroke="black" points="776.54,-69.12 775.54,-58.57 769.74,-67.44 776.54,-69.12"/>
<text text-anchor="middle" x="1025.5" y="-82.43" font-family="Times,serif" font-size="20.00">chrome macOS 14.2.1 120 selenium headless&#45;new</text>
</g>
<!-- SG_1_Node_0 -->
<g id="node8" class="node">
<title>SG_1_Node_0</title>
<polygon fill="none" stroke="black" points="1462.5,-419.28 1361.5,-419.28 1361.5,-383.28 1462.5,-383.28 1462.5,-419.28"/>
<text text-anchor="middle" x="1412" y="-396.28" font-family="Times,serif" font-size="20.00">browser</text>
</g>
<!-- SG_1_Node_3 -->
<g id="node9" class="node">
<title>SG_1_Node_3</title>
<ellipse fill="none" stroke="black" cx="1379" cy="-282.07" rx="33.88" ry="21.43"/>
<text text-anchor="middle" x="1379" y="-277.07" font-family="Times,serif" font-size="20.00">0.0</text>
</g>
<!-- SG_1_Node_0&#45;&gt;SG_1_Node_3 -->
<g id="edge7" class="edge">
<title>SG_1_Node_0&#45;&gt;SG_1_Node_3</title>
<path fill="none" stroke="black" d="M1394.17,-383.21C1389.72,-377.91 1385.51,-371.75 1383,-365.28 1376.7,-349.04 1375.49,-329.63 1375.95,-313.75"/>
<polygon fill="black" stroke="black" points="1379.47,-313.57 1376.5,-303.4 1372.48,-313.2 1379.47,-313.57"/>
<text text-anchor="middle" x="1428.5" y="-349.28" font-family="Times,serif" font-size="20.00">[NA]</text>
<text text-anchor="middle" x="1428.5" y="-327.28" font-family="Times,serif" font-size="20.00">26 levels</text>
</g>
<!-- SG_1_Node_1 -->
<g id="node10" class="node">
<title>SG_1_Node_1</title>
<polygon fill="none" stroke="black" points="1563,-300.07 1431,-300.07 1431,-264.07 1563,-264.07 1563,-300.07"/>
<text text-anchor="middle" x="1497" y="-277.07" font-family="Times,serif" font-size="20.00">resp_origin</text>
</g>
<!-- SG_1_Node_0&#45;&gt;SG_1_Node_1 -->
<g id="edge8" class="edge">
<title>SG_1_Node_0&#45;&gt;SG_1_Node_1</title>
<path fill="none" stroke="black" d="M1452.9,-383.28C1460.8,-378.44 1468.36,-372.48 1474,-365.28 1486.34,-349.53 1492.06,-327.54 1494.71,-310.26"/>
<polygon fill="black" stroke="black" points="1498.2,-310.57 1496,-300.2 1491.26,-309.68 1498.2,-310.57"/>
<text text-anchor="middle" x="1852.5" y="-349.28" font-family="Times,serif" font-size="20.00">brave macOS 14.2.1 1.60.118 (119.0.6045.163) selenium headless&#45;new</text>
<text text-anchor="middle" x="1852.5" y="-327.28" font-family="Times,serif" font-size="20.00">chrome macOS 14.2.1 120 selenium headless&#45;new</text>
</g>
<!-- SG_1_Node_2 -->
<g id="node11" class="node">
<title>SG_1_Node_2</title>
<polygon fill="none" stroke="black" points="1480.5,-155.64 1379.5,-155.64 1379.5,-119.64 1480.5,-119.64 1480.5,-155.64"/>
<text text-anchor="middle" x="1430" y="-132.64" font-family="Times,serif" font-size="20.00">browser</text>
</g>
<!-- SG_1_Node_1&#45;&gt;SG_1_Node_2 -->
<g id="edge9" class="edge">
<title>SG_1_Node_1&#45;&gt;SG_1_Node_2</title>
<path fill="none" stroke="black" d="M1452.85,-264.06C1444.15,-258.63 1436.13,-251.66 1431,-242.85 1417.39,-219.51 1419.32,-187.93 1423.29,-165.68"/>
<polygon fill="black" stroke="black" points="1426.72,-166.37 1425.28,-155.87 1419.86,-164.98 1426.72,-166.37"/>
<text text-anchor="middle" x="1596.5" y="-215.85" font-family="Times,serif" font-size="20.00">https://headers.webappsec.eu</text>
<text text-anchor="middle" x="1596.5" y="-193.85" font-family="Times,serif" font-size="20.00">https://headers.websec.saarland</text>
</g>
<!-- SG_1_Node_4 -->
<g id="node12" class="node">
<title>SG_1_Node_4</title>
<ellipse fill="none" stroke="black" cx="1784" cy="-137.64" rx="33.88" ry="21.43"/>
<text text-anchor="middle" x="1784" y="-132.64" font-family="Times,serif" font-size="20.00">1.0</text>
</g>
<!-- SG_1_Node_1&#45;&gt;SG_1_Node_4 -->
<g id="edge10" class="edge">
<title>SG_1_Node_1&#45;&gt;SG_1_Node_4</title>
<path fill="none" stroke="black" d="M1563.04,-279.95C1632.02,-277.37 1734.02,-269.08 1762,-242.85 1781.77,-224.32 1786.12,-192.85 1786.22,-169.33"/>
<polygon fill="black" stroke="black" points="1789.71,-169.09 1786,-159.16 1782.71,-169.23 1789.71,-169.09"/>
<text text-anchor="middle" x="1992.5" y="-226.85" font-family="Times,serif" font-size="20.00">[NA]</text>
<text text-anchor="middle" x="1992.5" y="-204.85" font-family="Times,serif" font-size="20.00">https://sub.headers.websec.saarland</text>
<text text-anchor="middle" x="1992.5" y="-182.85" font-family="Times,serif" font-size="20.00">https://sub.sub.headers.websec.saarland</text>
</g>
<!-- SG_1_Node_5 -->
<g id="node13" class="node">
<title>SG_1_Node_5</title>
<ellipse fill="none" stroke="black" cx="1347" cy="-37.21" rx="33.88" ry="21.43"/>
<text text-anchor="middle" x="1347" y="-32.21" font-family="Times,serif" font-size="20.00">0.0</text>
</g>
<!-- SG_1_Node_2&#45;&gt;SG_1_Node_5 -->
<g id="edge11" class="edge">
<title>SG_1_Node_2&#45;&gt;SG_1_Node_5</title>
<path fill="none" stroke="black" d="M1379.48,-129.04C1361.43,-123.62 1342.87,-114.33 1332,-98.43 1325.62,-89.1 1326.99,-77.3 1330.83,-66.63"/>
<polygon fill="black" stroke="black" points="1334.13,-67.82 1334.89,-57.25 1327.7,-65.04 1334.13,-67.82"/>
<text text-anchor="middle" x="1587.5" y="-82.43" font-family="Times,serif" font-size="20.00">chrome macOS 14.2.1 120 selenium headless&#45;new</text>
</g>
<!-- SG_1_Node_6 -->
<g id="node14" class="node">
<title>SG_1_Node_6</title>
<ellipse fill="none" stroke="black" cx="1865" cy="-37.21" rx="33.88" ry="21.43"/>
<text text-anchor="middle" x="1865" y="-32.21" font-family="Times,serif" font-size="20.00">1.0</text>
</g>
<!-- SG_1_Node_2&#45;&gt;SG_1_Node_6 -->
<g id="edge12" class="edge">
<title>SG_1_Node_2&#45;&gt;SG_1_Node_6</title>
<path fill="none" stroke="black" d="M1480.6,-133.4C1587.73,-126.34 1828.83,-109.34 1843,-98.43 1852.38,-91.2 1857.77,-79.57 1860.85,-68.46"/>
<polygon fill="black" stroke="black" points="1864.31,-69.06 1863.09,-58.53 1857.48,-67.52 1864.31,-69.06"/>
<text text-anchor="middle" x="2217.5" y="-82.43" font-family="Times,serif" font-size="20.00">brave macOS 14.2.1 1.60.118 (119.0.6045.163) selenium headless&#45;new</text>
</g>
</g>
</svg>
