<?xml version="1.0" encoding="UTF-8" standalone="no"?>
<!DOCTYPE svg PUBLIC "-//W3C//DTD SVG 1.1//EN"
 "http://www.w3.org/Graphics/SVG/1.1/DTD/svg11.dtd">
<!-- Generated by graphviz version 2.43.0 (0)
 -->
<!-- Title: G Pages: 1 -->
<svg width="3049pt" height="527pt"
 viewBox="0.00 0.00 3049.00 526.85" xmlns="http://www.w3.org/2000/svg" xmlns:xlink="http://www.w3.org/1999/xlink">
<g id="graph0" class="graph" transform="scale(1 1) rotate(0) translate(4 522.85)">
<title>G</title>
<polygon fill="white" stroke="transparent" points="-4,4 -4,-522.85 3045,-522.85 3045,4 -4,4"/>
<g id="clust1" class="cluster">
<title>cluster_0</title>
<polygon fill="none" stroke="black" points="8,-8 8,-510.85 1507,-510.85 1507,-8 8,-8"/>
<text text-anchor="middle" x="757.5" y="-474.85" font-family="Times,serif" font-size="40.00">Tree 0, Class error</text>
</g>
<g id="clust5" class="cluster">
<title>cluster_1</title>
<polygon fill="none" stroke="black" points="1515,-8 1515,-510.85 2156,-510.85 2156,-8 1515,-8"/>
<text text-anchor="middle" x="1835.5" y="-474.85" font-family="Times,serif" font-size="40.00">Tree 0, Class load</text>
</g>
<g id="clust9" class="cluster">
<title>cluster_2</title>
<polygon fill="none" stroke="black" points="2164,-8 2164,-510.85 3033,-510.85 3033,-8 2164,-8"/>
<text text-anchor="middle" x="2598.5" y="-474.85" font-family="Times,serif" font-size="40.00">Tree 0, Class timeout: no event fired</text>
</g>
<!-- SG_0_Node_0 -->
<g id="node1" class="node">
<title>SG_0_Node_0</title>
<polygon fill="none" stroke="black" points="473.5,-450.85 336.5,-450.85 336.5,-414.85 473.5,-414.85 473.5,-450.85"/>
<text text-anchor="middle" x="405" y="-427.85" font-family="Times,serif" font-size="20.00">status_code</text>
</g>
<!-- SG_0_Node_1 -->
<g id="node2" class="node">
<title>SG_0_Node_1</title>
<polygon fill="none" stroke="black" points="198.5,-331.64 97.5,-331.64 97.5,-295.64 198.5,-295.64 198.5,-331.64"/>
<text text-anchor="middle" x="148" y="-308.64" font-family="Times,serif" font-size="20.00">browser</text>
</g>
<!-- SG_0_Node_0&#45;&gt;SG_0_Node_1 -->
<g id="edge1" class="edge">
<title>SG_0_Node_0&#45;&gt;SG_0_Node_1</title>
<path fill="none" stroke="black" d="M367.63,-414.81C321.85,-393.93 244.29,-358.56 194.65,-335.92"/>
<polygon fill="black" stroke="black" points="195.97,-332.67 185.42,-331.7 193.06,-339.04 195.97,-332.67"/>
<text text-anchor="middle" x="340.5" y="-369.85" font-family="Times,serif" font-size="20.00">200</text>
</g>
<!-- SG_0_Node_2 -->
<g id="node3" class="node">
<title>SG_0_Node_2</title>
<polygon fill="none" stroke="black" points="714.5,-331.64 613.5,-331.64 613.5,-295.64 714.5,-295.64 714.5,-331.64"/>
<text text-anchor="middle" x="664" y="-308.64" font-family="Times,serif" font-size="20.00">browser</text>
</g>
<!-- SG_0_Node_0&#45;&gt;SG_0_Node_2 -->
<g id="edge2" class="edge">
<title>SG_0_Node_0&#45;&gt;SG_0_Node_2</title>
<path fill="none" stroke="black" d="M442.66,-414.81C488.79,-393.93 566.96,-358.56 616.99,-335.92"/>
<polygon fill="black" stroke="black" points="618.63,-339.02 626.29,-331.7 615.74,-332.64 618.63,-339.02"/>
<text text-anchor="middle" x="595.5" y="-380.85" font-family="Times,serif" font-size="20.00">[NA]</text>
<text text-anchor="middle" x="595.5" y="-358.85" font-family="Times,serif" font-size="20.00">302</text>
</g>
<!-- SG_0_Node_3 -->
<g id="node4" class="node">
<title>SG_0_Node_3</title>
<ellipse fill="none" stroke="black" cx="50" cy="-37.21" rx="33.88" ry="21.43"/>
<text text-anchor="middle" x="50" y="-32.21" font-family="Times,serif" font-size="20.00">0.0</text>
</g>
<!-- SG_0_Node_1&#45;&gt;SG_0_Node_3 -->
<g id="edge5" class="edge">
<title>SG_0_Node_1&#45;&gt;SG_0_Node_3</title>
<path fill="none" stroke="black" d="M97.35,-304.03C80.41,-298.49 63.25,-289.39 53,-274.43 10.03,-211.69 27.73,-115.94 40.75,-67.89"/>
<polygon fill="black" stroke="black" points="44.16,-68.69 43.52,-58.12 37.43,-66.78 44.16,-68.69"/>
<text text-anchor="middle" x="98.5" y="-181.43" font-family="Times,serif" font-size="20.00">[NA]</text>
<text text-anchor="middle" x="98.5" y="-159.43" font-family="Times,serif" font-size="20.00">19 levels</text>
</g>
<!-- SG_0_Node_4 -->
<g id="node5" class="node">
<title>SG_0_Node_4</title>
<ellipse fill="none" stroke="black" cx="148" cy="-37.21" rx="33.88" ry="21.43"/>
<text text-anchor="middle" x="148" y="-32.21" font-family="Times,serif" font-size="20.00">1.0</text>
</g>
<!-- SG_0_Node_1&#45;&gt;SG_0_Node_4 -->
<g id="edge6" class="edge">
<title>SG_0_Node_1&#45;&gt;SG_0_Node_4</title>
<path fill="none" stroke="black" d="M148,-295.47C148,-250.17 148,-126.89 148,-69"/>
<polygon fill="black" stroke="black" points="151.5,-68.67 148,-58.67 144.5,-68.67 151.5,-68.67"/>
<text text-anchor="middle" x="394.5" y="-258.43" font-family="Times,serif" font-size="20.00">brave iPadOS 17.2 1.61 (23.12.18.22) intent real</text>
<text text-anchor="middle" x="394.5" y="-236.43" font-family="Times,serif" font-size="20.00">firefox Ubuntu 22.04 119 selenium headless</text>
<text text-anchor="middle" x="394.5" y="-214.43" font-family="Times,serif" font-size="20.00">firefox Ubuntu 22.04 119 selenium xvfb</text>
<text text-anchor="middle" x="394.5" y="-192.43" font-family="Times,serif" font-size="20.00">firefox iPadOS 17.2 121.0 (36782) intent real</text>
<text text-anchor="middle" x="394.5" y="-170.43" font-family="Times,serif" font-size="20.00">firefox macOS 14.2.1 120 selenium headless</text>
<text text-anchor="middle" x="394.5" y="-148.43" font-family="Times,serif" font-size="20.00">firefox macOS 14.2.1 120 selenium real</text>
<text text-anchor="middle" x="394.5" y="-126.43" font-family="Times,serif" font-size="20.00">firefox_beta Android 11 122.0b1 intent real</text>
<text text-anchor="middle" x="394.5" y="-104.43" font-family="Times,serif" font-size="20.00">operagx iPadOS 17.2 2.2.2 intent real</text>
<text text-anchor="middle" x="394.5" y="-82.43" font-family="Times,serif" font-size="20.00">safari macOS 14.2.1 17.2 selenium real</text>
</g>
<!-- SG_0_Node_5 -->
<g id="node6" class="node">
<title>SG_0_Node_5</title>
<ellipse fill="none" stroke="black" cx="664" cy="-37.21" rx="33.88" ry="21.43"/>
<text text-anchor="middle" x="664" y="-32.21" font-family="Times,serif" font-size="20.00">0.0</text>
</g>
<!-- SG_0_Node_2&#45;&gt;SG_0_Node_5 -->
<g id="edge3" class="edge">
<title>SG_0_Node_2&#45;&gt;SG_0_Node_5</title>
<path fill="none" stroke="black" d="M664,-295.47C664,-250.17 664,-126.89 664,-69"/>
<polygon fill="black" stroke="black" points="667.5,-68.67 664,-58.67 660.5,-68.67 667.5,-68.67"/>
<text text-anchor="middle" x="1024.5" y="-170.43" font-family="Times,serif" font-size="20.00">brave macOS 14.2.1 1.60.118 (119.0.6045.163) selenium headless&#45;new</text>
</g>
<!-- SG_0_Node_6 -->
<g id="node7" class="node">
<title>SG_0_Node_6</title>
<ellipse fill="none" stroke="black" cx="1408" cy="-37.21" rx="33.88" ry="21.43"/>
<text text-anchor="middle" x="1408" y="-32.21" font-family="Times,serif" font-size="20.00">1.0</text>
</g>
<!-- SG_0_Node_2&#45;&gt;SG_0_Node_6 -->
<g id="edge4" class="edge">
<title>SG_0_Node_2&#45;&gt;SG_0_Node_6</title>
<path fill="none" stroke="black" d="M714.53,-311.76C874.67,-308.74 1361.82,-297.66 1386,-274.43 1414.67,-246.88 1412.61,-126.54 1409.86,-69.03"/>
<polygon fill="black" stroke="black" points="1413.34,-68.55 1409.33,-58.74 1406.35,-68.91 1413.34,-68.55"/>
<text text-anchor="middle" x="1456.5" y="-181.43" font-family="Times,serif" font-size="20.00">[NA]</text>
<text text-anchor="middle" x="1456.5" y="-159.43" font-family="Times,serif" font-size="20.00">27 levels</text>
</g>
<!-- SG_1_Node_0 -->
<g id="node8" class="node">
<title>SG_1_Node_0</title>
<polygon fill="none" stroke="black" points="1677.5,-450.85 1540.5,-450.85 1540.5,-414.85 1677.5,-414.85 1677.5,-450.85"/>
<text text-anchor="middle" x="1609" y="-427.85" font-family="Times,serif" font-size="20.00">status_code</text>
</g>
<!-- SG_1_Node_2 -->
<g id="node9" class="node">
<title>SG_1_Node_2</title>
<ellipse fill="none" stroke="black" cx="1583" cy="-313.64" rx="33.88" ry="21.43"/>
<text text-anchor="middle" x="1583" y="-308.64" font-family="Times,serif" font-size="20.00">0.0</text>
</g>
<!-- SG_1_Node_0&#45;&gt;SG_1_Node_2 -->
<g id="edge7" class="edge">
<title>SG_1_Node_0&#45;&gt;SG_1_Node_2</title>
<path fill="none" stroke="black" d="M1605.22,-414.81C1601.16,-396.5 1594.62,-367.05 1589.69,-344.8"/>
<polygon fill="black" stroke="black" points="1593.07,-343.86 1587.48,-334.85 1586.23,-345.37 1593.07,-343.86"/>
<text text-anchor="middle" x="1623.5" y="-380.85" font-family="Times,serif" font-size="20.00">[NA]</text>
<text text-anchor="middle" x="1623.5" y="-358.85" font-family="Times,serif" font-size="20.00">302</text>
</g>
<!-- SG_1_Node_1 -->
<g id="node10" class="node">
<title>SG_1_Node_1</title>
<polygon fill="none" stroke="black" points="1735.5,-331.64 1634.5,-331.64 1634.5,-295.64 1735.5,-295.64 1735.5,-331.64"/>
<text text-anchor="middle" x="1685" y="-308.64" font-family="Times,serif" font-size="20.00">browser</text>
</g>
<!-- SG_1_Node_0&#45;&gt;SG_1_Node_1 -->
<g id="edge8" class="edge">
<title>SG_1_Node_0&#45;&gt;SG_1_Node_1</title>
<path fill="none" stroke="black" d="M1633.57,-414.75C1639.84,-409.54 1646.16,-403.43 1651,-396.85 1663.2,-380.26 1671.92,-358.65 1677.47,-341.75"/>
<polygon fill="black" stroke="black" points="1680.89,-342.51 1680.52,-331.93 1674.21,-340.44 1680.89,-342.51"/>
<text text-anchor="middle" x="1692.5" y="-369.85" font-family="Times,serif" font-size="20.00">200</text>
</g>
<!-- SG_1_Node_3 -->
<g id="node11" class="node">
<title>SG_1_Node_3</title>
<ellipse fill="none" stroke="black" cx="1557" cy="-37.21" rx="33.88" ry="21.43"/>
<text text-anchor="middle" x="1557" y="-32.21" font-family="Times,serif" font-size="20.00">0.0</text>
</g>
<!-- SG_1_Node_1&#45;&gt;SG_1_Node_3 -->
<g id="edge9" class="edge">
<title>SG_1_Node_1&#45;&gt;SG_1_Node_3</title>
<path fill="none" stroke="black" d="M1636.85,-295.62C1633.19,-294.49 1629.55,-293.41 1626,-292.43 1589.21,-282.22 1566,-304.12 1542,-274.43 1493.54,-214.48 1524.15,-115.57 1543.97,-66.97"/>
<polygon fill="black" stroke="black" points="1547.23,-68.25 1547.89,-57.67 1540.78,-65.53 1547.23,-68.25"/>
<text text-anchor="middle" x="1788.5" y="-258.43" font-family="Times,serif" font-size="20.00">brave iPadOS 17.2 1.61 (23.12.18.22) intent real</text>
<text text-anchor="middle" x="1788.5" y="-236.43" font-family="Times,serif" font-size="20.00">firefox Ubuntu 22.04 119 selenium headless</text>
<text text-anchor="middle" x="1788.5" y="-214.43" font-family="Times,serif" font-size="20.00">firefox Ubuntu 22.04 119 selenium xvfb</text>
<text text-anchor="middle" x="1788.5" y="-192.43" font-family="Times,serif" font-size="20.00">firefox iPadOS 17.2 121.0 (36782) intent real</text>
<text text-anchor="middle" x="1788.5" y="-170.43" font-family="Times,serif" font-size="20.00">firefox macOS 14.2.1 120 selenium headless</text>
<text text-anchor="middle" x="1788.5" y="-148.43" font-family="Times,serif" font-size="20.00">firefox macOS 14.2.1 120 selenium real</text>
<text text-anchor="middle" x="1788.5" y="-126.43" font-family="Times,serif" font-size="20.00">firefox_beta Android 11 122.0b1 intent real</text>
<text text-anchor="middle" x="1788.5" y="-104.43" font-family="Times,serif" font-size="20.00">operagx iPadOS 17.2 2.2.2 intent real</text>
<text text-anchor="middle" x="1788.5" y="-82.43" font-family="Times,serif" font-size="20.00">safari macOS 14.2.1 17.2 selenium real</text>
</g>
<!-- SG_1_Node_4 -->
<g id="node12" class="node">
<title>SG_1_Node_4</title>
<ellipse fill="none" stroke="black" cx="2057" cy="-37.21" rx="33.88" ry="21.43"/>
<text text-anchor="middle" x="2057" y="-32.21" font-family="Times,serif" font-size="20.00">1.0</text>
</g>
<!-- SG_1_Node_1&#45;&gt;SG_1_Node_4 -->
<g id="edge10" class="edge">
<title>SG_1_Node_1&#45;&gt;SG_1_Node_4</title>
<path fill="none" stroke="black" d="M1735.83,-310.59C1827.83,-306.38 2014.42,-295.34 2035,-274.43 2062.89,-246.09 2061.23,-126.16 2058.72,-68.89"/>
<polygon fill="black" stroke="black" points="2062.21,-68.46 2058.24,-58.64 2055.21,-68.8 2062.21,-68.46"/>
<text text-anchor="middle" x="2104.5" y="-181.43" font-family="Times,serif" font-size="20.00">[NA]</text>
<text text-anchor="middle" x="2104.5" y="-159.43" font-family="Times,serif" font-size="20.00">19 levels</text>
</g>
<!-- SG_2_Node_0 -->
<g id="node13" class="node">
<title>SG_2_Node_0</title>
<polygon fill="none" stroke="black" points="2313.5,-450.85 2212.5,-450.85 2212.5,-414.85 2313.5,-414.85 2313.5,-450.85"/>
<text text-anchor="middle" x="2263" y="-427.85" font-family="Times,serif" font-size="20.00">browser</text>
</g>
<!-- SG_2_Node_2 -->
<g id="node14" class="node">
<title>SG_2_Node_2</title>
<ellipse fill="none" stroke="black" cx="2206" cy="-313.64" rx="33.88" ry="21.43"/>
<text text-anchor="middle" x="2206" y="-308.64" font-family="Times,serif" font-size="20.00">0.0</text>
</g>
<!-- SG_2_Node_0&#45;&gt;SG_2_Node_2 -->
<g id="edge11" class="edge">
<title>SG_2_Node_0&#45;&gt;SG_2_Node_2</title>
<path fill="none" stroke="black" d="M2212.38,-416.33C2203.88,-411.45 2196.16,-405.1 2191,-396.85 2181.03,-380.92 2184.99,-360.05 2191.34,-343.33"/>
<polygon fill="black" stroke="black" points="2194.6,-344.6 2195.27,-334.03 2188.15,-341.88 2194.6,-344.6"/>
<text text-anchor="middle" x="2236.5" y="-380.85" font-family="Times,serif" font-size="20.00">[NA]</text>
<text text-anchor="middle" x="2236.5" y="-358.85" font-family="Times,serif" font-size="20.00">27 levels</text>
</g>
<!-- SG_2_Node_1 -->
<g id="node15" class="node">
<title>SG_2_Node_1</title>
<polygon fill="none" stroke="black" points="2394.5,-331.64 2257.5,-331.64 2257.5,-295.64 2394.5,-295.64 2394.5,-331.64"/>
<text text-anchor="middle" x="2326" y="-308.64" font-family="Times,serif" font-size="20.00">status_code</text>
</g>
<!-- SG_2_Node_0&#45;&gt;SG_2_Node_1 -->
<g id="edge12" class="edge">
<title>SG_2_Node_0&#45;&gt;SG_2_Node_1</title>
<path fill="none" stroke="black" d="M2272.3,-414.77C2275.39,-409.08 2278.85,-402.7 2282,-396.85 2292.15,-378.03 2303.53,-356.75 2312.18,-340.55"/>
<polygon fill="black" stroke="black" points="2315.31,-342.13 2316.93,-331.66 2309.13,-338.83 2315.31,-342.13"/>
<text text-anchor="middle" x="2664.5" y="-369.85" font-family="Times,serif" font-size="20.00">brave macOS 14.2.1 1.60.118 (119.0.6045.163) selenium headless&#45;new</text>
</g>
<!-- SG_2_Node_3 -->
<g id="node16" class="node">
<title>SG_2_Node_3</title>
<ellipse fill="none" stroke="black" cx="2286" cy="-37.21" rx="33.88" ry="21.43"/>
<text text-anchor="middle" x="2286" y="-32.21" font-family="Times,serif" font-size="20.00">0.0</text>
</g>
<!-- SG_2_Node_1&#45;&gt;SG_2_Node_3 -->
<g id="edge13" class="edge">
<title>SG_2_Node_1&#45;&gt;SG_2_Node_3</title>
<path fill="none" stroke="black" d="M2310.83,-295.53C2306.19,-289.31 2301.62,-281.94 2299,-274.43 2274.5,-204.05 2278.2,-114.76 2282.43,-68.73"/>
<polygon fill="black" stroke="black" points="2285.94,-68.83 2283.45,-58.53 2278.97,-68.13 2285.94,-68.83"/>
<text text-anchor="middle" x="2318.5" y="-170.43" font-family="Times,serif" font-size="20.00">200</text>
</g>
<!-- SG_2_Node_4 -->
<g id="node17" class="node">
<title>SG_2_Node_4</title>
<ellipse fill="none" stroke="black" cx="2372" cy="-37.21" rx="33.88" ry="21.43"/>
<text text-anchor="middle" x="2372" y="-32.21" font-family="Times,serif" font-size="20.00">1.0</text>
</g>
<!-- SG_2_Node_1&#45;&gt;SG_2_Node_4 -->
<g id="edge14" class="edge">
<title>SG_2_Node_1&#45;&gt;SG_2_Node_4</title>
<path fill="none" stroke="black" d="M2332.1,-295.3C2334.2,-288.81 2336.43,-281.34 2338,-274.43 2354.59,-201.49 2364.69,-113.96 2369.2,-68.68"/>
<polygon fill="black" stroke="black" points="2372.69,-68.93 2370.18,-58.64 2365.73,-68.25 2372.69,-68.93"/>
<text text-anchor="middle" x="2391.5" y="-181.43" font-family="Times,serif" font-size="20.00">[NA]</text>
<text text-anchor="middle" x="2391.5" y="-159.43" font-family="Times,serif" font-size="20.00">302</text>
</g>
</g>
</svg>
