<?xml version="1.0" encoding="UTF-8" standalone="no"?>
<!DOCTYPE svg PUBLIC "-//W3C//DTD SVG 1.1//EN"
 "http://www.w3.org/Graphics/SVG/1.1/DTD/svg11.dtd">
<!-- Generated by graphviz version 2.43.0 (0)
 -->
<!-- Title: G Pages: 1 -->
<svg width="1835pt" height="338pt"
 viewBox="0.00 0.00 1835.00 338.43" xmlns="http://www.w3.org/2000/svg" xmlns:xlink="http://www.w3.org/1999/xlink">
<g id="graph0" class="graph" transform="scale(1 1) rotate(0) translate(4 334.43)">
<title>G</title>
<polygon fill="white" stroke="transparent" points="-4,4 -4,-334.43 1831,-334.43 1831,4 -4,4"/>
<g id="clust1" class="cluster">
<title>cluster_0</title>
<polygon fill="none" stroke="black" points="8,-8 8,-322.43 915,-322.43 915,-8 8,-8"/>
<text text-anchor="middle" x="461.5" y="-286.43" font-family="Times,serif" font-size="40.00">Tree 0, Class {&#39;response.redirected&#39;: False}</text>
</g>
<g id="clust4" class="cluster">
<title>cluster_1</title>
<polygon fill="none" stroke="black" points="923,-8 923,-322.43 1819,-322.43 1819,-8 923,-8"/>
<text text-anchor="middle" x="1371" y="-286.43" font-family="Times,serif" font-size="40.00">Tree 0, Class {&#39;response.redirected&#39;: True}</text>
</g>
<!-- SG_0_Node_0 -->
<g id="node1" class="node">
<title>SG_0_Node_0</title>
<polygon fill="none" stroke="black" points="366.5,-262.43 265.5,-262.43 265.5,-226.43 366.5,-226.43 366.5,-262.43"/>
<text text-anchor="middle" x="316" y="-239.43" font-family="Times,serif" font-size="20.00">browser</text>
</g>
<!-- SG_0_Node_1 -->
<g id="node2" class="node">
<title>SG_0_Node_1</title>
<ellipse fill="none" stroke="black" cx="175" cy="-37.21" rx="33.88" ry="21.43"/>
<text text-anchor="middle" x="175" y="-32.21" font-family="Times,serif" font-size="20.00">0.0</text>
</g>
<!-- SG_0_Node_0&#45;&gt;SG_0_Node_1 -->
<g id="edge1" class="edge">
<title>SG_0_Node_0&#45;&gt;SG_0_Node_1</title>
<path fill="none" stroke="black" d="M265.46,-237.34C230.05,-231.91 187.14,-222.61 176,-208.43 144.46,-168.28 155.04,-104.8 165.25,-67.77"/>
<polygon fill="black" stroke="black" points="168.64,-68.64 168.08,-58.06 161.92,-66.68 168.64,-68.64"/>
<text text-anchor="middle" x="422.5" y="-192.43" font-family="Times,serif" font-size="20.00">brave iPadOS 17.2 1.61 (23.12.18.22) intent real</text>
<text text-anchor="middle" x="422.5" y="-170.43" font-family="Times,serif" font-size="20.00">chrome iPadOS 17.2 120.0.6099.119 intent real</text>
<text text-anchor="middle" x="422.5" y="-148.43" font-family="Times,serif" font-size="20.00">edge iPadOS 17.2 120.0.2210.116 intent real</text>
<text text-anchor="middle" x="422.5" y="-126.43" font-family="Times,serif" font-size="20.00">firefox iPadOS 17.2 121.0 (36782) intent real</text>
<text text-anchor="middle" x="422.5" y="-104.43" font-family="Times,serif" font-size="20.00">operagx iPadOS 17.2 2.2.2 intent real</text>
<text text-anchor="middle" x="422.5" y="-82.43" font-family="Times,serif" font-size="20.00">safari macOS 14.2.1 17.2 selenium real</text>
</g>
<!-- SG_0_Node_2 -->
<g id="node3" class="node">
<title>SG_0_Node_2</title>
<ellipse fill="none" stroke="black" cx="691" cy="-37.21" rx="33.88" ry="21.43"/>
<text text-anchor="middle" x="691" y="-32.21" font-family="Times,serif" font-size="20.00">1.0</text>
</g>
<!-- SG_0_Node_0&#45;&gt;SG_0_Node_2 -->
<g id="edge2" class="edge">
<title>SG_0_Node_0&#45;&gt;SG_0_Node_2</title>
<path fill="none" stroke="black" d="M366.82,-241.83C459.34,-238.43 647.76,-229.04 669,-208.43 706.13,-172.38 703.01,-106.91 697.16,-68.52"/>
<polygon fill="black" stroke="black" points="700.58,-67.74 695.47,-58.46 693.67,-68.9 700.58,-67.74"/>
<text text-anchor="middle" x="745.5" y="-148.43" font-family="Times,serif" font-size="20.00">[NA]</text>
<text text-anchor="middle" x="745.5" y="-126.43" font-family="Times,serif" font-size="20.00">22 levels</text>
</g>
<!-- SG_1_Node_0 -->
<g id="node4" class="node">
<title>SG_1_Node_0</title>
<polygon fill="none" stroke="black" points="1080.5,-262.43 979.5,-262.43 979.5,-226.43 1080.5,-226.43 1080.5,-262.43"/>
<text text-anchor="middle" x="1030" y="-239.43" font-family="Times,serif" font-size="20.00">browser</text>
</g>
<!-- SG_1_Node_1 -->
<g id="node5" class="node">
<title>SG_1_Node_1</title>
<ellipse fill="none" stroke="black" cx="997" cy="-37.21" rx="33.88" ry="21.43"/>
<text text-anchor="middle" x="997" y="-32.21" font-family="Times,serif" font-size="20.00">0.0</text>
</g>
<!-- SG_1_Node_0&#45;&gt;SG_1_Node_1 -->
<g id="edge3" class="edge">
<title>SG_1_Node_0&#45;&gt;SG_1_Node_1</title>
<path fill="none" stroke="black" d="M1009.82,-226.34C1005.04,-221.13 1000.58,-215.02 998,-208.43 979.93,-162.29 985.1,-103.58 990.82,-68.55"/>
<polygon fill="black" stroke="black" points="994.31,-68.94 992.59,-58.48 987.41,-67.73 994.31,-68.94"/>
<text text-anchor="middle" x="1043.5" y="-148.43" font-family="Times,serif" font-size="20.00">[NA]</text>
<text text-anchor="middle" x="1043.5" y="-126.43" font-family="Times,serif" font-size="20.00">22 levels</text>
</g>
<!-- SG_1_Node_2 -->
<g id="node6" class="node">
<title>SG_1_Node_2</title>
<ellipse fill="none" stroke="black" cx="1111" cy="-37.21" rx="33.88" ry="21.43"/>
<text text-anchor="middle" x="1111" y="-32.21" font-family="Times,serif" font-size="20.00">1.0</text>
</g>
<!-- SG_1_Node_0&#45;&gt;SG_1_Node_2 -->
<g id="edge4" class="edge">
<title>SG_1_Node_0&#45;&gt;SG_1_Node_2</title>
<path fill="none" stroke="black" d="M1070.32,-226.28C1077.56,-221.49 1084.29,-215.59 1089,-208.43 1116.88,-166.06 1117.41,-104.79 1114.64,-68.48"/>
<polygon fill="black" stroke="black" points="1118.12,-68.15 1113.74,-58.5 1111.15,-68.77 1118.12,-68.15"/>
<text text-anchor="middle" x="1361.5" y="-192.43" font-family="Times,serif" font-size="20.00">brave iPadOS 17.2 1.61 (23.12.18.22) intent real</text>
<text text-anchor="middle" x="1361.5" y="-170.43" font-family="Times,serif" font-size="20.00">chrome iPadOS 17.2 120.0.6099.119 intent real</text>
<text text-anchor="middle" x="1361.5" y="-148.43" font-family="Times,serif" font-size="20.00">edge iPadOS 17.2 120.0.2210.116 intent real</text>
<text text-anchor="middle" x="1361.5" y="-126.43" font-family="Times,serif" font-size="20.00">firefox iPadOS 17.2 121.0 (36782) intent real</text>
<text text-anchor="middle" x="1361.5" y="-104.43" font-family="Times,serif" font-size="20.00">operagx iPadOS 17.2 2.2.2 intent real</text>
<text text-anchor="middle" x="1361.5" y="-82.43" font-family="Times,serif" font-size="20.00">safari macOS 14.2.1 17.2 selenium real</text>
</g>
</g>
</svg>
