<?xml version="1.0" encoding="UTF-8" standalone="no"?>
<!DOCTYPE svg PUBLIC "-//W3C//DTD SVG 1.1//EN"
 "http://www.w3.org/Graphics/SVG/1.1/DTD/svg11.dtd">
<!-- Generated by graphviz version 2.43.0 (0)
 -->
<!-- Title: G Pages: 1 -->
<svg width="5265pt" height="1409pt"
 viewBox="0.00 0.00 5265.00 1409.28" xmlns="http://www.w3.org/2000/svg" xmlns:xlink="http://www.w3.org/1999/xlink">
<g id="graph0" class="graph" transform="scale(1 1) rotate(0) translate(4 1405.28)">
<title>G</title>
<polygon fill="white" stroke="transparent" points="-4,4 -4,-1405.28 5261,-1405.28 5261,4 -4,4"/>
<g id="clust1" class="cluster">
<title>cluster_0</title>
<polygon fill="none" stroke="black" points="8,-8 8,-1393.28 2622,-1393.28 2622,-8 8,-8"/>
<text text-anchor="middle" x="1315" y="-1357.28" font-family="Times,serif" font-size="40.00">Tree 0, Class {&#39;window.open.opener&#39;: &#39;null&#39;}</text>
</g>
<g id="clust8" class="cluster">
<title>cluster_1</title>
<polygon fill="none" stroke="black" points="2630,-8 2630,-1393.28 5244,-1393.28 5244,-8 2630,-8"/>
<text text-anchor="middle" x="3937" y="-1357.28" font-family="Times,serif" font-size="40.00">Tree 0, Class {&#39;window.open.opener&#39;: &#39;object [object Window]&#39;}</text>
</g>
<!-- SG_0_Node_0 -->
<g id="node1" class="node">
<title>SG_0_Node_0</title>
<polygon fill="none" stroke="black" points="1079.5,-1333.28 942.5,-1333.28 942.5,-1297.28 1079.5,-1297.28 1079.5,-1333.28"/>
<text text-anchor="middle" x="1011" y="-1310.28" font-family="Times,serif" font-size="20.00">raw_header</text>
</g>
<!-- SG_0_Node_1 -->
<g id="node2" class="node">
<title>SG_0_Node_1</title>
<polygon fill="none" stroke="black" points="590.5,-1085.28 489.5,-1085.28 489.5,-1049.28 590.5,-1049.28 590.5,-1085.28"/>
<text text-anchor="middle" x="540" y="-1062.28" font-family="Times,serif" font-size="20.00">browser</text>
</g>
<!-- SG_0_Node_0&#45;&gt;SG_0_Node_1 -->
<g id="edge1" class="edge">
<title>SG_0_Node_0&#45;&gt;SG_0_Node_1</title>
<path fill="none" stroke="black" d="M942.1,-1314.19C818.12,-1313.31 567.75,-1307.96 541,-1279.28 494.29,-1229.2 515.27,-1139.75 529.98,-1095.13"/>
<polygon fill="black" stroke="black" points="533.33,-1096.15 533.27,-1085.56 526.71,-1093.88 533.33,-1096.15"/>
<text text-anchor="middle" x="1001" y="-1263.28" font-family="Times,serif" font-size="20.00">[[&#39;cross&#45;origin&#45;opener&#45;policy&#39;, &#39;&#39;], [&#39;cross&#45;origin&#45;opener&#45;policy&#39;, &#39;same&#45;origin&#39;]]</text>
<text text-anchor="middle" x="1001" y="-1241.28" font-family="Times,serif" font-size="20.00">[[&#39;cross&#45;origin&#45;opener&#45;policy&#39;, &#39;&#39;], [&#39;cross&#45;origin&#45;opener&#45;policy&#39;, &#39;same&#45;origin&#45;allow&#45;popups&#39;]]</text>
<text text-anchor="middle" x="1001" y="-1219.28" font-family="Times,serif" font-size="20.00">[[&#39;cross&#45;origin&#45;opener&#45;policy&#39;, &#39;same&#45;origin&#39;], [&#39;cross&#45;origin&#45;opener&#45;policy&#39;, &#39;&#39;]]</text>
<text text-anchor="middle" x="1001" y="-1197.28" font-family="Times,serif" font-size="20.00">[[&#39;cross&#45;origin&#45;opener&#45;policy&#39;, &#39;same&#45;origin&#45;allow&#45;popups&#39;], [&#39;cross&#45;origin&#45;opener&#45;policy&#39;, &#39;&#39;]]</text>
<text text-anchor="end" x="1461" y="-1175.28" font-family="Times,serif" font-size="20.00">[[&#39;cross&#45;origin&#45;opener&#45;policy</text>
<text text-anchor="middle" x="1001" y="-1153.28" font-family="Times,serif" font-size="20.00">&#39;, &#39;same&#45;origin&#39;]]</text>
<text text-anchor="end" x="1461" y="-1131.28" font-family="Times,serif" font-size="20.00">[[&#39;cross&#45;origin&#45;opener&#45;policy</text>
<text text-anchor="middle" x="1001" y="-1109.28" font-family="Times,serif" font-size="20.00">&#39;, &#39;same&#45;origin&#45;allow&#45;popups&#39;]]</text>
</g>
<!-- SG_0_Node_2 -->
<g id="node3" class="node">
<title>SG_0_Node_2</title>
<polygon fill="none" stroke="black" points="1533.5,-1085.28 1432.5,-1085.28 1432.5,-1049.28 1533.5,-1049.28 1533.5,-1085.28"/>
<text text-anchor="middle" x="1483" y="-1062.28" font-family="Times,serif" font-size="20.00">browser</text>
</g>
<!-- SG_0_Node_0&#45;&gt;SG_0_Node_2 -->
<g id="edge2" class="edge">
<title>SG_0_Node_0&#45;&gt;SG_0_Node_2</title>
<path fill="none" stroke="black" d="M1079.52,-1313.69C1198.75,-1311.97 1434.3,-1305.28 1461,-1279.28 1510.34,-1231.22 1499.33,-1140.78 1489.82,-1095.52"/>
<polygon fill="black" stroke="black" points="1493.19,-1094.55 1487.59,-1085.55 1486.36,-1096.08 1493.19,-1094.55"/>
<text text-anchor="middle" x="1543.5" y="-1197.28" font-family="Times,serif" font-size="20.00">[NA]</text>
<text text-anchor="middle" x="1543.5" y="-1175.28" font-family="Times,serif" font-size="20.00">14 levels</text>
</g>
<!-- SG_0_Node_8 -->
<g id="node4" class="node">
<title>SG_0_Node_8</title>
<ellipse fill="none" stroke="black" cx="50" cy="-838.07" rx="33.88" ry="21.43"/>
<text text-anchor="middle" x="50" y="-833.07" font-family="Times,serif" font-size="20.00">0.0</text>
</g>
<!-- SG_0_Node_1&#45;&gt;SG_0_Node_8 -->
<g id="edge15" class="edge">
<title>SG_0_Node_1&#45;&gt;SG_0_Node_8</title>
<path fill="none" stroke="black" d="M489.34,-1066.62C366.74,-1066.92 61.83,-1064.3 31,-1031.28 -15.71,-981.25 15.35,-943.91 31,-877.28 31.76,-874.03 32.84,-870.75 34.11,-867.54"/>
<polygon fill="black" stroke="black" points="37.38,-868.8 38.32,-858.24 31,-865.91 37.38,-868.8"/>
<text text-anchor="middle" x="390.5" y="-1015.28" font-family="Times,serif" font-size="20.00">[NA]</text>
<text text-anchor="middle" x="390.5" y="-993.28" font-family="Times,serif" font-size="20.00">brave Ubuntu 22.04 1.60.114 (119.0.6045.124) selenium headless&#45;new</text>
<text text-anchor="middle" x="390.5" y="-971.28" font-family="Times,serif" font-size="20.00">brave Ubuntu 22.04 1.60.114 (119.0.6045.124) selenium xvfb</text>
<text text-anchor="middle" x="390.5" y="-949.28" font-family="Times,serif" font-size="20.00">chrome Ubuntu 22.04 119 selenium headless&#45;new</text>
<text text-anchor="middle" x="390.5" y="-927.28" font-family="Times,serif" font-size="20.00">chrome Ubuntu 22.04 119 selenium xvfb</text>
<text text-anchor="middle" x="390.5" y="-905.28" font-family="Times,serif" font-size="20.00">edge Ubuntu 22.04 119 selenium headless&#45;new</text>
<text text-anchor="middle" x="390.5" y="-883.28" font-family="Times,serif" font-size="20.00">edge Ubuntu 22.04 119 selenium xvfb</text>
</g>
<!-- SG_0_Node_9 -->
<g id="node5" class="node">
<title>SG_0_Node_9</title>
<ellipse fill="none" stroke="black" cx="776" cy="-838.07" rx="33.88" ry="21.43"/>
<text text-anchor="middle" x="776" y="-833.07" font-family="Times,serif" font-size="20.00">1.0</text>
</g>
<!-- SG_0_Node_1&#45;&gt;SG_0_Node_9 -->
<g id="edge16" class="edge">
<title>SG_0_Node_1&#45;&gt;SG_0_Node_9</title>
<path fill="none" stroke="black" d="M590.74,-1064.83C646.84,-1062.09 732.18,-1054.17 754,-1031.28 775.49,-1008.73 777.39,-917.96 776.8,-869.66"/>
<polygon fill="black" stroke="black" points="780.3,-869.42 776.64,-859.48 773.3,-869.53 780.3,-869.42"/>
<text text-anchor="middle" x="1000.5" y="-960.28" font-family="Times,serif" font-size="20.00">firefox Ubuntu 22.04 119 selenium headless</text>
<text text-anchor="middle" x="1000.5" y="-938.28" font-family="Times,serif" font-size="20.00">firefox Ubuntu 22.04 119 selenium xvfb</text>
</g>
<!-- SG_0_Node_3 -->
<g id="node6" class="node">
<title>SG_0_Node_3</title>
<polygon fill="none" stroke="black" points="1316.5,-856.07 1179.5,-856.07 1179.5,-820.07 1316.5,-820.07 1316.5,-856.07"/>
<text text-anchor="middle" x="1248" y="-833.07" font-family="Times,serif" font-size="20.00">raw_header</text>
</g>
<!-- SG_0_Node_2&#45;&gt;SG_0_Node_3 -->
<g id="edge3" class="edge">
<title>SG_0_Node_2&#45;&gt;SG_0_Node_3</title>
<path fill="none" stroke="black" d="M1432.49,-1066.1C1370.95,-1064.68 1272.26,-1058.14 1249,-1031.28 1228.28,-1007.35 1237.72,-913.32 1244,-866.23"/>
<polygon fill="black" stroke="black" points="1247.49,-866.53 1245.39,-856.14 1240.56,-865.57 1247.49,-866.53"/>
<text text-anchor="middle" x="1561" y="-971.28" font-family="Times,serif" font-size="20.00">brave Ubuntu 22.04 1.60.114 (119.0.6045.124) selenium xvfb</text>
<text text-anchor="middle" x="1561" y="-949.28" font-family="Times,serif" font-size="20.00">firefox Ubuntu 22.04 119 selenium headless</text>
<text text-anchor="middle" x="1561" y="-927.28" font-family="Times,serif" font-size="20.00">firefox Ubuntu 22.04 119 selenium xvfb</text>
</g>
<!-- SG_0_Node_10 -->
<g id="node7" class="node">
<title>SG_0_Node_10</title>
<ellipse fill="none" stroke="black" cx="1895" cy="-838.07" rx="33.88" ry="21.43"/>
<text text-anchor="middle" x="1895" y="-833.07" font-family="Times,serif" font-size="20.00">1.0</text>
</g>
<!-- SG_0_Node_2&#45;&gt;SG_0_Node_10 -->
<g id="edge4" class="edge">
<title>SG_0_Node_2&#45;&gt;SG_0_Node_10</title>
<path fill="none" stroke="black" d="M1533.68,-1065.24C1633.76,-1062.68 1849.19,-1054.51 1873,-1031.28 1895.29,-1009.52 1896.83,-918.4 1895.99,-869.84"/>
<polygon fill="black" stroke="black" points="1899.48,-869.52 1895.76,-859.6 1892.48,-869.68 1899.48,-869.52"/>
<text text-anchor="middle" x="2255.5" y="-1004.28" font-family="Times,serif" font-size="20.00">[NA]</text>
<text text-anchor="middle" x="2255.5" y="-982.28" font-family="Times,serif" font-size="20.00">brave Ubuntu 22.04 1.60.114 (119.0.6045.124) selenium headless&#45;new</text>
<text text-anchor="middle" x="2255.5" y="-960.28" font-family="Times,serif" font-size="20.00">chrome Ubuntu 22.04 119 selenium headless&#45;new</text>
<text text-anchor="middle" x="2255.5" y="-938.28" font-family="Times,serif" font-size="20.00">chrome Ubuntu 22.04 119 selenium xvfb</text>
<text text-anchor="middle" x="2255.5" y="-916.28" font-family="Times,serif" font-size="20.00">edge Ubuntu 22.04 119 selenium headless&#45;new</text>
<text text-anchor="middle" x="2255.5" y="-894.28" font-family="Times,serif" font-size="20.00">edge Ubuntu 22.04 119 selenium xvfb</text>
</g>
<!-- SG_0_Node_4 -->
<g id="node8" class="node">
<title>SG_0_Node_4</title>
<polygon fill="none" stroke="black" points="921.5,-494.85 820.5,-494.85 820.5,-458.85 921.5,-458.85 921.5,-494.85"/>
<text text-anchor="middle" x="871" y="-471.85" font-family="Times,serif" font-size="20.00">browser</text>
</g>
<!-- SG_0_Node_3&#45;&gt;SG_0_Node_4 -->
<g id="edge5" class="edge">
<title>SG_0_Node_3&#45;&gt;SG_0_Node_4</title>
<path fill="none" stroke="black" d="M1179.4,-834.86C1077.54,-830.87 896.07,-820.75 876,-798.85 800.34,-716.32 840.34,-565.66 861.07,-504.61"/>
<polygon fill="black" stroke="black" points="864.46,-505.54 864.45,-494.95 857.85,-503.23 864.46,-505.54"/>
<text text-anchor="middle" x="1178.5" y="-782.85" font-family="Times,serif" font-size="20.00">[NA]</text>
<text text-anchor="end" x="1481" y="-760.85" font-family="Times,serif" font-size="20.00">[[&#39;</text>
<text text-anchor="middle" x="1178.5" y="-738.85" font-family="Times,serif" font-size="20.00">cross&#45;origin&#45;opener&#45;policy&#39;, &#39;same&#45;origin&#39;]]</text>
<text text-anchor="end" x="1481" y="-716.85" font-family="Times,serif" font-size="20.00">[[&#39;</text>
<text text-anchor="middle" x="1178.5" y="-694.85" font-family="Times,serif" font-size="20.00">cross&#45;origin&#45;opener&#45;policy&#39;, &#39;same&#45;origin&#45;allow&#45;popups&#39;]]</text>
<text text-anchor="middle" x="1178.5" y="-672.85" font-family="Times,serif" font-size="20.00">[[&#39;cross&#45;origin&#45;opener&#45;policy &#160;&#39;, &#39;same&#45;origin&#39;]]</text>
<text text-anchor="middle" x="1178.5" y="-650.85" font-family="Times,serif" font-size="20.00">[[&#39;cross&#45;origin&#45;opener&#45;policy &#160;&#39;, &#39;same&#45;origin&#45;allow&#45;popups&#39;]]</text>
<text text-anchor="middle" x="1178.5" y="-628.85" font-family="Times,serif" font-size="20.00">[[&#39;cross&#45;origin&#45;opener&#45;policy &#39;, &#39;same&#45;origin&#39;]]</text>
<text text-anchor="middle" x="1178.5" y="-606.85" font-family="Times,serif" font-size="20.00">[[&#39;cross&#45;origin&#45;opener&#45;policy &#39;, &#39;same&#45;origin&#45;allow&#45;popups&#39;]]</text>
<text text-anchor="middle" x="1178.5" y="-584.85" font-family="Times,serif" font-size="20.00">[[&#39;cross&#45;origin&#45;opener&#45;policy&#39;, &#39;same&#45;origin</text>
<text text-anchor="middle" x="1178.5" y="-562.85" font-family="Times,serif" font-size="20.00">&#39;]]</text>
<text text-anchor="middle" x="1178.5" y="-540.85" font-family="Times,serif" font-size="20.00">[[&#39;cross&#45;origin&#45;opener&#45;policyt&#39;, &#39;same&#45;origin&#39;]]</text>
<text text-anchor="middle" x="1178.5" y="-518.85" font-family="Times,serif" font-size="20.00">[[&#39;cross&#45;origin&#45;opener&#45;policyt&#39;, &#39;same&#45;origin&#45;allow&#45;popups&#39;]]</text>
</g>
<!-- SG_0_Node_5 -->
<g id="node9" class="node">
<title>SG_0_Node_5</title>
<polygon fill="none" stroke="black" points="1568.5,-494.85 1467.5,-494.85 1467.5,-458.85 1568.5,-458.85 1568.5,-494.85"/>
<text text-anchor="middle" x="1518" y="-471.85" font-family="Times,serif" font-size="20.00">browser</text>
</g>
<!-- SG_0_Node_3&#45;&gt;SG_0_Node_5 -->
<g id="edge6" class="edge">
<title>SG_0_Node_3&#45;&gt;SG_0_Node_5</title>
<path fill="none" stroke="black" d="M1316.55,-835.03C1378.22,-831.65 1462.5,-822.68 1485,-798.85 1562.1,-717.19 1538.69,-566.59 1524.9,-505.09"/>
<polygon fill="black" stroke="black" points="1528.23,-503.95 1522.54,-495.01 1521.41,-505.54 1528.23,-503.95"/>
<text text-anchor="middle" x="1825.5" y="-749.85" font-family="Times,serif" font-size="20.00">[[&#39;</text>
<text text-anchor="middle" x="1825.5" y="-727.85" font-family="Times,serif" font-size="20.00">cross&#45;origin&#45;opener&#45;policy&#39;, &#39;same&#45;origin&#39;]]</text>
<text text-anchor="middle" x="1825.5" y="-705.85" font-family="Times,serif" font-size="20.00">[[&#39;</text>
<text text-anchor="middle" x="1825.5" y="-683.85" font-family="Times,serif" font-size="20.00">cross&#45;origin&#45;opener&#45;policy&#39;, &#39;same&#45;origin&#45;allow&#45;popups&#39;]]</text>
<text text-anchor="middle" x="1825.5" y="-661.85" font-family="Times,serif" font-size="20.00">[[&#39;</text>
<text text-anchor="middle" x="1825.5" y="-639.85" font-family="Times,serif" font-size="20.00">cross&#45;origin&#45;opener&#45;policy&#39;, &#39;unsafe&#45;none&#39;]]</text>
<text text-anchor="middle" x="1825.5" y="-617.85" font-family="Times,serif" font-size="20.00">[[&#39;cross&#45;origin&#45;opener&#45;policy&#39;, &#39;same&#45;origin&#45;allow&#45;popups</text>
<text text-anchor="middle" x="1825.5" y="-595.85" font-family="Times,serif" font-size="20.00">&#39;]]</text>
<text text-anchor="middle" x="1825.5" y="-573.85" font-family="Times,serif" font-size="20.00">[[&#39;cross&#45;origin&#45;opener&#45;policy&#39;, &#39;unsafe&#45;none</text>
<text text-anchor="middle" x="1825.5" y="-551.85" font-family="Times,serif" font-size="20.00">&#39;]]</text>
</g>
<!-- SG_0_Node_6 -->
<g id="node10" class="node">
<title>SG_0_Node_6</title>
<polygon fill="none" stroke="black" points="467.5,-375.64 330.5,-375.64 330.5,-339.64 467.5,-339.64 467.5,-375.64"/>
<text text-anchor="middle" x="399" y="-352.64" font-family="Times,serif" font-size="20.00">raw_header</text>
</g>
<!-- SG_0_Node_4&#45;&gt;SG_0_Node_6 -->
<g id="edge9" class="edge">
<title>SG_0_Node_4&#45;&gt;SG_0_Node_6</title>
<path fill="none" stroke="black" d="M820.17,-475.26C708.22,-473.48 447.94,-466.61 418,-440.85 402.5,-427.52 398.25,-404.28 397.6,-385.9"/>
<polygon fill="black" stroke="black" points="401.1,-385.75 397.57,-375.76 394.1,-385.77 401.1,-385.75"/>
<text text-anchor="middle" x="642.5" y="-424.85" font-family="Times,serif" font-size="20.00">firefox Ubuntu 22.04 119 selenium headless</text>
<text text-anchor="middle" x="642.5" y="-402.85" font-family="Times,serif" font-size="20.00">firefox Ubuntu 22.04 119 selenium xvfb</text>
</g>
<!-- SG_0_Node_7 -->
<g id="node11" class="node">
<title>SG_0_Node_7</title>
<polygon fill="none" stroke="black" points="1192.5,-375.64 1055.5,-375.64 1055.5,-339.64 1192.5,-339.64 1192.5,-375.64"/>
<text text-anchor="middle" x="1124" y="-352.64" font-family="Times,serif" font-size="20.00">raw_header</text>
</g>
<!-- SG_0_Node_4&#45;&gt;SG_0_Node_7 -->
<g id="edge10" class="edge">
<title>SG_0_Node_4&#45;&gt;SG_0_Node_7</title>
<path fill="none" stroke="black" d="M870.03,-458.68C870.02,-440.59 873.05,-412.59 890,-396.85 912.21,-376.23 986.27,-366.69 1045.2,-362.31"/>
<polygon fill="black" stroke="black" points="1045.53,-365.79 1055.26,-361.6 1045.04,-358.81 1045.53,-365.79"/>
<text text-anchor="middle" x="1202" y="-413.85" font-family="Times,serif" font-size="20.00">brave Ubuntu 22.04 1.60.114 (119.0.6045.124) selenium xvfb</text>
</g>
<!-- SG_0_Node_11 -->
<g id="node12" class="node">
<title>SG_0_Node_11</title>
<ellipse fill="none" stroke="black" cx="1518" cy="-357.64" rx="33.88" ry="21.43"/>
<text text-anchor="middle" x="1518" y="-352.64" font-family="Times,serif" font-size="20.00">0.0</text>
</g>
<!-- SG_0_Node_5&#45;&gt;SG_0_Node_11 -->
<g id="edge7" class="edge">
<title>SG_0_Node_5&#45;&gt;SG_0_Node_11</title>
<path fill="none" stroke="black" d="M1518,-458.81C1518,-440.58 1518,-411.31 1518,-389.11"/>
<polygon fill="black" stroke="black" points="1521.5,-388.85 1518,-378.85 1514.5,-388.85 1521.5,-388.85"/>
<text text-anchor="middle" x="1830" y="-413.85" font-family="Times,serif" font-size="20.00">brave Ubuntu 22.04 1.60.114 (119.0.6045.124) selenium xvfb</text>
</g>
<!-- SG_0_Node_12 -->
<g id="node13" class="node">
<title>SG_0_Node_12</title>
<ellipse fill="none" stroke="black" cx="2165" cy="-357.64" rx="33.88" ry="21.43"/>
<text text-anchor="middle" x="2165" y="-352.64" font-family="Times,serif" font-size="20.00">1.0</text>
</g>
<!-- SG_0_Node_5&#45;&gt;SG_0_Node_12 -->
<g id="edge8" class="edge">
<title>SG_0_Node_5&#45;&gt;SG_0_Node_12</title>
<path fill="none" stroke="black" d="M1568.5,-476.37C1709.32,-477.34 2098.89,-476.72 2143,-440.85 2158.14,-428.54 2163.52,-407.05 2165.17,-389.13"/>
<polygon fill="black" stroke="black" points="2168.67,-389.27 2165.76,-379.08 2161.68,-388.86 2168.67,-389.27"/>
<text text-anchor="middle" x="2388.5" y="-424.85" font-family="Times,serif" font-size="20.00">firefox Ubuntu 22.04 119 selenium headless</text>
<text text-anchor="middle" x="2388.5" y="-402.85" font-family="Times,serif" font-size="20.00">firefox Ubuntu 22.04 119 selenium xvfb</text>
</g>
<!-- SG_0_Node_13 -->
<g id="node14" class="node">
<title>SG_0_Node_13</title>
<ellipse fill="none" stroke="black" cx="50" cy="-37.21" rx="33.88" ry="21.43"/>
<text text-anchor="middle" x="50" y="-32.21" font-family="Times,serif" font-size="20.00">0.0</text>
</g>
<!-- SG_0_Node_6&#45;&gt;SG_0_Node_13 -->
<g id="edge13" class="edge">
<title>SG_0_Node_6&#45;&gt;SG_0_Node_13</title>
<path fill="none" stroke="black" d="M330.13,-354.2C231.06,-349.98 58.07,-339.63 39,-318.43 -24.12,-248.25 14.67,-123.67 37.21,-67.32"/>
<polygon fill="black" stroke="black" points="40.51,-68.52 41.07,-57.94 34.03,-65.86 40.51,-68.52"/>
<text text-anchor="middle" x="341.5" y="-302.43" font-family="Times,serif" font-size="20.00">[NA]</text>
<text text-anchor="end" x="644" y="-280.43" font-family="Times,serif" font-size="20.00">[[&#39;</text>
<text text-anchor="middle" x="341.5" y="-258.43" font-family="Times,serif" font-size="20.00">cross&#45;origin&#45;opener&#45;policy&#39;, &#39;same&#45;origin&#39;]]</text>
<text text-anchor="end" x="644" y="-236.43" font-family="Times,serif" font-size="20.00">[[&#39;</text>
<text text-anchor="middle" x="341.5" y="-214.43" font-family="Times,serif" font-size="20.00">cross&#45;origin&#45;opener&#45;policy&#39;, &#39;same&#45;origin&#45;allow&#45;popups&#39;]]</text>
<text text-anchor="middle" x="341.5" y="-192.43" font-family="Times,serif" font-size="20.00">[[&#39;cross&#45;origin&#45;opener&#45;policy &#160;&#39;, &#39;same&#45;origin&#39;]]</text>
<text text-anchor="middle" x="341.5" y="-170.43" font-family="Times,serif" font-size="20.00">[[&#39;cross&#45;origin&#45;opener&#45;policy &#160;&#39;, &#39;same&#45;origin&#45;allow&#45;popups&#39;]]</text>
<text text-anchor="middle" x="341.5" y="-148.43" font-family="Times,serif" font-size="20.00">[[&#39;cross&#45;origin&#45;opener&#45;policy &#39;, &#39;same&#45;origin&#39;]]</text>
<text text-anchor="middle" x="341.5" y="-126.43" font-family="Times,serif" font-size="20.00">[[&#39;cross&#45;origin&#45;opener&#45;policy &#39;, &#39;same&#45;origin&#45;allow&#45;popups&#39;]]</text>
<text text-anchor="middle" x="341.5" y="-104.43" font-family="Times,serif" font-size="20.00">[[&#39;cross&#45;origin&#45;opener&#45;policyt&#39;, &#39;same&#45;origin&#39;]]</text>
<text text-anchor="middle" x="341.5" y="-82.43" font-family="Times,serif" font-size="20.00">[[&#39;cross&#45;origin&#45;opener&#45;policyt&#39;, &#39;same&#45;origin&#45;allow&#45;popups&#39;]]</text>
</g>
<!-- SG_0_Node_14 -->
<g id="node15" class="node">
<title>SG_0_Node_14</title>
<ellipse fill="none" stroke="black" cx="670" cy="-37.21" rx="33.88" ry="21.43"/>
<text text-anchor="middle" x="670" y="-32.21" font-family="Times,serif" font-size="20.00">1.0</text>
</g>
<!-- SG_0_Node_6&#45;&gt;SG_0_Node_14 -->
<g id="edge14" class="edge">
<title>SG_0_Node_6&#45;&gt;SG_0_Node_14</title>
<path fill="none" stroke="black" d="M467.74,-355.36C532.88,-352.58 624.19,-344.06 648,-318.43 681.03,-282.86 676.01,-133.37 672.13,-68.48"/>
<polygon fill="black" stroke="black" points="675.62,-68.23 671.5,-58.47 668.64,-68.67 675.62,-68.23"/>
<text text-anchor="middle" x="889.5" y="-203.43" font-family="Times,serif" font-size="20.00">[[&#39;cross&#45;origin&#45;opener&#45;policy&#39;, &#39;same&#45;origin</text>
<text text-anchor="middle" x="889.5" y="-181.43" font-family="Times,serif" font-size="20.00">&#39;]]</text>
</g>
<!-- SG_0_Node_15 -->
<g id="node16" class="node">
<title>SG_0_Node_15</title>
<ellipse fill="none" stroke="black" cx="1124" cy="-37.21" rx="33.88" ry="21.43"/>
<text text-anchor="middle" x="1124" y="-32.21" font-family="Times,serif" font-size="20.00">0.0</text>
</g>
<!-- SG_0_Node_7&#45;&gt;SG_0_Node_15 -->
<g id="edge11" class="edge">
<title>SG_0_Node_7&#45;&gt;SG_0_Node_15</title>
<path fill="none" stroke="black" d="M1124,-339.52C1124,-288.12 1124,-134.67 1124,-68.8"/>
<polygon fill="black" stroke="black" points="1127.5,-68.65 1124,-58.65 1120.5,-68.65 1127.5,-68.65"/>
<text text-anchor="middle" x="1339.5" y="-203.43" font-family="Times,serif" font-size="20.00">[[&#39;cross&#45;origin&#45;opener&#45;policy&#39;, &#39;same&#45;origin</text>
<text text-anchor="middle" x="1339.5" y="-181.43" font-family="Times,serif" font-size="20.00">&#39;]]</text>
</g>
<!-- SG_0_Node_16 -->
<g id="node17" class="node">
<title>SG_0_Node_16</title>
<ellipse fill="none" stroke="black" cx="1578" cy="-37.21" rx="33.88" ry="21.43"/>
<text text-anchor="middle" x="1578" y="-32.21" font-family="Times,serif" font-size="20.00">1.0</text>
</g>
<!-- SG_0_Node_7&#45;&gt;SG_0_Node_16 -->
<g id="edge12" class="edge">
<title>SG_0_Node_7&#45;&gt;SG_0_Node_16</title>
<path fill="none" stroke="black" d="M1192.83,-352.86C1311.55,-346.03 1543.42,-331.13 1556,-318.43 1622.42,-251.34 1601.02,-125.63 1586.6,-68.2"/>
<polygon fill="black" stroke="black" points="1589.92,-67.09 1584.01,-58.3 1583.15,-68.87 1589.92,-67.09"/>
<text text-anchor="middle" x="1903.5" y="-302.43" font-family="Times,serif" font-size="20.00">[NA]</text>
<text text-anchor="end" x="2206" y="-280.43" font-family="Times,serif" font-size="20.00">[[&#39;</text>
<text text-anchor="middle" x="1903.5" y="-258.43" font-family="Times,serif" font-size="20.00">cross&#45;origin&#45;opener&#45;policy&#39;, &#39;same&#45;origin&#39;]]</text>
<text text-anchor="end" x="2206" y="-236.43" font-family="Times,serif" font-size="20.00">[[&#39;</text>
<text text-anchor="middle" x="1903.5" y="-214.43" font-family="Times,serif" font-size="20.00">cross&#45;origin&#45;opener&#45;policy&#39;, &#39;same&#45;origin&#45;allow&#45;popups&#39;]]</text>
<text text-anchor="middle" x="1903.5" y="-192.43" font-family="Times,serif" font-size="20.00">[[&#39;cross&#45;origin&#45;opener&#45;policy &#160;&#39;, &#39;same&#45;origin&#39;]]</text>
<text text-anchor="middle" x="1903.5" y="-170.43" font-family="Times,serif" font-size="20.00">[[&#39;cross&#45;origin&#45;opener&#45;policy &#160;&#39;, &#39;same&#45;origin&#45;allow&#45;popups&#39;]]</text>
<text text-anchor="middle" x="1903.5" y="-148.43" font-family="Times,serif" font-size="20.00">[[&#39;cross&#45;origin&#45;opener&#45;policy &#39;, &#39;same&#45;origin&#39;]]</text>
<text text-anchor="middle" x="1903.5" y="-126.43" font-family="Times,serif" font-size="20.00">[[&#39;cross&#45;origin&#45;opener&#45;policy &#39;, &#39;same&#45;origin&#45;allow&#45;popups&#39;]]</text>
<text text-anchor="middle" x="1903.5" y="-104.43" font-family="Times,serif" font-size="20.00">[[&#39;cross&#45;origin&#45;opener&#45;policyt&#39;, &#39;same&#45;origin&#39;]]</text>
<text text-anchor="middle" x="1903.5" y="-82.43" font-family="Times,serif" font-size="20.00">[[&#39;cross&#45;origin&#45;opener&#45;policyt&#39;, &#39;same&#45;origin&#45;allow&#45;popups&#39;]]</text>
</g>
<!-- SG_1_Node_0 -->
<g id="node18" class="node">
<title>SG_1_Node_0</title>
<polygon fill="none" stroke="black" points="3789.5,-1333.28 3652.5,-1333.28 3652.5,-1297.28 3789.5,-1297.28 3789.5,-1333.28"/>
<text text-anchor="middle" x="3721" y="-1310.28" font-family="Times,serif" font-size="20.00">raw_header</text>
</g>
<!-- SG_1_Node_1 -->
<g id="node19" class="node">
<title>SG_1_Node_1</title>
<polygon fill="none" stroke="black" points="3448.5,-1085.28 3347.5,-1085.28 3347.5,-1049.28 3448.5,-1049.28 3448.5,-1085.28"/>
<text text-anchor="middle" x="3398" y="-1062.28" font-family="Times,serif" font-size="20.00">browser</text>
</g>
<!-- SG_1_Node_0&#45;&gt;SG_1_Node_1 -->
<g id="edge17" class="edge">
<title>SG_1_Node_0&#45;&gt;SG_1_Node_1</title>
<path fill="none" stroke="black" d="M3698.54,-1297.18C3642,-1254.11 3493.65,-1141.12 3428.93,-1091.84"/>
<polygon fill="black" stroke="black" points="3430.81,-1088.87 3420.74,-1085.6 3426.57,-1094.44 3430.81,-1088.87"/>
<text text-anchor="middle" x="3719.5" y="-1197.28" font-family="Times,serif" font-size="20.00">[NA]</text>
<text text-anchor="middle" x="3719.5" y="-1175.28" font-family="Times,serif" font-size="20.00">14 levels</text>
</g>
<!-- SG_1_Node_2 -->
<g id="node20" class="node">
<title>SG_1_Node_2</title>
<polygon fill="none" stroke="black" points="4095.5,-1085.28 3994.5,-1085.28 3994.5,-1049.28 4095.5,-1049.28 4095.5,-1085.28"/>
<text text-anchor="middle" x="4045" y="-1062.28" font-family="Times,serif" font-size="20.00">browser</text>
</g>
<!-- SG_1_Node_0&#45;&gt;SG_1_Node_2 -->
<g id="edge18" class="edge">
<title>SG_1_Node_0&#45;&gt;SG_1_Node_2</title>
<path fill="none" stroke="black" d="M3745.01,-1296.94C3752.7,-1291.34 3761.23,-1285.08 3769,-1279.28 3859.19,-1211.94 3964.55,-1130.65 4015.04,-1091.54"/>
<polygon fill="black" stroke="black" points="4017.19,-1094.3 4022.95,-1085.41 4012.9,-1088.77 4017.19,-1094.3"/>
<text text-anchor="middle" x="4459" y="-1263.28" font-family="Times,serif" font-size="20.00">[[&#39;cross&#45;origin&#45;opener&#45;policy&#39;, &#39;&#39;], [&#39;cross&#45;origin&#45;opener&#45;policy&#39;, &#39;same&#45;origin&#39;]]</text>
<text text-anchor="middle" x="4459" y="-1241.28" font-family="Times,serif" font-size="20.00">[[&#39;cross&#45;origin&#45;opener&#45;policy&#39;, &#39;&#39;], [&#39;cross&#45;origin&#45;opener&#45;policy&#39;, &#39;same&#45;origin&#45;allow&#45;popups&#39;]]</text>
<text text-anchor="middle" x="4459" y="-1219.28" font-family="Times,serif" font-size="20.00">[[&#39;cross&#45;origin&#45;opener&#45;policy&#39;, &#39;same&#45;origin&#39;], [&#39;cross&#45;origin&#45;opener&#45;policy&#39;, &#39;&#39;]]</text>
<text text-anchor="middle" x="4459" y="-1197.28" font-family="Times,serif" font-size="20.00">[[&#39;cross&#45;origin&#45;opener&#45;policy&#39;, &#39;same&#45;origin&#45;allow&#45;popups&#39;], [&#39;cross&#45;origin&#45;opener&#45;policy&#39;, &#39;&#39;]]</text>
<text text-anchor="end" x="4919" y="-1175.28" font-family="Times,serif" font-size="20.00">[[&#39;cross&#45;origin&#45;opener&#45;policy</text>
<text text-anchor="middle" x="4459" y="-1153.28" font-family="Times,serif" font-size="20.00">&#39;, &#39;same&#45;origin&#39;]]</text>
<text text-anchor="end" x="4919" y="-1131.28" font-family="Times,serif" font-size="20.00">[[&#39;cross&#45;origin&#45;opener&#45;policy</text>
<text text-anchor="middle" x="4459" y="-1109.28" font-family="Times,serif" font-size="20.00">&#39;, &#39;same&#45;origin&#45;allow&#45;popups&#39;]]</text>
</g>
<!-- SG_1_Node_8 -->
<g id="node21" class="node">
<title>SG_1_Node_8</title>
<ellipse fill="none" stroke="black" cx="2672" cy="-838.07" rx="33.88" ry="21.43"/>
<text text-anchor="middle" x="2672" y="-833.07" font-family="Times,serif" font-size="20.00">0.0</text>
</g>
<!-- SG_1_Node_1&#45;&gt;SG_1_Node_8 -->
<g id="edge21" class="edge">
<title>SG_1_Node_1&#45;&gt;SG_1_Node_8</title>
<path fill="none" stroke="black" d="M3347.33,-1065.71C3186.75,-1063.64 2698.35,-1055.41 2675,-1031.28 2633.3,-988.19 2648.66,-910.89 2661.52,-868.64"/>
<polygon fill="black" stroke="black" points="2664.91,-869.53 2664.62,-858.94 2658.24,-867.4 2664.91,-869.53"/>
<text text-anchor="middle" x="3034.5" y="-1004.28" font-family="Times,serif" font-size="20.00">[NA]</text>
<text text-anchor="middle" x="3034.5" y="-982.28" font-family="Times,serif" font-size="20.00">brave Ubuntu 22.04 1.60.114 (119.0.6045.124) selenium headless&#45;new</text>
<text text-anchor="middle" x="3034.5" y="-960.28" font-family="Times,serif" font-size="20.00">chrome Ubuntu 22.04 119 selenium headless&#45;new</text>
<text text-anchor="middle" x="3034.5" y="-938.28" font-family="Times,serif" font-size="20.00">chrome Ubuntu 22.04 119 selenium xvfb</text>
<text text-anchor="middle" x="3034.5" y="-916.28" font-family="Times,serif" font-size="20.00">edge Ubuntu 22.04 119 selenium headless&#45;new</text>
<text text-anchor="middle" x="3034.5" y="-894.28" font-family="Times,serif" font-size="20.00">edge Ubuntu 22.04 119 selenium xvfb</text>
</g>
<!-- SG_1_Node_3 -->
<g id="node22" class="node">
<title>SG_1_Node_3</title>
<polygon fill="none" stroke="black" points="3466.5,-856.07 3329.5,-856.07 3329.5,-820.07 3466.5,-820.07 3466.5,-856.07"/>
<text text-anchor="middle" x="3398" y="-833.07" font-family="Times,serif" font-size="20.00">raw_header</text>
</g>
<!-- SG_1_Node_1&#45;&gt;SG_1_Node_3 -->
<g id="edge22" class="edge">
<title>SG_1_Node_1&#45;&gt;SG_1_Node_3</title>
<path fill="none" stroke="black" d="M3398,-1049.2C3398,-1010.14 3398,-913.98 3398,-866.5"/>
<polygon fill="black" stroke="black" points="3401.5,-866.34 3398,-856.34 3394.5,-866.34 3401.5,-866.34"/>
<text text-anchor="middle" x="3710" y="-971.28" font-family="Times,serif" font-size="20.00">brave Ubuntu 22.04 1.60.114 (119.0.6045.124) selenium xvfb</text>
<text text-anchor="middle" x="3710" y="-949.28" font-family="Times,serif" font-size="20.00">firefox Ubuntu 22.04 119 selenium headless</text>
<text text-anchor="middle" x="3710" y="-927.28" font-family="Times,serif" font-size="20.00">firefox Ubuntu 22.04 119 selenium xvfb</text>
</g>
<!-- SG_1_Node_9 -->
<g id="node23" class="node">
<title>SG_1_Node_9</title>
<ellipse fill="none" stroke="black" cx="4045" cy="-838.07" rx="33.88" ry="21.43"/>
<text text-anchor="middle" x="4045" y="-833.07" font-family="Times,serif" font-size="20.00">0.0</text>
</g>
<!-- SG_1_Node_2&#45;&gt;SG_1_Node_9 -->
<g id="edge19" class="edge">
<title>SG_1_Node_2&#45;&gt;SG_1_Node_9</title>
<path fill="none" stroke="black" d="M4045,-1049.2C4045,-1011.01 4045,-918.27 4045,-869.77"/>
<polygon fill="black" stroke="black" points="4048.5,-869.57 4045,-859.57 4041.5,-869.57 4048.5,-869.57"/>
<text text-anchor="middle" x="4269.5" y="-960.28" font-family="Times,serif" font-size="20.00">firefox Ubuntu 22.04 119 selenium headless</text>
<text text-anchor="middle" x="4269.5" y="-938.28" font-family="Times,serif" font-size="20.00">firefox Ubuntu 22.04 119 selenium xvfb</text>
</g>
<!-- SG_1_Node_10 -->
<g id="node24" class="node">
<title>SG_1_Node_10</title>
<ellipse fill="none" stroke="black" cx="4517" cy="-838.07" rx="33.88" ry="21.43"/>
<text text-anchor="middle" x="4517" y="-833.07" font-family="Times,serif" font-size="20.00">1.0</text>
</g>
<!-- SG_1_Node_2&#45;&gt;SG_1_Node_10 -->
<g id="edge20" class="edge">
<title>SG_1_Node_2&#45;&gt;SG_1_Node_10</title>
<path fill="none" stroke="black" d="M4095.71,-1065.9C4207.36,-1064.56 4466.76,-1058.51 4495,-1031.28 4538.35,-989.47 4531.77,-911.94 4523.93,-869.23"/>
<polygon fill="black" stroke="black" points="4527.32,-868.3 4521.94,-859.16 4520.45,-869.65 4527.32,-868.3"/>
<text text-anchor="middle" x="4888.5" y="-1015.28" font-family="Times,serif" font-size="20.00">[NA]</text>
<text text-anchor="middle" x="4888.5" y="-993.28" font-family="Times,serif" font-size="20.00">brave Ubuntu 22.04 1.60.114 (119.0.6045.124) selenium headless&#45;new</text>
<text text-anchor="middle" x="4888.5" y="-971.28" font-family="Times,serif" font-size="20.00">brave Ubuntu 22.04 1.60.114 (119.0.6045.124) selenium xvfb</text>
<text text-anchor="middle" x="4888.5" y="-949.28" font-family="Times,serif" font-size="20.00">chrome Ubuntu 22.04 119 selenium headless&#45;new</text>
<text text-anchor="middle" x="4888.5" y="-927.28" font-family="Times,serif" font-size="20.00">chrome Ubuntu 22.04 119 selenium xvfb</text>
<text text-anchor="middle" x="4888.5" y="-905.28" font-family="Times,serif" font-size="20.00">edge Ubuntu 22.04 119 selenium headless&#45;new</text>
<text text-anchor="middle" x="4888.5" y="-883.28" font-family="Times,serif" font-size="20.00">edge Ubuntu 22.04 119 selenium xvfb</text>
</g>
<!-- SG_1_Node_4 -->
<g id="node25" class="node">
<title>SG_1_Node_4</title>
<polygon fill="none" stroke="black" points="3186.5,-494.85 3085.5,-494.85 3085.5,-458.85 3186.5,-458.85 3186.5,-494.85"/>
<text text-anchor="middle" x="3136" y="-471.85" font-family="Times,serif" font-size="20.00">browser</text>
</g>
<!-- SG_1_Node_3&#45;&gt;SG_1_Node_4 -->
<g id="edge23" class="edge">
<title>SG_1_Node_3&#45;&gt;SG_1_Node_4</title>
<path fill="none" stroke="black" d="M3329.38,-834.09C3271.82,-830.07 3195.79,-820.68 3175,-798.85 3097.39,-717.36 3117.41,-566.66 3129.75,-505.11"/>
<polygon fill="black" stroke="black" points="3133.24,-505.53 3131.87,-495.03 3126.39,-504.09 3133.24,-505.53"/>
<text text-anchor="middle" x="3461.5" y="-749.85" font-family="Times,serif" font-size="20.00">[[&#39;</text>
<text text-anchor="middle" x="3461.5" y="-727.85" font-family="Times,serif" font-size="20.00">cross&#45;origin&#45;opener&#45;policy&#39;, &#39;same&#45;origin&#39;]]</text>
<text text-anchor="middle" x="3461.5" y="-705.85" font-family="Times,serif" font-size="20.00">[[&#39;</text>
<text text-anchor="middle" x="3461.5" y="-683.85" font-family="Times,serif" font-size="20.00">cross&#45;origin&#45;opener&#45;policy&#39;, &#39;same&#45;origin&#45;allow&#45;popups&#39;]]</text>
<text text-anchor="middle" x="3461.5" y="-661.85" font-family="Times,serif" font-size="20.00">[[&#39;</text>
<text text-anchor="middle" x="3461.5" y="-639.85" font-family="Times,serif" font-size="20.00">cross&#45;origin&#45;opener&#45;policy&#39;, &#39;unsafe&#45;none&#39;]]</text>
<text text-anchor="middle" x="3461.5" y="-617.85" font-family="Times,serif" font-size="20.00">[[&#39;cross&#45;origin&#45;opener&#45;policy&#39;, &#39;same&#45;origin&#45;allow&#45;popups</text>
<text text-anchor="middle" x="3461.5" y="-595.85" font-family="Times,serif" font-size="20.00">&#39;]]</text>
<text text-anchor="middle" x="3461.5" y="-573.85" font-family="Times,serif" font-size="20.00">[[&#39;cross&#45;origin&#45;opener&#45;policy&#39;, &#39;unsafe&#45;none</text>
<text text-anchor="middle" x="3461.5" y="-551.85" font-family="Times,serif" font-size="20.00">&#39;]]</text>
</g>
<!-- SG_1_Node_5 -->
<g id="node26" class="node">
<title>SG_1_Node_5</title>
<polygon fill="none" stroke="black" points="3833.5,-494.85 3732.5,-494.85 3732.5,-458.85 3833.5,-458.85 3833.5,-494.85"/>
<text text-anchor="middle" x="3783" y="-471.85" font-family="Times,serif" font-size="20.00">browser</text>
</g>
<!-- SG_1_Node_3&#45;&gt;SG_1_Node_5 -->
<g id="edge24" class="edge">
<title>SG_1_Node_3&#45;&gt;SG_1_Node_5</title>
<path fill="none" stroke="black" d="M3466.68,-834.12C3562.96,-829.32 3728.52,-818.33 3748,-798.85 3827.62,-719.22 3803.84,-566.91 3789.91,-505.01"/>
<polygon fill="black" stroke="black" points="3793.3,-504.15 3787.61,-495.21 3786.48,-505.75 3793.3,-504.15"/>
<text text-anchor="middle" x="4106.5" y="-782.85" font-family="Times,serif" font-size="20.00">[NA]</text>
<text text-anchor="end" x="4409" y="-760.85" font-family="Times,serif" font-size="20.00">[[&#39;</text>
<text text-anchor="middle" x="4106.5" y="-738.85" font-family="Times,serif" font-size="20.00">cross&#45;origin&#45;opener&#45;policy&#39;, &#39;same&#45;origin&#39;]]</text>
<text text-anchor="end" x="4409" y="-716.85" font-family="Times,serif" font-size="20.00">[[&#39;</text>
<text text-anchor="middle" x="4106.5" y="-694.85" font-family="Times,serif" font-size="20.00">cross&#45;origin&#45;opener&#45;policy&#39;, &#39;same&#45;origin&#45;allow&#45;popups&#39;]]</text>
<text text-anchor="middle" x="4106.5" y="-672.85" font-family="Times,serif" font-size="20.00">[[&#39;cross&#45;origin&#45;opener&#45;policy &#160;&#39;, &#39;same&#45;origin&#39;]]</text>
<text text-anchor="middle" x="4106.5" y="-650.85" font-family="Times,serif" font-size="20.00">[[&#39;cross&#45;origin&#45;opener&#45;policy &#160;&#39;, &#39;same&#45;origin&#45;allow&#45;popups&#39;]]</text>
<text text-anchor="middle" x="4106.5" y="-628.85" font-family="Times,serif" font-size="20.00">[[&#39;cross&#45;origin&#45;opener&#45;policy &#39;, &#39;same&#45;origin&#39;]]</text>
<text text-anchor="middle" x="4106.5" y="-606.85" font-family="Times,serif" font-size="20.00">[[&#39;cross&#45;origin&#45;opener&#45;policy &#39;, &#39;same&#45;origin&#45;allow&#45;popups&#39;]]</text>
<text text-anchor="middle" x="4106.5" y="-584.85" font-family="Times,serif" font-size="20.00">[[&#39;cross&#45;origin&#45;opener&#45;policy&#39;, &#39;same&#45;origin</text>
<text text-anchor="middle" x="4106.5" y="-562.85" font-family="Times,serif" font-size="20.00">&#39;]]</text>
<text text-anchor="middle" x="4106.5" y="-540.85" font-family="Times,serif" font-size="20.00">[[&#39;cross&#45;origin&#45;opener&#45;policyt&#39;, &#39;same&#45;origin&#39;]]</text>
<text text-anchor="middle" x="4106.5" y="-518.85" font-family="Times,serif" font-size="20.00">[[&#39;cross&#45;origin&#45;opener&#45;policyt&#39;, &#39;same&#45;origin&#45;allow&#45;popups&#39;]]</text>
</g>
<!-- SG_1_Node_11 -->
<g id="node27" class="node">
<title>SG_1_Node_11</title>
<ellipse fill="none" stroke="black" cx="2672" cy="-357.64" rx="33.88" ry="21.43"/>
<text text-anchor="middle" x="2672" y="-352.64" font-family="Times,serif" font-size="20.00">0.0</text>
</g>
<!-- SG_1_Node_4&#45;&gt;SG_1_Node_11 -->
<g id="edge31" class="edge">
<title>SG_1_Node_4&#45;&gt;SG_1_Node_11</title>
<path fill="none" stroke="black" d="M3085.41,-475.46C2973.33,-474.1 2711.73,-468.02 2683,-440.85 2669.4,-427.99 2666.77,-406.99 2667.49,-389.43"/>
<polygon fill="black" stroke="black" points="2671.01,-389.29 2668.29,-379.05 2664.03,-388.75 2671.01,-389.29"/>
<text text-anchor="middle" x="2907.5" y="-424.85" font-family="Times,serif" font-size="20.00">firefox Ubuntu 22.04 119 selenium headless</text>
<text text-anchor="middle" x="2907.5" y="-402.85" font-family="Times,serif" font-size="20.00">firefox Ubuntu 22.04 119 selenium xvfb</text>
</g>
<!-- SG_1_Node_12 -->
<g id="node28" class="node">
<title>SG_1_Node_12</title>
<ellipse fill="none" stroke="black" cx="3136" cy="-357.64" rx="33.88" ry="21.43"/>
<text text-anchor="middle" x="3136" y="-352.64" font-family="Times,serif" font-size="20.00">1.0</text>
</g>
<!-- SG_1_Node_4&#45;&gt;SG_1_Node_12 -->
<g id="edge32" class="edge">
<title>SG_1_Node_4&#45;&gt;SG_1_Node_12</title>
<path fill="none" stroke="black" d="M3136,-458.81C3136,-440.58 3136,-411.31 3136,-389.11"/>
<polygon fill="black" stroke="black" points="3139.5,-388.85 3136,-378.85 3132.5,-388.85 3139.5,-388.85"/>
<text text-anchor="middle" x="3448" y="-413.85" font-family="Times,serif" font-size="20.00">brave Ubuntu 22.04 1.60.114 (119.0.6045.124) selenium xvfb</text>
</g>
<!-- SG_1_Node_6 -->
<g id="node29" class="node">
<title>SG_1_Node_6</title>
<polygon fill="none" stroke="black" points="3791.5,-375.64 3654.5,-375.64 3654.5,-339.64 3791.5,-339.64 3791.5,-375.64"/>
<text text-anchor="middle" x="3723" y="-352.64" font-family="Times,serif" font-size="20.00">raw_header</text>
</g>
<!-- SG_1_Node_5&#45;&gt;SG_1_Node_6 -->
<g id="edge25" class="edge">
<title>SG_1_Node_5&#45;&gt;SG_1_Node_6</title>
<path fill="none" stroke="black" d="M3780.82,-458.85C3778.12,-442.15 3772.39,-416.42 3761,-396.85 3758.18,-392 3754.59,-387.32 3750.75,-383.01"/>
<polygon fill="black" stroke="black" points="3753.14,-380.44 3743.68,-375.66 3748.1,-385.3 3753.14,-380.44"/>
<text text-anchor="middle" x="4089" y="-413.85" font-family="Times,serif" font-size="20.00">brave Ubuntu 22.04 1.60.114 (119.0.6045.124) selenium xvfb</text>
</g>
<!-- SG_1_Node_7 -->
<g id="node30" class="node">
<title>SG_1_Node_7</title>
<polygon fill="none" stroke="black" points="4498.5,-375.64 4361.5,-375.64 4361.5,-339.64 4498.5,-339.64 4498.5,-375.64"/>
<text text-anchor="middle" x="4430" y="-352.64" font-family="Times,serif" font-size="20.00">raw_header</text>
</g>
<!-- SG_1_Node_5&#45;&gt;SG_1_Node_7 -->
<g id="edge26" class="edge">
<title>SG_1_Node_5&#45;&gt;SG_1_Node_7</title>
<path fill="none" stroke="black" d="M3833.7,-476.28C3974.11,-477 4360.56,-475.76 4405,-440.85 4421.45,-427.93 4427.38,-404.49 4429.38,-385.93"/>
<polygon fill="black" stroke="black" points="4432.87,-386.2 4430.14,-375.96 4425.89,-385.67 4432.87,-386.2"/>
<text text-anchor="middle" x="4651.5" y="-424.85" font-family="Times,serif" font-size="20.00">firefox Ubuntu 22.04 119 selenium headless</text>
<text text-anchor="middle" x="4651.5" y="-402.85" font-family="Times,serif" font-size="20.00">firefox Ubuntu 22.04 119 selenium xvfb</text>
</g>
<!-- SG_1_Node_13 -->
<g id="node31" class="node">
<title>SG_1_Node_13</title>
<ellipse fill="none" stroke="black" cx="3095" cy="-37.21" rx="33.88" ry="21.43"/>
<text text-anchor="middle" x="3095" y="-32.21" font-family="Times,serif" font-size="20.00">0.0</text>
</g>
<!-- SG_1_Node_6&#45;&gt;SG_1_Node_13 -->
<g id="edge29" class="edge">
<title>SG_1_Node_6&#45;&gt;SG_1_Node_13</title>
<path fill="none" stroke="black" d="M3654.23,-354.73C3498.9,-350.1 3132.9,-337.23 3114,-318.43 3047.13,-251.89 3070.48,-125.89 3085.87,-68.3"/>
<polygon fill="black" stroke="black" points="3089.33,-68.95 3088.63,-58.37 3082.58,-67.07 3089.33,-68.95"/>
<text text-anchor="middle" x="3416.5" y="-302.43" font-family="Times,serif" font-size="20.00">[NA]</text>
<text text-anchor="end" x="3719" y="-280.43" font-family="Times,serif" font-size="20.00">[[&#39;</text>
<text text-anchor="middle" x="3416.5" y="-258.43" font-family="Times,serif" font-size="20.00">cross&#45;origin&#45;opener&#45;policy&#39;, &#39;same&#45;origin&#39;]]</text>
<text text-anchor="end" x="3719" y="-236.43" font-family="Times,serif" font-size="20.00">[[&#39;</text>
<text text-anchor="middle" x="3416.5" y="-214.43" font-family="Times,serif" font-size="20.00">cross&#45;origin&#45;opener&#45;policy&#39;, &#39;same&#45;origin&#45;allow&#45;popups&#39;]]</text>
<text text-anchor="middle" x="3416.5" y="-192.43" font-family="Times,serif" font-size="20.00">[[&#39;cross&#45;origin&#45;opener&#45;policy &#160;&#39;, &#39;same&#45;origin&#39;]]</text>
<text text-anchor="middle" x="3416.5" y="-170.43" font-family="Times,serif" font-size="20.00">[[&#39;cross&#45;origin&#45;opener&#45;policy &#160;&#39;, &#39;same&#45;origin&#45;allow&#45;popups&#39;]]</text>
<text text-anchor="middle" x="3416.5" y="-148.43" font-family="Times,serif" font-size="20.00">[[&#39;cross&#45;origin&#45;opener&#45;policy &#39;, &#39;same&#45;origin&#39;]]</text>
<text text-anchor="middle" x="3416.5" y="-126.43" font-family="Times,serif" font-size="20.00">[[&#39;cross&#45;origin&#45;opener&#45;policy &#39;, &#39;same&#45;origin&#45;allow&#45;popups&#39;]]</text>
<text text-anchor="middle" x="3416.5" y="-104.43" font-family="Times,serif" font-size="20.00">[[&#39;cross&#45;origin&#45;opener&#45;policyt&#39;, &#39;same&#45;origin&#39;]]</text>
<text text-anchor="middle" x="3416.5" y="-82.43" font-family="Times,serif" font-size="20.00">[[&#39;cross&#45;origin&#45;opener&#45;policyt&#39;, &#39;same&#45;origin&#45;allow&#45;popups&#39;]]</text>
</g>
<!-- SG_1_Node_14 -->
<g id="node32" class="node">
<title>SG_1_Node_14</title>
<ellipse fill="none" stroke="black" cx="3723" cy="-37.21" rx="33.88" ry="21.43"/>
<text text-anchor="middle" x="3723" y="-32.21" font-family="Times,serif" font-size="20.00">1.0</text>
</g>
<!-- SG_1_Node_6&#45;&gt;SG_1_Node_14 -->
<g id="edge30" class="edge">
<title>SG_1_Node_6&#45;&gt;SG_1_Node_14</title>
<path fill="none" stroke="black" d="M3723,-339.52C3723,-288.12 3723,-134.67 3723,-68.8"/>
<polygon fill="black" stroke="black" points="3726.5,-68.65 3723,-58.65 3719.5,-68.65 3726.5,-68.65"/>
<text text-anchor="middle" x="3938.5" y="-203.43" font-family="Times,serif" font-size="20.00">[[&#39;cross&#45;origin&#45;opener&#45;policy&#39;, &#39;same&#45;origin</text>
<text text-anchor="middle" x="3938.5" y="-181.43" font-family="Times,serif" font-size="20.00">&#39;]]</text>
</g>
<!-- SG_1_Node_15 -->
<g id="node33" class="node">
<title>SG_1_Node_15</title>
<ellipse fill="none" stroke="black" cx="4177" cy="-37.21" rx="33.88" ry="21.43"/>
<text text-anchor="middle" x="4177" y="-32.21" font-family="Times,serif" font-size="20.00">0.0</text>
</g>
<!-- SG_1_Node_7&#45;&gt;SG_1_Node_15 -->
<g id="edge27" class="edge">
<title>SG_1_Node_7&#45;&gt;SG_1_Node_15</title>
<path fill="none" stroke="black" d="M4361.41,-356.12C4293.97,-353.98 4197.76,-346 4174,-318.43 4142.41,-281.77 4161.73,-132.89 4171.91,-68.32"/>
<polygon fill="black" stroke="black" points="4175.38,-68.79 4173.51,-58.36 4168.47,-67.67 4175.38,-68.79"/>
<text text-anchor="middle" x="4389.5" y="-203.43" font-family="Times,serif" font-size="20.00">[[&#39;cross&#45;origin&#45;opener&#45;policy&#39;, &#39;same&#45;origin</text>
<text text-anchor="middle" x="4389.5" y="-181.43" font-family="Times,serif" font-size="20.00">&#39;]]</text>
</g>
<!-- SG_1_Node_16 -->
<g id="node34" class="node">
<title>SG_1_Node_16</title>
<ellipse fill="none" stroke="black" cx="4631" cy="-37.21" rx="33.88" ry="21.43"/>
<text text-anchor="middle" x="4631" y="-32.21" font-family="Times,serif" font-size="20.00">1.0</text>
</g>
<!-- SG_1_Node_7&#45;&gt;SG_1_Node_16 -->
<g id="edge28" class="edge">
<title>SG_1_Node_7&#45;&gt;SG_1_Node_16</title>
<path fill="none" stroke="black" d="M4498.87,-350.4C4542.93,-344.88 4594.45,-335.04 4609,-318.43 4671.06,-247.59 4652.05,-124.31 4638.94,-67.91"/>
<polygon fill="black" stroke="black" points="4642.34,-67.08 4636.58,-58.19 4635.53,-68.73 4642.34,-67.08"/>
<text text-anchor="middle" x="4954.5" y="-302.43" font-family="Times,serif" font-size="20.00">[NA]</text>
<text text-anchor="end" x="5257" y="-280.43" font-family="Times,serif" font-size="20.00">[[&#39;</text>
<text text-anchor="middle" x="4954.5" y="-258.43" font-family="Times,serif" font-size="20.00">cross&#45;origin&#45;opener&#45;policy&#39;, &#39;same&#45;origin&#39;]]</text>
<text text-anchor="end" x="5257" y="-236.43" font-family="Times,serif" font-size="20.00">[[&#39;</text>
<text text-anchor="middle" x="4954.5" y="-214.43" font-family="Times,serif" font-size="20.00">cross&#45;origin&#45;opener&#45;policy&#39;, &#39;same&#45;origin&#45;allow&#45;popups&#39;]]</text>
<text text-anchor="middle" x="4954.5" y="-192.43" font-family="Times,serif" font-size="20.00">[[&#39;cross&#45;origin&#45;opener&#45;policy &#160;&#39;, &#39;same&#45;origin&#39;]]</text>
<text text-anchor="middle" x="4954.5" y="-170.43" font-family="Times,serif" font-size="20.00">[[&#39;cross&#45;origin&#45;opener&#45;policy &#160;&#39;, &#39;same&#45;origin&#45;allow&#45;popups&#39;]]</text>
<text text-anchor="middle" x="4954.5" y="-148.43" font-family="Times,serif" font-size="20.00">[[&#39;cross&#45;origin&#45;opener&#45;policy &#39;, &#39;same&#45;origin&#39;]]</text>
<text text-anchor="middle" x="4954.5" y="-126.43" font-family="Times,serif" font-size="20.00">[[&#39;cross&#45;origin&#45;opener&#45;policy &#39;, &#39;same&#45;origin&#45;allow&#45;popups&#39;]]</text>
<text text-anchor="middle" x="4954.5" y="-104.43" font-family="Times,serif" font-size="20.00">[[&#39;cross&#45;origin&#45;opener&#45;policyt&#39;, &#39;same&#45;origin&#39;]]</text>
<text text-anchor="middle" x="4954.5" y="-82.43" font-family="Times,serif" font-size="20.00">[[&#39;cross&#45;origin&#45;opener&#45;policyt&#39;, &#39;same&#45;origin&#45;allow&#45;popups&#39;]]</text>
</g>
</g>
</svg>
