<?xml version="1.0" encoding="UTF-8" standalone="no"?>
<!DOCTYPE svg PUBLIC "-//W3C//DTD SVG 1.1//EN"
 "http://www.w3.org/Graphics/SVG/1.1/DTD/svg11.dtd">
<!-- Generated by graphviz version 2.43.0 (0)
 -->
<!-- Title: G Pages: 1 -->
<svg width="12090pt" height="973pt"
 viewBox="0.00 0.00 12090.00 972.85" xmlns="http://www.w3.org/2000/svg" xmlns:xlink="http://www.w3.org/1999/xlink">
<g id="graph0" class="graph" transform="scale(1 1) rotate(0) translate(4 968.85)">
<title>G</title>
<polygon fill="white" stroke="transparent" points="-4,4 -4,-968.85 12086,-968.85 12086,4 -4,4"/>
<g id="clust1" class="cluster">
<title>cluster_0</title>
<polygon fill="none" stroke="black" points="8,-8 8,-956.85 4565,-956.85 4565,-8 8,-8"/>
<text text-anchor="middle" x="2286.5" y="-920.85" font-family="Times,serif" font-size="40.00">Tree 0, Class {&#39;error&#39;: &#39;null&#39;, &#39;headers&#39;: &#39;access&#45;control&#45;allow&#45;credentials,access&#45;control&#45;allow&#45;headers,access&#45;control&#45;allow&#45;methods,access&#45;control&#45;allow&#45;origin,access&#45;control&#45;expose&#45;headers,content&#45;length,date,server,test,&#39;}</text>
</g>
<g id="clust6" class="cluster">
<title>cluster_1</title>
<polygon fill="none" stroke="black" points="4573,-8 4573,-956.85 6911,-956.85 6911,-8 4573,-8"/>
<text text-anchor="middle" x="5742" y="-920.85" font-family="Times,serif" font-size="40.00">Tree 0, Class {&#39;error&#39;: &#39;null&#39;, &#39;headers&#39;: &#39;content&#45;length,&#39;}</text>
</g>
<g id="clust11" class="cluster">
<title>cluster_2</title>
<polygon fill="none" stroke="black" points="6919,-8 6919,-956.85 9627,-956.85 9627,-8 6919,-8"/>
<text text-anchor="middle" x="8273" y="-920.85" font-family="Times,serif" font-size="40.00">Tree 0, Class {&#39;error&#39;: &#39;null&#39;, &#39;headers&#39;: &#39;content&#45;length,test,&#39;}</text>
</g>
<g id="clust16" class="cluster">
<title>cluster_3</title>
<polygon fill="none" stroke="black" points="9635,-8 9635,-956.85 12074,-956.85 12074,-8 9635,-8"/>
<text text-anchor="middle" x="10854.5" y="-920.85" font-family="Times,serif" font-size="40.00">Tree 0, Class {&#39;error&#39;: &#39;object TypeError: Failed to fetch&#39;, &#39;headers&#39;: &#39;&#39;}</text>
</g>
<!-- SG_0_Node_0 -->
<g id="node1" class="node">
<title>SG_0_Node_0</title>
<polygon fill="none" stroke="black" points="1334.5,-896.85 1197.5,-896.85 1197.5,-860.85 1334.5,-860.85 1334.5,-896.85"/>
<text text-anchor="middle" x="1266" y="-873.85" font-family="Times,serif" font-size="20.00">raw_header</text>
</g>
<!-- SG_0_Node_1 -->
<g id="node2" class="node">
<title>SG_0_Node_1</title>
<polygon fill="none" stroke="black" points="546.5,-648.85 409.5,-648.85 409.5,-612.85 546.5,-612.85 546.5,-648.85"/>
<text text-anchor="middle" x="478" y="-625.85" font-family="Times,serif" font-size="20.00">raw_header</text>
</g>
<!-- SG_0_Node_0&#45;&gt;SG_0_Node_1 -->
<g id="edge1" class="edge">
<title>SG_0_Node_0&#45;&gt;SG_0_Node_1</title>
<path fill="none" stroke="black" d="M1211.53,-860.85C1070.4,-816.79 693.39,-699.09 542.11,-651.87"/>
<polygon fill="black" stroke="black" points="543.07,-648.5 532.48,-648.86 540.98,-655.18 543.07,-648.5"/>
<text text-anchor="middle" x="1196.5" y="-760.85" font-family="Times,serif" font-size="20.00">[NA]</text>
<text text-anchor="middle" x="1196.5" y="-738.85" font-family="Times,serif" font-size="20.00">50 levels</text>
</g>
<!-- SG_0_Node_2 -->
<g id="node3" class="node">
<title>SG_0_Node_2</title>
<polygon fill="none" stroke="black" points="2708.5,-648.85 2607.5,-648.85 2607.5,-612.85 2708.5,-612.85 2708.5,-648.85"/>
<text text-anchor="middle" x="2658" y="-625.85" font-family="Times,serif" font-size="20.00">browser</text>
</g>
<!-- SG_0_Node_0&#45;&gt;SG_0_Node_2 -->
<g id="edge2" class="edge">
<title>SG_0_Node_0&#45;&gt;SG_0_Node_2</title>
<path fill="none" stroke="black" d="M1316.32,-860.85C1441.49,-819.37 1777.66,-713.06 2067,-666.85 2258.98,-636.19 2489.9,-631.73 2597.42,-631.49"/>
<polygon fill="black" stroke="black" points="2597.44,-634.99 2607.43,-631.48 2597.43,-627.99 2597.44,-634.99"/>
<text text-anchor="end" x="4569" y="-793.85" font-family="Times,serif" font-size="20.00">[[&#39;</text>
<text text-anchor="middle" x="3318" y="-771.85" font-family="Times,serif" font-size="20.00">access&#45;control&#45;expose&#45;headers&#39;, &#39;*&#39;], [&#39;Test&#39;, &#39;Test&#39;], [&#39;access&#45;control&#45;allow&#45;origin&#39;, &#39;https://sub.headers.websec.saarland&#39;], [&#39;access&#45;control&#45;allow&#45;credentials&#39;, &#39;true&#39;], [&#39;access&#45;control&#45;allow&#45;methods&#39;, &#39;TEST&#39;], [&#39;access&#45;control&#45;allow&#45;headers&#39;, &#39;Test&#39;]]</text>
<text text-anchor="middle" x="3318" y="-749.85" font-family="Times,serif" font-size="20.00">[[&#39;access&#45;control&#45;expose&#45;headers &#160;&#39;, &#39;*&#39;], [&#39;Test&#39;, &#39;Test&#39;], [&#39;access&#45;control&#45;allow&#45;origin&#39;, &#39;https://sub.headers.websec.saarland&#39;], [&#39;access&#45;control&#45;allow&#45;credentials&#39;, &#39;true&#39;], [&#39;access&#45;control&#45;allow&#45;methods&#39;, &#39;TEST&#39;], [&#39;access&#45;control&#45;allow&#45;headers&#39;, &#39;Test&#39;]]</text>
<text text-anchor="middle" x="3318" y="-727.85" font-family="Times,serif" font-size="20.00">[[&#39;access&#45;control&#45;expose&#45;headers &#39;, &#39;*&#39;], [&#39;Test&#39;, &#39;Test&#39;], [&#39;access&#45;control&#45;allow&#45;origin&#39;, &#39;https://sub.headers.websec.saarland&#39;], [&#39;access&#45;control&#45;allow&#45;credentials&#39;, &#39;true&#39;], [&#39;access&#45;control&#45;allow&#45;methods&#39;, &#39;TEST&#39;], [&#39;access&#45;control&#45;allow&#45;headers&#39;, &#39;Test&#39;]]</text>
<text text-anchor="middle" x="3318" y="-705.85" font-family="Times,serif" font-size="20.00">[[&#39;access&#45;control&#45;expose&#45;headerst&#39;, &#39;*&#39;], [&#39;Test&#39;, &#39;Test&#39;], [&#39;access&#45;control&#45;allow&#45;origin&#39;, &#39;https://sub.headers.websec.saarland&#39;], [&#39;access&#45;control&#45;allow&#45;credentials&#39;, &#39;true&#39;], [&#39;access&#45;control&#45;allow&#45;methods&#39;, &#39;TEST&#39;], [&#39;access&#45;control&#45;allow&#45;headers&#39;, &#39;Test&#39;]]</text>
</g>
<!-- SG_0_Node_4 -->
<g id="node4" class="node">
<title>SG_0_Node_4</title>
<ellipse fill="none" stroke="black" cx="364" cy="-401.64" rx="33.88" ry="21.43"/>
<text text-anchor="middle" x="364" y="-396.64" font-family="Times,serif" font-size="20.00">0.0</text>
</g>
<!-- SG_0_Node_1&#45;&gt;SG_0_Node_4 -->
<g id="edge5" class="edge">
<title>SG_0_Node_1&#45;&gt;SG_0_Node_4</title>
<path fill="none" stroke="black" d="M409.45,-615.34C399.26,-610.39 389.88,-603.75 383,-594.85 346.68,-547.87 351.52,-473.92 357.95,-432.78"/>
<polygon fill="black" stroke="black" points="361.42,-433.27 359.64,-422.83 354.51,-432.1 361.42,-433.27"/>
<text text-anchor="middle" x="428.5" y="-523.85" font-family="Times,serif" font-size="20.00">[NA]</text>
<text text-anchor="middle" x="428.5" y="-501.85" font-family="Times,serif" font-size="20.00">48 levels</text>
</g>
<!-- SG_0_Node_3 -->
<g id="node5" class="node">
<title>SG_0_Node_3</title>
<polygon fill="none" stroke="black" points="528.5,-419.64 427.5,-419.64 427.5,-383.64 528.5,-383.64 528.5,-419.64"/>
<text text-anchor="middle" x="478" y="-396.64" font-family="Times,serif" font-size="20.00">browser</text>
</g>
<!-- SG_0_Node_1&#45;&gt;SG_0_Node_3 -->
<g id="edge6" class="edge">
<title>SG_0_Node_1&#45;&gt;SG_0_Node_3</title>
<path fill="none" stroke="black" d="M478,-612.77C478,-573.71 478,-477.56 478,-430.08"/>
<polygon fill="black" stroke="black" points="481.5,-429.92 478,-419.92 474.5,-429.92 481.5,-429.92"/>
<text text-anchor="end" x="2635" y="-545.85" font-family="Times,serif" font-size="20.00">[[&#39;access&#45;control&#45;expose&#45;headers&#39;, &#39;</text>
<text text-anchor="middle" x="1556.5" y="-523.85" font-family="Times,serif" font-size="20.00">*&#39;], [&#39;Test&#39;, &#39;Test&#39;], [&#39;access&#45;control&#45;allow&#45;origin&#39;, &#39;https://sub.headers.websec.saarland&#39;], [&#39;access&#45;control&#45;allow&#45;credentials&#39;, &#39;true&#39;], [&#39;access&#45;control&#45;allow&#45;methods&#39;, &#39;TEST&#39;], [&#39;access&#45;control&#45;allow&#45;headers&#39;, &#39;Test&#39;]]</text>
<text text-anchor="end" x="2635" y="-501.85" font-family="Times,serif" font-size="20.00">[[&#39;access&#45;control&#45;expose&#45;headers</text>
<text text-anchor="middle" x="1556.5" y="-479.85" font-family="Times,serif" font-size="20.00">&#39;, &#39;*&#39;], [&#39;Test&#39;, &#39;Test&#39;], [&#39;access&#45;control&#45;allow&#45;origin&#39;, &#39;https://sub.headers.websec.saarland&#39;], [&#39;access&#45;control&#45;allow&#45;credentials&#39;, &#39;true&#39;], [&#39;access&#45;control&#45;allow&#45;methods&#39;, &#39;TEST&#39;], [&#39;access&#45;control&#45;allow&#45;headers&#39;, &#39;Test&#39;]]</text>
</g>
<!-- SG_0_Node_5 -->
<g id="node6" class="node">
<title>SG_0_Node_5</title>
<ellipse fill="none" stroke="black" cx="2658" cy="-401.64" rx="33.88" ry="21.43"/>
<text text-anchor="middle" x="2658" y="-396.64" font-family="Times,serif" font-size="20.00">0.0</text>
</g>
<!-- SG_0_Node_2&#45;&gt;SG_0_Node_5 -->
<g id="edge3" class="edge">
<title>SG_0_Node_2&#45;&gt;SG_0_Node_5</title>
<path fill="none" stroke="black" d="M2658,-612.77C2658,-574.59 2658,-481.85 2658,-433.35"/>
<polygon fill="black" stroke="black" points="2661.5,-433.14 2658,-423.14 2654.5,-433.14 2661.5,-433.14"/>
<text text-anchor="middle" x="2882.5" y="-523.85" font-family="Times,serif" font-size="20.00">firefox Ubuntu 22.04 119 selenium headless</text>
<text text-anchor="middle" x="2882.5" y="-501.85" font-family="Times,serif" font-size="20.00">firefox Ubuntu 22.04 119 selenium xvfb</text>
</g>
<!-- SG_0_Node_6 -->
<g id="node7" class="node">
<title>SG_0_Node_6</title>
<ellipse fill="none" stroke="black" cx="3130" cy="-401.64" rx="33.88" ry="21.43"/>
<text text-anchor="middle" x="3130" y="-396.64" font-family="Times,serif" font-size="20.00">1.0</text>
</g>
<!-- SG_0_Node_2&#45;&gt;SG_0_Node_6 -->
<g id="edge4" class="edge">
<title>SG_0_Node_2&#45;&gt;SG_0_Node_6</title>
<path fill="none" stroke="black" d="M2708.71,-629.47C2820.36,-628.13 3079.76,-622.08 3108,-594.85 3151.35,-553.05 3144.77,-475.51 3136.93,-432.8"/>
<polygon fill="black" stroke="black" points="3140.32,-431.87 3134.94,-422.74 3133.45,-433.23 3140.32,-431.87"/>
<text text-anchor="middle" x="3501.5" y="-578.85" font-family="Times,serif" font-size="20.00">[NA]</text>
<text text-anchor="middle" x="3501.5" y="-556.85" font-family="Times,serif" font-size="20.00">brave Ubuntu 22.04 1.60.114 (119.0.6045.124) selenium headless&#45;new</text>
<text text-anchor="middle" x="3501.5" y="-534.85" font-family="Times,serif" font-size="20.00">brave Ubuntu 22.04 1.60.114 (119.0.6045.124) selenium xvfb</text>
<text text-anchor="middle" x="3501.5" y="-512.85" font-family="Times,serif" font-size="20.00">chrome Ubuntu 22.04 119 selenium headless&#45;new</text>
<text text-anchor="middle" x="3501.5" y="-490.85" font-family="Times,serif" font-size="20.00">chrome Ubuntu 22.04 119 selenium xvfb</text>
<text text-anchor="middle" x="3501.5" y="-468.85" font-family="Times,serif" font-size="20.00">edge Ubuntu 22.04 119 selenium headless&#45;new</text>
<text text-anchor="middle" x="3501.5" y="-446.85" font-family="Times,serif" font-size="20.00">edge Ubuntu 22.04 119 selenium xvfb</text>
</g>
<!-- SG_0_Node_7 -->
<g id="node8" class="node">
<title>SG_0_Node_7</title>
<ellipse fill="none" stroke="black" cx="264" cy="-37.21" rx="33.88" ry="21.43"/>
<text text-anchor="middle" x="264" y="-32.21" font-family="Times,serif" font-size="20.00">0.0</text>
</g>
<!-- SG_0_Node_3&#45;&gt;SG_0_Node_7 -->
<g id="edge7" class="edge">
<title>SG_0_Node_3&#45;&gt;SG_0_Node_7</title>
<path fill="none" stroke="black" d="M427.42,-385.23C420.6,-383.45 413.65,-381.79 407,-380.43 375.84,-374.05 286.07,-386.26 265,-362.43 191.19,-278.93 230.95,-130.68 252.76,-67.76"/>
<polygon fill="black" stroke="black" points="256.15,-68.67 256.21,-58.07 249.56,-66.32 256.15,-68.67"/>
<text text-anchor="middle" x="624.5" y="-280.43" font-family="Times,serif" font-size="20.00">[NA]</text>
<text text-anchor="middle" x="624.5" y="-258.43" font-family="Times,serif" font-size="20.00">brave Ubuntu 22.04 1.60.114 (119.0.6045.124) selenium headless&#45;new</text>
<text text-anchor="middle" x="624.5" y="-236.43" font-family="Times,serif" font-size="20.00">brave Ubuntu 22.04 1.60.114 (119.0.6045.124) selenium xvfb</text>
<text text-anchor="middle" x="624.5" y="-214.43" font-family="Times,serif" font-size="20.00">chrome Ubuntu 22.04 119 selenium headless&#45;new</text>
<text text-anchor="middle" x="624.5" y="-192.43" font-family="Times,serif" font-size="20.00">chrome Ubuntu 22.04 119 selenium xvfb</text>
<text text-anchor="middle" x="624.5" y="-170.43" font-family="Times,serif" font-size="20.00">edge Ubuntu 22.04 119 selenium headless&#45;new</text>
<text text-anchor="middle" x="624.5" y="-148.43" font-family="Times,serif" font-size="20.00">edge Ubuntu 22.04 119 selenium xvfb</text>
</g>
<!-- SG_0_Node_8 -->
<g id="node9" class="node">
<title>SG_0_Node_8</title>
<ellipse fill="none" stroke="black" cx="1006" cy="-37.21" rx="33.88" ry="21.43"/>
<text text-anchor="middle" x="1006" y="-32.21" font-family="Times,serif" font-size="20.00">1.0</text>
</g>
<!-- SG_0_Node_3&#45;&gt;SG_0_Node_8 -->
<g id="edge8" class="edge">
<title>SG_0_Node_3&#45;&gt;SG_0_Node_8</title>
<path fill="none" stroke="black" d="M528.68,-400.49C650.57,-399.63 952.39,-394.28 984,-362.43 1062.87,-282.96 1032.68,-131.86 1015.12,-67.95"/>
<polygon fill="black" stroke="black" points="1018.43,-66.78 1012.33,-58.11 1011.69,-68.69 1018.43,-66.78"/>
<text text-anchor="middle" x="1259.5" y="-225.43" font-family="Times,serif" font-size="20.00">firefox Ubuntu 22.04 119 selenium headless</text>
<text text-anchor="middle" x="1259.5" y="-203.43" font-family="Times,serif" font-size="20.00">firefox Ubuntu 22.04 119 selenium xvfb</text>
</g>
<!-- SG_1_Node_0 -->
<g id="node10" class="node">
<title>SG_1_Node_0</title>
<polygon fill="none" stroke="black" points="4749.5,-896.85 4612.5,-896.85 4612.5,-860.85 4749.5,-860.85 4749.5,-896.85"/>
<text text-anchor="middle" x="4681" y="-873.85" font-family="Times,serif" font-size="20.00">raw_header</text>
</g>
<!-- SG_1_Node_1 -->
<g id="node11" class="node">
<title>SG_1_Node_1</title>
<polygon fill="none" stroke="black" points="4718.5,-648.85 4581.5,-648.85 4581.5,-612.85 4718.5,-612.85 4718.5,-648.85"/>
<text text-anchor="middle" x="4650" y="-625.85" font-family="Times,serif" font-size="20.00">raw_header</text>
</g>
<!-- SG_1_Node_0&#45;&gt;SG_1_Node_1 -->
<g id="edge9" class="edge">
<title>SG_1_Node_0&#45;&gt;SG_1_Node_1</title>
<path fill="none" stroke="black" d="M4619.35,-860.75C4611.71,-856.13 4604.88,-850.28 4600,-842.85 4557.04,-777.49 4563.88,-736.23 4600,-666.85 4602.12,-662.78 4604.96,-659.08 4608.21,-655.75"/>
<polygon fill="black" stroke="black" points="4610.66,-658.26 4615.86,-649.03 4606.04,-652.99 4610.66,-658.26"/>
<text text-anchor="middle" x="4645.5" y="-760.85" font-family="Times,serif" font-size="20.00">[NA]</text>
<text text-anchor="middle" x="4645.5" y="-738.85" font-family="Times,serif" font-size="20.00">50 levels</text>
</g>
<!-- SG_1_Node_2 -->
<g id="node12" class="node">
<title>SG_1_Node_2</title>
<polygon fill="none" stroke="black" points="4887.5,-648.85 4786.5,-648.85 4786.5,-612.85 4887.5,-612.85 4887.5,-648.85"/>
<text text-anchor="middle" x="4837" y="-625.85" font-family="Times,serif" font-size="20.00">browser</text>
</g>
<!-- SG_1_Node_0&#45;&gt;SG_1_Node_2 -->
<g id="edge10" class="edge">
<title>SG_1_Node_0&#45;&gt;SG_1_Node_2</title>
<path fill="none" stroke="black" d="M4686.18,-860.84C4687.83,-855.15 4689.59,-848.75 4691,-842.85 4709.52,-765.37 4671.91,-726.25 4725,-666.85 4738.24,-652.04 4757.64,-643.44 4776.59,-638.46"/>
<polygon fill="black" stroke="black" points="4777.47,-641.85 4786.42,-636.17 4775.89,-635.03 4777.47,-641.85"/>
<text text-anchor="end" x="6915" y="-826.85" font-family="Times,serif" font-size="20.00">[[&#39;access&#45;control&#45;expose&#45;headers&#39;, &#39;</text>
<text text-anchor="middle" x="5820" y="-804.85" font-family="Times,serif" font-size="20.00">*&#39;], [&#39;Test&#39;, &#39;Test&#39;], [&#39;access&#45;control&#45;allow&#45;origin&#39;, &#39;https://sub.headers.websec.saarland&#39;], [&#39;access&#45;control&#45;allow&#45;credentials&#39;, &#39;true&#39;], [&#39;access&#45;control&#45;allow&#45;methods&#39;, &#39;TEST&#39;], [&#39;access&#45;control&#45;allow&#45;headers&#39;, &#39;Test&#39;]]</text>
<text text-anchor="end" x="6915" y="-782.85" font-family="Times,serif" font-size="20.00">[[&#39;access&#45;control&#45;expose&#45;headers&#39;, &#39;</text>
<text text-anchor="middle" x="5820" y="-760.85" font-family="Times,serif" font-size="20.00">Test&#39;], [&#39;Test&#39;, &#39;Test&#39;], [&#39;access&#45;control&#45;allow&#45;origin&#39;, &#39;https://sub.headers.websec.saarland&#39;], [&#39;access&#45;control&#45;allow&#45;credentials&#39;, &#39;true&#39;], [&#39;access&#45;control&#45;allow&#45;methods&#39;, &#39;TEST&#39;], [&#39;access&#45;control&#45;allow&#45;headers&#39;, &#39;Test&#39;]]</text>
<text text-anchor="end" x="6915" y="-738.85" font-family="Times,serif" font-size="20.00">[[&#39;access&#45;control&#45;expose&#45;headers</text>
<text text-anchor="middle" x="5820" y="-716.85" font-family="Times,serif" font-size="20.00">&#39;, &#39;*&#39;], [&#39;Test&#39;, &#39;Test&#39;], [&#39;access&#45;control&#45;allow&#45;origin&#39;, &#39;https://sub.headers.websec.saarland&#39;], [&#39;access&#45;control&#45;allow&#45;credentials&#39;, &#39;true&#39;], [&#39;access&#45;control&#45;allow&#45;methods&#39;, &#39;TEST&#39;], [&#39;access&#45;control&#45;allow&#45;headers&#39;, &#39;Test&#39;]]</text>
<text text-anchor="end" x="6915" y="-694.85" font-family="Times,serif" font-size="20.00">[[&#39;access&#45;control&#45;expose&#45;headers</text>
<text text-anchor="middle" x="5820" y="-672.85" font-family="Times,serif" font-size="20.00">&#39;, &#39;Test&#39;], [&#39;Test&#39;, &#39;Test&#39;], [&#39;access&#45;control&#45;allow&#45;origin&#39;, &#39;https://sub.headers.websec.saarland&#39;], [&#39;access&#45;control&#45;allow&#45;credentials&#39;, &#39;true&#39;], [&#39;access&#45;control&#45;allow&#45;methods&#39;, &#39;TEST&#39;], [&#39;access&#45;control&#45;allow&#45;headers&#39;, &#39;Test&#39;]]</text>
</g>
<!-- SG_1_Node_4 -->
<g id="node13" class="node">
<title>SG_1_Node_4</title>
<ellipse fill="none" stroke="black" cx="4615" cy="-401.64" rx="33.88" ry="21.43"/>
<text text-anchor="middle" x="4615" y="-396.64" font-family="Times,serif" font-size="20.00">0.0</text>
</g>
<!-- SG_1_Node_1&#45;&gt;SG_1_Node_4 -->
<g id="edge13" class="edge">
<title>SG_1_Node_1&#45;&gt;SG_1_Node_4</title>
<path fill="none" stroke="black" d="M4623.6,-612.5C4618.1,-607.51 4613.05,-601.58 4610,-594.85 4585.88,-541.69 4597.04,-471.47 4606.54,-432.3"/>
<polygon fill="black" stroke="black" points="4609.94,-433.13 4609.02,-422.58 4603.16,-431.4 4609.94,-433.13"/>
<text text-anchor="middle" x="4655.5" y="-523.85" font-family="Times,serif" font-size="20.00">[NA]</text>
<text text-anchor="middle" x="4655.5" y="-501.85" font-family="Times,serif" font-size="20.00">38 levels</text>
</g>
<!-- SG_1_Node_3 -->
<g id="node14" class="node">
<title>SG_1_Node_3</title>
<polygon fill="none" stroke="black" points="4773.5,-419.64 4672.5,-419.64 4672.5,-383.64 4773.5,-383.64 4773.5,-419.64"/>
<text text-anchor="middle" x="4723" y="-396.64" font-family="Times,serif" font-size="20.00">browser</text>
</g>
<!-- SG_1_Node_1&#45;&gt;SG_1_Node_3 -->
<g id="edge14" class="edge">
<title>SG_1_Node_1&#45;&gt;SG_1_Node_3</title>
<path fill="none" stroke="black" d="M4683.68,-612.84C4690.42,-607.93 4696.74,-601.94 4701,-594.85 4732.1,-543.16 4730.39,-469.38 4726.6,-429.96"/>
<polygon fill="black" stroke="black" points="4730.06,-429.36 4725.5,-419.8 4723.1,-430.12 4730.06,-429.36"/>
<text text-anchor="middle" x="4773.5" y="-512.85" font-family="Times,serif" font-size="20.00">12 levels</text>
</g>
<!-- SG_1_Node_5 -->
<g id="node15" class="node">
<title>SG_1_Node_5</title>
<ellipse fill="none" stroke="black" cx="4837" cy="-401.64" rx="33.88" ry="21.43"/>
<text text-anchor="middle" x="4837" y="-396.64" font-family="Times,serif" font-size="20.00">0.0</text>
</g>
<!-- SG_1_Node_2&#45;&gt;SG_1_Node_5 -->
<g id="edge11" class="edge">
<title>SG_1_Node_2&#45;&gt;SG_1_Node_5</title>
<path fill="none" stroke="black" d="M4837,-612.77C4837,-574.59 4837,-481.85 4837,-433.35"/>
<polygon fill="black" stroke="black" points="4840.5,-433.14 4837,-423.14 4833.5,-433.14 4840.5,-433.14"/>
<text text-anchor="middle" x="5061.5" y="-523.85" font-family="Times,serif" font-size="20.00">firefox Ubuntu 22.04 119 selenium headless</text>
<text text-anchor="middle" x="5061.5" y="-501.85" font-family="Times,serif" font-size="20.00">firefox Ubuntu 22.04 119 selenium xvfb</text>
</g>
<!-- SG_1_Node_6 -->
<g id="node16" class="node">
<title>SG_1_Node_6</title>
<ellipse fill="none" stroke="black" cx="5309" cy="-401.64" rx="33.88" ry="21.43"/>
<text text-anchor="middle" x="5309" y="-396.64" font-family="Times,serif" font-size="20.00">1.0</text>
</g>
<!-- SG_1_Node_2&#45;&gt;SG_1_Node_6 -->
<g id="edge12" class="edge">
<title>SG_1_Node_2&#45;&gt;SG_1_Node_6</title>
<path fill="none" stroke="black" d="M4887.71,-629.47C4999.36,-628.13 5258.76,-622.08 5287,-594.85 5330.35,-553.05 5323.77,-475.51 5315.93,-432.8"/>
<polygon fill="black" stroke="black" points="5319.32,-431.87 5313.94,-422.74 5312.45,-433.23 5319.32,-431.87"/>
<text text-anchor="middle" x="5680.5" y="-578.85" font-family="Times,serif" font-size="20.00">[NA]</text>
<text text-anchor="middle" x="5680.5" y="-556.85" font-family="Times,serif" font-size="20.00">brave Ubuntu 22.04 1.60.114 (119.0.6045.124) selenium headless&#45;new</text>
<text text-anchor="middle" x="5680.5" y="-534.85" font-family="Times,serif" font-size="20.00">brave Ubuntu 22.04 1.60.114 (119.0.6045.124) selenium xvfb</text>
<text text-anchor="middle" x="5680.5" y="-512.85" font-family="Times,serif" font-size="20.00">chrome Ubuntu 22.04 119 selenium headless&#45;new</text>
<text text-anchor="middle" x="5680.5" y="-490.85" font-family="Times,serif" font-size="20.00">chrome Ubuntu 22.04 119 selenium xvfb</text>
<text text-anchor="middle" x="5680.5" y="-468.85" font-family="Times,serif" font-size="20.00">edge Ubuntu 22.04 119 selenium headless&#45;new</text>
<text text-anchor="middle" x="5680.5" y="-446.85" font-family="Times,serif" font-size="20.00">edge Ubuntu 22.04 119 selenium xvfb</text>
</g>
<!-- SG_1_Node_7 -->
<g id="node17" class="node">
<title>SG_1_Node_7</title>
<ellipse fill="none" stroke="black" cx="4669" cy="-37.21" rx="33.88" ry="21.43"/>
<text text-anchor="middle" x="4669" y="-32.21" font-family="Times,serif" font-size="20.00">0.0</text>
</g>
<!-- SG_1_Node_3&#45;&gt;SG_1_Node_7 -->
<g id="edge15" class="edge">
<title>SG_1_Node_3&#45;&gt;SG_1_Node_7</title>
<path fill="none" stroke="black" d="M4689.27,-383.55C4681.56,-377.93 4674.35,-370.9 4670,-362.43 4619.89,-264.9 4645.46,-128.06 4660.55,-68.22"/>
<polygon fill="black" stroke="black" points="4664,-68.85 4663.14,-58.29 4657.23,-67.09 4664,-68.85"/>
<text text-anchor="middle" x="5029.5" y="-280.43" font-family="Times,serif" font-size="20.00">[NA]</text>
<text text-anchor="middle" x="5029.5" y="-258.43" font-family="Times,serif" font-size="20.00">brave Ubuntu 22.04 1.60.114 (119.0.6045.124) selenium headless&#45;new</text>
<text text-anchor="middle" x="5029.5" y="-236.43" font-family="Times,serif" font-size="20.00">brave Ubuntu 22.04 1.60.114 (119.0.6045.124) selenium xvfb</text>
<text text-anchor="middle" x="5029.5" y="-214.43" font-family="Times,serif" font-size="20.00">chrome Ubuntu 22.04 119 selenium headless&#45;new</text>
<text text-anchor="middle" x="5029.5" y="-192.43" font-family="Times,serif" font-size="20.00">chrome Ubuntu 22.04 119 selenium xvfb</text>
<text text-anchor="middle" x="5029.5" y="-170.43" font-family="Times,serif" font-size="20.00">edge Ubuntu 22.04 119 selenium headless&#45;new</text>
<text text-anchor="middle" x="5029.5" y="-148.43" font-family="Times,serif" font-size="20.00">edge Ubuntu 22.04 119 selenium xvfb</text>
</g>
<!-- SG_1_Node_8 -->
<g id="node18" class="node">
<title>SG_1_Node_8</title>
<ellipse fill="none" stroke="black" cx="5411" cy="-37.21" rx="33.88" ry="21.43"/>
<text text-anchor="middle" x="5411" y="-32.21" font-family="Times,serif" font-size="20.00">1.0</text>
</g>
<!-- SG_1_Node_3&#45;&gt;SG_1_Node_8 -->
<g id="edge16" class="edge">
<title>SG_1_Node_3&#45;&gt;SG_1_Node_8</title>
<path fill="none" stroke="black" d="M4773.86,-384.53C4780.57,-382.89 4787.41,-381.45 4794,-380.43 4826.68,-375.36 5365.18,-385.37 5389,-362.43 5469.64,-284.76 5438.48,-132.67 5420.39,-68.22"/>
<polygon fill="black" stroke="black" points="5423.66,-66.93 5417.51,-58.3 5416.94,-68.88 5423.66,-66.93"/>
<text text-anchor="middle" x="5665.5" y="-225.43" font-family="Times,serif" font-size="20.00">firefox Ubuntu 22.04 119 selenium headless</text>
<text text-anchor="middle" x="5665.5" y="-203.43" font-family="Times,serif" font-size="20.00">firefox Ubuntu 22.04 119 selenium xvfb</text>
</g>
<!-- SG_2_Node_0 -->
<g id="node19" class="node">
<title>SG_2_Node_0</title>
<polygon fill="none" stroke="black" points="8132.5,-896.85 7995.5,-896.85 7995.5,-860.85 8132.5,-860.85 8132.5,-896.85"/>
<text text-anchor="middle" x="8064" y="-873.85" font-family="Times,serif" font-size="20.00">raw_header</text>
</g>
<!-- SG_2_Node_1 -->
<g id="node20" class="node">
<title>SG_2_Node_1</title>
<polygon fill="none" stroke="black" points="7879.5,-648.85 7778.5,-648.85 7778.5,-612.85 7879.5,-612.85 7879.5,-648.85"/>
<text text-anchor="middle" x="7829" y="-625.85" font-family="Times,serif" font-size="20.00">browser</text>
</g>
<!-- SG_2_Node_0&#45;&gt;SG_2_Node_1 -->
<g id="edge17" class="edge">
<title>SG_2_Node_0&#45;&gt;SG_2_Node_1</title>
<path fill="none" stroke="black" d="M8047.48,-860.55C8006.52,-817.68 7900.2,-706.38 7852.62,-656.58"/>
<polygon fill="black" stroke="black" points="7854.94,-653.95 7845.51,-649.13 7849.88,-658.78 7854.94,-653.95"/>
<text text-anchor="middle" x="8074.5" y="-760.85" font-family="Times,serif" font-size="20.00">[NA]</text>
<text text-anchor="middle" x="8074.5" y="-738.85" font-family="Times,serif" font-size="20.00">33 levels</text>
</g>
<!-- SG_2_Node_2 -->
<g id="node21" class="node">
<title>SG_2_Node_2</title>
<polygon fill="none" stroke="black" points="8351.5,-648.85 8250.5,-648.85 8250.5,-612.85 8351.5,-612.85 8351.5,-648.85"/>
<text text-anchor="middle" x="8301" y="-625.85" font-family="Times,serif" font-size="20.00">browser</text>
</g>
<!-- SG_2_Node_0&#45;&gt;SG_2_Node_2 -->
<g id="edge18" class="edge">
<title>SG_2_Node_0&#45;&gt;SG_2_Node_2</title>
<path fill="none" stroke="black" d="M8098.06,-860.71C8106.92,-855.54 8116.16,-849.46 8124,-842.85 8192.26,-785.31 8255.11,-699.46 8284.12,-657.21"/>
<polygon fill="black" stroke="black" points="8287.06,-659.11 8289.79,-648.88 8281.27,-655.17 8287.06,-659.11"/>
<text text-anchor="middle" x="8319.5" y="-749.85" font-family="Times,serif" font-size="20.00">21 levels</text>
</g>
<!-- SG_2_Node_4 -->
<g id="node22" class="node">
<title>SG_2_Node_4</title>
<ellipse fill="none" stroke="black" cx="7087" cy="-401.64" rx="33.88" ry="21.43"/>
<text text-anchor="middle" x="7087" y="-396.64" font-family="Times,serif" font-size="20.00">0.0</text>
</g>
<!-- SG_2_Node_1&#45;&gt;SG_2_Node_4 -->
<g id="edge21" class="edge">
<title>SG_2_Node_1&#45;&gt;SG_2_Node_4</title>
<path fill="none" stroke="black" d="M7778.41,-629.2C7618.08,-626.89 7130.33,-617.99 7106,-594.85 7062.34,-553.33 7070.61,-475.4 7079.42,-432.63"/>
<polygon fill="black" stroke="black" points="7082.85,-433.33 7081.58,-422.81 7076.01,-431.82 7082.85,-433.33"/>
<text text-anchor="middle" x="7465.5" y="-578.85" font-family="Times,serif" font-size="20.00">[NA]</text>
<text text-anchor="middle" x="7465.5" y="-556.85" font-family="Times,serif" font-size="20.00">brave Ubuntu 22.04 1.60.114 (119.0.6045.124) selenium headless&#45;new</text>
<text text-anchor="middle" x="7465.5" y="-534.85" font-family="Times,serif" font-size="20.00">brave Ubuntu 22.04 1.60.114 (119.0.6045.124) selenium xvfb</text>
<text text-anchor="middle" x="7465.5" y="-512.85" font-family="Times,serif" font-size="20.00">chrome Ubuntu 22.04 119 selenium headless&#45;new</text>
<text text-anchor="middle" x="7465.5" y="-490.85" font-family="Times,serif" font-size="20.00">chrome Ubuntu 22.04 119 selenium xvfb</text>
<text text-anchor="middle" x="7465.5" y="-468.85" font-family="Times,serif" font-size="20.00">edge Ubuntu 22.04 119 selenium headless&#45;new</text>
<text text-anchor="middle" x="7465.5" y="-446.85" font-family="Times,serif" font-size="20.00">edge Ubuntu 22.04 119 selenium xvfb</text>
</g>
<!-- SG_2_Node_3 -->
<g id="node23" class="node">
<title>SG_2_Node_3</title>
<polygon fill="none" stroke="black" points="7897.5,-419.64 7760.5,-419.64 7760.5,-383.64 7897.5,-383.64 7897.5,-419.64"/>
<text text-anchor="middle" x="7829" y="-396.64" font-family="Times,serif" font-size="20.00">raw_header</text>
</g>
<!-- SG_2_Node_1&#45;&gt;SG_2_Node_3 -->
<g id="edge22" class="edge">
<title>SG_2_Node_1&#45;&gt;SG_2_Node_3</title>
<path fill="none" stroke="black" d="M7829,-612.77C7829,-573.71 7829,-477.56 7829,-430.08"/>
<polygon fill="black" stroke="black" points="7832.5,-429.92 7829,-419.92 7825.5,-429.92 7832.5,-429.92"/>
<text text-anchor="middle" x="8053.5" y="-523.85" font-family="Times,serif" font-size="20.00">firefox Ubuntu 22.04 119 selenium headless</text>
<text text-anchor="middle" x="8053.5" y="-501.85" font-family="Times,serif" font-size="20.00">firefox Ubuntu 22.04 119 selenium xvfb</text>
</g>
<!-- SG_2_Node_5 -->
<g id="node24" class="node">
<title>SG_2_Node_5</title>
<ellipse fill="none" stroke="black" cx="8301" cy="-401.64" rx="33.88" ry="21.43"/>
<text text-anchor="middle" x="8301" y="-396.64" font-family="Times,serif" font-size="20.00">0.0</text>
</g>
<!-- SG_2_Node_2&#45;&gt;SG_2_Node_5 -->
<g id="edge19" class="edge">
<title>SG_2_Node_2&#45;&gt;SG_2_Node_5</title>
<path fill="none" stroke="black" d="M8301,-612.77C8301,-574.59 8301,-481.85 8301,-433.35"/>
<polygon fill="black" stroke="black" points="8304.5,-433.14 8301,-423.14 8297.5,-433.14 8304.5,-433.14"/>
<text text-anchor="middle" x="8525.5" y="-523.85" font-family="Times,serif" font-size="20.00">firefox Ubuntu 22.04 119 selenium headless</text>
<text text-anchor="middle" x="8525.5" y="-501.85" font-family="Times,serif" font-size="20.00">firefox Ubuntu 22.04 119 selenium xvfb</text>
</g>
<!-- SG_2_Node_6 -->
<g id="node25" class="node">
<title>SG_2_Node_6</title>
<ellipse fill="none" stroke="black" cx="8773" cy="-401.64" rx="33.88" ry="21.43"/>
<text text-anchor="middle" x="8773" y="-396.64" font-family="Times,serif" font-size="20.00">1.0</text>
</g>
<!-- SG_2_Node_2&#45;&gt;SG_2_Node_6 -->
<g id="edge20" class="edge">
<title>SG_2_Node_2&#45;&gt;SG_2_Node_6</title>
<path fill="none" stroke="black" d="M8351.71,-629.47C8463.36,-628.13 8722.76,-622.08 8751,-594.85 8794.35,-553.05 8787.77,-475.51 8779.93,-432.8"/>
<polygon fill="black" stroke="black" points="8783.32,-431.87 8777.94,-422.74 8776.45,-433.23 8783.32,-431.87"/>
<text text-anchor="middle" x="9144.5" y="-578.85" font-family="Times,serif" font-size="20.00">[NA]</text>
<text text-anchor="middle" x="9144.5" y="-556.85" font-family="Times,serif" font-size="20.00">brave Ubuntu 22.04 1.60.114 (119.0.6045.124) selenium headless&#45;new</text>
<text text-anchor="middle" x="9144.5" y="-534.85" font-family="Times,serif" font-size="20.00">brave Ubuntu 22.04 1.60.114 (119.0.6045.124) selenium xvfb</text>
<text text-anchor="middle" x="9144.5" y="-512.85" font-family="Times,serif" font-size="20.00">chrome Ubuntu 22.04 119 selenium headless&#45;new</text>
<text text-anchor="middle" x="9144.5" y="-490.85" font-family="Times,serif" font-size="20.00">chrome Ubuntu 22.04 119 selenium xvfb</text>
<text text-anchor="middle" x="9144.5" y="-468.85" font-family="Times,serif" font-size="20.00">edge Ubuntu 22.04 119 selenium headless&#45;new</text>
<text text-anchor="middle" x="9144.5" y="-446.85" font-family="Times,serif" font-size="20.00">edge Ubuntu 22.04 119 selenium xvfb</text>
</g>
<!-- SG_2_Node_7 -->
<g id="node26" class="node">
<title>SG_2_Node_7</title>
<ellipse fill="none" stroke="black" cx="6961" cy="-37.21" rx="33.88" ry="21.43"/>
<text text-anchor="middle" x="6961" y="-32.21" font-family="Times,serif" font-size="20.00">0.0</text>
</g>
<!-- SG_2_Node_3&#45;&gt;SG_2_Node_7 -->
<g id="edge23" class="edge">
<title>SG_2_Node_3&#45;&gt;SG_2_Node_7</title>
<path fill="none" stroke="black" d="M7760.23,-398.92C7554.98,-393.64 6960.05,-377.09 6946,-362.43 6902.04,-316.52 6934.18,-138.87 6946,-76.43 6946.58,-73.37 6947.39,-70.25 6948.35,-67.17"/>
<polygon fill="black" stroke="black" points="6951.69,-68.22 6951.76,-57.63 6945.1,-65.87 6951.69,-68.22"/>
<text text-anchor="end" x="9506" y="-346.43" font-family="Times,serif" font-size="20.00">[[&#39;</text>
<text text-anchor="middle" x="8226" y="-324.43" font-family="Times,serif" font-size="20.00">access&#45;control&#45;expose&#45;headers&#39;, &#39;*&#39;], [&#39;Test&#39;, &#39;Test&#39;], [&#39;access&#45;control&#45;allow&#45;origin&#39;, &#39;https://sub.headers.websec.saarland&#39;], [&#39;access&#45;control&#45;allow&#45;credentials&#39;, &#39;true&#39;], [&#39;access&#45;control&#45;allow&#45;methods&#39;, &#39;TEST&#39;], [&#39;access&#45;control&#45;allow&#45;headers&#39;, &#39;Test&#39;]]</text>
<text text-anchor="middle" x="8226" y="-302.43" font-family="Times,serif" font-size="20.00">[[&#39;x00access&#45;control&#45;expose&#45;headers&#39;, &#39;*&#39;], [&#39;Test&#39;, &#39;Test&#39;], [&#39;access&#45;control&#45;allow&#45;origin&#39;, &#39;https://sub.headers.websec.saarland&#39;], [&#39;access&#45;control&#45;allow&#45;credentials&#39;, &#39;true&#39;], [&#39;access&#45;control&#45;allow&#45;methods&#39;, &#39;TEST&#39;], [&#39;access&#45;control&#45;allow&#45;headers&#39;, &#39;Test&#39;]]</text>
<text text-anchor="middle" x="8226" y="-280.43" font-family="Times,serif" font-size="20.00">[[&#39;x00access&#45;control&#45;expose&#45;headers&#39;, &#39;Test&#39;], [&#39;Test&#39;, &#39;Test&#39;], [&#39;access&#45;control&#45;allow&#45;origin&#39;, &#39;https://sub.headers.websec.saarland&#39;], [&#39;access&#45;control&#45;allow&#45;credentials&#39;, &#39;true&#39;], [&#39;access&#45;control&#45;allow&#45;methods&#39;, &#39;TEST&#39;], [&#39;access&#45;control&#45;allow&#45;headers&#39;, &#39;Test&#39;]]</text>
<text text-anchor="middle" x="8226" y="-258.43" font-family="Times,serif" font-size="20.00">[[&#39;access&#45;control&#45;expose&#45;headers &#160;&#39;, &#39;*&#39;], [&#39;Test&#39;, &#39;Test&#39;], [&#39;access&#45;control&#45;allow&#45;origin&#39;, &#39;https://sub.headers.websec.saarland&#39;], [&#39;access&#45;control&#45;allow&#45;credentials&#39;, &#39;true&#39;], [&#39;access&#45;control&#45;allow&#45;methods&#39;, &#39;TEST&#39;], [&#39;access&#45;control&#45;allow&#45;headers&#39;, &#39;Test&#39;]]</text>
<text text-anchor="middle" x="8226" y="-236.43" font-family="Times,serif" font-size="20.00">[[&#39;access&#45;control&#45;expose&#45;headers &#39;, &#39;*&#39;], [&#39;Test&#39;, &#39;Test&#39;], [&#39;access&#45;control&#45;allow&#45;origin&#39;, &#39;https://sub.headers.websec.saarland&#39;], [&#39;access&#45;control&#45;allow&#45;credentials&#39;, &#39;true&#39;], [&#39;access&#45;control&#45;allow&#45;methods&#39;, &#39;TEST&#39;], [&#39;access&#45;control&#45;allow&#45;headers&#39;, &#39;Test&#39;]]</text>
<text text-anchor="end" x="9506" y="-214.43" font-family="Times,serif" font-size="20.00">[[&#39;access&#45;control&#45;expose&#45;headers&#39;, &#39;</text>
<text text-anchor="middle" x="8226" y="-192.43" font-family="Times,serif" font-size="20.00">*&#39;], [&#39;Test&#39;, &#39;Test&#39;], [&#39;access&#45;control&#45;allow&#45;origin&#39;, &#39;https://sub.headers.websec.saarland&#39;], [&#39;access&#45;control&#45;allow&#45;credentials&#39;, &#39;true&#39;], [&#39;access&#45;control&#45;allow&#45;methods&#39;, &#39;TEST&#39;], [&#39;access&#45;control&#45;allow&#45;headers&#39;, &#39;Test&#39;]]</text>
<text text-anchor="end" x="9506" y="-170.43" font-family="Times,serif" font-size="20.00">[[&#39;access&#45;control&#45;expose&#45;headers</text>
<text text-anchor="middle" x="8226" y="-148.43" font-family="Times,serif" font-size="20.00">&#39;, &#39;*&#39;], [&#39;Test&#39;, &#39;Test&#39;], [&#39;access&#45;control&#45;allow&#45;origin&#39;, &#39;https://sub.headers.websec.saarland&#39;], [&#39;access&#45;control&#45;allow&#45;credentials&#39;, &#39;true&#39;], [&#39;access&#45;control&#45;allow&#45;methods&#39;, &#39;TEST&#39;], [&#39;access&#45;control&#45;allow&#45;headers&#39;, &#39;Test&#39;]]</text>
<text text-anchor="middle" x="8226" y="-126.43" font-family="Times,serif" font-size="20.00">[[&#39;access&#45;control&#45;expose&#45;headersx00&#39;, &#39;*&#39;], [&#39;Test&#39;, &#39;Test&#39;], [&#39;access&#45;control&#45;allow&#45;origin&#39;, &#39;https://sub.headers.websec.saarland&#39;], [&#39;access&#45;control&#45;allow&#45;credentials&#39;, &#39;true&#39;], [&#39;access&#45;control&#45;allow&#45;methods&#39;, &#39;TEST&#39;], [&#39;access&#45;control&#45;allow&#45;headers&#39;, &#39;Test&#39;]]</text>
<text text-anchor="middle" x="8226" y="-104.43" font-family="Times,serif" font-size="20.00">[[&#39;access&#45;control&#45;expose&#45;headersx00&#39;, &#39;Test&#39;], [&#39;Test&#39;, &#39;Test&#39;], [&#39;access&#45;control&#45;allow&#45;origin&#39;, &#39;https://sub.headers.websec.saarland&#39;], [&#39;access&#45;control&#45;allow&#45;credentials&#39;, &#39;true&#39;], [&#39;access&#45;control&#45;allow&#45;methods&#39;, &#39;TEST&#39;], [&#39;access&#45;control&#45;allow&#45;headers&#39;, &#39;Test&#39;]]</text>
<text text-anchor="middle" x="8226" y="-82.43" font-family="Times,serif" font-size="20.00">[[&#39;access&#45;controlx00&#45;expose&#45;headers&#39;, &#39;Test&#39;], [&#39;Test&#39;, &#39;Test&#39;], [&#39;access&#45;control&#45;allow&#45;origin&#39;, &#39;https://sub.headers.websec.saarland&#39;], [&#39;access&#45;control&#45;allow&#45;credentials&#39;, &#39;true&#39;], [&#39;access&#45;control&#45;allow&#45;methods&#39;, &#39;TEST&#39;], [&#39;access&#45;control&#45;allow&#45;headers&#39;, &#39;Test&#39;]]</text>
</g>
<!-- SG_2_Node_8 -->
<g id="node27" class="node">
<title>SG_2_Node_8</title>
<ellipse fill="none" stroke="black" cx="9528" cy="-37.21" rx="33.88" ry="21.43"/>
<text text-anchor="middle" x="9528" y="-32.21" font-family="Times,serif" font-size="20.00">1.0</text>
</g>
<!-- SG_2_Node_3&#45;&gt;SG_2_Node_8 -->
<g id="edge24" class="edge">
<title>SG_2_Node_3&#45;&gt;SG_2_Node_8</title>
<path fill="none" stroke="black" d="M7897.7,-396.71C7982.39,-392.03 8130.75,-384.34 8258,-380.43 8275.33,-379.89 9493.42,-374.35 9506,-362.43 9547.57,-323.01 9537.03,-142.11 9530.9,-69"/>
<polygon fill="black" stroke="black" points="9534.35,-68.29 9530,-58.63 9527.38,-68.89 9534.35,-68.29"/>
<text text-anchor="middle" x="9581.5" y="-225.43" font-family="Times,serif" font-size="20.00">[NA]</text>
<text text-anchor="middle" x="9581.5" y="-203.43" font-family="Times,serif" font-size="20.00">23 levels</text>
</g>
<!-- SG_3_Node_0 -->
<g id="node28" class="node">
<title>SG_3_Node_0</title>
<polygon fill="none" stroke="black" points="10706.5,-896.85 10569.5,-896.85 10569.5,-860.85 10706.5,-860.85 10706.5,-896.85"/>
<text text-anchor="middle" x="10638" y="-873.85" font-family="Times,serif" font-size="20.00">raw_header</text>
</g>
<!-- SG_3_Node_1 -->
<g id="node29" class="node">
<title>SG_3_Node_1</title>
<polygon fill="none" stroke="black" points="10453.5,-648.85 10352.5,-648.85 10352.5,-612.85 10453.5,-612.85 10453.5,-648.85"/>
<text text-anchor="middle" x="10403" y="-625.85" font-family="Times,serif" font-size="20.00">browser</text>
</g>
<!-- SG_3_Node_0&#45;&gt;SG_3_Node_1 -->
<g id="edge25" class="edge">
<title>SG_3_Node_0&#45;&gt;SG_3_Node_1</title>
<path fill="none" stroke="black" d="M10621.48,-860.55C10580.52,-817.68 10474.2,-706.38 10426.62,-656.58"/>
<polygon fill="black" stroke="black" points="10428.94,-653.95 10419.51,-649.13 10423.88,-658.78 10428.94,-653.95"/>
<text text-anchor="middle" x="10648.5" y="-760.85" font-family="Times,serif" font-size="20.00">[NA]</text>
<text text-anchor="middle" x="10648.5" y="-738.85" font-family="Times,serif" font-size="20.00">29 levels</text>
</g>
<!-- SG_3_Node_2 -->
<g id="node30" class="node">
<title>SG_3_Node_2</title>
<polygon fill="none" stroke="black" points="10925.5,-648.85 10824.5,-648.85 10824.5,-612.85 10925.5,-612.85 10925.5,-648.85"/>
<text text-anchor="middle" x="10875" y="-625.85" font-family="Times,serif" font-size="20.00">browser</text>
</g>
<!-- SG_3_Node_0&#45;&gt;SG_3_Node_2 -->
<g id="edge26" class="edge">
<title>SG_3_Node_0&#45;&gt;SG_3_Node_2</title>
<path fill="none" stroke="black" d="M10672.06,-860.71C10680.92,-855.54 10690.16,-849.46 10698,-842.85 10766.26,-785.31 10829.11,-699.46 10858.12,-657.21"/>
<polygon fill="black" stroke="black" points="10861.06,-659.11 10863.79,-648.88 10855.27,-655.17 10861.06,-659.11"/>
<text text-anchor="middle" x="10893.5" y="-749.85" font-family="Times,serif" font-size="20.00">25 levels</text>
</g>
<!-- SG_3_Node_4 -->
<g id="node31" class="node">
<title>SG_3_Node_4</title>
<ellipse fill="none" stroke="black" cx="9677" cy="-401.64" rx="33.88" ry="21.43"/>
<text text-anchor="middle" x="9677" y="-396.64" font-family="Times,serif" font-size="20.00">0.0</text>
</g>
<!-- SG_3_Node_1&#45;&gt;SG_3_Node_4 -->
<g id="edge29" class="edge">
<title>SG_3_Node_1&#45;&gt;SG_3_Node_4</title>
<path fill="none" stroke="black" d="M10352.33,-629.28C10191.75,-627.22 9703.35,-618.98 9680,-594.85 9638.3,-551.76 9653.66,-474.47 9666.52,-432.21"/>
<polygon fill="black" stroke="black" points="9669.91,-433.1 9669.62,-422.51 9663.24,-430.97 9669.91,-433.1"/>
<text text-anchor="middle" x="10039.5" y="-578.85" font-family="Times,serif" font-size="20.00">[NA]</text>
<text text-anchor="middle" x="10039.5" y="-556.85" font-family="Times,serif" font-size="20.00">brave Ubuntu 22.04 1.60.114 (119.0.6045.124) selenium headless&#45;new</text>
<text text-anchor="middle" x="10039.5" y="-534.85" font-family="Times,serif" font-size="20.00">brave Ubuntu 22.04 1.60.114 (119.0.6045.124) selenium xvfb</text>
<text text-anchor="middle" x="10039.5" y="-512.85" font-family="Times,serif" font-size="20.00">chrome Ubuntu 22.04 119 selenium headless&#45;new</text>
<text text-anchor="middle" x="10039.5" y="-490.85" font-family="Times,serif" font-size="20.00">chrome Ubuntu 22.04 119 selenium xvfb</text>
<text text-anchor="middle" x="10039.5" y="-468.85" font-family="Times,serif" font-size="20.00">edge Ubuntu 22.04 119 selenium headless&#45;new</text>
<text text-anchor="middle" x="10039.5" y="-446.85" font-family="Times,serif" font-size="20.00">edge Ubuntu 22.04 119 selenium xvfb</text>
</g>
<!-- SG_3_Node_3 -->
<g id="node32" class="node">
<title>SG_3_Node_3</title>
<polygon fill="none" stroke="black" points="10471.5,-419.64 10334.5,-419.64 10334.5,-383.64 10471.5,-383.64 10471.5,-419.64"/>
<text text-anchor="middle" x="10403" y="-396.64" font-family="Times,serif" font-size="20.00">raw_header</text>
</g>
<!-- SG_3_Node_1&#45;&gt;SG_3_Node_3 -->
<g id="edge30" class="edge">
<title>SG_3_Node_1&#45;&gt;SG_3_Node_3</title>
<path fill="none" stroke="black" d="M10403,-612.77C10403,-573.71 10403,-477.56 10403,-430.08"/>
<polygon fill="black" stroke="black" points="10406.5,-429.92 10403,-419.92 10399.5,-429.92 10406.5,-429.92"/>
<text text-anchor="middle" x="10627.5" y="-523.85" font-family="Times,serif" font-size="20.00">firefox Ubuntu 22.04 119 selenium headless</text>
<text text-anchor="middle" x="10627.5" y="-501.85" font-family="Times,serif" font-size="20.00">firefox Ubuntu 22.04 119 selenium xvfb</text>
</g>
<!-- SG_3_Node_5 -->
<g id="node33" class="node">
<title>SG_3_Node_5</title>
<ellipse fill="none" stroke="black" cx="10875" cy="-401.64" rx="33.88" ry="21.43"/>
<text text-anchor="middle" x="10875" y="-396.64" font-family="Times,serif" font-size="20.00">0.0</text>
</g>
<!-- SG_3_Node_2&#45;&gt;SG_3_Node_5 -->
<g id="edge27" class="edge">
<title>SG_3_Node_2&#45;&gt;SG_3_Node_5</title>
<path fill="none" stroke="black" d="M10875,-612.77C10875,-574.59 10875,-481.85 10875,-433.35"/>
<polygon fill="black" stroke="black" points="10878.5,-433.14 10875,-423.14 10871.5,-433.14 10878.5,-433.14"/>
<text text-anchor="middle" x="11099.5" y="-523.85" font-family="Times,serif" font-size="20.00">firefox Ubuntu 22.04 119 selenium headless</text>
<text text-anchor="middle" x="11099.5" y="-501.85" font-family="Times,serif" font-size="20.00">firefox Ubuntu 22.04 119 selenium xvfb</text>
</g>
<!-- SG_3_Node_6 -->
<g id="node34" class="node">
<title>SG_3_Node_6</title>
<ellipse fill="none" stroke="black" cx="11347" cy="-401.64" rx="33.88" ry="21.43"/>
<text text-anchor="middle" x="11347" y="-396.64" font-family="Times,serif" font-size="20.00">1.0</text>
</g>
<!-- SG_3_Node_2&#45;&gt;SG_3_Node_6 -->
<g id="edge28" class="edge">
<title>SG_3_Node_2&#45;&gt;SG_3_Node_6</title>
<path fill="none" stroke="black" d="M10925.71,-629.47C11037.36,-628.13 11296.76,-622.08 11325,-594.85 11368.35,-553.05 11361.77,-475.51 11353.93,-432.8"/>
<polygon fill="black" stroke="black" points="11357.32,-431.87 11351.94,-422.74 11350.45,-433.23 11357.32,-431.87"/>
<text text-anchor="middle" x="11718.5" y="-578.85" font-family="Times,serif" font-size="20.00">[NA]</text>
<text text-anchor="middle" x="11718.5" y="-556.85" font-family="Times,serif" font-size="20.00">brave Ubuntu 22.04 1.60.114 (119.0.6045.124) selenium headless&#45;new</text>
<text text-anchor="middle" x="11718.5" y="-534.85" font-family="Times,serif" font-size="20.00">brave Ubuntu 22.04 1.60.114 (119.0.6045.124) selenium xvfb</text>
<text text-anchor="middle" x="11718.5" y="-512.85" font-family="Times,serif" font-size="20.00">chrome Ubuntu 22.04 119 selenium headless&#45;new</text>
<text text-anchor="middle" x="11718.5" y="-490.85" font-family="Times,serif" font-size="20.00">chrome Ubuntu 22.04 119 selenium xvfb</text>
<text text-anchor="middle" x="11718.5" y="-468.85" font-family="Times,serif" font-size="20.00">edge Ubuntu 22.04 119 selenium headless&#45;new</text>
<text text-anchor="middle" x="11718.5" y="-446.85" font-family="Times,serif" font-size="20.00">edge Ubuntu 22.04 119 selenium xvfb</text>
</g>
<!-- SG_3_Node_7 -->
<g id="node35" class="node">
<title>SG_3_Node_7</title>
<ellipse fill="none" stroke="black" cx="10346" cy="-37.21" rx="33.88" ry="21.43"/>
<text text-anchor="middle" x="10346" y="-32.21" font-family="Times,serif" font-size="20.00">0.0</text>
</g>
<!-- SG_3_Node_3&#45;&gt;SG_3_Node_7 -->
<g id="edge31" class="edge">
<title>SG_3_Node_3&#45;&gt;SG_3_Node_7</title>
<path fill="none" stroke="black" d="M10366.82,-383.49C10358.89,-377.94 10351.52,-370.95 10347,-362.43 10295.63,-265.55 10321.86,-128.38 10337.34,-68.33"/>
<polygon fill="black" stroke="black" points="10340.8,-68.94 10339.99,-58.37 10334.03,-67.13 10340.8,-68.94"/>
<text text-anchor="middle" x="10392.5" y="-214.43" font-family="Times,serif" font-size="20.00">11 levels</text>
</g>
<!-- SG_3_Node_8 -->
<g id="node36" class="node">
<title>SG_3_Node_8</title>
<ellipse fill="none" stroke="black" cx="10460" cy="-37.21" rx="33.88" ry="21.43"/>
<text text-anchor="middle" x="10460" y="-32.21" font-family="Times,serif" font-size="20.00">1.0</text>
</g>
<!-- SG_3_Node_3&#45;&gt;SG_3_Node_8 -->
<g id="edge32" class="edge">
<title>SG_3_Node_3&#45;&gt;SG_3_Node_8</title>
<path fill="none" stroke="black" d="M10423.31,-383.44C10429.07,-377.42 10434.67,-370.2 10438,-362.43 10480.97,-262.1 10471.56,-128.25 10464.4,-68.85"/>
<polygon fill="black" stroke="black" points="10467.83,-68.12 10463.1,-58.64 10460.89,-69.01 10467.83,-68.12"/>
<text text-anchor="middle" x="10515.5" y="-225.43" font-family="Times,serif" font-size="20.00">[NA]</text>
<text text-anchor="middle" x="10515.5" y="-203.43" font-family="Times,serif" font-size="20.00">18 levels</text>
</g>
</g>
</svg>
