<?xml version="1.0" encoding="UTF-8" standalone="no"?>
<!DOCTYPE svg PUBLIC "-//W3C//DTD SVG 1.1//EN"
 "http://www.w3.org/Graphics/SVG/1.1/DTD/svg11.dtd">
<!-- Generated by graphviz version 2.43.0 (0)
 -->
<!-- Title: G Pages: 1 -->
<svg width="4910pt" height="809pt"
 viewBox="0.00 0.00 4910.00 809.28" xmlns="http://www.w3.org/2000/svg" xmlns:xlink="http://www.w3.org/1999/xlink">
<g id="graph0" class="graph" transform="scale(1 1) rotate(0) translate(4 805.28)">
<title>G</title>
<polygon fill="white" stroke="transparent" points="-4,4 -4,-805.28 4906,-805.28 4906,4 -4,4"/>
<g id="clust1" class="cluster">
<title>cluster_0</title>
<polygon fill="none" stroke="black" points="8,-8 8,-793.28 2447,-793.28 2447,-8 8,-8"/>
<text text-anchor="middle" x="1227.5" y="-757.28" font-family="Times,serif" font-size="40.00">Tree 0, Class message send</text>
</g>
<g id="clust7" class="cluster">
<title>cluster_1</title>
<polygon fill="none" stroke="black" points="2455,-8 2455,-793.28 4894,-793.28 4894,-8 2455,-8"/>
<text text-anchor="middle" x="3674.5" y="-757.28" font-family="Times,serif" font-size="40.00">Tree 0, Class message timeout</text>
</g>
<!-- SG_0_Node_0 -->
<g id="node1" class="node">
<title>SG_0_Node_0</title>
<polygon fill="none" stroke="black" points="1079.5,-733.28 942.5,-733.28 942.5,-697.28 1079.5,-697.28 1079.5,-733.28"/>
<text text-anchor="middle" x="1011" y="-710.28" font-family="Times,serif" font-size="20.00">raw_header</text>
</g>
<!-- SG_0_Node_1 -->
<g id="node2" class="node">
<title>SG_0_Node_1</title>
<polygon fill="none" stroke="black" points="826.5,-617.28 725.5,-617.28 725.5,-581.28 826.5,-581.28 826.5,-617.28"/>
<text text-anchor="middle" x="776" y="-594.28" font-family="Times,serif" font-size="20.00">browser</text>
</g>
<!-- SG_0_Node_0&#45;&gt;SG_0_Node_1 -->
<g id="edge1" class="edge">
<title>SG_0_Node_0&#45;&gt;SG_0_Node_1</title>
<path fill="none" stroke="black" d="M975.82,-697.21C934.46,-677.15 865.75,-643.82 820.67,-621.95"/>
<polygon fill="black" stroke="black" points="821.95,-618.68 811.42,-617.46 818.89,-624.98 821.95,-618.68"/>
<text text-anchor="middle" x="979.5" y="-652.28" font-family="Times,serif" font-size="20.00">40 levels</text>
</g>
<!-- SG_0_Node_2 -->
<g id="node3" class="node">
<title>SG_0_Node_2</title>
<polygon fill="none" stroke="black" points="1298.5,-617.28 1197.5,-617.28 1197.5,-581.28 1298.5,-581.28 1298.5,-617.28"/>
<text text-anchor="middle" x="1248" y="-594.28" font-family="Times,serif" font-size="20.00">browser</text>
</g>
<!-- SG_0_Node_0&#45;&gt;SG_0_Node_2 -->
<g id="edge2" class="edge">
<title>SG_0_Node_0&#45;&gt;SG_0_Node_2</title>
<path fill="none" stroke="black" d="M1046.48,-697.21C1088.28,-677.11 1157.78,-643.68 1203.24,-621.81"/>
<polygon fill="black" stroke="black" points="1204.78,-624.95 1212.28,-617.46 1201.75,-618.64 1204.78,-624.95"/>
<text text-anchor="middle" x="1223" y="-663.28" font-family="Times,serif" font-size="20.00">[NA]</text>
<text text-anchor="middle" x="1223" y="-641.28" font-family="Times,serif" font-size="20.00">105 levels</text>
</g>
<!-- SG_0_Node_6 -->
<g id="node4" class="node">
<title>SG_0_Node_6</title>
<ellipse fill="none" stroke="black" cx="50" cy="-370.07" rx="33.88" ry="21.43"/>
<text text-anchor="middle" x="50" y="-365.07" font-family="Times,serif" font-size="20.00">0.0</text>
</g>
<!-- SG_0_Node_1&#45;&gt;SG_0_Node_6 -->
<g id="edge11" class="edge">
<title>SG_0_Node_1&#45;&gt;SG_0_Node_6</title>
<path fill="none" stroke="black" d="M725.33,-597.71C564.75,-595.64 76.35,-587.41 53,-563.28 11.3,-520.19 26.66,-442.89 39.52,-400.64"/>
<polygon fill="black" stroke="black" points="42.91,-401.53 42.62,-390.94 36.24,-399.4 42.91,-401.53"/>
<text text-anchor="middle" x="412.5" y="-547.28" font-family="Times,serif" font-size="20.00">[NA]</text>
<text text-anchor="middle" x="412.5" y="-525.28" font-family="Times,serif" font-size="20.00">brave Ubuntu 22.04 1.60.114 (119.0.6045.124) selenium headless&#45;new</text>
<text text-anchor="middle" x="412.5" y="-503.28" font-family="Times,serif" font-size="20.00">brave Ubuntu 22.04 1.60.114 (119.0.6045.124) selenium xvfb</text>
<text text-anchor="middle" x="412.5" y="-481.28" font-family="Times,serif" font-size="20.00">chrome Ubuntu 22.04 119 selenium headless&#45;new</text>
<text text-anchor="middle" x="412.5" y="-459.28" font-family="Times,serif" font-size="20.00">chrome Ubuntu 22.04 119 selenium xvfb</text>
<text text-anchor="middle" x="412.5" y="-437.28" font-family="Times,serif" font-size="20.00">edge Ubuntu 22.04 119 selenium headless&#45;new</text>
<text text-anchor="middle" x="412.5" y="-415.28" font-family="Times,serif" font-size="20.00">edge Ubuntu 22.04 119 selenium xvfb</text>
</g>
<!-- SG_0_Node_7 -->
<g id="node5" class="node">
<title>SG_0_Node_7</title>
<ellipse fill="none" stroke="black" cx="776" cy="-370.07" rx="33.88" ry="21.43"/>
<text text-anchor="middle" x="776" y="-365.07" font-family="Times,serif" font-size="20.00">1.0</text>
</g>
<!-- SG_0_Node_1&#45;&gt;SG_0_Node_7 -->
<g id="edge12" class="edge">
<title>SG_0_Node_1&#45;&gt;SG_0_Node_7</title>
<path fill="none" stroke="black" d="M776,-581.2C776,-543.01 776,-450.27 776,-401.77"/>
<polygon fill="black" stroke="black" points="779.5,-401.57 776,-391.57 772.5,-401.57 779.5,-401.57"/>
<text text-anchor="middle" x="1000.5" y="-492.28" font-family="Times,serif" font-size="20.00">firefox Ubuntu 22.04 119 selenium headless</text>
<text text-anchor="middle" x="1000.5" y="-470.28" font-family="Times,serif" font-size="20.00">firefox Ubuntu 22.04 119 selenium xvfb</text>
</g>
<!-- SG_0_Node_3 -->
<g id="node6" class="node">
<title>SG_0_Node_3</title>
<polygon fill="none" stroke="black" points="1206.5,-388.07 1069.5,-388.07 1069.5,-352.07 1206.5,-352.07 1206.5,-388.07"/>
<text text-anchor="middle" x="1138" y="-365.07" font-family="Times,serif" font-size="20.00">raw_header</text>
</g>
<!-- SG_0_Node_2&#45;&gt;SG_0_Node_3 -->
<g id="edge3" class="edge">
<title>SG_0_Node_2&#45;&gt;SG_0_Node_3</title>
<path fill="none" stroke="black" d="M1248.13,-581.1C1248.12,-539.78 1246.03,-436.27 1226,-409.28 1221.32,-402.98 1215.39,-397.7 1208.82,-393.29"/>
<polygon fill="black" stroke="black" points="1210.58,-390.26 1200.2,-388.14 1206.99,-396.27 1210.58,-390.26"/>
<text text-anchor="middle" x="1471.5" y="-492.28" font-family="Times,serif" font-size="20.00">firefox Ubuntu 22.04 119 selenium headless</text>
<text text-anchor="middle" x="1471.5" y="-470.28" font-family="Times,serif" font-size="20.00">firefox Ubuntu 22.04 119 selenium xvfb</text>
</g>
<!-- SG_0_Node_4 -->
<g id="node7" class="node">
<title>SG_0_Node_4</title>
<polygon fill="none" stroke="black" points="1788.5,-388.07 1651.5,-388.07 1651.5,-352.07 1788.5,-352.07 1788.5,-388.07"/>
<text text-anchor="middle" x="1720" y="-365.07" font-family="Times,serif" font-size="20.00">raw_header</text>
</g>
<!-- SG_0_Node_2&#45;&gt;SG_0_Node_4 -->
<g id="edge4" class="edge">
<title>SG_0_Node_2&#45;&gt;SG_0_Node_4</title>
<path fill="none" stroke="black" d="M1298.71,-597.9C1410.36,-596.56 1669.76,-590.51 1698,-563.28 1720.99,-541.11 1721.96,-445.79 1720.94,-398.25"/>
<polygon fill="black" stroke="black" points="1724.44,-397.97 1720.68,-388.07 1717.44,-398.15 1724.44,-397.97"/>
<text text-anchor="middle" x="2080.5" y="-547.28" font-family="Times,serif" font-size="20.00">[NA]</text>
<text text-anchor="middle" x="2080.5" y="-525.28" font-family="Times,serif" font-size="20.00">brave Ubuntu 22.04 1.60.114 (119.0.6045.124) selenium headless&#45;new</text>
<text text-anchor="middle" x="2080.5" y="-503.28" font-family="Times,serif" font-size="20.00">brave Ubuntu 22.04 1.60.114 (119.0.6045.124) selenium xvfb</text>
<text text-anchor="middle" x="2080.5" y="-481.28" font-family="Times,serif" font-size="20.00">chrome Ubuntu 22.04 119 selenium headless&#45;new</text>
<text text-anchor="middle" x="2080.5" y="-459.28" font-family="Times,serif" font-size="20.00">chrome Ubuntu 22.04 119 selenium xvfb</text>
<text text-anchor="middle" x="2080.5" y="-437.28" font-family="Times,serif" font-size="20.00">edge Ubuntu 22.04 119 selenium headless&#45;new</text>
<text text-anchor="middle" x="2080.5" y="-415.28" font-family="Times,serif" font-size="20.00">edge Ubuntu 22.04 119 selenium xvfb</text>
</g>
<!-- SG_0_Node_8 -->
<g id="node8" class="node">
<title>SG_0_Node_8</title>
<ellipse fill="none" stroke="black" cx="1011" cy="-247.64" rx="33.88" ry="21.43"/>
<text text-anchor="middle" x="1011" y="-242.64" font-family="Times,serif" font-size="20.00">0.0</text>
</g>
<!-- SG_0_Node_3&#45;&gt;SG_0_Node_8 -->
<g id="edge9" class="edge">
<title>SG_0_Node_3&#45;&gt;SG_0_Node_8</title>
<path fill="none" stroke="black" d="M1069.24,-356.22C1054.58,-350.6 1040.4,-342.5 1030,-330.85 1017.48,-316.83 1012.73,-296.2 1011.12,-279.11"/>
<polygon fill="black" stroke="black" points="1014.61,-278.78 1010.48,-269.02 1007.62,-279.23 1014.61,-278.78"/>
<text text-anchor="middle" x="1082" y="-314.85" font-family="Times,serif" font-size="20.00">[NA]</text>
<text text-anchor="middle" x="1082" y="-292.85" font-family="Times,serif" font-size="20.00">104 levels</text>
</g>
<!-- SG_0_Node_9 -->
<g id="node9" class="node">
<title>SG_0_Node_9</title>
<ellipse fill="none" stroke="black" cx="1138" cy="-247.64" rx="33.88" ry="21.43"/>
<text text-anchor="middle" x="1138" y="-242.64" font-family="Times,serif" font-size="20.00">1.0</text>
</g>
<!-- SG_0_Node_3&#45;&gt;SG_0_Node_9 -->
<g id="edge10" class="edge">
<title>SG_0_Node_3&#45;&gt;SG_0_Node_9</title>
<path fill="none" stroke="black" d="M1138,-351.81C1138,-332.95 1138,-302.34 1138,-279.36"/>
<polygon fill="black" stroke="black" points="1141.5,-279.09 1138,-269.09 1134.5,-279.09 1141.5,-279.09"/>
<text text-anchor="middle" x="1417.5" y="-303.85" font-family="Times,serif" font-size="20.00">[[&#39;content&#45;security&#45;policy&#39;, &quot;x1cframe&#45;ancestors &#39;self&#39;&quot;]]</text>
</g>
<!-- SG_0_Node_5 -->
<g id="node10" class="node">
<title>SG_0_Node_5</title>
<polygon fill="none" stroke="black" points="1770.5,-265.64 1669.5,-265.64 1669.5,-229.64 1770.5,-229.64 1770.5,-265.64"/>
<text text-anchor="middle" x="1720" y="-242.64" font-family="Times,serif" font-size="20.00">browser</text>
</g>
<!-- SG_0_Node_4&#45;&gt;SG_0_Node_5 -->
<g id="edge5" class="edge">
<title>SG_0_Node_4&#45;&gt;SG_0_Node_5</title>
<path fill="none" stroke="black" d="M1720,-351.81C1720,-332.05 1720,-299.4 1720,-276.13"/>
<polygon fill="black" stroke="black" points="1723.5,-275.86 1720,-265.86 1716.5,-275.86 1723.5,-275.86"/>
<text text-anchor="middle" x="2004" y="-314.85" font-family="Times,serif" font-size="20.00">[[&#39;content&#45;security&#45;policy&#39;, &quot;x1cframe&#45;ancestors &#39;self&#39;&quot;]]</text>
<text text-anchor="middle" x="2004" y="-292.85" font-family="Times,serif" font-size="20.00">[[&#39;content&#45;security&#45;policy&#39;, &quot;frame&#45;ancestors &#39;none&#39;x7f&quot;]]</text>
</g>
<!-- SG_0_Node_10 -->
<g id="node11" class="node">
<title>SG_0_Node_10</title>
<ellipse fill="none" stroke="black" cx="2311" cy="-247.64" rx="33.88" ry="21.43"/>
<text text-anchor="middle" x="2311" y="-242.64" font-family="Times,serif" font-size="20.00">1.0</text>
</g>
<!-- SG_0_Node_4&#45;&gt;SG_0_Node_10 -->
<g id="edge6" class="edge">
<title>SG_0_Node_4&#45;&gt;SG_0_Node_10</title>
<path fill="none" stroke="black" d="M1788.56,-368.86C1931.47,-367.82 2251.15,-361.98 2289,-330.85 2304.07,-318.46 2309.45,-296.97 2311.12,-279.07"/>
<polygon fill="black" stroke="black" points="2314.62,-279.23 2311.72,-269.04 2307.63,-278.81 2314.62,-279.23"/>
<text text-anchor="middle" x="2362" y="-314.85" font-family="Times,serif" font-size="20.00">[NA]</text>
<text text-anchor="middle" x="2362" y="-292.85" font-family="Times,serif" font-size="20.00">103 levels</text>
</g>
<!-- SG_0_Node_11 -->
<g id="node12" class="node">
<title>SG_0_Node_11</title>
<ellipse fill="none" stroke="black" cx="1284" cy="-37.21" rx="33.88" ry="21.43"/>
<text text-anchor="middle" x="1284" y="-32.21" font-family="Times,serif" font-size="20.00">0.0</text>
</g>
<!-- SG_0_Node_5&#45;&gt;SG_0_Node_11 -->
<g id="edge7" class="edge">
<title>SG_0_Node_5&#45;&gt;SG_0_Node_11</title>
<path fill="none" stroke="black" d="M1669.44,-245.52C1564.1,-242.7 1328.7,-233.62 1303,-208.43 1266.13,-172.27 1270.54,-106.84 1277.19,-68.49"/>
<polygon fill="black" stroke="black" points="1280.67,-68.91 1279.09,-58.43 1273.79,-67.61 1280.67,-68.91"/>
<text text-anchor="middle" x="1509.5" y="-137.43" font-family="Times,serif" font-size="20.00">chrome Ubuntu 22.04 119 selenium xvfb</text>
</g>
<!-- SG_0_Node_12 -->
<g id="node13" class="node">
<title>SG_0_Node_12</title>
<ellipse fill="none" stroke="black" cx="1720" cy="-37.21" rx="33.88" ry="21.43"/>
<text text-anchor="middle" x="1720" y="-32.21" font-family="Times,serif" font-size="20.00">1.0</text>
</g>
<!-- SG_0_Node_5&#45;&gt;SG_0_Node_12 -->
<g id="edge8" class="edge">
<title>SG_0_Node_5&#45;&gt;SG_0_Node_12</title>
<path fill="none" stroke="black" d="M1720,-229.58C1720,-194.37 1720,-113.23 1720,-68.75"/>
<polygon fill="black" stroke="black" points="1723.5,-68.54 1720,-58.54 1716.5,-68.54 1723.5,-68.54"/>
<text text-anchor="middle" x="2079.5" y="-192.43" font-family="Times,serif" font-size="20.00">[NA]</text>
<text text-anchor="middle" x="2079.5" y="-170.43" font-family="Times,serif" font-size="20.00">brave Ubuntu 22.04 1.60.114 (119.0.6045.124) selenium headless&#45;new</text>
<text text-anchor="middle" x="2079.5" y="-148.43" font-family="Times,serif" font-size="20.00">brave Ubuntu 22.04 1.60.114 (119.0.6045.124) selenium xvfb</text>
<text text-anchor="middle" x="2079.5" y="-126.43" font-family="Times,serif" font-size="20.00">chrome Ubuntu 22.04 119 selenium headless&#45;new</text>
<text text-anchor="middle" x="2079.5" y="-104.43" font-family="Times,serif" font-size="20.00">edge Ubuntu 22.04 119 selenium headless&#45;new</text>
<text text-anchor="middle" x="2079.5" y="-82.43" font-family="Times,serif" font-size="20.00">edge Ubuntu 22.04 119 selenium xvfb</text>
</g>
<!-- SG_1_Node_0 -->
<g id="node14" class="node">
<title>SG_1_Node_0</title>
<polygon fill="none" stroke="black" points="3526.5,-733.28 3389.5,-733.28 3389.5,-697.28 3526.5,-697.28 3526.5,-733.28"/>
<text text-anchor="middle" x="3458" y="-710.28" font-family="Times,serif" font-size="20.00">raw_header</text>
</g>
<!-- SG_1_Node_1 -->
<g id="node15" class="node">
<title>SG_1_Node_1</title>
<polygon fill="none" stroke="black" points="3273.5,-617.28 3172.5,-617.28 3172.5,-581.28 3273.5,-581.28 3273.5,-617.28"/>
<text text-anchor="middle" x="3223" y="-594.28" font-family="Times,serif" font-size="20.00">browser</text>
</g>
<!-- SG_1_Node_0&#45;&gt;SG_1_Node_1 -->
<g id="edge13" class="edge">
<title>SG_1_Node_0&#45;&gt;SG_1_Node_1</title>
<path fill="none" stroke="black" d="M3422.82,-697.21C3381.46,-677.15 3312.75,-643.82 3267.67,-621.95"/>
<polygon fill="black" stroke="black" points="3268.95,-618.68 3258.42,-617.46 3265.89,-624.98 3268.95,-618.68"/>
<text text-anchor="middle" x="3433" y="-663.28" font-family="Times,serif" font-size="20.00">[NA]</text>
<text text-anchor="middle" x="3433" y="-641.28" font-family="Times,serif" font-size="20.00">105 levels</text>
</g>
<!-- SG_1_Node_2 -->
<g id="node16" class="node">
<title>SG_1_Node_2</title>
<polygon fill="none" stroke="black" points="3745.5,-617.28 3644.5,-617.28 3644.5,-581.28 3745.5,-581.28 3745.5,-617.28"/>
<text text-anchor="middle" x="3695" y="-594.28" font-family="Times,serif" font-size="20.00">browser</text>
</g>
<!-- SG_1_Node_0&#45;&gt;SG_1_Node_2 -->
<g id="edge14" class="edge">
<title>SG_1_Node_0&#45;&gt;SG_1_Node_2</title>
<path fill="none" stroke="black" d="M3493.48,-697.21C3535.28,-677.11 3604.78,-643.68 3650.24,-621.81"/>
<polygon fill="black" stroke="black" points="3651.78,-624.95 3659.28,-617.46 3648.75,-618.64 3651.78,-624.95"/>
<text text-anchor="middle" x="3663.5" y="-652.28" font-family="Times,serif" font-size="20.00">40 levels</text>
</g>
<!-- SG_1_Node_3 -->
<g id="node17" class="node">
<title>SG_1_Node_3</title>
<polygon fill="none" stroke="black" points="2600.5,-388.07 2463.5,-388.07 2463.5,-352.07 2600.5,-352.07 2600.5,-388.07"/>
<text text-anchor="middle" x="2532" y="-365.07" font-family="Times,serif" font-size="20.00">raw_header</text>
</g>
<!-- SG_1_Node_1&#45;&gt;SG_1_Node_3 -->
<g id="edge17" class="edge">
<title>SG_1_Node_1&#45;&gt;SG_1_Node_3</title>
<path fill="none" stroke="black" d="M3172.31,-597.72C3011.69,-595.7 2523.16,-587.59 2500,-563.28 2452.79,-513.73 2476.62,-473.61 2500,-409.28 2501.65,-404.74 2504.1,-400.36 2506.93,-396.3"/>
<polygon fill="black" stroke="black" points="2509.69,-398.45 2513.11,-388.42 2504.18,-394.12 2509.69,-398.45"/>
<text text-anchor="middle" x="2859.5" y="-547.28" font-family="Times,serif" font-size="20.00">[NA]</text>
<text text-anchor="middle" x="2859.5" y="-525.28" font-family="Times,serif" font-size="20.00">brave Ubuntu 22.04 1.60.114 (119.0.6045.124) selenium headless&#45;new</text>
<text text-anchor="middle" x="2859.5" y="-503.28" font-family="Times,serif" font-size="20.00">brave Ubuntu 22.04 1.60.114 (119.0.6045.124) selenium xvfb</text>
<text text-anchor="middle" x="2859.5" y="-481.28" font-family="Times,serif" font-size="20.00">chrome Ubuntu 22.04 119 selenium headless&#45;new</text>
<text text-anchor="middle" x="2859.5" y="-459.28" font-family="Times,serif" font-size="20.00">chrome Ubuntu 22.04 119 selenium xvfb</text>
<text text-anchor="middle" x="2859.5" y="-437.28" font-family="Times,serif" font-size="20.00">edge Ubuntu 22.04 119 selenium headless&#45;new</text>
<text text-anchor="middle" x="2859.5" y="-415.28" font-family="Times,serif" font-size="20.00">edge Ubuntu 22.04 119 selenium xvfb</text>
</g>
<!-- SG_1_Node_4 -->
<g id="node18" class="node">
<title>SG_1_Node_4</title>
<polygon fill="none" stroke="black" points="3291.5,-388.07 3154.5,-388.07 3154.5,-352.07 3291.5,-352.07 3291.5,-388.07"/>
<text text-anchor="middle" x="3223" y="-365.07" font-family="Times,serif" font-size="20.00">raw_header</text>
</g>
<!-- SG_1_Node_1&#45;&gt;SG_1_Node_4 -->
<g id="edge18" class="edge">
<title>SG_1_Node_1&#45;&gt;SG_1_Node_4</title>
<path fill="none" stroke="black" d="M3223,-581.2C3223,-542.14 3223,-445.98 3223,-398.5"/>
<polygon fill="black" stroke="black" points="3226.5,-398.34 3223,-388.34 3219.5,-398.34 3226.5,-398.34"/>
<text text-anchor="middle" x="3447.5" y="-492.28" font-family="Times,serif" font-size="20.00">firefox Ubuntu 22.04 119 selenium headless</text>
<text text-anchor="middle" x="3447.5" y="-470.28" font-family="Times,serif" font-size="20.00">firefox Ubuntu 22.04 119 selenium xvfb</text>
</g>
<!-- SG_1_Node_6 -->
<g id="node19" class="node">
<title>SG_1_Node_6</title>
<ellipse fill="none" stroke="black" cx="3695" cy="-370.07" rx="33.88" ry="21.43"/>
<text text-anchor="middle" x="3695" y="-365.07" font-family="Times,serif" font-size="20.00">0.0</text>
</g>
<!-- SG_1_Node_2&#45;&gt;SG_1_Node_6 -->
<g id="edge15" class="edge">
<title>SG_1_Node_2&#45;&gt;SG_1_Node_6</title>
<path fill="none" stroke="black" d="M3695,-581.2C3695,-543.01 3695,-450.27 3695,-401.77"/>
<polygon fill="black" stroke="black" points="3698.5,-401.57 3695,-391.57 3691.5,-401.57 3698.5,-401.57"/>
<text text-anchor="middle" x="3919.5" y="-492.28" font-family="Times,serif" font-size="20.00">firefox Ubuntu 22.04 119 selenium headless</text>
<text text-anchor="middle" x="3919.5" y="-470.28" font-family="Times,serif" font-size="20.00">firefox Ubuntu 22.04 119 selenium xvfb</text>
</g>
<!-- SG_1_Node_7 -->
<g id="node20" class="node">
<title>SG_1_Node_7</title>
<ellipse fill="none" stroke="black" cx="4167" cy="-370.07" rx="33.88" ry="21.43"/>
<text text-anchor="middle" x="4167" y="-365.07" font-family="Times,serif" font-size="20.00">1.0</text>
</g>
<!-- SG_1_Node_2&#45;&gt;SG_1_Node_7 -->
<g id="edge16" class="edge">
<title>SG_1_Node_2&#45;&gt;SG_1_Node_7</title>
<path fill="none" stroke="black" d="M3745.71,-597.9C3857.36,-596.56 4116.76,-590.51 4145,-563.28 4188.35,-521.47 4181.77,-443.94 4173.93,-401.23"/>
<polygon fill="black" stroke="black" points="4177.32,-400.3 4171.94,-391.16 4170.45,-401.65 4177.32,-400.3"/>
<text text-anchor="middle" x="4538.5" y="-547.28" font-family="Times,serif" font-size="20.00">[NA]</text>
<text text-anchor="middle" x="4538.5" y="-525.28" font-family="Times,serif" font-size="20.00">brave Ubuntu 22.04 1.60.114 (119.0.6045.124) selenium headless&#45;new</text>
<text text-anchor="middle" x="4538.5" y="-503.28" font-family="Times,serif" font-size="20.00">brave Ubuntu 22.04 1.60.114 (119.0.6045.124) selenium xvfb</text>
<text text-anchor="middle" x="4538.5" y="-481.28" font-family="Times,serif" font-size="20.00">chrome Ubuntu 22.04 119 selenium headless&#45;new</text>
<text text-anchor="middle" x="4538.5" y="-459.28" font-family="Times,serif" font-size="20.00">chrome Ubuntu 22.04 119 selenium xvfb</text>
<text text-anchor="middle" x="4538.5" y="-437.28" font-family="Times,serif" font-size="20.00">edge Ubuntu 22.04 119 selenium headless&#45;new</text>
<text text-anchor="middle" x="4538.5" y="-415.28" font-family="Times,serif" font-size="20.00">edge Ubuntu 22.04 119 selenium xvfb</text>
</g>
<!-- SG_1_Node_8 -->
<g id="node21" class="node">
<title>SG_1_Node_8</title>
<ellipse fill="none" stroke="black" cx="2499" cy="-247.64" rx="33.88" ry="21.43"/>
<text text-anchor="middle" x="2499" y="-242.64" font-family="Times,serif" font-size="20.00">0.0</text>
</g>
<!-- SG_1_Node_3&#45;&gt;SG_1_Node_8 -->
<g id="edge21" class="edge">
<title>SG_1_Node_3&#45;&gt;SG_1_Node_8</title>
<path fill="none" stroke="black" d="M2513.17,-351.69C2507.89,-345.66 2502.82,-338.48 2500,-330.85 2493.96,-314.54 2493.44,-295.12 2494.56,-279.26"/>
<polygon fill="black" stroke="black" points="2498.08,-279.21 2495.55,-268.93 2491.11,-278.55 2498.08,-279.21"/>
<text text-anchor="middle" x="2552" y="-314.85" font-family="Times,serif" font-size="20.00">[NA]</text>
<text text-anchor="middle" x="2552" y="-292.85" font-family="Times,serif" font-size="20.00">103 levels</text>
</g>
<!-- SG_1_Node_5 -->
<g id="node22" class="node">
<title>SG_1_Node_5</title>
<polygon fill="none" stroke="black" points="2676.5,-265.64 2575.5,-265.64 2575.5,-229.64 2676.5,-229.64 2676.5,-265.64"/>
<text text-anchor="middle" x="2626" y="-242.64" font-family="Times,serif" font-size="20.00">browser</text>
</g>
<!-- SG_1_Node_3&#45;&gt;SG_1_Node_5 -->
<g id="edge22" class="edge">
<title>SG_1_Node_3&#45;&gt;SG_1_Node_5</title>
<path fill="none" stroke="black" d="M2578.05,-351.86C2587.76,-346.41 2597.13,-339.49 2604,-330.85 2616.42,-315.25 2621.86,-293.24 2624.22,-275.92"/>
<polygon fill="black" stroke="black" points="2627.72,-276.17 2625.34,-265.85 2620.76,-275.4 2627.72,-276.17"/>
<text text-anchor="middle" x="2906" y="-314.85" font-family="Times,serif" font-size="20.00">[[&#39;content&#45;security&#45;policy&#39;, &quot;x1cframe&#45;ancestors &#39;self&#39;&quot;]]</text>
<text text-anchor="middle" x="2906" y="-292.85" font-family="Times,serif" font-size="20.00">[[&#39;content&#45;security&#45;policy&#39;, &quot;frame&#45;ancestors &#39;none&#39;x7f&quot;]]</text>
</g>
<!-- SG_1_Node_9 -->
<g id="node23" class="node">
<title>SG_1_Node_9</title>
<ellipse fill="none" stroke="black" cx="3221" cy="-247.64" rx="33.88" ry="21.43"/>
<text text-anchor="middle" x="3221" y="-242.64" font-family="Times,serif" font-size="20.00">0.0</text>
</g>
<!-- SG_1_Node_4&#45;&gt;SG_1_Node_9 -->
<g id="edge19" class="edge">
<title>SG_1_Node_4&#45;&gt;SG_1_Node_9</title>
<path fill="none" stroke="black" d="M3222.5,-351.95C3222.32,-345.35 3222.13,-337.75 3222,-330.85 3221.67,-313.69 3221.43,-294.51 3221.27,-279"/>
<polygon fill="black" stroke="black" points="3224.77,-278.88 3221.17,-268.91 3217.77,-278.95 3224.77,-278.88"/>
<text text-anchor="middle" x="3501.5" y="-303.85" font-family="Times,serif" font-size="20.00">[[&#39;content&#45;security&#45;policy&#39;, &quot;x1cframe&#45;ancestors &#39;self&#39;&quot;]]</text>
</g>
<!-- SG_1_Node_10 -->
<g id="node24" class="node">
<title>SG_1_Node_10</title>
<ellipse fill="none" stroke="black" cx="3803" cy="-247.64" rx="33.88" ry="21.43"/>
<text text-anchor="middle" x="3803" y="-242.64" font-family="Times,serif" font-size="20.00">1.0</text>
</g>
<!-- SG_1_Node_4&#45;&gt;SG_1_Node_10 -->
<g id="edge20" class="edge">
<title>SG_1_Node_4&#45;&gt;SG_1_Node_10</title>
<path fill="none" stroke="black" d="M3291.72,-366.48C3436.75,-360.73 3762.39,-346.18 3781,-330.85 3796.07,-318.45 3801.44,-296.96 3803.12,-279.06"/>
<polygon fill="black" stroke="black" points="3806.61,-279.23 3803.72,-269.04 3799.62,-278.81 3806.61,-279.23"/>
<text text-anchor="middle" x="3854" y="-314.85" font-family="Times,serif" font-size="20.00">[NA]</text>
<text text-anchor="middle" x="3854" y="-292.85" font-family="Times,serif" font-size="20.00">104 levels</text>
</g>
<!-- SG_1_Node_11 -->
<g id="node25" class="node">
<title>SG_1_Node_11</title>
<ellipse fill="none" stroke="black" cx="2562" cy="-37.21" rx="33.88" ry="21.43"/>
<text text-anchor="middle" x="2562" y="-32.21" font-family="Times,serif" font-size="20.00">0.0</text>
</g>
<!-- SG_1_Node_5&#45;&gt;SG_1_Node_11 -->
<g id="edge23" class="edge">
<title>SG_1_Node_5&#45;&gt;SG_1_Node_11</title>
<path fill="none" stroke="black" d="M2584.12,-229.5C2575.69,-224.04 2567.92,-217.11 2563,-208.43 2538.2,-164.67 2545.93,-103.86 2553.9,-68.01"/>
<polygon fill="black" stroke="black" points="2557.34,-68.7 2556.24,-58.17 2550.52,-67.09 2557.34,-68.7"/>
<text text-anchor="middle" x="2922.5" y="-192.43" font-family="Times,serif" font-size="20.00">[NA]</text>
<text text-anchor="middle" x="2922.5" y="-170.43" font-family="Times,serif" font-size="20.00">brave Ubuntu 22.04 1.60.114 (119.0.6045.124) selenium headless&#45;new</text>
<text text-anchor="middle" x="2922.5" y="-148.43" font-family="Times,serif" font-size="20.00">brave Ubuntu 22.04 1.60.114 (119.0.6045.124) selenium xvfb</text>
<text text-anchor="middle" x="2922.5" y="-126.43" font-family="Times,serif" font-size="20.00">chrome Ubuntu 22.04 119 selenium headless&#45;new</text>
<text text-anchor="middle" x="2922.5" y="-104.43" font-family="Times,serif" font-size="20.00">edge Ubuntu 22.04 119 selenium headless&#45;new</text>
<text text-anchor="middle" x="2922.5" y="-82.43" font-family="Times,serif" font-size="20.00">edge Ubuntu 22.04 119 selenium xvfb</text>
</g>
<!-- SG_1_Node_12 -->
<g id="node26" class="node">
<title>SG_1_Node_12</title>
<ellipse fill="none" stroke="black" cx="3304" cy="-37.21" rx="33.88" ry="21.43"/>
<text text-anchor="middle" x="3304" y="-32.21" font-family="Times,serif" font-size="20.00">1.0</text>
</g>
<!-- SG_1_Node_5&#45;&gt;SG_1_Node_12 -->
<g id="edge24" class="edge">
<title>SG_1_Node_5&#45;&gt;SG_1_Node_12</title>
<path fill="none" stroke="black" d="M2676.57,-245.44C2826.57,-241.66 3259.94,-228.99 3282,-208.43 3319.96,-173.05 3316.46,-107.05 3310.33,-68.45"/>
<polygon fill="black" stroke="black" points="3313.74,-67.59 3308.57,-58.34 3306.84,-68.79 3313.74,-67.59"/>
<text text-anchor="middle" x="3520.5" y="-137.43" font-family="Times,serif" font-size="20.00">chrome Ubuntu 22.04 119 selenium xvfb</text>
</g>
</g>
</svg>
