<?xml version="1.0" encoding="UTF-8" standalone="no"?>
<!DOCTYPE svg PUBLIC "-//W3C//DTD SVG 1.1//EN"
 "http://www.w3.org/Graphics/SVG/1.1/DTD/svg11.dtd">
<!-- Generated by graphviz version 2.43.0 (0)
 -->
<!-- Title: G Pages: 1 -->
<svg width="4910pt" height="476pt"
 viewBox="0.00 0.00 4910.00 476.43" xmlns="http://www.w3.org/2000/svg" xmlns:xlink="http://www.w3.org/1999/xlink">
<g id="graph0" class="graph" transform="scale(1 1) rotate(0) translate(4 472.43)">
<title>G</title>
<polygon fill="white" stroke="transparent" points="-4,4 -4,-472.43 4906,-472.43 4906,4 -4,4"/>
<g id="clust1" class="cluster">
<title>cluster_0</title>
<polygon fill="none" stroke="black" points="8,-8 8,-460.43 2447,-460.43 2447,-8 8,-8"/>
<text text-anchor="middle" x="1227.5" y="-424.43" font-family="Times,serif" font-size="40.00">Tree 0, Class message send</text>
</g>
<g id="clust5" class="cluster">
<title>cluster_1</title>
<polygon fill="none" stroke="black" points="2455,-8 2455,-460.43 4894,-460.43 4894,-8 2455,-8"/>
<text text-anchor="middle" x="3674.5" y="-424.43" font-family="Times,serif" font-size="40.00">Tree 0, Class message timeout</text>
</g>
<!-- SG_0_Node_0 -->
<g id="node1" class="node">
<title>SG_0_Node_0</title>
<polygon fill="none" stroke="black" points="1079.5,-400.43 942.5,-400.43 942.5,-364.43 1079.5,-364.43 1079.5,-400.43"/>
<text text-anchor="middle" x="1011" y="-377.43" font-family="Times,serif" font-size="20.00">raw_header</text>
</g>
<!-- SG_0_Node_1 -->
<g id="node2" class="node">
<title>SG_0_Node_1</title>
<polygon fill="none" stroke="black" points="826.5,-284.43 725.5,-284.43 725.5,-248.43 826.5,-248.43 826.5,-284.43"/>
<text text-anchor="middle" x="776" y="-261.43" font-family="Times,serif" font-size="20.00">browser</text>
</g>
<!-- SG_0_Node_0&#45;&gt;SG_0_Node_1 -->
<g id="edge1" class="edge">
<title>SG_0_Node_0&#45;&gt;SG_0_Node_1</title>
<path fill="none" stroke="black" d="M975.82,-364.36C934.46,-344.3 865.75,-310.96 820.67,-289.09"/>
<polygon fill="black" stroke="black" points="821.95,-285.83 811.42,-284.61 818.89,-292.12 821.95,-285.83"/>
<text text-anchor="middle" x="986" y="-319.43" font-family="Times,serif" font-size="20.00">118 levels</text>
</g>
<!-- SG_0_Node_2 -->
<g id="node3" class="node">
<title>SG_0_Node_2</title>
<polygon fill="none" stroke="black" points="1298.5,-284.43 1197.5,-284.43 1197.5,-248.43 1298.5,-248.43 1298.5,-284.43"/>
<text text-anchor="middle" x="1248" y="-261.43" font-family="Times,serif" font-size="20.00">browser</text>
</g>
<!-- SG_0_Node_0&#45;&gt;SG_0_Node_2 -->
<g id="edge2" class="edge">
<title>SG_0_Node_0&#45;&gt;SG_0_Node_2</title>
<path fill="none" stroke="black" d="M1046.48,-364.36C1088.28,-344.25 1157.78,-310.83 1203.24,-288.96"/>
<polygon fill="black" stroke="black" points="1204.78,-292.1 1212.28,-284.61 1201.75,-285.79 1204.78,-292.1"/>
<text text-anchor="middle" x="1223" y="-330.43" font-family="Times,serif" font-size="20.00">[NA]</text>
<text text-anchor="middle" x="1223" y="-308.43" font-family="Times,serif" font-size="20.00">104 levels</text>
</g>
<!-- SG_0_Node_3 -->
<g id="node4" class="node">
<title>SG_0_Node_3</title>
<ellipse fill="none" stroke="black" cx="50" cy="-37.21" rx="33.88" ry="21.43"/>
<text text-anchor="middle" x="50" y="-32.21" font-family="Times,serif" font-size="20.00">0.0</text>
</g>
<!-- SG_0_Node_1&#45;&gt;SG_0_Node_3 -->
<g id="edge5" class="edge">
<title>SG_0_Node_1&#45;&gt;SG_0_Node_3</title>
<path fill="none" stroke="black" d="M725.33,-264.85C564.75,-262.79 76.35,-254.55 53,-230.43 11.3,-187.33 26.66,-110.04 39.52,-67.78"/>
<polygon fill="black" stroke="black" points="42.91,-68.68 42.62,-58.09 36.24,-66.55 42.91,-68.68"/>
<text text-anchor="middle" x="412.5" y="-214.43" font-family="Times,serif" font-size="20.00">[NA]</text>
<text text-anchor="middle" x="412.5" y="-192.43" font-family="Times,serif" font-size="20.00">brave Ubuntu 22.04 1.60.114 (119.0.6045.124) selenium headless&#45;new</text>
<text text-anchor="middle" x="412.5" y="-170.43" font-family="Times,serif" font-size="20.00">brave Ubuntu 22.04 1.60.114 (119.0.6045.124) selenium xvfb</text>
<text text-anchor="middle" x="412.5" y="-148.43" font-family="Times,serif" font-size="20.00">chrome Ubuntu 22.04 119 selenium headless&#45;new</text>
<text text-anchor="middle" x="412.5" y="-126.43" font-family="Times,serif" font-size="20.00">chrome Ubuntu 22.04 119 selenium xvfb</text>
<text text-anchor="middle" x="412.5" y="-104.43" font-family="Times,serif" font-size="20.00">edge Ubuntu 22.04 119 selenium headless&#45;new</text>
<text text-anchor="middle" x="412.5" y="-82.43" font-family="Times,serif" font-size="20.00">edge Ubuntu 22.04 119 selenium xvfb</text>
</g>
<!-- SG_0_Node_4 -->
<g id="node5" class="node">
<title>SG_0_Node_4</title>
<ellipse fill="none" stroke="black" cx="776" cy="-37.21" rx="33.88" ry="21.43"/>
<text text-anchor="middle" x="776" y="-32.21" font-family="Times,serif" font-size="20.00">1.0</text>
</g>
<!-- SG_0_Node_1&#45;&gt;SG_0_Node_4 -->
<g id="edge6" class="edge">
<title>SG_0_Node_1&#45;&gt;SG_0_Node_4</title>
<path fill="none" stroke="black" d="M776,-248.35C776,-210.16 776,-117.42 776,-68.92"/>
<polygon fill="black" stroke="black" points="779.5,-68.72 776,-58.72 772.5,-68.72 779.5,-68.72"/>
<text text-anchor="middle" x="1000.5" y="-159.43" font-family="Times,serif" font-size="20.00">firefox Ubuntu 22.04 119 selenium headless</text>
<text text-anchor="middle" x="1000.5" y="-137.43" font-family="Times,serif" font-size="20.00">firefox Ubuntu 22.04 119 selenium xvfb</text>
</g>
<!-- SG_0_Node_5 -->
<g id="node6" class="node">
<title>SG_0_Node_5</title>
<ellipse fill="none" stroke="black" cx="1248" cy="-37.21" rx="33.88" ry="21.43"/>
<text text-anchor="middle" x="1248" y="-32.21" font-family="Times,serif" font-size="20.00">0.0</text>
</g>
<!-- SG_0_Node_2&#45;&gt;SG_0_Node_5 -->
<g id="edge3" class="edge">
<title>SG_0_Node_2&#45;&gt;SG_0_Node_5</title>
<path fill="none" stroke="black" d="M1248,-248.35C1248,-210.16 1248,-117.42 1248,-68.92"/>
<polygon fill="black" stroke="black" points="1251.5,-68.72 1248,-58.72 1244.5,-68.72 1251.5,-68.72"/>
<text text-anchor="middle" x="1472.5" y="-159.43" font-family="Times,serif" font-size="20.00">firefox Ubuntu 22.04 119 selenium headless</text>
<text text-anchor="middle" x="1472.5" y="-137.43" font-family="Times,serif" font-size="20.00">firefox Ubuntu 22.04 119 selenium xvfb</text>
</g>
<!-- SG_0_Node_6 -->
<g id="node7" class="node">
<title>SG_0_Node_6</title>
<ellipse fill="none" stroke="black" cx="1720" cy="-37.21" rx="33.88" ry="21.43"/>
<text text-anchor="middle" x="1720" y="-32.21" font-family="Times,serif" font-size="20.00">1.0</text>
</g>
<!-- SG_0_Node_2&#45;&gt;SG_0_Node_6 -->
<g id="edge4" class="edge">
<title>SG_0_Node_2&#45;&gt;SG_0_Node_6</title>
<path fill="none" stroke="black" d="M1298.71,-265.04C1410.36,-263.7 1669.76,-257.66 1698,-230.43 1720.48,-208.75 1721.91,-117.16 1721.01,-68.65"/>
<polygon fill="black" stroke="black" points="1724.5,-68.35 1720.77,-58.44 1717.51,-68.51 1724.5,-68.35"/>
<text text-anchor="middle" x="2080.5" y="-214.43" font-family="Times,serif" font-size="20.00">[NA]</text>
<text text-anchor="middle" x="2080.5" y="-192.43" font-family="Times,serif" font-size="20.00">brave Ubuntu 22.04 1.60.114 (119.0.6045.124) selenium headless&#45;new</text>
<text text-anchor="middle" x="2080.5" y="-170.43" font-family="Times,serif" font-size="20.00">brave Ubuntu 22.04 1.60.114 (119.0.6045.124) selenium xvfb</text>
<text text-anchor="middle" x="2080.5" y="-148.43" font-family="Times,serif" font-size="20.00">chrome Ubuntu 22.04 119 selenium headless&#45;new</text>
<text text-anchor="middle" x="2080.5" y="-126.43" font-family="Times,serif" font-size="20.00">chrome Ubuntu 22.04 119 selenium xvfb</text>
<text text-anchor="middle" x="2080.5" y="-104.43" font-family="Times,serif" font-size="20.00">edge Ubuntu 22.04 119 selenium headless&#45;new</text>
<text text-anchor="middle" x="2080.5" y="-82.43" font-family="Times,serif" font-size="20.00">edge Ubuntu 22.04 119 selenium xvfb</text>
</g>
<!-- SG_1_Node_0 -->
<g id="node8" class="node">
<title>SG_1_Node_0</title>
<polygon fill="none" stroke="black" points="3526.5,-400.43 3389.5,-400.43 3389.5,-364.43 3526.5,-364.43 3526.5,-400.43"/>
<text text-anchor="middle" x="3458" y="-377.43" font-family="Times,serif" font-size="20.00">raw_header</text>
</g>
<!-- SG_1_Node_1 -->
<g id="node9" class="node">
<title>SG_1_Node_1</title>
<polygon fill="none" stroke="black" points="3273.5,-284.43 3172.5,-284.43 3172.5,-248.43 3273.5,-248.43 3273.5,-284.43"/>
<text text-anchor="middle" x="3223" y="-261.43" font-family="Times,serif" font-size="20.00">browser</text>
</g>
<!-- SG_1_Node_0&#45;&gt;SG_1_Node_1 -->
<g id="edge7" class="edge">
<title>SG_1_Node_0&#45;&gt;SG_1_Node_1</title>
<path fill="none" stroke="black" d="M3422.82,-364.36C3381.46,-344.3 3312.75,-310.96 3267.67,-289.09"/>
<polygon fill="black" stroke="black" points="3268.95,-285.83 3258.42,-284.61 3265.89,-292.12 3268.95,-285.83"/>
<text text-anchor="middle" x="3433" y="-330.43" font-family="Times,serif" font-size="20.00">[NA]</text>
<text text-anchor="middle" x="3433" y="-308.43" font-family="Times,serif" font-size="20.00">104 levels</text>
</g>
<!-- SG_1_Node_2 -->
<g id="node10" class="node">
<title>SG_1_Node_2</title>
<polygon fill="none" stroke="black" points="3745.5,-284.43 3644.5,-284.43 3644.5,-248.43 3745.5,-248.43 3745.5,-284.43"/>
<text text-anchor="middle" x="3695" y="-261.43" font-family="Times,serif" font-size="20.00">browser</text>
</g>
<!-- SG_1_Node_0&#45;&gt;SG_1_Node_2 -->
<g id="edge8" class="edge">
<title>SG_1_Node_0&#45;&gt;SG_1_Node_2</title>
<path fill="none" stroke="black" d="M3493.48,-364.36C3535.28,-344.25 3604.78,-310.83 3650.24,-288.96"/>
<polygon fill="black" stroke="black" points="3651.78,-292.1 3659.28,-284.61 3648.75,-285.79 3651.78,-292.1"/>
<text text-anchor="middle" x="3670" y="-319.43" font-family="Times,serif" font-size="20.00">118 levels</text>
</g>
<!-- SG_1_Node_3 -->
<g id="node11" class="node">
<title>SG_1_Node_3</title>
<ellipse fill="none" stroke="black" cx="2497" cy="-37.21" rx="33.88" ry="21.43"/>
<text text-anchor="middle" x="2497" y="-32.21" font-family="Times,serif" font-size="20.00">0.0</text>
</g>
<!-- SG_1_Node_1&#45;&gt;SG_1_Node_3 -->
<g id="edge11" class="edge">
<title>SG_1_Node_1&#45;&gt;SG_1_Node_3</title>
<path fill="none" stroke="black" d="M3172.33,-264.85C3011.75,-262.79 2523.35,-254.55 2500,-230.43 2458.3,-187.33 2473.66,-110.04 2486.52,-67.78"/>
<polygon fill="black" stroke="black" points="2489.91,-68.68 2489.62,-58.09 2483.24,-66.55 2489.91,-68.68"/>
<text text-anchor="middle" x="2859.5" y="-214.43" font-family="Times,serif" font-size="20.00">[NA]</text>
<text text-anchor="middle" x="2859.5" y="-192.43" font-family="Times,serif" font-size="20.00">brave Ubuntu 22.04 1.60.114 (119.0.6045.124) selenium headless&#45;new</text>
<text text-anchor="middle" x="2859.5" y="-170.43" font-family="Times,serif" font-size="20.00">brave Ubuntu 22.04 1.60.114 (119.0.6045.124) selenium xvfb</text>
<text text-anchor="middle" x="2859.5" y="-148.43" font-family="Times,serif" font-size="20.00">chrome Ubuntu 22.04 119 selenium headless&#45;new</text>
<text text-anchor="middle" x="2859.5" y="-126.43" font-family="Times,serif" font-size="20.00">chrome Ubuntu 22.04 119 selenium xvfb</text>
<text text-anchor="middle" x="2859.5" y="-104.43" font-family="Times,serif" font-size="20.00">edge Ubuntu 22.04 119 selenium headless&#45;new</text>
<text text-anchor="middle" x="2859.5" y="-82.43" font-family="Times,serif" font-size="20.00">edge Ubuntu 22.04 119 selenium xvfb</text>
</g>
<!-- SG_1_Node_4 -->
<g id="node12" class="node">
<title>SG_1_Node_4</title>
<ellipse fill="none" stroke="black" cx="3223" cy="-37.21" rx="33.88" ry="21.43"/>
<text text-anchor="middle" x="3223" y="-32.21" font-family="Times,serif" font-size="20.00">1.0</text>
</g>
<!-- SG_1_Node_1&#45;&gt;SG_1_Node_4 -->
<g id="edge12" class="edge">
<title>SG_1_Node_1&#45;&gt;SG_1_Node_4</title>
<path fill="none" stroke="black" d="M3223,-248.35C3223,-210.16 3223,-117.42 3223,-68.92"/>
<polygon fill="black" stroke="black" points="3226.5,-68.72 3223,-58.72 3219.5,-68.72 3226.5,-68.72"/>
<text text-anchor="middle" x="3447.5" y="-159.43" font-family="Times,serif" font-size="20.00">firefox Ubuntu 22.04 119 selenium headless</text>
<text text-anchor="middle" x="3447.5" y="-137.43" font-family="Times,serif" font-size="20.00">firefox Ubuntu 22.04 119 selenium xvfb</text>
</g>
<!-- SG_1_Node_5 -->
<g id="node13" class="node">
<title>SG_1_Node_5</title>
<ellipse fill="none" stroke="black" cx="3695" cy="-37.21" rx="33.88" ry="21.43"/>
<text text-anchor="middle" x="3695" y="-32.21" font-family="Times,serif" font-size="20.00">0.0</text>
</g>
<!-- SG_1_Node_2&#45;&gt;SG_1_Node_5 -->
<g id="edge9" class="edge">
<title>SG_1_Node_2&#45;&gt;SG_1_Node_5</title>
<path fill="none" stroke="black" d="M3695,-248.35C3695,-210.16 3695,-117.42 3695,-68.92"/>
<polygon fill="black" stroke="black" points="3698.5,-68.72 3695,-58.72 3691.5,-68.72 3698.5,-68.72"/>
<text text-anchor="middle" x="3919.5" y="-159.43" font-family="Times,serif" font-size="20.00">firefox Ubuntu 22.04 119 selenium headless</text>
<text text-anchor="middle" x="3919.5" y="-137.43" font-family="Times,serif" font-size="20.00">firefox Ubuntu 22.04 119 selenium xvfb</text>
</g>
<!-- SG_1_Node_6 -->
<g id="node14" class="node">
<title>SG_1_Node_6</title>
<ellipse fill="none" stroke="black" cx="4167" cy="-37.21" rx="33.88" ry="21.43"/>
<text text-anchor="middle" x="4167" y="-32.21" font-family="Times,serif" font-size="20.00">1.0</text>
</g>
<!-- SG_1_Node_2&#45;&gt;SG_1_Node_6 -->
<g id="edge10" class="edge">
<title>SG_1_Node_2&#45;&gt;SG_1_Node_6</title>
<path fill="none" stroke="black" d="M3745.71,-265.04C3857.36,-263.7 4116.76,-257.66 4145,-230.43 4188.35,-188.62 4181.77,-111.08 4173.93,-68.38"/>
<polygon fill="black" stroke="black" points="4177.32,-67.44 4171.94,-58.31 4170.45,-68.8 4177.32,-67.44"/>
<text text-anchor="middle" x="4538.5" y="-214.43" font-family="Times,serif" font-size="20.00">[NA]</text>
<text text-anchor="middle" x="4538.5" y="-192.43" font-family="Times,serif" font-size="20.00">brave Ubuntu 22.04 1.60.114 (119.0.6045.124) selenium headless&#45;new</text>
<text text-anchor="middle" x="4538.5" y="-170.43" font-family="Times,serif" font-size="20.00">brave Ubuntu 22.04 1.60.114 (119.0.6045.124) selenium xvfb</text>
<text text-anchor="middle" x="4538.5" y="-148.43" font-family="Times,serif" font-size="20.00">chrome Ubuntu 22.04 119 selenium headless&#45;new</text>
<text text-anchor="middle" x="4538.5" y="-126.43" font-family="Times,serif" font-size="20.00">chrome Ubuntu 22.04 119 selenium xvfb</text>
<text text-anchor="middle" x="4538.5" y="-104.43" font-family="Times,serif" font-size="20.00">edge Ubuntu 22.04 119 selenium headless&#45;new</text>
<text text-anchor="middle" x="4538.5" y="-82.43" font-family="Times,serif" font-size="20.00">edge Ubuntu 22.04 119 selenium xvfb</text>
</g>
</g>
</svg>
