<?xml version="1.0" encoding="UTF-8" standalone="no"?>
<!DOCTYPE svg PUBLIC "-//W3C//DTD SVG 1.1//EN"
 "http://www.w3.org/Graphics/SVG/1.1/DTD/svg11.dtd">
<!-- Generated by graphviz version 2.43.0 (0)
 -->
<!-- Title: G Pages: 1 -->
<svg width="5321pt" height="1290pt"
 viewBox="0.00 0.00 5321.00 1290.13" xmlns="http://www.w3.org/2000/svg" xmlns:xlink="http://www.w3.org/1999/xlink">
<g id="graph0" class="graph" transform="scale(1 1) rotate(0) translate(4 1286.13)">
<title>G</title>
<polygon fill="white" stroke="transparent" points="-4,4 -4,-1286.13 5317,-1286.13 5317,4 -4,4"/>
<g id="clust1" class="cluster">
<title>cluster_0</title>
<polygon fill="none" stroke="black" points="8,-617.28 8,-1274.13 1233,-1274.13 1233,-617.28 8,-617.28"/>
<text text-anchor="middle" x="620.5" y="-1238.13" font-family="Times,serif" font-size="40.00">Tree 0, Class fullscreenEnabled: false</text>
</g>
<g id="clust5" class="cluster">
<title>cluster_1</title>
<polygon fill="none" stroke="black" points="1241,-130.43 1241,-1274.13 2727,-1274.13 2727,-130.43 1241,-130.43"/>
<text text-anchor="middle" x="1984" y="-1238.13" font-family="Times,serif" font-size="40.00">Tree 0, Class fullscreenEnabled: true</text>
</g>
<g id="clust11" class="cluster">
<title>cluster_2</title>
<polygon fill="none" stroke="black" points="2735,-8 2735,-1274.13 5303,-1274.13 5303,-8 2735,-8"/>
<text text-anchor="middle" x="4019" y="-1238.13" font-family="Times,serif" font-size="40.00">Tree 0, Class message timeout</text>
</g>
<!-- SG_0_Node_0 -->
<g id="node1" class="node">
<title>SG_0_Node_0</title>
<polygon fill="none" stroke="black" points="336.5,-1214.13 235.5,-1214.13 235.5,-1178.13 336.5,-1178.13 336.5,-1214.13"/>
<text text-anchor="middle" x="286" y="-1191.13" font-family="Times,serif" font-size="20.00">browser</text>
</g>
<!-- SG_0_Node_2 -->
<g id="node2" class="node">
<title>SG_0_Node_2</title>
<ellipse fill="none" stroke="black" cx="50" cy="-922.92" rx="33.88" ry="21.43"/>
<text text-anchor="middle" x="50" y="-917.92" font-family="Times,serif" font-size="20.00">0.0</text>
</g>
<!-- SG_0_Node_0&#45;&gt;SG_0_Node_2 -->
<g id="edge1" class="edge">
<title>SG_0_Node_0&#45;&gt;SG_0_Node_2</title>
<path fill="none" stroke="black" d="M235.28,-1195.7C168.63,-1195.24 56.96,-1189.89 31,-1160.13 -26.84,-1093.81 10.88,-1047.8 31,-962.13 31.76,-958.89 32.84,-955.6 34.11,-952.39"/>
<polygon fill="black" stroke="black" points="37.38,-953.65 38.32,-943.1 31,-950.76 37.38,-953.65"/>
<text text-anchor="middle" x="255.5" y="-1067.13" font-family="Times,serif" font-size="20.00">firefox Ubuntu 22.04 119 selenium headless</text>
<text text-anchor="middle" x="255.5" y="-1045.13" font-family="Times,serif" font-size="20.00">firefox Ubuntu 22.04 119 selenium xvfb</text>
</g>
<!-- SG_0_Node_1 -->
<g id="node3" class="node">
<title>SG_0_Node_1</title>
<polygon fill="none" stroke="black" points="574.5,-940.92 437.5,-940.92 437.5,-904.92 574.5,-904.92 574.5,-940.92"/>
<text text-anchor="middle" x="506" y="-917.92" font-family="Times,serif" font-size="20.00">raw_header</text>
</g>
<!-- SG_0_Node_0&#45;&gt;SG_0_Node_1 -->
<g id="edge2" class="edge">
<title>SG_0_Node_0&#45;&gt;SG_0_Node_1</title>
<path fill="none" stroke="black" d="M336.82,-1192.98C388.8,-1189.63 464.61,-1181.19 484,-1160.13 511.47,-1130.31 509.7,-1006.65 507.42,-951.13"/>
<polygon fill="black" stroke="black" points="510.91,-950.81 506.96,-940.98 503.91,-951.12 510.91,-950.81"/>
<text text-anchor="middle" x="867.5" y="-1122.13" font-family="Times,serif" font-size="20.00">[NA]</text>
<text text-anchor="middle" x="867.5" y="-1100.13" font-family="Times,serif" font-size="20.00">brave Ubuntu 22.04 1.60.114 (119.0.6045.124) selenium headless&#45;new</text>
<text text-anchor="middle" x="867.5" y="-1078.13" font-family="Times,serif" font-size="20.00">brave Ubuntu 22.04 1.60.114 (119.0.6045.124) selenium xvfb</text>
<text text-anchor="middle" x="867.5" y="-1056.13" font-family="Times,serif" font-size="20.00">chrome Ubuntu 22.04 119 selenium headless&#45;new</text>
<text text-anchor="middle" x="867.5" y="-1034.13" font-family="Times,serif" font-size="20.00">chrome Ubuntu 22.04 119 selenium xvfb</text>
<text text-anchor="middle" x="867.5" y="-1012.13" font-family="Times,serif" font-size="20.00">edge Ubuntu 22.04 119 selenium headless&#45;new</text>
<text text-anchor="middle" x="867.5" y="-990.13" font-family="Times,serif" font-size="20.00">edge Ubuntu 22.04 119 selenium xvfb</text>
</g>
<!-- SG_0_Node_3 -->
<g id="node4" class="node">
<title>SG_0_Node_3</title>
<ellipse fill="none" stroke="black" cx="449" cy="-646.49" rx="33.88" ry="21.43"/>
<text text-anchor="middle" x="449" y="-641.49" font-family="Times,serif" font-size="20.00">0.0</text>
</g>
<!-- SG_0_Node_1&#45;&gt;SG_0_Node_3 -->
<g id="edge3" class="edge">
<title>SG_0_Node_1&#45;&gt;SG_0_Node_3</title>
<path fill="none" stroke="black" d="M469.83,-904.77C461.9,-899.21 454.53,-892.23 450,-883.71 414.69,-817.2 429.52,-724.58 440.72,-677.52"/>
<polygon fill="black" stroke="black" points="444.16,-678.2 443.18,-667.65 437.37,-676.51 444.16,-678.2"/>
<text text-anchor="middle" x="495.5" y="-779.71" font-family="Times,serif" font-size="20.00">16 levels</text>
</g>
<!-- SG_0_Node_4 -->
<g id="node5" class="node">
<title>SG_0_Node_4</title>
<ellipse fill="none" stroke="black" cx="563" cy="-646.49" rx="33.88" ry="21.43"/>
<text text-anchor="middle" x="563" y="-641.49" font-family="Times,serif" font-size="20.00">1.0</text>
</g>
<!-- SG_0_Node_1&#45;&gt;SG_0_Node_4 -->
<g id="edge4" class="edge">
<title>SG_0_Node_1&#45;&gt;SG_0_Node_4</title>
<path fill="none" stroke="black" d="M526.19,-904.67C531.94,-898.64 537.57,-891.44 541,-883.71 571.42,-815.06 569.67,-724.4 566.14,-677.89"/>
<polygon fill="black" stroke="black" points="569.63,-677.52 565.3,-667.85 562.65,-678.11 569.63,-677.52"/>
<text text-anchor="middle" x="620" y="-790.71" font-family="Times,serif" font-size="20.00">[NA]</text>
<text text-anchor="middle" x="620" y="-768.71" font-family="Times,serif" font-size="20.00">118 levels</text>
</g>
<!-- SG_1_Node_0 -->
<g id="node6" class="node">
<title>SG_1_Node_0</title>
<polygon fill="none" stroke="black" points="1915.5,-1214.13 1814.5,-1214.13 1814.5,-1178.13 1915.5,-1178.13 1915.5,-1214.13"/>
<text text-anchor="middle" x="1865" y="-1191.13" font-family="Times,serif" font-size="20.00">browser</text>
</g>
<!-- SG_1_Node_1 -->
<g id="node7" class="node">
<title>SG_1_Node_1</title>
<polygon fill="none" stroke="black" points="1462.5,-940.92 1325.5,-940.92 1325.5,-904.92 1462.5,-904.92 1462.5,-940.92"/>
<text text-anchor="middle" x="1394" y="-917.92" font-family="Times,serif" font-size="20.00">raw_header</text>
</g>
<!-- SG_1_Node_0&#45;&gt;SG_1_Node_1 -->
<g id="edge5" class="edge">
<title>SG_1_Node_0&#45;&gt;SG_1_Node_1</title>
<path fill="none" stroke="black" d="M1814.13,-1193.89C1711.82,-1190.94 1488.64,-1182.05 1462,-1160.13 1398.76,-1108.09 1392.12,-1001.32 1392.76,-951.13"/>
<polygon fill="black" stroke="black" points="1396.26,-951.12 1393,-941.04 1389.26,-950.95 1396.26,-951.12"/>
<text text-anchor="middle" x="1821.5" y="-1122.13" font-family="Times,serif" font-size="20.00">[NA]</text>
<text text-anchor="middle" x="1821.5" y="-1100.13" font-family="Times,serif" font-size="20.00">brave Ubuntu 22.04 1.60.114 (119.0.6045.124) selenium headless&#45;new</text>
<text text-anchor="middle" x="1821.5" y="-1078.13" font-family="Times,serif" font-size="20.00">brave Ubuntu 22.04 1.60.114 (119.0.6045.124) selenium xvfb</text>
<text text-anchor="middle" x="1821.5" y="-1056.13" font-family="Times,serif" font-size="20.00">chrome Ubuntu 22.04 119 selenium headless&#45;new</text>
<text text-anchor="middle" x="1821.5" y="-1034.13" font-family="Times,serif" font-size="20.00">chrome Ubuntu 22.04 119 selenium xvfb</text>
<text text-anchor="middle" x="1821.5" y="-1012.13" font-family="Times,serif" font-size="20.00">edge Ubuntu 22.04 119 selenium headless&#45;new</text>
<text text-anchor="middle" x="1821.5" y="-990.13" font-family="Times,serif" font-size="20.00">edge Ubuntu 22.04 119 selenium xvfb</text>
</g>
<!-- SG_1_Node_2 -->
<g id="node8" class="node">
<title>SG_1_Node_2</title>
<polygon fill="none" stroke="black" points="2678.5,-940.92 2541.5,-940.92 2541.5,-904.92 2678.5,-904.92 2678.5,-940.92"/>
<text text-anchor="middle" x="2610" y="-917.92" font-family="Times,serif" font-size="20.00">status_code</text>
</g>
<!-- SG_1_Node_0&#45;&gt;SG_1_Node_2 -->
<g id="edge6" class="edge">
<title>SG_1_Node_0&#45;&gt;SG_1_Node_2</title>
<path fill="none" stroke="black" d="M1915.7,-1195.24C1993.86,-1194.47 2139.17,-1189.04 2181,-1160.13 2262.27,-1103.97 2200.89,-1018.52 2282,-962.13 2321.07,-934.97 2447.39,-926.97 2531.37,-924.7"/>
<polygon fill="black" stroke="black" points="2531.49,-928.19 2541.4,-924.45 2531.31,-921.2 2531.49,-928.19"/>
<text text-anchor="middle" x="2506.5" y="-1067.13" font-family="Times,serif" font-size="20.00">firefox Ubuntu 22.04 119 selenium headless</text>
<text text-anchor="middle" x="2506.5" y="-1045.13" font-family="Times,serif" font-size="20.00">firefox Ubuntu 22.04 119 selenium xvfb</text>
</g>
<!-- SG_1_Node_5 -->
<g id="node9" class="node">
<title>SG_1_Node_5</title>
<ellipse fill="none" stroke="black" cx="1283" cy="-646.49" rx="33.88" ry="21.43"/>
<text text-anchor="middle" x="1283" y="-641.49" font-family="Times,serif" font-size="20.00">0.0</text>
</g>
<!-- SG_1_Node_1&#45;&gt;SG_1_Node_5 -->
<g id="edge9" class="edge">
<title>SG_1_Node_1&#45;&gt;SG_1_Node_5</title>
<path fill="none" stroke="black" d="M1325.31,-911.33C1309.99,-905.65 1295.5,-896.96 1286,-883.71 1241.71,-821.9 1260,-725.73 1273.45,-677.38"/>
<polygon fill="black" stroke="black" points="1276.88,-678.12 1276.31,-667.54 1270.16,-676.17 1276.88,-678.12"/>
<text text-anchor="middle" x="1338" y="-790.71" font-family="Times,serif" font-size="20.00">[NA]</text>
<text text-anchor="middle" x="1338" y="-768.71" font-family="Times,serif" font-size="20.00">127 levels</text>
</g>
<!-- SG_1_Node_3 -->
<g id="node10" class="node">
<title>SG_1_Node_3</title>
<polygon fill="none" stroke="black" points="1444.5,-664.49 1343.5,-664.49 1343.5,-628.49 1444.5,-628.49 1444.5,-664.49"/>
<text text-anchor="middle" x="1394" y="-641.49" font-family="Times,serif" font-size="20.00">browser</text>
</g>
<!-- SG_1_Node_1&#45;&gt;SG_1_Node_3 -->
<g id="edge10" class="edge">
<title>SG_1_Node_1&#45;&gt;SG_1_Node_3</title>
<path fill="none" stroke="black" d="M1394,-904.75C1394,-858.55 1394,-731.26 1394,-674.93"/>
<polygon fill="black" stroke="black" points="1397.5,-674.65 1394,-664.65 1390.5,-674.65 1397.5,-674.65"/>
<text text-anchor="middle" x="1990.5" y="-845.71" font-family="Times,serif" font-size="20.00">[[&#39;permissions&#45;policy&#39;, &#39;x1ffullscreen=()&#39;]]</text>
<text text-anchor="middle" x="1990.5" y="-823.71" font-family="Times,serif" font-size="20.00">[[&#39;permissions&#45;policy&#39;, &#39;ch&#45;dpr *.sub.headers.websec.saarland;&#39;]]</text>
<text text-anchor="middle" x="1990.5" y="-801.71" font-family="Times,serif" font-size="20.00">[[&#39;permissions&#45;policy&#39;, &#39;fullscreEen=(self)&#39;]]</text>
<text text-anchor="middle" x="1990.5" y="-779.71" font-family="Times,serif" font-size="20.00">[[&#39;permissions&#45;policy&#39;, &#39;fullscreen=(*)&#39;], [&#39;location&#39;, &#39;https://sub.headers.websec.saarland/_hp/common/empty.html&#39;]]</text>
<text text-anchor="middle" x="1990.5" y="-757.71" font-family="Times,serif" font-size="20.00">[[&#39;permissions&#45;policy&#39;, &#39;fullscreen=(self)&#39;], [&#39;location&#39;, &#39;https://sub.headers.websec.saarland/_hp/common/empty.html&#39;]]</text>
<text text-anchor="middle" x="1990.5" y="-735.71" font-family="Times,serif" font-size="20.00">[[&#39;permissions&#45;policy&#39;, &#39;fullscreen=(self)t&#39;]]</text>
<text text-anchor="middle" x="1990.5" y="-713.71" font-family="Times,serif" font-size="20.00">[[&#39;permissions&#45;policy&#39;, &#39;kfullscreen=(*)&#39;]]</text>
</g>
<!-- SG_1_Node_6 -->
<g id="node11" class="node">
<title>SG_1_Node_6</title>
<ellipse fill="none" stroke="black" cx="2592" cy="-646.49" rx="33.88" ry="21.43"/>
<text text-anchor="middle" x="2592" y="-641.49" font-family="Times,serif" font-size="20.00">0.0</text>
</g>
<!-- SG_1_Node_2&#45;&gt;SG_1_Node_6 -->
<g id="edge7" class="edge">
<title>SG_1_Node_2&#45;&gt;SG_1_Node_6</title>
<path fill="none" stroke="black" d="M2608.87,-904.75C2605.9,-859.45 2597.82,-736.17 2594.02,-678.28"/>
<polygon fill="black" stroke="black" points="2597.49,-677.69 2593.34,-667.95 2590.5,-678.15 2597.49,-677.69"/>
<text text-anchor="middle" x="2626.5" y="-779.71" font-family="Times,serif" font-size="20.00">300</text>
</g>
<!-- SG_1_Node_7 -->
<g id="node12" class="node">
<title>SG_1_Node_7</title>
<ellipse fill="none" stroke="black" cx="2678" cy="-646.49" rx="33.88" ry="21.43"/>
<text text-anchor="middle" x="2678" y="-641.49" font-family="Times,serif" font-size="20.00">1.0</text>
</g>
<!-- SG_1_Node_2&#45;&gt;SG_1_Node_7 -->
<g id="edge8" class="edge">
<title>SG_1_Node_2&#45;&gt;SG_1_Node_7</title>
<path fill="none" stroke="black" d="M2633.36,-904.7C2639.78,-898.77 2646.05,-891.61 2650,-883.71 2683.72,-816.18 2683.56,-724.68 2680.71,-677.85"/>
<polygon fill="black" stroke="black" points="2684.2,-677.49 2680.02,-667.75 2677.21,-677.97 2684.2,-677.49"/>
<text text-anchor="middle" x="2704.5" y="-867.71" font-family="Times,serif" font-size="20.00">[NA]</text>
<text text-anchor="middle" x="2704.5" y="-845.71" font-family="Times,serif" font-size="20.00">200</text>
<text text-anchor="middle" x="2704.5" y="-823.71" font-family="Times,serif" font-size="20.00">201</text>
<text text-anchor="middle" x="2704.5" y="-801.71" font-family="Times,serif" font-size="20.00">203</text>
<text text-anchor="middle" x="2704.5" y="-779.71" font-family="Times,serif" font-size="20.00">400</text>
<text text-anchor="middle" x="2704.5" y="-757.71" font-family="Times,serif" font-size="20.00">403</text>
<text text-anchor="middle" x="2704.5" y="-735.71" font-family="Times,serif" font-size="20.00">404</text>
<text text-anchor="middle" x="2704.5" y="-713.71" font-family="Times,serif" font-size="20.00">418</text>
<text text-anchor="middle" x="2704.5" y="-691.71" font-family="Times,serif" font-size="20.00">500</text>
</g>
<!-- SG_1_Node_4 -->
<g id="node13" class="node">
<title>SG_1_Node_4</title>
<polygon fill="none" stroke="black" points="1403.5,-454.07 1266.5,-454.07 1266.5,-418.07 1403.5,-418.07 1403.5,-454.07"/>
<text text-anchor="middle" x="1335" y="-431.07" font-family="Times,serif" font-size="20.00">status_code</text>
</g>
<!-- SG_1_Node_3&#45;&gt;SG_1_Node_4 -->
<g id="edge11" class="edge">
<title>SG_1_Node_3&#45;&gt;SG_1_Node_4</title>
<path fill="none" stroke="black" d="M1356.27,-628.37C1348.17,-622.84 1340.66,-615.86 1336,-607.28 1311.48,-562.08 1319.83,-499.69 1327.7,-464.36"/>
<polygon fill="black" stroke="black" points="1331.18,-464.85 1330.08,-454.31 1324.37,-463.23 1331.18,-464.85"/>
<text text-anchor="middle" x="1542.5" y="-536.28" font-family="Times,serif" font-size="20.00">chrome Ubuntu 22.04 119 selenium xvfb</text>
</g>
<!-- SG_1_Node_8 -->
<g id="node14" class="node">
<title>SG_1_Node_8</title>
<ellipse fill="none" stroke="black" cx="1771" cy="-436.07" rx="33.88" ry="21.43"/>
<text text-anchor="middle" x="1771" y="-431.07" font-family="Times,serif" font-size="20.00">1.0</text>
</g>
<!-- SG_1_Node_3&#45;&gt;SG_1_Node_8 -->
<g id="edge12" class="edge">
<title>SG_1_Node_3&#45;&gt;SG_1_Node_8</title>
<path fill="none" stroke="black" d="M1444.76,-643.46C1537.7,-639.24 1727.68,-628.15 1749,-607.28 1785.98,-571.08 1782.91,-505.66 1777.11,-467.32"/>
<polygon fill="black" stroke="black" points="1780.53,-466.56 1775.43,-457.28 1773.63,-467.72 1780.53,-466.56"/>
<text text-anchor="middle" x="2139.5" y="-591.28" font-family="Times,serif" font-size="20.00">[NA]</text>
<text text-anchor="middle" x="2139.5" y="-569.28" font-family="Times,serif" font-size="20.00">brave Ubuntu 22.04 1.60.114 (119.0.6045.124) selenium headless&#45;new</text>
<text text-anchor="middle" x="2139.5" y="-547.28" font-family="Times,serif" font-size="20.00">brave Ubuntu 22.04 1.60.114 (119.0.6045.124) selenium xvfb</text>
<text text-anchor="middle" x="2139.5" y="-525.28" font-family="Times,serif" font-size="20.00">chrome Ubuntu 22.04 119 selenium headless&#45;new</text>
<text text-anchor="middle" x="2139.5" y="-503.28" font-family="Times,serif" font-size="20.00">edge Ubuntu 22.04 119 selenium headless&#45;new</text>
<text text-anchor="middle" x="2139.5" y="-481.28" font-family="Times,serif" font-size="20.00">edge Ubuntu 22.04 119 selenium xvfb</text>
</g>
<!-- SG_1_Node_9 -->
<g id="node15" class="node">
<title>SG_1_Node_9</title>
<ellipse fill="none" stroke="black" cx="1309" cy="-159.64" rx="33.88" ry="21.43"/>
<text text-anchor="middle" x="1309" y="-154.64" font-family="Times,serif" font-size="20.00">0.0</text>
</g>
<!-- SG_1_Node_4&#45;&gt;SG_1_Node_9 -->
<g id="edge13" class="edge">
<title>SG_1_Node_4&#45;&gt;SG_1_Node_9</title>
<path fill="none" stroke="black" d="M1328.02,-417.84C1325.7,-411.36 1323.36,-403.87 1322,-396.85 1307.89,-324.06 1307.22,-236.47 1308.04,-191.15"/>
<polygon fill="black" stroke="black" points="1311.55,-191.17 1308.27,-181.09 1304.55,-191.01 1311.55,-191.17"/>
<text text-anchor="middle" x="1345.5" y="-380.85" font-family="Times,serif" font-size="20.00">[NA]</text>
<text text-anchor="middle" x="1345.5" y="-358.85" font-family="Times,serif" font-size="20.00">200</text>
<text text-anchor="middle" x="1345.5" y="-336.85" font-family="Times,serif" font-size="20.00">201</text>
<text text-anchor="middle" x="1345.5" y="-314.85" font-family="Times,serif" font-size="20.00">203</text>
<text text-anchor="middle" x="1345.5" y="-292.85" font-family="Times,serif" font-size="20.00">400</text>
<text text-anchor="middle" x="1345.5" y="-270.85" font-family="Times,serif" font-size="20.00">403</text>
<text text-anchor="middle" x="1345.5" y="-248.85" font-family="Times,serif" font-size="20.00">404</text>
<text text-anchor="middle" x="1345.5" y="-226.85" font-family="Times,serif" font-size="20.00">418</text>
<text text-anchor="middle" x="1345.5" y="-204.85" font-family="Times,serif" font-size="20.00">500</text>
</g>
<!-- SG_1_Node_10 -->
<g id="node16" class="node">
<title>SG_1_Node_10</title>
<ellipse fill="none" stroke="black" cx="1395" cy="-159.64" rx="33.88" ry="21.43"/>
<text text-anchor="middle" x="1395" y="-154.64" font-family="Times,serif" font-size="20.00">1.0</text>
</g>
<!-- SG_1_Node_4&#45;&gt;SG_1_Node_10 -->
<g id="edge14" class="edge">
<title>SG_1_Node_4&#45;&gt;SG_1_Node_10</title>
<path fill="none" stroke="black" d="M1354.54,-417.69C1360.12,-411.66 1365.61,-404.48 1369,-396.85 1399.56,-328.13 1399.78,-237.5 1397.37,-191.01"/>
<polygon fill="black" stroke="black" points="1400.86,-190.76 1396.78,-180.98 1393.88,-191.17 1400.86,-190.76"/>
<text text-anchor="middle" x="1417.5" y="-292.85" font-family="Times,serif" font-size="20.00">300</text>
</g>
<!-- SG_2_Node_0 -->
<g id="node17" class="node">
<title>SG_2_Node_0</title>
<polygon fill="none" stroke="black" points="3563.5,-1214.13 3426.5,-1214.13 3426.5,-1178.13 3563.5,-1178.13 3563.5,-1214.13"/>
<text text-anchor="middle" x="3495" y="-1191.13" font-family="Times,serif" font-size="20.00">raw_header</text>
</g>
<!-- SG_2_Node_1 -->
<g id="node18" class="node">
<title>SG_2_Node_1</title>
<polygon fill="none" stroke="black" points="2956.5,-940.92 2819.5,-940.92 2819.5,-904.92 2956.5,-904.92 2956.5,-940.92"/>
<text text-anchor="middle" x="2888" y="-917.92" font-family="Times,serif" font-size="20.00">raw_header</text>
</g>
<!-- SG_2_Node_0&#45;&gt;SG_2_Node_1 -->
<g id="edge15" class="edge">
<title>SG_2_Node_0&#45;&gt;SG_2_Node_1</title>
<path fill="none" stroke="black" d="M3456.57,-1177.96C3350.23,-1130.45 3052.28,-997.32 2935.66,-945.21"/>
<polygon fill="black" stroke="black" points="2936.82,-941.9 2926.26,-941.02 2933.97,-948.29 2936.82,-941.9"/>
<text text-anchor="middle" x="3458" y="-1067.13" font-family="Times,serif" font-size="20.00">[NA]</text>
<text text-anchor="middle" x="3458" y="-1045.13" font-family="Times,serif" font-size="20.00">125 levels</text>
</g>
<!-- SG_2_Node_2 -->
<g id="node19" class="node">
<title>SG_2_Node_2</title>
<polygon fill="none" stroke="black" points="4154.5,-940.92 4053.5,-940.92 4053.5,-904.92 4154.5,-904.92 4154.5,-940.92"/>
<text text-anchor="middle" x="4104" y="-917.92" font-family="Times,serif" font-size="20.00">browser</text>
</g>
<!-- SG_2_Node_0&#45;&gt;SG_2_Node_2 -->
<g id="edge16" class="edge">
<title>SG_2_Node_0&#45;&gt;SG_2_Node_2</title>
<path fill="none" stroke="black" d="M3533.56,-1177.96C3640.24,-1130.45 3939.18,-997.32 4056.18,-945.21"/>
<polygon fill="black" stroke="black" points="4057.9,-948.28 4065.61,-941.02 4055.05,-941.89 4057.9,-948.28"/>
<text text-anchor="middle" x="4245.5" y="-1144.13" font-family="Times,serif" font-size="20.00">[[&#39;x00permissions&#45;policy&#39;, &#39;fullscreen=()&#39;]]</text>
<text text-anchor="middle" x="4245.5" y="-1122.13" font-family="Times,serif" font-size="20.00">[[&#39;x00permissions&#45;policy&#39;, &#39;fullscreen=(*)&#39;]]</text>
<text text-anchor="middle" x="4245.5" y="-1100.13" font-family="Times,serif" font-size="20.00">[[&#39;x00permissions&#45;policy&#39;, &#39;fullscreen=(self)&#39;]]</text>
<text text-anchor="middle" x="4245.5" y="-1078.13" font-family="Times,serif" font-size="20.00">[[&#39;permissiox00ns&#45;policy&#39;, &#39;fullscreen=()&#39;]]</text>
<text text-anchor="middle" x="4245.5" y="-1056.13" font-family="Times,serif" font-size="20.00">[[&#39;permissiox00ns&#45;policy&#39;, &#39;fullscreen=(*)&#39;]]</text>
<text text-anchor="middle" x="4245.5" y="-1034.13" font-family="Times,serif" font-size="20.00">[[&#39;permissiox00ns&#45;policy&#39;, &#39;fullscreen=(self)&#39;]]</text>
<text text-anchor="middle" x="4245.5" y="-1012.13" font-family="Times,serif" font-size="20.00">[[&#39;permissions&#45;policyx00&#39;, &#39;fullscreen=()&#39;]]</text>
<text text-anchor="middle" x="4245.5" y="-990.13" font-family="Times,serif" font-size="20.00">[[&#39;permissions&#45;policyx00&#39;, &#39;fullscreen=(*)&#39;]]</text>
<text text-anchor="middle" x="4245.5" y="-968.13" font-family="Times,serif" font-size="20.00">[[&#39;permissions&#45;policyx00&#39;, &#39;fullscreen=(self)&#39;]]</text>
</g>
<!-- SG_2_Node_7 -->
<g id="node20" class="node">
<title>SG_2_Node_7</title>
<ellipse fill="none" stroke="black" cx="2777" cy="-646.49" rx="33.88" ry="21.43"/>
<text text-anchor="middle" x="2777" y="-641.49" font-family="Times,serif" font-size="20.00">0.0</text>
</g>
<!-- SG_2_Node_1&#45;&gt;SG_2_Node_7 -->
<g id="edge19" class="edge">
<title>SG_2_Node_1&#45;&gt;SG_2_Node_7</title>
<path fill="none" stroke="black" d="M2819.31,-911.33C2803.99,-905.65 2789.5,-896.96 2780,-883.71 2735.71,-821.9 2754,-725.73 2767.45,-677.38"/>
<polygon fill="black" stroke="black" points="2770.88,-678.12 2770.31,-667.54 2764.16,-676.17 2770.88,-678.12"/>
<text text-anchor="middle" x="2832" y="-790.71" font-family="Times,serif" font-size="20.00">[NA]</text>
<text text-anchor="middle" x="2832" y="-768.71" font-family="Times,serif" font-size="20.00">117 levels</text>
</g>
<!-- SG_2_Node_3 -->
<g id="node21" class="node">
<title>SG_2_Node_3</title>
<polygon fill="none" stroke="black" points="2938.5,-664.49 2837.5,-664.49 2837.5,-628.49 2938.5,-628.49 2938.5,-664.49"/>
<text text-anchor="middle" x="2888" y="-641.49" font-family="Times,serif" font-size="20.00">browser</text>
</g>
<!-- SG_2_Node_1&#45;&gt;SG_2_Node_3 -->
<g id="edge20" class="edge">
<title>SG_2_Node_1&#45;&gt;SG_2_Node_3</title>
<path fill="none" stroke="black" d="M2888,-904.75C2888,-858.55 2888,-731.26 2888,-674.93"/>
<polygon fill="black" stroke="black" points="2891.5,-674.65 2888,-664.65 2884.5,-674.65 2891.5,-674.65"/>
<text text-anchor="middle" x="3484.5" y="-856.71" font-family="Times,serif" font-size="20.00">[[&#39;permissions&#45;policy&#39;, &#39;x1ffullscreen=()&#39;]]</text>
<text text-anchor="middle" x="3484.5" y="-834.71" font-family="Times,serif" font-size="20.00">[[&#39;permissions&#45;policy&#39;, &#39;ch&#45;dpr *.sub.headers.websec.saarland;&#39;]]</text>
<text text-anchor="middle" x="3484.5" y="-812.71" font-family="Times,serif" font-size="20.00">[[&#39;permissions&#45;policy&#39;, &#39;fullscreEen=(self)&#39;]]</text>
<text text-anchor="middle" x="3484.5" y="-790.71" font-family="Times,serif" font-size="20.00">[[&#39;permissions&#45;policy&#39;, &#39;fullscreen=()&#39;], [&#39;location&#39;, &#39;https://sub.headers.websec.saarland/_hp/common/empty.html&#39;]]</text>
<text text-anchor="middle" x="3484.5" y="-768.71" font-family="Times,serif" font-size="20.00">[[&#39;permissions&#45;policy&#39;, &#39;fullscreen=(*)&#39;], [&#39;location&#39;, &#39;https://sub.headers.websec.saarland/_hp/common/empty.html&#39;]]</text>
<text text-anchor="middle" x="3484.5" y="-746.71" font-family="Times,serif" font-size="20.00">[[&#39;permissions&#45;policy&#39;, &#39;fullscreen=(self)&#39;], [&#39;location&#39;, &#39;https://sub.headers.websec.saarland/_hp/common/empty.html&#39;]]</text>
<text text-anchor="middle" x="3484.5" y="-724.71" font-family="Times,serif" font-size="20.00">[[&#39;permissions&#45;policy&#39;, &#39;fullscreen=(self)t&#39;]]</text>
<text text-anchor="middle" x="3484.5" y="-702.71" font-family="Times,serif" font-size="20.00">[[&#39;permissions&#45;policy&#39;, &#39;kfullscreen=(*)&#39;]]</text>
</g>
<!-- SG_2_Node_8 -->
<g id="node22" class="node">
<title>SG_2_Node_8</title>
<ellipse fill="none" stroke="black" cx="4104" cy="-646.49" rx="33.88" ry="21.43"/>
<text text-anchor="middle" x="4104" y="-641.49" font-family="Times,serif" font-size="20.00">0.0</text>
</g>
<!-- SG_2_Node_2&#45;&gt;SG_2_Node_8 -->
<g id="edge17" class="edge">
<title>SG_2_Node_2&#45;&gt;SG_2_Node_8</title>
<path fill="none" stroke="black" d="M4104,-904.75C4104,-859.45 4104,-736.17 4104,-678.28"/>
<polygon fill="black" stroke="black" points="4107.5,-677.95 4104,-667.95 4100.5,-677.95 4107.5,-677.95"/>
<text text-anchor="middle" x="4328.5" y="-790.71" font-family="Times,serif" font-size="20.00">firefox Ubuntu 22.04 119 selenium headless</text>
<text text-anchor="middle" x="4328.5" y="-768.71" font-family="Times,serif" font-size="20.00">firefox Ubuntu 22.04 119 selenium xvfb</text>
</g>
<!-- SG_2_Node_9 -->
<g id="node23" class="node">
<title>SG_2_Node_9</title>
<ellipse fill="none" stroke="black" cx="4576" cy="-646.49" rx="33.88" ry="21.43"/>
<text text-anchor="middle" x="4576" y="-641.49" font-family="Times,serif" font-size="20.00">1.0</text>
</g>
<!-- SG_2_Node_2&#45;&gt;SG_2_Node_9 -->
<g id="edge18" class="edge">
<title>SG_2_Node_2&#45;&gt;SG_2_Node_9</title>
<path fill="none" stroke="black" d="M4154.76,-921.2C4266.52,-919.13 4526.13,-911.35 4554,-883.71 4608.87,-829.28 4595.12,-727.72 4583.87,-677.37"/>
<polygon fill="black" stroke="black" points="4587.23,-676.38 4581.53,-667.44 4580.41,-677.98 4587.23,-676.38"/>
<text text-anchor="middle" x="4953.5" y="-845.71" font-family="Times,serif" font-size="20.00">[NA]</text>
<text text-anchor="middle" x="4953.5" y="-823.71" font-family="Times,serif" font-size="20.00">brave Ubuntu 22.04 1.60.114 (119.0.6045.124) selenium headless&#45;new</text>
<text text-anchor="middle" x="4953.5" y="-801.71" font-family="Times,serif" font-size="20.00">brave Ubuntu 22.04 1.60.114 (119.0.6045.124) selenium xvfb</text>
<text text-anchor="middle" x="4953.5" y="-779.71" font-family="Times,serif" font-size="20.00">chrome Ubuntu 22.04 119 selenium headless&#45;new</text>
<text text-anchor="middle" x="4953.5" y="-757.71" font-family="Times,serif" font-size="20.00">chrome Ubuntu 22.04 119 selenium xvfb</text>
<text text-anchor="middle" x="4953.5" y="-735.71" font-family="Times,serif" font-size="20.00">edge Ubuntu 22.04 119 selenium headless&#45;new</text>
<text text-anchor="middle" x="4953.5" y="-713.71" font-family="Times,serif" font-size="20.00">edge Ubuntu 22.04 119 selenium xvfb</text>
</g>
<!-- SG_2_Node_10 -->
<g id="node24" class="node">
<title>SG_2_Node_10</title>
<ellipse fill="none" stroke="black" cx="2833" cy="-436.07" rx="33.88" ry="21.43"/>
<text text-anchor="middle" x="2833" y="-431.07" font-family="Times,serif" font-size="20.00">0.0</text>
</g>
<!-- SG_2_Node_3&#45;&gt;SG_2_Node_10 -->
<g id="edge21" class="edge">
<title>SG_2_Node_3&#45;&gt;SG_2_Node_10</title>
<path fill="none" stroke="black" d="M2853.38,-628.31C2845.63,-622.72 2838.41,-615.73 2834,-607.28 2810.82,-562.8 2817.94,-502.47 2825.37,-466.87"/>
<polygon fill="black" stroke="black" points="2828.79,-467.61 2827.55,-457.08 2821.96,-466.08 2828.79,-467.61"/>
<text text-anchor="middle" x="3193.5" y="-591.28" font-family="Times,serif" font-size="20.00">[NA]</text>
<text text-anchor="middle" x="3193.5" y="-569.28" font-family="Times,serif" font-size="20.00">brave Ubuntu 22.04 1.60.114 (119.0.6045.124) selenium headless&#45;new</text>
<text text-anchor="middle" x="3193.5" y="-547.28" font-family="Times,serif" font-size="20.00">brave Ubuntu 22.04 1.60.114 (119.0.6045.124) selenium xvfb</text>
<text text-anchor="middle" x="3193.5" y="-525.28" font-family="Times,serif" font-size="20.00">chrome Ubuntu 22.04 119 selenium headless&#45;new</text>
<text text-anchor="middle" x="3193.5" y="-503.28" font-family="Times,serif" font-size="20.00">edge Ubuntu 22.04 119 selenium headless&#45;new</text>
<text text-anchor="middle" x="3193.5" y="-481.28" font-family="Times,serif" font-size="20.00">edge Ubuntu 22.04 119 selenium xvfb</text>
</g>
<!-- SG_2_Node_4 -->
<g id="node25" class="node">
<title>SG_2_Node_4</title>
<polygon fill="none" stroke="black" points="3643.5,-454.07 3506.5,-454.07 3506.5,-418.07 3643.5,-418.07 3643.5,-454.07"/>
<text text-anchor="middle" x="3575" y="-431.07" font-family="Times,serif" font-size="20.00">status_code</text>
</g>
<!-- SG_2_Node_3&#45;&gt;SG_2_Node_4 -->
<g id="edge22" class="edge">
<title>SG_2_Node_3&#45;&gt;SG_2_Node_4</title>
<path fill="none" stroke="black" d="M2938.73,-644.33C3090.28,-640.64 3530.6,-628.14 3553,-607.28 3592.07,-570.9 3587.23,-502.07 3580.8,-464.03"/>
<polygon fill="black" stroke="black" points="3584.24,-463.37 3578.98,-454.17 3577.36,-464.64 3584.24,-463.37"/>
<text text-anchor="middle" x="3809.5" y="-558.28" font-family="Times,serif" font-size="20.00">chrome Ubuntu 22.04 119 selenium xvfb</text>
<text text-anchor="middle" x="3809.5" y="-536.28" font-family="Times,serif" font-size="20.00">firefox Ubuntu 22.04 119 selenium headless</text>
<text text-anchor="middle" x="3809.5" y="-514.28" font-family="Times,serif" font-size="20.00">firefox Ubuntu 22.04 119 selenium xvfb</text>
</g>
<!-- SG_2_Node_5 -->
<g id="node26" class="node">
<title>SG_2_Node_5</title>
<polygon fill="none" stroke="black" points="3431.5,-177.64 3330.5,-177.64 3330.5,-141.64 3431.5,-141.64 3431.5,-177.64"/>
<text text-anchor="middle" x="3381" y="-154.64" font-family="Times,serif" font-size="20.00">browser</text>
</g>
<!-- SG_2_Node_4&#45;&gt;SG_2_Node_5 -->
<g id="edge23" class="edge">
<title>SG_2_Node_4&#45;&gt;SG_2_Node_5</title>
<path fill="none" stroke="black" d="M3562.86,-417.9C3529.79,-371.12 3437.96,-241.21 3398.93,-186"/>
<polygon fill="black" stroke="black" points="3401.76,-183.94 3393.13,-177.8 3396.05,-187.99 3401.76,-183.94"/>
<text text-anchor="middle" x="3565.5" y="-369.85" font-family="Times,serif" font-size="20.00">200</text>
<text text-anchor="middle" x="3565.5" y="-347.85" font-family="Times,serif" font-size="20.00">201</text>
<text text-anchor="middle" x="3565.5" y="-325.85" font-family="Times,serif" font-size="20.00">203</text>
<text text-anchor="middle" x="3565.5" y="-303.85" font-family="Times,serif" font-size="20.00">400</text>
<text text-anchor="middle" x="3565.5" y="-281.85" font-family="Times,serif" font-size="20.00">403</text>
<text text-anchor="middle" x="3565.5" y="-259.85" font-family="Times,serif" font-size="20.00">404</text>
<text text-anchor="middle" x="3565.5" y="-237.85" font-family="Times,serif" font-size="20.00">418</text>
<text text-anchor="middle" x="3565.5" y="-215.85" font-family="Times,serif" font-size="20.00">500</text>
</g>
<!-- SG_2_Node_6 -->
<g id="node27" class="node">
<title>SG_2_Node_6</title>
<polygon fill="none" stroke="black" points="3867.5,-177.64 3766.5,-177.64 3766.5,-141.64 3867.5,-141.64 3867.5,-177.64"/>
<text text-anchor="middle" x="3817" y="-154.64" font-family="Times,serif" font-size="20.00">browser</text>
</g>
<!-- SG_2_Node_4&#45;&gt;SG_2_Node_6 -->
<g id="edge24" class="edge">
<title>SG_2_Node_4&#45;&gt;SG_2_Node_6</title>
<path fill="none" stroke="black" d="M3590.14,-417.9C3631.56,-370.93 3746.89,-240.14 3795.24,-185.32"/>
<polygon fill="black" stroke="black" points="3797.88,-187.61 3801.87,-177.8 3792.63,-182.99 3797.88,-187.61"/>
<text text-anchor="middle" x="3804.5" y="-303.85" font-family="Times,serif" font-size="20.00">[NA]</text>
<text text-anchor="middle" x="3804.5" y="-281.85" font-family="Times,serif" font-size="20.00">300</text>
</g>
<!-- SG_2_Node_11 -->
<g id="node28" class="node">
<title>SG_2_Node_11</title>
<ellipse fill="none" stroke="black" cx="2909" cy="-37.21" rx="33.88" ry="21.43"/>
<text text-anchor="middle" x="2909" y="-32.21" font-family="Times,serif" font-size="20.00">0.0</text>
</g>
<!-- SG_2_Node_5&#45;&gt;SG_2_Node_11 -->
<g id="edge27" class="edge">
<title>SG_2_Node_5&#45;&gt;SG_2_Node_11</title>
<path fill="none" stroke="black" d="M3330.16,-157.67C3218.19,-155.08 2957.86,-146.3 2928,-120.43 2913.44,-107.82 2908.83,-86.48 2907.78,-68.7"/>
<polygon fill="black" stroke="black" points="2911.27,-68.38 2907.53,-58.47 2904.28,-68.55 2911.27,-68.38"/>
<text text-anchor="middle" x="3152.5" y="-104.43" font-family="Times,serif" font-size="20.00">firefox Ubuntu 22.04 119 selenium headless</text>
<text text-anchor="middle" x="3152.5" y="-82.43" font-family="Times,serif" font-size="20.00">firefox Ubuntu 22.04 119 selenium xvfb</text>
</g>
<!-- SG_2_Node_12 -->
<g id="node29" class="node">
<title>SG_2_Node_12</title>
<ellipse fill="none" stroke="black" cx="3381" cy="-37.21" rx="33.88" ry="21.43"/>
<text text-anchor="middle" x="3381" y="-32.21" font-family="Times,serif" font-size="20.00">1.0</text>
</g>
<!-- SG_2_Node_5&#45;&gt;SG_2_Node_12 -->
<g id="edge28" class="edge">
<title>SG_2_Node_5&#45;&gt;SG_2_Node_12</title>
<path fill="none" stroke="black" d="M3381,-141.39C3381,-122.52 3381,-91.92 3381,-68.93"/>
<polygon fill="black" stroke="black" points="3384.5,-68.66 3381,-58.66 3377.5,-68.66 3384.5,-68.66"/>
<text text-anchor="middle" x="3587.5" y="-93.43" font-family="Times,serif" font-size="20.00">chrome Ubuntu 22.04 119 selenium xvfb</text>
</g>
<!-- SG_2_Node_13 -->
<g id="node30" class="node">
<title>SG_2_Node_13</title>
<ellipse fill="none" stroke="black" cx="3817" cy="-37.21" rx="33.88" ry="21.43"/>
<text text-anchor="middle" x="3817" y="-32.21" font-family="Times,serif" font-size="20.00">0.0</text>
</g>
<!-- SG_2_Node_6&#45;&gt;SG_2_Node_13 -->
<g id="edge25" class="edge">
<title>SG_2_Node_6&#45;&gt;SG_2_Node_13</title>
<path fill="none" stroke="black" d="M3817,-141.39C3817,-122.52 3817,-91.92 3817,-68.93"/>
<polygon fill="black" stroke="black" points="3820.5,-68.66 3817,-58.66 3813.5,-68.66 3820.5,-68.66"/>
<text text-anchor="middle" x="4023.5" y="-93.43" font-family="Times,serif" font-size="20.00">chrome Ubuntu 22.04 119 selenium xvfb</text>
</g>
<!-- SG_2_Node_14 -->
<g id="node31" class="node">
<title>SG_2_Node_14</title>
<ellipse fill="none" stroke="black" cx="4253" cy="-37.21" rx="33.88" ry="21.43"/>
<text text-anchor="middle" x="4253" y="-32.21" font-family="Times,serif" font-size="20.00">1.0</text>
</g>
<!-- SG_2_Node_6&#45;&gt;SG_2_Node_14 -->
<g id="edge26" class="edge">
<title>SG_2_Node_6&#45;&gt;SG_2_Node_14</title>
<path fill="none" stroke="black" d="M3867.71,-157.16C3972.14,-153.67 4203.76,-143.4 4231,-120.43 4245.92,-107.84 4251.3,-86.36 4253.01,-68.51"/>
<polygon fill="black" stroke="black" points="4256.51,-68.72 4253.64,-58.52 4249.52,-68.28 4256.51,-68.72"/>
<text text-anchor="middle" x="4475.5" y="-104.43" font-family="Times,serif" font-size="20.00">firefox Ubuntu 22.04 119 selenium headless</text>
<text text-anchor="middle" x="4475.5" y="-82.43" font-family="Times,serif" font-size="20.00">firefox Ubuntu 22.04 119 selenium xvfb</text>
</g>
</g>
</svg>
