<?xml version="1.0" encoding="UTF-8" standalone="no"?>
<!DOCTYPE svg PUBLIC "-//W3C//DTD SVG 1.1//EN"
 "http://www.w3.org/Graphics/SVG/1.1/DTD/svg11.dtd">
<!-- Generated by graphviz version 2.43.0 (0)
 -->
<!-- Title: G Pages: 1 -->
<svg width="5294pt" height="1567pt"
 viewBox="0.00 0.00 5294.00 1566.56" xmlns="http://www.w3.org/2000/svg" xmlns:xlink="http://www.w3.org/1999/xlink">
<g id="graph0" class="graph" transform="scale(1 1) rotate(0) translate(4 1562.56)">
<title>G</title>
<polygon fill="white" stroke="transparent" points="-4,4 -4,-1562.56 5290,-1562.56 5290,4 -4,4"/>
<g id="clust1" class="cluster">
<title>cluster_0</title>
<polygon fill="none" stroke="black" points="8,-893.71 8,-1550.56 1233,-1550.56 1233,-893.71 8,-893.71"/>
<text text-anchor="middle" x="620.5" y="-1514.56" font-family="Times,serif" font-size="40.00">Tree 0, Class fullscreenEnabled: false</text>
</g>
<g id="clust5" class="cluster">
<title>cluster_1</title>
<polygon fill="none" stroke="black" points="1241,-406.85 1241,-1550.56 2700,-1550.56 2700,-406.85 1241,-406.85"/>
<text text-anchor="middle" x="1970.5" y="-1514.56" font-family="Times,serif" font-size="40.00">Tree 0, Class fullscreenEnabled: true</text>
</g>
<g id="clust11" class="cluster">
<title>cluster_2</title>
<polygon fill="none" stroke="black" points="2708,-8 2708,-1550.56 5276,-1550.56 5276,-8 2708,-8"/>
<text text-anchor="middle" x="3992" y="-1514.56" font-family="Times,serif" font-size="40.00">Tree 0, Class message timeout</text>
</g>
<!-- SG_0_Node_0 -->
<g id="node1" class="node">
<title>SG_0_Node_0</title>
<polygon fill="none" stroke="black" points="336.5,-1490.56 235.5,-1490.56 235.5,-1454.56 336.5,-1454.56 336.5,-1490.56"/>
<text text-anchor="middle" x="286" y="-1467.56" font-family="Times,serif" font-size="20.00">browser</text>
</g>
<!-- SG_0_Node_2 -->
<g id="node2" class="node">
<title>SG_0_Node_2</title>
<ellipse fill="none" stroke="black" cx="50" cy="-1199.35" rx="33.88" ry="21.43"/>
<text text-anchor="middle" x="50" y="-1194.35" font-family="Times,serif" font-size="20.00">0.0</text>
</g>
<!-- SG_0_Node_0&#45;&gt;SG_0_Node_2 -->
<g id="edge1" class="edge">
<title>SG_0_Node_0&#45;&gt;SG_0_Node_2</title>
<path fill="none" stroke="black" d="M235.28,-1472.13C168.63,-1471.67 56.96,-1466.32 31,-1436.56 -26.84,-1370.24 10.88,-1324.23 31,-1238.56 31.76,-1235.31 32.84,-1232.03 34.11,-1228.82"/>
<polygon fill="black" stroke="black" points="37.38,-1230.08 38.32,-1219.52 31,-1227.19 37.38,-1230.08"/>
<text text-anchor="middle" x="255.5" y="-1343.56" font-family="Times,serif" font-size="20.00">firefox Ubuntu 22.04 119 selenium headless</text>
<text text-anchor="middle" x="255.5" y="-1321.56" font-family="Times,serif" font-size="20.00">firefox Ubuntu 22.04 119 selenium xvfb</text>
</g>
<!-- SG_0_Node_1 -->
<g id="node3" class="node">
<title>SG_0_Node_1</title>
<polygon fill="none" stroke="black" points="574.5,-1217.35 437.5,-1217.35 437.5,-1181.35 574.5,-1181.35 574.5,-1217.35"/>
<text text-anchor="middle" x="506" y="-1194.35" font-family="Times,serif" font-size="20.00">raw_header</text>
</g>
<!-- SG_0_Node_0&#45;&gt;SG_0_Node_1 -->
<g id="edge2" class="edge">
<title>SG_0_Node_0&#45;&gt;SG_0_Node_1</title>
<path fill="none" stroke="black" d="M336.82,-1469.4C388.8,-1466.06 464.61,-1457.61 484,-1436.56 511.47,-1406.74 509.7,-1283.08 507.42,-1227.55"/>
<polygon fill="black" stroke="black" points="510.91,-1227.24 506.96,-1217.4 503.91,-1227.55 510.91,-1227.24"/>
<text text-anchor="middle" x="867.5" y="-1398.56" font-family="Times,serif" font-size="20.00">[NA]</text>
<text text-anchor="middle" x="867.5" y="-1376.56" font-family="Times,serif" font-size="20.00">brave Ubuntu 22.04 1.60.114 (119.0.6045.124) selenium headless&#45;new</text>
<text text-anchor="middle" x="867.5" y="-1354.56" font-family="Times,serif" font-size="20.00">brave Ubuntu 22.04 1.60.114 (119.0.6045.124) selenium xvfb</text>
<text text-anchor="middle" x="867.5" y="-1332.56" font-family="Times,serif" font-size="20.00">chrome Ubuntu 22.04 119 selenium headless&#45;new</text>
<text text-anchor="middle" x="867.5" y="-1310.56" font-family="Times,serif" font-size="20.00">chrome Ubuntu 22.04 119 selenium xvfb</text>
<text text-anchor="middle" x="867.5" y="-1288.56" font-family="Times,serif" font-size="20.00">edge Ubuntu 22.04 119 selenium headless&#45;new</text>
<text text-anchor="middle" x="867.5" y="-1266.56" font-family="Times,serif" font-size="20.00">edge Ubuntu 22.04 119 selenium xvfb</text>
</g>
<!-- SG_0_Node_3 -->
<g id="node4" class="node">
<title>SG_0_Node_3</title>
<ellipse fill="none" stroke="black" cx="449" cy="-922.92" rx="33.88" ry="21.43"/>
<text text-anchor="middle" x="449" y="-917.92" font-family="Times,serif" font-size="20.00">0.0</text>
</g>
<!-- SG_0_Node_1&#45;&gt;SG_0_Node_3 -->
<g id="edge3" class="edge">
<title>SG_0_Node_1&#45;&gt;SG_0_Node_3</title>
<path fill="none" stroke="black" d="M469.83,-1181.2C461.9,-1175.64 454.53,-1168.66 450,-1160.13 414.69,-1093.63 429.52,-1001.01 440.72,-953.94"/>
<polygon fill="black" stroke="black" points="444.16,-954.63 443.18,-944.08 437.37,-952.94 444.16,-954.63"/>
<text text-anchor="middle" x="495.5" y="-1056.13" font-family="Times,serif" font-size="20.00">15 levels</text>
</g>
<!-- SG_0_Node_4 -->
<g id="node5" class="node">
<title>SG_0_Node_4</title>
<ellipse fill="none" stroke="black" cx="563" cy="-922.92" rx="33.88" ry="21.43"/>
<text text-anchor="middle" x="563" y="-917.92" font-family="Times,serif" font-size="20.00">1.0</text>
</g>
<!-- SG_0_Node_1&#45;&gt;SG_0_Node_4 -->
<g id="edge4" class="edge">
<title>SG_0_Node_1&#45;&gt;SG_0_Node_4</title>
<path fill="none" stroke="black" d="M526.19,-1181.09C531.94,-1175.07 537.57,-1167.86 541,-1160.13 571.42,-1091.49 569.67,-1000.83 566.14,-954.31"/>
<polygon fill="black" stroke="black" points="569.63,-953.95 565.3,-944.28 562.65,-954.54 569.63,-953.95"/>
<text text-anchor="middle" x="620" y="-1067.13" font-family="Times,serif" font-size="20.00">[NA]</text>
<text text-anchor="middle" x="620" y="-1045.13" font-family="Times,serif" font-size="20.00">331 levels</text>
</g>
<!-- SG_1_Node_0 -->
<g id="node6" class="node">
<title>SG_1_Node_0</title>
<polygon fill="none" stroke="black" points="1895.5,-1490.56 1794.5,-1490.56 1794.5,-1454.56 1895.5,-1454.56 1895.5,-1490.56"/>
<text text-anchor="middle" x="1845" y="-1467.56" font-family="Times,serif" font-size="20.00">browser</text>
</g>
<!-- SG_1_Node_1 -->
<g id="node7" class="node">
<title>SG_1_Node_1</title>
<polygon fill="none" stroke="black" points="1462.5,-1217.35 1325.5,-1217.35 1325.5,-1181.35 1462.5,-1181.35 1462.5,-1217.35"/>
<text text-anchor="middle" x="1394" y="-1194.35" font-family="Times,serif" font-size="20.00">raw_header</text>
</g>
<!-- SG_1_Node_0&#45;&gt;SG_1_Node_1 -->
<g id="edge5" class="edge">
<title>SG_1_Node_0&#45;&gt;SG_1_Node_1</title>
<path fill="none" stroke="black" d="M1794.15,-1470.35C1693.1,-1467.47 1474.53,-1458.73 1449,-1436.56 1387.99,-1383.57 1387.54,-1277.28 1391.14,-1227.38"/>
<polygon fill="black" stroke="black" points="1394.64,-1227.61 1391.98,-1217.35 1387.66,-1227.02 1394.64,-1227.61"/>
<text text-anchor="middle" x="1808.5" y="-1398.56" font-family="Times,serif" font-size="20.00">[NA]</text>
<text text-anchor="middle" x="1808.5" y="-1376.56" font-family="Times,serif" font-size="20.00">brave Ubuntu 22.04 1.60.114 (119.0.6045.124) selenium headless&#45;new</text>
<text text-anchor="middle" x="1808.5" y="-1354.56" font-family="Times,serif" font-size="20.00">brave Ubuntu 22.04 1.60.114 (119.0.6045.124) selenium xvfb</text>
<text text-anchor="middle" x="1808.5" y="-1332.56" font-family="Times,serif" font-size="20.00">chrome Ubuntu 22.04 119 selenium headless&#45;new</text>
<text text-anchor="middle" x="1808.5" y="-1310.56" font-family="Times,serif" font-size="20.00">chrome Ubuntu 22.04 119 selenium xvfb</text>
<text text-anchor="middle" x="1808.5" y="-1288.56" font-family="Times,serif" font-size="20.00">edge Ubuntu 22.04 119 selenium headless&#45;new</text>
<text text-anchor="middle" x="1808.5" y="-1266.56" font-family="Times,serif" font-size="20.00">edge Ubuntu 22.04 119 selenium xvfb</text>
</g>
<!-- SG_1_Node_2 -->
<g id="node8" class="node">
<title>SG_1_Node_2</title>
<polygon fill="none" stroke="black" points="2651.5,-1217.35 2514.5,-1217.35 2514.5,-1181.35 2651.5,-1181.35 2651.5,-1217.35"/>
<text text-anchor="middle" x="2583" y="-1194.35" font-family="Times,serif" font-size="20.00">status_code</text>
</g>
<!-- SG_1_Node_0&#45;&gt;SG_1_Node_2 -->
<g id="edge6" class="edge">
<title>SG_1_Node_0&#45;&gt;SG_1_Node_2</title>
<path fill="none" stroke="black" d="M1895.72,-1472.09C1975.57,-1471.95 2125.86,-1467.44 2168,-1436.56 2245.53,-1379.75 2177.7,-1295.68 2255,-1238.56 2293.32,-1210.24 2420.19,-1202.59 2504.44,-1200.7"/>
<polygon fill="black" stroke="black" points="2504.57,-1204.2 2514.5,-1200.5 2504.43,-1197.2 2504.57,-1204.2"/>
<text text-anchor="middle" x="2479.5" y="-1343.56" font-family="Times,serif" font-size="20.00">firefox Ubuntu 22.04 119 selenium headless</text>
<text text-anchor="middle" x="2479.5" y="-1321.56" font-family="Times,serif" font-size="20.00">firefox Ubuntu 22.04 119 selenium xvfb</text>
</g>
<!-- SG_1_Node_5 -->
<g id="node9" class="node">
<title>SG_1_Node_5</title>
<ellipse fill="none" stroke="black" cx="1283" cy="-922.92" rx="33.88" ry="21.43"/>
<text text-anchor="middle" x="1283" y="-917.92" font-family="Times,serif" font-size="20.00">0.0</text>
</g>
<!-- SG_1_Node_1&#45;&gt;SG_1_Node_5 -->
<g id="edge9" class="edge">
<title>SG_1_Node_1&#45;&gt;SG_1_Node_5</title>
<path fill="none" stroke="black" d="M1325.31,-1187.76C1309.99,-1182.07 1295.5,-1173.39 1286,-1160.13 1241.71,-1098.32 1260,-1002.15 1273.45,-953.81"/>
<polygon fill="black" stroke="black" points="1276.88,-954.55 1276.31,-943.97 1270.16,-952.6 1276.88,-954.55"/>
<text text-anchor="middle" x="1338" y="-1067.13" font-family="Times,serif" font-size="20.00">[NA]</text>
<text text-anchor="middle" x="1338" y="-1045.13" font-family="Times,serif" font-size="20.00">340 levels</text>
</g>
<!-- SG_1_Node_3 -->
<g id="node10" class="node">
<title>SG_1_Node_3</title>
<polygon fill="none" stroke="black" points="1444.5,-940.92 1343.5,-940.92 1343.5,-904.92 1444.5,-904.92 1444.5,-940.92"/>
<text text-anchor="middle" x="1394" y="-917.92" font-family="Times,serif" font-size="20.00">browser</text>
</g>
<!-- SG_1_Node_1&#45;&gt;SG_1_Node_3 -->
<g id="edge10" class="edge">
<title>SG_1_Node_1&#45;&gt;SG_1_Node_3</title>
<path fill="none" stroke="black" d="M1394,-1181.18C1394,-1134.98 1394,-1007.69 1394,-951.35"/>
<polygon fill="black" stroke="black" points="1397.5,-951.08 1394,-941.08 1390.5,-951.08 1397.5,-951.08"/>
<text text-anchor="middle" x="1977" y="-1111.13" font-family="Times,serif" font-size="20.00">[[&#39;permissions&#45;policy&#39;, &#39;x1ffullscreen=()&#39;]]</text>
<text text-anchor="middle" x="1977" y="-1089.13" font-family="Times,serif" font-size="20.00">[[&#39;permissions&#45;policy&#39;, &#39;ch&#45;dpr *.sub.headers.websec.saarland;&#39;]]</text>
<text text-anchor="middle" x="1977" y="-1067.13" font-family="Times,serif" font-size="20.00">[[&#39;permissions&#45;policy&#39;, &#39;fullscreEen=(self)&#39;]]</text>
<text text-anchor="middle" x="1977" y="-1045.13" font-family="Times,serif" font-size="20.00">[[&#39;permissions&#45;policy&#39;, &#39;fullscreen=(*)&#39;], [&#39;location&#39;, &#39;https://sub.headers.websec.saarland/_hp/common/empty.html&#39;]]</text>
<text text-anchor="middle" x="1977" y="-1023.13" font-family="Times,serif" font-size="20.00">[[&#39;permissions&#45;policy&#39;, &#39;fullscreen=(self)t&#39;]]</text>
<text text-anchor="middle" x="1977" y="-1001.13" font-family="Times,serif" font-size="20.00">[[&#39;permissions&#45;policy&#39;, &#39;kfullscreen=(*)&#39;]]</text>
</g>
<!-- SG_1_Node_6 -->
<g id="node11" class="node">
<title>SG_1_Node_6</title>
<ellipse fill="none" stroke="black" cx="2565" cy="-922.92" rx="33.88" ry="21.43"/>
<text text-anchor="middle" x="2565" y="-917.92" font-family="Times,serif" font-size="20.00">0.0</text>
</g>
<!-- SG_1_Node_2&#45;&gt;SG_1_Node_6 -->
<g id="edge7" class="edge">
<title>SG_1_Node_2&#45;&gt;SG_1_Node_6</title>
<path fill="none" stroke="black" d="M2581.87,-1181.18C2578.9,-1135.87 2570.82,-1012.59 2567.02,-954.71"/>
<polygon fill="black" stroke="black" points="2570.49,-954.12 2566.34,-944.37 2563.5,-954.58 2570.49,-954.12"/>
<text text-anchor="middle" x="2599.5" y="-1056.13" font-family="Times,serif" font-size="20.00">300</text>
</g>
<!-- SG_1_Node_7 -->
<g id="node12" class="node">
<title>SG_1_Node_7</title>
<ellipse fill="none" stroke="black" cx="2651" cy="-922.92" rx="33.88" ry="21.43"/>
<text text-anchor="middle" x="2651" y="-917.92" font-family="Times,serif" font-size="20.00">1.0</text>
</g>
<!-- SG_1_Node_2&#45;&gt;SG_1_Node_7 -->
<g id="edge8" class="edge">
<title>SG_1_Node_2&#45;&gt;SG_1_Node_7</title>
<path fill="none" stroke="black" d="M2606.36,-1181.12C2612.78,-1175.2 2619.05,-1168.04 2623,-1160.13 2656.72,-1092.61 2656.56,-1001.1 2653.71,-954.27"/>
<polygon fill="black" stroke="black" points="2657.2,-953.91 2653.02,-944.18 2650.21,-954.4 2657.2,-953.91"/>
<text text-anchor="middle" x="2677.5" y="-1144.13" font-family="Times,serif" font-size="20.00">[NA]</text>
<text text-anchor="middle" x="2677.5" y="-1122.13" font-family="Times,serif" font-size="20.00">200</text>
<text text-anchor="middle" x="2677.5" y="-1100.13" font-family="Times,serif" font-size="20.00">201</text>
<text text-anchor="middle" x="2677.5" y="-1078.13" font-family="Times,serif" font-size="20.00">203</text>
<text text-anchor="middle" x="2677.5" y="-1056.13" font-family="Times,serif" font-size="20.00">400</text>
<text text-anchor="middle" x="2677.5" y="-1034.13" font-family="Times,serif" font-size="20.00">403</text>
<text text-anchor="middle" x="2677.5" y="-1012.13" font-family="Times,serif" font-size="20.00">404</text>
<text text-anchor="middle" x="2677.5" y="-990.13" font-family="Times,serif" font-size="20.00">418</text>
<text text-anchor="middle" x="2677.5" y="-968.13" font-family="Times,serif" font-size="20.00">500</text>
</g>
<!-- SG_1_Node_4 -->
<g id="node13" class="node">
<title>SG_1_Node_4</title>
<polygon fill="none" stroke="black" points="1403.5,-730.49 1266.5,-730.49 1266.5,-694.49 1403.5,-694.49 1403.5,-730.49"/>
<text text-anchor="middle" x="1335" y="-707.49" font-family="Times,serif" font-size="20.00">status_code</text>
</g>
<!-- SG_1_Node_3&#45;&gt;SG_1_Node_4 -->
<g id="edge11" class="edge">
<title>SG_1_Node_3&#45;&gt;SG_1_Node_4</title>
<path fill="none" stroke="black" d="M1356.27,-904.8C1348.17,-899.27 1340.66,-892.29 1336,-883.71 1311.48,-838.51 1319.83,-776.12 1327.7,-740.78"/>
<polygon fill="black" stroke="black" points="1331.18,-741.28 1330.08,-730.74 1324.37,-739.66 1331.18,-741.28"/>
<text text-anchor="middle" x="1542.5" y="-812.71" font-family="Times,serif" font-size="20.00">chrome Ubuntu 22.04 119 selenium xvfb</text>
</g>
<!-- SG_1_Node_8 -->
<g id="node14" class="node">
<title>SG_1_Node_8</title>
<ellipse fill="none" stroke="black" cx="1771" cy="-712.49" rx="33.88" ry="21.43"/>
<text text-anchor="middle" x="1771" y="-707.49" font-family="Times,serif" font-size="20.00">1.0</text>
</g>
<!-- SG_1_Node_3&#45;&gt;SG_1_Node_8 -->
<g id="edge12" class="edge">
<title>SG_1_Node_3&#45;&gt;SG_1_Node_8</title>
<path fill="none" stroke="black" d="M1444.76,-919.88C1537.7,-915.67 1727.68,-904.57 1749,-883.71 1785.98,-847.51 1782.91,-782.08 1777.11,-743.75"/>
<polygon fill="black" stroke="black" points="1780.53,-742.99 1775.43,-733.7 1773.63,-744.14 1780.53,-742.99"/>
<text text-anchor="middle" x="2139.5" y="-867.71" font-family="Times,serif" font-size="20.00">[NA]</text>
<text text-anchor="middle" x="2139.5" y="-845.71" font-family="Times,serif" font-size="20.00">brave Ubuntu 22.04 1.60.114 (119.0.6045.124) selenium headless&#45;new</text>
<text text-anchor="middle" x="2139.5" y="-823.71" font-family="Times,serif" font-size="20.00">brave Ubuntu 22.04 1.60.114 (119.0.6045.124) selenium xvfb</text>
<text text-anchor="middle" x="2139.5" y="-801.71" font-family="Times,serif" font-size="20.00">chrome Ubuntu 22.04 119 selenium headless&#45;new</text>
<text text-anchor="middle" x="2139.5" y="-779.71" font-family="Times,serif" font-size="20.00">edge Ubuntu 22.04 119 selenium headless&#45;new</text>
<text text-anchor="middle" x="2139.5" y="-757.71" font-family="Times,serif" font-size="20.00">edge Ubuntu 22.04 119 selenium xvfb</text>
</g>
<!-- SG_1_Node_9 -->
<g id="node15" class="node">
<title>SG_1_Node_9</title>
<ellipse fill="none" stroke="black" cx="1309" cy="-436.07" rx="33.88" ry="21.43"/>
<text text-anchor="middle" x="1309" y="-431.07" font-family="Times,serif" font-size="20.00">0.0</text>
</g>
<!-- SG_1_Node_4&#45;&gt;SG_1_Node_9 -->
<g id="edge13" class="edge">
<title>SG_1_Node_4&#45;&gt;SG_1_Node_9</title>
<path fill="none" stroke="black" d="M1328.02,-694.26C1325.7,-687.79 1323.36,-680.3 1322,-673.28 1307.89,-600.49 1307.22,-512.89 1308.04,-467.57"/>
<polygon fill="black" stroke="black" points="1311.55,-467.59 1308.27,-457.52 1304.55,-467.44 1311.55,-467.59"/>
<text text-anchor="middle" x="1345.5" y="-657.28" font-family="Times,serif" font-size="20.00">[NA]</text>
<text text-anchor="middle" x="1345.5" y="-635.28" font-family="Times,serif" font-size="20.00">200</text>
<text text-anchor="middle" x="1345.5" y="-613.28" font-family="Times,serif" font-size="20.00">201</text>
<text text-anchor="middle" x="1345.5" y="-591.28" font-family="Times,serif" font-size="20.00">203</text>
<text text-anchor="middle" x="1345.5" y="-569.28" font-family="Times,serif" font-size="20.00">400</text>
<text text-anchor="middle" x="1345.5" y="-547.28" font-family="Times,serif" font-size="20.00">403</text>
<text text-anchor="middle" x="1345.5" y="-525.28" font-family="Times,serif" font-size="20.00">404</text>
<text text-anchor="middle" x="1345.5" y="-503.28" font-family="Times,serif" font-size="20.00">418</text>
<text text-anchor="middle" x="1345.5" y="-481.28" font-family="Times,serif" font-size="20.00">500</text>
</g>
<!-- SG_1_Node_10 -->
<g id="node16" class="node">
<title>SG_1_Node_10</title>
<ellipse fill="none" stroke="black" cx="1395" cy="-436.07" rx="33.88" ry="21.43"/>
<text text-anchor="middle" x="1395" y="-431.07" font-family="Times,serif" font-size="20.00">1.0</text>
</g>
<!-- SG_1_Node_4&#45;&gt;SG_1_Node_10 -->
<g id="edge14" class="edge">
<title>SG_1_Node_4&#45;&gt;SG_1_Node_10</title>
<path fill="none" stroke="black" d="M1354.54,-694.12C1360.12,-688.08 1365.61,-680.91 1369,-673.28 1399.56,-604.55 1399.78,-513.93 1397.37,-467.44"/>
<polygon fill="black" stroke="black" points="1400.86,-467.18 1396.78,-457.41 1393.88,-467.6 1400.86,-467.18"/>
<text text-anchor="middle" x="1417.5" y="-569.28" font-family="Times,serif" font-size="20.00">300</text>
</g>
<!-- SG_2_Node_0 -->
<g id="node17" class="node">
<title>SG_2_Node_0</title>
<polygon fill="none" stroke="black" points="3536.5,-1490.56 3399.5,-1490.56 3399.5,-1454.56 3536.5,-1454.56 3536.5,-1490.56"/>
<text text-anchor="middle" x="3468" y="-1467.56" font-family="Times,serif" font-size="20.00">raw_header</text>
</g>
<!-- SG_2_Node_1 -->
<g id="node18" class="node">
<title>SG_2_Node_1</title>
<polygon fill="none" stroke="black" points="2929.5,-1217.35 2792.5,-1217.35 2792.5,-1181.35 2929.5,-1181.35 2929.5,-1217.35"/>
<text text-anchor="middle" x="2861" y="-1194.35" font-family="Times,serif" font-size="20.00">raw_header</text>
</g>
<!-- SG_2_Node_0&#45;&gt;SG_2_Node_1 -->
<g id="edge15" class="edge">
<title>SG_2_Node_0&#45;&gt;SG_2_Node_1</title>
<path fill="none" stroke="black" d="M3429.57,-1454.39C3323.23,-1406.88 3025.28,-1273.75 2908.66,-1221.64"/>
<polygon fill="black" stroke="black" points="2909.82,-1218.33 2899.26,-1217.44 2906.97,-1224.72 2909.82,-1218.33"/>
<text text-anchor="middle" x="3431" y="-1343.56" font-family="Times,serif" font-size="20.00">[NA]</text>
<text text-anchor="middle" x="3431" y="-1321.56" font-family="Times,serif" font-size="20.00">337 levels</text>
</g>
<!-- SG_2_Node_2 -->
<g id="node19" class="node">
<title>SG_2_Node_2</title>
<polygon fill="none" stroke="black" points="4127.5,-1217.35 4026.5,-1217.35 4026.5,-1181.35 4127.5,-1181.35 4127.5,-1217.35"/>
<text text-anchor="middle" x="4077" y="-1194.35" font-family="Times,serif" font-size="20.00">browser</text>
</g>
<!-- SG_2_Node_0&#45;&gt;SG_2_Node_2 -->
<g id="edge16" class="edge">
<title>SG_2_Node_0&#45;&gt;SG_2_Node_2</title>
<path fill="none" stroke="black" d="M3506.56,-1454.39C3613.24,-1406.88 3912.18,-1273.75 4029.18,-1221.64"/>
<polygon fill="black" stroke="black" points="4030.9,-1224.71 4038.61,-1217.44 4028.05,-1218.31 4030.9,-1224.71"/>
<text text-anchor="middle" x="4218.5" y="-1420.56" font-family="Times,serif" font-size="20.00">[[&#39;x00permissions&#45;policy&#39;, &#39;fullscreen=()&#39;]]</text>
<text text-anchor="middle" x="4218.5" y="-1398.56" font-family="Times,serif" font-size="20.00">[[&#39;x00permissions&#45;policy&#39;, &#39;fullscreen=(*)&#39;]]</text>
<text text-anchor="middle" x="4218.5" y="-1376.56" font-family="Times,serif" font-size="20.00">[[&#39;x00permissions&#45;policy&#39;, &#39;fullscreen=(self)&#39;]]</text>
<text text-anchor="middle" x="4218.5" y="-1354.56" font-family="Times,serif" font-size="20.00">[[&#39;permissiox00ns&#45;policy&#39;, &#39;fullscreen=()&#39;]]</text>
<text text-anchor="middle" x="4218.5" y="-1332.56" font-family="Times,serif" font-size="20.00">[[&#39;permissiox00ns&#45;policy&#39;, &#39;fullscreen=(*)&#39;]]</text>
<text text-anchor="middle" x="4218.5" y="-1310.56" font-family="Times,serif" font-size="20.00">[[&#39;permissiox00ns&#45;policy&#39;, &#39;fullscreen=(self)&#39;]]</text>
<text text-anchor="middle" x="4218.5" y="-1288.56" font-family="Times,serif" font-size="20.00">[[&#39;permissions&#45;policyx00&#39;, &#39;fullscreen=()&#39;]]</text>
<text text-anchor="middle" x="4218.5" y="-1266.56" font-family="Times,serif" font-size="20.00">[[&#39;permissions&#45;policyx00&#39;, &#39;fullscreen=(*)&#39;]]</text>
<text text-anchor="middle" x="4218.5" y="-1244.56" font-family="Times,serif" font-size="20.00">[[&#39;permissions&#45;policyx00&#39;, &#39;fullscreen=(self)&#39;]]</text>
</g>
<!-- SG_2_Node_9 -->
<g id="node20" class="node">
<title>SG_2_Node_9</title>
<ellipse fill="none" stroke="black" cx="2750" cy="-922.92" rx="33.88" ry="21.43"/>
<text text-anchor="middle" x="2750" y="-917.92" font-family="Times,serif" font-size="20.00">0.0</text>
</g>
<!-- SG_2_Node_1&#45;&gt;SG_2_Node_9 -->
<g id="edge19" class="edge">
<title>SG_2_Node_1&#45;&gt;SG_2_Node_9</title>
<path fill="none" stroke="black" d="M2792.31,-1187.76C2776.99,-1182.07 2762.5,-1173.39 2753,-1160.13 2708.71,-1098.32 2727,-1002.15 2740.45,-953.81"/>
<polygon fill="black" stroke="black" points="2743.88,-954.55 2743.31,-943.97 2737.16,-952.6 2743.88,-954.55"/>
<text text-anchor="middle" x="2805" y="-1067.13" font-family="Times,serif" font-size="20.00">[NA]</text>
<text text-anchor="middle" x="2805" y="-1045.13" font-family="Times,serif" font-size="20.00">330 levels</text>
</g>
<!-- SG_2_Node_3 -->
<g id="node21" class="node">
<title>SG_2_Node_3</title>
<polygon fill="none" stroke="black" points="2911.5,-940.92 2810.5,-940.92 2810.5,-904.92 2911.5,-904.92 2911.5,-940.92"/>
<text text-anchor="middle" x="2861" y="-917.92" font-family="Times,serif" font-size="20.00">browser</text>
</g>
<!-- SG_2_Node_1&#45;&gt;SG_2_Node_3 -->
<g id="edge20" class="edge">
<title>SG_2_Node_1&#45;&gt;SG_2_Node_3</title>
<path fill="none" stroke="black" d="M2861,-1181.18C2861,-1134.98 2861,-1007.69 2861,-951.35"/>
<polygon fill="black" stroke="black" points="2864.5,-951.08 2861,-941.08 2857.5,-951.08 2864.5,-951.08"/>
<text text-anchor="middle" x="3457.5" y="-1122.13" font-family="Times,serif" font-size="20.00">[[&#39;permissions&#45;policy&#39;, &#39;x1ffullscreen=()&#39;]]</text>
<text text-anchor="middle" x="3457.5" y="-1100.13" font-family="Times,serif" font-size="20.00">[[&#39;permissions&#45;policy&#39;, &#39;ch&#45;dpr *.sub.headers.websec.saarland;&#39;]]</text>
<text text-anchor="middle" x="3457.5" y="-1078.13" font-family="Times,serif" font-size="20.00">[[&#39;permissions&#45;policy&#39;, &#39;fullscreEen=(self)&#39;]]</text>
<text text-anchor="middle" x="3457.5" y="-1056.13" font-family="Times,serif" font-size="20.00">[[&#39;permissions&#45;policy&#39;, &#39;fullscreen=()&#39;], [&#39;location&#39;, &#39;https://sub.headers.websec.saarland/_hp/common/empty.html&#39;]]</text>
<text text-anchor="middle" x="3457.5" y="-1034.13" font-family="Times,serif" font-size="20.00">[[&#39;permissions&#45;policy&#39;, &#39;fullscreen=(*)&#39;], [&#39;location&#39;, &#39;https://sub.headers.websec.saarland/_hp/common/empty.html&#39;]]</text>
<text text-anchor="middle" x="3457.5" y="-1012.13" font-family="Times,serif" font-size="20.00">[[&#39;permissions&#45;policy&#39;, &#39;fullscreen=(self)&#39;], [&#39;location&#39;, &#39;https://sub.headers.websec.saarland/_hp/common/empty.html&#39;]]</text>
<text text-anchor="middle" x="3457.5" y="-990.13" font-family="Times,serif" font-size="20.00">[[&#39;permissions&#45;policy&#39;, &#39;kfullscreen=(*)&#39;]]</text>
</g>
<!-- SG_2_Node_10 -->
<g id="node22" class="node">
<title>SG_2_Node_10</title>
<ellipse fill="none" stroke="black" cx="4077" cy="-922.92" rx="33.88" ry="21.43"/>
<text text-anchor="middle" x="4077" y="-917.92" font-family="Times,serif" font-size="20.00">0.0</text>
</g>
<!-- SG_2_Node_2&#45;&gt;SG_2_Node_10 -->
<g id="edge17" class="edge">
<title>SG_2_Node_2&#45;&gt;SG_2_Node_10</title>
<path fill="none" stroke="black" d="M4077,-1181.18C4077,-1135.87 4077,-1012.59 4077,-954.71"/>
<polygon fill="black" stroke="black" points="4080.5,-954.37 4077,-944.37 4073.5,-954.37 4080.5,-954.37"/>
<text text-anchor="middle" x="4301.5" y="-1067.13" font-family="Times,serif" font-size="20.00">firefox Ubuntu 22.04 119 selenium headless</text>
<text text-anchor="middle" x="4301.5" y="-1045.13" font-family="Times,serif" font-size="20.00">firefox Ubuntu 22.04 119 selenium xvfb</text>
</g>
<!-- SG_2_Node_11 -->
<g id="node23" class="node">
<title>SG_2_Node_11</title>
<ellipse fill="none" stroke="black" cx="4549" cy="-922.92" rx="33.88" ry="21.43"/>
<text text-anchor="middle" x="4549" y="-917.92" font-family="Times,serif" font-size="20.00">1.0</text>
</g>
<!-- SG_2_Node_2&#45;&gt;SG_2_Node_11 -->
<g id="edge18" class="edge">
<title>SG_2_Node_2&#45;&gt;SG_2_Node_11</title>
<path fill="none" stroke="black" d="M4127.76,-1197.63C4239.52,-1195.55 4499.13,-1187.77 4527,-1160.13 4581.87,-1105.7 4568.12,-1004.15 4556.87,-953.8"/>
<polygon fill="black" stroke="black" points="4560.23,-952.8 4554.53,-943.87 4553.41,-954.41 4560.23,-952.8"/>
<text text-anchor="middle" x="4926.5" y="-1122.13" font-family="Times,serif" font-size="20.00">[NA]</text>
<text text-anchor="middle" x="4926.5" y="-1100.13" font-family="Times,serif" font-size="20.00">brave Ubuntu 22.04 1.60.114 (119.0.6045.124) selenium headless&#45;new</text>
<text text-anchor="middle" x="4926.5" y="-1078.13" font-family="Times,serif" font-size="20.00">brave Ubuntu 22.04 1.60.114 (119.0.6045.124) selenium xvfb</text>
<text text-anchor="middle" x="4926.5" y="-1056.13" font-family="Times,serif" font-size="20.00">chrome Ubuntu 22.04 119 selenium headless&#45;new</text>
<text text-anchor="middle" x="4926.5" y="-1034.13" font-family="Times,serif" font-size="20.00">chrome Ubuntu 22.04 119 selenium xvfb</text>
<text text-anchor="middle" x="4926.5" y="-1012.13" font-family="Times,serif" font-size="20.00">edge Ubuntu 22.04 119 selenium headless&#45;new</text>
<text text-anchor="middle" x="4926.5" y="-990.13" font-family="Times,serif" font-size="20.00">edge Ubuntu 22.04 119 selenium xvfb</text>
</g>
<!-- SG_2_Node_12 -->
<g id="node24" class="node">
<title>SG_2_Node_12</title>
<ellipse fill="none" stroke="black" cx="2805" cy="-712.49" rx="33.88" ry="21.43"/>
<text text-anchor="middle" x="2805" y="-707.49" font-family="Times,serif" font-size="20.00">0.0</text>
</g>
<!-- SG_2_Node_3&#45;&gt;SG_2_Node_12 -->
<g id="edge21" class="edge">
<title>SG_2_Node_3&#45;&gt;SG_2_Node_12</title>
<path fill="none" stroke="black" d="M2825.76,-904.85C2817.86,-899.26 2810.5,-892.24 2806,-883.71 2782.63,-839.32 2789.81,-778.96 2797.3,-743.33"/>
<polygon fill="black" stroke="black" points="2800.73,-744.06 2799.5,-733.53 2793.9,-742.52 2800.73,-744.06"/>
<text text-anchor="middle" x="3165.5" y="-867.71" font-family="Times,serif" font-size="20.00">[NA]</text>
<text text-anchor="middle" x="3165.5" y="-845.71" font-family="Times,serif" font-size="20.00">brave Ubuntu 22.04 1.60.114 (119.0.6045.124) selenium headless&#45;new</text>
<text text-anchor="middle" x="3165.5" y="-823.71" font-family="Times,serif" font-size="20.00">brave Ubuntu 22.04 1.60.114 (119.0.6045.124) selenium xvfb</text>
<text text-anchor="middle" x="3165.5" y="-801.71" font-family="Times,serif" font-size="20.00">chrome Ubuntu 22.04 119 selenium headless&#45;new</text>
<text text-anchor="middle" x="3165.5" y="-779.71" font-family="Times,serif" font-size="20.00">edge Ubuntu 22.04 119 selenium headless&#45;new</text>
<text text-anchor="middle" x="3165.5" y="-757.71" font-family="Times,serif" font-size="20.00">edge Ubuntu 22.04 119 selenium xvfb</text>
</g>
<!-- SG_2_Node_4 -->
<g id="node25" class="node">
<title>SG_2_Node_4</title>
<polygon fill="none" stroke="black" points="3615.5,-730.49 3478.5,-730.49 3478.5,-694.49 3615.5,-694.49 3615.5,-730.49"/>
<text text-anchor="middle" x="3547" y="-707.49" font-family="Times,serif" font-size="20.00">raw_header</text>
</g>
<!-- SG_2_Node_3&#45;&gt;SG_2_Node_4 -->
<g id="edge22" class="edge">
<title>SG_2_Node_3&#45;&gt;SG_2_Node_4</title>
<path fill="none" stroke="black" d="M2911.65,-920.76C3062.98,-917.05 3502.63,-904.54 3525,-883.71 3564.06,-847.32 3559.23,-778.5 3552.8,-740.46"/>
<polygon fill="black" stroke="black" points="3556.24,-739.8 3550.98,-730.6 3549.36,-741.07 3556.24,-739.8"/>
<text text-anchor="middle" x="3781.5" y="-834.71" font-family="Times,serif" font-size="20.00">chrome Ubuntu 22.04 119 selenium xvfb</text>
<text text-anchor="middle" x="3781.5" y="-812.71" font-family="Times,serif" font-size="20.00">firefox Ubuntu 22.04 119 selenium headless</text>
<text text-anchor="middle" x="3781.5" y="-790.71" font-family="Times,serif" font-size="20.00">firefox Ubuntu 22.04 119 selenium xvfb</text>
</g>
<!-- SG_2_Node_5 -->
<g id="node26" class="node">
<title>SG_2_Node_5</title>
<polygon fill="none" stroke="black" points="2910.5,-454.07 2809.5,-454.07 2809.5,-418.07 2910.5,-418.07 2910.5,-454.07"/>
<text text-anchor="middle" x="2860" y="-431.07" font-family="Times,serif" font-size="20.00">browser</text>
</g>
<!-- SG_2_Node_4&#45;&gt;SG_2_Node_5 -->
<g id="edge23" class="edge">
<title>SG_2_Node_4&#45;&gt;SG_2_Node_5</title>
<path fill="none" stroke="black" d="M3478.27,-710.21C3307.88,-706.68 2878.13,-695.61 2857,-673.28 2803.05,-616.26 2831.45,-512.48 2849.21,-463.72"/>
<polygon fill="black" stroke="black" points="2852.55,-464.78 2852.81,-454.18 2846.01,-462.3 2852.55,-464.78"/>
<text text-anchor="middle" x="3440" y="-613.28" font-family="Times,serif" font-size="20.00">[[&#39;permissions&#45;policy&#39;, &#39;x1ffullscreen=()&#39;]]</text>
<text text-anchor="middle" x="3440" y="-591.28" font-family="Times,serif" font-size="20.00">[[&#39;permissions&#45;policy&#39;, &#39;ch&#45;dpr *.sub.headers.websec.saarland;&#39;]]</text>
<text text-anchor="middle" x="3440" y="-569.28" font-family="Times,serif" font-size="20.00">[[&#39;permissions&#45;policy&#39;, &#39;fullscreEen=(self)&#39;]]</text>
<text text-anchor="middle" x="3440" y="-547.28" font-family="Times,serif" font-size="20.00">[[&#39;permissions&#45;policy&#39;, &#39;fullscreen=(*)&#39;], [&#39;location&#39;, &#39;https://sub.headers.websec.saarland/_hp/common/empty.html&#39;]]</text>
<text text-anchor="middle" x="3440" y="-525.28" font-family="Times,serif" font-size="20.00">[[&#39;permissions&#45;policy&#39;, &#39;kfullscreen=(*)&#39;]]</text>
</g>
<!-- SG_2_Node_6 -->
<g id="node27" class="node">
<title>SG_2_Node_6</title>
<polygon fill="none" stroke="black" points="4099.5,-454.07 3998.5,-454.07 3998.5,-418.07 4099.5,-418.07 4099.5,-454.07"/>
<text text-anchor="middle" x="4049" y="-431.07" font-family="Times,serif" font-size="20.00">browser</text>
</g>
<!-- SG_2_Node_4&#45;&gt;SG_2_Node_6 -->
<g id="edge24" class="edge">
<title>SG_2_Node_4&#45;&gt;SG_2_Node_6</title>
<path fill="none" stroke="black" d="M3615.66,-710.82C3741.38,-708.9 3998.36,-701.54 4027,-673.28 4083.13,-617.9 4067.61,-513.24 4056.21,-463.98"/>
<polygon fill="black" stroke="black" points="4059.57,-462.96 4053.8,-454.08 4052.77,-464.62 4059.57,-462.96"/>
<text text-anchor="middle" x="4663.5" y="-580.28" font-family="Times,serif" font-size="20.00">[[&#39;permissions&#45;policy&#39;, &#39;fullscreen=()&#39;], [&#39;location&#39;, &#39;https://sub.headers.websec.saarland/_hp/common/empty.html&#39;]]</text>
<text text-anchor="middle" x="4663.5" y="-558.28" font-family="Times,serif" font-size="20.00">[[&#39;permissions&#45;policy&#39;, &#39;fullscreen=(self)&#39;], [&#39;location&#39;, &#39;https://sub.headers.websec.saarland/_hp/common/empty.html&#39;]]</text>
</g>
<!-- SG_2_Node_7 -->
<g id="node28" class="node">
<title>SG_2_Node_7</title>
<polygon fill="none" stroke="black" points="2878.5,-331.64 2741.5,-331.64 2741.5,-295.64 2878.5,-295.64 2878.5,-331.64"/>
<text text-anchor="middle" x="2810" y="-308.64" font-family="Times,serif" font-size="20.00">status_code</text>
</g>
<!-- SG_2_Node_5&#45;&gt;SG_2_Node_7 -->
<g id="edge27" class="edge">
<title>SG_2_Node_5&#45;&gt;SG_2_Node_7</title>
<path fill="none" stroke="black" d="M2829.33,-417.89C2822,-412.2 2815.12,-405.16 2811,-396.85 2802.63,-379.96 2802.63,-358.62 2804.59,-341.91"/>
<polygon fill="black" stroke="black" points="2808.1,-342.1 2806.09,-331.7 2801.17,-341.08 2808.1,-342.1"/>
<text text-anchor="middle" x="3035.5" y="-380.85" font-family="Times,serif" font-size="20.00">firefox Ubuntu 22.04 119 selenium headless</text>
<text text-anchor="middle" x="3035.5" y="-358.85" font-family="Times,serif" font-size="20.00">firefox Ubuntu 22.04 119 selenium xvfb</text>
</g>
<!-- SG_2_Node_8 -->
<g id="node29" class="node">
<title>SG_2_Node_8</title>
<polygon fill="none" stroke="black" points="3350.5,-331.64 3213.5,-331.64 3213.5,-295.64 3350.5,-295.64 3350.5,-331.64"/>
<text text-anchor="middle" x="3282" y="-308.64" font-family="Times,serif" font-size="20.00">status_code</text>
</g>
<!-- SG_2_Node_5&#45;&gt;SG_2_Node_8 -->
<g id="edge28" class="edge">
<title>SG_2_Node_5&#45;&gt;SG_2_Node_8</title>
<path fill="none" stroke="black" d="M2910.54,-433.42C3012.17,-429.66 3233.84,-418.99 3260,-396.85 3275.75,-383.53 3280.86,-360.29 3282.26,-341.91"/>
<polygon fill="black" stroke="black" points="3285.76,-341.9 3282.7,-331.76 3278.77,-341.6 3285.76,-341.9"/>
<text text-anchor="middle" x="3486.5" y="-369.85" font-family="Times,serif" font-size="20.00">chrome Ubuntu 22.04 119 selenium xvfb</text>
</g>
<!-- SG_2_Node_13 -->
<g id="node30" class="node">
<title>SG_2_Node_13</title>
<ellipse fill="none" stroke="black" cx="3884" cy="-313.64" rx="33.88" ry="21.43"/>
<text text-anchor="middle" x="3884" y="-308.64" font-family="Times,serif" font-size="20.00">0.0</text>
</g>
<!-- SG_2_Node_6&#45;&gt;SG_2_Node_13 -->
<g id="edge25" class="edge">
<title>SG_2_Node_6&#45;&gt;SG_2_Node_13</title>
<path fill="none" stroke="black" d="M3998.36,-430.06C3955.59,-424.66 3899.1,-414.4 3885,-396.85 3873.45,-382.48 3873.3,-361.68 3875.99,-344.59"/>
<polygon fill="black" stroke="black" points="3879.47,-345.01 3877.95,-334.53 3872.6,-343.67 3879.47,-345.01"/>
<text text-anchor="middle" x="4091.5" y="-369.85" font-family="Times,serif" font-size="20.00">chrome Ubuntu 22.04 119 selenium xvfb</text>
</g>
<!-- SG_2_Node_14 -->
<g id="node31" class="node">
<title>SG_2_Node_14</title>
<ellipse fill="none" stroke="black" cx="4320" cy="-313.64" rx="33.88" ry="21.43"/>
<text text-anchor="middle" x="4320" y="-308.64" font-family="Times,serif" font-size="20.00">1.0</text>
</g>
<!-- SG_2_Node_6&#45;&gt;SG_2_Node_14 -->
<g id="edge26" class="edge">
<title>SG_2_Node_6&#45;&gt;SG_2_Node_14</title>
<path fill="none" stroke="black" d="M4099.73,-433.67C4163.91,-430.85 4269.54,-422.36 4298,-396.85 4312.3,-384.03 4317.75,-363.03 4319.65,-345.46"/>
<polygon fill="black" stroke="black" points="4323.17,-345.3 4320.42,-335.07 4316.19,-344.78 4323.17,-345.3"/>
<text text-anchor="middle" x="4542.5" y="-380.85" font-family="Times,serif" font-size="20.00">firefox Ubuntu 22.04 119 selenium headless</text>
<text text-anchor="middle" x="4542.5" y="-358.85" font-family="Times,serif" font-size="20.00">firefox Ubuntu 22.04 119 selenium xvfb</text>
</g>
<!-- SG_2_Node_15 -->
<g id="node32" class="node">
<title>SG_2_Node_15</title>
<ellipse fill="none" stroke="black" cx="2776" cy="-37.21" rx="33.88" ry="21.43"/>
<text text-anchor="middle" x="2776" y="-32.21" font-family="Times,serif" font-size="20.00">0.0</text>
</g>
<!-- SG_2_Node_7&#45;&gt;SG_2_Node_15 -->
<g id="edge31" class="edge">
<title>SG_2_Node_7&#45;&gt;SG_2_Node_15</title>
<path fill="none" stroke="black" d="M2795.88,-295.4C2791.58,-289.16 2787.36,-281.83 2785,-274.43 2762.37,-203.48 2767.3,-114.43 2772.09,-68.59"/>
<polygon fill="black" stroke="black" points="2775.59,-68.76 2773.22,-58.43 2768.64,-67.98 2775.59,-68.76"/>
<text text-anchor="middle" x="2808.5" y="-258.43" font-family="Times,serif" font-size="20.00">[NA]</text>
<text text-anchor="middle" x="2808.5" y="-236.43" font-family="Times,serif" font-size="20.00">200</text>
<text text-anchor="middle" x="2808.5" y="-214.43" font-family="Times,serif" font-size="20.00">201</text>
<text text-anchor="middle" x="2808.5" y="-192.43" font-family="Times,serif" font-size="20.00">203</text>
<text text-anchor="middle" x="2808.5" y="-170.43" font-family="Times,serif" font-size="20.00">400</text>
<text text-anchor="middle" x="2808.5" y="-148.43" font-family="Times,serif" font-size="20.00">403</text>
<text text-anchor="middle" x="2808.5" y="-126.43" font-family="Times,serif" font-size="20.00">404</text>
<text text-anchor="middle" x="2808.5" y="-104.43" font-family="Times,serif" font-size="20.00">418</text>
<text text-anchor="middle" x="2808.5" y="-82.43" font-family="Times,serif" font-size="20.00">500</text>
</g>
<!-- SG_2_Node_16 -->
<g id="node33" class="node">
<title>SG_2_Node_16</title>
<ellipse fill="none" stroke="black" cx="2862" cy="-37.21" rx="33.88" ry="21.43"/>
<text text-anchor="middle" x="2862" y="-32.21" font-family="Times,serif" font-size="20.00">1.0</text>
</g>
<!-- SG_2_Node_7&#45;&gt;SG_2_Node_16 -->
<g id="edge32" class="edge">
<title>SG_2_Node_7&#45;&gt;SG_2_Node_16</title>
<path fill="none" stroke="black" d="M2821.83,-295.45C2825.67,-289.1 2829.56,-281.68 2832,-274.43 2855.84,-203.51 2860.97,-114.8 2861.92,-68.9"/>
<polygon fill="black" stroke="black" points="2865.43,-68.77 2862.08,-58.72 2858.43,-68.67 2865.43,-68.77"/>
<text text-anchor="middle" x="2880.5" y="-170.43" font-family="Times,serif" font-size="20.00">300</text>
</g>
<!-- SG_2_Node_17 -->
<g id="node34" class="node">
<title>SG_2_Node_17</title>
<ellipse fill="none" stroke="black" cx="3242" cy="-37.21" rx="33.88" ry="21.43"/>
<text text-anchor="middle" x="3242" y="-32.21" font-family="Times,serif" font-size="20.00">0.0</text>
</g>
<!-- SG_2_Node_8&#45;&gt;SG_2_Node_17 -->
<g id="edge29" class="edge">
<title>SG_2_Node_8&#45;&gt;SG_2_Node_17</title>
<path fill="none" stroke="black" d="M3266.83,-295.53C3262.19,-289.31 3257.62,-281.94 3255,-274.43 3230.5,-204.05 3234.2,-114.76 3238.43,-68.73"/>
<polygon fill="black" stroke="black" points="3241.94,-68.83 3239.45,-58.53 3234.97,-68.13 3241.94,-68.83"/>
<text text-anchor="middle" x="3274.5" y="-247.43" font-family="Times,serif" font-size="20.00">201</text>
<text text-anchor="middle" x="3274.5" y="-225.43" font-family="Times,serif" font-size="20.00">203</text>
<text text-anchor="middle" x="3274.5" y="-203.43" font-family="Times,serif" font-size="20.00">300</text>
<text text-anchor="middle" x="3274.5" y="-181.43" font-family="Times,serif" font-size="20.00">400</text>
<text text-anchor="middle" x="3274.5" y="-159.43" font-family="Times,serif" font-size="20.00">403</text>
<text text-anchor="middle" x="3274.5" y="-137.43" font-family="Times,serif" font-size="20.00">404</text>
<text text-anchor="middle" x="3274.5" y="-115.43" font-family="Times,serif" font-size="20.00">418</text>
<text text-anchor="middle" x="3274.5" y="-93.43" font-family="Times,serif" font-size="20.00">500</text>
</g>
<!-- SG_2_Node_18 -->
<g id="node35" class="node">
<title>SG_2_Node_18</title>
<ellipse fill="none" stroke="black" cx="3328" cy="-37.21" rx="33.88" ry="21.43"/>
<text text-anchor="middle" x="3328" y="-32.21" font-family="Times,serif" font-size="20.00">1.0</text>
</g>
<!-- SG_2_Node_8&#45;&gt;SG_2_Node_18 -->
<g id="edge30" class="edge">
<title>SG_2_Node_8&#45;&gt;SG_2_Node_18</title>
<path fill="none" stroke="black" d="M3288.1,-295.3C3290.2,-288.81 3292.43,-281.34 3294,-274.43 3310.59,-201.49 3320.69,-113.96 3325.2,-68.68"/>
<polygon fill="black" stroke="black" points="3328.69,-68.93 3326.18,-58.64 3321.73,-68.25 3328.69,-68.93"/>
<text text-anchor="middle" x="3347.5" y="-181.43" font-family="Times,serif" font-size="20.00">[NA]</text>
<text text-anchor="middle" x="3347.5" y="-159.43" font-family="Times,serif" font-size="20.00">200</text>
</g>
</g>
</svg>
