<?xml version="1.0" encoding="UTF-8" standalone="no"?>
<!DOCTYPE svg PUBLIC "-//W3C//DTD SVG 1.1//EN"
 "http://www.w3.org/Graphics/SVG/1.1/DTD/svg11.dtd">
<!-- Generated by graphviz version 2.43.0 (0)
 -->
<!-- Title: G Pages: 1 -->
<svg width="3850pt" height="863pt"
 viewBox="0.00 0.00 3850.08 862.85" xmlns="http://www.w3.org/2000/svg" xmlns:xlink="http://www.w3.org/1999/xlink">
<g id="graph0" class="graph" transform="scale(1 1) rotate(0) translate(4 858.85)">
<title>G</title>
<polygon fill="white" stroke="transparent" points="-4,4 -4,-858.85 3846.08,-858.85 3846.08,4 -4,4"/>
<g id="clust1" class="cluster">
<title>cluster_0</title>
<polygon fill="none" stroke="black" points="11.08,-240.43 11.08,-846.85 1236.08,-846.85 1236.08,-240.43 11.08,-240.43"/>
<text text-anchor="middle" x="623.58" y="-810.85" font-family="Times,serif" font-size="40.00">Tree 0, Class error</text>
</g>
<g id="clust5" class="cluster">
<title>cluster_1</title>
<polygon fill="none" stroke="black" points="1244.08,-240.43 1244.08,-846.85 2469.08,-846.85 2469.08,-240.43 1244.08,-240.43"/>
<text text-anchor="middle" x="1856.58" y="-810.85" font-family="Times,serif" font-size="40.00">Tree 0, Class load</text>
</g>
<g id="clust9" class="cluster">
<title>cluster_2</title>
<polygon fill="none" stroke="black" points="2477.08,-8 2477.08,-846.85 3834.08,-846.85 3834.08,-8 2477.08,-8"/>
<text text-anchor="middle" x="3155.58" y="-810.85" font-family="Times,serif" font-size="40.00">Tree 0, Class message timeout</text>
</g>
<!-- SG_0_Node_0 -->
<g id="node1" class="node">
<title>SG_0_Node_0</title>
<polygon fill="none" stroke="black" points="474.58,-786.85 373.58,-786.85 373.58,-750.85 474.58,-750.85 474.58,-786.85"/>
<text text-anchor="middle" x="424.08" y="-763.85" font-family="Times,serif" font-size="20.00">browser</text>
</g>
<!-- SG_0_Node_1 -->
<g id="node2" class="node">
<title>SG_0_Node_1</title>
<polygon fill="none" stroke="black" points="156.58,-516.85 19.58,-516.85 19.58,-480.85 156.58,-480.85 156.58,-516.85"/>
<text text-anchor="middle" x="88.08" y="-493.85" font-family="Times,serif" font-size="20.00">raw_header</text>
</g>
<!-- SG_0_Node_0&#45;&gt;SG_0_Node_1 -->
<g id="edge1" class="edge">
<title>SG_0_Node_0&#45;&gt;SG_0_Node_1</title>
<path fill="none" stroke="black" d="M373.31,-766.98C273.68,-764.74 60.26,-757.14 38.08,-732.85 -21.27,-667.88 -2.56,-612.91 38.08,-534.85 40.2,-530.78 43.04,-527.08 46.29,-523.75"/>
<polygon fill="black" stroke="black" points="48.74,-526.26 53.94,-517.03 44.12,-520.99 48.74,-526.26"/>
<text text-anchor="middle" x="397.58" y="-694.85" font-family="Times,serif" font-size="20.00">[NA]</text>
<text text-anchor="middle" x="397.58" y="-672.85" font-family="Times,serif" font-size="20.00">brave Ubuntu 22.04 1.60.114 (119.0.6045.124) selenium headless&#45;new</text>
<text text-anchor="middle" x="397.58" y="-650.85" font-family="Times,serif" font-size="20.00">brave Ubuntu 22.04 1.60.114 (119.0.6045.124) selenium xvfb</text>
<text text-anchor="middle" x="397.58" y="-628.85" font-family="Times,serif" font-size="20.00">chrome Ubuntu 22.04 119 selenium headless&#45;new</text>
<text text-anchor="middle" x="397.58" y="-606.85" font-family="Times,serif" font-size="20.00">chrome Ubuntu 22.04 119 selenium xvfb</text>
<text text-anchor="middle" x="397.58" y="-584.85" font-family="Times,serif" font-size="20.00">edge Ubuntu 22.04 119 selenium headless&#45;new</text>
<text text-anchor="middle" x="397.58" y="-562.85" font-family="Times,serif" font-size="20.00">edge Ubuntu 22.04 119 selenium xvfb</text>
</g>
<!-- SG_0_Node_2 -->
<g id="node3" class="node">
<title>SG_0_Node_2</title>
<polygon fill="none" stroke="black" points="847.58,-516.85 710.58,-516.85 710.58,-480.85 847.58,-480.85 847.58,-516.85"/>
<text text-anchor="middle" x="779.08" y="-493.85" font-family="Times,serif" font-size="20.00">raw_header</text>
</g>
<!-- SG_0_Node_0&#45;&gt;SG_0_Node_2 -->
<g id="edge2" class="edge">
<title>SG_0_Node_0&#45;&gt;SG_0_Node_2</title>
<path fill="none" stroke="black" d="M474.85,-766C563.18,-762.28 737.63,-752.51 757.08,-732.85 785.15,-704.49 783.1,-582.5 780.62,-527.24"/>
<polygon fill="black" stroke="black" points="784.11,-526.95 780.13,-517.13 777.12,-527.29 784.11,-526.95"/>
<text text-anchor="middle" x="1005.58" y="-639.85" font-family="Times,serif" font-size="20.00">firefox Ubuntu 22.04 119 selenium headless</text>
<text text-anchor="middle" x="1005.58" y="-617.85" font-family="Times,serif" font-size="20.00">firefox Ubuntu 22.04 119 selenium xvfb</text>
</g>
<!-- SG_0_Node_3 -->
<g id="node4" class="node">
<title>SG_0_Node_3</title>
<ellipse fill="none" stroke="black" cx="70.08" cy="-269.64" rx="33.88" ry="21.43"/>
<text text-anchor="middle" x="70.08" y="-264.64" font-family="Times,serif" font-size="20.00">0.0</text>
</g>
<!-- SG_0_Node_1&#45;&gt;SG_0_Node_3 -->
<g id="edge5" class="edge">
<title>SG_0_Node_1&#45;&gt;SG_0_Node_3</title>
<path fill="none" stroke="black" d="M77.82,-480.62C75.08,-475.13 72.49,-468.91 71.08,-462.85 58.05,-406.85 62.1,-339.16 66.15,-300.89"/>
<polygon fill="black" stroke="black" points="69.63,-301.23 67.28,-290.9 62.68,-300.45 69.63,-301.23"/>
<text text-anchor="middle" x="123.08" y="-391.85" font-family="Times,serif" font-size="20.00">[NA]</text>
<text text-anchor="middle" x="123.08" y="-369.85" font-family="Times,serif" font-size="20.00">104 levels</text>
</g>
<!-- SG_0_Node_4 -->
<g id="node5" class="node">
<title>SG_0_Node_4</title>
<ellipse fill="none" stroke="black" cx="197.08" cy="-269.64" rx="33.88" ry="21.43"/>
<text text-anchor="middle" x="197.08" y="-264.64" font-family="Times,serif" font-size="20.00">1.0</text>
</g>
<!-- SG_0_Node_1&#45;&gt;SG_0_Node_4 -->
<g id="edge6" class="edge">
<title>SG_0_Node_1&#45;&gt;SG_0_Node_4</title>
<path fill="none" stroke="black" d="M153.87,-480.67C162.02,-476.06 169.46,-470.23 175.08,-462.85 211.13,-415.54 207.83,-341.71 202.37,-300.69"/>
<polygon fill="black" stroke="black" points="205.83,-300.15 200.92,-290.76 198.91,-301.16 205.83,-300.15"/>
<text text-anchor="middle" x="250.58" y="-380.85" font-family="Times,serif" font-size="20.00">15 levels</text>
</g>
<!-- SG_0_Node_5 -->
<g id="node6" class="node">
<title>SG_0_Node_5</title>
<ellipse fill="none" stroke="black" cx="722.08" cy="-269.64" rx="33.88" ry="21.43"/>
<text text-anchor="middle" x="722.08" y="-264.64" font-family="Times,serif" font-size="20.00">0.0</text>
</g>
<!-- SG_0_Node_2&#45;&gt;SG_0_Node_5 -->
<g id="edge3" class="edge">
<title>SG_0_Node_2&#45;&gt;SG_0_Node_5</title>
<path fill="none" stroke="black" d="M740.11,-480.77C733.29,-475.99 727.1,-470.06 723.08,-462.85 694.58,-411.75 704.65,-340.49 713.83,-300.65"/>
<polygon fill="black" stroke="black" points="717.27,-301.3 716.24,-290.76 710.47,-299.64 717.27,-301.3"/>
<text text-anchor="middle" x="768.58" y="-380.85" font-family="Times,serif" font-size="20.00">25 levels</text>
</g>
<!-- SG_0_Node_6 -->
<g id="node7" class="node">
<title>SG_0_Node_6</title>
<ellipse fill="none" stroke="black" cx="836.08" cy="-269.64" rx="33.88" ry="21.43"/>
<text text-anchor="middle" x="836.08" y="-264.64" font-family="Times,serif" font-size="20.00">1.0</text>
</g>
<!-- SG_0_Node_2&#45;&gt;SG_0_Node_6 -->
<g id="edge4" class="edge">
<title>SG_0_Node_2&#45;&gt;SG_0_Node_6</title>
<path fill="none" stroke="black" d="M801,-480.49C806.1,-475.36 810.94,-469.35 814.08,-462.85 839.49,-410.21 840.52,-340.3 838.57,-300.94"/>
<polygon fill="black" stroke="black" points="842.06,-300.69 837.98,-290.92 835.08,-301.11 842.06,-300.69"/>
<text text-anchor="middle" x="884.58" y="-391.85" font-family="Times,serif" font-size="20.00">[NA]</text>
<text text-anchor="middle" x="884.58" y="-369.85" font-family="Times,serif" font-size="20.00">94 levels</text>
</g>
<!-- SG_1_Node_0 -->
<g id="node8" class="node">
<title>SG_1_Node_0</title>
<polygon fill="none" stroke="black" points="1572.58,-786.85 1471.58,-786.85 1471.58,-750.85 1572.58,-750.85 1572.58,-786.85"/>
<text text-anchor="middle" x="1522.08" y="-763.85" font-family="Times,serif" font-size="20.00">browser</text>
</g>
<!-- SG_1_Node_1 -->
<g id="node9" class="node">
<title>SG_1_Node_1</title>
<polygon fill="none" stroke="black" points="1389.58,-516.85 1252.58,-516.85 1252.58,-480.85 1389.58,-480.85 1389.58,-516.85"/>
<text text-anchor="middle" x="1321.08" y="-493.85" font-family="Times,serif" font-size="20.00">raw_header</text>
</g>
<!-- SG_1_Node_0&#45;&gt;SG_1_Node_1 -->
<g id="edge7" class="edge">
<title>SG_1_Node_0&#45;&gt;SG_1_Node_1</title>
<path fill="none" stroke="black" d="M1471.31,-768.29C1405.6,-767.65 1296.5,-762.06 1271.08,-732.85 1242.2,-699.66 1250.76,-573.88 1271.08,-534.85 1273.2,-530.78 1276.04,-527.08 1279.29,-523.75"/>
<polygon fill="black" stroke="black" points="1281.74,-526.26 1286.94,-517.03 1277.12,-520.99 1281.74,-526.26"/>
<text text-anchor="middle" x="1495.58" y="-639.85" font-family="Times,serif" font-size="20.00">firefox Ubuntu 22.04 119 selenium headless</text>
<text text-anchor="middle" x="1495.58" y="-617.85" font-family="Times,serif" font-size="20.00">firefox Ubuntu 22.04 119 selenium xvfb</text>
</g>
<!-- SG_1_Node_2 -->
<g id="node10" class="node">
<title>SG_1_Node_2</title>
<polygon fill="none" stroke="black" points="1810.58,-516.85 1673.58,-516.85 1673.58,-480.85 1810.58,-480.85 1810.58,-516.85"/>
<text text-anchor="middle" x="1742.08" y="-493.85" font-family="Times,serif" font-size="20.00">raw_header</text>
</g>
<!-- SG_1_Node_0&#45;&gt;SG_1_Node_2 -->
<g id="edge8" class="edge">
<title>SG_1_Node_0&#45;&gt;SG_1_Node_2</title>
<path fill="none" stroke="black" d="M1572.9,-765.69C1624.87,-762.34 1700.67,-753.89 1720.08,-732.85 1747.13,-703.52 1745.62,-582.05 1743.46,-527.08"/>
<polygon fill="black" stroke="black" points="1746.95,-526.87 1743.02,-517.03 1739.96,-527.17 1746.95,-526.87"/>
<text text-anchor="middle" x="2103.58" y="-694.85" font-family="Times,serif" font-size="20.00">[NA]</text>
<text text-anchor="middle" x="2103.58" y="-672.85" font-family="Times,serif" font-size="20.00">brave Ubuntu 22.04 1.60.114 (119.0.6045.124) selenium headless&#45;new</text>
<text text-anchor="middle" x="2103.58" y="-650.85" font-family="Times,serif" font-size="20.00">brave Ubuntu 22.04 1.60.114 (119.0.6045.124) selenium xvfb</text>
<text text-anchor="middle" x="2103.58" y="-628.85" font-family="Times,serif" font-size="20.00">chrome Ubuntu 22.04 119 selenium headless&#45;new</text>
<text text-anchor="middle" x="2103.58" y="-606.85" font-family="Times,serif" font-size="20.00">chrome Ubuntu 22.04 119 selenium xvfb</text>
<text text-anchor="middle" x="2103.58" y="-584.85" font-family="Times,serif" font-size="20.00">edge Ubuntu 22.04 119 selenium headless&#45;new</text>
<text text-anchor="middle" x="2103.58" y="-562.85" font-family="Times,serif" font-size="20.00">edge Ubuntu 22.04 119 selenium xvfb</text>
</g>
<!-- SG_1_Node_3 -->
<g id="node11" class="node">
<title>SG_1_Node_3</title>
<ellipse fill="none" stroke="black" cx="1303.08" cy="-269.64" rx="33.88" ry="21.43"/>
<text text-anchor="middle" x="1303.08" y="-264.64" font-family="Times,serif" font-size="20.00">0.0</text>
</g>
<!-- SG_1_Node_1&#45;&gt;SG_1_Node_3 -->
<g id="edge11" class="edge">
<title>SG_1_Node_1&#45;&gt;SG_1_Node_3</title>
<path fill="none" stroke="black" d="M1310.82,-480.62C1308.08,-475.13 1305.49,-468.91 1304.08,-462.85 1291.05,-406.85 1295.1,-339.16 1299.15,-300.89"/>
<polygon fill="black" stroke="black" points="1302.63,-301.23 1300.28,-290.9 1295.68,-300.45 1302.63,-301.23"/>
<text text-anchor="middle" x="1349.58" y="-391.85" font-family="Times,serif" font-size="20.00">[NA]</text>
<text text-anchor="middle" x="1349.58" y="-369.85" font-family="Times,serif" font-size="20.00">97 levels</text>
</g>
<!-- SG_1_Node_4 -->
<g id="node12" class="node">
<title>SG_1_Node_4</title>
<ellipse fill="none" stroke="black" cx="1417.08" cy="-269.64" rx="33.88" ry="21.43"/>
<text text-anchor="middle" x="1417.08" y="-264.64" font-family="Times,serif" font-size="20.00">1.0</text>
</g>
<!-- SG_1_Node_1&#45;&gt;SG_1_Node_4 -->
<g id="edge12" class="edge">
<title>SG_1_Node_1&#45;&gt;SG_1_Node_4</title>
<path fill="none" stroke="black" d="M1374.58,-480.8C1382.51,-476.13 1389.78,-470.25 1395.08,-462.85 1429.55,-414.72 1426.98,-341.76 1422.04,-300.97"/>
<polygon fill="black" stroke="black" points="1425.48,-300.29 1420.68,-290.84 1418.54,-301.22 1425.48,-300.29"/>
<text text-anchor="middle" x="1469.58" y="-380.85" font-family="Times,serif" font-size="20.00">22 levels</text>
</g>
<!-- SG_1_Node_5 -->
<g id="node13" class="node">
<title>SG_1_Node_5</title>
<ellipse fill="none" stroke="black" cx="1685.08" cy="-269.64" rx="33.88" ry="21.43"/>
<text text-anchor="middle" x="1685.08" y="-264.64" font-family="Times,serif" font-size="20.00">0.0</text>
</g>
<!-- SG_1_Node_2&#45;&gt;SG_1_Node_5 -->
<g id="edge9" class="edge">
<title>SG_1_Node_2&#45;&gt;SG_1_Node_5</title>
<path fill="none" stroke="black" d="M1703.11,-480.77C1696.29,-475.99 1690.1,-470.06 1686.08,-462.85 1657.58,-411.75 1667.65,-340.49 1676.83,-300.65"/>
<polygon fill="black" stroke="black" points="1680.27,-301.3 1679.24,-290.76 1673.47,-299.64 1680.27,-301.3"/>
<text text-anchor="middle" x="1731.58" y="-380.85" font-family="Times,serif" font-size="20.00">24 levels</text>
</g>
<!-- SG_1_Node_6 -->
<g id="node14" class="node">
<title>SG_1_Node_6</title>
<ellipse fill="none" stroke="black" cx="1799.08" cy="-269.64" rx="33.88" ry="21.43"/>
<text text-anchor="middle" x="1799.08" y="-264.64" font-family="Times,serif" font-size="20.00">1.0</text>
</g>
<!-- SG_1_Node_2&#45;&gt;SG_1_Node_6 -->
<g id="edge10" class="edge">
<title>SG_1_Node_2&#45;&gt;SG_1_Node_6</title>
<path fill="none" stroke="black" d="M1764,-480.49C1769.1,-475.36 1773.94,-469.35 1777.08,-462.85 1802.49,-410.21 1803.52,-340.3 1801.57,-300.94"/>
<polygon fill="black" stroke="black" points="1805.06,-300.69 1800.98,-290.92 1798.08,-301.11 1805.06,-300.69"/>
<text text-anchor="middle" x="1847.58" y="-391.85" font-family="Times,serif" font-size="20.00">[NA]</text>
<text text-anchor="middle" x="1847.58" y="-369.85" font-family="Times,serif" font-size="20.00">95 levels</text>
</g>
<!-- SG_2_Node_0 -->
<g id="node15" class="node">
<title>SG_2_Node_0</title>
<polygon fill="none" stroke="black" points="2685.58,-786.85 2548.58,-786.85 2548.58,-750.85 2685.58,-750.85 2685.58,-786.85"/>
<text text-anchor="middle" x="2617.08" y="-763.85" font-family="Times,serif" font-size="20.00">raw_header</text>
</g>
<!-- SG_2_Node_1 -->
<g id="node16" class="node">
<title>SG_2_Node_1</title>
<polygon fill="none" stroke="black" points="2631.58,-516.85 2494.58,-516.85 2494.58,-480.85 2631.58,-480.85 2631.58,-516.85"/>
<text text-anchor="middle" x="2563.08" y="-493.85" font-family="Times,serif" font-size="20.00">status_code</text>
</g>
<!-- SG_2_Node_0&#45;&gt;SG_2_Node_1 -->
<g id="edge13" class="edge">
<title>SG_2_Node_0&#45;&gt;SG_2_Node_1</title>
<path fill="none" stroke="black" d="M2586.5,-750.7C2580.35,-745.77 2574.68,-739.81 2571.08,-732.85 2536.31,-665.62 2548.07,-572.28 2556.93,-526.85"/>
<polygon fill="black" stroke="black" points="2560.4,-527.39 2558.98,-516.89 2553.54,-525.98 2560.4,-527.39"/>
<text text-anchor="middle" x="2623.08" y="-639.85" font-family="Times,serif" font-size="20.00">[NA]</text>
<text text-anchor="middle" x="2623.08" y="-617.85" font-family="Times,serif" font-size="20.00">110 levels</text>
</g>
<!-- SG_2_Node_2 -->
<g id="node17" class="node">
<title>SG_2_Node_2</title>
<polygon fill="none" stroke="black" points="2750.58,-516.85 2649.58,-516.85 2649.58,-480.85 2750.58,-480.85 2750.58,-516.85"/>
<text text-anchor="middle" x="2700.08" y="-493.85" font-family="Times,serif" font-size="20.00">browser</text>
</g>
<!-- SG_2_Node_0&#45;&gt;SG_2_Node_2 -->
<g id="edge14" class="edge">
<title>SG_2_Node_0&#45;&gt;SG_2_Node_2</title>
<path fill="none" stroke="black" d="M2656.84,-750.67C2663.95,-745.89 2670.53,-739.99 2675.08,-732.85 2716.07,-668.53 2710.43,-573.47 2704.48,-527.18"/>
<polygon fill="black" stroke="black" points="2707.91,-526.45 2703.06,-517.02 2700.98,-527.41 2707.91,-526.45"/>
<text text-anchor="middle" x="2950.08" y="-716.85" font-family="Times,serif" font-size="20.00">[[&#39;x00content&#45;security&#45;policy&#39;, &quot;img&#45;src &#39;none&#39;&quot;]]</text>
<text text-anchor="middle" x="2950.08" y="-694.85" font-family="Times,serif" font-size="20.00">[[&#39;x00content&#45;security&#45;policy&#39;, &quot;img&#45;src &#39;self&#39;&quot;]]</text>
<text text-anchor="middle" x="2950.08" y="-672.85" font-family="Times,serif" font-size="20.00">[[&#39;x00content&#45;security&#45;policy&#39;, &#39;img&#45;src *&#39;]]</text>
<text text-anchor="middle" x="2950.08" y="-650.85" font-family="Times,serif" font-size="20.00">[[&#39;content&#45;secx00urity&#45;policy&#39;, &quot;img&#45;src &#39;none&#39;&quot;]]</text>
<text text-anchor="middle" x="2950.08" y="-628.85" font-family="Times,serif" font-size="20.00">[[&#39;content&#45;secx00urity&#45;policy&#39;, &quot;img&#45;src &#39;self&#39;&quot;]]</text>
<text text-anchor="middle" x="2950.08" y="-606.85" font-family="Times,serif" font-size="20.00">[[&#39;content&#45;secx00urity&#45;policy&#39;, &#39;img&#45;src *&#39;]]</text>
<text text-anchor="middle" x="2950.08" y="-584.85" font-family="Times,serif" font-size="20.00">[[&#39;content&#45;security&#45;policyx00&#39;, &quot;img&#45;src &#39;none&#39;&quot;]]</text>
<text text-anchor="middle" x="2950.08" y="-562.85" font-family="Times,serif" font-size="20.00">[[&#39;content&#45;security&#45;policyx00&#39;, &quot;img&#45;src &#39;self&#39;&quot;]]</text>
<text text-anchor="middle" x="2950.08" y="-540.85" font-family="Times,serif" font-size="20.00">[[&#39;content&#45;security&#45;policyx00&#39;, &#39;img&#45;src *&#39;]]</text>
</g>
<!-- SG_2_Node_4 -->
<g id="node18" class="node">
<title>SG_2_Node_4</title>
<ellipse fill="none" stroke="black" cx="2519.08" cy="-269.64" rx="33.88" ry="21.43"/>
<text text-anchor="middle" x="2519.08" y="-264.64" font-family="Times,serif" font-size="20.00">0.0</text>
</g>
<!-- SG_2_Node_1&#45;&gt;SG_2_Node_4 -->
<g id="edge17" class="edge">
<title>SG_2_Node_1&#45;&gt;SG_2_Node_4</title>
<path fill="none" stroke="black" d="M2521.44,-480.75C2514.49,-476 2508.21,-470.1 2504.08,-462.85 2470.21,-403.38 2491.35,-376.1 2504.08,-308.85 2504.66,-305.8 2505.47,-302.68 2506.43,-299.6"/>
<polygon fill="black" stroke="black" points="2509.77,-300.65 2509.84,-290.05 2503.18,-298.29 2509.77,-300.65"/>
<text text-anchor="middle" x="2527.58" y="-391.85" font-family="Times,serif" font-size="20.00">[NA]</text>
<text text-anchor="middle" x="2527.58" y="-369.85" font-family="Times,serif" font-size="20.00">200</text>
</g>
<!-- SG_2_Node_3 -->
<g id="node19" class="node">
<title>SG_2_Node_3</title>
<polygon fill="none" stroke="black" points="2671.58,-287.64 2570.58,-287.64 2570.58,-251.64 2671.58,-251.64 2671.58,-287.64"/>
<text text-anchor="middle" x="2621.08" y="-264.64" font-family="Times,serif" font-size="20.00">browser</text>
</g>
<!-- SG_2_Node_1&#45;&gt;SG_2_Node_3 -->
<g id="edge18" class="edge">
<title>SG_2_Node_1&#45;&gt;SG_2_Node_3</title>
<path fill="none" stroke="black" d="M2560.56,-480.85C2556.28,-446.36 2550.59,-366.58 2579.08,-308.85 2581.53,-303.88 2584.94,-299.25 2588.76,-295.05"/>
<polygon fill="black" stroke="black" points="2591.28,-297.47 2595.96,-287.97 2586.37,-292.48 2591.28,-297.47"/>
<text text-anchor="middle" x="2598.58" y="-380.85" font-family="Times,serif" font-size="20.00">300</text>
</g>
<!-- SG_2_Node_5 -->
<g id="node20" class="node">
<title>SG_2_Node_5</title>
<ellipse fill="none" stroke="black" cx="2723.08" cy="-269.64" rx="33.88" ry="21.43"/>
<text text-anchor="middle" x="2723.08" y="-264.64" font-family="Times,serif" font-size="20.00">0.0</text>
</g>
<!-- SG_2_Node_2&#45;&gt;SG_2_Node_5 -->
<g id="edge15" class="edge">
<title>SG_2_Node_2&#45;&gt;SG_2_Node_5</title>
<path fill="none" stroke="black" d="M2654.01,-480.72C2646.85,-476.03 2640.41,-470.15 2636.08,-462.85 2618.63,-433.42 2616.89,-337.19 2636.08,-308.85 2648.16,-291.02 2661.36,-299.53 2681.08,-290.85 2683.27,-289.89 2685.51,-288.88 2687.76,-287.85"/>
<polygon fill="black" stroke="black" points="2689.42,-290.94 2696.99,-283.53 2686.45,-284.6 2689.42,-290.94"/>
<text text-anchor="middle" x="2860.58" y="-391.85" font-family="Times,serif" font-size="20.00">firefox Ubuntu 22.04 119 selenium headless</text>
<text text-anchor="middle" x="2860.58" y="-369.85" font-family="Times,serif" font-size="20.00">firefox Ubuntu 22.04 119 selenium xvfb</text>
</g>
<!-- SG_2_Node_6 -->
<g id="node21" class="node">
<title>SG_2_Node_6</title>
<ellipse fill="none" stroke="black" cx="3107.08" cy="-269.64" rx="33.88" ry="21.43"/>
<text text-anchor="middle" x="3107.08" y="-264.64" font-family="Times,serif" font-size="20.00">1.0</text>
</g>
<!-- SG_2_Node_2&#45;&gt;SG_2_Node_6 -->
<g id="edge16" class="edge">
<title>SG_2_Node_2&#45;&gt;SG_2_Node_6</title>
<path fill="none" stroke="black" d="M2750.87,-496.74C2850,-494.08 3061.65,-485.75 3085.08,-462.85 3128.16,-420.77 3121.69,-343.34 3113.94,-300.73"/>
<polygon fill="black" stroke="black" points="3117.33,-299.83 3111.97,-290.68 3110.46,-301.17 3117.33,-299.83"/>
<text text-anchor="middle" x="3478.58" y="-446.85" font-family="Times,serif" font-size="20.00">[NA]</text>
<text text-anchor="middle" x="3478.58" y="-424.85" font-family="Times,serif" font-size="20.00">brave Ubuntu 22.04 1.60.114 (119.0.6045.124) selenium headless&#45;new</text>
<text text-anchor="middle" x="3478.58" y="-402.85" font-family="Times,serif" font-size="20.00">brave Ubuntu 22.04 1.60.114 (119.0.6045.124) selenium xvfb</text>
<text text-anchor="middle" x="3478.58" y="-380.85" font-family="Times,serif" font-size="20.00">chrome Ubuntu 22.04 119 selenium headless&#45;new</text>
<text text-anchor="middle" x="3478.58" y="-358.85" font-family="Times,serif" font-size="20.00">chrome Ubuntu 22.04 119 selenium xvfb</text>
<text text-anchor="middle" x="3478.58" y="-336.85" font-family="Times,serif" font-size="20.00">edge Ubuntu 22.04 119 selenium headless&#45;new</text>
<text text-anchor="middle" x="3478.58" y="-314.85" font-family="Times,serif" font-size="20.00">edge Ubuntu 22.04 119 selenium xvfb</text>
</g>
<!-- SG_2_Node_7 -->
<g id="node22" class="node">
<title>SG_2_Node_7</title>
<ellipse fill="none" stroke="black" cx="2570.08" cy="-37.21" rx="33.88" ry="21.43"/>
<text text-anchor="middle" x="2570.08" y="-32.21" font-family="Times,serif" font-size="20.00">0.0</text>
</g>
<!-- SG_2_Node_3&#45;&gt;SG_2_Node_7 -->
<g id="edge19" class="edge">
<title>SG_2_Node_3&#45;&gt;SG_2_Node_7</title>
<path fill="none" stroke="black" d="M2589.75,-251.6C2582.28,-245.91 2575.27,-238.84 2571.08,-230.43 2545.08,-178.18 2554.14,-107.62 2562.49,-68.15"/>
<polygon fill="black" stroke="black" points="2565.91,-68.87 2564.68,-58.35 2559.08,-67.34 2565.91,-68.87"/>
<text text-anchor="middle" x="2930.58" y="-214.43" font-family="Times,serif" font-size="20.00">[NA]</text>
<text text-anchor="middle" x="2930.58" y="-192.43" font-family="Times,serif" font-size="20.00">brave Ubuntu 22.04 1.60.114 (119.0.6045.124) selenium headless&#45;new</text>
<text text-anchor="middle" x="2930.58" y="-170.43" font-family="Times,serif" font-size="20.00">brave Ubuntu 22.04 1.60.114 (119.0.6045.124) selenium xvfb</text>
<text text-anchor="middle" x="2930.58" y="-148.43" font-family="Times,serif" font-size="20.00">chrome Ubuntu 22.04 119 selenium headless&#45;new</text>
<text text-anchor="middle" x="2930.58" y="-126.43" font-family="Times,serif" font-size="20.00">chrome Ubuntu 22.04 119 selenium xvfb</text>
<text text-anchor="middle" x="2930.58" y="-104.43" font-family="Times,serif" font-size="20.00">edge Ubuntu 22.04 119 selenium headless&#45;new</text>
<text text-anchor="middle" x="2930.58" y="-82.43" font-family="Times,serif" font-size="20.00">edge Ubuntu 22.04 119 selenium xvfb</text>
</g>
<!-- SG_2_Node_8 -->
<g id="node23" class="node">
<title>SG_2_Node_8</title>
<ellipse fill="none" stroke="black" cx="3312.08" cy="-37.21" rx="33.88" ry="21.43"/>
<text text-anchor="middle" x="3312.08" y="-32.21" font-family="Times,serif" font-size="20.00">1.0</text>
</g>
<!-- SG_2_Node_3&#45;&gt;SG_2_Node_8 -->
<g id="edge20" class="edge">
<title>SG_2_Node_3&#45;&gt;SG_2_Node_8</title>
<path fill="none" stroke="black" d="M2650.48,-251.54C2659.66,-247.04 2670.02,-242.79 2680.08,-240.43 2696.58,-236.54 3277.53,-241.81 3290.08,-230.43 3334.9,-189.78 3327.54,-111.16 3319.24,-68.13"/>
<polygon fill="black" stroke="black" points="3322.65,-67.34 3317.19,-58.26 3315.79,-68.76 3322.65,-67.34"/>
<text text-anchor="middle" x="3549.58" y="-159.43" font-family="Times,serif" font-size="20.00">firefox Ubuntu 22.04 119 selenium headless</text>
<text text-anchor="middle" x="3549.58" y="-137.43" font-family="Times,serif" font-size="20.00">firefox Ubuntu 22.04 119 selenium xvfb</text>
</g>
</g>
</svg>
