<?xml version="1.0" encoding="UTF-8" standalone="no"?>
<!DOCTYPE svg PUBLIC "-//W3C//DTD SVG 1.1//EN"
 "http://www.w3.org/Graphics/SVG/1.1/DTD/svg11.dtd">
<!-- Generated by graphviz version 2.43.0 (0)
 -->
<!-- Title: G Pages: 1 -->
<svg width="4910pt" height="709pt"
 viewBox="0.00 0.00 4910.00 708.85" xmlns="http://www.w3.org/2000/svg" xmlns:xlink="http://www.w3.org/1999/xlink">
<g id="graph0" class="graph" transform="scale(1 1) rotate(0) translate(4 704.85)">
<title>G</title>
<polygon fill="white" stroke="transparent" points="-4,4 -4,-704.85 4906,-704.85 4906,4 -4,4"/>
<g id="clust1" class="cluster">
<title>cluster_0</title>
<polygon fill="none" stroke="black" points="8,-8 8,-692.85 2447,-692.85 2447,-8 8,-8"/>
<text text-anchor="middle" x="1227.5" y="-656.85" font-family="Times,serif" font-size="40.00">Tree 0, Class {&#39;requestStart != 0&#39;: False}</text>
</g>
<g id="clust6" class="cluster">
<title>cluster_1</title>
<polygon fill="none" stroke="black" points="2455,-8 2455,-692.85 4894,-692.85 4894,-8 2455,-8"/>
<text text-anchor="middle" x="3674.5" y="-656.85" font-family="Times,serif" font-size="40.00">Tree 0, Class {&#39;requestStart != 0&#39;: True}</text>
</g>
<!-- SG_0_Node_0 -->
<g id="node1" class="node">
<title>SG_0_Node_0</title>
<polygon fill="none" stroke="black" points="1164.5,-632.85 1027.5,-632.85 1027.5,-596.85 1164.5,-596.85 1164.5,-632.85"/>
<text text-anchor="middle" x="1096" y="-609.85" font-family="Times,serif" font-size="20.00">raw_header</text>
</g>
<!-- SG_0_Node_1 -->
<g id="node2" class="node">
<title>SG_0_Node_1</title>
<polygon fill="none" stroke="black" points="826.5,-428.85 725.5,-428.85 725.5,-392.85 826.5,-392.85 826.5,-428.85"/>
<text text-anchor="middle" x="776" y="-405.85" font-family="Times,serif" font-size="20.00">browser</text>
</g>
<!-- SG_0_Node_0&#45;&gt;SG_0_Node_1 -->
<g id="edge1" class="edge">
<title>SG_0_Node_0&#45;&gt;SG_0_Node_1</title>
<path fill="none" stroke="black" d="M1027.22,-610.61C967.3,-606.55 886.06,-597.69 860,-578.85 812.88,-544.79 790.57,-476.61 781.43,-438.75"/>
<polygon fill="black" stroke="black" points="784.82,-437.9 779.18,-428.93 778,-439.46 784.82,-437.9"/>
<text text-anchor="middle" x="1000" y="-562.85" font-family="Times,serif" font-size="20.00">[NA]</text>
<text text-anchor="end" x="1140" y="-540.85" font-family="Times,serif" font-size="20.00">[[&#39;</text>
<text text-anchor="middle" x="1000" y="-518.85" font-family="Times,serif" font-size="20.00">timing&#45;allow&#45;origin&#39;, &#39;*&#39;]]</text>
<text text-anchor="middle" x="1000" y="-496.85" font-family="Times,serif" font-size="20.00">[[&#39;timing&#45;allow&#45;origin &#160;&#39;, &#39;*&#39;]]</text>
<text text-anchor="middle" x="1000" y="-474.85" font-family="Times,serif" font-size="20.00">[[&#39;timing&#45;allow&#45;origin &#39;, &#39;*&#39;]]</text>
<text text-anchor="middle" x="1000" y="-452.85" font-family="Times,serif" font-size="20.00">[[&#39;timing&#45;allow&#45;origint&#39;, &#39;*&#39;]]</text>
</g>
<!-- SG_0_Node_2 -->
<g id="node3" class="node">
<title>SG_0_Node_2</title>
<polygon fill="none" stroke="black" points="1298.5,-428.85 1197.5,-428.85 1197.5,-392.85 1298.5,-392.85 1298.5,-428.85"/>
<text text-anchor="middle" x="1248" y="-405.85" font-family="Times,serif" font-size="20.00">browser</text>
</g>
<!-- SG_0_Node_0&#45;&gt;SG_0_Node_2 -->
<g id="edge2" class="edge">
<title>SG_0_Node_0&#45;&gt;SG_0_Node_2</title>
<path fill="none" stroke="black" d="M1123.15,-596.82C1130.39,-591.57 1137.89,-585.42 1144,-578.85 1184.81,-534.95 1218.54,-472.75 1235.72,-437.98"/>
<polygon fill="black" stroke="black" points="1238.89,-439.46 1240.12,-428.94 1232.6,-436.4 1238.89,-439.46"/>
<text text-anchor="middle" x="1748.5" y="-551.85" font-family="Times,serif" font-size="20.00">[[&#39;timing&#45;allow&#45;origin&#39;, &#39;*&#39;], [&#39;location&#39;, &#39;https://sub.headers.websec.saarland/_hp/common/empty.html&#39;]]</text>
<text text-anchor="end" x="2267" y="-529.85" font-family="Times,serif" font-size="20.00">[[&#39;timing&#45;allow&#45;origin&#39;, &#39;</text>
<text text-anchor="middle" x="1748.5" y="-507.85" font-family="Times,serif" font-size="20.00">*&#39;]]</text>
<text text-anchor="end" x="2267" y="-485.85" font-family="Times,serif" font-size="20.00">[[&#39;timing&#45;allow&#45;origin</text>
<text text-anchor="middle" x="1748.5" y="-463.85" font-family="Times,serif" font-size="20.00">&#39;, &#39;*&#39;]]</text>
</g>
<!-- SG_0_Node_5 -->
<g id="node4" class="node">
<title>SG_0_Node_5</title>
<ellipse fill="none" stroke="black" cx="50" cy="-181.64" rx="33.88" ry="21.43"/>
<text text-anchor="middle" x="50" y="-176.64" font-family="Times,serif" font-size="20.00">0.0</text>
</g>
<!-- SG_0_Node_1&#45;&gt;SG_0_Node_5 -->
<g id="edge9" class="edge">
<title>SG_0_Node_1&#45;&gt;SG_0_Node_5</title>
<path fill="none" stroke="black" d="M725.33,-409.28C564.75,-407.22 76.35,-398.98 53,-374.85 11.3,-331.76 26.66,-254.47 39.52,-212.21"/>
<polygon fill="black" stroke="black" points="42.91,-213.1 42.62,-202.51 36.24,-210.97 42.91,-213.1"/>
<text text-anchor="middle" x="412.5" y="-358.85" font-family="Times,serif" font-size="20.00">[NA]</text>
<text text-anchor="middle" x="412.5" y="-336.85" font-family="Times,serif" font-size="20.00">brave Ubuntu 22.04 1.60.114 (119.0.6045.124) selenium headless&#45;new</text>
<text text-anchor="middle" x="412.5" y="-314.85" font-family="Times,serif" font-size="20.00">brave Ubuntu 22.04 1.60.114 (119.0.6045.124) selenium xvfb</text>
<text text-anchor="middle" x="412.5" y="-292.85" font-family="Times,serif" font-size="20.00">chrome Ubuntu 22.04 119 selenium headless&#45;new</text>
<text text-anchor="middle" x="412.5" y="-270.85" font-family="Times,serif" font-size="20.00">chrome Ubuntu 22.04 119 selenium xvfb</text>
<text text-anchor="middle" x="412.5" y="-248.85" font-family="Times,serif" font-size="20.00">edge Ubuntu 22.04 119 selenium headless&#45;new</text>
<text text-anchor="middle" x="412.5" y="-226.85" font-family="Times,serif" font-size="20.00">edge Ubuntu 22.04 119 selenium xvfb</text>
</g>
<!-- SG_0_Node_6 -->
<g id="node5" class="node">
<title>SG_0_Node_6</title>
<ellipse fill="none" stroke="black" cx="776" cy="-181.64" rx="33.88" ry="21.43"/>
<text text-anchor="middle" x="776" y="-176.64" font-family="Times,serif" font-size="20.00">1.0</text>
</g>
<!-- SG_0_Node_1&#45;&gt;SG_0_Node_6 -->
<g id="edge10" class="edge">
<title>SG_0_Node_1&#45;&gt;SG_0_Node_6</title>
<path fill="none" stroke="black" d="M776,-392.77C776,-354.59 776,-261.85 776,-213.35"/>
<polygon fill="black" stroke="black" points="779.5,-213.14 776,-203.14 772.5,-213.14 779.5,-213.14"/>
<text text-anchor="middle" x="1000.5" y="-303.85" font-family="Times,serif" font-size="20.00">firefox Ubuntu 22.04 119 selenium headless</text>
<text text-anchor="middle" x="1000.5" y="-281.85" font-family="Times,serif" font-size="20.00">firefox Ubuntu 22.04 119 selenium xvfb</text>
</g>
<!-- SG_0_Node_3 -->
<g id="node6" class="node">
<title>SG_0_Node_3</title>
<polygon fill="none" stroke="black" points="1316.5,-199.64 1179.5,-199.64 1179.5,-163.64 1316.5,-163.64 1316.5,-199.64"/>
<text text-anchor="middle" x="1248" y="-176.64" font-family="Times,serif" font-size="20.00">status_code</text>
</g>
<!-- SG_0_Node_2&#45;&gt;SG_0_Node_3 -->
<g id="edge3" class="edge">
<title>SG_0_Node_2&#45;&gt;SG_0_Node_3</title>
<path fill="none" stroke="black" d="M1248,-392.77C1248,-353.71 1248,-257.56 1248,-210.08"/>
<polygon fill="black" stroke="black" points="1251.5,-209.92 1248,-199.92 1244.5,-209.92 1251.5,-209.92"/>
<text text-anchor="middle" x="1472.5" y="-303.85" font-family="Times,serif" font-size="20.00">firefox Ubuntu 22.04 119 selenium headless</text>
<text text-anchor="middle" x="1472.5" y="-281.85" font-family="Times,serif" font-size="20.00">firefox Ubuntu 22.04 119 selenium xvfb</text>
</g>
<!-- SG_0_Node_4 -->
<g id="node7" class="node">
<title>SG_0_Node_4</title>
<polygon fill="none" stroke="black" points="1788.5,-199.64 1651.5,-199.64 1651.5,-163.64 1788.5,-163.64 1788.5,-199.64"/>
<text text-anchor="middle" x="1720" y="-176.64" font-family="Times,serif" font-size="20.00">status_code</text>
</g>
<!-- SG_0_Node_2&#45;&gt;SG_0_Node_4 -->
<g id="edge4" class="edge">
<title>SG_0_Node_2&#45;&gt;SG_0_Node_4</title>
<path fill="none" stroke="black" d="M1298.71,-409.47C1410.36,-408.13 1669.76,-402.08 1698,-374.85 1720.99,-352.68 1721.96,-257.37 1720.94,-209.82"/>
<polygon fill="black" stroke="black" points="1724.44,-209.55 1720.68,-199.64 1717.44,-209.73 1724.44,-209.55"/>
<text text-anchor="middle" x="2080.5" y="-358.85" font-family="Times,serif" font-size="20.00">[NA]</text>
<text text-anchor="middle" x="2080.5" y="-336.85" font-family="Times,serif" font-size="20.00">brave Ubuntu 22.04 1.60.114 (119.0.6045.124) selenium headless&#45;new</text>
<text text-anchor="middle" x="2080.5" y="-314.85" font-family="Times,serif" font-size="20.00">brave Ubuntu 22.04 1.60.114 (119.0.6045.124) selenium xvfb</text>
<text text-anchor="middle" x="2080.5" y="-292.85" font-family="Times,serif" font-size="20.00">chrome Ubuntu 22.04 119 selenium headless&#45;new</text>
<text text-anchor="middle" x="2080.5" y="-270.85" font-family="Times,serif" font-size="20.00">chrome Ubuntu 22.04 119 selenium xvfb</text>
<text text-anchor="middle" x="2080.5" y="-248.85" font-family="Times,serif" font-size="20.00">edge Ubuntu 22.04 119 selenium headless&#45;new</text>
<text text-anchor="middle" x="2080.5" y="-226.85" font-family="Times,serif" font-size="20.00">edge Ubuntu 22.04 119 selenium xvfb</text>
</g>
<!-- SG_0_Node_7 -->
<g id="node8" class="node">
<title>SG_0_Node_7</title>
<ellipse fill="none" stroke="black" cx="1205" cy="-37.21" rx="33.88" ry="21.43"/>
<text text-anchor="middle" x="1205" y="-32.21" font-family="Times,serif" font-size="20.00">0.0</text>
</g>
<!-- SG_0_Node_3&#45;&gt;SG_0_Node_7 -->
<g id="edge7" class="edge">
<title>SG_0_Node_3&#45;&gt;SG_0_Node_7</title>
<path fill="none" stroke="black" d="M1231.14,-163.28C1226.11,-157.14 1221.11,-149.9 1218,-142.43 1208.22,-118.96 1205.24,-90.14 1204.55,-68.76"/>
<polygon fill="black" stroke="black" points="1208.05,-68.56 1204.37,-58.62 1201.05,-68.68 1208.05,-68.56"/>
<text text-anchor="middle" x="1241.5" y="-126.43" font-family="Times,serif" font-size="20.00">[NA]</text>
<text text-anchor="middle" x="1241.5" y="-104.43" font-family="Times,serif" font-size="20.00">200</text>
<text text-anchor="middle" x="1241.5" y="-82.43" font-family="Times,serif" font-size="20.00">302</text>
</g>
<!-- SG_0_Node_8 -->
<g id="node9" class="node">
<title>SG_0_Node_8</title>
<ellipse fill="none" stroke="black" cx="1291" cy="-37.21" rx="33.88" ry="21.43"/>
<text text-anchor="middle" x="1291" y="-32.21" font-family="Times,serif" font-size="20.00">1.0</text>
</g>
<!-- SG_0_Node_3&#45;&gt;SG_0_Node_8 -->
<g id="edge8" class="edge">
<title>SG_0_Node_3&#45;&gt;SG_0_Node_8</title>
<path fill="none" stroke="black" d="M1256.44,-163.39C1259.4,-156.92 1262.59,-149.43 1265,-142.43 1273.41,-117.99 1280.34,-89.47 1284.92,-68.45"/>
<polygon fill="black" stroke="black" points="1288.38,-69 1287.04,-58.49 1281.53,-67.55 1288.38,-69"/>
<text text-anchor="middle" x="1301.5" y="-104.43" font-family="Times,serif" font-size="20.00">300</text>
</g>
<!-- SG_0_Node_9 -->
<g id="node10" class="node">
<title>SG_0_Node_9</title>
<ellipse fill="none" stroke="black" cx="1680" cy="-37.21" rx="33.88" ry="21.43"/>
<text text-anchor="middle" x="1680" y="-32.21" font-family="Times,serif" font-size="20.00">0.0</text>
</g>
<!-- SG_0_Node_4&#45;&gt;SG_0_Node_9 -->
<g id="edge5" class="edge">
<title>SG_0_Node_4&#45;&gt;SG_0_Node_9</title>
<path fill="none" stroke="black" d="M1705.13,-163.42C1700.51,-157.19 1695.88,-149.85 1693,-142.43 1683.82,-118.72 1680.78,-89.92 1679.92,-68.61"/>
<polygon fill="black" stroke="black" points="1683.41,-68.41 1679.65,-58.51 1676.42,-68.6 1683.41,-68.41"/>
<text text-anchor="middle" x="1712.5" y="-104.43" font-family="Times,serif" font-size="20.00">300</text>
</g>
<!-- SG_0_Node_10 -->
<g id="node11" class="node">
<title>SG_0_Node_10</title>
<ellipse fill="none" stroke="black" cx="1766" cy="-37.21" rx="33.88" ry="21.43"/>
<text text-anchor="middle" x="1766" y="-32.21" font-family="Times,serif" font-size="20.00">1.0</text>
</g>
<!-- SG_0_Node_4&#45;&gt;SG_0_Node_10 -->
<g id="edge6" class="edge">
<title>SG_0_Node_4&#45;&gt;SG_0_Node_10</title>
<path fill="none" stroke="black" d="M1725.55,-163.46C1733.2,-139.77 1747.11,-96.71 1756.45,-67.79"/>
<polygon fill="black" stroke="black" points="1759.8,-68.79 1759.54,-58.2 1753.14,-66.64 1759.8,-68.79"/>
<text text-anchor="middle" x="1775.5" y="-126.43" font-family="Times,serif" font-size="20.00">[NA]</text>
<text text-anchor="middle" x="1775.5" y="-104.43" font-family="Times,serif" font-size="20.00">200</text>
<text text-anchor="middle" x="1775.5" y="-82.43" font-family="Times,serif" font-size="20.00">302</text>
</g>
<!-- SG_1_Node_0 -->
<g id="node12" class="node">
<title>SG_1_Node_0</title>
<polygon fill="none" stroke="black" points="3469.5,-632.85 3332.5,-632.85 3332.5,-596.85 3469.5,-596.85 3469.5,-632.85"/>
<text text-anchor="middle" x="3401" y="-609.85" font-family="Times,serif" font-size="20.00">raw_header</text>
</g>
<!-- SG_1_Node_1 -->
<g id="node13" class="node">
<title>SG_1_Node_1</title>
<polygon fill="none" stroke="black" points="2921.5,-428.85 2820.5,-428.85 2820.5,-392.85 2921.5,-392.85 2921.5,-428.85"/>
<text text-anchor="middle" x="2871" y="-405.85" font-family="Times,serif" font-size="20.00">browser</text>
</g>
<!-- SG_1_Node_0&#45;&gt;SG_1_Node_1 -->
<g id="edge11" class="edge">
<title>SG_1_Node_0&#45;&gt;SG_1_Node_1</title>
<path fill="none" stroke="black" d="M3332.28,-614.4C3196.21,-614.76 2902.9,-611.67 2872,-578.85 2836.66,-541.33 2849.92,-475.38 2861.33,-438.58"/>
<polygon fill="black" stroke="black" points="2864.67,-439.62 2864.45,-429.03 2858.02,-437.44 2864.67,-439.62"/>
<text text-anchor="middle" x="3390.5" y="-551.85" font-family="Times,serif" font-size="20.00">[[&#39;timing&#45;allow&#45;origin&#39;, &#39;*&#39;], [&#39;location&#39;, &#39;https://sub.headers.websec.saarland/_hp/common/empty.html&#39;]]</text>
<text text-anchor="end" x="3909" y="-529.85" font-family="Times,serif" font-size="20.00">[[&#39;timing&#45;allow&#45;origin&#39;, &#39;</text>
<text text-anchor="middle" x="3390.5" y="-507.85" font-family="Times,serif" font-size="20.00">*&#39;]]</text>
<text text-anchor="end" x="3909" y="-485.85" font-family="Times,serif" font-size="20.00">[[&#39;timing&#45;allow&#45;origin</text>
<text text-anchor="middle" x="3390.5" y="-463.85" font-family="Times,serif" font-size="20.00">&#39;, &#39;*&#39;]]</text>
</g>
<!-- SG_1_Node_2 -->
<g id="node14" class="node">
<title>SG_1_Node_2</title>
<polygon fill="none" stroke="black" points="3981.5,-428.85 3880.5,-428.85 3880.5,-392.85 3981.5,-392.85 3981.5,-428.85"/>
<text text-anchor="middle" x="3931" y="-405.85" font-family="Times,serif" font-size="20.00">browser</text>
</g>
<!-- SG_1_Node_0&#45;&gt;SG_1_Node_2 -->
<g id="edge12" class="edge">
<title>SG_1_Node_0&#45;&gt;SG_1_Node_2</title>
<path fill="none" stroke="black" d="M3469.7,-613.86C3601.06,-613.19 3877.69,-608.27 3909,-578.85 3946.92,-543.22 3942.76,-476.44 3936.69,-439.03"/>
<polygon fill="black" stroke="black" points="3940.08,-438.1 3934.88,-428.87 3933.19,-439.33 3940.08,-438.1"/>
<text text-anchor="middle" x="4080" y="-562.85" font-family="Times,serif" font-size="20.00">[NA]</text>
<text text-anchor="end" x="4220" y="-540.85" font-family="Times,serif" font-size="20.00">[[&#39;</text>
<text text-anchor="middle" x="4080" y="-518.85" font-family="Times,serif" font-size="20.00">timing&#45;allow&#45;origin&#39;, &#39;*&#39;]]</text>
<text text-anchor="middle" x="4080" y="-496.85" font-family="Times,serif" font-size="20.00">[[&#39;timing&#45;allow&#45;origin &#160;&#39;, &#39;*&#39;]]</text>
<text text-anchor="middle" x="4080" y="-474.85" font-family="Times,serif" font-size="20.00">[[&#39;timing&#45;allow&#45;origin &#39;, &#39;*&#39;]]</text>
<text text-anchor="middle" x="4080" y="-452.85" font-family="Times,serif" font-size="20.00">[[&#39;timing&#45;allow&#45;origint&#39;, &#39;*&#39;]]</text>
</g>
<!-- SG_1_Node_3 -->
<g id="node15" class="node">
<title>SG_1_Node_3</title>
<polygon fill="none" stroke="black" points="2600.5,-199.64 2463.5,-199.64 2463.5,-163.64 2600.5,-163.64 2600.5,-199.64"/>
<text text-anchor="middle" x="2532" y="-176.64" font-family="Times,serif" font-size="20.00">status_code</text>
</g>
<!-- SG_1_Node_1&#45;&gt;SG_1_Node_3 -->
<g id="edge15" class="edge">
<title>SG_1_Node_1&#45;&gt;SG_1_Node_3</title>
<path fill="none" stroke="black" d="M2820.22,-409.02C2719.98,-406.85 2504.39,-399.35 2482,-374.85 2435.82,-324.33 2451.67,-282.21 2482,-220.85 2484.67,-215.46 2488.5,-210.61 2492.88,-206.34"/>
<polygon fill="black" stroke="black" points="2495.34,-208.84 2500.65,-199.67 2490.78,-203.53 2495.34,-208.84"/>
<text text-anchor="middle" x="2841.5" y="-358.85" font-family="Times,serif" font-size="20.00">[NA]</text>
<text text-anchor="middle" x="2841.5" y="-336.85" font-family="Times,serif" font-size="20.00">brave Ubuntu 22.04 1.60.114 (119.0.6045.124) selenium headless&#45;new</text>
<text text-anchor="middle" x="2841.5" y="-314.85" font-family="Times,serif" font-size="20.00">brave Ubuntu 22.04 1.60.114 (119.0.6045.124) selenium xvfb</text>
<text text-anchor="middle" x="2841.5" y="-292.85" font-family="Times,serif" font-size="20.00">chrome Ubuntu 22.04 119 selenium headless&#45;new</text>
<text text-anchor="middle" x="2841.5" y="-270.85" font-family="Times,serif" font-size="20.00">chrome Ubuntu 22.04 119 selenium xvfb</text>
<text text-anchor="middle" x="2841.5" y="-248.85" font-family="Times,serif" font-size="20.00">edge Ubuntu 22.04 119 selenium headless&#45;new</text>
<text text-anchor="middle" x="2841.5" y="-226.85" font-family="Times,serif" font-size="20.00">edge Ubuntu 22.04 119 selenium xvfb</text>
</g>
<!-- SG_1_Node_4 -->
<g id="node16" class="node">
<title>SG_1_Node_4</title>
<polygon fill="none" stroke="black" points="3291.5,-199.64 3154.5,-199.64 3154.5,-163.64 3291.5,-163.64 3291.5,-199.64"/>
<text text-anchor="middle" x="3223" y="-176.64" font-family="Times,serif" font-size="20.00">status_code</text>
</g>
<!-- SG_1_Node_1&#45;&gt;SG_1_Node_4 -->
<g id="edge16" class="edge">
<title>SG_1_Node_1&#45;&gt;SG_1_Node_4</title>
<path fill="none" stroke="black" d="M2921.62,-407.92C3009.2,-404.07 3181.57,-394.12 3201,-374.85 3223.62,-352.42 3224.8,-257.67 3223.89,-210.11"/>
<polygon fill="black" stroke="black" points="3227.38,-209.82 3223.65,-199.91 3220.39,-209.99 3227.38,-209.82"/>
<text text-anchor="middle" x="3448.5" y="-303.85" font-family="Times,serif" font-size="20.00">firefox Ubuntu 22.04 119 selenium headless</text>
<text text-anchor="middle" x="3448.5" y="-281.85" font-family="Times,serif" font-size="20.00">firefox Ubuntu 22.04 119 selenium xvfb</text>
</g>
<!-- SG_1_Node_5 -->
<g id="node17" class="node">
<title>SG_1_Node_5</title>
<ellipse fill="none" stroke="black" cx="3695" cy="-181.64" rx="33.88" ry="21.43"/>
<text text-anchor="middle" x="3695" y="-176.64" font-family="Times,serif" font-size="20.00">0.0</text>
</g>
<!-- SG_1_Node_2&#45;&gt;SG_1_Node_5 -->
<g id="edge13" class="edge">
<title>SG_1_Node_2&#45;&gt;SG_1_Node_5</title>
<path fill="none" stroke="black" d="M3880.28,-409.7C3818.47,-408.32 3719.37,-401.82 3696,-374.85 3675.73,-351.47 3684.31,-261.07 3690.57,-213.04"/>
<polygon fill="black" stroke="black" points="3694.07,-213.3 3691.94,-202.92 3687.13,-212.36 3694.07,-213.3"/>
<text text-anchor="middle" x="3920.5" y="-303.85" font-family="Times,serif" font-size="20.00">firefox Ubuntu 22.04 119 selenium headless</text>
<text text-anchor="middle" x="3920.5" y="-281.85" font-family="Times,serif" font-size="20.00">firefox Ubuntu 22.04 119 selenium xvfb</text>
</g>
<!-- SG_1_Node_6 -->
<g id="node18" class="node">
<title>SG_1_Node_6</title>
<ellipse fill="none" stroke="black" cx="4167" cy="-181.64" rx="33.88" ry="21.43"/>
<text text-anchor="middle" x="4167" y="-176.64" font-family="Times,serif" font-size="20.00">1.0</text>
</g>
<!-- SG_1_Node_2&#45;&gt;SG_1_Node_6 -->
<g id="edge14" class="edge">
<title>SG_1_Node_2&#45;&gt;SG_1_Node_6</title>
<path fill="none" stroke="black" d="M3981.74,-408.4C4037.84,-405.66 4123.18,-397.75 4145,-374.85 4186.44,-331.37 4180.72,-254.83 4173.5,-212.64"/>
<polygon fill="black" stroke="black" points="4176.92,-211.9 4171.66,-202.7 4170.04,-213.17 4176.92,-211.9"/>
<text text-anchor="middle" x="4537.5" y="-358.85" font-family="Times,serif" font-size="20.00">[NA]</text>
<text text-anchor="middle" x="4537.5" y="-336.85" font-family="Times,serif" font-size="20.00">brave Ubuntu 22.04 1.60.114 (119.0.6045.124) selenium headless&#45;new</text>
<text text-anchor="middle" x="4537.5" y="-314.85" font-family="Times,serif" font-size="20.00">brave Ubuntu 22.04 1.60.114 (119.0.6045.124) selenium xvfb</text>
<text text-anchor="middle" x="4537.5" y="-292.85" font-family="Times,serif" font-size="20.00">chrome Ubuntu 22.04 119 selenium headless&#45;new</text>
<text text-anchor="middle" x="4537.5" y="-270.85" font-family="Times,serif" font-size="20.00">chrome Ubuntu 22.04 119 selenium xvfb</text>
<text text-anchor="middle" x="4537.5" y="-248.85" font-family="Times,serif" font-size="20.00">edge Ubuntu 22.04 119 selenium headless&#45;new</text>
<text text-anchor="middle" x="4537.5" y="-226.85" font-family="Times,serif" font-size="20.00">edge Ubuntu 22.04 119 selenium xvfb</text>
</g>
<!-- SG_1_Node_7 -->
<g id="node19" class="node">
<title>SG_1_Node_7</title>
<ellipse fill="none" stroke="black" cx="2511" cy="-37.21" rx="33.88" ry="21.43"/>
<text text-anchor="middle" x="2511" y="-32.21" font-family="Times,serif" font-size="20.00">0.0</text>
</g>
<!-- SG_1_Node_3&#45;&gt;SG_1_Node_7 -->
<g id="edge19" class="edge">
<title>SG_1_Node_3&#45;&gt;SG_1_Node_7</title>
<path fill="none" stroke="black" d="M2525.69,-163.35C2523.56,-156.86 2521.38,-149.38 2520,-142.43 2515.17,-118 2512.93,-89.85 2511.9,-68.97"/>
<polygon fill="black" stroke="black" points="2515.38,-68.61 2511.46,-58.77 2508.39,-68.91 2515.38,-68.61"/>
<text text-anchor="middle" x="2543.5" y="-126.43" font-family="Times,serif" font-size="20.00">[NA]</text>
<text text-anchor="middle" x="2543.5" y="-104.43" font-family="Times,serif" font-size="20.00">200</text>
<text text-anchor="middle" x="2543.5" y="-82.43" font-family="Times,serif" font-size="20.00">302</text>
</g>
<!-- SG_1_Node_8 -->
<g id="node20" class="node">
<title>SG_1_Node_8</title>
<ellipse fill="none" stroke="black" cx="2597" cy="-37.21" rx="33.88" ry="21.43"/>
<text text-anchor="middle" x="2597" y="-32.21" font-family="Times,serif" font-size="20.00">1.0</text>
</g>
<!-- SG_1_Node_3&#45;&gt;SG_1_Node_8 -->
<g id="edge20" class="edge">
<title>SG_1_Node_3&#45;&gt;SG_1_Node_8</title>
<path fill="none" stroke="black" d="M2550.98,-163.35C2556.8,-157.22 2562.78,-149.96 2567,-142.43 2579.97,-119.28 2587.76,-90.03 2592.13,-68.42"/>
<polygon fill="black" stroke="black" points="2595.59,-68.96 2594.01,-58.48 2588.71,-67.66 2595.59,-68.96"/>
<text text-anchor="middle" x="2609.5" y="-104.43" font-family="Times,serif" font-size="20.00">300</text>
</g>
<!-- SG_1_Node_9 -->
<g id="node21" class="node">
<title>SG_1_Node_9</title>
<ellipse fill="none" stroke="black" cx="3183" cy="-37.21" rx="33.88" ry="21.43"/>
<text text-anchor="middle" x="3183" y="-32.21" font-family="Times,serif" font-size="20.00">0.0</text>
</g>
<!-- SG_1_Node_4&#45;&gt;SG_1_Node_9 -->
<g id="edge17" class="edge">
<title>SG_1_Node_4&#45;&gt;SG_1_Node_9</title>
<path fill="none" stroke="black" d="M3208.13,-163.42C3203.51,-157.19 3198.88,-149.85 3196,-142.43 3186.82,-118.72 3183.78,-89.92 3182.92,-68.61"/>
<polygon fill="black" stroke="black" points="3186.41,-68.41 3182.65,-58.51 3179.42,-68.6 3186.41,-68.41"/>
<text text-anchor="middle" x="3215.5" y="-104.43" font-family="Times,serif" font-size="20.00">300</text>
</g>
<!-- SG_1_Node_10 -->
<g id="node22" class="node">
<title>SG_1_Node_10</title>
<ellipse fill="none" stroke="black" cx="3269" cy="-37.21" rx="33.88" ry="21.43"/>
<text text-anchor="middle" x="3269" y="-32.21" font-family="Times,serif" font-size="20.00">1.0</text>
</g>
<!-- SG_1_Node_4&#45;&gt;SG_1_Node_10 -->
<g id="edge18" class="edge">
<title>SG_1_Node_4&#45;&gt;SG_1_Node_10</title>
<path fill="none" stroke="black" d="M3228.55,-163.46C3236.2,-139.77 3250.11,-96.71 3259.45,-67.79"/>
<polygon fill="black" stroke="black" points="3262.8,-68.79 3262.54,-58.2 3256.14,-66.64 3262.8,-68.79"/>
<text text-anchor="middle" x="3278.5" y="-126.43" font-family="Times,serif" font-size="20.00">[NA]</text>
<text text-anchor="middle" x="3278.5" y="-104.43" font-family="Times,serif" font-size="20.00">200</text>
<text text-anchor="middle" x="3278.5" y="-82.43" font-family="Times,serif" font-size="20.00">302</text>
</g>
</g>
</svg>
