<?xml version="1.0" encoding="UTF-8" standalone="no"?>
<!DOCTYPE svg PUBLIC "-//W3C//DTD SVG 1.1//EN"
 "http://www.w3.org/Graphics/SVG/1.1/DTD/svg11.dtd">
<!-- Generated by graphviz version 2.43.0 (0)
 -->
<!-- Title: G Pages: 1 -->
<svg width="7812pt" height="1190pt"
 viewBox="0.00 0.00 7812.00 1189.71" xmlns="http://www.w3.org/2000/svg" xmlns:xlink="http://www.w3.org/1999/xlink">
<g id="graph0" class="graph" transform="scale(1 1) rotate(0) translate(4 1185.71)">
<title>G</title>
<polygon fill="white" stroke="transparent" points="-4,4 -4,-1185.71 7808,-1185.71 7808,4 -4,4"/>
<g id="clust1" class="cluster">
<title>cluster_0</title>
<polygon fill="none" stroke="black" points="8,-306.43 8,-1173.71 1563,-1173.71 1563,-306.43 8,-306.43"/>
<text text-anchor="middle" x="785.5" y="-1137.71" font-family="Times,serif" font-size="40.00">Tree 0, Class document.referrer: </text>
</g>
<g id="clust6" class="cluster">
<title>cluster_1</title>
<polygon fill="none" stroke="black" points="1571,-538.85 1571,-1173.71 2855,-1173.71 2855,-538.85 1571,-538.85"/>
<text text-anchor="middle" x="2213" y="-1137.71" font-family="Times,serif" font-size="40.00">Tree 0, Class document.referrer: full_url</text>
</g>
<g id="clust10" class="cluster">
<title>cluster_2</title>
<polygon fill="none" stroke="black" points="2863,-8 2863,-1173.71 5330,-1173.71 5330,-8 2863,-8"/>
<text text-anchor="middle" x="4096.5" y="-1137.71" font-family="Times,serif" font-size="40.00">Tree 0, Class document.referrer: https://headers.webappsec.eu/</text>
</g>
<g id="clust16" class="cluster">
<title>cluster_3</title>
<polygon fill="none" stroke="black" points="5338,-306.43 5338,-1173.71 7796,-1173.71 7796,-306.43 5338,-306.43"/>
<text text-anchor="middle" x="6567" y="-1137.71" font-family="Times,serif" font-size="40.00">Tree 0, Class message timeout</text>
</g>
<!-- SG_0_Node_0 -->
<g id="node1" class="node">
<title>SG_0_Node_0</title>
<polygon fill="none" stroke="black" points="323.5,-1113.71 186.5,-1113.71 186.5,-1077.71 323.5,-1077.71 323.5,-1113.71"/>
<text text-anchor="middle" x="255" y="-1090.71" font-family="Times,serif" font-size="20.00">raw_header</text>
</g>
<!-- SG_0_Node_1 -->
<g id="node2" class="node">
<title>SG_0_Node_1</title>
<polygon fill="none" stroke="black" points="216.5,-840.49 79.5,-840.49 79.5,-804.49 216.5,-804.49 216.5,-840.49"/>
<text text-anchor="middle" x="148" y="-817.49" font-family="Times,serif" font-size="20.00">raw_header</text>
</g>
<!-- SG_0_Node_0&#45;&gt;SG_0_Node_1 -->
<g id="edge1" class="edge">
<title>SG_0_Node_0&#45;&gt;SG_0_Node_1</title>
<path fill="none" stroke="black" d="M237.97,-1077.56C233.28,-1072.18 228.53,-1065.99 225,-1059.71 185.59,-989.56 162.73,-896.21 153.23,-850.73"/>
<polygon fill="black" stroke="black" points="156.62,-849.85 151.2,-840.75 149.76,-851.25 156.62,-849.85"/>
<text text-anchor="middle" x="270.5" y="-966.71" font-family="Times,serif" font-size="20.00">[NA]</text>
<text text-anchor="middle" x="270.5" y="-944.71" font-family="Times,serif" font-size="20.00">76 levels</text>
</g>
<!-- SG_0_Node_2 -->
<g id="node3" class="node">
<title>SG_0_Node_2</title>
<polygon fill="none" stroke="black" points="414.5,-840.49 313.5,-840.49 313.5,-804.49 414.5,-804.49 414.5,-840.49"/>
<text text-anchor="middle" x="364" y="-817.49" font-family="Times,serif" font-size="20.00">browser</text>
</g>
<!-- SG_0_Node_0&#45;&gt;SG_0_Node_2 -->
<g id="edge2" class="edge">
<title>SG_0_Node_0&#45;&gt;SG_0_Node_2</title>
<path fill="none" stroke="black" d="M295.95,-1077.7C303.58,-1072.88 310.78,-1066.93 316,-1059.71 362.24,-995.64 366.38,-897.6 365.37,-850.54"/>
<polygon fill="black" stroke="black" points="368.87,-850.39 365.06,-840.51 361.87,-850.61 368.87,-850.39"/>
<text text-anchor="middle" x="410.5" y="-955.71" font-family="Times,serif" font-size="20.00">18 levels</text>
</g>
<!-- SG_0_Node_4 -->
<g id="node4" class="node">
<title>SG_0_Node_4</title>
<ellipse fill="none" stroke="black" cx="50" cy="-568.07" rx="33.88" ry="21.43"/>
<text text-anchor="middle" x="50" y="-563.07" font-family="Times,serif" font-size="20.00">0.0</text>
</g>
<!-- SG_0_Node_1&#45;&gt;SG_0_Node_4 -->
<g id="edge5" class="edge">
<title>SG_0_Node_1&#45;&gt;SG_0_Node_4</title>
<path fill="none" stroke="black" d="M79.18,-805.33C68.88,-799.96 59.54,-792.81 53,-783.28 14.83,-727.62 29.26,-643.24 40.9,-598.82"/>
<polygon fill="black" stroke="black" points="44.34,-599.51 43.62,-588.94 37.59,-597.66 44.34,-599.51"/>
<text text-anchor="middle" x="98.5" y="-701.28" font-family="Times,serif" font-size="20.00">[NA]</text>
<text text-anchor="middle" x="98.5" y="-679.28" font-family="Times,serif" font-size="20.00">72 levels</text>
</g>
<!-- SG_0_Node_3 -->
<g id="node5" class="node">
<title>SG_0_Node_3</title>
<polygon fill="none" stroke="black" points="202.5,-586.07 101.5,-586.07 101.5,-550.07 202.5,-550.07 202.5,-586.07"/>
<text text-anchor="middle" x="152" y="-563.07" font-family="Times,serif" font-size="20.00">browser</text>
</g>
<!-- SG_0_Node_1&#45;&gt;SG_0_Node_3 -->
<g id="edge6" class="edge">
<title>SG_0_Node_1&#45;&gt;SG_0_Node_3</title>
<path fill="none" stroke="black" d="M148.27,-804.14C148.96,-760.99 150.74,-648.53 151.57,-596.37"/>
<polygon fill="black" stroke="black" points="155.07,-596.26 151.73,-586.2 148.07,-596.15 155.07,-596.26"/>
<text text-anchor="end" x="344" y="-767.28" font-family="Times,serif" font-size="20.00">[[&#39;referrer&#45;policy&#39;, &#39;</text>
<text text-anchor="middle" x="247.5" y="-745.28" font-family="Times,serif" font-size="20.00">no&#45;referrer&#39;]]</text>
<text text-anchor="end" x="344" y="-723.28" font-family="Times,serif" font-size="20.00">[[&#39;referrer&#45;policy&#39;, &#39;</text>
<text text-anchor="middle" x="247.5" y="-701.28" font-family="Times,serif" font-size="20.00">same&#45;origin&#39;]]</text>
<text text-anchor="end" x="344" y="-679.28" font-family="Times,serif" font-size="20.00">[[&#39;referrer&#45;policy</text>
<text text-anchor="middle" x="247.5" y="-657.28" font-family="Times,serif" font-size="20.00">&#39;, &#39;no&#45;referrer&#39;]]</text>
<text text-anchor="end" x="344" y="-635.28" font-family="Times,serif" font-size="20.00">[[&#39;referrer&#45;policy</text>
<text text-anchor="middle" x="247.5" y="-613.28" font-family="Times,serif" font-size="20.00">&#39;, &#39;same&#45;origin&#39;]]</text>
</g>
<!-- SG_0_Node_5 -->
<g id="node6" class="node">
<title>SG_0_Node_5</title>
<ellipse fill="none" stroke="black" cx="364" cy="-568.07" rx="33.88" ry="21.43"/>
<text text-anchor="middle" x="364" y="-563.07" font-family="Times,serif" font-size="20.00">0.0</text>
</g>
<!-- SG_0_Node_2&#45;&gt;SG_0_Node_5 -->
<g id="edge3" class="edge">
<title>SG_0_Node_2&#45;&gt;SG_0_Node_5</title>
<path fill="none" stroke="black" d="M364,-804.14C364,-761.83 364,-652.92 364,-599.51"/>
<polygon fill="black" stroke="black" points="367.5,-599.31 364,-589.31 360.5,-599.31 367.5,-599.31"/>
<text text-anchor="middle" x="588.5" y="-701.28" font-family="Times,serif" font-size="20.00">firefox Ubuntu 22.04 119 selenium headless</text>
<text text-anchor="middle" x="588.5" y="-679.28" font-family="Times,serif" font-size="20.00">firefox Ubuntu 22.04 119 selenium xvfb</text>
</g>
<!-- SG_0_Node_6 -->
<g id="node7" class="node">
<title>SG_0_Node_6</title>
<ellipse fill="none" stroke="black" cx="836" cy="-568.07" rx="33.88" ry="21.43"/>
<text text-anchor="middle" x="836" y="-563.07" font-family="Times,serif" font-size="20.00">1.0</text>
</g>
<!-- SG_0_Node_2&#45;&gt;SG_0_Node_6 -->
<g id="edge4" class="edge">
<title>SG_0_Node_2&#45;&gt;SG_0_Node_6</title>
<path fill="none" stroke="black" d="M414.75,-820.76C526.46,-818.64 786,-810.79 814,-783.28 839.32,-758.4 839.18,-652.54 837.42,-599.55"/>
<polygon fill="black" stroke="black" points="840.91,-599.25 837.04,-589.39 833.92,-599.51 840.91,-599.25"/>
<text text-anchor="middle" x="1197.5" y="-756.28" font-family="Times,serif" font-size="20.00">[NA]</text>
<text text-anchor="middle" x="1197.5" y="-734.28" font-family="Times,serif" font-size="20.00">brave Ubuntu 22.04 1.60.114 (119.0.6045.124) selenium headless&#45;new</text>
<text text-anchor="middle" x="1197.5" y="-712.28" font-family="Times,serif" font-size="20.00">brave Ubuntu 22.04 1.60.114 (119.0.6045.124) selenium xvfb</text>
<text text-anchor="middle" x="1197.5" y="-690.28" font-family="Times,serif" font-size="20.00">chrome Ubuntu 22.04 119 selenium headless&#45;new</text>
<text text-anchor="middle" x="1197.5" y="-668.28" font-family="Times,serif" font-size="20.00">chrome Ubuntu 22.04 119 selenium xvfb</text>
<text text-anchor="middle" x="1197.5" y="-646.28" font-family="Times,serif" font-size="20.00">edge Ubuntu 22.04 119 selenium headless&#45;new</text>
<text text-anchor="middle" x="1197.5" y="-624.28" font-family="Times,serif" font-size="20.00">edge Ubuntu 22.04 119 selenium xvfb</text>
</g>
<!-- SG_0_Node_7 -->
<g id="node8" class="node">
<title>SG_0_Node_7</title>
<ellipse fill="none" stroke="black" cx="101" cy="-335.64" rx="33.88" ry="21.43"/>
<text text-anchor="middle" x="101" y="-330.64" font-family="Times,serif" font-size="20.00">0.0</text>
</g>
<!-- SG_0_Node_3&#45;&gt;SG_0_Node_7 -->
<g id="edge7" class="edge">
<title>SG_0_Node_3&#45;&gt;SG_0_Node_7</title>
<path fill="none" stroke="black" d="M120.67,-550.02C113.2,-544.34 106.19,-537.26 102,-528.85 76,-476.61 85.06,-406.05 93.41,-366.57"/>
<polygon fill="black" stroke="black" points="96.83,-367.3 95.6,-356.77 90,-365.77 96.83,-367.3"/>
<text text-anchor="middle" x="461.5" y="-512.85" font-family="Times,serif" font-size="20.00">[NA]</text>
<text text-anchor="middle" x="461.5" y="-490.85" font-family="Times,serif" font-size="20.00">brave Ubuntu 22.04 1.60.114 (119.0.6045.124) selenium headless&#45;new</text>
<text text-anchor="middle" x="461.5" y="-468.85" font-family="Times,serif" font-size="20.00">brave Ubuntu 22.04 1.60.114 (119.0.6045.124) selenium xvfb</text>
<text text-anchor="middle" x="461.5" y="-446.85" font-family="Times,serif" font-size="20.00">chrome Ubuntu 22.04 119 selenium headless&#45;new</text>
<text text-anchor="middle" x="461.5" y="-424.85" font-family="Times,serif" font-size="20.00">chrome Ubuntu 22.04 119 selenium xvfb</text>
<text text-anchor="middle" x="461.5" y="-402.85" font-family="Times,serif" font-size="20.00">edge Ubuntu 22.04 119 selenium headless&#45;new</text>
<text text-anchor="middle" x="461.5" y="-380.85" font-family="Times,serif" font-size="20.00">edge Ubuntu 22.04 119 selenium xvfb</text>
</g>
<!-- SG_0_Node_8 -->
<g id="node9" class="node">
<title>SG_0_Node_8</title>
<ellipse fill="none" stroke="black" cx="843" cy="-335.64" rx="33.88" ry="21.43"/>
<text text-anchor="middle" x="843" y="-330.64" font-family="Times,serif" font-size="20.00">1.0</text>
</g>
<!-- SG_0_Node_3&#45;&gt;SG_0_Node_8 -->
<g id="edge8" class="edge">
<title>SG_0_Node_3&#45;&gt;SG_0_Node_8</title>
<path fill="none" stroke="black" d="M202.78,-556.61C236.2,-550.21 281.01,-542.57 321,-538.85 334.83,-537.57 810.73,-538.2 821,-528.85 865.75,-488.12 858.41,-409.53 850.14,-366.54"/>
<polygon fill="black" stroke="black" points="853.55,-365.76 848.1,-356.67 846.69,-367.17 853.55,-365.76"/>
<text text-anchor="middle" x="1080.5" y="-457.85" font-family="Times,serif" font-size="20.00">firefox Ubuntu 22.04 119 selenium headless</text>
<text text-anchor="middle" x="1080.5" y="-435.85" font-family="Times,serif" font-size="20.00">firefox Ubuntu 22.04 119 selenium xvfb</text>
</g>
<!-- SG_1_Node_0 -->
<g id="node10" class="node">
<title>SG_1_Node_0</title>
<polygon fill="none" stroke="black" points="2034.5,-1113.71 1933.5,-1113.71 1933.5,-1077.71 2034.5,-1077.71 2034.5,-1113.71"/>
<text text-anchor="middle" x="1984" y="-1090.71" font-family="Times,serif" font-size="20.00">browser</text>
</g>
<!-- SG_1_Node_2 -->
<g id="node11" class="node">
<title>SG_1_Node_2</title>
<ellipse fill="none" stroke="black" cx="1613" cy="-822.49" rx="33.88" ry="21.43"/>
<text text-anchor="middle" x="1613" y="-817.49" font-family="Times,serif" font-size="20.00">0.0</text>
</g>
<!-- SG_1_Node_0&#45;&gt;SG_1_Node_2 -->
<g id="edge9" class="edge">
<title>SG_1_Node_0&#45;&gt;SG_1_Node_2</title>
<path fill="none" stroke="black" d="M1933.48,-1093.89C1833.15,-1091.75 1616.48,-1084.29 1594,-1059.71 1564.31,-1027.23 1583.94,-904.54 1594,-861.71 1594.76,-858.46 1595.84,-855.17 1597.11,-851.96"/>
<polygon fill="black" stroke="black" points="1600.38,-853.22 1601.32,-842.67 1594,-850.33 1600.38,-853.22"/>
<text text-anchor="middle" x="1953.5" y="-988.71" font-family="Times,serif" font-size="20.00">brave Ubuntu 22.04 1.60.114 (119.0.6045.124) selenium headless&#45;new</text>
<text text-anchor="middle" x="1953.5" y="-966.71" font-family="Times,serif" font-size="20.00">brave Ubuntu 22.04 1.60.114 (119.0.6045.124) selenium xvfb</text>
<text text-anchor="middle" x="1953.5" y="-944.71" font-family="Times,serif" font-size="20.00">firefox Ubuntu 22.04 119 selenium headless</text>
<text text-anchor="middle" x="1953.5" y="-922.71" font-family="Times,serif" font-size="20.00">firefox Ubuntu 22.04 119 selenium xvfb</text>
</g>
<!-- SG_1_Node_1 -->
<g id="node12" class="node">
<title>SG_1_Node_1</title>
<polygon fill="none" stroke="black" points="2407.5,-840.49 2270.5,-840.49 2270.5,-804.49 2407.5,-804.49 2407.5,-840.49"/>
<text text-anchor="middle" x="2339" y="-817.49" font-family="Times,serif" font-size="20.00">raw_header</text>
</g>
<!-- SG_1_Node_0&#45;&gt;SG_1_Node_1 -->
<g id="edge10" class="edge">
<title>SG_1_Node_0&#45;&gt;SG_1_Node_1</title>
<path fill="none" stroke="black" d="M2034.77,-1092.86C2123.1,-1089.14 2297.57,-1079.37 2317,-1059.71 2345.5,-1030.87 2343.18,-906.68 2340.58,-850.86"/>
<polygon fill="black" stroke="black" points="2344.07,-850.46 2340.07,-840.65 2337.08,-850.82 2344.07,-850.46"/>
<text text-anchor="middle" x="2596" y="-999.71" font-family="Times,serif" font-size="20.00">[NA]</text>
<text text-anchor="middle" x="2596" y="-977.71" font-family="Times,serif" font-size="20.00">chrome Ubuntu 22.04 119 selenium headless&#45;new</text>
<text text-anchor="middle" x="2596" y="-955.71" font-family="Times,serif" font-size="20.00">chrome Ubuntu 22.04 119 selenium xvfb</text>
<text text-anchor="middle" x="2596" y="-933.71" font-family="Times,serif" font-size="20.00">edge Ubuntu 22.04 119 selenium headless&#45;new</text>
<text text-anchor="middle" x="2596" y="-911.71" font-family="Times,serif" font-size="20.00">edge Ubuntu 22.04 119 selenium xvfb</text>
</g>
<!-- SG_1_Node_3 -->
<g id="node13" class="node">
<title>SG_1_Node_3</title>
<ellipse fill="none" stroke="black" cx="2282" cy="-568.07" rx="33.88" ry="21.43"/>
<text text-anchor="middle" x="2282" y="-563.07" font-family="Times,serif" font-size="20.00">0.0</text>
</g>
<!-- SG_1_Node_1&#45;&gt;SG_1_Node_3 -->
<g id="edge11" class="edge">
<title>SG_1_Node_1&#45;&gt;SG_1_Node_3</title>
<path fill="none" stroke="black" d="M2302.83,-804.34C2294.9,-798.79 2287.53,-791.8 2283,-783.28 2251.65,-724.26 2263.82,-642.56 2273.86,-599.09"/>
<polygon fill="black" stroke="black" points="2277.31,-599.7 2276.27,-589.15 2270.51,-598.05 2277.31,-599.7"/>
<text text-anchor="middle" x="2328.5" y="-690.28" font-family="Times,serif" font-size="20.00">31 levels</text>
</g>
<!-- SG_1_Node_4 -->
<g id="node14" class="node">
<title>SG_1_Node_4</title>
<ellipse fill="none" stroke="black" cx="2396" cy="-568.07" rx="33.88" ry="21.43"/>
<text text-anchor="middle" x="2396" y="-563.07" font-family="Times,serif" font-size="20.00">1.0</text>
</g>
<!-- SG_1_Node_1&#45;&gt;SG_1_Node_4 -->
<g id="edge12" class="edge">
<title>SG_1_Node_1&#45;&gt;SG_1_Node_4</title>
<path fill="none" stroke="black" d="M2359.15,-804.22C2364.9,-798.2 2370.54,-790.99 2374,-783.28 2401.31,-722.44 2401.24,-642.38 2398.69,-599.42"/>
<polygon fill="black" stroke="black" points="2402.18,-599.07 2398,-589.33 2395.19,-599.55 2402.18,-599.07"/>
<text text-anchor="middle" x="2444.5" y="-701.28" font-family="Times,serif" font-size="20.00">[NA]</text>
<text text-anchor="middle" x="2444.5" y="-679.28" font-family="Times,serif" font-size="20.00">63 levels</text>
</g>
<!-- SG_2_Node_0 -->
<g id="node15" class="node">
<title>SG_2_Node_0</title>
<polygon fill="none" stroke="black" points="3294.5,-1113.71 3193.5,-1113.71 3193.5,-1077.71 3294.5,-1077.71 3294.5,-1113.71"/>
<text text-anchor="middle" x="3244" y="-1090.71" font-family="Times,serif" font-size="20.00">browser</text>
</g>
<!-- SG_2_Node_1 -->
<g id="node16" class="node">
<title>SG_2_Node_1</title>
<polygon fill="none" stroke="black" points="3047.5,-840.49 2910.5,-840.49 2910.5,-804.49 3047.5,-804.49 3047.5,-840.49"/>
<text text-anchor="middle" x="2979" y="-817.49" font-family="Times,serif" font-size="20.00">raw_header</text>
</g>
<!-- SG_2_Node_0&#45;&gt;SG_2_Node_1 -->
<g id="edge13" class="edge">
<title>SG_2_Node_0&#45;&gt;SG_2_Node_1</title>
<path fill="none" stroke="black" d="M3193.27,-1095.54C3124.53,-1095.47 3007.22,-1090.64 2980,-1059.71 2928.39,-1001.05 2953.04,-898.87 2969.03,-850.44"/>
<polygon fill="black" stroke="black" points="2972.44,-851.28 2972.38,-840.68 2965.82,-849 2972.44,-851.28"/>
<text text-anchor="middle" x="3234" y="-988.71" font-family="Times,serif" font-size="20.00">chrome Ubuntu 22.04 119 selenium headless&#45;new</text>
<text text-anchor="middle" x="3234" y="-966.71" font-family="Times,serif" font-size="20.00">chrome Ubuntu 22.04 119 selenium xvfb</text>
<text text-anchor="middle" x="3234" y="-944.71" font-family="Times,serif" font-size="20.00">edge Ubuntu 22.04 119 selenium headless&#45;new</text>
<text text-anchor="middle" x="3234" y="-922.71" font-family="Times,serif" font-size="20.00">edge Ubuntu 22.04 119 selenium xvfb</text>
</g>
<!-- SG_2_Node_2 -->
<g id="node17" class="node">
<title>SG_2_Node_2</title>
<polygon fill="none" stroke="black" points="3578.5,-840.49 3441.5,-840.49 3441.5,-804.49 3578.5,-804.49 3578.5,-840.49"/>
<text text-anchor="middle" x="3510" y="-817.49" font-family="Times,serif" font-size="20.00">raw_header</text>
</g>
<!-- SG_2_Node_0&#45;&gt;SG_2_Node_2 -->
<g id="edge14" class="edge">
<title>SG_2_Node_0&#45;&gt;SG_2_Node_2</title>
<path fill="none" stroke="black" d="M3294.62,-1094.55C3358.24,-1093.19 3462.26,-1086.75 3488,-1059.71 3542.23,-1002.72 3527.79,-899.29 3516.96,-850.43"/>
<polygon fill="black" stroke="black" points="3520.34,-849.54 3514.66,-840.6 3513.53,-851.13 3520.34,-849.54"/>
<text text-anchor="middle" x="3886.5" y="-999.71" font-family="Times,serif" font-size="20.00">[NA]</text>
<text text-anchor="middle" x="3886.5" y="-977.71" font-family="Times,serif" font-size="20.00">brave Ubuntu 22.04 1.60.114 (119.0.6045.124) selenium headless&#45;new</text>
<text text-anchor="middle" x="3886.5" y="-955.71" font-family="Times,serif" font-size="20.00">brave Ubuntu 22.04 1.60.114 (119.0.6045.124) selenium xvfb</text>
<text text-anchor="middle" x="3886.5" y="-933.71" font-family="Times,serif" font-size="20.00">firefox Ubuntu 22.04 119 selenium headless</text>
<text text-anchor="middle" x="3886.5" y="-911.71" font-family="Times,serif" font-size="20.00">firefox Ubuntu 22.04 119 selenium xvfb</text>
</g>
<!-- SG_2_Node_6 -->
<g id="node18" class="node">
<title>SG_2_Node_6</title>
<ellipse fill="none" stroke="black" cx="2942" cy="-568.07" rx="33.88" ry="21.43"/>
<text text-anchor="middle" x="2942" y="-563.07" font-family="Times,serif" font-size="20.00">0.0</text>
</g>
<!-- SG_2_Node_1&#45;&gt;SG_2_Node_6 -->
<g id="edge23" class="edge">
<title>SG_2_Node_1&#45;&gt;SG_2_Node_6</title>
<path fill="none" stroke="black" d="M2957.44,-804.12C2951.64,-798.19 2946.11,-791.07 2943,-783.28 2918.39,-721.67 2927.59,-641.91 2935.43,-599.21"/>
<polygon fill="black" stroke="black" points="2938.91,-599.67 2937.38,-589.19 2932.04,-598.34 2938.91,-599.67"/>
<text text-anchor="middle" x="2988.5" y="-701.28" font-family="Times,serif" font-size="20.00">[NA]</text>
<text text-anchor="middle" x="2988.5" y="-679.28" font-family="Times,serif" font-size="20.00">90 levels</text>
</g>
<!-- SG_2_Node_7 -->
<g id="node19" class="node">
<title>SG_2_Node_7</title>
<ellipse fill="none" stroke="black" cx="3056" cy="-568.07" rx="33.88" ry="21.43"/>
<text text-anchor="middle" x="3056" y="-563.07" font-family="Times,serif" font-size="20.00">1.0</text>
</g>
<!-- SG_2_Node_1&#45;&gt;SG_2_Node_7 -->
<g id="edge24" class="edge">
<title>SG_2_Node_1&#45;&gt;SG_2_Node_7</title>
<path fill="none" stroke="black" d="M3013.4,-804.31C3021.41,-798.7 3029.04,-791.69 3034,-783.28 3068.13,-725.42 3065.19,-643.25 3060.4,-599.4"/>
<polygon fill="black" stroke="black" points="3063.86,-598.88 3059.2,-589.37 3056.91,-599.72 3063.86,-598.88"/>
<text text-anchor="end" x="3256" y="-767.28" font-family="Times,serif" font-size="20.00">[[&#39;referrer&#45;policy&#39;, &#39;</text>
<text text-anchor="middle" x="3159.5" y="-745.28" font-family="Times,serif" font-size="20.00">no&#45;referrer&#39;]]</text>
<text text-anchor="end" x="3256" y="-723.28" font-family="Times,serif" font-size="20.00">[[&#39;referrer&#45;policy&#39;, &#39;</text>
<text text-anchor="middle" x="3159.5" y="-701.28" font-family="Times,serif" font-size="20.00">same&#45;origin&#39;]]</text>
<text text-anchor="end" x="3256" y="-679.28" font-family="Times,serif" font-size="20.00">[[&#39;referrer&#45;policy</text>
<text text-anchor="middle" x="3159.5" y="-657.28" font-family="Times,serif" font-size="20.00">&#39;, &#39;no&#45;referrer&#39;]]</text>
<text text-anchor="end" x="3256" y="-635.28" font-family="Times,serif" font-size="20.00">[[&#39;referrer&#45;policy</text>
<text text-anchor="middle" x="3159.5" y="-613.28" font-family="Times,serif" font-size="20.00">&#39;, &#39;same&#45;origin&#39;]]</text>
</g>
<!-- SG_2_Node_3 -->
<g id="node20" class="node">
<title>SG_2_Node_3</title>
<polygon fill="none" stroke="black" points="3503.5,-586.07 3402.5,-586.07 3402.5,-550.07 3503.5,-550.07 3503.5,-586.07"/>
<text text-anchor="middle" x="3453" y="-563.07" font-family="Times,serif" font-size="20.00">browser</text>
</g>
<!-- SG_2_Node_2&#45;&gt;SG_2_Node_3 -->
<g id="edge15" class="edge">
<title>SG_2_Node_2&#45;&gt;SG_2_Node_3</title>
<path fill="none" stroke="black" d="M3473.83,-804.34C3465.9,-798.79 3458.53,-791.8 3454,-783.28 3421.91,-722.88 3435.41,-638.7 3445.56,-596.09"/>
<polygon fill="black" stroke="black" points="3449,-596.74 3448.04,-586.19 3442.21,-595.04 3449,-596.74"/>
<text text-anchor="middle" x="3499.5" y="-690.28" font-family="Times,serif" font-size="20.00">32 levels</text>
</g>
<!-- SG_2_Node_8 -->
<g id="node21" class="node">
<title>SG_2_Node_8</title>
<ellipse fill="none" stroke="black" cx="3567" cy="-568.07" rx="33.88" ry="21.43"/>
<text text-anchor="middle" x="3567" y="-563.07" font-family="Times,serif" font-size="20.00">1.0</text>
</g>
<!-- SG_2_Node_2&#45;&gt;SG_2_Node_8 -->
<g id="edge16" class="edge">
<title>SG_2_Node_2&#45;&gt;SG_2_Node_8</title>
<path fill="none" stroke="black" d="M3530.15,-804.22C3535.9,-798.2 3541.54,-790.99 3545,-783.28 3572.31,-722.44 3572.24,-642.38 3569.69,-599.42"/>
<polygon fill="black" stroke="black" points="3573.18,-599.07 3569,-589.33 3566.19,-599.55 3573.18,-599.07"/>
<text text-anchor="middle" x="3615.5" y="-701.28" font-family="Times,serif" font-size="20.00">[NA]</text>
<text text-anchor="middle" x="3615.5" y="-679.28" font-family="Times,serif" font-size="20.00">62 levels</text>
</g>
<!-- SG_2_Node_4 -->
<g id="node22" class="node">
<title>SG_2_Node_4</title>
<polygon fill="none" stroke="black" points="3071.5,-353.64 2934.5,-353.64 2934.5,-317.64 3071.5,-317.64 3071.5,-353.64"/>
<text text-anchor="middle" x="3003" y="-330.64" font-family="Times,serif" font-size="20.00">raw_header</text>
</g>
<!-- SG_2_Node_3&#45;&gt;SG_2_Node_4 -->
<g id="edge17" class="edge">
<title>SG_2_Node_3&#45;&gt;SG_2_Node_4</title>
<path fill="none" stroke="black" d="M3402.48,-563.69C3336.32,-558.61 3224.45,-547.55 3188,-528.85 3110.86,-489.29 3047.62,-404.82 3019.19,-362.26"/>
<polygon fill="black" stroke="black" points="3022.08,-360.28 3013.66,-353.85 3016.23,-364.13 3022.08,-360.28"/>
<text text-anchor="middle" x="3547.5" y="-468.85" font-family="Times,serif" font-size="20.00">[NA]</text>
<text text-anchor="middle" x="3547.5" y="-446.85" font-family="Times,serif" font-size="20.00">brave Ubuntu 22.04 1.60.114 (119.0.6045.124) selenium headless&#45;new</text>
<text text-anchor="middle" x="3547.5" y="-424.85" font-family="Times,serif" font-size="20.00">brave Ubuntu 22.04 1.60.114 (119.0.6045.124) selenium xvfb</text>
</g>
<!-- SG_2_Node_5 -->
<g id="node23" class="node">
<title>SG_2_Node_5</title>
<polygon fill="none" stroke="black" points="4180.5,-353.64 4043.5,-353.64 4043.5,-317.64 4180.5,-317.64 4180.5,-353.64"/>
<text text-anchor="middle" x="4112" y="-330.64" font-family="Times,serif" font-size="20.00">raw_header</text>
</g>
<!-- SG_2_Node_3&#45;&gt;SG_2_Node_5 -->
<g id="edge18" class="edge">
<title>SG_2_Node_3&#45;&gt;SG_2_Node_5</title>
<path fill="none" stroke="black" d="M3488.73,-550.03C3499.79,-545.54 3512.18,-541.28 3524,-538.85 3565.7,-530.3 3867.62,-545.02 3907,-528.85 3992.29,-493.83 4063.37,-405.77 4094.74,-362.06"/>
<polygon fill="black" stroke="black" points="4097.74,-363.88 4100.65,-353.69 4092.03,-359.84 4097.74,-363.88"/>
<text text-anchor="middle" x="4307.5" y="-457.85" font-family="Times,serif" font-size="20.00">firefox Ubuntu 22.04 119 selenium headless</text>
<text text-anchor="middle" x="4307.5" y="-435.85" font-family="Times,serif" font-size="20.00">firefox Ubuntu 22.04 119 selenium xvfb</text>
</g>
<!-- SG_2_Node_9 -->
<g id="node24" class="node">
<title>SG_2_Node_9</title>
<ellipse fill="none" stroke="black" cx="2905" cy="-37.21" rx="33.88" ry="21.43"/>
<text text-anchor="middle" x="2905" y="-32.21" font-family="Times,serif" font-size="20.00">0.0</text>
</g>
<!-- SG_2_Node_4&#45;&gt;SG_2_Node_9 -->
<g id="edge21" class="edge">
<title>SG_2_Node_4&#45;&gt;SG_2_Node_9</title>
<path fill="none" stroke="black" d="M2934.16,-318.49C2923.86,-313.12 2914.52,-305.96 2908,-296.43 2860.28,-226.67 2881.21,-119.63 2895.57,-68.04"/>
<polygon fill="black" stroke="black" points="2899,-68.78 2898.41,-58.2 2892.27,-66.83 2899,-68.78"/>
<text text-anchor="middle" x="2953.5" y="-181.43" font-family="Times,serif" font-size="20.00">27 levels</text>
</g>
<!-- SG_2_Node_10 -->
<g id="node25" class="node">
<title>SG_2_Node_10</title>
<ellipse fill="none" stroke="black" cx="3003" cy="-37.21" rx="33.88" ry="21.43"/>
<text text-anchor="middle" x="3003" y="-32.21" font-family="Times,serif" font-size="20.00">1.0</text>
</g>
<!-- SG_2_Node_4&#45;&gt;SG_2_Node_10 -->
<g id="edge22" class="edge">
<title>SG_2_Node_4&#45;&gt;SG_2_Node_10</title>
<path fill="none" stroke="black" d="M3003,-317.42C3003,-268.93 3003,-130.74 3003,-68.85"/>
<polygon fill="black" stroke="black" points="3006.5,-68.56 3003,-58.56 2999.5,-68.56 3006.5,-68.56"/>
<text text-anchor="end" x="4089" y="-269.43" font-family="Times,serif" font-size="20.00">[[&#39;referrer&#45;policy&#39;, &#39;</text>
<text text-anchor="middle" x="3546" y="-247.43" font-family="Times,serif" font-size="20.00">no&#45;referrer&#39;]]</text>
<text text-anchor="end" x="4089" y="-225.43" font-family="Times,serif" font-size="20.00">[[&#39;referrer&#45;policy&#39;, &#39;</text>
<text text-anchor="middle" x="3546" y="-203.43" font-family="Times,serif" font-size="20.00">same&#45;origin&#39;]]</text>
<text text-anchor="middle" x="3546" y="-181.43" font-family="Times,serif" font-size="20.00">[[&#39;referrer&#45;policy&#39;, &#39;unsafe&#45;url&#39;], [&#39;location&#39;, &#39;https://sub.headers.websec.saarland/_hp/common/empty.html&#39;]]</text>
<text text-anchor="end" x="4089" y="-159.43" font-family="Times,serif" font-size="20.00">[[&#39;referrer&#45;policy</text>
<text text-anchor="middle" x="3546" y="-137.43" font-family="Times,serif" font-size="20.00">&#39;, &#39;no&#45;referrer&#39;]]</text>
<text text-anchor="end" x="4089" y="-115.43" font-family="Times,serif" font-size="20.00">[[&#39;referrer&#45;policy</text>
<text text-anchor="middle" x="3546" y="-93.43" font-family="Times,serif" font-size="20.00">&#39;, &#39;same&#45;origin&#39;]]</text>
</g>
<!-- SG_2_Node_11 -->
<g id="node26" class="node">
<title>SG_2_Node_11</title>
<ellipse fill="none" stroke="black" cx="4112" cy="-37.21" rx="33.88" ry="21.43"/>
<text text-anchor="middle" x="4112" y="-32.21" font-family="Times,serif" font-size="20.00">0.0</text>
</g>
<!-- SG_2_Node_5&#45;&gt;SG_2_Node_11 -->
<g id="edge19" class="edge">
<title>SG_2_Node_5&#45;&gt;SG_2_Node_11</title>
<path fill="none" stroke="black" d="M4112,-317.42C4112,-268.93 4112,-130.74 4112,-68.85"/>
<polygon fill="black" stroke="black" points="4115.5,-68.56 4112,-58.56 4108.5,-68.56 4115.5,-68.56"/>
<text text-anchor="end" x="5208" y="-280.43" font-family="Times,serif" font-size="20.00">[[&#39;referrer&#45;policy&#39;, &#39;</text>
<text text-anchor="middle" x="4660" y="-258.43" font-family="Times,serif" font-size="20.00">no&#45;referrer&#39;]]</text>
<text text-anchor="end" x="5208" y="-236.43" font-family="Times,serif" font-size="20.00">[[&#39;referrer&#45;policy&#39;, &#39;</text>
<text text-anchor="middle" x="4660" y="-214.43" font-family="Times,serif" font-size="20.00">same&#45;origin&#39;]]</text>
<text text-anchor="middle" x="4660" y="-192.43" font-family="Times,serif" font-size="20.00">[[&#39;referrer&#45;policy&#39;, &#39;no&#45;referrer&#39;], [&#39;location&#39;, &#39;https://sub.headers.websec.saarland/_hp/common/empty.html&#39;]]</text>
<text text-anchor="middle" x="4660" y="-170.43" font-family="Times,serif" font-size="20.00">[[&#39;referrer&#45;policy&#39;, &#39;unsafe&#45;url&#39;], [&#39;location&#39;, &#39;https://sub.headers.websec.saarland/_hp/common/empty.html&#39;]]</text>
<text text-anchor="end" x="5208" y="-148.43" font-family="Times,serif" font-size="20.00">[[&#39;referrer&#45;policy</text>
<text text-anchor="middle" x="4660" y="-126.43" font-family="Times,serif" font-size="20.00">&#39;, &#39;no&#45;referrer&#39;]]</text>
<text text-anchor="end" x="5208" y="-104.43" font-family="Times,serif" font-size="20.00">[[&#39;referrer&#45;policy</text>
<text text-anchor="middle" x="4660" y="-82.43" font-family="Times,serif" font-size="20.00">&#39;, &#39;same&#45;origin&#39;]]</text>
</g>
<!-- SG_2_Node_12 -->
<g id="node27" class="node">
<title>SG_2_Node_12</title>
<ellipse fill="none" stroke="black" cx="5231" cy="-37.21" rx="33.88" ry="21.43"/>
<text text-anchor="middle" x="5231" y="-32.21" font-family="Times,serif" font-size="20.00">1.0</text>
</g>
<!-- SG_2_Node_5&#45;&gt;SG_2_Node_12 -->
<g id="edge20" class="edge">
<title>SG_2_Node_5&#45;&gt;SG_2_Node_12</title>
<path fill="none" stroke="black" d="M4180.84,-334.73C4415.5,-334.72 5171.69,-331.91 5209,-296.43 5271.33,-237.15 5252.83,-122.4 5239.47,-68.09"/>
<polygon fill="black" stroke="black" points="5242.85,-67.19 5236.97,-58.38 5236.07,-68.93 5242.85,-67.19"/>
<text text-anchor="middle" x="5297.5" y="-181.43" font-family="Times,serif" font-size="20.00">26 levels</text>
</g>
<!-- SG_3_Node_0 -->
<g id="node28" class="node">
<title>SG_3_Node_0</title>
<polygon fill="none" stroke="black" points="6105.5,-1113.71 5968.5,-1113.71 5968.5,-1077.71 6105.5,-1077.71 6105.5,-1113.71"/>
<text text-anchor="middle" x="6037" y="-1090.71" font-family="Times,serif" font-size="20.00">raw_header</text>
</g>
<!-- SG_3_Node_1 -->
<g id="node29" class="node">
<title>SG_3_Node_1</title>
<polygon fill="none" stroke="black" points="5546.5,-840.49 5409.5,-840.49 5409.5,-804.49 5546.5,-804.49 5546.5,-840.49"/>
<text text-anchor="middle" x="5478" y="-817.49" font-family="Times,serif" font-size="20.00">raw_header</text>
</g>
<!-- SG_3_Node_0&#45;&gt;SG_3_Node_1 -->
<g id="edge25" class="edge">
<title>SG_3_Node_0&#45;&gt;SG_3_Node_1</title>
<path fill="none" stroke="black" d="M6001.61,-1077.53C5903.88,-1030.12 5630.39,-897.43 5522.54,-845.1"/>
<polygon fill="black" stroke="black" points="5523.76,-841.8 5513.24,-840.59 5520.71,-848.1 5523.76,-841.8"/>
<text text-anchor="middle" x="6000.5" y="-966.71" font-family="Times,serif" font-size="20.00">[NA]</text>
<text text-anchor="middle" x="6000.5" y="-944.71" font-family="Times,serif" font-size="20.00">85 levels</text>
</g>
<!-- SG_3_Node_2 -->
<g id="node30" class="node">
<title>SG_3_Node_2</title>
<polygon fill="none" stroke="black" points="6647.5,-840.49 6546.5,-840.49 6546.5,-804.49 6647.5,-804.49 6647.5,-840.49"/>
<text text-anchor="middle" x="6597" y="-817.49" font-family="Times,serif" font-size="20.00">browser</text>
</g>
<!-- SG_3_Node_0&#45;&gt;SG_3_Node_2 -->
<g id="edge26" class="edge">
<title>SG_3_Node_0&#45;&gt;SG_3_Node_2</title>
<path fill="none" stroke="black" d="M6072.46,-1077.53C6170.36,-1030.12 6444.33,-897.43 6552.38,-845.1"/>
<polygon fill="black" stroke="black" points="6554.23,-848.1 6561.7,-840.59 6551.17,-841.8 6554.23,-848.1"/>
<text text-anchor="middle" x="6700.5" y="-1043.71" font-family="Times,serif" font-size="20.00">[[&#39;x00referrer&#45;policy&#39;, &#39;no&#45;referrer&#39;]]</text>
<text text-anchor="middle" x="6700.5" y="-1021.71" font-family="Times,serif" font-size="20.00">[[&#39;x00referrer&#45;policy&#39;, &#39;same&#45;origin&#39;]]</text>
<text text-anchor="middle" x="6700.5" y="-999.71" font-family="Times,serif" font-size="20.00">[[&#39;x00referrer&#45;policy&#39;, &#39;unsafe&#45;url&#39;]]</text>
<text text-anchor="middle" x="6700.5" y="-977.71" font-family="Times,serif" font-size="20.00">[[&#39;referrex00r&#45;policy&#39;, &#39;no&#45;referrer&#39;]]</text>
<text text-anchor="middle" x="6700.5" y="-955.71" font-family="Times,serif" font-size="20.00">[[&#39;referrex00r&#45;policy&#39;, &#39;same&#45;origin&#39;]]</text>
<text text-anchor="middle" x="6700.5" y="-933.71" font-family="Times,serif" font-size="20.00">[[&#39;referrex00r&#45;policy&#39;, &#39;unsafe&#45;url&#39;]]</text>
<text text-anchor="middle" x="6700.5" y="-911.71" font-family="Times,serif" font-size="20.00">[[&#39;referrer&#45;policyx00&#39;, &#39;no&#45;referrer&#39;]]</text>
<text text-anchor="middle" x="6700.5" y="-889.71" font-family="Times,serif" font-size="20.00">[[&#39;referrer&#45;policyx00&#39;, &#39;same&#45;origin&#39;]]</text>
<text text-anchor="middle" x="6700.5" y="-867.71" font-family="Times,serif" font-size="20.00">[[&#39;referrer&#45;policyx00&#39;, &#39;unsafe&#45;url&#39;]]</text>
</g>
<!-- SG_3_Node_4 -->
<g id="node31" class="node">
<title>SG_3_Node_4</title>
<ellipse fill="none" stroke="black" cx="5380" cy="-568.07" rx="33.88" ry="21.43"/>
<text text-anchor="middle" x="5380" y="-563.07" font-family="Times,serif" font-size="20.00">0.0</text>
</g>
<!-- SG_3_Node_1&#45;&gt;SG_3_Node_4 -->
<g id="edge29" class="edge">
<title>SG_3_Node_1&#45;&gt;SG_3_Node_4</title>
<path fill="none" stroke="black" d="M5409.18,-805.33C5398.88,-799.96 5389.54,-792.81 5383,-783.28 5344.83,-727.62 5359.26,-643.24 5370.9,-598.82"/>
<polygon fill="black" stroke="black" points="5374.34,-599.51 5373.62,-588.94 5367.59,-597.66 5374.34,-599.51"/>
<text text-anchor="middle" x="5428.5" y="-701.28" font-family="Times,serif" font-size="20.00">[NA]</text>
<text text-anchor="middle" x="5428.5" y="-679.28" font-family="Times,serif" font-size="20.00">83 levels</text>
</g>
<!-- SG_3_Node_3 -->
<g id="node32" class="node">
<title>SG_3_Node_3</title>
<polygon fill="none" stroke="black" points="5532.5,-586.07 5431.5,-586.07 5431.5,-550.07 5532.5,-550.07 5532.5,-586.07"/>
<text text-anchor="middle" x="5482" y="-563.07" font-family="Times,serif" font-size="20.00">browser</text>
</g>
<!-- SG_3_Node_1&#45;&gt;SG_3_Node_3 -->
<g id="edge30" class="edge">
<title>SG_3_Node_1&#45;&gt;SG_3_Node_3</title>
<path fill="none" stroke="black" d="M5478.27,-804.14C5478.96,-760.99 5480.74,-648.53 5481.57,-596.37"/>
<polygon fill="black" stroke="black" points="5485.07,-596.26 5481.73,-586.2 5478.07,-596.15 5485.07,-596.26"/>
<text text-anchor="middle" x="6029" y="-701.28" font-family="Times,serif" font-size="20.00">[[&#39;referrer&#45;policy&#39;, &#39;no&#45;referrer&#39;], [&#39;location&#39;, &#39;https://sub.headers.websec.saarland/_hp/common/empty.html&#39;]]</text>
<text text-anchor="middle" x="6029" y="-679.28" font-family="Times,serif" font-size="20.00">[[&#39;referrer&#45;policy&#39;, &#39;unsafe&#45;url&#39;], [&#39;location&#39;, &#39;https://sub.headers.websec.saarland/_hp/common/empty.html&#39;]]</text>
</g>
<!-- SG_3_Node_5 -->
<g id="node33" class="node">
<title>SG_3_Node_5</title>
<ellipse fill="none" stroke="black" cx="6597" cy="-568.07" rx="33.88" ry="21.43"/>
<text text-anchor="middle" x="6597" y="-563.07" font-family="Times,serif" font-size="20.00">0.0</text>
</g>
<!-- SG_3_Node_2&#45;&gt;SG_3_Node_5 -->
<g id="edge27" class="edge">
<title>SG_3_Node_2&#45;&gt;SG_3_Node_5</title>
<path fill="none" stroke="black" d="M6597,-804.14C6597,-761.83 6597,-652.92 6597,-599.51"/>
<polygon fill="black" stroke="black" points="6600.5,-599.31 6597,-589.31 6593.5,-599.31 6600.5,-599.31"/>
<text text-anchor="middle" x="6821.5" y="-701.28" font-family="Times,serif" font-size="20.00">firefox Ubuntu 22.04 119 selenium headless</text>
<text text-anchor="middle" x="6821.5" y="-679.28" font-family="Times,serif" font-size="20.00">firefox Ubuntu 22.04 119 selenium xvfb</text>
</g>
<!-- SG_3_Node_6 -->
<g id="node34" class="node">
<title>SG_3_Node_6</title>
<ellipse fill="none" stroke="black" cx="7069" cy="-568.07" rx="33.88" ry="21.43"/>
<text text-anchor="middle" x="7069" y="-563.07" font-family="Times,serif" font-size="20.00">1.0</text>
</g>
<!-- SG_3_Node_2&#45;&gt;SG_3_Node_6 -->
<g id="edge28" class="edge">
<title>SG_3_Node_2&#45;&gt;SG_3_Node_6</title>
<path fill="none" stroke="black" d="M6647.75,-820.76C6759.46,-818.64 7019,-810.79 7047,-783.28 7096.09,-735.05 7085.96,-645.42 7076.39,-598.87"/>
<polygon fill="black" stroke="black" points="7079.81,-598.11 7074.25,-589.08 7072.97,-599.6 7079.81,-598.11"/>
<text text-anchor="middle" x="7443.5" y="-756.28" font-family="Times,serif" font-size="20.00">[NA]</text>
<text text-anchor="middle" x="7443.5" y="-734.28" font-family="Times,serif" font-size="20.00">brave Ubuntu 22.04 1.60.114 (119.0.6045.124) selenium headless&#45;new</text>
<text text-anchor="middle" x="7443.5" y="-712.28" font-family="Times,serif" font-size="20.00">brave Ubuntu 22.04 1.60.114 (119.0.6045.124) selenium xvfb</text>
<text text-anchor="middle" x="7443.5" y="-690.28" font-family="Times,serif" font-size="20.00">chrome Ubuntu 22.04 119 selenium headless&#45;new</text>
<text text-anchor="middle" x="7443.5" y="-668.28" font-family="Times,serif" font-size="20.00">chrome Ubuntu 22.04 119 selenium xvfb</text>
<text text-anchor="middle" x="7443.5" y="-646.28" font-family="Times,serif" font-size="20.00">edge Ubuntu 22.04 119 selenium headless&#45;new</text>
<text text-anchor="middle" x="7443.5" y="-624.28" font-family="Times,serif" font-size="20.00">edge Ubuntu 22.04 119 selenium xvfb</text>
</g>
<!-- SG_3_Node_7 -->
<g id="node35" class="node">
<title>SG_3_Node_7</title>
<ellipse fill="none" stroke="black" cx="5431" cy="-335.64" rx="33.88" ry="21.43"/>
<text text-anchor="middle" x="5431" y="-330.64" font-family="Times,serif" font-size="20.00">0.0</text>
</g>
<!-- SG_3_Node_3&#45;&gt;SG_3_Node_7 -->
<g id="edge31" class="edge">
<title>SG_3_Node_3&#45;&gt;SG_3_Node_7</title>
<path fill="none" stroke="black" d="M5450.67,-550.02C5443.2,-544.34 5436.19,-537.26 5432,-528.85 5406,-476.61 5415.06,-406.05 5423.41,-366.57"/>
<polygon fill="black" stroke="black" points="5426.83,-367.3 5425.6,-356.77 5420,-365.77 5426.83,-367.3"/>
<text text-anchor="middle" x="5791.5" y="-512.85" font-family="Times,serif" font-size="20.00">[NA]</text>
<text text-anchor="middle" x="5791.5" y="-490.85" font-family="Times,serif" font-size="20.00">brave Ubuntu 22.04 1.60.114 (119.0.6045.124) selenium headless&#45;new</text>
<text text-anchor="middle" x="5791.5" y="-468.85" font-family="Times,serif" font-size="20.00">brave Ubuntu 22.04 1.60.114 (119.0.6045.124) selenium xvfb</text>
<text text-anchor="middle" x="5791.5" y="-446.85" font-family="Times,serif" font-size="20.00">chrome Ubuntu 22.04 119 selenium headless&#45;new</text>
<text text-anchor="middle" x="5791.5" y="-424.85" font-family="Times,serif" font-size="20.00">chrome Ubuntu 22.04 119 selenium xvfb</text>
<text text-anchor="middle" x="5791.5" y="-402.85" font-family="Times,serif" font-size="20.00">edge Ubuntu 22.04 119 selenium headless&#45;new</text>
<text text-anchor="middle" x="5791.5" y="-380.85" font-family="Times,serif" font-size="20.00">edge Ubuntu 22.04 119 selenium xvfb</text>
</g>
<!-- SG_3_Node_8 -->
<g id="node36" class="node">
<title>SG_3_Node_8</title>
<ellipse fill="none" stroke="black" cx="6173" cy="-335.64" rx="33.88" ry="21.43"/>
<text text-anchor="middle" x="6173" y="-330.64" font-family="Times,serif" font-size="20.00">1.0</text>
</g>
<!-- SG_3_Node_3&#45;&gt;SG_3_Node_8 -->
<g id="edge32" class="edge">
<title>SG_3_Node_3&#45;&gt;SG_3_Node_8</title>
<path fill="none" stroke="black" d="M5532.51,-565.94C5684.5,-562.34 6128.59,-550.02 6151,-528.85 6194.87,-487.41 6188,-409.45 6180,-366.65"/>
<polygon fill="black" stroke="black" points="6183.42,-365.94 6178.02,-356.82 6176.56,-367.32 6183.42,-365.94"/>
<text text-anchor="middle" x="6409.5" y="-457.85" font-family="Times,serif" font-size="20.00">firefox Ubuntu 22.04 119 selenium headless</text>
<text text-anchor="middle" x="6409.5" y="-435.85" font-family="Times,serif" font-size="20.00">firefox Ubuntu 22.04 119 selenium xvfb</text>
</g>
</g>
</svg>
