<?xml version="1.0" encoding="UTF-8" standalone="no"?>
<!DOCTYPE svg PUBLIC "-//W3C//DTD SVG 1.1//EN"
 "http://www.w3.org/Graphics/SVG/1.1/DTD/svg11.dtd">
<!-- Generated by graphviz version 2.43.0 (0)
 -->
<!-- Title: G Pages: 1 -->
<svg width="2482pt" height="476pt"
 viewBox="0.00 0.00 2482.00 476.43" xmlns="http://www.w3.org/2000/svg" xmlns:xlink="http://www.w3.org/1999/xlink">
<g id="graph0" class="graph" transform="scale(1 1) rotate(0) translate(4 472.43)">
<title>G</title>
<polygon fill="white" stroke="transparent" points="-4,4 -4,-472.43 2478,-472.43 2478,4 -4,4"/>
<g id="clust1" class="cluster">
<title>cluster_0</title>
<polygon fill="none" stroke="black" points="8,-8 8,-460.43 1233,-460.43 1233,-8 8,-8"/>
<text text-anchor="middle" x="620.5" y="-424.43" font-family="Times,serif" font-size="40.00">Tree 0, Class message send</text>
</g>
<g id="clust5" class="cluster">
<title>cluster_1</title>
<polygon fill="none" stroke="black" points="1241,-8 1241,-460.43 2466,-460.43 2466,-8 1241,-8"/>
<text text-anchor="middle" x="1853.5" y="-424.43" font-family="Times,serif" font-size="40.00">Tree 0, Class message timeout</text>
</g>
<!-- SG_0_Node_0 -->
<g id="node1" class="node">
<title>SG_0_Node_0</title>
<polygon fill="none" stroke="black" points="336.5,-400.43 235.5,-400.43 235.5,-364.43 336.5,-364.43 336.5,-400.43"/>
<text text-anchor="middle" x="286" y="-377.43" font-family="Times,serif" font-size="20.00">browser</text>
</g>
<!-- SG_0_Node_1 -->
<g id="node2" class="node">
<title>SG_0_Node_1</title>
<polygon fill="none" stroke="black" points="153.5,-174.43 16.5,-174.43 16.5,-138.43 153.5,-138.43 153.5,-174.43"/>
<text text-anchor="middle" x="85" y="-151.43" font-family="Times,serif" font-size="20.00">raw_header</text>
</g>
<!-- SG_0_Node_0&#45;&gt;SG_0_Node_1 -->
<g id="edge1" class="edge">
<title>SG_0_Node_0&#45;&gt;SG_0_Node_1</title>
<path fill="none" stroke="black" d="M235.23,-381.87C169.52,-381.22 60.42,-375.63 35,-346.43 -9.93,-294.79 3.39,-253.14 35,-192.43 37.12,-188.35 39.96,-184.65 43.21,-181.32"/>
<polygon fill="black" stroke="black" points="45.66,-183.83 50.86,-174.6 41.04,-178.57 45.66,-183.83"/>
<text text-anchor="middle" x="259.5" y="-275.43" font-family="Times,serif" font-size="20.00">firefox Ubuntu 22.04 119 selenium headless</text>
<text text-anchor="middle" x="259.5" y="-253.43" font-family="Times,serif" font-size="20.00">firefox Ubuntu 22.04 119 selenium xvfb</text>
</g>
<!-- SG_0_Node_2 -->
<g id="node3" class="node">
<title>SG_0_Node_2</title>
<polygon fill="none" stroke="black" points="574.5,-174.43 437.5,-174.43 437.5,-138.43 574.5,-138.43 574.5,-174.43"/>
<text text-anchor="middle" x="506" y="-151.43" font-family="Times,serif" font-size="20.00">raw_header</text>
</g>
<!-- SG_0_Node_0&#45;&gt;SG_0_Node_2 -->
<g id="edge2" class="edge">
<title>SG_0_Node_0&#45;&gt;SG_0_Node_2</title>
<path fill="none" stroke="black" d="M336.73,-379.18C388.63,-375.76 464.37,-367.26 484,-346.43 525.29,-302.62 518.95,-225.42 511.86,-184.56"/>
<polygon fill="black" stroke="black" points="515.26,-183.71 509.98,-174.53 508.38,-185 515.26,-183.71"/>
<text text-anchor="middle" x="876.5" y="-330.43" font-family="Times,serif" font-size="20.00">[NA]</text>
<text text-anchor="middle" x="876.5" y="-308.43" font-family="Times,serif" font-size="20.00">brave Ubuntu 22.04 1.60.114 (119.0.6045.124) selenium headless&#45;new</text>
<text text-anchor="middle" x="876.5" y="-286.43" font-family="Times,serif" font-size="20.00">brave Ubuntu 22.04 1.60.114 (119.0.6045.124) selenium xvfb</text>
<text text-anchor="middle" x="876.5" y="-264.43" font-family="Times,serif" font-size="20.00">chrome Ubuntu 22.04 119 selenium headless&#45;new</text>
<text text-anchor="middle" x="876.5" y="-242.43" font-family="Times,serif" font-size="20.00">chrome Ubuntu 22.04 119 selenium xvfb</text>
<text text-anchor="middle" x="876.5" y="-220.43" font-family="Times,serif" font-size="20.00">edge Ubuntu 22.04 119 selenium headless&#45;new</text>
<text text-anchor="middle" x="876.5" y="-198.43" font-family="Times,serif" font-size="20.00">edge Ubuntu 22.04 119 selenium xvfb</text>
</g>
<!-- SG_0_Node_3 -->
<g id="node4" class="node">
<title>SG_0_Node_3</title>
<ellipse fill="none" stroke="black" cx="67" cy="-37.21" rx="33.88" ry="21.43"/>
<text text-anchor="middle" x="67" y="-32.21" font-family="Times,serif" font-size="20.00">0.0</text>
</g>
<!-- SG_0_Node_1&#45;&gt;SG_0_Node_3 -->
<g id="edge5" class="edge">
<title>SG_0_Node_1&#45;&gt;SG_0_Node_3</title>
<path fill="none" stroke="black" d="M74.77,-138.18C72.03,-132.7 69.43,-126.47 68,-120.43 64.02,-103.61 63.58,-84.31 64.23,-68.64"/>
<polygon fill="black" stroke="black" points="67.73,-68.63 64.81,-58.45 60.74,-68.23 67.73,-68.63"/>
<text text-anchor="middle" x="113.5" y="-104.43" font-family="Times,serif" font-size="20.00">[NA]</text>
<text text-anchor="middle" x="113.5" y="-82.43" font-family="Times,serif" font-size="20.00">88 levels</text>
</g>
<!-- SG_0_Node_4 -->
<g id="node5" class="node">
<title>SG_0_Node_4</title>
<ellipse fill="none" stroke="black" cx="181" cy="-37.21" rx="33.88" ry="21.43"/>
<text text-anchor="middle" x="181" y="-32.21" font-family="Times,serif" font-size="20.00">1.0</text>
</g>
<!-- SG_0_Node_1&#45;&gt;SG_0_Node_4 -->
<g id="edge6" class="edge">
<title>SG_0_Node_1&#45;&gt;SG_0_Node_4</title>
<path fill="none" stroke="black" d="M136.47,-138.32C144.93,-133.62 152.9,-127.74 159,-120.43 171.07,-105.96 176.57,-85.5 179.06,-68.61"/>
<polygon fill="black" stroke="black" points="182.54,-68.99 180.25,-58.65 175.59,-68.16 182.54,-68.99"/>
<text text-anchor="middle" x="222.5" y="-93.43" font-family="Times,serif" font-size="20.00">20 levels</text>
</g>
<!-- SG_0_Node_5 -->
<g id="node6" class="node">
<title>SG_0_Node_5</title>
<ellipse fill="none" stroke="black" cx="449" cy="-37.21" rx="33.88" ry="21.43"/>
<text text-anchor="middle" x="449" y="-32.21" font-family="Times,serif" font-size="20.00">0.0</text>
</g>
<!-- SG_0_Node_2&#45;&gt;SG_0_Node_5 -->
<g id="edge3" class="edge">
<title>SG_0_Node_2&#45;&gt;SG_0_Node_5</title>
<path fill="none" stroke="black" d="M467.07,-138.33C460.25,-133.54 454.05,-127.62 450,-120.43 441.28,-104.91 440.81,-85.01 442.63,-68.67"/>
<polygon fill="black" stroke="black" points="446.13,-68.93 444.1,-58.53 439.21,-67.93 446.13,-68.93"/>
<text text-anchor="middle" x="495.5" y="-93.43" font-family="Times,serif" font-size="20.00">20 levels</text>
</g>
<!-- SG_0_Node_6 -->
<g id="node7" class="node">
<title>SG_0_Node_6</title>
<ellipse fill="none" stroke="black" cx="563" cy="-37.21" rx="33.88" ry="21.43"/>
<text text-anchor="middle" x="563" y="-32.21" font-family="Times,serif" font-size="20.00">1.0</text>
</g>
<!-- SG_0_Node_2&#45;&gt;SG_0_Node_6 -->
<g id="edge4" class="edge">
<title>SG_0_Node_2&#45;&gt;SG_0_Node_6</title>
<path fill="none" stroke="black" d="M526.92,-138.09C532.14,-132.88 537.31,-126.83 541,-120.43 550.15,-104.58 555.59,-84.82 558.78,-68.64"/>
<polygon fill="black" stroke="black" points="562.26,-69.07 560.56,-58.61 555.37,-67.84 562.26,-69.07"/>
<text text-anchor="middle" x="601.5" y="-104.43" font-family="Times,serif" font-size="20.00">[NA]</text>
<text text-anchor="middle" x="601.5" y="-82.43" font-family="Times,serif" font-size="20.00">88 levels</text>
</g>
<!-- SG_1_Node_0 -->
<g id="node8" class="node">
<title>SG_1_Node_0</title>
<polygon fill="none" stroke="black" points="1704.5,-400.43 1603.5,-400.43 1603.5,-364.43 1704.5,-364.43 1704.5,-400.43"/>
<text text-anchor="middle" x="1654" y="-377.43" font-family="Times,serif" font-size="20.00">browser</text>
</g>
<!-- SG_1_Node_1 -->
<g id="node9" class="node">
<title>SG_1_Node_1</title>
<polygon fill="none" stroke="black" points="1386.5,-174.43 1249.5,-174.43 1249.5,-138.43 1386.5,-138.43 1386.5,-174.43"/>
<text text-anchor="middle" x="1318" y="-151.43" font-family="Times,serif" font-size="20.00">raw_header</text>
</g>
<!-- SG_1_Node_0&#45;&gt;SG_1_Node_1 -->
<g id="edge7" class="edge">
<title>SG_1_Node_0&#45;&gt;SG_1_Node_1</title>
<path fill="none" stroke="black" d="M1603.23,-380.55C1503.6,-378.32 1290.18,-370.71 1268,-346.43 1221.84,-295.89 1236.39,-253.14 1268,-192.43 1270.12,-188.35 1272.96,-184.65 1276.21,-181.32"/>
<polygon fill="black" stroke="black" points="1278.66,-183.83 1283.86,-174.6 1274.04,-178.57 1278.66,-183.83"/>
<text text-anchor="middle" x="1627.5" y="-330.43" font-family="Times,serif" font-size="20.00">[NA]</text>
<text text-anchor="middle" x="1627.5" y="-308.43" font-family="Times,serif" font-size="20.00">brave Ubuntu 22.04 1.60.114 (119.0.6045.124) selenium headless&#45;new</text>
<text text-anchor="middle" x="1627.5" y="-286.43" font-family="Times,serif" font-size="20.00">brave Ubuntu 22.04 1.60.114 (119.0.6045.124) selenium xvfb</text>
<text text-anchor="middle" x="1627.5" y="-264.43" font-family="Times,serif" font-size="20.00">chrome Ubuntu 22.04 119 selenium headless&#45;new</text>
<text text-anchor="middle" x="1627.5" y="-242.43" font-family="Times,serif" font-size="20.00">chrome Ubuntu 22.04 119 selenium xvfb</text>
<text text-anchor="middle" x="1627.5" y="-220.43" font-family="Times,serif" font-size="20.00">edge Ubuntu 22.04 119 selenium headless&#45;new</text>
<text text-anchor="middle" x="1627.5" y="-198.43" font-family="Times,serif" font-size="20.00">edge Ubuntu 22.04 119 selenium xvfb</text>
</g>
<!-- SG_1_Node_2 -->
<g id="node10" class="node">
<title>SG_1_Node_2</title>
<polygon fill="none" stroke="black" points="2077.5,-174.43 1940.5,-174.43 1940.5,-138.43 2077.5,-138.43 2077.5,-174.43"/>
<text text-anchor="middle" x="2009" y="-151.43" font-family="Times,serif" font-size="20.00">raw_header</text>
</g>
<!-- SG_1_Node_0&#45;&gt;SG_1_Node_2 -->
<g id="edge8" class="edge">
<title>SG_1_Node_0&#45;&gt;SG_1_Node_2</title>
<path fill="none" stroke="black" d="M1704.72,-379.53C1792.99,-375.74 1967.34,-365.87 1987,-346.43 2030,-303.9 2022.75,-225.55 2015.13,-184.35"/>
<polygon fill="black" stroke="black" points="2018.55,-183.61 2013.17,-174.49 2011.69,-184.98 2018.55,-183.61"/>
<text text-anchor="middle" x="2244.5" y="-275.43" font-family="Times,serif" font-size="20.00">firefox Ubuntu 22.04 119 selenium headless</text>
<text text-anchor="middle" x="2244.5" y="-253.43" font-family="Times,serif" font-size="20.00">firefox Ubuntu 22.04 119 selenium xvfb</text>
</g>
<!-- SG_1_Node_3 -->
<g id="node11" class="node">
<title>SG_1_Node_3</title>
<ellipse fill="none" stroke="black" cx="1300" cy="-37.21" rx="33.88" ry="21.43"/>
<text text-anchor="middle" x="1300" y="-32.21" font-family="Times,serif" font-size="20.00">0.0</text>
</g>
<!-- SG_1_Node_1&#45;&gt;SG_1_Node_3 -->
<g id="edge11" class="edge">
<title>SG_1_Node_1&#45;&gt;SG_1_Node_3</title>
<path fill="none" stroke="black" d="M1307.77,-138.18C1305.03,-132.7 1302.43,-126.47 1301,-120.43 1297.02,-103.61 1296.58,-84.31 1297.23,-68.64"/>
<polygon fill="black" stroke="black" points="1300.73,-68.63 1297.81,-58.45 1293.74,-68.23 1300.73,-68.63"/>
<text text-anchor="middle" x="1346.5" y="-104.43" font-family="Times,serif" font-size="20.00">[NA]</text>
<text text-anchor="middle" x="1346.5" y="-82.43" font-family="Times,serif" font-size="20.00">88 levels</text>
</g>
<!-- SG_1_Node_4 -->
<g id="node12" class="node">
<title>SG_1_Node_4</title>
<ellipse fill="none" stroke="black" cx="1414" cy="-37.21" rx="33.88" ry="21.43"/>
<text text-anchor="middle" x="1414" y="-32.21" font-family="Times,serif" font-size="20.00">1.0</text>
</g>
<!-- SG_1_Node_1&#45;&gt;SG_1_Node_4 -->
<g id="edge12" class="edge">
<title>SG_1_Node_1&#45;&gt;SG_1_Node_4</title>
<path fill="none" stroke="black" d="M1369.47,-138.32C1377.93,-133.62 1385.9,-127.74 1392,-120.43 1404.07,-105.96 1409.57,-85.5 1412.06,-68.61"/>
<polygon fill="black" stroke="black" points="1415.54,-68.99 1413.25,-58.65 1408.59,-68.16 1415.54,-68.99"/>
<text text-anchor="middle" x="1455.5" y="-93.43" font-family="Times,serif" font-size="20.00">20 levels</text>
</g>
<!-- SG_1_Node_5 -->
<g id="node13" class="node">
<title>SG_1_Node_5</title>
<ellipse fill="none" stroke="black" cx="1952" cy="-37.21" rx="33.88" ry="21.43"/>
<text text-anchor="middle" x="1952" y="-32.21" font-family="Times,serif" font-size="20.00">0.0</text>
</g>
<!-- SG_1_Node_2&#45;&gt;SG_1_Node_5 -->
<g id="edge9" class="edge">
<title>SG_1_Node_2&#45;&gt;SG_1_Node_5</title>
<path fill="none" stroke="black" d="M1970.07,-138.33C1963.25,-133.54 1957.05,-127.62 1953,-120.43 1944.28,-104.91 1943.81,-85.01 1945.63,-68.67"/>
<polygon fill="black" stroke="black" points="1949.13,-68.93 1947.1,-58.53 1942.21,-67.93 1949.13,-68.93"/>
<text text-anchor="middle" x="1998.5" y="-93.43" font-family="Times,serif" font-size="20.00">20 levels</text>
</g>
<!-- SG_1_Node_6 -->
<g id="node14" class="node">
<title>SG_1_Node_6</title>
<ellipse fill="none" stroke="black" cx="2066" cy="-37.21" rx="33.88" ry="21.43"/>
<text text-anchor="middle" x="2066" y="-32.21" font-family="Times,serif" font-size="20.00">1.0</text>
</g>
<!-- SG_1_Node_2&#45;&gt;SG_1_Node_6 -->
<g id="edge10" class="edge">
<title>SG_1_Node_2&#45;&gt;SG_1_Node_6</title>
<path fill="none" stroke="black" d="M2029.92,-138.09C2035.14,-132.88 2040.31,-126.83 2044,-120.43 2053.15,-104.58 2058.59,-84.82 2061.78,-68.64"/>
<polygon fill="black" stroke="black" points="2065.26,-69.07 2063.56,-58.61 2058.37,-67.84 2065.26,-69.07"/>
<text text-anchor="middle" x="2104.5" y="-104.43" font-family="Times,serif" font-size="20.00">[NA]</text>
<text text-anchor="middle" x="2104.5" y="-82.43" font-family="Times,serif" font-size="20.00">88 levels</text>
</g>
</g>
</svg>
