<?xml version="1.0" encoding="UTF-8" standalone="no"?>
<!DOCTYPE svg PUBLIC "-//W3C//DTD SVG 1.1//EN"
 "http://www.w3.org/Graphics/SVG/1.1/DTD/svg11.dtd">
<!-- Generated by graphviz version 2.43.0 (0)
 -->
<!-- Title: G Pages: 1 -->
<svg width="4921pt" height="652pt"
 viewBox="0.00 0.00 4921.00 652.43" xmlns="http://www.w3.org/2000/svg" xmlns:xlink="http://www.w3.org/1999/xlink">
<g id="graph0" class="graph" transform="scale(1 1) rotate(0) translate(4 648.43)">
<title>G</title>
<polygon fill="white" stroke="transparent" points="-4,4 -4,-648.43 4917,-648.43 4917,4 -4,4"/>
<g id="clust1" class="cluster">
<title>cluster_0</title>
<polygon fill="none" stroke="black" points="8,-8 8,-636.43 2447,-636.43 2447,-8 8,-8"/>
<text text-anchor="middle" x="1227.5" y="-600.43" font-family="Times,serif" font-size="40.00">Tree 0, Class error</text>
</g>
<g id="clust5" class="cluster">
<title>cluster_1</title>
<polygon fill="none" stroke="black" points="2455,-8 2455,-636.43 4894,-636.43 4894,-8 2455,-8"/>
<text text-anchor="middle" x="3674.5" y="-600.43" font-family="Times,serif" font-size="40.00">Tree 0, Class load</text>
</g>
<!-- SG_0_Node_0 -->
<g id="node1" class="node">
<title>SG_0_Node_0</title>
<polygon fill="none" stroke="black" points="775.5,-576.43 638.5,-576.43 638.5,-540.43 775.5,-540.43 775.5,-576.43"/>
<text text-anchor="middle" x="707" y="-553.43" font-family="Times,serif" font-size="20.00">raw_header</text>
</g>
<!-- SG_0_Node_1 -->
<g id="node2" class="node">
<title>SG_0_Node_1</title>
<polygon fill="none" stroke="black" points="312.5,-284.43 211.5,-284.43 211.5,-248.43 312.5,-248.43 312.5,-284.43"/>
<text text-anchor="middle" x="262" y="-261.43" font-family="Times,serif" font-size="20.00">browser</text>
</g>
<!-- SG_0_Node_0&#45;&gt;SG_0_Node_1 -->
<g id="edge1" class="edge">
<title>SG_0_Node_0&#45;&gt;SG_0_Node_1</title>
<path fill="none" stroke="black" d="M638.2,-557.01C519.84,-555.57 287.95,-549.31 263,-522.43 204.56,-459.45 234.15,-345.42 251.89,-293.92"/>
<polygon fill="black" stroke="black" points="255.19,-295.09 255.24,-284.49 248.59,-292.74 255.19,-295.09"/>
<text text-anchor="middle" x="883" y="-506.43" font-family="Times,serif" font-size="20.00">[[&#39;cross&#45;origin&#45;resource&#45;policy&#39;, &#39;&#39;], [&#39;cross&#45;origin&#45;resource&#45;policy&#39;, &#39;same&#45;origin&#39;]]</text>
<text text-anchor="middle" x="883" y="-484.43" font-family="Times,serif" font-size="20.00">[[&#39;cross&#45;origin&#45;resource&#45;policy&#39;, &#39;&#39;], [&#39;cross&#45;origin&#45;resource&#45;policy&#39;, &#39;same&#45;site&#39;]]</text>
<text text-anchor="middle" x="883" y="-462.43" font-family="Times,serif" font-size="20.00">[[&#39;cross&#45;origin&#45;resource&#45;policy&#39;, &#39;&#39;], [&#39;location&#39;, &#39;https://sub.headers.websec.saarland/_hp/common/empty.html&#39;]]</text>
<text text-anchor="middle" x="883" y="-440.43" font-family="Times,serif" font-size="20.00">[[&#39;cross&#45;origin&#45;resource&#45;policy&#39;, &#39;cross&#45;origin&#39;], [&#39;location&#39;, &#39;https://sub.headers.websec.saarland/_hp/common/empty.html&#39;]]</text>
<text text-anchor="middle" x="883" y="-418.43" font-family="Times,serif" font-size="20.00">[[&#39;cross&#45;origin&#45;resource&#45;policy&#39;, &#39;same&#45;origin&#39;], [&#39;cross&#45;origin&#45;resource&#45;policy&#39;, &#39;&#39;]]</text>
<text text-anchor="middle" x="883" y="-396.43" font-family="Times,serif" font-size="20.00">[[&#39;cross&#45;origin&#45;resource&#45;policy&#39;, &#39;same&#45;site&#39;], [&#39;cross&#45;origin&#45;resource&#45;policy&#39;, &#39;&#39;]]</text>
<text text-anchor="end" x="1503" y="-374.43" font-family="Times,serif" font-size="20.00">[[&#39;cross&#45;origin&#45;resource&#45;policy</text>
<text text-anchor="middle" x="883" y="-352.43" font-family="Times,serif" font-size="20.00">&#39;, &#39;same&#45;origin&#39;]]</text>
<text text-anchor="end" x="1503" y="-330.43" font-family="Times,serif" font-size="20.00">[[&#39;cross&#45;origin&#45;resource&#45;policy</text>
<text text-anchor="middle" x="883" y="-308.43" font-family="Times,serif" font-size="20.00">&#39;, &#39;same&#45;site&#39;]]</text>
</g>
<!-- SG_0_Node_2 -->
<g id="node3" class="node">
<title>SG_0_Node_2</title>
<polygon fill="none" stroke="black" points="1575.5,-284.43 1474.5,-284.43 1474.5,-248.43 1575.5,-248.43 1575.5,-284.43"/>
<text text-anchor="middle" x="1525" y="-261.43" font-family="Times,serif" font-size="20.00">browser</text>
</g>
<!-- SG_0_Node_0&#45;&gt;SG_0_Node_2 -->
<g id="edge2" class="edge">
<title>SG_0_Node_0&#45;&gt;SG_0_Node_2</title>
<path fill="none" stroke="black" d="M775.68,-556.84C964.1,-554.92 1476.95,-547.41 1503,-522.43 1565.27,-462.73 1545.75,-346.94 1532.68,-294.45"/>
<polygon fill="black" stroke="black" points="1536,-293.34 1530.1,-284.55 1529.23,-295.1 1536,-293.34"/>
<text text-anchor="middle" x="1591.5" y="-418.43" font-family="Times,serif" font-size="20.00">[NA]</text>
<text text-anchor="middle" x="1591.5" y="-396.43" font-family="Times,serif" font-size="20.00">20 levels</text>
</g>
<!-- SG_0_Node_3 -->
<g id="node4" class="node">
<title>SG_0_Node_3</title>
<ellipse fill="none" stroke="black" cx="50" cy="-37.21" rx="33.88" ry="21.43"/>
<text text-anchor="middle" x="50" y="-32.21" font-family="Times,serif" font-size="20.00">0.0</text>
</g>
<!-- SG_0_Node_1&#45;&gt;SG_0_Node_3 -->
<g id="edge5" class="edge">
<title>SG_0_Node_1&#45;&gt;SG_0_Node_3</title>
<path fill="none" stroke="black" d="M211.41,-264.99C151.57,-263.27 57.26,-256.38 35,-230.43 -4.24,-184.68 19.14,-108.19 36.47,-66.84"/>
<polygon fill="black" stroke="black" points="39.7,-68.17 40.48,-57.61 33.28,-65.38 39.7,-68.17"/>
<text text-anchor="middle" x="394.5" y="-214.43" font-family="Times,serif" font-size="20.00">[NA]</text>
<text text-anchor="middle" x="394.5" y="-192.43" font-family="Times,serif" font-size="20.00">brave Ubuntu 22.04 1.60.114 (119.0.6045.124) selenium headless&#45;new</text>
<text text-anchor="middle" x="394.5" y="-170.43" font-family="Times,serif" font-size="20.00">brave Ubuntu 22.04 1.60.114 (119.0.6045.124) selenium xvfb</text>
<text text-anchor="middle" x="394.5" y="-148.43" font-family="Times,serif" font-size="20.00">chrome Ubuntu 22.04 119 selenium headless&#45;new</text>
<text text-anchor="middle" x="394.5" y="-126.43" font-family="Times,serif" font-size="20.00">chrome Ubuntu 22.04 119 selenium xvfb</text>
<text text-anchor="middle" x="394.5" y="-104.43" font-family="Times,serif" font-size="20.00">edge Ubuntu 22.04 119 selenium headless&#45;new</text>
<text text-anchor="middle" x="394.5" y="-82.43" font-family="Times,serif" font-size="20.00">edge Ubuntu 22.04 119 selenium xvfb</text>
</g>
<!-- SG_0_Node_4 -->
<g id="node5" class="node">
<title>SG_0_Node_4</title>
<ellipse fill="none" stroke="black" cx="776" cy="-37.21" rx="33.88" ry="21.43"/>
<text text-anchor="middle" x="776" y="-32.21" font-family="Times,serif" font-size="20.00">1.0</text>
</g>
<!-- SG_0_Node_1&#45;&gt;SG_0_Node_4 -->
<g id="edge6" class="edge">
<title>SG_0_Node_1&#45;&gt;SG_0_Node_4</title>
<path fill="none" stroke="black" d="M312.94,-265.41C432.35,-264.87 722.66,-260.45 754,-230.43 776.55,-208.83 777.95,-117.2 777.03,-68.67"/>
<polygon fill="black" stroke="black" points="780.52,-68.36 776.78,-58.45 773.52,-68.53 780.52,-68.36"/>
<text text-anchor="middle" x="1001.5" y="-159.43" font-family="Times,serif" font-size="20.00">firefox Ubuntu 22.04 119 selenium headless</text>
<text text-anchor="middle" x="1001.5" y="-137.43" font-family="Times,serif" font-size="20.00">firefox Ubuntu 22.04 119 selenium xvfb</text>
</g>
<!-- SG_0_Node_5 -->
<g id="node6" class="node">
<title>SG_0_Node_5</title>
<ellipse fill="none" stroke="black" cx="1248" cy="-37.21" rx="33.88" ry="21.43"/>
<text text-anchor="middle" x="1248" y="-32.21" font-family="Times,serif" font-size="20.00">0.0</text>
</g>
<!-- SG_0_Node_2&#45;&gt;SG_0_Node_5 -->
<g id="edge3" class="edge">
<title>SG_0_Node_2&#45;&gt;SG_0_Node_5</title>
<path fill="none" stroke="black" d="M1474.24,-262.67C1397.66,-257.98 1259.89,-247.3 1245,-230.43 1224.52,-207.22 1235.29,-116.75 1242.78,-68.66"/>
<polygon fill="black" stroke="black" points="1246.28,-68.95 1244.41,-58.52 1239.36,-67.84 1246.28,-68.95"/>
<text text-anchor="middle" x="1469.5" y="-159.43" font-family="Times,serif" font-size="20.00">firefox Ubuntu 22.04 119 selenium headless</text>
<text text-anchor="middle" x="1469.5" y="-137.43" font-family="Times,serif" font-size="20.00">firefox Ubuntu 22.04 119 selenium xvfb</text>
</g>
<!-- SG_0_Node_6 -->
<g id="node7" class="node">
<title>SG_0_Node_6</title>
<ellipse fill="none" stroke="black" cx="1720" cy="-37.21" rx="33.88" ry="21.43"/>
<text text-anchor="middle" x="1720" y="-32.21" font-family="Times,serif" font-size="20.00">1.0</text>
</g>
<!-- SG_0_Node_2&#45;&gt;SG_0_Node_6 -->
<g id="edge4" class="edge">
<title>SG_0_Node_2&#45;&gt;SG_0_Node_6</title>
<path fill="none" stroke="black" d="M1575.74,-261.68C1620.74,-257.24 1681.79,-248.09 1698,-230.43 1738.51,-186.28 1733.25,-110.33 1726.33,-68.33"/>
<polygon fill="black" stroke="black" points="1729.77,-67.66 1724.56,-58.43 1722.88,-68.89 1729.77,-67.66"/>
<text text-anchor="middle" x="2090.5" y="-214.43" font-family="Times,serif" font-size="20.00">[NA]</text>
<text text-anchor="middle" x="2090.5" y="-192.43" font-family="Times,serif" font-size="20.00">brave Ubuntu 22.04 1.60.114 (119.0.6045.124) selenium headless&#45;new</text>
<text text-anchor="middle" x="2090.5" y="-170.43" font-family="Times,serif" font-size="20.00">brave Ubuntu 22.04 1.60.114 (119.0.6045.124) selenium xvfb</text>
<text text-anchor="middle" x="2090.5" y="-148.43" font-family="Times,serif" font-size="20.00">chrome Ubuntu 22.04 119 selenium headless&#45;new</text>
<text text-anchor="middle" x="2090.5" y="-126.43" font-family="Times,serif" font-size="20.00">chrome Ubuntu 22.04 119 selenium xvfb</text>
<text text-anchor="middle" x="2090.5" y="-104.43" font-family="Times,serif" font-size="20.00">edge Ubuntu 22.04 119 selenium headless&#45;new</text>
<text text-anchor="middle" x="2090.5" y="-82.43" font-family="Times,serif" font-size="20.00">edge Ubuntu 22.04 119 selenium xvfb</text>
</g>
<!-- SG_1_Node_0 -->
<g id="node8" class="node">
<title>SG_1_Node_0</title>
<polygon fill="none" stroke="black" points="3502.5,-576.43 3365.5,-576.43 3365.5,-540.43 3502.5,-540.43 3502.5,-576.43"/>
<text text-anchor="middle" x="3434" y="-553.43" font-family="Times,serif" font-size="20.00">raw_header</text>
</g>
<!-- SG_1_Node_1 -->
<g id="node9" class="node">
<title>SG_1_Node_1</title>
<polygon fill="none" stroke="black" points="3273.5,-284.43 3172.5,-284.43 3172.5,-248.43 3273.5,-248.43 3273.5,-284.43"/>
<text text-anchor="middle" x="3223" y="-261.43" font-family="Times,serif" font-size="20.00">browser</text>
</g>
<!-- SG_1_Node_0&#45;&gt;SG_1_Node_1 -->
<g id="edge7" class="edge">
<title>SG_1_Node_0&#45;&gt;SG_1_Node_1</title>
<path fill="none" stroke="black" d="M3421.43,-540.15C3385.74,-491.09 3283.6,-350.72 3241.49,-292.85"/>
<polygon fill="black" stroke="black" points="3244.21,-290.64 3235.5,-284.61 3238.55,-294.75 3244.21,-290.64"/>
<text text-anchor="middle" x="3452.5" y="-418.43" font-family="Times,serif" font-size="20.00">[NA]</text>
<text text-anchor="middle" x="3452.5" y="-396.43" font-family="Times,serif" font-size="20.00">20 levels</text>
</g>
<!-- SG_1_Node_2 -->
<g id="node10" class="node">
<title>SG_1_Node_2</title>
<polygon fill="none" stroke="black" points="3745.5,-284.43 3644.5,-284.43 3644.5,-248.43 3745.5,-248.43 3745.5,-284.43"/>
<text text-anchor="middle" x="3695" y="-261.43" font-family="Times,serif" font-size="20.00">browser</text>
</g>
<!-- SG_1_Node_0&#45;&gt;SG_1_Node_2 -->
<g id="edge8" class="edge">
<title>SG_1_Node_0&#45;&gt;SG_1_Node_2</title>
<path fill="none" stroke="black" d="M3474.34,-540.42C3483.94,-535.39 3493.77,-529.35 3502,-522.43 3584.04,-453.45 3652.1,-343.48 3680.61,-293.58"/>
<polygon fill="black" stroke="black" points="3683.76,-295.14 3685.63,-284.71 3677.66,-291.69 3683.76,-295.14"/>
<text text-anchor="middle" x="4293" y="-506.43" font-family="Times,serif" font-size="20.00">[[&#39;cross&#45;origin&#45;resource&#45;policy&#39;, &#39;&#39;], [&#39;cross&#45;origin&#45;resource&#45;policy&#39;, &#39;same&#45;origin&#39;]]</text>
<text text-anchor="middle" x="4293" y="-484.43" font-family="Times,serif" font-size="20.00">[[&#39;cross&#45;origin&#45;resource&#45;policy&#39;, &#39;&#39;], [&#39;cross&#45;origin&#45;resource&#45;policy&#39;, &#39;same&#45;site&#39;]]</text>
<text text-anchor="middle" x="4293" y="-462.43" font-family="Times,serif" font-size="20.00">[[&#39;cross&#45;origin&#45;resource&#45;policy&#39;, &#39;&#39;], [&#39;location&#39;, &#39;https://sub.headers.websec.saarland/_hp/common/empty.html&#39;]]</text>
<text text-anchor="middle" x="4293" y="-440.43" font-family="Times,serif" font-size="20.00">[[&#39;cross&#45;origin&#45;resource&#45;policy&#39;, &#39;cross&#45;origin&#39;], [&#39;location&#39;, &#39;https://sub.headers.websec.saarland/_hp/common/empty.html&#39;]]</text>
<text text-anchor="middle" x="4293" y="-418.43" font-family="Times,serif" font-size="20.00">[[&#39;cross&#45;origin&#45;resource&#45;policy&#39;, &#39;same&#45;origin&#39;], [&#39;cross&#45;origin&#45;resource&#45;policy&#39;, &#39;&#39;]]</text>
<text text-anchor="middle" x="4293" y="-396.43" font-family="Times,serif" font-size="20.00">[[&#39;cross&#45;origin&#45;resource&#45;policy&#39;, &#39;same&#45;site&#39;], [&#39;cross&#45;origin&#45;resource&#45;policy&#39;, &#39;&#39;]]</text>
<text text-anchor="end" x="4913" y="-374.43" font-family="Times,serif" font-size="20.00">[[&#39;cross&#45;origin&#45;resource&#45;policy</text>
<text text-anchor="middle" x="4293" y="-352.43" font-family="Times,serif" font-size="20.00">&#39;, &#39;same&#45;origin&#39;]]</text>
<text text-anchor="end" x="4913" y="-330.43" font-family="Times,serif" font-size="20.00">[[&#39;cross&#45;origin&#45;resource&#45;policy</text>
<text text-anchor="middle" x="4293" y="-308.43" font-family="Times,serif" font-size="20.00">&#39;, &#39;same&#45;site&#39;]]</text>
</g>
<!-- SG_1_Node_3 -->
<g id="node11" class="node">
<title>SG_1_Node_3</title>
<ellipse fill="none" stroke="black" cx="2497" cy="-37.21" rx="33.88" ry="21.43"/>
<text text-anchor="middle" x="2497" y="-32.21" font-family="Times,serif" font-size="20.00">0.0</text>
</g>
<!-- SG_1_Node_1&#45;&gt;SG_1_Node_3 -->
<g id="edge11" class="edge">
<title>SG_1_Node_1&#45;&gt;SG_1_Node_3</title>
<path fill="none" stroke="black" d="M3172.33,-264.85C3011.75,-262.79 2523.35,-254.55 2500,-230.43 2458.3,-187.33 2473.66,-110.04 2486.52,-67.78"/>
<polygon fill="black" stroke="black" points="2489.91,-68.68 2489.62,-58.09 2483.24,-66.55 2489.91,-68.68"/>
<text text-anchor="middle" x="2859.5" y="-214.43" font-family="Times,serif" font-size="20.00">[NA]</text>
<text text-anchor="middle" x="2859.5" y="-192.43" font-family="Times,serif" font-size="20.00">brave Ubuntu 22.04 1.60.114 (119.0.6045.124) selenium headless&#45;new</text>
<text text-anchor="middle" x="2859.5" y="-170.43" font-family="Times,serif" font-size="20.00">brave Ubuntu 22.04 1.60.114 (119.0.6045.124) selenium xvfb</text>
<text text-anchor="middle" x="2859.5" y="-148.43" font-family="Times,serif" font-size="20.00">chrome Ubuntu 22.04 119 selenium headless&#45;new</text>
<text text-anchor="middle" x="2859.5" y="-126.43" font-family="Times,serif" font-size="20.00">chrome Ubuntu 22.04 119 selenium xvfb</text>
<text text-anchor="middle" x="2859.5" y="-104.43" font-family="Times,serif" font-size="20.00">edge Ubuntu 22.04 119 selenium headless&#45;new</text>
<text text-anchor="middle" x="2859.5" y="-82.43" font-family="Times,serif" font-size="20.00">edge Ubuntu 22.04 119 selenium xvfb</text>
</g>
<!-- SG_1_Node_4 -->
<g id="node12" class="node">
<title>SG_1_Node_4</title>
<ellipse fill="none" stroke="black" cx="3223" cy="-37.21" rx="33.88" ry="21.43"/>
<text text-anchor="middle" x="3223" y="-32.21" font-family="Times,serif" font-size="20.00">1.0</text>
</g>
<!-- SG_1_Node_1&#45;&gt;SG_1_Node_4 -->
<g id="edge12" class="edge">
<title>SG_1_Node_1&#45;&gt;SG_1_Node_4</title>
<path fill="none" stroke="black" d="M3223,-248.35C3223,-210.16 3223,-117.42 3223,-68.92"/>
<polygon fill="black" stroke="black" points="3226.5,-68.72 3223,-58.72 3219.5,-68.72 3226.5,-68.72"/>
<text text-anchor="middle" x="3447.5" y="-159.43" font-family="Times,serif" font-size="20.00">firefox Ubuntu 22.04 119 selenium headless</text>
<text text-anchor="middle" x="3447.5" y="-137.43" font-family="Times,serif" font-size="20.00">firefox Ubuntu 22.04 119 selenium xvfb</text>
</g>
<!-- SG_1_Node_5 -->
<g id="node13" class="node">
<title>SG_1_Node_5</title>
<ellipse fill="none" stroke="black" cx="3695" cy="-37.21" rx="33.88" ry="21.43"/>
<text text-anchor="middle" x="3695" y="-32.21" font-family="Times,serif" font-size="20.00">0.0</text>
</g>
<!-- SG_1_Node_2&#45;&gt;SG_1_Node_5 -->
<g id="edge9" class="edge">
<title>SG_1_Node_2&#45;&gt;SG_1_Node_5</title>
<path fill="none" stroke="black" d="M3695,-248.35C3695,-210.16 3695,-117.42 3695,-68.92"/>
<polygon fill="black" stroke="black" points="3698.5,-68.72 3695,-58.72 3691.5,-68.72 3698.5,-68.72"/>
<text text-anchor="middle" x="3919.5" y="-159.43" font-family="Times,serif" font-size="20.00">firefox Ubuntu 22.04 119 selenium headless</text>
<text text-anchor="middle" x="3919.5" y="-137.43" font-family="Times,serif" font-size="20.00">firefox Ubuntu 22.04 119 selenium xvfb</text>
</g>
<!-- SG_1_Node_6 -->
<g id="node14" class="node">
<title>SG_1_Node_6</title>
<ellipse fill="none" stroke="black" cx="4167" cy="-37.21" rx="33.88" ry="21.43"/>
<text text-anchor="middle" x="4167" y="-32.21" font-family="Times,serif" font-size="20.00">1.0</text>
</g>
<!-- SG_1_Node_2&#45;&gt;SG_1_Node_6 -->
<g id="edge10" class="edge">
<title>SG_1_Node_2&#45;&gt;SG_1_Node_6</title>
<path fill="none" stroke="black" d="M3745.71,-265.04C3857.36,-263.7 4116.76,-257.66 4145,-230.43 4188.35,-188.62 4181.77,-111.08 4173.93,-68.38"/>
<polygon fill="black" stroke="black" points="4177.32,-67.44 4171.94,-58.31 4170.45,-68.8 4177.32,-67.44"/>
<text text-anchor="middle" x="4538.5" y="-214.43" font-family="Times,serif" font-size="20.00">[NA]</text>
<text text-anchor="middle" x="4538.5" y="-192.43" font-family="Times,serif" font-size="20.00">brave Ubuntu 22.04 1.60.114 (119.0.6045.124) selenium headless&#45;new</text>
<text text-anchor="middle" x="4538.5" y="-170.43" font-family="Times,serif" font-size="20.00">brave Ubuntu 22.04 1.60.114 (119.0.6045.124) selenium xvfb</text>
<text text-anchor="middle" x="4538.5" y="-148.43" font-family="Times,serif" font-size="20.00">chrome Ubuntu 22.04 119 selenium headless&#45;new</text>
<text text-anchor="middle" x="4538.5" y="-126.43" font-family="Times,serif" font-size="20.00">chrome Ubuntu 22.04 119 selenium xvfb</text>
<text text-anchor="middle" x="4538.5" y="-104.43" font-family="Times,serif" font-size="20.00">edge Ubuntu 22.04 119 selenium headless&#45;new</text>
<text text-anchor="middle" x="4538.5" y="-82.43" font-family="Times,serif" font-size="20.00">edge Ubuntu 22.04 119 selenium xvfb</text>
</g>
</g>
</svg>
