<?xml version="1.0" encoding="UTF-8" standalone="no"?>
<!DOCTYPE svg PUBLIC "-//W3C//DTD SVG 1.1//EN"
 "http://www.w3.org/Graphics/SVG/1.1/DTD/svg11.dtd">
<!-- Generated by graphviz version 2.43.0 (0)
 -->
<!-- Title: G Pages: 1 -->
<svg width="9669pt" height="1051pt"
 viewBox="0.00 0.00 9669.00 1051.28" xmlns="http://www.w3.org/2000/svg" xmlns:xlink="http://www.w3.org/1999/xlink">
<g id="graph0" class="graph" transform="scale(1 1) rotate(0) translate(4 1047.28)">
<title>G</title>
<polygon fill="white" stroke="transparent" points="-4,4 -4,-1047.28 9665,-1047.28 9665,4 -4,4"/>
<g id="clust1" class="cluster">
<title>cluster_0</title>
<polygon fill="none" stroke="black" points="8,-130.43 8,-1035.28 2447,-1035.28 2447,-130.43 8,-130.43"/>
<text text-anchor="middle" x="1227.5" y="-999.28" font-family="Times,serif" font-size="40.00">Tree 0, Class message timeout</text>
</g>
<g id="clust6" class="cluster">
<title>cluster_1</title>
<polygon fill="none" stroke="black" points="2455,-130.43 2455,-1035.28 6059,-1035.28 6059,-130.43 2455,-130.43"/>
<text text-anchor="middle" x="4257" y="-999.28" font-family="Times,serif" font-size="40.00">Tree 0, Class {&#39;image&#45;events&#39;: {&#39;swag.jpg&#39;: &#39;error&#39;, &#39;swag&#45;same&#45;site.jpg&#39;: &#39;error&#39;, &#39;swag&#45;cross&#45;site.jpg&#39;: &#39;load&#39;, &#39;swag&#45;same&#45;origin.jpg&#39;: &#39;error&#39;}, &#39;window.crossOriginIsolated&#39;: False}</text>
</g>
<g id="clust11" class="cluster">
<title>cluster_2</title>
<polygon fill="none" stroke="black" points="6067,-8 6067,-1035.28 9653,-1035.28 9653,-8 6067,-8"/>
<text text-anchor="middle" x="7860" y="-999.28" font-family="Times,serif" font-size="40.00">Tree 0, Class {&#39;image&#45;events&#39;: {&#39;swag.jpg&#39;: &#39;load&#39;, &#39;swag&#45;same&#45;site.jpg&#39;: &#39;error&#39;, &#39;swag&#45;cross&#45;site.jpg&#39;: &#39;load&#39;, &#39;swag&#45;same&#45;origin.jpg&#39;: &#39;error&#39;}, &#39;window.crossOriginIsolated&#39;: False}</text>
</g>
<!-- SG_0_Node_0 -->
<g id="node1" class="node">
<title>SG_0_Node_0</title>
<polygon fill="none" stroke="black" points="793.5,-975.28 656.5,-975.28 656.5,-939.28 793.5,-939.28 793.5,-975.28"/>
<text text-anchor="middle" x="725" y="-952.28" font-family="Times,serif" font-size="20.00">raw_header</text>
</g>
<!-- SG_0_Node_1 -->
<g id="node2" class="node">
<title>SG_0_Node_1</title>
<polygon fill="none" stroke="black" points="294.5,-639.28 193.5,-639.28 193.5,-603.28 294.5,-603.28 294.5,-639.28"/>
<text text-anchor="middle" x="244" y="-616.28" font-family="Times,serif" font-size="20.00">browser</text>
</g>
<!-- SG_0_Node_0&#45;&gt;SG_0_Node_1 -->
<g id="edge1" class="edge">
<title>SG_0_Node_0&#45;&gt;SG_0_Node_1</title>
<path fill="none" stroke="black" d="M656.11,-956.31C530.02,-955.66 272.43,-950.68 245,-921.28 174.52,-845.72 213.04,-706.9 233.66,-648.87"/>
<polygon fill="black" stroke="black" points="237.01,-649.92 237.16,-639.32 230.43,-647.51 237.01,-649.92"/>
<text text-anchor="end" x="1520" y="-905.28" font-family="Times,serif" font-size="20.00">[[&#39;</text>
<text text-anchor="middle" x="882.5" y="-883.28" font-family="Times,serif" font-size="20.00">cross&#45;origin&#45;embedder&#45;policy&#39;, &#39;require&#45;corp&#39;]]</text>
<text text-anchor="middle" x="882.5" y="-861.28" font-family="Times,serif" font-size="20.00">[[&#39;cross&#45;origin&#45;embedder&#45;policy &#160;&#39;, &#39;require&#45;corp&#39;]]</text>
<text text-anchor="middle" x="882.5" y="-839.28" font-family="Times,serif" font-size="20.00">[[&#39;cross&#45;origin&#45;embedder&#45;policy &#39;, &#39;require&#45;corp&#39;]]</text>
<text text-anchor="middle" x="882.5" y="-817.28" font-family="Times,serif" font-size="20.00">[[&#39;cross&#45;origin&#45;embedder&#45;policy&#39;, &#39;&#39;], [&#39;cross&#45;origin&#45;embedder&#45;policy&#39;, &#39;require&#45;corp&#39;]]</text>
<text text-anchor="middle" x="882.5" y="-795.28" font-family="Times,serif" font-size="20.00">[[&#39;cross&#45;origin&#45;embedder&#45;policy&#39;, &#39;credentialless&#39;], [&#39;location&#39;, &#39;https://sub.headers.websec.saarland/_hp/common/empty.html&#39;]]</text>
<text text-anchor="middle" x="882.5" y="-773.28" font-family="Times,serif" font-size="20.00">[[&#39;cross&#45;origin&#45;embedder&#45;policy&#39;, &#39;require&#45;corp&#39;], [&#39;cross&#45;origin&#45;embedder&#45;policy&#39;, &#39;&#39;]]</text>
<text text-anchor="middle" x="882.5" y="-751.28" font-family="Times,serif" font-size="20.00">[[&#39;cross&#45;origin&#45;embedder&#45;policy&#39;, &#39;require&#45;corp&#39;], [&#39;location&#39;, &#39;https://sub.headers.websec.saarland/_hp/common/empty.html&#39;]]</text>
<text text-anchor="middle" x="882.5" y="-729.28" font-family="Times,serif" font-size="20.00">[[&#39;cross&#45;origin&#45;embedder&#45;policy&#39;, &#39;unsafe&#45;none&#39;], [&#39;location&#39;, &#39;https://sub.headers.websec.saarland/_hp/common/empty.html&#39;]]</text>
<text text-anchor="end" x="1520" y="-707.28" font-family="Times,serif" font-size="20.00">[[&#39;cross&#45;origin&#45;embedder&#45;policy</text>
<text text-anchor="middle" x="882.5" y="-685.28" font-family="Times,serif" font-size="20.00">&#39;, &#39;require&#45;corp&#39;]]</text>
<text text-anchor="middle" x="882.5" y="-663.28" font-family="Times,serif" font-size="20.00">[[&#39;cross&#45;origin&#45;embedder&#45;policyt&#39;, &#39;require&#45;corp&#39;]]</text>
</g>
<!-- SG_0_Node_2 -->
<g id="node3" class="node">
<title>SG_0_Node_2</title>
<polygon fill="none" stroke="black" points="1592.5,-639.28 1491.5,-639.28 1491.5,-603.28 1592.5,-603.28 1592.5,-639.28"/>
<text text-anchor="middle" x="1542" y="-616.28" font-family="Times,serif" font-size="20.00">browser</text>
</g>
<!-- SG_0_Node_0&#45;&gt;SG_0_Node_2 -->
<g id="edge2" class="edge">
<title>SG_0_Node_0&#45;&gt;SG_0_Node_2</title>
<path fill="none" stroke="black" d="M793.61,-955.71C981.84,-953.82 1494.14,-946.39 1520,-921.28 1594.51,-848.94 1566.24,-707.74 1550.14,-648.95"/>
<polygon fill="black" stroke="black" points="1553.49,-647.95 1547.4,-639.29 1546.76,-649.87 1553.49,-647.95"/>
<text text-anchor="middle" x="1840.5" y="-883.28" font-family="Times,serif" font-size="20.00">[NA]</text>
<text text-anchor="middle" x="1840.5" y="-861.28" font-family="Times,serif" font-size="20.00">[[&#39;x00cross&#45;origin&#45;embedder&#45;policy&#39;, &#39;credentialless&#39;]]</text>
<text text-anchor="middle" x="1840.5" y="-839.28" font-family="Times,serif" font-size="20.00">[[&#39;x00cross&#45;origin&#45;embedder&#45;policy&#39;, &#39;require&#45;corp&#39;]]</text>
<text text-anchor="middle" x="1840.5" y="-817.28" font-family="Times,serif" font-size="20.00">[[&#39;x00cross&#45;origin&#45;embedder&#45;policy&#39;, &#39;unsafe&#45;none&#39;]]</text>
<text text-anchor="middle" x="1840.5" y="-795.28" font-family="Times,serif" font-size="20.00">[[&#39;cross&#45;origin&#45;ex00mbedder&#45;policy&#39;, &#39;credentialless&#39;]]</text>
<text text-anchor="middle" x="1840.5" y="-773.28" font-family="Times,serif" font-size="20.00">[[&#39;cross&#45;origin&#45;ex00mbedder&#45;policy&#39;, &#39;require&#45;corp&#39;]]</text>
<text text-anchor="middle" x="1840.5" y="-751.28" font-family="Times,serif" font-size="20.00">[[&#39;cross&#45;origin&#45;ex00mbedder&#45;policy&#39;, &#39;unsafe&#45;none&#39;]]</text>
<text text-anchor="middle" x="1840.5" y="-729.28" font-family="Times,serif" font-size="20.00">[[&#39;cross&#45;origin&#45;embedder&#45;policyx00&#39;, &#39;credentialless&#39;]]</text>
<text text-anchor="middle" x="1840.5" y="-707.28" font-family="Times,serif" font-size="20.00">[[&#39;cross&#45;origin&#45;embedder&#45;policyx00&#39;, &#39;require&#45;corp&#39;]]</text>
<text text-anchor="middle" x="1840.5" y="-685.28" font-family="Times,serif" font-size="20.00">[[&#39;cross&#45;origin&#45;embedder&#45;policyx00&#39;, &#39;unsafe&#45;none&#39;]]</text>
</g>
<!-- SG_0_Node_4 -->
<g id="node4" class="node">
<title>SG_0_Node_4</title>
<ellipse fill="none" stroke="black" cx="50" cy="-392.07" rx="33.88" ry="21.43"/>
<text text-anchor="middle" x="50" y="-387.07" font-family="Times,serif" font-size="20.00">0.0</text>
</g>
<!-- SG_0_Node_1&#45;&gt;SG_0_Node_4 -->
<g id="edge5" class="edge">
<title>SG_0_Node_1&#45;&gt;SG_0_Node_4</title>
<path fill="none" stroke="black" d="M193.47,-619.05C138.24,-616.52 54.91,-608.8 35,-585.28 -3.84,-539.39 19.2,-463.29 36.41,-421.95"/>
<polygon fill="black" stroke="black" points="39.65,-423.27 40.4,-412.71 33.22,-420.5 39.65,-423.27"/>
<text text-anchor="middle" x="394.5" y="-569.28" font-family="Times,serif" font-size="20.00">[NA]</text>
<text text-anchor="middle" x="394.5" y="-547.28" font-family="Times,serif" font-size="20.00">brave Ubuntu 22.04 1.60.114 (119.0.6045.124) selenium headless&#45;new</text>
<text text-anchor="middle" x="394.5" y="-525.28" font-family="Times,serif" font-size="20.00">brave Ubuntu 22.04 1.60.114 (119.0.6045.124) selenium xvfb</text>
<text text-anchor="middle" x="394.5" y="-503.28" font-family="Times,serif" font-size="20.00">chrome Ubuntu 22.04 119 selenium headless&#45;new</text>
<text text-anchor="middle" x="394.5" y="-481.28" font-family="Times,serif" font-size="20.00">chrome Ubuntu 22.04 119 selenium xvfb</text>
<text text-anchor="middle" x="394.5" y="-459.28" font-family="Times,serif" font-size="20.00">edge Ubuntu 22.04 119 selenium headless&#45;new</text>
<text text-anchor="middle" x="394.5" y="-437.28" font-family="Times,serif" font-size="20.00">edge Ubuntu 22.04 119 selenium xvfb</text>
</g>
<!-- SG_0_Node_3 -->
<g id="node5" class="node">
<title>SG_0_Node_3</title>
<polygon fill="none" stroke="black" points="844.5,-410.07 707.5,-410.07 707.5,-374.07 844.5,-374.07 844.5,-410.07"/>
<text text-anchor="middle" x="776" y="-387.07" font-family="Times,serif" font-size="20.00">status_code</text>
</g>
<!-- SG_0_Node_1&#45;&gt;SG_0_Node_3 -->
<g id="edge6" class="edge">
<title>SG_0_Node_1&#45;&gt;SG_0_Node_3</title>
<path fill="none" stroke="black" d="M294.53,-620.4C416.85,-620.21 721.28,-616.55 754,-585.28 777.09,-563.21 778.02,-467.85 776.96,-420.27"/>
<polygon fill="black" stroke="black" points="780.46,-419.98 776.69,-410.08 773.46,-420.17 780.46,-419.98"/>
<text text-anchor="middle" x="1001.5" y="-514.28" font-family="Times,serif" font-size="20.00">firefox Ubuntu 22.04 119 selenium headless</text>
<text text-anchor="middle" x="1001.5" y="-492.28" font-family="Times,serif" font-size="20.00">firefox Ubuntu 22.04 119 selenium xvfb</text>
</g>
<!-- SG_0_Node_5 -->
<g id="node6" class="node">
<title>SG_0_Node_5</title>
<ellipse fill="none" stroke="black" cx="1248" cy="-392.07" rx="33.88" ry="21.43"/>
<text text-anchor="middle" x="1248" y="-387.07" font-family="Times,serif" font-size="20.00">0.0</text>
</g>
<!-- SG_0_Node_2&#45;&gt;SG_0_Node_5 -->
<g id="edge3" class="edge">
<title>SG_0_Node_2&#45;&gt;SG_0_Node_5</title>
<path fill="none" stroke="black" d="M1491.45,-617.92C1410.96,-613.65 1261.06,-603.35 1245,-585.28 1224.44,-562.15 1235.24,-471.64 1242.76,-423.53"/>
<polygon fill="black" stroke="black" points="1246.26,-423.82 1244.39,-413.39 1239.35,-422.7 1246.26,-423.82"/>
<text text-anchor="middle" x="1469.5" y="-514.28" font-family="Times,serif" font-size="20.00">firefox Ubuntu 22.04 119 selenium headless</text>
<text text-anchor="middle" x="1469.5" y="-492.28" font-family="Times,serif" font-size="20.00">firefox Ubuntu 22.04 119 selenium xvfb</text>
</g>
<!-- SG_0_Node_6 -->
<g id="node7" class="node">
<title>SG_0_Node_6</title>
<ellipse fill="none" stroke="black" cx="1720" cy="-392.07" rx="33.88" ry="21.43"/>
<text text-anchor="middle" x="1720" y="-387.07" font-family="Times,serif" font-size="20.00">1.0</text>
</g>
<!-- SG_0_Node_2&#45;&gt;SG_0_Node_6 -->
<g id="edge4" class="edge">
<title>SG_0_Node_2&#45;&gt;SG_0_Node_6</title>
<path fill="none" stroke="black" d="M1592.53,-615.26C1632.58,-610.18 1684.04,-600.82 1698,-585.28 1738.05,-540.71 1732.97,-464.93 1726.2,-423.07"/>
<polygon fill="black" stroke="black" points="1729.65,-422.44 1724.47,-413.2 1722.75,-423.65 1729.65,-422.44"/>
<text text-anchor="middle" x="2089.5" y="-569.28" font-family="Times,serif" font-size="20.00">[NA]</text>
<text text-anchor="middle" x="2089.5" y="-547.28" font-family="Times,serif" font-size="20.00">brave Ubuntu 22.04 1.60.114 (119.0.6045.124) selenium headless&#45;new</text>
<text text-anchor="middle" x="2089.5" y="-525.28" font-family="Times,serif" font-size="20.00">brave Ubuntu 22.04 1.60.114 (119.0.6045.124) selenium xvfb</text>
<text text-anchor="middle" x="2089.5" y="-503.28" font-family="Times,serif" font-size="20.00">chrome Ubuntu 22.04 119 selenium headless&#45;new</text>
<text text-anchor="middle" x="2089.5" y="-481.28" font-family="Times,serif" font-size="20.00">chrome Ubuntu 22.04 119 selenium xvfb</text>
<text text-anchor="middle" x="2089.5" y="-459.28" font-family="Times,serif" font-size="20.00">edge Ubuntu 22.04 119 selenium headless&#45;new</text>
<text text-anchor="middle" x="2089.5" y="-437.28" font-family="Times,serif" font-size="20.00">edge Ubuntu 22.04 119 selenium xvfb</text>
</g>
<!-- SG_0_Node_7 -->
<g id="node8" class="node">
<title>SG_0_Node_7</title>
<ellipse fill="none" stroke="black" cx="735" cy="-159.64" rx="33.88" ry="21.43"/>
<text text-anchor="middle" x="735" y="-154.64" font-family="Times,serif" font-size="20.00">0.0</text>
</g>
<!-- SG_0_Node_3&#45;&gt;SG_0_Node_7 -->
<g id="edge7" class="edge">
<title>SG_0_Node_3&#45;&gt;SG_0_Node_7</title>
<path fill="none" stroke="black" d="M757.66,-374.01C752.27,-367.9 747.02,-360.59 744,-352.85 722.97,-298.94 726.28,-229.99 730.62,-191.03"/>
<polygon fill="black" stroke="black" points="734.12,-191.22 731.85,-180.87 727.17,-190.38 734.12,-191.22"/>
<text text-anchor="middle" x="767.5" y="-281.85" font-family="Times,serif" font-size="20.00">[NA]</text>
<text text-anchor="middle" x="767.5" y="-259.85" font-family="Times,serif" font-size="20.00">200</text>
</g>
<!-- SG_0_Node_8 -->
<g id="node9" class="node">
<title>SG_0_Node_8</title>
<ellipse fill="none" stroke="black" cx="821" cy="-159.64" rx="33.88" ry="21.43"/>
<text text-anchor="middle" x="821" y="-154.64" font-family="Times,serif" font-size="20.00">1.0</text>
</g>
<!-- SG_0_Node_3&#45;&gt;SG_0_Node_8 -->
<g id="edge8" class="edge">
<title>SG_0_Node_3&#45;&gt;SG_0_Node_8</title>
<path fill="none" stroke="black" d="M783.69,-373.84C786.33,-367.36 789.1,-359.87 791,-352.85 806.21,-296.68 814.54,-229.05 818.35,-190.83"/>
<polygon fill="black" stroke="black" points="821.84,-191.15 819.31,-180.87 814.87,-190.48 821.84,-191.15"/>
<text text-anchor="middle" x="836.5" y="-270.85" font-family="Times,serif" font-size="20.00">300</text>
</g>
<!-- SG_1_Node_0 -->
<g id="node10" class="node">
<title>SG_1_Node_0</title>
<polygon fill="none" stroke="black" points="3428.5,-975.28 3291.5,-975.28 3291.5,-939.28 3428.5,-939.28 3428.5,-975.28"/>
<text text-anchor="middle" x="3360" y="-952.28" font-family="Times,serif" font-size="20.00">raw_header</text>
</g>
<!-- SG_1_Node_1 -->
<g id="node11" class="node">
<title>SG_1_Node_1</title>
<polygon fill="none" stroke="black" points="2993.5,-639.28 2856.5,-639.28 2856.5,-603.28 2993.5,-603.28 2993.5,-639.28"/>
<text text-anchor="middle" x="2925" y="-616.28" font-family="Times,serif" font-size="20.00">raw_header</text>
</g>
<!-- SG_1_Node_0&#45;&gt;SG_1_Node_1 -->
<g id="edge9" class="edge">
<title>SG_1_Node_0&#45;&gt;SG_1_Node_1</title>
<path fill="none" stroke="black" d="M3337.83,-939.26C3265.77,-883.93 3038.06,-709.09 2955.38,-645.6"/>
<polygon fill="black" stroke="black" points="2957.45,-642.78 2947.39,-639.47 2953.19,-648.33 2957.45,-642.78"/>
<text text-anchor="middle" x="3351.5" y="-795.28" font-family="Times,serif" font-size="20.00">[NA]</text>
<text text-anchor="middle" x="3351.5" y="-773.28" font-family="Times,serif" font-size="20.00">14 levels</text>
</g>
<!-- SG_1_Node_2 -->
<g id="node12" class="node">
<title>SG_1_Node_2</title>
<polygon fill="none" stroke="black" points="3847.5,-639.28 3746.5,-639.28 3746.5,-603.28 3847.5,-603.28 3847.5,-639.28"/>
<text text-anchor="middle" x="3797" y="-616.28" font-family="Times,serif" font-size="20.00">browser</text>
</g>
<!-- SG_1_Node_0&#45;&gt;SG_1_Node_2 -->
<g id="edge10" class="edge">
<title>SG_1_Node_0&#45;&gt;SG_1_Node_2</title>
<path fill="none" stroke="black" d="M3382.27,-939.26C3454.66,-883.93 3683.42,-709.09 3766.48,-645.6"/>
<polygon fill="black" stroke="black" points="3768.69,-648.32 3774.51,-639.47 3764.44,-642.76 3768.69,-648.32"/>
<text text-anchor="end" x="5001" y="-839.28" font-family="Times,serif" font-size="20.00">[[&#39;</text>
<text text-anchor="middle" x="4371.5" y="-817.28" font-family="Times,serif" font-size="20.00">cross&#45;origin&#45;embedder&#45;policy&#39;, &#39;require&#45;corp&#39;]]</text>
<text text-anchor="middle" x="4371.5" y="-795.28" font-family="Times,serif" font-size="20.00">[[&#39;cross&#45;origin&#45;embedder&#45;policy &#160;&#39;, &#39;require&#45;corp&#39;]]</text>
<text text-anchor="middle" x="4371.5" y="-773.28" font-family="Times,serif" font-size="20.00">[[&#39;cross&#45;origin&#45;embedder&#45;policy &#39;, &#39;require&#45;corp&#39;]]</text>
<text text-anchor="middle" x="4371.5" y="-751.28" font-family="Times,serif" font-size="20.00">[[&#39;cross&#45;origin&#45;embedder&#45;policy&#39;, &#39;require&#45;corp&#39;], [&#39;location&#39;, &#39;https://sub.headers.websec.saarland/_hp/common/empty.html&#39;]]</text>
<text text-anchor="middle" x="4371.5" y="-729.28" font-family="Times,serif" font-size="20.00">[[&#39;cross&#45;origin&#45;embedder&#45;policyt&#39;, &#39;require&#45;corp&#39;]]</text>
</g>
<!-- SG_1_Node_5 -->
<g id="node13" class="node">
<title>SG_1_Node_5</title>
<ellipse fill="none" stroke="black" cx="2811" cy="-392.07" rx="33.88" ry="21.43"/>
<text text-anchor="middle" x="2811" y="-387.07" font-family="Times,serif" font-size="20.00">0.0</text>
</g>
<!-- SG_1_Node_1&#45;&gt;SG_1_Node_5 -->
<g id="edge15" class="edge">
<title>SG_1_Node_1&#45;&gt;SG_1_Node_5</title>
<path fill="none" stroke="black" d="M2856.45,-605.77C2846.26,-600.82 2836.88,-594.18 2830,-585.28 2793.68,-538.3 2798.52,-464.34 2804.95,-423.21"/>
<polygon fill="black" stroke="black" points="2808.42,-423.7 2806.64,-413.25 2801.51,-422.53 2808.42,-423.7"/>
<text text-anchor="middle" x="2875.5" y="-514.28" font-family="Times,serif" font-size="20.00">[NA]</text>
<text text-anchor="middle" x="2875.5" y="-492.28" font-family="Times,serif" font-size="20.00">11 levels</text>
</g>
<!-- SG_1_Node_3 -->
<g id="node14" class="node">
<title>SG_1_Node_3</title>
<polygon fill="none" stroke="black" points="2975.5,-410.07 2874.5,-410.07 2874.5,-374.07 2975.5,-374.07 2975.5,-410.07"/>
<text text-anchor="middle" x="2925" y="-387.07" font-family="Times,serif" font-size="20.00">browser</text>
</g>
<!-- SG_1_Node_1&#45;&gt;SG_1_Node_3 -->
<g id="edge16" class="edge">
<title>SG_1_Node_1&#45;&gt;SG_1_Node_3</title>
<path fill="none" stroke="black" d="M2925,-603.2C2925,-564.14 2925,-467.98 2925,-420.5"/>
<polygon fill="black" stroke="black" points="2928.5,-420.34 2925,-410.34 2921.5,-420.34 2928.5,-420.34"/>
<text text-anchor="middle" x="3349.5" y="-536.28" font-family="Times,serif" font-size="20.00">[[&#39;cross&#45;origin&#45;embedder&#45;policy&#39;, &#39;&#39;], [&#39;cross&#45;origin&#45;embedder&#45;policy&#39;, &#39;require&#45;corp&#39;]]</text>
<text text-anchor="middle" x="3349.5" y="-514.28" font-family="Times,serif" font-size="20.00">[[&#39;cross&#45;origin&#45;embedder&#45;policy&#39;, &#39;require&#45;corp&#39;], [&#39;cross&#45;origin&#45;embedder&#45;policy&#39;, &#39;&#39;]]</text>
<text text-anchor="end" x="3774" y="-492.28" font-family="Times,serif" font-size="20.00">[[&#39;cross&#45;origin&#45;embedder&#45;policy</text>
<text text-anchor="middle" x="3349.5" y="-470.28" font-family="Times,serif" font-size="20.00">&#39;, &#39;require&#45;corp&#39;]]</text>
</g>
<!-- SG_1_Node_6 -->
<g id="node15" class="node">
<title>SG_1_Node_6</title>
<ellipse fill="none" stroke="black" cx="3797" cy="-392.07" rx="33.88" ry="21.43"/>
<text text-anchor="middle" x="3797" y="-387.07" font-family="Times,serif" font-size="20.00">0.0</text>
</g>
<!-- SG_1_Node_2&#45;&gt;SG_1_Node_6 -->
<g id="edge11" class="edge">
<title>SG_1_Node_2&#45;&gt;SG_1_Node_6</title>
<path fill="none" stroke="black" d="M3797,-603.2C3797,-565.01 3797,-472.27 3797,-423.77"/>
<polygon fill="black" stroke="black" points="3800.5,-423.57 3797,-413.57 3793.5,-423.57 3800.5,-423.57"/>
<text text-anchor="middle" x="4021.5" y="-514.28" font-family="Times,serif" font-size="20.00">firefox Ubuntu 22.04 119 selenium headless</text>
<text text-anchor="middle" x="4021.5" y="-492.28" font-family="Times,serif" font-size="20.00">firefox Ubuntu 22.04 119 selenium xvfb</text>
</g>
<!-- SG_1_Node_4 -->
<g id="node16" class="node">
<title>SG_1_Node_4</title>
<polygon fill="none" stroke="black" points="4330,-410.07 4208,-410.07 4208,-374.07 4330,-374.07 4330,-410.07"/>
<text text-anchor="middle" x="4269" y="-387.07" font-family="Times,serif" font-size="20.00">org_origin</text>
</g>
<!-- SG_1_Node_2&#45;&gt;SG_1_Node_4 -->
<g id="edge12" class="edge">
<title>SG_1_Node_2&#45;&gt;SG_1_Node_4</title>
<path fill="none" stroke="black" d="M3847.71,-619.9C3959.36,-618.56 4218.76,-612.51 4247,-585.28 4291.37,-542.49 4283.43,-462.27 4275.38,-420.27"/>
<polygon fill="black" stroke="black" points="4278.75,-419.31 4273.31,-410.22 4271.9,-420.73 4278.75,-419.31"/>
<text text-anchor="middle" x="4640.5" y="-569.28" font-family="Times,serif" font-size="20.00">[NA]</text>
<text text-anchor="middle" x="4640.5" y="-547.28" font-family="Times,serif" font-size="20.00">brave Ubuntu 22.04 1.60.114 (119.0.6045.124) selenium headless&#45;new</text>
<text text-anchor="middle" x="4640.5" y="-525.28" font-family="Times,serif" font-size="20.00">brave Ubuntu 22.04 1.60.114 (119.0.6045.124) selenium xvfb</text>
<text text-anchor="middle" x="4640.5" y="-503.28" font-family="Times,serif" font-size="20.00">chrome Ubuntu 22.04 119 selenium headless&#45;new</text>
<text text-anchor="middle" x="4640.5" y="-481.28" font-family="Times,serif" font-size="20.00">chrome Ubuntu 22.04 119 selenium xvfb</text>
<text text-anchor="middle" x="4640.5" y="-459.28" font-family="Times,serif" font-size="20.00">edge Ubuntu 22.04 119 selenium headless&#45;new</text>
<text text-anchor="middle" x="4640.5" y="-437.28" font-family="Times,serif" font-size="20.00">edge Ubuntu 22.04 119 selenium xvfb</text>
</g>
<!-- SG_1_Node_7 -->
<g id="node17" class="node">
<title>SG_1_Node_7</title>
<ellipse fill="none" stroke="black" cx="2711" cy="-159.64" rx="33.88" ry="21.43"/>
<text text-anchor="middle" x="2711" y="-154.64" font-family="Times,serif" font-size="20.00">0.0</text>
</g>
<!-- SG_1_Node_3&#45;&gt;SG_1_Node_7 -->
<g id="edge17" class="edge">
<title>SG_1_Node_3&#45;&gt;SG_1_Node_7</title>
<path fill="none" stroke="black" d="M2874.42,-375.66C2867.6,-373.88 2860.65,-372.21 2854,-370.85 2822.84,-364.48 2733.09,-376.66 2712,-352.85 2672.34,-308.08 2687.72,-231.79 2700.51,-190.06"/>
<polygon fill="black" stroke="black" points="2703.87,-191.07 2703.59,-180.47 2697.2,-188.92 2703.87,-191.07"/>
<text text-anchor="middle" x="3071.5" y="-336.85" font-family="Times,serif" font-size="20.00">[NA]</text>
<text text-anchor="middle" x="3071.5" y="-314.85" font-family="Times,serif" font-size="20.00">brave Ubuntu 22.04 1.60.114 (119.0.6045.124) selenium headless&#45;new</text>
<text text-anchor="middle" x="3071.5" y="-292.85" font-family="Times,serif" font-size="20.00">brave Ubuntu 22.04 1.60.114 (119.0.6045.124) selenium xvfb</text>
<text text-anchor="middle" x="3071.5" y="-270.85" font-family="Times,serif" font-size="20.00">chrome Ubuntu 22.04 119 selenium headless&#45;new</text>
<text text-anchor="middle" x="3071.5" y="-248.85" font-family="Times,serif" font-size="20.00">chrome Ubuntu 22.04 119 selenium xvfb</text>
<text text-anchor="middle" x="3071.5" y="-226.85" font-family="Times,serif" font-size="20.00">edge Ubuntu 22.04 119 selenium headless&#45;new</text>
<text text-anchor="middle" x="3071.5" y="-204.85" font-family="Times,serif" font-size="20.00">edge Ubuntu 22.04 119 selenium xvfb</text>
</g>
<!-- SG_1_Node_8 -->
<g id="node18" class="node">
<title>SG_1_Node_8</title>
<ellipse fill="none" stroke="black" cx="3453" cy="-159.64" rx="33.88" ry="21.43"/>
<text text-anchor="middle" x="3453" y="-154.64" font-family="Times,serif" font-size="20.00">1.0</text>
</g>
<!-- SG_1_Node_3&#45;&gt;SG_1_Node_8 -->
<g id="edge18" class="edge">
<title>SG_1_Node_3&#45;&gt;SG_1_Node_8</title>
<path fill="none" stroke="black" d="M2975.59,-390.83C3097.27,-389.76 3398.66,-383.97 3431,-352.85 3474.4,-311.1 3467.8,-233.54 3459.95,-190.82"/>
<polygon fill="black" stroke="black" points="3463.33,-189.88 3457.95,-180.75 3456.46,-191.24 3463.33,-189.88"/>
<text text-anchor="middle" x="3689.5" y="-281.85" font-family="Times,serif" font-size="20.00">firefox Ubuntu 22.04 119 selenium headless</text>
<text text-anchor="middle" x="3689.5" y="-259.85" font-family="Times,serif" font-size="20.00">firefox Ubuntu 22.04 119 selenium xvfb</text>
</g>
<!-- SG_1_Node_9 -->
<g id="node19" class="node">
<title>SG_1_Node_9</title>
<ellipse fill="none" stroke="black" cx="4097" cy="-159.64" rx="33.88" ry="21.43"/>
<text text-anchor="middle" x="4097" y="-154.64" font-family="Times,serif" font-size="20.00">0.0</text>
</g>
<!-- SG_1_Node_4&#45;&gt;SG_1_Node_9 -->
<g id="edge13" class="edge">
<title>SG_1_Node_4&#45;&gt;SG_1_Node_9</title>
<path fill="none" stroke="black" d="M4207.79,-385.37C4164.49,-379.94 4111.79,-369.97 4098,-352.85 4060.66,-306.49 4074.87,-231.41 4086.92,-190.15"/>
<polygon fill="black" stroke="black" points="4090.32,-191.01 4089.91,-180.42 4083.63,-188.96 4090.32,-191.01"/>
<text text-anchor="middle" x="4279.5" y="-270.85" font-family="Times,serif" font-size="20.00">http://sub.headers.websec.saarland</text>
</g>
<!-- SG_1_Node_10 -->
<g id="node20" class="node">
<title>SG_1_Node_10</title>
<ellipse fill="none" stroke="black" cx="4483" cy="-159.64" rx="33.88" ry="21.43"/>
<text text-anchor="middle" x="4483" y="-154.64" font-family="Times,serif" font-size="20.00">1.0</text>
</g>
<!-- SG_1_Node_4&#45;&gt;SG_1_Node_10 -->
<g id="edge14" class="edge">
<title>SG_1_Node_4&#45;&gt;SG_1_Node_10</title>
<path fill="none" stroke="black" d="M4330.14,-386.63C4379.52,-381.7 4443.56,-371.79 4461,-352.85 4501.58,-308.77 4496.29,-232.8 4489.35,-190.78"/>
<polygon fill="black" stroke="black" points="4492.78,-190.09 4487.58,-180.87 4485.89,-191.33 4492.78,-190.09"/>
<text text-anchor="middle" x="4680.5" y="-281.85" font-family="Times,serif" font-size="20.00">[NA]</text>
<text text-anchor="middle" x="4680.5" y="-259.85" font-family="Times,serif" font-size="20.00">https://sub.headers.websec.saarland</text>
</g>
<!-- SG_2_Node_0 -->
<g id="node21" class="node">
<title>SG_2_Node_0</title>
<polygon fill="none" stroke="black" points="7313.5,-975.28 7176.5,-975.28 7176.5,-939.28 7313.5,-939.28 7313.5,-975.28"/>
<text text-anchor="middle" x="7245" y="-952.28" font-family="Times,serif" font-size="20.00">raw_header</text>
</g>
<!-- SG_2_Node_1 -->
<g id="node22" class="node">
<title>SG_2_Node_1</title>
<polygon fill="none" stroke="black" points="7060.5,-639.28 6959.5,-639.28 6959.5,-603.28 7060.5,-603.28 7060.5,-639.28"/>
<text text-anchor="middle" x="7010" y="-616.28" font-family="Times,serif" font-size="20.00">browser</text>
</g>
<!-- SG_2_Node_0&#45;&gt;SG_2_Node_1 -->
<g id="edge19" class="edge">
<title>SG_2_Node_0&#45;&gt;SG_2_Node_1</title>
<path fill="none" stroke="black" d="M7233.02,-939.26C7194.61,-884.66 7074.33,-713.71 7028.23,-648.19"/>
<polygon fill="black" stroke="black" points="7030.85,-645.83 7022.23,-639.67 7025.13,-649.86 7030.85,-645.83"/>
<text text-anchor="middle" x="7260.5" y="-795.28" font-family="Times,serif" font-size="20.00">[NA]</text>
<text text-anchor="middle" x="7260.5" y="-773.28" font-family="Times,serif" font-size="20.00">14 levels</text>
</g>
<!-- SG_2_Node_2 -->
<g id="node23" class="node">
<title>SG_2_Node_2</title>
<polygon fill="none" stroke="black" points="7532.5,-639.28 7431.5,-639.28 7431.5,-603.28 7532.5,-603.28 7532.5,-639.28"/>
<text text-anchor="middle" x="7482" y="-616.28" font-family="Times,serif" font-size="20.00">browser</text>
</g>
<!-- SG_2_Node_0&#45;&gt;SG_2_Node_2 -->
<g id="edge20" class="edge">
<title>SG_2_Node_0&#45;&gt;SG_2_Node_2</title>
<path fill="none" stroke="black" d="M7285.18,-939.15C7294,-934.22 7302.83,-928.25 7310,-921.28 7394.88,-838.75 7451.24,-705.37 7472.51,-648.9"/>
<polygon fill="black" stroke="black" points="7475.88,-649.87 7476.07,-639.28 7469.31,-647.44 7475.88,-649.87"/>
<text text-anchor="middle" x="8104.5" y="-839.28" font-family="Times,serif" font-size="20.00">[[&#39;cross&#45;origin&#45;embedder&#45;policy&#39;, &#39;&#39;], [&#39;cross&#45;origin&#45;embedder&#45;policy&#39;, &#39;require&#45;corp&#39;]]</text>
<text text-anchor="middle" x="8104.5" y="-817.28" font-family="Times,serif" font-size="20.00">[[&#39;cross&#45;origin&#45;embedder&#45;policy&#39;, &#39;credentialless&#39;], [&#39;location&#39;, &#39;https://sub.headers.websec.saarland/_hp/common/empty.html&#39;]]</text>
<text text-anchor="middle" x="8104.5" y="-795.28" font-family="Times,serif" font-size="20.00">[[&#39;cross&#45;origin&#45;embedder&#45;policy&#39;, &#39;require&#45;corp&#39;], [&#39;cross&#45;origin&#45;embedder&#45;policy&#39;, &#39;&#39;]]</text>
<text text-anchor="middle" x="8104.5" y="-773.28" font-family="Times,serif" font-size="20.00">[[&#39;cross&#45;origin&#45;embedder&#45;policy&#39;, &#39;unsafe&#45;none&#39;], [&#39;location&#39;, &#39;https://sub.headers.websec.saarland/_hp/common/empty.html&#39;]]</text>
<text text-anchor="end" x="8742" y="-751.28" font-family="Times,serif" font-size="20.00">[[&#39;cross&#45;origin&#45;embedder&#45;policy</text>
<text text-anchor="middle" x="8104.5" y="-729.28" font-family="Times,serif" font-size="20.00">&#39;, &#39;require&#45;corp&#39;]]</text>
</g>
<!-- SG_2_Node_3 -->
<g id="node24" class="node">
<title>SG_2_Node_3</title>
<polygon fill="none" stroke="black" points="6336.5,-410.07 6199.5,-410.07 6199.5,-374.07 6336.5,-374.07 6336.5,-410.07"/>
<text text-anchor="middle" x="6268" y="-387.07" font-family="Times,serif" font-size="20.00">status_code</text>
</g>
<!-- SG_2_Node_1&#45;&gt;SG_2_Node_3 -->
<g id="edge23" class="edge">
<title>SG_2_Node_1&#45;&gt;SG_2_Node_3</title>
<path fill="none" stroke="black" d="M6959.41,-619.62C6799.08,-617.32 6311.33,-608.42 6287,-585.28 6242.31,-542.78 6252.03,-462.14 6261.04,-420.1"/>
<polygon fill="black" stroke="black" points="6264.47,-420.81 6263.28,-410.28 6257.64,-419.25 6264.47,-420.81"/>
<text text-anchor="middle" x="6646.5" y="-569.28" font-family="Times,serif" font-size="20.00">[NA]</text>
<text text-anchor="middle" x="6646.5" y="-547.28" font-family="Times,serif" font-size="20.00">brave Ubuntu 22.04 1.60.114 (119.0.6045.124) selenium headless&#45;new</text>
<text text-anchor="middle" x="6646.5" y="-525.28" font-family="Times,serif" font-size="20.00">brave Ubuntu 22.04 1.60.114 (119.0.6045.124) selenium xvfb</text>
<text text-anchor="middle" x="6646.5" y="-503.28" font-family="Times,serif" font-size="20.00">chrome Ubuntu 22.04 119 selenium headless&#45;new</text>
<text text-anchor="middle" x="6646.5" y="-481.28" font-family="Times,serif" font-size="20.00">chrome Ubuntu 22.04 119 selenium xvfb</text>
<text text-anchor="middle" x="6646.5" y="-459.28" font-family="Times,serif" font-size="20.00">edge Ubuntu 22.04 119 selenium headless&#45;new</text>
<text text-anchor="middle" x="6646.5" y="-437.28" font-family="Times,serif" font-size="20.00">edge Ubuntu 22.04 119 selenium xvfb</text>
</g>
<!-- SG_2_Node_4 -->
<g id="node25" class="node">
<title>SG_2_Node_4</title>
<polygon fill="none" stroke="black" points="7078.5,-410.07 6941.5,-410.07 6941.5,-374.07 7078.5,-374.07 7078.5,-410.07"/>
<text text-anchor="middle" x="7010" y="-387.07" font-family="Times,serif" font-size="20.00">status_code</text>
</g>
<!-- SG_2_Node_1&#45;&gt;SG_2_Node_4 -->
<g id="edge24" class="edge">
<title>SG_2_Node_1&#45;&gt;SG_2_Node_4</title>
<path fill="none" stroke="black" d="M7010,-603.2C7010,-564.14 7010,-467.98 7010,-420.5"/>
<polygon fill="black" stroke="black" points="7013.5,-420.34 7010,-410.34 7006.5,-420.34 7013.5,-420.34"/>
<text text-anchor="middle" x="7234.5" y="-514.28" font-family="Times,serif" font-size="20.00">firefox Ubuntu 22.04 119 selenium headless</text>
<text text-anchor="middle" x="7234.5" y="-492.28" font-family="Times,serif" font-size="20.00">firefox Ubuntu 22.04 119 selenium xvfb</text>
</g>
<!-- SG_2_Node_6 -->
<g id="node26" class="node">
<title>SG_2_Node_6</title>
<ellipse fill="none" stroke="black" cx="7482" cy="-392.07" rx="33.88" ry="21.43"/>
<text text-anchor="middle" x="7482" y="-387.07" font-family="Times,serif" font-size="20.00">0.0</text>
</g>
<!-- SG_2_Node_2&#45;&gt;SG_2_Node_6 -->
<g id="edge21" class="edge">
<title>SG_2_Node_2&#45;&gt;SG_2_Node_6</title>
<path fill="none" stroke="black" d="M7482,-603.2C7482,-565.01 7482,-472.27 7482,-423.77"/>
<polygon fill="black" stroke="black" points="7485.5,-423.57 7482,-413.57 7478.5,-423.57 7485.5,-423.57"/>
<text text-anchor="middle" x="7706.5" y="-514.28" font-family="Times,serif" font-size="20.00">firefox Ubuntu 22.04 119 selenium headless</text>
<text text-anchor="middle" x="7706.5" y="-492.28" font-family="Times,serif" font-size="20.00">firefox Ubuntu 22.04 119 selenium xvfb</text>
</g>
<!-- SG_2_Node_7 -->
<g id="node27" class="node">
<title>SG_2_Node_7</title>
<ellipse fill="none" stroke="black" cx="7954" cy="-392.07" rx="33.88" ry="21.43"/>
<text text-anchor="middle" x="7954" y="-387.07" font-family="Times,serif" font-size="20.00">1.0</text>
</g>
<!-- SG_2_Node_2&#45;&gt;SG_2_Node_7 -->
<g id="edge22" class="edge">
<title>SG_2_Node_2&#45;&gt;SG_2_Node_7</title>
<path fill="none" stroke="black" d="M7532.71,-619.9C7644.36,-618.56 7903.76,-612.51 7932,-585.28 7975.35,-543.47 7968.77,-465.94 7960.93,-423.23"/>
<polygon fill="black" stroke="black" points="7964.32,-422.3 7958.94,-413.16 7957.45,-423.65 7964.32,-422.3"/>
<text text-anchor="middle" x="8325.5" y="-569.28" font-family="Times,serif" font-size="20.00">[NA]</text>
<text text-anchor="middle" x="8325.5" y="-547.28" font-family="Times,serif" font-size="20.00">brave Ubuntu 22.04 1.60.114 (119.0.6045.124) selenium headless&#45;new</text>
<text text-anchor="middle" x="8325.5" y="-525.28" font-family="Times,serif" font-size="20.00">brave Ubuntu 22.04 1.60.114 (119.0.6045.124) selenium xvfb</text>
<text text-anchor="middle" x="8325.5" y="-503.28" font-family="Times,serif" font-size="20.00">chrome Ubuntu 22.04 119 selenium headless&#45;new</text>
<text text-anchor="middle" x="8325.5" y="-481.28" font-family="Times,serif" font-size="20.00">chrome Ubuntu 22.04 119 selenium xvfb</text>
<text text-anchor="middle" x="8325.5" y="-459.28" font-family="Times,serif" font-size="20.00">edge Ubuntu 22.04 119 selenium headless&#45;new</text>
<text text-anchor="middle" x="8325.5" y="-437.28" font-family="Times,serif" font-size="20.00">edge Ubuntu 22.04 119 selenium xvfb</text>
</g>
<!-- SG_2_Node_8 -->
<g id="node28" class="node">
<title>SG_2_Node_8</title>
<ellipse fill="none" stroke="black" cx="6211" cy="-159.64" rx="33.88" ry="21.43"/>
<text text-anchor="middle" x="6211" y="-154.64" font-family="Times,serif" font-size="20.00">0.0</text>
</g>
<!-- SG_2_Node_3&#45;&gt;SG_2_Node_8 -->
<g id="edge27" class="edge">
<title>SG_2_Node_3&#45;&gt;SG_2_Node_8</title>
<path fill="none" stroke="black" d="M6242.84,-373.75C6236.25,-367.91 6229.9,-360.82 6226,-352.85 6200.39,-300.53 6202.67,-230.51 6206.75,-191.04"/>
<polygon fill="black" stroke="black" points="6210.24,-191.32 6207.9,-180.99 6203.29,-190.53 6210.24,-191.32"/>
<text text-anchor="middle" x="6249.5" y="-281.85" font-family="Times,serif" font-size="20.00">[NA]</text>
<text text-anchor="middle" x="6249.5" y="-259.85" font-family="Times,serif" font-size="20.00">200</text>
</g>
<!-- SG_2_Node_5 -->
<g id="node29" class="node">
<title>SG_2_Node_5</title>
<polygon fill="none" stroke="black" points="6385,-177.64 6263,-177.64 6263,-141.64 6385,-141.64 6385,-177.64"/>
<text text-anchor="middle" x="6324" y="-154.64" font-family="Times,serif" font-size="20.00">org_origin</text>
</g>
<!-- SG_2_Node_3&#45;&gt;SG_2_Node_5 -->
<g id="edge28" class="edge">
<title>SG_2_Node_3&#45;&gt;SG_2_Node_5</title>
<path fill="none" stroke="black" d="M6272.21,-373.75C6281.88,-333.95 6305.75,-235.73 6317.4,-187.81"/>
<polygon fill="black" stroke="black" points="6320.86,-188.39 6319.82,-177.85 6314.06,-186.74 6320.86,-188.39"/>
<text text-anchor="middle" x="6333.5" y="-270.85" font-family="Times,serif" font-size="20.00">300</text>
</g>
<!-- SG_2_Node_9 -->
<g id="node30" class="node">
<title>SG_2_Node_9</title>
<ellipse fill="none" stroke="black" cx="6970" cy="-159.64" rx="33.88" ry="21.43"/>
<text text-anchor="middle" x="6970" y="-154.64" font-family="Times,serif" font-size="20.00">0.0</text>
</g>
<!-- SG_2_Node_4&#45;&gt;SG_2_Node_9 -->
<g id="edge25" class="edge">
<title>SG_2_Node_4&#45;&gt;SG_2_Node_9</title>
<path fill="none" stroke="black" d="M6994.89,-373.94C6990.25,-367.71 6985.66,-360.35 6983,-352.85 6963.66,-298.4 6964.5,-229.91 6967.09,-191.12"/>
<polygon fill="black" stroke="black" points="6970.6,-191.24 6967.86,-181.01 6963.62,-190.71 6970.6,-191.24"/>
<text text-anchor="middle" x="7002.5" y="-270.85" font-family="Times,serif" font-size="20.00">300</text>
</g>
<!-- SG_2_Node_10 -->
<g id="node31" class="node">
<title>SG_2_Node_10</title>
<ellipse fill="none" stroke="black" cx="7056" cy="-159.64" rx="33.88" ry="21.43"/>
<text text-anchor="middle" x="7056" y="-154.64" font-family="Times,serif" font-size="20.00">1.0</text>
</g>
<!-- SG_2_Node_4&#45;&gt;SG_2_Node_10 -->
<g id="edge26" class="edge">
<title>SG_2_Node_4&#45;&gt;SG_2_Node_10</title>
<path fill="none" stroke="black" d="M7015.98,-373.7C7018.07,-367.21 7020.32,-359.74 7022,-352.85 7035.82,-296.28 7046.41,-229.05 7051.87,-190.96"/>
<polygon fill="black" stroke="black" points="7055.35,-191.41 7053.28,-181.02 7048.41,-190.43 7055.35,-191.41"/>
<text text-anchor="middle" x="7073.5" y="-281.85" font-family="Times,serif" font-size="20.00">[NA]</text>
<text text-anchor="middle" x="7073.5" y="-259.85" font-family="Times,serif" font-size="20.00">200</text>
</g>
<!-- SG_2_Node_11 -->
<g id="node32" class="node">
<title>SG_2_Node_11</title>
<ellipse fill="none" stroke="black" cx="6222" cy="-37.21" rx="33.88" ry="21.43"/>
<text text-anchor="middle" x="6222" y="-32.21" font-family="Times,serif" font-size="20.00">0.0</text>
</g>
<!-- SG_2_Node_5&#45;&gt;SG_2_Node_11 -->
<g id="edge29" class="edge">
<title>SG_2_Node_5&#45;&gt;SG_2_Node_11</title>
<path fill="none" stroke="black" d="M6283.1,-141.59C6273.6,-137.78 6263.49,-133.86 6254,-130.43 6240.39,-125.5 6231.59,-132.08 6223,-120.43 6212.12,-105.68 6211.9,-85.05 6214.39,-68.15"/>
<polygon fill="black" stroke="black" points="6217.85,-68.66 6216.21,-58.19 6210.97,-67.4 6217.85,-68.66"/>
<text text-anchor="middle" x="6409.5" y="-93.43" font-family="Times,serif" font-size="20.00">https://sub.headers.websec.saarland</text>
</g>
<!-- SG_2_Node_12 -->
<g id="node33" class="node">
<title>SG_2_Node_12</title>
<ellipse fill="none" stroke="black" cx="6618" cy="-37.21" rx="33.88" ry="21.43"/>
<text text-anchor="middle" x="6618" y="-32.21" font-family="Times,serif" font-size="20.00">1.0</text>
</g>
<!-- SG_2_Node_5&#45;&gt;SG_2_Node_12 -->
<g id="edge30" class="edge">
<title>SG_2_Node_5&#45;&gt;SG_2_Node_12</title>
<path fill="none" stroke="black" d="M6385.19,-157.69C6455.66,-155.33 6565.65,-147.29 6596,-120.43 6610.39,-107.7 6615.83,-86.69 6617.71,-69.1"/>
<polygon fill="black" stroke="black" points="6621.23,-68.92 6618.47,-58.69 6614.25,-68.41 6621.23,-68.92"/>
<text text-anchor="middle" x="6797.5" y="-104.43" font-family="Times,serif" font-size="20.00">[NA]</text>
<text text-anchor="middle" x="6797.5" y="-82.43" font-family="Times,serif" font-size="20.00">http://sub.headers.websec.saarland</text>
</g>
</g>
</svg>
