<?xml version="1.0" encoding="UTF-8" standalone="no"?>
<!DOCTYPE svg PUBLIC "-//W3C//DTD SVG 1.1//EN"
 "http://www.w3.org/Graphics/SVG/1.1/DTD/svg11.dtd">
<!-- Generated by graphviz version 2.43.0 (0)
 -->
<!-- Title: G Pages: 1 -->
<svg width="3282pt" height="520pt"
 viewBox="0.00 0.00 3282.00 520.43" xmlns="http://www.w3.org/2000/svg" xmlns:xlink="http://www.w3.org/1999/xlink">
<g id="graph0" class="graph" transform="scale(1 1) rotate(0) translate(4 516.43)">
<title>G</title>
<polygon fill="white" stroke="transparent" points="-4,4 -4,-516.43 3278,-516.43 3278,4 -4,4"/>
<g id="clust1" class="cluster">
<title>cluster_0</title>
<polygon fill="none" stroke="black" points="8,-8 8,-504.43 1633,-504.43 1633,-8 8,-8"/>
<text text-anchor="middle" x="820.5" y="-468.43" font-family="Times,serif" font-size="40.00">Tree 0, Class {&#39;response.redirected&#39;: False}</text>
</g>
<g id="clust5" class="cluster">
<title>cluster_1</title>
<polygon fill="none" stroke="black" points="1641,-8 1641,-504.43 3266,-504.43 3266,-8 1641,-8"/>
<text text-anchor="middle" x="2453.5" y="-468.43" font-family="Times,serif" font-size="40.00">Tree 0, Class {&#39;response.redirected&#39;: True}</text>
</g>
<!-- SG_0_Node_0 -->
<g id="node1" class="node">
<title>SG_0_Node_0</title>
<polygon fill="none" stroke="black" points="544.5,-444.43 443.5,-444.43 443.5,-408.43 544.5,-408.43 544.5,-444.43"/>
<text text-anchor="middle" x="494" y="-421.43" font-family="Times,serif" font-size="20.00">browser</text>
</g>
<!-- SG_0_Node_1 -->
<g id="node2" class="node">
<title>SG_0_Node_1</title>
<polygon fill="none" stroke="black" points="191.5,-218.43 54.5,-218.43 54.5,-182.43 191.5,-182.43 191.5,-218.43"/>
<text text-anchor="middle" x="123" y="-195.43" font-family="Times,serif" font-size="20.00">raw_header</text>
</g>
<!-- SG_0_Node_0&#45;&gt;SG_0_Node_1 -->
<g id="edge1" class="edge">
<title>SG_0_Node_0&#45;&gt;SG_0_Node_1</title>
<path fill="none" stroke="black" d="M443.49,-424.34C347.23,-421.73 145.15,-413.55 124,-390.43 83.47,-346.12 100.37,-268.58 113.31,-227.96"/>
<polygon fill="black" stroke="black" points="116.63,-229.07 116.48,-218.47 109.99,-226.85 116.63,-229.07"/>
<text text-anchor="middle" x="483.5" y="-374.43" font-family="Times,serif" font-size="20.00">[NA]</text>
<text text-anchor="middle" x="483.5" y="-352.43" font-family="Times,serif" font-size="20.00">brave Ubuntu 22.04 1.60.114 (119.0.6045.124) selenium headless&#45;new</text>
<text text-anchor="middle" x="483.5" y="-330.43" font-family="Times,serif" font-size="20.00">brave Ubuntu 22.04 1.60.114 (119.0.6045.124) selenium xvfb</text>
<text text-anchor="middle" x="483.5" y="-308.43" font-family="Times,serif" font-size="20.00">chrome Ubuntu 22.04 119 selenium headless&#45;new</text>
<text text-anchor="middle" x="483.5" y="-286.43" font-family="Times,serif" font-size="20.00">chrome Ubuntu 22.04 119 selenium xvfb</text>
<text text-anchor="middle" x="483.5" y="-264.43" font-family="Times,serif" font-size="20.00">edge Ubuntu 22.04 119 selenium headless&#45;new</text>
<text text-anchor="middle" x="483.5" y="-242.43" font-family="Times,serif" font-size="20.00">edge Ubuntu 22.04 119 selenium xvfb</text>
</g>
<!-- SG_0_Node_2 -->
<g id="node3" class="node">
<title>SG_0_Node_2</title>
<polygon fill="none" stroke="black" points="933.5,-218.43 796.5,-218.43 796.5,-182.43 933.5,-182.43 933.5,-218.43"/>
<text text-anchor="middle" x="865" y="-195.43" font-family="Times,serif" font-size="20.00">raw_header</text>
</g>
<!-- SG_0_Node_0&#45;&gt;SG_0_Node_2 -->
<g id="edge2" class="edge">
<title>SG_0_Node_0&#45;&gt;SG_0_Node_2</title>
<path fill="none" stroke="black" d="M544.63,-423.8C636.27,-420.37 822.17,-410.93 843,-390.43 886.1,-348.01 878.81,-269.61 871.16,-228.38"/>
<polygon fill="black" stroke="black" points="874.57,-227.63 869.18,-218.51 867.71,-229 874.57,-227.63"/>
<text text-anchor="middle" x="1100.5" y="-319.43" font-family="Times,serif" font-size="20.00">firefox Ubuntu 22.04 119 selenium headless</text>
<text text-anchor="middle" x="1100.5" y="-297.43" font-family="Times,serif" font-size="20.00">firefox Ubuntu 22.04 119 selenium xvfb</text>
</g>
<!-- SG_0_Node_3 -->
<g id="node4" class="node">
<title>SG_0_Node_3</title>
<ellipse fill="none" stroke="black" cx="50" cy="-37.21" rx="33.88" ry="21.43"/>
<text text-anchor="middle" x="50" y="-32.21" font-family="Times,serif" font-size="20.00">0.0</text>
</g>
<!-- SG_0_Node_1&#45;&gt;SG_0_Node_3 -->
<g id="edge5" class="edge">
<title>SG_0_Node_1&#45;&gt;SG_0_Node_3</title>
<path fill="none" stroke="black" d="M54.5,-182.79C46.44,-178.11 39.24,-172.11 34,-164.43 14.4,-135.65 25,-94.46 36.05,-67.05"/>
<polygon fill="black" stroke="black" points="39.36,-68.19 40.08,-57.62 32.93,-65.44 39.36,-68.19"/>
<text text-anchor="middle" x="79.5" y="-126.43" font-family="Times,serif" font-size="20.00">[NA]</text>
<text text-anchor="middle" x="79.5" y="-104.43" font-family="Times,serif" font-size="20.00">35 levels</text>
</g>
<!-- SG_0_Node_4 -->
<g id="node5" class="node">
<title>SG_0_Node_4</title>
<ellipse fill="none" stroke="black" cx="148" cy="-37.21" rx="33.88" ry="21.43"/>
<text text-anchor="middle" x="148" y="-32.21" font-family="Times,serif" font-size="20.00">1.0</text>
</g>
<!-- SG_0_Node_1&#45;&gt;SG_0_Node_4 -->
<g id="edge6" class="edge">
<title>SG_0_Node_1&#45;&gt;SG_0_Node_4</title>
<path fill="none" stroke="black" d="M125.68,-182.17C129.88,-155.05 138.09,-102.09 143.3,-68.52"/>
<polygon fill="black" stroke="black" points="146.8,-68.77 144.88,-58.36 139.89,-67.7 146.8,-68.77"/>
<text text-anchor="middle" x="476" y="-148.43" font-family="Times,serif" font-size="20.00">[[&#39;strict&#45;transport&#45;security&#39;, &#39;;max&#45;age=20; includeSubDomains&#39;]]</text>
<text text-anchor="middle" x="476" y="-126.43" font-family="Times,serif" font-size="20.00">[[&#39;strict&#45;transport&#45;security&#39;, &#39;max&#45;age=20; includeSubDomains=&#39;]]</text>
<text text-anchor="end" x="811" y="-104.43" font-family="Times,serif" font-size="20.00">[[&#39;strict&#45;transport&#45;security</text>
<text text-anchor="middle" x="476" y="-82.43" font-family="Times,serif" font-size="20.00">&#39;, &#39;max&#45;age=20; includeSubDomains&#39;]]</text>
</g>
<!-- SG_0_Node_5 -->
<g id="node6" class="node">
<title>SG_0_Node_5</title>
<ellipse fill="none" stroke="black" cx="841" cy="-37.21" rx="33.88" ry="21.43"/>
<text text-anchor="middle" x="841" y="-32.21" font-family="Times,serif" font-size="20.00">0.0</text>
</g>
<!-- SG_0_Node_2&#45;&gt;SG_0_Node_5 -->
<g id="edge3" class="edge">
<title>SG_0_Node_2&#45;&gt;SG_0_Node_5</title>
<path fill="none" stroke="black" d="M850.93,-182.26C847.31,-176.87 843.9,-170.69 842,-164.43 832.38,-132.73 833.77,-94.45 836.53,-68.43"/>
<polygon fill="black" stroke="black" points="840.01,-68.76 837.72,-58.41 833.06,-67.93 840.01,-68.76"/>
<text text-anchor="middle" x="1177" y="-148.43" font-family="Times,serif" font-size="20.00">[[&#39;strict&#45;transport&#45;security&#39;, &#39;;max&#45;age=20; includeSubDomains&#39;]]</text>
<text text-anchor="middle" x="1177" y="-126.43" font-family="Times,serif" font-size="20.00">[[&#39;strict&#45;transport&#45;security&#39;, &#39;max&#45;age=20; includeSubDomains=&#39;]]</text>
<text text-anchor="end" x="1512" y="-104.43" font-family="Times,serif" font-size="20.00">[[&#39;strict&#45;transport&#45;security</text>
<text text-anchor="middle" x="1177" y="-82.43" font-family="Times,serif" font-size="20.00">&#39;, &#39;max&#45;age=20; includeSubDomains&#39;]]</text>
</g>
<!-- SG_0_Node_6 -->
<g id="node7" class="node">
<title>SG_0_Node_6</title>
<ellipse fill="none" stroke="black" cx="1534" cy="-37.21" rx="33.88" ry="21.43"/>
<text text-anchor="middle" x="1534" y="-32.21" font-family="Times,serif" font-size="20.00">1.0</text>
</g>
<!-- SG_0_Node_2&#45;&gt;SG_0_Node_6 -->
<g id="edge4" class="edge">
<title>SG_0_Node_2&#45;&gt;SG_0_Node_6</title>
<path fill="none" stroke="black" d="M933.67,-197.99C1095.84,-194.3 1490.64,-183.39 1512,-164.43 1538.51,-140.88 1540.54,-97.72 1538.29,-68.5"/>
<polygon fill="black" stroke="black" points="1541.76,-68.04 1537.31,-58.42 1534.8,-68.72 1541.76,-68.04"/>
<text text-anchor="middle" x="1583.5" y="-126.43" font-family="Times,serif" font-size="20.00">[NA]</text>
<text text-anchor="middle" x="1583.5" y="-104.43" font-family="Times,serif" font-size="20.00">35 levels</text>
</g>
<!-- SG_1_Node_0 -->
<g id="node8" class="node">
<title>SG_1_Node_0</title>
<polygon fill="none" stroke="black" points="2232.5,-444.43 2131.5,-444.43 2131.5,-408.43 2232.5,-408.43 2232.5,-444.43"/>
<text text-anchor="middle" x="2182" y="-421.43" font-family="Times,serif" font-size="20.00">browser</text>
</g>
<!-- SG_1_Node_1 -->
<g id="node9" class="node">
<title>SG_1_Node_1</title>
<polygon fill="none" stroke="black" points="1849.5,-218.43 1712.5,-218.43 1712.5,-182.43 1849.5,-182.43 1849.5,-218.43"/>
<text text-anchor="middle" x="1781" y="-195.43" font-family="Times,serif" font-size="20.00">raw_header</text>
</g>
<!-- SG_1_Node_0&#45;&gt;SG_1_Node_1 -->
<g id="edge7" class="edge">
<title>SG_1_Node_0&#45;&gt;SG_1_Node_1</title>
<path fill="none" stroke="black" d="M2131.41,-423.4C2040.81,-419.33 1858.22,-408.92 1836,-390.43 1787.8,-350.3 1780.44,-270.57 1780.14,-228.65"/>
<polygon fill="black" stroke="black" points="1783.64,-228.63 1780.2,-218.61 1776.64,-228.59 1783.64,-228.63"/>
<text text-anchor="middle" x="2060.5" y="-319.43" font-family="Times,serif" font-size="20.00">firefox Ubuntu 22.04 119 selenium headless</text>
<text text-anchor="middle" x="2060.5" y="-297.43" font-family="Times,serif" font-size="20.00">firefox Ubuntu 22.04 119 selenium xvfb</text>
</g>
<!-- SG_1_Node_2 -->
<g id="node10" class="node">
<title>SG_1_Node_2</title>
<polygon fill="none" stroke="black" points="2542.5,-218.43 2405.5,-218.43 2405.5,-182.43 2542.5,-182.43 2542.5,-218.43"/>
<text text-anchor="middle" x="2474" y="-195.43" font-family="Times,serif" font-size="20.00">raw_header</text>
</g>
<!-- SG_1_Node_0&#45;&gt;SG_1_Node_2 -->
<g id="edge8" class="edge">
<title>SG_1_Node_0&#45;&gt;SG_1_Node_2</title>
<path fill="none" stroke="black" d="M2232.65,-414.25C2251.24,-408.79 2271.9,-401.05 2289,-390.43 2361.12,-345.6 2425.58,-266.91 2455.82,-226.67"/>
<polygon fill="black" stroke="black" points="2458.76,-228.58 2461.91,-218.47 2453.14,-224.41 2458.76,-228.58"/>
<text text-anchor="middle" x="2806.5" y="-374.43" font-family="Times,serif" font-size="20.00">[NA]</text>
<text text-anchor="middle" x="2806.5" y="-352.43" font-family="Times,serif" font-size="20.00">brave Ubuntu 22.04 1.60.114 (119.0.6045.124) selenium headless&#45;new</text>
<text text-anchor="middle" x="2806.5" y="-330.43" font-family="Times,serif" font-size="20.00">brave Ubuntu 22.04 1.60.114 (119.0.6045.124) selenium xvfb</text>
<text text-anchor="middle" x="2806.5" y="-308.43" font-family="Times,serif" font-size="20.00">chrome Ubuntu 22.04 119 selenium headless&#45;new</text>
<text text-anchor="middle" x="2806.5" y="-286.43" font-family="Times,serif" font-size="20.00">chrome Ubuntu 22.04 119 selenium xvfb</text>
<text text-anchor="middle" x="2806.5" y="-264.43" font-family="Times,serif" font-size="20.00">edge Ubuntu 22.04 119 selenium headless&#45;new</text>
<text text-anchor="middle" x="2806.5" y="-242.43" font-family="Times,serif" font-size="20.00">edge Ubuntu 22.04 119 selenium xvfb</text>
</g>
<!-- SG_1_Node_3 -->
<g id="node11" class="node">
<title>SG_1_Node_3</title>
<ellipse fill="none" stroke="black" cx="1683" cy="-37.21" rx="33.88" ry="21.43"/>
<text text-anchor="middle" x="1683" y="-32.21" font-family="Times,serif" font-size="20.00">0.0</text>
</g>
<!-- SG_1_Node_1&#45;&gt;SG_1_Node_3 -->
<g id="edge11" class="edge">
<title>SG_1_Node_1&#45;&gt;SG_1_Node_3</title>
<path fill="none" stroke="black" d="M1712.36,-185.57C1702.04,-180.55 1692.65,-173.72 1686,-164.43 1666.1,-136.6 1669.35,-95.8 1674.92,-68.18"/>
<polygon fill="black" stroke="black" points="1678.36,-68.82 1677.12,-58.29 1671.53,-67.29 1678.36,-68.82"/>
<text text-anchor="middle" x="1731.5" y="-126.43" font-family="Times,serif" font-size="20.00">[NA]</text>
<text text-anchor="middle" x="1731.5" y="-104.43" font-family="Times,serif" font-size="20.00">35 levels</text>
</g>
<!-- SG_1_Node_4 -->
<g id="node12" class="node">
<title>SG_1_Node_4</title>
<ellipse fill="none" stroke="black" cx="1781" cy="-37.21" rx="33.88" ry="21.43"/>
<text text-anchor="middle" x="1781" y="-32.21" font-family="Times,serif" font-size="20.00">1.0</text>
</g>
<!-- SG_1_Node_1&#45;&gt;SG_1_Node_4 -->
<g id="edge12" class="edge">
<title>SG_1_Node_1&#45;&gt;SG_1_Node_4</title>
<path fill="none" stroke="black" d="M1781,-182.17C1781,-155.13 1781,-102.38 1781,-68.79"/>
<polygon fill="black" stroke="black" points="1784.5,-68.62 1781,-58.62 1777.5,-68.62 1784.5,-68.62"/>
<text text-anchor="middle" x="2116" y="-148.43" font-family="Times,serif" font-size="20.00">[[&#39;strict&#45;transport&#45;security&#39;, &#39;;max&#45;age=20; includeSubDomains&#39;]]</text>
<text text-anchor="middle" x="2116" y="-126.43" font-family="Times,serif" font-size="20.00">[[&#39;strict&#45;transport&#45;security&#39;, &#39;max&#45;age=20; includeSubDomains=&#39;]]</text>
<text text-anchor="end" x="2451" y="-104.43" font-family="Times,serif" font-size="20.00">[[&#39;strict&#45;transport&#45;security</text>
<text text-anchor="middle" x="2116" y="-82.43" font-family="Times,serif" font-size="20.00">&#39;, &#39;max&#45;age=20; includeSubDomains&#39;]]</text>
</g>
<!-- SG_1_Node_5 -->
<g id="node13" class="node">
<title>SG_1_Node_5</title>
<ellipse fill="none" stroke="black" cx="2474" cy="-37.21" rx="33.88" ry="21.43"/>
<text text-anchor="middle" x="2474" y="-32.21" font-family="Times,serif" font-size="20.00">0.0</text>
</g>
<!-- SG_1_Node_2&#45;&gt;SG_1_Node_5 -->
<g id="edge9" class="edge">
<title>SG_1_Node_2&#45;&gt;SG_1_Node_5</title>
<path fill="none" stroke="black" d="M2474,-182.17C2474,-155.13 2474,-102.38 2474,-68.79"/>
<polygon fill="black" stroke="black" points="2477.5,-68.62 2474,-58.62 2470.5,-68.62 2477.5,-68.62"/>
<text text-anchor="middle" x="2809" y="-148.43" font-family="Times,serif" font-size="20.00">[[&#39;strict&#45;transport&#45;security&#39;, &#39;;max&#45;age=20; includeSubDomains&#39;]]</text>
<text text-anchor="middle" x="2809" y="-126.43" font-family="Times,serif" font-size="20.00">[[&#39;strict&#45;transport&#45;security&#39;, &#39;max&#45;age=20; includeSubDomains=&#39;]]</text>
<text text-anchor="end" x="3144" y="-104.43" font-family="Times,serif" font-size="20.00">[[&#39;strict&#45;transport&#45;security</text>
<text text-anchor="middle" x="2809" y="-82.43" font-family="Times,serif" font-size="20.00">&#39;, &#39;max&#45;age=20; includeSubDomains&#39;]]</text>
</g>
<!-- SG_1_Node_6 -->
<g id="node14" class="node">
<title>SG_1_Node_6</title>
<ellipse fill="none" stroke="black" cx="3167" cy="-37.21" rx="33.88" ry="21.43"/>
<text text-anchor="middle" x="3167" y="-32.21" font-family="Times,serif" font-size="20.00">1.0</text>
</g>
<!-- SG_1_Node_2&#45;&gt;SG_1_Node_6 -->
<g id="edge10" class="edge">
<title>SG_1_Node_2&#45;&gt;SG_1_Node_6</title>
<path fill="none" stroke="black" d="M2542.75,-198.13C2709.36,-194.68 3122.72,-184.17 3145,-164.43 3171.54,-140.91 3173.55,-97.73 3171.3,-68.51"/>
<polygon fill="black" stroke="black" points="3174.77,-68.04 3170.31,-58.43 3167.8,-68.73 3174.77,-68.04"/>
<text text-anchor="middle" x="3216.5" y="-126.43" font-family="Times,serif" font-size="20.00">[NA]</text>
<text text-anchor="middle" x="3216.5" y="-104.43" font-family="Times,serif" font-size="20.00">35 levels</text>
</g>
</g>
</svg>
