<?xml version="1.0" encoding="UTF-8" standalone="no"?>
<!DOCTYPE svg PUBLIC "-//W3C//DTD SVG 1.1//EN"
 "http://www.w3.org/Graphics/SVG/1.1/DTD/svg11.dtd">
<!-- Generated by graphviz version 2.43.0 (0)
 -->
<!-- Title: G Pages: 1 -->
<svg width="3334pt" height="586pt"
 viewBox="0.00 0.00 3334.00 586.43" xmlns="http://www.w3.org/2000/svg" xmlns:xlink="http://www.w3.org/1999/xlink">
<g id="graph0" class="graph" transform="scale(1 1) rotate(0) translate(4 582.43)">
<title>G</title>
<polygon fill="white" stroke="transparent" points="-4,4 -4,-582.43 3330,-582.43 3330,4 -4,4"/>
<g id="clust1" class="cluster">
<title>cluster_0</title>
<polygon fill="none" stroke="black" points="8,-8 8,-570.43 1659,-570.43 1659,-8 8,-8"/>
<text text-anchor="middle" x="833.5" y="-534.43" font-family="Times,serif" font-size="40.00">Tree 0, Class {&#39;response.redirected&#39;: False}</text>
</g>
<g id="clust5" class="cluster">
<title>cluster_1</title>
<polygon fill="none" stroke="black" points="1667,-8 1667,-570.43 3318,-570.43 3318,-8 1667,-8"/>
<text text-anchor="middle" x="2492.5" y="-534.43" font-family="Times,serif" font-size="40.00">Tree 0, Class {&#39;response.redirected&#39;: True}</text>
</g>
<!-- SG_0_Node_0 -->
<g id="node1" class="node">
<title>SG_0_Node_0</title>
<polygon fill="none" stroke="black" points="557.5,-510.43 456.5,-510.43 456.5,-474.43 557.5,-474.43 557.5,-510.43"/>
<text text-anchor="middle" x="507" y="-487.43" font-family="Times,serif" font-size="20.00">browser</text>
</g>
<!-- SG_0_Node_1 -->
<g id="node2" class="node">
<title>SG_0_Node_1</title>
<polygon fill="none" stroke="black" points="204.5,-284.43 67.5,-284.43 67.5,-248.43 204.5,-248.43 204.5,-284.43"/>
<text text-anchor="middle" x="136" y="-261.43" font-family="Times,serif" font-size="20.00">raw_header</text>
</g>
<!-- SG_0_Node_0&#45;&gt;SG_0_Node_1 -->
<g id="edge1" class="edge">
<title>SG_0_Node_0&#45;&gt;SG_0_Node_1</title>
<path fill="none" stroke="black" d="M456.49,-490.34C360.23,-487.73 158.15,-479.55 137,-456.43 96.47,-412.12 113.37,-334.58 126.31,-293.96"/>
<polygon fill="black" stroke="black" points="129.63,-295.07 129.48,-284.47 122.99,-292.85 129.63,-295.07"/>
<text text-anchor="middle" x="496.5" y="-440.43" font-family="Times,serif" font-size="20.00">[NA]</text>
<text text-anchor="middle" x="496.5" y="-418.43" font-family="Times,serif" font-size="20.00">brave Ubuntu 22.04 1.60.114 (119.0.6045.124) selenium headless&#45;new</text>
<text text-anchor="middle" x="496.5" y="-396.43" font-family="Times,serif" font-size="20.00">brave Ubuntu 22.04 1.60.114 (119.0.6045.124) selenium xvfb</text>
<text text-anchor="middle" x="496.5" y="-374.43" font-family="Times,serif" font-size="20.00">chrome Ubuntu 22.04 119 selenium headless&#45;new</text>
<text text-anchor="middle" x="496.5" y="-352.43" font-family="Times,serif" font-size="20.00">chrome Ubuntu 22.04 119 selenium xvfb</text>
<text text-anchor="middle" x="496.5" y="-330.43" font-family="Times,serif" font-size="20.00">edge Ubuntu 22.04 119 selenium headless&#45;new</text>
<text text-anchor="middle" x="496.5" y="-308.43" font-family="Times,serif" font-size="20.00">edge Ubuntu 22.04 119 selenium xvfb</text>
</g>
<!-- SG_0_Node_2 -->
<g id="node3" class="node">
<title>SG_0_Node_2</title>
<polygon fill="none" stroke="black" points="946.5,-284.43 809.5,-284.43 809.5,-248.43 946.5,-248.43 946.5,-284.43"/>
<text text-anchor="middle" x="878" y="-261.43" font-family="Times,serif" font-size="20.00">raw_header</text>
</g>
<!-- SG_0_Node_0&#45;&gt;SG_0_Node_2 -->
<g id="edge2" class="edge">
<title>SG_0_Node_0&#45;&gt;SG_0_Node_2</title>
<path fill="none" stroke="black" d="M557.63,-489.8C649.27,-486.37 835.17,-476.93 856,-456.43 899.1,-414.01 891.81,-335.61 884.16,-294.38"/>
<polygon fill="black" stroke="black" points="887.57,-293.63 882.18,-284.51 880.71,-295 887.57,-293.63"/>
<text text-anchor="middle" x="1113.5" y="-385.43" font-family="Times,serif" font-size="20.00">firefox Ubuntu 22.04 119 selenium headless</text>
<text text-anchor="middle" x="1113.5" y="-363.43" font-family="Times,serif" font-size="20.00">firefox Ubuntu 22.04 119 selenium xvfb</text>
</g>
<!-- SG_0_Node_3 -->
<g id="node4" class="node">
<title>SG_0_Node_3</title>
<ellipse fill="none" stroke="black" cx="50" cy="-37.21" rx="33.88" ry="21.43"/>
<text text-anchor="middle" x="50" y="-32.21" font-family="Times,serif" font-size="20.00">0.0</text>
</g>
<!-- SG_0_Node_1&#45;&gt;SG_0_Node_3 -->
<g id="edge5" class="edge">
<title>SG_0_Node_1&#45;&gt;SG_0_Node_3</title>
<path fill="none" stroke="black" d="M67.39,-255.59C53.55,-250.35 40.62,-242.42 32,-230.43 -7.94,-174.84 17.06,-143.22 32,-76.43 32.72,-73.21 33.74,-69.94 34.94,-66.74"/>
<polygon fill="black" stroke="black" points="38.2,-68.02 38.93,-57.45 31.77,-65.26 38.2,-68.02"/>
<text text-anchor="middle" x="84" y="-159.43" font-family="Times,serif" font-size="20.00">[NA]</text>
<text text-anchor="middle" x="84" y="-137.43" font-family="Times,serif" font-size="20.00">209 levels</text>
</g>
<!-- SG_0_Node_4 -->
<g id="node5" class="node">
<title>SG_0_Node_4</title>
<ellipse fill="none" stroke="black" cx="161" cy="-37.21" rx="33.88" ry="21.43"/>
<text text-anchor="middle" x="161" y="-32.21" font-family="Times,serif" font-size="20.00">1.0</text>
</g>
<!-- SG_0_Node_1&#45;&gt;SG_0_Node_4 -->
<g id="edge6" class="edge">
<title>SG_0_Node_1&#45;&gt;SG_0_Node_4</title>
<path fill="none" stroke="black" d="M137.88,-248.35C142.09,-210.07 152.34,-116.95 157.66,-68.56"/>
<polygon fill="black" stroke="black" points="161.17,-68.71 158.78,-58.38 154.21,-67.94 161.17,-68.71"/>
<text text-anchor="middle" x="491" y="-214.43" font-family="Times,serif" font-size="20.00">[[&#39;strict&#45;transport&#45;security&#39;, &#39;;max&#45;age=20; includeSubDomains&#39;]]</text>
<text text-anchor="middle" x="491" y="-192.43" font-family="Times,serif" font-size="20.00">[[&#39;strict&#45;transport&#45;security&#39;, &#39;;max&#45;age=60&#39;]]</text>
<text text-anchor="middle" x="491" y="-170.43" font-family="Times,serif" font-size="20.00">[[&#39;strict&#45;transport&#45;security&#39;, &#39;max&#45;age=20; includeSubDomains=&#39;]]</text>
<text text-anchor="end" x="826" y="-148.43" font-family="Times,serif" font-size="20.00">[[&#39;strict&#45;transport&#45;security</text>
<text text-anchor="middle" x="491" y="-126.43" font-family="Times,serif" font-size="20.00">&#39;, &#39;max&#45;age=20; includeSubDomains&#39;]]</text>
<text text-anchor="end" x="826" y="-104.43" font-family="Times,serif" font-size="20.00">[[&#39;strict&#45;transport&#45;security</text>
<text text-anchor="middle" x="491" y="-82.43" font-family="Times,serif" font-size="20.00">&#39;, &#39;max&#45;age=60&#39;]]</text>
</g>
<!-- SG_0_Node_5 -->
<g id="node6" class="node">
<title>SG_0_Node_5</title>
<ellipse fill="none" stroke="black" cx="854" cy="-37.21" rx="33.88" ry="21.43"/>
<text text-anchor="middle" x="854" y="-32.21" font-family="Times,serif" font-size="20.00">0.0</text>
</g>
<!-- SG_0_Node_2&#45;&gt;SG_0_Node_5 -->
<g id="edge3" class="edge">
<title>SG_0_Node_2&#45;&gt;SG_0_Node_5</title>
<path fill="none" stroke="black" d="M863.92,-248.26C860.3,-242.88 856.89,-236.69 855,-230.43 838.33,-175.24 843.71,-107 848.96,-68.46"/>
<polygon fill="black" stroke="black" points="852.45,-68.81 850.42,-58.41 845.52,-67.8 852.45,-68.81"/>
<text text-anchor="middle" x="1190" y="-214.43" font-family="Times,serif" font-size="20.00">[[&#39;strict&#45;transport&#45;security&#39;, &#39;;max&#45;age=20; includeSubDomains&#39;]]</text>
<text text-anchor="middle" x="1190" y="-192.43" font-family="Times,serif" font-size="20.00">[[&#39;strict&#45;transport&#45;security&#39;, &#39;;max&#45;age=60&#39;]]</text>
<text text-anchor="middle" x="1190" y="-170.43" font-family="Times,serif" font-size="20.00">[[&#39;strict&#45;transport&#45;security&#39;, &#39;max&#45;age=20; includeSubDomains=&#39;]]</text>
<text text-anchor="end" x="1525" y="-148.43" font-family="Times,serif" font-size="20.00">[[&#39;strict&#45;transport&#45;security</text>
<text text-anchor="middle" x="1190" y="-126.43" font-family="Times,serif" font-size="20.00">&#39;, &#39;max&#45;age=20; includeSubDomains&#39;]]</text>
<text text-anchor="end" x="1525" y="-104.43" font-family="Times,serif" font-size="20.00">[[&#39;strict&#45;transport&#45;security</text>
<text text-anchor="middle" x="1190" y="-82.43" font-family="Times,serif" font-size="20.00">&#39;, &#39;max&#45;age=60&#39;]]</text>
</g>
<!-- SG_0_Node_6 -->
<g id="node7" class="node">
<title>SG_0_Node_6</title>
<ellipse fill="none" stroke="black" cx="1547" cy="-37.21" rx="33.88" ry="21.43"/>
<text text-anchor="middle" x="1547" y="-32.21" font-family="Times,serif" font-size="20.00">1.0</text>
</g>
<!-- SG_0_Node_2&#45;&gt;SG_0_Node_6 -->
<g id="edge4" class="edge">
<title>SG_0_Node_2&#45;&gt;SG_0_Node_6</title>
<path fill="none" stroke="black" d="M946.74,-264.07C1109.08,-260.55 1504.21,-250.01 1525,-230.43 1547.73,-209.02 1549.05,-117.31 1548.07,-68.71"/>
<polygon fill="black" stroke="black" points="1551.56,-68.39 1547.81,-58.48 1544.56,-68.56 1551.56,-68.39"/>
<text text-anchor="middle" x="1600" y="-159.43" font-family="Times,serif" font-size="20.00">[NA]</text>
<text text-anchor="middle" x="1600" y="-137.43" font-family="Times,serif" font-size="20.00">209 levels</text>
</g>
<!-- SG_1_Node_0 -->
<g id="node8" class="node">
<title>SG_1_Node_0</title>
<polygon fill="none" stroke="black" points="2271.5,-510.43 2170.5,-510.43 2170.5,-474.43 2271.5,-474.43 2271.5,-510.43"/>
<text text-anchor="middle" x="2221" y="-487.43" font-family="Times,serif" font-size="20.00">browser</text>
</g>
<!-- SG_1_Node_1 -->
<g id="node9" class="node">
<title>SG_1_Node_1</title>
<polygon fill="none" stroke="black" points="1888.5,-284.43 1751.5,-284.43 1751.5,-248.43 1888.5,-248.43 1888.5,-284.43"/>
<text text-anchor="middle" x="1820" y="-261.43" font-family="Times,serif" font-size="20.00">raw_header</text>
</g>
<!-- SG_1_Node_0&#45;&gt;SG_1_Node_1 -->
<g id="edge7" class="edge">
<title>SG_1_Node_0&#45;&gt;SG_1_Node_1</title>
<path fill="none" stroke="black" d="M2170.41,-489.4C2079.81,-485.33 1897.22,-474.92 1875,-456.43 1826.8,-416.3 1819.44,-336.57 1819.14,-294.65"/>
<polygon fill="black" stroke="black" points="1822.64,-294.63 1819.2,-284.61 1815.64,-294.59 1822.64,-294.63"/>
<text text-anchor="middle" x="2099.5" y="-385.43" font-family="Times,serif" font-size="20.00">firefox Ubuntu 22.04 119 selenium headless</text>
<text text-anchor="middle" x="2099.5" y="-363.43" font-family="Times,serif" font-size="20.00">firefox Ubuntu 22.04 119 selenium xvfb</text>
</g>
<!-- SG_1_Node_2 -->
<g id="node10" class="node">
<title>SG_1_Node_2</title>
<polygon fill="none" stroke="black" points="2581.5,-284.43 2444.5,-284.43 2444.5,-248.43 2581.5,-248.43 2581.5,-284.43"/>
<text text-anchor="middle" x="2513" y="-261.43" font-family="Times,serif" font-size="20.00">raw_header</text>
</g>
<!-- SG_1_Node_0&#45;&gt;SG_1_Node_2 -->
<g id="edge8" class="edge">
<title>SG_1_Node_0&#45;&gt;SG_1_Node_2</title>
<path fill="none" stroke="black" d="M2271.65,-480.25C2290.24,-474.79 2310.9,-467.05 2328,-456.43 2400.12,-411.6 2464.58,-332.91 2494.82,-292.67"/>
<polygon fill="black" stroke="black" points="2497.76,-294.58 2500.91,-284.47 2492.14,-290.41 2497.76,-294.58"/>
<text text-anchor="middle" x="2845.5" y="-440.43" font-family="Times,serif" font-size="20.00">[NA]</text>
<text text-anchor="middle" x="2845.5" y="-418.43" font-family="Times,serif" font-size="20.00">brave Ubuntu 22.04 1.60.114 (119.0.6045.124) selenium headless&#45;new</text>
<text text-anchor="middle" x="2845.5" y="-396.43" font-family="Times,serif" font-size="20.00">brave Ubuntu 22.04 1.60.114 (119.0.6045.124) selenium xvfb</text>
<text text-anchor="middle" x="2845.5" y="-374.43" font-family="Times,serif" font-size="20.00">chrome Ubuntu 22.04 119 selenium headless&#45;new</text>
<text text-anchor="middle" x="2845.5" y="-352.43" font-family="Times,serif" font-size="20.00">chrome Ubuntu 22.04 119 selenium xvfb</text>
<text text-anchor="middle" x="2845.5" y="-330.43" font-family="Times,serif" font-size="20.00">edge Ubuntu 22.04 119 selenium headless&#45;new</text>
<text text-anchor="middle" x="2845.5" y="-308.43" font-family="Times,serif" font-size="20.00">edge Ubuntu 22.04 119 selenium xvfb</text>
</g>
<!-- SG_1_Node_3 -->
<g id="node11" class="node">
<title>SG_1_Node_3</title>
<ellipse fill="none" stroke="black" cx="1709" cy="-37.21" rx="33.88" ry="21.43"/>
<text text-anchor="middle" x="1709" y="-32.21" font-family="Times,serif" font-size="20.00">0.0</text>
</g>
<!-- SG_1_Node_1&#45;&gt;SG_1_Node_3 -->
<g id="edge11" class="edge">
<title>SG_1_Node_1&#45;&gt;SG_1_Node_3</title>
<path fill="none" stroke="black" d="M1751.46,-256.91C1736.14,-251.69 1721.61,-243.42 1712,-230.43 1676.8,-182.8 1688.96,-108.84 1699.73,-67.94"/>
<polygon fill="black" stroke="black" points="1703.11,-68.86 1702.41,-58.29 1696.37,-66.99 1703.11,-68.86"/>
<text text-anchor="middle" x="1764" y="-159.43" font-family="Times,serif" font-size="20.00">[NA]</text>
<text text-anchor="middle" x="1764" y="-137.43" font-family="Times,serif" font-size="20.00">209 levels</text>
</g>
<!-- SG_1_Node_4 -->
<g id="node12" class="node">
<title>SG_1_Node_4</title>
<ellipse fill="none" stroke="black" cx="1820" cy="-37.21" rx="33.88" ry="21.43"/>
<text text-anchor="middle" x="1820" y="-32.21" font-family="Times,serif" font-size="20.00">1.0</text>
</g>
<!-- SG_1_Node_1&#45;&gt;SG_1_Node_4 -->
<g id="edge12" class="edge">
<title>SG_1_Node_1&#45;&gt;SG_1_Node_4</title>
<path fill="none" stroke="black" d="M1820,-248.35C1820,-210.16 1820,-117.42 1820,-68.92"/>
<polygon fill="black" stroke="black" points="1823.5,-68.72 1820,-58.72 1816.5,-68.72 1823.5,-68.72"/>
<text text-anchor="middle" x="2155" y="-214.43" font-family="Times,serif" font-size="20.00">[[&#39;strict&#45;transport&#45;security&#39;, &#39;;max&#45;age=20; includeSubDomains&#39;]]</text>
<text text-anchor="middle" x="2155" y="-192.43" font-family="Times,serif" font-size="20.00">[[&#39;strict&#45;transport&#45;security&#39;, &#39;;max&#45;age=60&#39;]]</text>
<text text-anchor="middle" x="2155" y="-170.43" font-family="Times,serif" font-size="20.00">[[&#39;strict&#45;transport&#45;security&#39;, &#39;max&#45;age=20; includeSubDomains=&#39;]]</text>
<text text-anchor="end" x="2490" y="-148.43" font-family="Times,serif" font-size="20.00">[[&#39;strict&#45;transport&#45;security</text>
<text text-anchor="middle" x="2155" y="-126.43" font-family="Times,serif" font-size="20.00">&#39;, &#39;max&#45;age=20; includeSubDomains&#39;]]</text>
<text text-anchor="end" x="2490" y="-104.43" font-family="Times,serif" font-size="20.00">[[&#39;strict&#45;transport&#45;security</text>
<text text-anchor="middle" x="2155" y="-82.43" font-family="Times,serif" font-size="20.00">&#39;, &#39;max&#45;age=60&#39;]]</text>
</g>
<!-- SG_1_Node_5 -->
<g id="node13" class="node">
<title>SG_1_Node_5</title>
<ellipse fill="none" stroke="black" cx="2513" cy="-37.21" rx="33.88" ry="21.43"/>
<text text-anchor="middle" x="2513" y="-32.21" font-family="Times,serif" font-size="20.00">0.0</text>
</g>
<!-- SG_1_Node_2&#45;&gt;SG_1_Node_5 -->
<g id="edge9" class="edge">
<title>SG_1_Node_2&#45;&gt;SG_1_Node_5</title>
<path fill="none" stroke="black" d="M2513,-248.35C2513,-210.16 2513,-117.42 2513,-68.92"/>
<polygon fill="black" stroke="black" points="2516.5,-68.72 2513,-58.72 2509.5,-68.72 2516.5,-68.72"/>
<text text-anchor="middle" x="2848" y="-214.43" font-family="Times,serif" font-size="20.00">[[&#39;strict&#45;transport&#45;security&#39;, &#39;;max&#45;age=20; includeSubDomains&#39;]]</text>
<text text-anchor="middle" x="2848" y="-192.43" font-family="Times,serif" font-size="20.00">[[&#39;strict&#45;transport&#45;security&#39;, &#39;;max&#45;age=60&#39;]]</text>
<text text-anchor="middle" x="2848" y="-170.43" font-family="Times,serif" font-size="20.00">[[&#39;strict&#45;transport&#45;security&#39;, &#39;max&#45;age=20; includeSubDomains=&#39;]]</text>
<text text-anchor="end" x="3183" y="-148.43" font-family="Times,serif" font-size="20.00">[[&#39;strict&#45;transport&#45;security</text>
<text text-anchor="middle" x="2848" y="-126.43" font-family="Times,serif" font-size="20.00">&#39;, &#39;max&#45;age=20; includeSubDomains&#39;]]</text>
<text text-anchor="end" x="3183" y="-104.43" font-family="Times,serif" font-size="20.00">[[&#39;strict&#45;transport&#45;security</text>
<text text-anchor="middle" x="2848" y="-82.43" font-family="Times,serif" font-size="20.00">&#39;, &#39;max&#45;age=60&#39;]]</text>
</g>
<!-- SG_1_Node_6 -->
<g id="node14" class="node">
<title>SG_1_Node_6</title>
<ellipse fill="none" stroke="black" cx="3206" cy="-37.21" rx="33.88" ry="21.43"/>
<text text-anchor="middle" x="3206" y="-32.21" font-family="Times,serif" font-size="20.00">1.0</text>
</g>
<!-- SG_1_Node_2&#45;&gt;SG_1_Node_6 -->
<g id="edge10" class="edge">
<title>SG_1_Node_2&#45;&gt;SG_1_Node_6</title>
<path fill="none" stroke="black" d="M2581.51,-264.21C2748.09,-260.95 3162.3,-250.82 3184,-230.43 3227.97,-189.09 3221.06,-111.09 3213.02,-68.25"/>
<polygon fill="black" stroke="black" points="3216.45,-67.53 3211.04,-58.42 3209.59,-68.91 3216.45,-67.53"/>
<text text-anchor="middle" x="3270" y="-159.43" font-family="Times,serif" font-size="20.00">[NA]</text>
<text text-anchor="middle" x="3270" y="-137.43" font-family="Times,serif" font-size="20.00">209 levels</text>
</g>
</g>
</svg>
