<?xml version="1.0" encoding="UTF-8" standalone="no"?>
<!DOCTYPE svg PUBLIC "-//W3C//DTD SVG 1.1//EN"
 "http://www.w3.org/Graphics/SVG/1.1/DTD/svg11.dtd">
<!-- Generated by graphviz version 2.43.0 (0)
 -->
<!-- Title: G Pages: 1 -->
<svg width="6821pt" height="1435pt"
 viewBox="0.00 0.00 6821.00 1434.56" xmlns="http://www.w3.org/2000/svg" xmlns:xlink="http://www.w3.org/1999/xlink">
<g id="graph0" class="graph" transform="scale(1 1) rotate(0) translate(4 1430.56)">
<title>G</title>
<polygon fill="white" stroke="transparent" points="-4,4 -4,-1430.56 6817,-1430.56 6817,4 -4,4"/>
<g id="clust1" class="cluster">
<title>cluster_0</title>
<polygon fill="none" stroke="black" points="8,-8 8,-1418.56 2288,-1418.56 2288,-8 8,-8"/>
<text text-anchor="middle" x="1148" y="-1382.56" font-family="Times,serif" font-size="40.00">Tree 0, Class {&#39;window.open.opener&#39;: &#39;null&#39;}</text>
</g>
<g id="clust9" class="cluster">
<title>cluster_1</title>
<polygon fill="none" stroke="black" points="2296,-1060.13 2296,-1418.56 4378,-1418.56 4378,-1060.13 2296,-1060.13"/>
<text text-anchor="middle" x="3337" y="-1382.56" font-family="Times,serif" font-size="40.00">Tree 0, Class {&#39;window.open.opener&#39;: &#39;object TypeError: null is not an object (evaluating &#39;w.opener&#39;)&#39;}</text>
</g>
<g id="clust12" class="cluster">
<title>cluster_2</title>
<polygon fill="none" stroke="black" points="4386,-8 4386,-1418.56 6805,-1418.56 6805,-8 4386,-8"/>
<text text-anchor="middle" x="5595.5" y="-1382.56" font-family="Times,serif" font-size="40.00">Tree 0, Class {&#39;window.open.opener&#39;: &#39;object [object Window]&#39;}</text>
</g>
<!-- SG_0_Node_0 -->
<g id="node1" class="node">
<title>SG_0_Node_0</title>
<polygon fill="none" stroke="black" points="563.5,-1358.56 426.5,-1358.56 426.5,-1322.56 563.5,-1322.56 563.5,-1358.56"/>
<text text-anchor="middle" x="495" y="-1335.56" font-family="Times,serif" font-size="20.00">raw_header</text>
</g>
<!-- SG_0_Node_7 -->
<g id="node2" class="node">
<title>SG_0_Node_7</title>
<ellipse fill="none" stroke="black" cx="50" cy="-1089.35" rx="33.88" ry="21.43"/>
<text text-anchor="middle" x="50" y="-1084.35" font-family="Times,serif" font-size="20.00">0.0</text>
</g>
<!-- SG_0_Node_0&#45;&gt;SG_0_Node_7 -->
<g id="edge1" class="edge">
<title>SG_0_Node_0&#45;&gt;SG_0_Node_7</title>
<path fill="none" stroke="black" d="M426.49,-1339.41C303.89,-1338.43 57.3,-1332.92 31,-1304.56 -22.19,-1247.2 13.11,-1204.71 31,-1128.56 31.76,-1125.31 32.84,-1122.03 34.11,-1118.82"/>
<polygon fill="black" stroke="black" points="37.38,-1120.08 38.32,-1109.52 31,-1117.19 37.38,-1120.08"/>
<text text-anchor="middle" x="455" y="-1288.56" font-family="Times,serif" font-size="20.00">[NA]</text>
<text text-anchor="middle" x="455" y="-1266.56" font-family="Times,serif" font-size="20.00">[[&#39;Cross&#45;Origin&#45;Opener&#45;Policy&#39;, &#39;&#39;]]</text>
<text text-anchor="middle" x="455" y="-1244.56" font-family="Times,serif" font-size="20.00">[[&#39;Cross&#45;Origin&#45;Opener&#45;Policy&#39;, &#39;*&#39;]]</text>
<text text-anchor="middle" x="455" y="-1222.56" font-family="Times,serif" font-size="20.00">[[&#39;Cross&#45;Origin&#45;Opener&#45;Policy&#39;, &#39;null&#39;]]</text>
<text text-anchor="middle" x="455" y="-1200.56" font-family="Times,serif" font-size="20.00">[[&#39;Cross&#45;Origin&#45;Opener&#45;Policy&#39;, &#39;same&#45;origin&#45;plus&#45;COEP&#39;]]</text>
<text text-anchor="middle" x="455" y="-1178.56" font-family="Times,serif" font-size="20.00">[[&#39;Cross&#45;Origin&#45;Opener&#45;Policy&#39;, &#39;unsafe&#45;none&#39;]]</text>
<text text-anchor="middle" x="455" y="-1156.56" font-family="Times,serif" font-size="20.00">[[&#39;Cross&#45;Origin&#45;Opener&#45;Policy&#39;, &#39;unsafe&#45;none, same&#45;origin, same&#45;origin&#45;plus&#45;COEP&#39;]]</text>
<text text-anchor="middle" x="455" y="-1134.56" font-family="Times,serif" font-size="20.00">[]</text>
</g>
<!-- SG_0_Node_1 -->
<g id="node3" class="node">
<title>SG_0_Node_1</title>
<polygon fill="none" stroke="black" points="971,-1107.35 839,-1107.35 839,-1071.35 971,-1071.35 971,-1107.35"/>
<text text-anchor="middle" x="905" y="-1084.35" font-family="Times,serif" font-size="20.00">resp_origin</text>
</g>
<!-- SG_0_Node_0&#45;&gt;SG_0_Node_1 -->
<g id="edge2" class="edge">
<title>SG_0_Node_0&#45;&gt;SG_0_Node_1</title>
<path fill="none" stroke="black" d="M563.7,-1338.02C669.07,-1334.98 860.8,-1326.48 883,-1304.56 908.76,-1279.11 908.13,-1169.51 906.3,-1117.69"/>
<polygon fill="black" stroke="black" points="909.79,-1117.42 905.9,-1107.56 902.8,-1117.69 909.79,-1117.42"/>
<text text-anchor="middle" x="1594.5" y="-1244.56" font-family="Times,serif" font-size="20.00">[[&#39;Cross&#45;Origin&#45;Opener&#45;Policy&#39;, &#39;same&#45;origin&#39;], [&#39;location&#39;, &#39;https://sub.headers.websec.saarland/_hp/common/empty.html&#39;]]</text>
<text text-anchor="middle" x="1594.5" y="-1222.56" font-family="Times,serif" font-size="20.00">[[&#39;Cross&#45;Origin&#45;Opener&#45;Policy&#39;, &#39;same&#45;origin&#39;]]</text>
<text text-anchor="middle" x="1594.5" y="-1200.56" font-family="Times,serif" font-size="20.00">[[&#39;Cross&#45;Origin&#45;Opener&#45;Policy&#39;, &#39;same&#45;origin&#45;allow&#45;popups&#39;], [&#39;location&#39;, &#39;https://sub.headers.websec.saarland/_hp/common/empty.html&#39;]]</text>
<text text-anchor="middle" x="1594.5" y="-1178.56" font-family="Times,serif" font-size="20.00">[[&#39;Cross&#45;Origin&#45;Opener&#45;Policy&#39;, &#39;same&#45;origin&#45;allow&#45;popups&#39;]]</text>
</g>
<!-- SG_0_Node_2 -->
<g id="node4" class="node">
<title>SG_0_Node_2</title>
<polygon fill="none" stroke="black" points="364.5,-918.92 263.5,-918.92 263.5,-882.92 364.5,-882.92 364.5,-918.92"/>
<text text-anchor="middle" x="314" y="-895.92" font-family="Times,serif" font-size="20.00">browser</text>
</g>
<!-- SG_0_Node_1&#45;&gt;SG_0_Node_2 -->
<g id="edge3" class="edge">
<title>SG_0_Node_1&#45;&gt;SG_0_Node_2</title>
<path fill="none" stroke="black" d="M838.96,-1085.62C746.46,-1081.13 583.4,-1070.56 528,-1050.13 451.6,-1021.95 376.73,-960.02 339.09,-925.8"/>
<polygon fill="black" stroke="black" points="341.36,-923.14 331.63,-918.95 336.62,-928.29 341.36,-923.14"/>
<text text-anchor="middle" x="730.5" y="-1034.13" font-family="Times,serif" font-size="20.00">[NA]</text>
<text text-anchor="middle" x="730.5" y="-1012.13" font-family="Times,serif" font-size="20.00">http://headers.webappsec.eu</text>
<text text-anchor="middle" x="730.5" y="-990.13" font-family="Times,serif" font-size="20.00">http://headers.websec.saarland</text>
<text text-anchor="middle" x="730.5" y="-968.13" font-family="Times,serif" font-size="20.00">http://sub.headers.websec.saarland</text>
<text text-anchor="middle" x="730.5" y="-946.13" font-family="Times,serif" font-size="20.00">http://sub.sub.headers.websec.saarland</text>
</g>
<!-- SG_0_Node_3 -->
<g id="node5" class="node">
<title>SG_0_Node_3</title>
<polygon fill="none" stroke="black" points="1106.5,-918.92 1005.5,-918.92 1005.5,-882.92 1106.5,-882.92 1106.5,-918.92"/>
<text text-anchor="middle" x="1056" y="-895.92" font-family="Times,serif" font-size="20.00">browser</text>
</g>
<!-- SG_0_Node_1&#45;&gt;SG_0_Node_3 -->
<g id="edge4" class="edge">
<title>SG_0_Node_1&#45;&gt;SG_0_Node_3</title>
<path fill="none" stroke="black" d="M918.94,-1071.14C945.68,-1038.12 1004.31,-965.74 1035.51,-927.21"/>
<polygon fill="black" stroke="black" points="1038.52,-929.06 1042.1,-919.08 1033.08,-924.65 1038.52,-929.06"/>
<text text-anchor="middle" x="1230.5" y="-1023.13" font-family="Times,serif" font-size="20.00">https://headers.webappsec.eu</text>
<text text-anchor="middle" x="1230.5" y="-1001.13" font-family="Times,serif" font-size="20.00">https://headers.websec.saarland</text>
<text text-anchor="middle" x="1230.5" y="-979.13" font-family="Times,serif" font-size="20.00">https://sub.headers.websec.saarland</text>
<text text-anchor="middle" x="1230.5" y="-957.13" font-family="Times,serif" font-size="20.00">https://sub.sub.headers.websec.saarland</text>
</g>
<!-- SG_0_Node_8 -->
<g id="node6" class="node">
<title>SG_0_Node_8</title>
<ellipse fill="none" stroke="black" cx="197" cy="-580.49" rx="33.88" ry="21.43"/>
<text text-anchor="middle" x="197" y="-575.49" font-family="Times,serif" font-size="20.00">0.0</text>
</g>
<!-- SG_0_Node_2&#45;&gt;SG_0_Node_8 -->
<g id="edge7" class="edge">
<title>SG_0_Node_2&#45;&gt;SG_0_Node_8</title>
<path fill="none" stroke="black" d="M263.38,-890.77C246.66,-885.18 229.63,-876.18 219,-861.71 163.65,-786.32 178.84,-666.76 189.98,-611.42"/>
<polygon fill="black" stroke="black" points="193.42,-612.06 192.06,-601.55 186.57,-610.61 193.42,-612.06"/>
<text text-anchor="middle" x="264.5" y="-746.71" font-family="Times,serif" font-size="20.00">[NA]</text>
<text text-anchor="middle" x="264.5" y="-724.71" font-family="Times,serif" font-size="20.00">11 levels</text>
</g>
<!-- SG_0_Node_4 -->
<g id="node7" class="node">
<title>SG_0_Node_4</title>
<polygon fill="none" stroke="black" points="381,-598.49 249,-598.49 249,-562.49 381,-562.49 381,-598.49"/>
<text text-anchor="middle" x="315" y="-575.49" font-family="Times,serif" font-size="20.00">resp_origin</text>
</g>
<!-- SG_0_Node_2&#45;&gt;SG_0_Node_4 -->
<g id="edge8" class="edge">
<title>SG_0_Node_2&#45;&gt;SG_0_Node_4</title>
<path fill="none" stroke="black" d="M314.05,-882.8C314.22,-830.53 314.71,-672.72 314.91,-608.81"/>
<polygon fill="black" stroke="black" points="318.41,-608.71 314.95,-598.7 311.41,-608.69 318.41,-608.71"/>
<text text-anchor="middle" x="673.5" y="-812.71" font-family="Times,serif" font-size="20.00">brave Android 11 1.60.116 intent real</text>
<text text-anchor="middle" x="673.5" y="-790.71" font-family="Times,serif" font-size="20.00">brave Ubuntu 22.04 1.59.120 (118.0.5993.88) selenium headless&#45;new</text>
<text text-anchor="middle" x="673.5" y="-768.71" font-family="Times,serif" font-size="20.00">brave Ubuntu 22.04 1.59.120 (118.0.5993.88) selenium xvfb</text>
<text text-anchor="middle" x="673.5" y="-746.71" font-family="Times,serif" font-size="20.00">brave Ubuntu 22.04 1.60.114 (119.0.6045.124) selenium headless&#45;new</text>
<text text-anchor="middle" x="673.5" y="-724.71" font-family="Times,serif" font-size="20.00">brave Ubuntu 22.04 1.60.114 (119.0.6045.124) selenium xvfb</text>
<text text-anchor="middle" x="673.5" y="-702.71" font-family="Times,serif" font-size="20.00">chrome Android 11 120.0.6099.44 intent real</text>
<text text-anchor="middle" x="673.5" y="-680.71" font-family="Times,serif" font-size="20.00">chrome Ubuntu 22.04 119 selenium headless&#45;new</text>
<text text-anchor="middle" x="673.5" y="-658.71" font-family="Times,serif" font-size="20.00">chrome Ubuntu 22.04 119 selenium xvfb</text>
</g>
<!-- SG_0_Node_9 -->
<g id="node8" class="node">
<title>SG_0_Node_9</title>
<ellipse fill="none" stroke="black" cx="1056" cy="-580.49" rx="33.88" ry="21.43"/>
<text text-anchor="middle" x="1056" y="-575.49" font-family="Times,serif" font-size="20.00">0.0</text>
</g>
<!-- SG_0_Node_3&#45;&gt;SG_0_Node_9 -->
<g id="edge5" class="edge">
<title>SG_0_Node_3&#45;&gt;SG_0_Node_9</title>
<path fill="none" stroke="black" d="M1056,-882.8C1056,-831.4 1056,-677.95 1056,-612.08"/>
<polygon fill="black" stroke="black" points="1059.5,-611.93 1056,-601.93 1052.5,-611.93 1059.5,-611.93"/>
<text text-anchor="middle" x="1302.5" y="-735.71" font-family="Times,serif" font-size="20.00">brave iPadOS 17.2 1.61 (23.12.18.22) intent real</text>
</g>
<!-- SG_0_Node_10 -->
<g id="node9" class="node">
<title>SG_0_Node_10</title>
<ellipse fill="none" stroke="black" cx="1572" cy="-580.49" rx="33.88" ry="21.43"/>
<text text-anchor="middle" x="1572" y="-575.49" font-family="Times,serif" font-size="20.00">1.0</text>
</g>
<!-- SG_0_Node_3&#45;&gt;SG_0_Node_10 -->
<g id="edge6" class="edge">
<title>SG_0_Node_3&#45;&gt;SG_0_Node_10</title>
<path fill="none" stroke="black" d="M1106.78,-899.65C1226.58,-898.51 1519.11,-892.56 1550,-861.71 1616.79,-794.99 1595.2,-669.08 1580.66,-611.55"/>
<polygon fill="black" stroke="black" points="1583.98,-610.41 1578.05,-601.63 1577.21,-612.19 1583.98,-610.41"/>
<text text-anchor="middle" x="1640.5" y="-746.71" font-family="Times,serif" font-size="20.00">[NA]</text>
<text text-anchor="middle" x="1640.5" y="-724.71" font-family="Times,serif" font-size="20.00">18 levels</text>
</g>
<!-- SG_0_Node_5 -->
<g id="node10" class="node">
<title>SG_0_Node_5</title>
<polygon fill="none" stroke="black" points="257,-432.07 135,-432.07 135,-396.07 257,-396.07 257,-432.07"/>
<text text-anchor="middle" x="196" y="-409.07" font-family="Times,serif" font-size="20.00">org_origin</text>
</g>
<!-- SG_0_Node_4&#45;&gt;SG_0_Node_5 -->
<g id="edge9" class="edge">
<title>SG_0_Node_4&#45;&gt;SG_0_Node_5</title>
<path fill="none" stroke="black" d="M251.71,-562.42C225.69,-554.78 200.72,-546.36 197,-541.28 175.97,-512.61 181.2,-469.57 187.85,-441.9"/>
<polygon fill="black" stroke="black" points="191.26,-442.67 190.41,-432.11 184.49,-440.9 191.26,-442.67"/>
<text text-anchor="middle" x="378.5" y="-492.28" font-family="Times,serif" font-size="20.00">http://sub.headers.websec.saarland</text>
</g>
<!-- SG_0_Node_11 -->
<g id="node11" class="node">
<title>SG_0_Node_11</title>
<ellipse fill="none" stroke="black" cx="582" cy="-414.07" rx="33.88" ry="21.43"/>
<text text-anchor="middle" x="582" y="-409.07" font-family="Times,serif" font-size="20.00">1.0</text>
</g>
<!-- SG_0_Node_4&#45;&gt;SG_0_Node_11 -->
<g id="edge10" class="edge">
<title>SG_0_Node_4&#45;&gt;SG_0_Node_11</title>
<path fill="none" stroke="black" d="M381.26,-577.63C445.03,-574.39 535.32,-565.53 560,-541.28 585.04,-516.68 587.57,-474.43 585.82,-445.66"/>
<polygon fill="black" stroke="black" points="589.28,-445.03 584.98,-435.35 582.31,-445.6 589.28,-445.03"/>
<text text-anchor="middle" x="788.5" y="-525.28" font-family="Times,serif" font-size="20.00">[NA]</text>
<text text-anchor="middle" x="788.5" y="-503.28" font-family="Times,serif" font-size="20.00">http://headers.webappsec.eu</text>
<text text-anchor="middle" x="788.5" y="-481.28" font-family="Times,serif" font-size="20.00">http://headers.websec.saarland</text>
<text text-anchor="middle" x="788.5" y="-459.28" font-family="Times,serif" font-size="20.00">http://sub.sub.headers.websec.saarland</text>
</g>
<!-- SG_0_Node_12 -->
<g id="node12" class="node">
<title>SG_0_Node_12</title>
<ellipse fill="none" stroke="black" cx="61" cy="-291.64" rx="33.88" ry="21.43"/>
<text text-anchor="middle" x="61" y="-286.64" font-family="Times,serif" font-size="20.00">0.0</text>
</g>
<!-- SG_0_Node_5&#45;&gt;SG_0_Node_12 -->
<g id="edge11" class="edge">
<title>SG_0_Node_5&#45;&gt;SG_0_Node_12</title>
<path fill="none" stroke="black" d="M134.96,-402.96C104.12,-396.48 71.29,-387.01 62,-374.85 50.87,-360.3 50.65,-339.67 53.2,-322.72"/>
<polygon fill="black" stroke="black" points="56.67,-323.2 55.07,-312.72 49.79,-321.91 56.67,-323.2"/>
<text text-anchor="middle" x="243.5" y="-347.85" font-family="Times,serif" font-size="20.00">http://sub.headers.websec.saarland</text>
</g>
<!-- SG_0_Node_6 -->
<g id="node13" class="node">
<title>SG_0_Node_6</title>
<polygon fill="none" stroke="black" points="497.5,-309.64 396.5,-309.64 396.5,-273.64 497.5,-273.64 497.5,-309.64"/>
<text text-anchor="middle" x="447" y="-286.64" font-family="Times,serif" font-size="20.00">browser</text>
</g>
<!-- SG_0_Node_5&#45;&gt;SG_0_Node_6 -->
<g id="edge12" class="edge">
<title>SG_0_Node_5&#45;&gt;SG_0_Node_6</title>
<path fill="none" stroke="black" d="M257,-410.22C316.34,-406.19 400.94,-396.7 425,-374.85 440.18,-361.07 445.37,-338.07 446.93,-319.9"/>
<polygon fill="black" stroke="black" points="450.43,-320.04 447.49,-309.86 443.44,-319.66 450.43,-320.04"/>
<text text-anchor="middle" x="631.5" y="-358.85" font-family="Times,serif" font-size="20.00">[NA]</text>
<text text-anchor="middle" x="631.5" y="-336.85" font-family="Times,serif" font-size="20.00">https://sub.headers.websec.saarland</text>
</g>
<!-- SG_0_Node_13 -->
<g id="node14" class="node">
<title>SG_0_Node_13</title>
<ellipse fill="none" stroke="black" cx="248" cy="-37.21" rx="33.88" ry="21.43"/>
<text text-anchor="middle" x="248" y="-32.21" font-family="Times,serif" font-size="20.00">0.0</text>
</g>
<!-- SG_0_Node_6&#45;&gt;SG_0_Node_13 -->
<g id="edge13" class="edge">
<title>SG_0_Node_6&#45;&gt;SG_0_Node_13</title>
<path fill="none" stroke="black" d="M396.24,-287.98C343.9,-284.05 267.38,-274.59 249,-252.43 205.52,-200 223.74,-112.95 237.63,-67.65"/>
<polygon fill="black" stroke="black" points="240.97,-68.71 240.68,-58.12 234.3,-66.57 240.97,-68.71"/>
<text text-anchor="middle" x="441.5" y="-159.43" font-family="Times,serif" font-size="20.00">brave Android 11 1.60.116 intent real</text>
</g>
<!-- SG_0_Node_14 -->
<g id="node15" class="node">
<title>SG_0_Node_14</title>
<ellipse fill="none" stroke="black" cx="656" cy="-37.21" rx="33.88" ry="21.43"/>
<text text-anchor="middle" x="656" y="-32.21" font-family="Times,serif" font-size="20.00">1.0</text>
</g>
<!-- SG_0_Node_6&#45;&gt;SG_0_Node_14 -->
<g id="edge14" class="edge">
<title>SG_0_Node_6&#45;&gt;SG_0_Node_14</title>
<path fill="none" stroke="black" d="M497.75,-286.93C546.75,-282.22 616.1,-272.2 634,-252.43 679.86,-201.78 671.45,-114.27 662.89,-68.34"/>
<polygon fill="black" stroke="black" points="666.29,-67.53 660.91,-58.4 659.43,-68.89 666.29,-67.53"/>
<text text-anchor="middle" x="1028.5" y="-225.43" font-family="Times,serif" font-size="20.00">brave Ubuntu 22.04 1.59.120 (118.0.5993.88) selenium headless&#45;new</text>
<text text-anchor="middle" x="1028.5" y="-203.43" font-family="Times,serif" font-size="20.00">brave Ubuntu 22.04 1.59.120 (118.0.5993.88) selenium xvfb</text>
<text text-anchor="middle" x="1028.5" y="-181.43" font-family="Times,serif" font-size="20.00">brave Ubuntu 22.04 1.60.114 (119.0.6045.124) selenium headless&#45;new</text>
<text text-anchor="middle" x="1028.5" y="-159.43" font-family="Times,serif" font-size="20.00">brave Ubuntu 22.04 1.60.114 (119.0.6045.124) selenium xvfb</text>
<text text-anchor="middle" x="1028.5" y="-137.43" font-family="Times,serif" font-size="20.00">chrome Android 11 120.0.6099.44 intent real</text>
<text text-anchor="middle" x="1028.5" y="-115.43" font-family="Times,serif" font-size="20.00">chrome Ubuntu 22.04 119 selenium headless&#45;new</text>
<text text-anchor="middle" x="1028.5" y="-93.43" font-family="Times,serif" font-size="20.00">chrome Ubuntu 22.04 119 selenium xvfb</text>
</g>
<!-- SG_1_Node_0 -->
<g id="node16" class="node">
<title>SG_1_Node_0</title>
<polygon fill="none" stroke="black" points="2453.5,-1358.56 2352.5,-1358.56 2352.5,-1322.56 2453.5,-1322.56 2453.5,-1358.56"/>
<text text-anchor="middle" x="2403" y="-1335.56" font-family="Times,serif" font-size="20.00">browser</text>
</g>
<!-- SG_1_Node_1 -->
<g id="node17" class="node">
<title>SG_1_Node_1</title>
<ellipse fill="none" stroke="black" cx="2370" cy="-1089.35" rx="33.88" ry="21.43"/>
<text text-anchor="middle" x="2370" y="-1084.35" font-family="Times,serif" font-size="20.00">0.0</text>
</g>
<!-- SG_1_Node_0&#45;&gt;SG_1_Node_1 -->
<g id="edge15" class="edge">
<title>SG_1_Node_0&#45;&gt;SG_1_Node_1</title>
<path fill="none" stroke="black" d="M2382.82,-1322.48C2378.04,-1317.27 2373.58,-1311.15 2371,-1304.56 2346.85,-1242.77 2355.87,-1163.08 2363.56,-1120.44"/>
<polygon fill="black" stroke="black" points="2367.03,-1120.91 2365.46,-1110.43 2360.16,-1119.6 2367.03,-1120.91"/>
<text text-anchor="middle" x="2416.5" y="-1222.56" font-family="Times,serif" font-size="20.00">[NA]</text>
<text text-anchor="middle" x="2416.5" y="-1200.56" font-family="Times,serif" font-size="20.00">18 levels</text>
</g>
<!-- SG_1_Node_2 -->
<g id="node18" class="node">
<title>SG_1_Node_2</title>
<ellipse fill="none" stroke="black" cx="2484" cy="-1089.35" rx="33.88" ry="21.43"/>
<text text-anchor="middle" x="2484" y="-1084.35" font-family="Times,serif" font-size="20.00">1.0</text>
</g>
<!-- SG_1_Node_0&#45;&gt;SG_1_Node_2 -->
<g id="edge16" class="edge">
<title>SG_1_Node_0&#45;&gt;SG_1_Node_2</title>
<path fill="none" stroke="black" d="M2443.47,-1322.5C2450.69,-1317.71 2457.38,-1311.78 2462,-1304.56 2498.28,-1247.82 2494.39,-1164.86 2488.91,-1120.68"/>
<polygon fill="black" stroke="black" points="2492.35,-1120.01 2487.54,-1110.57 2485.41,-1120.95 2492.35,-1120.01"/>
<text text-anchor="middle" x="2738.5" y="-1211.56" font-family="Times,serif" font-size="20.00">brave iPadOS 17.2 1.61 (23.12.18.22) intent real</text>
</g>
<!-- SG_2_Node_0 -->
<g id="node19" class="node">
<title>SG_2_Node_0</title>
<polygon fill="none" stroke="black" points="5228.5,-1358.56 5091.5,-1358.56 5091.5,-1322.56 5228.5,-1322.56 5228.5,-1358.56"/>
<text text-anchor="middle" x="5160" y="-1335.56" font-family="Times,serif" font-size="20.00">raw_header</text>
</g>
<!-- SG_2_Node_1 -->
<g id="node20" class="node">
<title>SG_2_Node_1</title>
<polygon fill="none" stroke="black" points="4571,-1107.35 4439,-1107.35 4439,-1071.35 4571,-1071.35 4571,-1107.35"/>
<text text-anchor="middle" x="4505" y="-1084.35" font-family="Times,serif" font-size="20.00">resp_origin</text>
</g>
<!-- SG_2_Node_0&#45;&gt;SG_2_Node_1 -->
<g id="edge17" class="edge">
<title>SG_2_Node_0&#45;&gt;SG_2_Node_1</title>
<path fill="none" stroke="black" d="M5091.28,-1338.39C4927.44,-1335.27 4525.95,-1325.5 4506,-1304.56 4457.82,-1253.96 4479.81,-1162.26 4494.94,-1117.04"/>
<polygon fill="black" stroke="black" points="4498.32,-1117.95 4498.31,-1107.36 4491.71,-1115.65 4498.32,-1117.95"/>
<text text-anchor="middle" x="5193.5" y="-1244.56" font-family="Times,serif" font-size="20.00">[[&#39;Cross&#45;Origin&#45;Opener&#45;Policy&#39;, &#39;same&#45;origin&#39;], [&#39;location&#39;, &#39;https://sub.headers.websec.saarland/_hp/common/empty.html&#39;]]</text>
<text text-anchor="middle" x="5193.5" y="-1222.56" font-family="Times,serif" font-size="20.00">[[&#39;Cross&#45;Origin&#45;Opener&#45;Policy&#39;, &#39;same&#45;origin&#39;]]</text>
<text text-anchor="middle" x="5193.5" y="-1200.56" font-family="Times,serif" font-size="20.00">[[&#39;Cross&#45;Origin&#45;Opener&#45;Policy&#39;, &#39;same&#45;origin&#45;allow&#45;popups&#39;], [&#39;location&#39;, &#39;https://sub.headers.websec.saarland/_hp/common/empty.html&#39;]]</text>
<text text-anchor="middle" x="5193.5" y="-1178.56" font-family="Times,serif" font-size="20.00">[[&#39;Cross&#45;Origin&#45;Opener&#45;Policy&#39;, &#39;same&#45;origin&#45;allow&#45;popups&#39;]]</text>
</g>
<!-- SG_2_Node_2 -->
<g id="node21" class="node">
<title>SG_2_Node_2</title>
<polygon fill="none" stroke="black" points="5953.5,-1107.35 5852.5,-1107.35 5852.5,-1071.35 5953.5,-1071.35 5953.5,-1107.35"/>
<text text-anchor="middle" x="5903" y="-1084.35" font-family="Times,serif" font-size="20.00">browser</text>
</g>
<!-- SG_2_Node_0&#45;&gt;SG_2_Node_2 -->
<g id="edge18" class="edge">
<title>SG_2_Node_0&#45;&gt;SG_2_Node_2</title>
<path fill="none" stroke="black" d="M5228.77,-1338.62C5404.44,-1335.9 5857.56,-1326.77 5881,-1304.56 5932.11,-1256.13 5919.93,-1163.02 5909.91,-1117.18"/>
<polygon fill="black" stroke="black" points="5913.31,-1116.33 5907.65,-1107.38 5906.49,-1117.91 5913.31,-1116.33"/>
<text text-anchor="middle" x="6342" y="-1288.56" font-family="Times,serif" font-size="20.00">[NA]</text>
<text text-anchor="middle" x="6342" y="-1266.56" font-family="Times,serif" font-size="20.00">[[&#39;Cross&#45;Origin&#45;Opener&#45;Policy&#39;, &#39;&#39;]]</text>
<text text-anchor="middle" x="6342" y="-1244.56" font-family="Times,serif" font-size="20.00">[[&#39;Cross&#45;Origin&#45;Opener&#45;Policy&#39;, &#39;*&#39;]]</text>
<text text-anchor="middle" x="6342" y="-1222.56" font-family="Times,serif" font-size="20.00">[[&#39;Cross&#45;Origin&#45;Opener&#45;Policy&#39;, &#39;null&#39;]]</text>
<text text-anchor="middle" x="6342" y="-1200.56" font-family="Times,serif" font-size="20.00">[[&#39;Cross&#45;Origin&#45;Opener&#45;Policy&#39;, &#39;same&#45;origin&#45;plus&#45;COEP&#39;]]</text>
<text text-anchor="middle" x="6342" y="-1178.56" font-family="Times,serif" font-size="20.00">[[&#39;Cross&#45;Origin&#45;Opener&#45;Policy&#39;, &#39;unsafe&#45;none&#39;]]</text>
<text text-anchor="middle" x="6342" y="-1156.56" font-family="Times,serif" font-size="20.00">[[&#39;Cross&#45;Origin&#45;Opener&#45;Policy&#39;, &#39;unsafe&#45;none, same&#45;origin, same&#45;origin&#45;plus&#45;COEP&#39;]]</text>
<text text-anchor="middle" x="6342" y="-1134.56" font-family="Times,serif" font-size="20.00">[]</text>
</g>
<!-- SG_2_Node_8 -->
<g id="node22" class="node">
<title>SG_2_Node_8</title>
<ellipse fill="none" stroke="black" cx="4466" cy="-900.92" rx="33.88" ry="21.43"/>
<text text-anchor="middle" x="4466" y="-895.92" font-family="Times,serif" font-size="20.00">0.0</text>
</g>
<!-- SG_2_Node_1&#45;&gt;SG_2_Node_8 -->
<g id="edge21" class="edge">
<title>SG_2_Node_1&#45;&gt;SG_2_Node_8</title>
<path fill="none" stroke="black" d="M4482.27,-1071.17C4476.15,-1065.25 4470.31,-1058.08 4467,-1050.13 4451.07,-1011.88 4454.78,-963.12 4459.73,-932.19"/>
<polygon fill="black" stroke="black" points="4463.23,-932.5 4461.5,-922.05 4456.34,-931.29 4463.23,-932.5"/>
<text text-anchor="middle" x="4674.5" y="-1023.13" font-family="Times,serif" font-size="20.00">https://headers.webappsec.eu</text>
<text text-anchor="middle" x="4674.5" y="-1001.13" font-family="Times,serif" font-size="20.00">https://headers.websec.saarland</text>
<text text-anchor="middle" x="4674.5" y="-979.13" font-family="Times,serif" font-size="20.00">https://sub.headers.websec.saarland</text>
<text text-anchor="middle" x="4674.5" y="-957.13" font-family="Times,serif" font-size="20.00">https://sub.sub.headers.websec.saarland</text>
</g>
<!-- SG_2_Node_3 -->
<g id="node23" class="node">
<title>SG_2_Node_3</title>
<polygon fill="none" stroke="black" points="4954.5,-918.92 4853.5,-918.92 4853.5,-882.92 4954.5,-882.92 4954.5,-918.92"/>
<text text-anchor="middle" x="4904" y="-895.92" font-family="Times,serif" font-size="20.00">browser</text>
</g>
<!-- SG_2_Node_1&#45;&gt;SG_2_Node_3 -->
<g id="edge22" class="edge">
<title>SG_2_Node_1&#45;&gt;SG_2_Node_3</title>
<path fill="none" stroke="black" d="M4571.25,-1085.99C4673.42,-1081.71 4860.02,-1071.11 4882,-1050.13 4914.43,-1019.17 4913.16,-962.72 4908.88,-929.14"/>
<polygon fill="black" stroke="black" points="4912.32,-928.49 4907.42,-919.1 4905.39,-929.5 4912.32,-928.49"/>
<text text-anchor="middle" x="5113.5" y="-1034.13" font-family="Times,serif" font-size="20.00">[NA]</text>
<text text-anchor="middle" x="5113.5" y="-1012.13" font-family="Times,serif" font-size="20.00">http://headers.webappsec.eu</text>
<text text-anchor="middle" x="5113.5" y="-990.13" font-family="Times,serif" font-size="20.00">http://headers.websec.saarland</text>
<text text-anchor="middle" x="5113.5" y="-968.13" font-family="Times,serif" font-size="20.00">http://sub.headers.websec.saarland</text>
<text text-anchor="middle" x="5113.5" y="-946.13" font-family="Times,serif" font-size="20.00">http://sub.sub.headers.websec.saarland</text>
</g>
<!-- SG_2_Node_9 -->
<g id="node24" class="node">
<title>SG_2_Node_9</title>
<ellipse fill="none" stroke="black" cx="5645" cy="-900.92" rx="33.88" ry="21.43"/>
<text text-anchor="middle" x="5645" y="-895.92" font-family="Times,serif" font-size="20.00">0.0</text>
</g>
<!-- SG_2_Node_2&#45;&gt;SG_2_Node_9 -->
<g id="edge19" class="edge">
<title>SG_2_Node_2&#45;&gt;SG_2_Node_9</title>
<path fill="none" stroke="black" d="M5852.44,-1088.29C5785.33,-1087.02 5672.21,-1080.32 5646,-1050.13 5617.91,-1017.78 5625.94,-964.83 5634.98,-931.75"/>
<polygon fill="black" stroke="black" points="5638.45,-932.34 5637.91,-921.76 5631.74,-930.37 5638.45,-932.34"/>
<text text-anchor="middle" x="5892.5" y="-990.13" font-family="Times,serif" font-size="20.00">brave iPadOS 17.2 1.61 (23.12.18.22) intent real</text>
</g>
<!-- SG_2_Node_10 -->
<g id="node25" class="node">
<title>SG_2_Node_10</title>
<ellipse fill="none" stroke="black" cx="6161" cy="-900.92" rx="33.88" ry="21.43"/>
<text text-anchor="middle" x="6161" y="-895.92" font-family="Times,serif" font-size="20.00">1.0</text>
</g>
<!-- SG_2_Node_2&#45;&gt;SG_2_Node_10 -->
<g id="edge20" class="edge">
<title>SG_2_Node_2&#45;&gt;SG_2_Node_10</title>
<path fill="none" stroke="black" d="M5953.65,-1086.95C6015.16,-1084.13 6113.82,-1075.65 6139,-1050.13 6169.42,-1019.31 6169.58,-965.89 6165.97,-932.31"/>
<polygon fill="black" stroke="black" points="6169.41,-931.64 6164.7,-922.15 6162.47,-932.51 6169.41,-931.64"/>
<text text-anchor="middle" x="6212.5" y="-1001.13" font-family="Times,serif" font-size="20.00">[NA]</text>
<text text-anchor="middle" x="6212.5" y="-979.13" font-family="Times,serif" font-size="20.00">18 levels</text>
</g>
<!-- SG_2_Node_4 -->
<g id="node26" class="node">
<title>SG_2_Node_4</title>
<polygon fill="none" stroke="black" points="4928,-598.49 4796,-598.49 4796,-562.49 4928,-562.49 4928,-598.49"/>
<text text-anchor="middle" x="4862" y="-575.49" font-family="Times,serif" font-size="20.00">resp_origin</text>
</g>
<!-- SG_2_Node_3&#45;&gt;SG_2_Node_4 -->
<g id="edge23" class="edge">
<title>SG_2_Node_3&#45;&gt;SG_2_Node_4</title>
<path fill="none" stroke="black" d="M4879.06,-882.68C4872.62,-876.84 4866.51,-869.73 4863,-861.71 4825.44,-775.77 4843.88,-660.35 4855.28,-608.59"/>
<polygon fill="black" stroke="black" points="4858.76,-609.08 4857.58,-598.55 4851.94,-607.51 4858.76,-609.08"/>
<text text-anchor="middle" x="5222.5" y="-823.71" font-family="Times,serif" font-size="20.00">brave Android 11 1.60.116 intent real</text>
<text text-anchor="middle" x="5222.5" y="-801.71" font-family="Times,serif" font-size="20.00">brave Ubuntu 22.04 1.59.120 (118.0.5993.88) selenium headless&#45;new</text>
<text text-anchor="middle" x="5222.5" y="-779.71" font-family="Times,serif" font-size="20.00">brave Ubuntu 22.04 1.59.120 (118.0.5993.88) selenium xvfb</text>
<text text-anchor="middle" x="5222.5" y="-757.71" font-family="Times,serif" font-size="20.00">brave Ubuntu 22.04 1.60.114 (119.0.6045.124) selenium headless&#45;new</text>
<text text-anchor="middle" x="5222.5" y="-735.71" font-family="Times,serif" font-size="20.00">brave Ubuntu 22.04 1.60.114 (119.0.6045.124) selenium xvfb</text>
<text text-anchor="middle" x="5222.5" y="-713.71" font-family="Times,serif" font-size="20.00">brave iPadOS 17.2 1.61 (23.12.18.22) intent real</text>
<text text-anchor="middle" x="5222.5" y="-691.71" font-family="Times,serif" font-size="20.00">chrome Android 11 120.0.6099.44 intent real</text>
<text text-anchor="middle" x="5222.5" y="-669.71" font-family="Times,serif" font-size="20.00">chrome Ubuntu 22.04 119 selenium headless&#45;new</text>
<text text-anchor="middle" x="5222.5" y="-647.71" font-family="Times,serif" font-size="20.00">chrome Ubuntu 22.04 119 selenium xvfb</text>
</g>
<!-- SG_2_Node_11 -->
<g id="node27" class="node">
<title>SG_2_Node_11</title>
<ellipse fill="none" stroke="black" cx="5604" cy="-580.49" rx="33.88" ry="21.43"/>
<text text-anchor="middle" x="5604" y="-575.49" font-family="Times,serif" font-size="20.00">1.0</text>
</g>
<!-- SG_2_Node_3&#45;&gt;SG_2_Node_11 -->
<g id="edge24" class="edge">
<title>SG_2_Node_3&#45;&gt;SG_2_Node_11</title>
<path fill="none" stroke="black" d="M4954.68,-898.87C5108.29,-895.45 5559.64,-883.58 5582,-861.71 5649.49,-795.69 5627.54,-669.43 5612.79,-611.67"/>
<polygon fill="black" stroke="black" points="5616.09,-610.48 5610.14,-601.72 5609.33,-612.28 5616.09,-610.48"/>
<text text-anchor="middle" x="5870.5" y="-845.71" font-family="Times,serif" font-size="20.00">[NA]</text>
<text text-anchor="middle" x="5870.5" y="-823.71" font-family="Times,serif" font-size="20.00">chrome iPadOS 17.2 120.0.6099.119 intent real</text>
<text text-anchor="middle" x="5870.5" y="-801.71" font-family="Times,serif" font-size="20.00">edge Ubuntu 22.04 119 selenium headless&#45;new</text>
<text text-anchor="middle" x="5870.5" y="-779.71" font-family="Times,serif" font-size="20.00">edge Ubuntu 22.04 119 selenium xvfb</text>
<text text-anchor="middle" x="5870.5" y="-757.71" font-family="Times,serif" font-size="20.00">edge iPadOS 17.2 120.0.2210.116 intent real</text>
<text text-anchor="middle" x="5870.5" y="-735.71" font-family="Times,serif" font-size="20.00">firefox Ubuntu 22.04 119 selenium headless</text>
<text text-anchor="middle" x="5870.5" y="-713.71" font-family="Times,serif" font-size="20.00">firefox Ubuntu 22.04 119 selenium xvfb</text>
<text text-anchor="middle" x="5870.5" y="-691.71" font-family="Times,serif" font-size="20.00">firefox iPadOS 17.2 121.0 (36782) intent real</text>
<text text-anchor="middle" x="5870.5" y="-669.71" font-family="Times,serif" font-size="20.00">firefox_beta Android 11 122.0b1 intent real</text>
<text text-anchor="middle" x="5870.5" y="-647.71" font-family="Times,serif" font-size="20.00">opera Android 11 78.4.4143.75735 intent real</text>
<text text-anchor="middle" x="5870.5" y="-625.71" font-family="Times,serif" font-size="20.00">operagx iPadOS 17.2 2.2.2 intent real</text>
</g>
<!-- SG_2_Node_12 -->
<g id="node28" class="node">
<title>SG_2_Node_12</title>
<ellipse fill="none" stroke="black" cx="4773" cy="-414.07" rx="33.88" ry="21.43"/>
<text text-anchor="middle" x="4773" y="-409.07" font-family="Times,serif" font-size="20.00">0.0</text>
</g>
<!-- SG_2_Node_4&#45;&gt;SG_2_Node_12 -->
<g id="edge25" class="edge">
<title>SG_2_Node_4&#45;&gt;SG_2_Node_12</title>
<path fill="none" stroke="black" d="M4797.68,-562.25C4788.32,-557 4779.88,-550.17 4774,-541.28 4755.24,-512.92 4758.85,-472.57 4764.61,-445.18"/>
<polygon fill="black" stroke="black" points="4768.04,-445.9 4766.88,-435.37 4761.22,-444.33 4768.04,-445.9"/>
<text text-anchor="middle" x="4976.5" y="-525.28" font-family="Times,serif" font-size="20.00">[NA]</text>
<text text-anchor="middle" x="4976.5" y="-503.28" font-family="Times,serif" font-size="20.00">http://headers.webappsec.eu</text>
<text text-anchor="middle" x="4976.5" y="-481.28" font-family="Times,serif" font-size="20.00">http://headers.websec.saarland</text>
<text text-anchor="middle" x="4976.5" y="-459.28" font-family="Times,serif" font-size="20.00">http://sub.sub.headers.websec.saarland</text>
</g>
<!-- SG_2_Node_5 -->
<g id="node29" class="node">
<title>SG_2_Node_5</title>
<polygon fill="none" stroke="black" points="5262,-432.07 5140,-432.07 5140,-396.07 5262,-396.07 5262,-432.07"/>
<text text-anchor="middle" x="5201" y="-409.07" font-family="Times,serif" font-size="20.00">org_origin</text>
</g>
<!-- SG_2_Node_4&#45;&gt;SG_2_Node_5 -->
<g id="edge26" class="edge">
<title>SG_2_Node_4&#45;&gt;SG_2_Node_5</title>
<path fill="none" stroke="black" d="M4928.32,-580.46C5010.53,-580.18 5144.06,-574.42 5179,-541.28 5205.47,-516.17 5207.05,-471.41 5204.77,-442.5"/>
<polygon fill="black" stroke="black" points="5208.22,-441.87 5203.75,-432.27 5201.26,-442.57 5208.22,-441.87"/>
<text text-anchor="middle" x="5386.5" y="-492.28" font-family="Times,serif" font-size="20.00">http://sub.headers.websec.saarland</text>
</g>
<!-- SG_2_Node_6 -->
<g id="node30" class="node">
<title>SG_2_Node_6</title>
<polygon fill="none" stroke="black" points="5204.5,-309.64 5103.5,-309.64 5103.5,-273.64 5204.5,-273.64 5204.5,-309.64"/>
<text text-anchor="middle" x="5154" y="-286.64" font-family="Times,serif" font-size="20.00">browser</text>
</g>
<!-- SG_2_Node_5&#45;&gt;SG_2_Node_6 -->
<g id="edge27" class="edge">
<title>SG_2_Node_5&#45;&gt;SG_2_Node_6</title>
<path fill="none" stroke="black" d="M5177.48,-395.92C5171.06,-390 5164.82,-382.82 5161,-374.85 5152.88,-357.9 5151.25,-336.72 5151.58,-320.1"/>
<polygon fill="black" stroke="black" points="5155.09,-320.08 5152.04,-309.93 5148.09,-319.76 5155.09,-320.08"/>
<text text-anchor="middle" x="5347.5" y="-347.85" font-family="Times,serif" font-size="20.00">https://sub.headers.websec.saarland</text>
</g>
<!-- SG_2_Node_7 -->
<g id="node31" class="node">
<title>SG_2_Node_7</title>
<polygon fill="none" stroke="black" points="5612.5,-309.64 5511.5,-309.64 5511.5,-273.64 5612.5,-273.64 5612.5,-309.64"/>
<text text-anchor="middle" x="5562" y="-286.64" font-family="Times,serif" font-size="20.00">browser</text>
</g>
<!-- SG_2_Node_5&#45;&gt;SG_2_Node_7 -->
<g id="edge28" class="edge">
<title>SG_2_Node_5&#45;&gt;SG_2_Node_7</title>
<path fill="none" stroke="black" d="M5262.25,-413.64C5346.8,-413.2 5493.45,-407.54 5534,-374.85 5550.39,-361.64 5557.23,-338.39 5560.06,-319.98"/>
<polygon fill="black" stroke="black" points="5563.57,-320.16 5561.31,-309.81 5556.62,-319.31 5563.57,-320.16"/>
<text text-anchor="middle" x="5738.5" y="-358.85" font-family="Times,serif" font-size="20.00">[NA]</text>
<text text-anchor="middle" x="5738.5" y="-336.85" font-family="Times,serif" font-size="20.00">http://sub.headers.websec.saarland</text>
</g>
<!-- SG_2_Node_13 -->
<g id="node32" class="node">
<title>SG_2_Node_13</title>
<ellipse fill="none" stroke="black" cx="4428" cy="-37.21" rx="33.88" ry="21.43"/>
<text text-anchor="middle" x="4428" y="-32.21" font-family="Times,serif" font-size="20.00">0.0</text>
</g>
<!-- SG_2_Node_6&#45;&gt;SG_2_Node_13 -->
<g id="edge31" class="edge">
<title>SG_2_Node_6&#45;&gt;SG_2_Node_13</title>
<path fill="none" stroke="black" d="M5103.32,-289.84C4942.73,-287.06 4454.28,-276.63 4431,-252.43 4383.54,-203.08 4402.78,-113.94 4417.34,-67.75"/>
<polygon fill="black" stroke="black" points="4420.73,-68.64 4420.53,-58.04 4414.08,-66.45 4420.73,-68.64"/>
<text text-anchor="middle" x="4790.5" y="-236.43" font-family="Times,serif" font-size="20.00">brave Ubuntu 22.04 1.59.120 (118.0.5993.88) selenium headless&#45;new</text>
<text text-anchor="middle" x="4790.5" y="-214.43" font-family="Times,serif" font-size="20.00">brave Ubuntu 22.04 1.59.120 (118.0.5993.88) selenium xvfb</text>
<text text-anchor="middle" x="4790.5" y="-192.43" font-family="Times,serif" font-size="20.00">brave Ubuntu 22.04 1.60.114 (119.0.6045.124) selenium headless&#45;new</text>
<text text-anchor="middle" x="4790.5" y="-170.43" font-family="Times,serif" font-size="20.00">brave Ubuntu 22.04 1.60.114 (119.0.6045.124) selenium xvfb</text>
<text text-anchor="middle" x="4790.5" y="-148.43" font-family="Times,serif" font-size="20.00">brave iPadOS 17.2 1.61 (23.12.18.22) intent real</text>
<text text-anchor="middle" x="4790.5" y="-126.43" font-family="Times,serif" font-size="20.00">chrome Android 11 120.0.6099.44 intent real</text>
<text text-anchor="middle" x="4790.5" y="-104.43" font-family="Times,serif" font-size="20.00">chrome Ubuntu 22.04 119 selenium headless&#45;new</text>
<text text-anchor="middle" x="4790.5" y="-82.43" font-family="Times,serif" font-size="20.00">chrome Ubuntu 22.04 119 selenium xvfb</text>
</g>
<!-- SG_2_Node_14 -->
<g id="node33" class="node">
<title>SG_2_Node_14</title>
<ellipse fill="none" stroke="black" cx="5154" cy="-37.21" rx="33.88" ry="21.43"/>
<text text-anchor="middle" x="5154" y="-32.21" font-family="Times,serif" font-size="20.00">1.0</text>
</g>
<!-- SG_2_Node_6&#45;&gt;SG_2_Node_14 -->
<g id="edge32" class="edge">
<title>SG_2_Node_6&#45;&gt;SG_2_Node_14</title>
<path fill="none" stroke="black" d="M5154,-273.29C5154,-230.98 5154,-122.07 5154,-68.66"/>
<polygon fill="black" stroke="black" points="5157.5,-68.45 5154,-58.45 5150.5,-68.45 5157.5,-68.45"/>
<text text-anchor="middle" x="5346.5" y="-159.43" font-family="Times,serif" font-size="20.00">brave Android 11 1.60.116 intent real</text>
</g>
<!-- SG_2_Node_15 -->
<g id="node34" class="node">
<title>SG_2_Node_15</title>
<ellipse fill="none" stroke="black" cx="5562" cy="-37.21" rx="33.88" ry="21.43"/>
<text text-anchor="middle" x="5562" y="-32.21" font-family="Times,serif" font-size="20.00">0.0</text>
</g>
<!-- SG_2_Node_7&#45;&gt;SG_2_Node_15 -->
<g id="edge29" class="edge">
<title>SG_2_Node_7&#45;&gt;SG_2_Node_15</title>
<path fill="none" stroke="black" d="M5562,-273.29C5562,-230.98 5562,-122.07 5562,-68.66"/>
<polygon fill="black" stroke="black" points="5565.5,-68.45 5562,-58.45 5558.5,-68.45 5565.5,-68.45"/>
<text text-anchor="middle" x="5808.5" y="-159.43" font-family="Times,serif" font-size="20.00">brave iPadOS 17.2 1.61 (23.12.18.22) intent real</text>
</g>
<!-- SG_2_Node_16 -->
<g id="node35" class="node">
<title>SG_2_Node_16</title>
<ellipse fill="none" stroke="black" cx="6078" cy="-37.21" rx="33.88" ry="21.43"/>
<text text-anchor="middle" x="6078" y="-32.21" font-family="Times,serif" font-size="20.00">1.0</text>
</g>
<!-- SG_2_Node_7&#45;&gt;SG_2_Node_16 -->
<g id="edge30" class="edge">
<title>SG_2_Node_7&#45;&gt;SG_2_Node_16</title>
<path fill="none" stroke="black" d="M5612.74,-290.32C5732.43,-289.07 6024.75,-282.9 6056,-252.43 6105.27,-204.38 6095.06,-114.67 6085.43,-68.06"/>
<polygon fill="black" stroke="black" points="6088.84,-67.28 6083.28,-58.26 6082.01,-68.78 6088.84,-67.28"/>
<text text-anchor="middle" x="6452.5" y="-236.43" font-family="Times,serif" font-size="20.00">brave Android 11 1.60.116 intent real</text>
<text text-anchor="middle" x="6452.5" y="-214.43" font-family="Times,serif" font-size="20.00">brave Ubuntu 22.04 1.59.120 (118.0.5993.88) selenium headless&#45;new</text>
<text text-anchor="middle" x="6452.5" y="-192.43" font-family="Times,serif" font-size="20.00">brave Ubuntu 22.04 1.59.120 (118.0.5993.88) selenium xvfb</text>
<text text-anchor="middle" x="6452.5" y="-170.43" font-family="Times,serif" font-size="20.00">brave Ubuntu 22.04 1.60.114 (119.0.6045.124) selenium headless&#45;new</text>
<text text-anchor="middle" x="6452.5" y="-148.43" font-family="Times,serif" font-size="20.00">brave Ubuntu 22.04 1.60.114 (119.0.6045.124) selenium xvfb</text>
<text text-anchor="middle" x="6452.5" y="-126.43" font-family="Times,serif" font-size="20.00">chrome Android 11 120.0.6099.44 intent real</text>
<text text-anchor="middle" x="6452.5" y="-104.43" font-family="Times,serif" font-size="20.00">chrome Ubuntu 22.04 119 selenium headless&#45;new</text>
<text text-anchor="middle" x="6452.5" y="-82.43" font-family="Times,serif" font-size="20.00">chrome Ubuntu 22.04 119 selenium xvfb</text>
</g>
</g>
</svg>
