<?xml version="1.0" encoding="UTF-8" standalone="no"?>
<!DOCTYPE svg PUBLIC "-//W3C//DTD SVG 1.1//EN"
 "http://www.w3.org/Graphics/SVG/1.1/DTD/svg11.dtd">
<!-- Generated by graphviz version 2.43.0 (0)
 -->
<!-- Title: G Pages: 1 -->
<svg width="1314pt" height="316pt"
 viewBox="0.00 0.00 1314.00 316.43" xmlns="http://www.w3.org/2000/svg" xmlns:xlink="http://www.w3.org/1999/xlink">
<g id="graph0" class="graph" transform="scale(1 1) rotate(0) translate(4 312.43)">
<title>G</title>
<polygon fill="white" stroke="transparent" points="-4,4 -4,-312.43 1310,-312.43 1310,4 -4,4"/>
<g id="clust1" class="cluster">
<title>cluster_0</title>
<polygon fill="none" stroke="black" points="8,-8 8,-300.43 649,-300.43 649,-8 8,-8"/>
<text text-anchor="middle" x="328.5" y="-264.43" font-family="Times,serif" font-size="40.00">Tree 0, Class message send</text>
</g>
<g id="clust4" class="cluster">
<title>cluster_1</title>
<polygon fill="none" stroke="black" points="657,-8 657,-300.43 1298,-300.43 1298,-8 657,-8"/>
<text text-anchor="middle" x="977.5" y="-264.43" font-family="Times,serif" font-size="40.00">Tree 0, Class message timeout</text>
</g>
<!-- SG_0_Node_0 -->
<g id="node1" class="node">
<title>SG_0_Node_0</title>
<polygon fill="none" stroke="black" points="358.5,-240.43 257.5,-240.43 257.5,-204.43 358.5,-204.43 358.5,-240.43"/>
<text text-anchor="middle" x="308" y="-217.43" font-family="Times,serif" font-size="20.00">browser</text>
</g>
<!-- SG_0_Node_1 -->
<g id="node2" class="node">
<title>SG_0_Node_1</title>
<ellipse fill="none" stroke="black" cx="50" cy="-37.21" rx="33.88" ry="21.43"/>
<text text-anchor="middle" x="50" y="-32.21" font-family="Times,serif" font-size="20.00">0.0</text>
</g>
<!-- SG_0_Node_0&#45;&gt;SG_0_Node_1 -->
<g id="edge1" class="edge">
<title>SG_0_Node_0&#45;&gt;SG_0_Node_1</title>
<path fill="none" stroke="black" d="M257.47,-218.61C181.65,-213.86 45.71,-203.11 31,-186.43 2.04,-153.57 19.54,-99.59 34.82,-66.63"/>
<polygon fill="black" stroke="black" points="38.02,-68.06 39.23,-57.53 31.72,-65 38.02,-68.06"/>
<text text-anchor="middle" x="277.5" y="-170.43" font-family="Times,serif" font-size="20.00">brave iPadOS 17.2 1.61 (23.12.18.22) intent real</text>
<text text-anchor="middle" x="277.5" y="-148.43" font-family="Times,serif" font-size="20.00">chrome iPadOS 17.2 120.0.6099.119 intent real</text>
<text text-anchor="middle" x="277.5" y="-126.43" font-family="Times,serif" font-size="20.00">edge iPadOS 17.2 120.0.2210.116 intent real</text>
<text text-anchor="middle" x="277.5" y="-104.43" font-family="Times,serif" font-size="20.00">firefox iPadOS 17.2 121.0 (36782) intent real</text>
<text text-anchor="middle" x="277.5" y="-82.43" font-family="Times,serif" font-size="20.00">operagx iPadOS 17.2 2.2.2 intent real</text>
</g>
<!-- SG_0_Node_2 -->
<g id="node3" class="node">
<title>SG_0_Node_2</title>
<ellipse fill="none" stroke="black" cx="550" cy="-37.21" rx="33.88" ry="21.43"/>
<text text-anchor="middle" x="550" y="-32.21" font-family="Times,serif" font-size="20.00">1.0</text>
</g>
<!-- SG_0_Node_0&#45;&gt;SG_0_Node_2 -->
<g id="edge2" class="edge">
<title>SG_0_Node_0&#45;&gt;SG_0_Node_2</title>
<path fill="none" stroke="black" d="M358.74,-220.11C416.24,-217.49 504.98,-209.69 528,-186.43 558.46,-155.64 558.61,-102.22 554.99,-68.62"/>
<polygon fill="black" stroke="black" points="558.43,-67.94 553.71,-58.46 551.48,-68.81 558.43,-67.94"/>
<text text-anchor="middle" x="601.5" y="-137.43" font-family="Times,serif" font-size="20.00">[NA]</text>
<text text-anchor="middle" x="601.5" y="-115.43" font-family="Times,serif" font-size="20.00">14 levels</text>
</g>
<!-- SG_1_Node_0 -->
<g id="node4" class="node">
<title>SG_1_Node_0</title>
<polygon fill="none" stroke="black" points="806.5,-240.43 705.5,-240.43 705.5,-204.43 806.5,-204.43 806.5,-240.43"/>
<text text-anchor="middle" x="756" y="-217.43" font-family="Times,serif" font-size="20.00">browser</text>
</g>
<!-- SG_1_Node_1 -->
<g id="node5" class="node">
<title>SG_1_Node_1</title>
<ellipse fill="none" stroke="black" cx="699" cy="-37.21" rx="33.88" ry="21.43"/>
<text text-anchor="middle" x="699" y="-32.21" font-family="Times,serif" font-size="20.00">0.0</text>
</g>
<!-- SG_1_Node_0&#45;&gt;SG_1_Node_1 -->
<g id="edge3" class="edge">
<title>SG_1_Node_0&#45;&gt;SG_1_Node_1</title>
<path fill="none" stroke="black" d="M705.34,-207.84C695.31,-202.77 686.03,-195.85 680,-186.43 653.63,-145.26 668.82,-124.02 680,-76.43 680.76,-73.18 681.84,-69.9 683.11,-66.68"/>
<polygon fill="black" stroke="black" points="686.38,-67.94 687.32,-57.39 680,-65.06 686.38,-67.94"/>
<text text-anchor="middle" x="725.5" y="-137.43" font-family="Times,serif" font-size="20.00">[NA]</text>
<text text-anchor="middle" x="725.5" y="-115.43" font-family="Times,serif" font-size="20.00">14 levels</text>
</g>
<!-- SG_1_Node_2 -->
<g id="node6" class="node">
<title>SG_1_Node_2</title>
<ellipse fill="none" stroke="black" cx="797" cy="-37.21" rx="33.88" ry="21.43"/>
<text text-anchor="middle" x="797" y="-32.21" font-family="Times,serif" font-size="20.00">1.0</text>
</g>
<!-- SG_1_Node_0&#45;&gt;SG_1_Node_2 -->
<g id="edge4" class="edge">
<title>SG_1_Node_0&#45;&gt;SG_1_Node_2</title>
<path fill="none" stroke="black" d="M766.92,-204.17C769.96,-198.68 772.98,-192.46 775,-186.43 788.12,-147.14 793.43,-99.39 795.57,-68.9"/>
<polygon fill="black" stroke="black" points="799.07,-69.08 796.2,-58.87 792.08,-68.63 799.07,-69.08"/>
<text text-anchor="middle" x="1040.5" y="-170.43" font-family="Times,serif" font-size="20.00">brave iPadOS 17.2 1.61 (23.12.18.22) intent real</text>
<text text-anchor="middle" x="1040.5" y="-148.43" font-family="Times,serif" font-size="20.00">chrome iPadOS 17.2 120.0.6099.119 intent real</text>
<text text-anchor="middle" x="1040.5" y="-126.43" font-family="Times,serif" font-size="20.00">edge iPadOS 17.2 120.0.2210.116 intent real</text>
<text text-anchor="middle" x="1040.5" y="-104.43" font-family="Times,serif" font-size="20.00">firefox iPadOS 17.2 121.0 (36782) intent real</text>
<text text-anchor="middle" x="1040.5" y="-82.43" font-family="Times,serif" font-size="20.00">operagx iPadOS 17.2 2.2.2 intent real</text>
</g>
</g>
</svg>
