<?xml version="1.0" encoding="UTF-8" standalone="no"?>
<!DOCTYPE svg PUBLIC "-//W3C//DTD SVG 1.1//EN"
 "http://www.w3.org/Graphics/SVG/1.1/DTD/svg11.dtd">
<!-- Generated by graphviz version 2.43.0 (0)
 -->
<!-- Title: G Pages: 1 -->
<svg width="2489pt" height="272pt"
 viewBox="0.00 0.00 2489.00 272.43" xmlns="http://www.w3.org/2000/svg" xmlns:xlink="http://www.w3.org/1999/xlink">
<g id="graph0" class="graph" transform="scale(1 1) rotate(0) translate(4 268.43)">
<title>G</title>
<polygon fill="white" stroke="transparent" points="-4,4 -4,-268.43 2485,-268.43 2485,4 -4,4"/>
<g id="clust1" class="cluster">
<title>cluster_0</title>
<polygon fill="none" stroke="black" points="8,-8 8,-256.43 793,-256.43 793,-8 8,-8"/>
<text text-anchor="middle" x="400.5" y="-220.43" font-family="Times,serif" font-size="40.00">Tree 0, Class fullscreenEnabled: false</text>
</g>
<g id="clust4" class="cluster">
<title>cluster_1</title>
<polygon fill="none" stroke="black" points="801,-8 801,-256.43 1574,-256.43 1574,-8 801,-8"/>
<text text-anchor="middle" x="1187.5" y="-220.43" font-family="Times,serif" font-size="40.00">Tree 0, Class fullscreenEnabled: true</text>
</g>
<g id="clust7" class="cluster">
<title>cluster_2</title>
<polygon fill="none" stroke="black" points="1582,-8 1582,-256.43 2473,-256.43 2473,-8 1582,-8"/>
<text text-anchor="middle" x="2027.5" y="-220.43" font-family="Times,serif" font-size="40.00">Tree 0, Class fullscreenEnabled: undefined</text>
</g>
<!-- SG_0_Node_0 -->
<g id="node1" class="node">
<title>SG_0_Node_0</title>
<polygon fill="none" stroke="black" points="366.5,-196.43 265.5,-196.43 265.5,-160.43 366.5,-160.43 366.5,-196.43"/>
<text text-anchor="middle" x="316" y="-173.43" font-family="Times,serif" font-size="20.00">browser</text>
</g>
<!-- SG_0_Node_1 -->
<g id="node2" class="node">
<title>SG_0_Node_1</title>
<ellipse fill="none" stroke="black" cx="114" cy="-37.21" rx="33.88" ry="21.43"/>
<text text-anchor="middle" x="114" y="-32.21" font-family="Times,serif" font-size="20.00">0.0</text>
</g>
<!-- SG_0_Node_0&#45;&gt;SG_0_Node_1 -->
<g id="edge1" class="edge">
<title>SG_0_Node_0&#45;&gt;SG_0_Node_1</title>
<path fill="none" stroke="black" d="M265.03,-175.75C211.95,-172.8 133.91,-164.7 115,-142.43 97.84,-122.21 100,-90.99 104.98,-67.99"/>
<polygon fill="black" stroke="black" points="108.43,-68.61 107.41,-58.06 101.63,-66.95 108.43,-68.61"/>
<text text-anchor="middle" x="361.5" y="-126.43" font-family="Times,serif" font-size="20.00">brave iPadOS 17.2 1.61 (23.12.18.22) intent real</text>
<text text-anchor="middle" x="361.5" y="-104.43" font-family="Times,serif" font-size="20.00">firefox iPadOS 17.2 121.0 (36782) intent real</text>
<text text-anchor="middle" x="361.5" y="-82.43" font-family="Times,serif" font-size="20.00">operagx iPadOS 17.2 2.2.2 intent real</text>
</g>
<!-- SG_0_Node_2 -->
<g id="node3" class="node">
<title>SG_0_Node_2</title>
<ellipse fill="none" stroke="black" cx="630" cy="-37.21" rx="33.88" ry="21.43"/>
<text text-anchor="middle" x="630" y="-32.21" font-family="Times,serif" font-size="20.00">1.0</text>
</g>
<!-- SG_0_Node_0&#45;&gt;SG_0_Node_2 -->
<g id="edge2" class="edge">
<title>SG_0_Node_0&#45;&gt;SG_0_Node_2</title>
<path fill="none" stroke="black" d="M366.8,-178.21C440.96,-178.24 573.77,-173.75 608,-142.43 628.11,-124.02 632.36,-92.26 632.34,-68.62"/>
<polygon fill="black" stroke="black" points="635.83,-68.31 632.07,-58.41 628.83,-68.5 635.83,-68.31"/>
<text text-anchor="middle" x="677.5" y="-115.43" font-family="Times,serif" font-size="20.00">[NA]</text>
<text text-anchor="middle" x="677.5" y="-93.43" font-family="Times,serif" font-size="20.00">16 levels</text>
</g>
<!-- SG_1_Node_0 -->
<g id="node4" class="node">
<title>SG_1_Node_0</title>
<polygon fill="none" stroke="black" points="958.5,-196.43 857.5,-196.43 857.5,-160.43 958.5,-160.43 958.5,-196.43"/>
<text text-anchor="middle" x="908" y="-173.43" font-family="Times,serif" font-size="20.00">browser</text>
</g>
<!-- SG_1_Node_1 -->
<g id="node5" class="node">
<title>SG_1_Node_1</title>
<ellipse fill="none" stroke="black" cx="875" cy="-37.21" rx="33.88" ry="21.43"/>
<text text-anchor="middle" x="875" y="-32.21" font-family="Times,serif" font-size="20.00">0.0</text>
</g>
<!-- SG_1_Node_0&#45;&gt;SG_1_Node_1 -->
<g id="edge3" class="edge">
<title>SG_1_Node_0&#45;&gt;SG_1_Node_1</title>
<path fill="none" stroke="black" d="M887.84,-160.34C883.06,-155.13 878.59,-149.01 876,-142.43 866.76,-118.95 867.29,-90.13 869.68,-68.75"/>
<polygon fill="black" stroke="black" points="873.18,-68.99 871.02,-58.62 866.24,-68.07 873.18,-68.99"/>
<text text-anchor="middle" x="921.5" y="-115.43" font-family="Times,serif" font-size="20.00">[NA]</text>
<text text-anchor="middle" x="921.5" y="-93.43" font-family="Times,serif" font-size="20.00">18 levels</text>
</g>
<!-- SG_1_Node_2 -->
<g id="node6" class="node">
<title>SG_1_Node_2</title>
<ellipse fill="none" stroke="black" cx="989" cy="-37.21" rx="33.88" ry="21.43"/>
<text text-anchor="middle" x="989" y="-32.21" font-family="Times,serif" font-size="20.00">1.0</text>
</g>
<!-- SG_1_Node_0&#45;&gt;SG_1_Node_2 -->
<g id="edge4" class="edge">
<title>SG_1_Node_0&#45;&gt;SG_1_Node_2</title>
<path fill="none" stroke="black" d="M947.28,-160.37C954.77,-155.54 961.87,-149.59 967,-142.43 982.36,-120.98 987.44,-91.08 988.92,-68.8"/>
<polygon fill="black" stroke="black" points="992.42,-68.69 989.38,-58.55 985.43,-68.38 992.42,-68.69"/>
<text text-anchor="middle" x="1234.5" y="-104.43" font-family="Times,serif" font-size="20.00">brave iPadOS 17.2 1.61 (23.12.18.22) intent real</text>
</g>
<!-- SG_2_Node_0 -->
<g id="node7" class="node">
<title>SG_2_Node_0</title>
<polygon fill="none" stroke="black" points="1739.5,-196.43 1638.5,-196.43 1638.5,-160.43 1739.5,-160.43 1739.5,-196.43"/>
<text text-anchor="middle" x="1689" y="-173.43" font-family="Times,serif" font-size="20.00">browser</text>
</g>
<!-- SG_2_Node_1 -->
<g id="node8" class="node">
<title>SG_2_Node_1</title>
<ellipse fill="none" stroke="black" cx="1656" cy="-37.21" rx="33.88" ry="21.43"/>
<text text-anchor="middle" x="1656" y="-32.21" font-family="Times,serif" font-size="20.00">0.0</text>
</g>
<!-- SG_2_Node_0&#45;&gt;SG_2_Node_1 -->
<g id="edge5" class="edge">
<title>SG_2_Node_0&#45;&gt;SG_2_Node_1</title>
<path fill="none" stroke="black" d="M1668.84,-160.34C1664.06,-155.13 1659.59,-149.01 1657,-142.43 1647.76,-118.95 1648.29,-90.13 1650.68,-68.75"/>
<polygon fill="black" stroke="black" points="1654.18,-68.99 1652.02,-58.62 1647.24,-68.07 1654.18,-68.99"/>
<text text-anchor="middle" x="1702.5" y="-115.43" font-family="Times,serif" font-size="20.00">[NA]</text>
<text text-anchor="middle" x="1702.5" y="-93.43" font-family="Times,serif" font-size="20.00">17 levels</text>
</g>
<!-- SG_2_Node_2 -->
<g id="node9" class="node">
<title>SG_2_Node_2</title>
<ellipse fill="none" stroke="black" cx="1770" cy="-37.21" rx="33.88" ry="21.43"/>
<text text-anchor="middle" x="1770" y="-32.21" font-family="Times,serif" font-size="20.00">1.0</text>
</g>
<!-- SG_2_Node_0&#45;&gt;SG_2_Node_2 -->
<g id="edge6" class="edge">
<title>SG_2_Node_0&#45;&gt;SG_2_Node_2</title>
<path fill="none" stroke="black" d="M1728.28,-160.37C1735.77,-155.54 1742.87,-149.59 1748,-142.43 1763.36,-120.98 1768.44,-91.08 1769.92,-68.8"/>
<polygon fill="black" stroke="black" points="1773.42,-68.69 1770.38,-58.55 1766.43,-68.38 1773.42,-68.69"/>
<text text-anchor="middle" x="1998" y="-115.43" font-family="Times,serif" font-size="20.00">firefox iPadOS 17.2 121.0 (36782) intent real</text>
<text text-anchor="middle" x="1998" y="-93.43" font-family="Times,serif" font-size="20.00">operagx iPadOS 17.2 2.2.2 intent real</text>
</g>
</g>
</svg>
