<?xml version="1.0" encoding="UTF-8" standalone="no"?>
<!DOCTYPE svg PUBLIC "-//W3C//DTD SVG 1.1//EN"
 "http://www.w3.org/Graphics/SVG/1.1/DTD/svg11.dtd">
<!-- Generated by graphviz version 2.43.0 (0)
 -->
<!-- Title: G Pages: 1 -->
<svg width="3034pt" height="1391pt"
 viewBox="0.00 0.00 3034.00 1390.56" xmlns="http://www.w3.org/2000/svg" xmlns:xlink="http://www.w3.org/1999/xlink">
<g id="graph0" class="graph" transform="scale(1 1) rotate(0) translate(4 1386.56)">
<title>G</title>
<polygon fill="white" stroke="transparent" points="-4,4 -4,-1386.56 3030,-1386.56 3030,4 -4,4"/>
<g id="clust1" class="cluster">
<title>cluster_0</title>
<polygon fill="none" stroke="black" points="8,-8 8,-1374.56 853,-1374.56 853,-8 8,-8"/>
<text text-anchor="middle" x="430.5" y="-1338.56" font-family="Times,serif" font-size="40.00">Tree 0, Class fullscreenEnabled: false</text>
</g>
<g id="clust9" class="cluster">
<title>cluster_1</title>
<polygon fill="none" stroke="black" points="861,-8 861,-1374.56 2119,-1374.56 2119,-8 861,-8"/>
<text text-anchor="middle" x="1490" y="-1338.56" font-family="Times,serif" font-size="40.00">Tree 0, Class fullscreenEnabled: true</text>
</g>
<g id="clust17" class="cluster">
<title>cluster_2</title>
<polygon fill="none" stroke="black" points="2127,-1038.13 2127,-1374.56 3018,-1374.56 3018,-1038.13 2127,-1038.13"/>
<text text-anchor="middle" x="2572.5" y="-1338.56" font-family="Times,serif" font-size="40.00">Tree 0, Class fullscreenEnabled: undefined</text>
</g>
<!-- SG_0_Node_0 -->
<g id="node1" class="node">
<title>SG_0_Node_0</title>
<polygon fill="none" stroke="black" points="358.5,-1314.56 257.5,-1314.56 257.5,-1278.56 358.5,-1278.56 358.5,-1314.56"/>
<text text-anchor="middle" x="308" y="-1291.56" font-family="Times,serif" font-size="20.00">browser</text>
</g>
<!-- SG_0_Node_6 -->
<g id="node2" class="node">
<title>SG_0_Node_6</title>
<ellipse fill="none" stroke="black" cx="50" cy="-1067.35" rx="33.88" ry="21.43"/>
<text text-anchor="middle" x="50" y="-1062.35" font-family="Times,serif" font-size="20.00">0.0</text>
</g>
<!-- SG_0_Node_0&#45;&gt;SG_0_Node_6 -->
<g id="edge1" class="edge">
<title>SG_0_Node_0&#45;&gt;SG_0_Node_6</title>
<path fill="none" stroke="black" d="M257.41,-1292.53C183.49,-1287.59 53.16,-1276.68 39,-1260.56 -0.72,-1215.34 20.88,-1138.64 37.19,-1097.11"/>
<polygon fill="black" stroke="black" points="40.43,-1098.42 40.97,-1087.84 33.95,-1095.77 40.43,-1098.42"/>
<text text-anchor="middle" x="285.5" y="-1200.56" font-family="Times,serif" font-size="20.00">brave iPadOS 17.2 1.61 (23.12.18.22) intent real</text>
<text text-anchor="middle" x="285.5" y="-1178.56" font-family="Times,serif" font-size="20.00">firefox iPadOS 17.2 121.0 (36782) intent real</text>
<text text-anchor="middle" x="285.5" y="-1156.56" font-family="Times,serif" font-size="20.00">operagx iPadOS 17.2 2.2.2 intent real</text>
</g>
<!-- SG_0_Node_1 -->
<g id="node3" class="node">
<title>SG_0_Node_1</title>
<polygon fill="none" stroke="black" points="496,-1085.35 364,-1085.35 364,-1049.35 496,-1049.35 496,-1085.35"/>
<text text-anchor="middle" x="430" y="-1062.35" font-family="Times,serif" font-size="20.00">resp_origin</text>
</g>
<!-- SG_0_Node_0&#45;&gt;SG_0_Node_1 -->
<g id="edge2" class="edge">
<title>SG_0_Node_0&#45;&gt;SG_0_Node_1</title>
<path fill="none" stroke="black" d="M358.55,-1295.16C418.63,-1293.49 513.6,-1286.66 536,-1260.56 580.57,-1208.62 575.34,-1162.56 536,-1106.56 528.43,-1095.78 517.51,-1088.03 505.52,-1082.46"/>
<polygon fill="black" stroke="black" points="506.76,-1079.18 496.18,-1078.61 504.09,-1085.65 506.76,-1079.18"/>
<text text-anchor="middle" x="612.5" y="-1189.56" font-family="Times,serif" font-size="20.00">[NA]</text>
<text text-anchor="middle" x="612.5" y="-1167.56" font-family="Times,serif" font-size="20.00">16 levels</text>
</g>
<!-- SG_0_Node_2 -->
<g id="node4" class="node">
<title>SG_0_Node_2</title>
<polygon fill="none" stroke="black" points="153.5,-786.92 16.5,-786.92 16.5,-750.92 153.5,-750.92 153.5,-786.92"/>
<text text-anchor="middle" x="85" y="-763.92" font-family="Times,serif" font-size="20.00">raw_header</text>
</g>
<!-- SG_0_Node_1&#45;&gt;SG_0_Node_2 -->
<g id="edge3" class="edge">
<title>SG_0_Node_1&#45;&gt;SG_0_Node_2</title>
<path fill="none" stroke="black" d="M363.58,-1061.91C258.15,-1054.55 63.27,-1039.5 53,-1028.13 -12.56,-955.59 19.6,-900.03 53,-808.13 54.65,-803.59 57.1,-799.22 59.93,-795.15"/>
<polygon fill="black" stroke="black" points="62.69,-797.3 66.11,-787.28 57.18,-792.98 62.69,-797.3"/>
<text text-anchor="middle" x="239.5" y="-924.13" font-family="Times,serif" font-size="20.00">http://sub.headers.websec.saarland</text>
<text text-anchor="middle" x="239.5" y="-902.13" font-family="Times,serif" font-size="20.00">https://sub.headers.websec.saarland</text>
</g>
<!-- SG_0_Node_7 -->
<g id="node5" class="node">
<title>SG_0_Node_7</title>
<ellipse fill="none" stroke="black" cx="430" cy="-768.92" rx="33.88" ry="21.43"/>
<text text-anchor="middle" x="430" y="-763.92" font-family="Times,serif" font-size="20.00">1.0</text>
</g>
<!-- SG_0_Node_1&#45;&gt;SG_0_Node_7 -->
<g id="edge4" class="edge">
<title>SG_0_Node_1&#45;&gt;SG_0_Node_7</title>
<path fill="none" stroke="black" d="M430,-1049.13C430,-1000.64 430,-862.45 430,-800.55"/>
<polygon fill="black" stroke="black" points="433.5,-800.26 430,-790.26 426.5,-800.26 433.5,-800.26"/>
<text text-anchor="middle" x="637.5" y="-979.13" font-family="Times,serif" font-size="20.00">[NA]</text>
<text text-anchor="middle" x="637.5" y="-957.13" font-family="Times,serif" font-size="20.00">http://headers.webappsec.eu</text>
<text text-anchor="middle" x="637.5" y="-935.13" font-family="Times,serif" font-size="20.00">http://headers.websec.saarland</text>
<text text-anchor="middle" x="637.5" y="-913.13" font-family="Times,serif" font-size="20.00">http://sub.sub.headers.websec.saarland</text>
<text text-anchor="middle" x="637.5" y="-891.13" font-family="Times,serif" font-size="20.00">https://headers.webappsec.eu</text>
<text text-anchor="middle" x="637.5" y="-869.13" font-family="Times,serif" font-size="20.00">https://headers.websec.saarland</text>
<text text-anchor="middle" x="637.5" y="-847.13" font-family="Times,serif" font-size="20.00">https://sub.sub.headers.websec.saarland</text>
</g>
<!-- SG_0_Node_8 -->
<g id="node6" class="node">
<title>SG_0_Node_8</title>
<ellipse fill="none" stroke="black" cx="52" cy="-470.49" rx="33.88" ry="21.43"/>
<text text-anchor="middle" x="52" y="-465.49" font-family="Times,serif" font-size="20.00">0.0</text>
</g>
<!-- SG_0_Node_2&#45;&gt;SG_0_Node_8 -->
<g id="edge5" class="edge">
<title>SG_0_Node_2&#45;&gt;SG_0_Node_8</title>
<path fill="none" stroke="black" d="M66.13,-750.56C60.85,-744.53 55.79,-737.35 53,-729.71 24.46,-651.65 36.73,-551.22 45.67,-501.77"/>
<polygon fill="black" stroke="black" points="49.15,-502.21 47.57,-491.73 42.27,-500.91 49.15,-502.21"/>
<text text-anchor="middle" x="293" y="-713.71" font-family="Times,serif" font-size="20.00">[[&#39;Feature&#45;Policy&#39;, &quot;fullscreen &#39;self&#39;&quot;]]</text>
<text text-anchor="middle" x="293" y="-691.71" font-family="Times,serif" font-size="20.00">[[&#39;Feature&#45;Policy&#39;, &#39;fullscreen *&#39;]]</text>
<text text-anchor="middle" x="293" y="-669.71" font-family="Times,serif" font-size="20.00">[[&#39;Permissions&#45;Policy&#39;, &#39;*&#39;]]</text>
<text text-anchor="middle" x="293" y="-647.71" font-family="Times,serif" font-size="20.00">[[&#39;Permissions&#45;Policy&#39;, &#39;fullscreen=&#39;]]</text>
<text text-anchor="middle" x="293" y="-625.71" font-family="Times,serif" font-size="20.00">[[&#39;Permissions&#45;Policy&#39;, &#39;fullscreen=(self none)&#39;]]</text>
<text text-anchor="middle" x="293" y="-603.71" font-family="Times,serif" font-size="20.00">[[&#39;Permissions&#45;Policy&#39;, &#39;fullscreen=(self)&#39;]]</text>
<text text-anchor="middle" x="293" y="-581.71" font-family="Times,serif" font-size="20.00">[[&#39;Permissions&#45;Policy&#39;, &#39;fullscreen=(self,none)&#39;]]</text>
<text text-anchor="middle" x="293" y="-559.71" font-family="Times,serif" font-size="20.00">[[&#39;Permissions&#45;Policy&#39;, &#39;fullscreen=*&#39;]]</text>
<text text-anchor="middle" x="293" y="-537.71" font-family="Times,serif" font-size="20.00">[[&#39;Permissions&#45;Policy&#39;, &#39;null&#39;]]</text>
<text text-anchor="middle" x="293" y="-515.71" font-family="Times,serif" font-size="20.00">[]</text>
</g>
<!-- SG_0_Node_3 -->
<g id="node7" class="node">
<title>SG_0_Node_3</title>
<polygon fill="none" stroke="black" points="605.5,-488.49 504.5,-488.49 504.5,-452.49 605.5,-452.49 605.5,-488.49"/>
<text text-anchor="middle" x="555" y="-465.49" font-family="Times,serif" font-size="20.00">browser</text>
</g>
<!-- SG_0_Node_2&#45;&gt;SG_0_Node_3 -->
<g id="edge6" class="edge">
<title>SG_0_Node_2&#45;&gt;SG_0_Node_3</title>
<path fill="none" stroke="black" d="M153.76,-763.19C277.69,-754.51 526.38,-736.33 533,-729.71 594.76,-667.94 575.5,-551.37 562.59,-498.63"/>
<polygon fill="black" stroke="black" points="565.91,-497.49 560.04,-488.68 559.13,-499.23 565.91,-497.49"/>
<text text-anchor="middle" x="620.5" y="-625.71" font-family="Times,serif" font-size="20.00">[NA]</text>
<text text-anchor="middle" x="620.5" y="-603.71" font-family="Times,serif" font-size="20.00">12 levels</text>
</g>
<!-- SG_0_Node_9 -->
<g id="node8" class="node">
<title>SG_0_Node_9</title>
<ellipse fill="none" stroke="black" cx="148" cy="-282.07" rx="33.88" ry="21.43"/>
<text text-anchor="middle" x="148" y="-277.07" font-family="Times,serif" font-size="20.00">0.0</text>
</g>
<!-- SG_0_Node_3&#45;&gt;SG_0_Node_9 -->
<g id="edge7" class="edge">
<title>SG_0_Node_3&#45;&gt;SG_0_Node_9</title>
<path fill="none" stroke="black" d="M504.28,-468.51C399.89,-465.95 168.77,-457.37 145,-431.28 115.94,-399.38 126.23,-345.7 136.79,-312.44"/>
<polygon fill="black" stroke="black" points="140.16,-313.42 140.04,-302.82 133.52,-311.18 140.16,-313.42"/>
<text text-anchor="middle" x="387.5" y="-415.28" font-family="Times,serif" font-size="20.00">chrome iPadOS 17.2 120.0.6099.119 intent real</text>
<text text-anchor="middle" x="387.5" y="-393.28" font-family="Times,serif" font-size="20.00">edge iPadOS 17.2 120.0.2210.116 intent real</text>
<text text-anchor="middle" x="387.5" y="-371.28" font-family="Times,serif" font-size="20.00">firefox Ubuntu 22.04 119 selenium headless</text>
<text text-anchor="middle" x="387.5" y="-349.28" font-family="Times,serif" font-size="20.00">firefox Ubuntu 22.04 119 selenium xvfb</text>
<text text-anchor="middle" x="387.5" y="-327.28" font-family="Times,serif" font-size="20.00">firefox_beta Android 11 122.0b1 intent real</text>
</g>
<!-- SG_0_Node_4 -->
<g id="node9" class="node">
<title>SG_0_Node_4</title>
<polygon fill="none" stroke="black" points="724.5,-300.07 587.5,-300.07 587.5,-264.07 724.5,-264.07 724.5,-300.07"/>
<text text-anchor="middle" x="656" y="-277.07" font-family="Times,serif" font-size="20.00">raw_header</text>
</g>
<!-- SG_0_Node_3&#45;&gt;SG_0_Node_4 -->
<g id="edge8" class="edge">
<title>SG_0_Node_3&#45;&gt;SG_0_Node_4</title>
<path fill="none" stroke="black" d="M605.85,-453.86C616.62,-448.33 626.87,-440.98 634,-431.28 660.16,-395.69 661.3,-342.1 659.09,-310.05"/>
<polygon fill="black" stroke="black" points="662.58,-309.74 658.25,-300.07 655.6,-310.33 662.58,-309.74"/>
<text text-anchor="middle" x="704.5" y="-382.28" font-family="Times,serif" font-size="20.00">[NA]</text>
<text text-anchor="middle" x="704.5" y="-360.28" font-family="Times,serif" font-size="20.00">11 levels</text>
</g>
<!-- SG_0_Node_5 -->
<g id="node10" class="node">
<title>SG_0_Node_5</title>
<polygon fill="none" stroke="black" points="138,-177.64 16,-177.64 16,-141.64 138,-141.64 138,-177.64"/>
<text text-anchor="middle" x="77" y="-154.64" font-family="Times,serif" font-size="20.00">org_origin</text>
</g>
<!-- SG_0_Node_4&#45;&gt;SG_0_Node_5 -->
<g id="edge9" class="edge">
<title>SG_0_Node_4&#45;&gt;SG_0_Node_5</title>
<path fill="none" stroke="black" d="M587.42,-278.06C428.21,-270.91 46.33,-252.78 37,-242.85 23.6,-228.61 29.31,-216.83 37,-198.85 39.07,-194.01 42.09,-189.49 45.56,-185.37"/>
<polygon fill="black" stroke="black" points="48.25,-187.62 52.64,-177.98 43.2,-182.78 48.25,-187.62"/>
<text text-anchor="middle" x="382.5" y="-215.85" font-family="Times,serif" font-size="20.00">[[&#39;Feature&#45;Policy&#39;, &#39;fullscreen https://sub.headers.websec.saarland&#39;]]</text>
</g>
<!-- SG_0_Node_10 -->
<g id="node11" class="node">
<title>SG_0_Node_10</title>
<ellipse fill="none" stroke="black" cx="754" cy="-159.64" rx="33.88" ry="21.43"/>
<text text-anchor="middle" x="754" y="-154.64" font-family="Times,serif" font-size="20.00">1.0</text>
</g>
<!-- SG_0_Node_4&#45;&gt;SG_0_Node_10 -->
<g id="edge10" class="edge">
<title>SG_0_Node_4&#45;&gt;SG_0_Node_10</title>
<path fill="none" stroke="black" d="M705.37,-263.87C715.34,-258.46 724.91,-251.56 732,-242.85 743.9,-228.24 749.4,-207.78 751.93,-190.93"/>
<polygon fill="black" stroke="black" points="755.4,-191.34 753.15,-180.99 748.45,-190.49 755.4,-191.34"/>
<text text-anchor="middle" x="795.5" y="-226.85" font-family="Times,serif" font-size="20.00">[NA]</text>
<text text-anchor="middle" x="795.5" y="-204.85" font-family="Times,serif" font-size="20.00">11 levels</text>
</g>
<!-- SG_0_Node_11 -->
<g id="node12" class="node">
<title>SG_0_Node_11</title>
<ellipse fill="none" stroke="black" cx="63" cy="-37.21" rx="33.88" ry="21.43"/>
<text text-anchor="middle" x="63" y="-32.21" font-family="Times,serif" font-size="20.00">0.0</text>
</g>
<!-- SG_0_Node_5&#45;&gt;SG_0_Node_11 -->
<g id="edge11" class="edge">
<title>SG_0_Node_5&#45;&gt;SG_0_Node_11</title>
<path fill="none" stroke="black" d="M69.86,-141.44C67.52,-134.97 65.21,-127.47 64,-120.43 61.1,-103.51 60.7,-84.35 61.1,-68.78"/>
<polygon fill="black" stroke="black" points="64.6,-68.77 61.47,-58.65 57.6,-68.51 64.6,-68.77"/>
<text text-anchor="middle" x="250.5" y="-93.43" font-family="Times,serif" font-size="20.00">https://sub.headers.websec.saarland</text>
</g>
<!-- SG_0_Node_12 -->
<g id="node13" class="node">
<title>SG_0_Node_12</title>
<ellipse fill="none" stroke="black" cx="459" cy="-37.21" rx="33.88" ry="21.43"/>
<text text-anchor="middle" x="459" y="-32.21" font-family="Times,serif" font-size="20.00">1.0</text>
</g>
<!-- SG_0_Node_5&#45;&gt;SG_0_Node_12 -->
<g id="edge12" class="edge">
<title>SG_0_Node_5&#45;&gt;SG_0_Node_12</title>
<path fill="none" stroke="black" d="M138.05,-155.89C234.81,-150.99 414.79,-139.42 437,-120.43 451.76,-107.8 457.16,-86.46 458.93,-68.69"/>
<polygon fill="black" stroke="black" points="462.44,-68.67 459.6,-58.46 455.45,-68.21 462.44,-68.67"/>
<text text-anchor="middle" x="638.5" y="-104.43" font-family="Times,serif" font-size="20.00">[NA]</text>
<text text-anchor="middle" x="638.5" y="-82.43" font-family="Times,serif" font-size="20.00">http://sub.headers.websec.saarland</text>
</g>
<!-- SG_1_Node_0 -->
<g id="node14" class="node">
<title>SG_1_Node_0</title>
<polygon fill="none" stroke="black" points="1344,-1314.56 1212,-1314.56 1212,-1278.56 1344,-1278.56 1344,-1314.56"/>
<text text-anchor="middle" x="1278" y="-1291.56" font-family="Times,serif" font-size="20.00">resp_origin</text>
</g>
<!-- SG_1_Node_1 -->
<g id="node15" class="node">
<title>SG_1_Node_1</title>
<polygon fill="none" stroke="black" points="1051.5,-1085.35 950.5,-1085.35 950.5,-1049.35 1051.5,-1049.35 1051.5,-1085.35"/>
<text text-anchor="middle" x="1001" y="-1062.35" font-family="Times,serif" font-size="20.00">browser</text>
</g>
<!-- SG_1_Node_0&#45;&gt;SG_1_Node_1 -->
<g id="edge13" class="edge">
<title>SG_1_Node_0&#45;&gt;SG_1_Node_1</title>
<path fill="none" stroke="black" d="M1211.96,-1295.58C1144.38,-1294.1 1045.73,-1287.24 1020,-1260.56 977.39,-1216.37 986,-1137.09 994.37,-1095.5"/>
<polygon fill="black" stroke="black" points="997.83,-1096.06 996.52,-1085.55 990.99,-1094.58 997.83,-1096.06"/>
<text text-anchor="middle" x="1227.5" y="-1244.56" font-family="Times,serif" font-size="20.00">[NA]</text>
<text text-anchor="middle" x="1227.5" y="-1222.56" font-family="Times,serif" font-size="20.00">http://headers.webappsec.eu</text>
<text text-anchor="middle" x="1227.5" y="-1200.56" font-family="Times,serif" font-size="20.00">http://headers.websec.saarland</text>
<text text-anchor="middle" x="1227.5" y="-1178.56" font-family="Times,serif" font-size="20.00">http://sub.sub.headers.websec.saarland</text>
<text text-anchor="middle" x="1227.5" y="-1156.56" font-family="Times,serif" font-size="20.00">https://headers.webappsec.eu</text>
<text text-anchor="middle" x="1227.5" y="-1134.56" font-family="Times,serif" font-size="20.00">https://headers.websec.saarland</text>
<text text-anchor="middle" x="1227.5" y="-1112.56" font-family="Times,serif" font-size="20.00">https://sub.sub.headers.websec.saarland</text>
</g>
<!-- SG_1_Node_2 -->
<g id="node16" class="node">
<title>SG_1_Node_2</title>
<polygon fill="none" stroke="black" points="1585.5,-1085.35 1448.5,-1085.35 1448.5,-1049.35 1585.5,-1049.35 1585.5,-1085.35"/>
<text text-anchor="middle" x="1517" y="-1062.35" font-family="Times,serif" font-size="20.00">raw_header</text>
</g>
<!-- SG_1_Node_0&#45;&gt;SG_1_Node_2 -->
<g id="edge14" class="edge">
<title>SG_1_Node_0&#45;&gt;SG_1_Node_2</title>
<path fill="none" stroke="black" d="M1344.13,-1287.5C1381.88,-1281.71 1424.5,-1272.76 1439,-1260.56 1489.56,-1218 1507.72,-1137.67 1513.94,-1095.61"/>
<polygon fill="black" stroke="black" points="1517.43,-1095.92 1515.31,-1085.54 1510.5,-1094.98 1517.43,-1095.92"/>
<text text-anchor="middle" x="1697.5" y="-1189.56" font-family="Times,serif" font-size="20.00">http://sub.headers.websec.saarland</text>
<text text-anchor="middle" x="1697.5" y="-1167.56" font-family="Times,serif" font-size="20.00">https://sub.headers.websec.saarland</text>
</g>
<!-- SG_1_Node_8 -->
<g id="node17" class="node">
<title>SG_1_Node_8</title>
<ellipse fill="none" stroke="black" cx="903" cy="-768.92" rx="33.88" ry="21.43"/>
<text text-anchor="middle" x="903" y="-763.92" font-family="Times,serif" font-size="20.00">0.0</text>
</g>
<!-- SG_1_Node_1&#45;&gt;SG_1_Node_8 -->
<g id="edge27" class="edge">
<title>SG_1_Node_1&#45;&gt;SG_1_Node_8</title>
<path fill="none" stroke="black" d="M950.3,-1059.5C931.28,-1054.2 911.51,-1044.79 900,-1028.13 851.86,-958.45 876.4,-851.01 892.57,-799.47"/>
<polygon fill="black" stroke="black" points="895.91,-800.53 895.67,-789.94 889.25,-798.37 895.91,-800.53"/>
<text text-anchor="middle" x="945.5" y="-924.13" font-family="Times,serif" font-size="20.00">[NA]</text>
<text text-anchor="middle" x="945.5" y="-902.13" font-family="Times,serif" font-size="20.00">18 levels</text>
</g>
<!-- SG_1_Node_9 -->
<g id="node18" class="node">
<title>SG_1_Node_9</title>
<ellipse fill="none" stroke="black" cx="995" cy="-768.92" rx="33.88" ry="21.43"/>
<text text-anchor="middle" x="995" y="-763.92" font-family="Times,serif" font-size="20.00">1.0</text>
</g>
<!-- SG_1_Node_1&#45;&gt;SG_1_Node_9 -->
<g id="edge28" class="edge">
<title>SG_1_Node_1&#45;&gt;SG_1_Node_9</title>
<path fill="none" stroke="black" d="M1000.65,-1049.13C999.67,-1000.64 996.87,-862.45 995.62,-800.55"/>
<polygon fill="black" stroke="black" points="999.11,-800.19 995.41,-790.26 992.11,-800.33 999.11,-800.19"/>
<text text-anchor="middle" x="1246.5" y="-913.13" font-family="Times,serif" font-size="20.00">brave iPadOS 17.2 1.61 (23.12.18.22) intent real</text>
</g>
<!-- SG_1_Node_3 -->
<g id="node19" class="node">
<title>SG_1_Node_3</title>
<polygon fill="none" stroke="black" points="1147.5,-786.92 1046.5,-786.92 1046.5,-750.92 1147.5,-750.92 1147.5,-786.92"/>
<text text-anchor="middle" x="1097" y="-763.92" font-family="Times,serif" font-size="20.00">browser</text>
</g>
<!-- SG_1_Node_2&#45;&gt;SG_1_Node_3 -->
<g id="edge15" class="edge">
<title>SG_1_Node_2&#45;&gt;SG_1_Node_3</title>
<path fill="none" stroke="black" d="M1515.6,-1049.08C1510.93,-991.45 1496.07,-809.21 1495,-808.13 1471.79,-784.67 1263.44,-774.98 1157.82,-771.55"/>
<polygon fill="black" stroke="black" points="1157.72,-768.04 1147.62,-771.22 1157.5,-775.04 1157.72,-768.04"/>
<text text-anchor="middle" x="1558.5" y="-924.13" font-family="Times,serif" font-size="20.00">[NA]</text>
<text text-anchor="middle" x="1558.5" y="-902.13" font-family="Times,serif" font-size="20.00">12 levels</text>
</g>
<!-- SG_1_Node_4 -->
<g id="node20" class="node">
<title>SG_1_Node_4</title>
<polygon fill="none" stroke="black" points="1681.5,-786.92 1580.5,-786.92 1580.5,-750.92 1681.5,-750.92 1681.5,-786.92"/>
<text text-anchor="middle" x="1631" y="-763.92" font-family="Times,serif" font-size="20.00">browser</text>
</g>
<!-- SG_1_Node_2&#45;&gt;SG_1_Node_4 -->
<g id="edge16" class="edge">
<title>SG_1_Node_2&#45;&gt;SG_1_Node_4</title>
<path fill="none" stroke="black" d="M1583.6,-1049.18C1593.45,-1043.93 1602.47,-1037.07 1609,-1028.13 1660.05,-958.27 1646.81,-847.65 1637.07,-796.93"/>
<polygon fill="black" stroke="black" points="1640.48,-796.16 1635.07,-787.06 1633.62,-797.55 1640.48,-796.16"/>
<text text-anchor="middle" x="1886" y="-1012.13" font-family="Times,serif" font-size="20.00">[[&#39;Feature&#45;Policy&#39;, &quot;fullscreen &#39;self&#39;&quot;]]</text>
<text text-anchor="middle" x="1886" y="-990.13" font-family="Times,serif" font-size="20.00">[[&#39;Feature&#45;Policy&#39;, &#39;fullscreen *&#39;]]</text>
<text text-anchor="middle" x="1886" y="-968.13" font-family="Times,serif" font-size="20.00">[[&#39;Permissions&#45;Policy&#39;, &#39;*&#39;]]</text>
<text text-anchor="middle" x="1886" y="-946.13" font-family="Times,serif" font-size="20.00">[[&#39;Permissions&#45;Policy&#39;, &#39;fullscreen=&#39;]]</text>
<text text-anchor="middle" x="1886" y="-924.13" font-family="Times,serif" font-size="20.00">[[&#39;Permissions&#45;Policy&#39;, &#39;fullscreen=(self none)&#39;]]</text>
<text text-anchor="middle" x="1886" y="-902.13" font-family="Times,serif" font-size="20.00">[[&#39;Permissions&#45;Policy&#39;, &#39;fullscreen=(self)&#39;]]</text>
<text text-anchor="middle" x="1886" y="-880.13" font-family="Times,serif" font-size="20.00">[[&#39;Permissions&#45;Policy&#39;, &#39;fullscreen=(self,none)&#39;]]</text>
<text text-anchor="middle" x="1886" y="-858.13" font-family="Times,serif" font-size="20.00">[[&#39;Permissions&#45;Policy&#39;, &#39;fullscreen=*&#39;]]</text>
<text text-anchor="middle" x="1886" y="-836.13" font-family="Times,serif" font-size="20.00">[[&#39;Permissions&#45;Policy&#39;, &#39;null&#39;]]</text>
<text text-anchor="middle" x="1886" y="-814.13" font-family="Times,serif" font-size="20.00">[]</text>
</g>
<!-- SG_1_Node_5 -->
<g id="node21" class="node">
<title>SG_1_Node_5</title>
<polygon fill="none" stroke="black" points="1006.5,-488.49 869.5,-488.49 869.5,-452.49 1006.5,-452.49 1006.5,-488.49"/>
<text text-anchor="middle" x="938" y="-465.49" font-family="Times,serif" font-size="20.00">raw_header</text>
</g>
<!-- SG_1_Node_3&#45;&gt;SG_1_Node_5 -->
<g id="edge19" class="edge">
<title>SG_1_Node_3&#45;&gt;SG_1_Node_5</title>
<path fill="none" stroke="black" d="M1049.89,-750.91C1045.9,-749.73 1041.9,-748.64 1038,-747.71 1010.5,-741.09 930.53,-751.07 912,-729.71 847.94,-655.84 883.22,-603.15 912,-509.71 913.34,-505.36 915.36,-501.07 917.69,-497.02"/>
<polygon fill="black" stroke="black" points="920.64,-498.9 923.16,-488.6 914.77,-495.08 920.64,-498.9"/>
<text text-anchor="middle" x="957.5" y="-625.71" font-family="Times,serif" font-size="20.00">[NA]</text>
<text text-anchor="middle" x="957.5" y="-603.71" font-family="Times,serif" font-size="20.00">13 levels</text>
</g>
<!-- SG_1_Node_10 -->
<g id="node22" class="node">
<title>SG_1_Node_10</title>
<ellipse fill="none" stroke="black" cx="1058" cy="-470.49" rx="33.88" ry="21.43"/>
<text text-anchor="middle" x="1058" y="-465.49" font-family="Times,serif" font-size="20.00">1.0</text>
</g>
<!-- SG_1_Node_3&#45;&gt;SG_1_Node_10 -->
<g id="edge20" class="edge">
<title>SG_1_Node_3&#45;&gt;SG_1_Node_10</title>
<path fill="none" stroke="black" d="M1046.34,-750.73C1037.44,-745.39 1029.33,-738.52 1024,-729.71 998.69,-687.88 1006.61,-555.4 1024,-509.71 1025.85,-504.85 1028.63,-500.22 1031.81,-495.96"/>
<polygon fill="black" stroke="black" points="1034.53,-498.17 1038.31,-488.28 1029.18,-493.65 1034.53,-498.17"/>
<text text-anchor="middle" x="1270.5" y="-669.71" font-family="Times,serif" font-size="20.00">brave iPadOS 17.2 1.61 (23.12.18.22) intent real</text>
<text text-anchor="middle" x="1270.5" y="-647.71" font-family="Times,serif" font-size="20.00">chrome iPadOS 17.2 120.0.6099.119 intent real</text>
<text text-anchor="middle" x="1270.5" y="-625.71" font-family="Times,serif" font-size="20.00">edge iPadOS 17.2 120.0.2210.116 intent real</text>
<text text-anchor="middle" x="1270.5" y="-603.71" font-family="Times,serif" font-size="20.00">firefox Ubuntu 22.04 119 selenium headless</text>
<text text-anchor="middle" x="1270.5" y="-581.71" font-family="Times,serif" font-size="20.00">firefox Ubuntu 22.04 119 selenium xvfb</text>
<text text-anchor="middle" x="1270.5" y="-559.71" font-family="Times,serif" font-size="20.00">firefox_beta Android 11 122.0b1 intent real</text>
</g>
<!-- SG_1_Node_11 -->
<g id="node23" class="node">
<title>SG_1_Node_11</title>
<ellipse fill="none" stroke="black" cx="1539" cy="-470.49" rx="33.88" ry="21.43"/>
<text text-anchor="middle" x="1539" y="-465.49" font-family="Times,serif" font-size="20.00">0.0</text>
</g>
<!-- SG_1_Node_4&#45;&gt;SG_1_Node_11 -->
<g id="edge17" class="edge">
<title>SG_1_Node_4&#45;&gt;SG_1_Node_11</title>
<path fill="none" stroke="black" d="M1580.45,-758.18C1564.84,-752.55 1549.32,-743.67 1540,-729.71 1515.7,-693.3 1527.89,-562.19 1535.04,-502.04"/>
<polygon fill="black" stroke="black" points="1538.53,-502.36 1536.26,-492.01 1531.58,-501.51 1538.53,-502.36"/>
<text text-anchor="middle" x="1769" y="-625.71" font-family="Times,serif" font-size="20.00">firefox iPadOS 17.2 121.0 (36782) intent real</text>
<text text-anchor="middle" x="1769" y="-603.71" font-family="Times,serif" font-size="20.00">operagx iPadOS 17.2 2.2.2 intent real</text>
</g>
<!-- SG_1_Node_12 -->
<g id="node24" class="node">
<title>SG_1_Node_12</title>
<ellipse fill="none" stroke="black" cx="2020" cy="-470.49" rx="33.88" ry="21.43"/>
<text text-anchor="middle" x="2020" y="-465.49" font-family="Times,serif" font-size="20.00">1.0</text>
</g>
<!-- SG_1_Node_4&#45;&gt;SG_1_Node_12 -->
<g id="edge18" class="edge">
<title>SG_1_Node_4&#45;&gt;SG_1_Node_12</title>
<path fill="none" stroke="black" d="M1681.69,-766.17C1777.21,-762.36 1976.27,-751.85 1998,-729.71 2057.97,-668.6 2040.94,-555.64 2028.24,-501.7"/>
<polygon fill="black" stroke="black" points="2031.58,-500.6 2025.79,-491.73 2024.78,-502.28 2031.58,-500.6"/>
<text text-anchor="middle" x="2085.5" y="-625.71" font-family="Times,serif" font-size="20.00">[NA]</text>
<text text-anchor="middle" x="2085.5" y="-603.71" font-family="Times,serif" font-size="20.00">17 levels</text>
</g>
<!-- SG_1_Node_13 -->
<g id="node25" class="node">
<title>SG_1_Node_13</title>
<ellipse fill="none" stroke="black" cx="920" cy="-282.07" rx="33.88" ry="21.43"/>
<text text-anchor="middle" x="920" y="-277.07" font-family="Times,serif" font-size="20.00">0.0</text>
</g>
<!-- SG_1_Node_5&#45;&gt;SG_1_Node_13 -->
<g id="edge21" class="edge">
<title>SG_1_Node_5&#45;&gt;SG_1_Node_13</title>
<path fill="none" stroke="black" d="M928.46,-452.12C925.46,-445.76 922.53,-438.38 921,-431.28 912.39,-391.4 914.06,-344.08 916.58,-313.82"/>
<polygon fill="black" stroke="black" points="920.1,-313.77 917.53,-303.49 913.13,-313.13 920.1,-313.77"/>
<text text-anchor="middle" x="966.5" y="-382.28" font-family="Times,serif" font-size="20.00">[NA]</text>
<text text-anchor="middle" x="966.5" y="-360.28" font-family="Times,serif" font-size="20.00">11 levels</text>
</g>
<!-- SG_1_Node_6 -->
<g id="node26" class="node">
<title>SG_1_Node_6</title>
<polygon fill="none" stroke="black" points="1095,-300.07 973,-300.07 973,-264.07 1095,-264.07 1095,-300.07"/>
<text text-anchor="middle" x="1034" y="-277.07" font-family="Times,serif" font-size="20.00">org_origin</text>
</g>
<!-- SG_1_Node_5&#45;&gt;SG_1_Node_6 -->
<g id="edge22" class="edge">
<title>SG_1_Node_5&#45;&gt;SG_1_Node_6</title>
<path fill="none" stroke="black" d="M987.21,-452.43C996.73,-447.03 1005.69,-440.1 1012,-431.28 1037.56,-395.54 1038.97,-342.44 1036.97,-310.45"/>
<polygon fill="black" stroke="black" points="1040.46,-310.16 1036.19,-300.46 1033.48,-310.7 1040.46,-310.16"/>
<text text-anchor="middle" x="1382.5" y="-371.28" font-family="Times,serif" font-size="20.00">[[&#39;Feature&#45;Policy&#39;, &#39;fullscreen https://sub.headers.websec.saarland&#39;]]</text>
</g>
<!-- SG_1_Node_14 -->
<g id="node27" class="node">
<title>SG_1_Node_14</title>
<ellipse fill="none" stroke="black" cx="913" cy="-159.64" rx="33.88" ry="21.43"/>
<text text-anchor="middle" x="913" y="-154.64" font-family="Times,serif" font-size="20.00">0.0</text>
</g>
<!-- SG_1_Node_6&#45;&gt;SG_1_Node_14 -->
<g id="edge23" class="edge">
<title>SG_1_Node_6&#45;&gt;SG_1_Node_14</title>
<path fill="none" stroke="black" d="M975.22,-263.96C945.85,-255.14 916.07,-245.65 914,-242.85 903.1,-228.13 902.88,-207.5 905.37,-190.59"/>
<polygon fill="black" stroke="black" points="908.83,-191.1 907.2,-180.63 901.95,-189.83 908.83,-191.1"/>
<text text-anchor="middle" x="1095.5" y="-226.85" font-family="Times,serif" font-size="20.00">[NA]</text>
<text text-anchor="middle" x="1095.5" y="-204.85" font-family="Times,serif" font-size="20.00">http://sub.headers.websec.saarland</text>
</g>
<!-- SG_1_Node_7 -->
<g id="node28" class="node">
<title>SG_1_Node_7</title>
<polygon fill="none" stroke="black" points="1349.5,-177.64 1248.5,-177.64 1248.5,-141.64 1349.5,-141.64 1349.5,-177.64"/>
<text text-anchor="middle" x="1299" y="-154.64" font-family="Times,serif" font-size="20.00">browser</text>
</g>
<!-- SG_1_Node_6&#45;&gt;SG_1_Node_7 -->
<g id="edge24" class="edge">
<title>SG_1_Node_6&#45;&gt;SG_1_Node_7</title>
<path fill="none" stroke="black" d="M1095.22,-278.9C1158.28,-275.4 1250.93,-266.31 1277,-242.85 1292.24,-229.14 1297.42,-206.14 1298.97,-187.94"/>
<polygon fill="black" stroke="black" points="1302.47,-188.07 1299.52,-177.9 1295.48,-187.69 1302.47,-188.07"/>
<text text-anchor="middle" x="1483.5" y="-215.85" font-family="Times,serif" font-size="20.00">https://sub.headers.websec.saarland</text>
</g>
<!-- SG_1_Node_15 -->
<g id="node29" class="node">
<title>SG_1_Node_15</title>
<ellipse fill="none" stroke="black" cx="1101" cy="-37.21" rx="33.88" ry="21.43"/>
<text text-anchor="middle" x="1101" y="-32.21" font-family="Times,serif" font-size="20.00">0.0</text>
</g>
<!-- SG_1_Node_7&#45;&gt;SG_1_Node_15 -->
<g id="edge25" class="edge">
<title>SG_1_Node_7&#45;&gt;SG_1_Node_15</title>
<path fill="none" stroke="black" d="M1248.05,-155.88C1196.01,-151.87 1120.31,-142.36 1102,-120.43 1090.18,-106.27 1090.04,-85.47 1092.79,-68.33"/>
<polygon fill="black" stroke="black" points="1096.28,-68.71 1094.81,-58.22 1089.42,-67.35 1096.28,-68.71"/>
<text text-anchor="middle" x="1293.5" y="-93.43" font-family="Times,serif" font-size="20.00">operagx iPadOS 17.2 2.2.2 intent real</text>
</g>
<!-- SG_1_Node_16 -->
<g id="node30" class="node">
<title>SG_1_Node_16</title>
<ellipse fill="none" stroke="black" cx="1507" cy="-37.21" rx="33.88" ry="21.43"/>
<text text-anchor="middle" x="1507" y="-32.21" font-family="Times,serif" font-size="20.00">1.0</text>
</g>
<!-- SG_1_Node_7&#45;&gt;SG_1_Node_16 -->
<g id="edge26" class="edge">
<title>SG_1_Node_7&#45;&gt;SG_1_Node_16</title>
<path fill="none" stroke="black" d="M1349.76,-154.18C1397.95,-148.92 1465.81,-138.52 1485,-120.43 1498.98,-107.25 1504.43,-86.25 1506.42,-68.77"/>
<polygon fill="black" stroke="black" points="1509.93,-68.7 1507.25,-58.45 1502.96,-68.14 1509.93,-68.7"/>
<text text-anchor="middle" x="1550.5" y="-104.43" font-family="Times,serif" font-size="20.00">[NA]</text>
<text text-anchor="middle" x="1550.5" y="-82.43" font-family="Times,serif" font-size="20.00">12 levels</text>
</g>
<!-- SG_2_Node_0 -->
<g id="node31" class="node">
<title>SG_2_Node_0</title>
<polygon fill="none" stroke="black" points="2284.5,-1314.56 2183.5,-1314.56 2183.5,-1278.56 2284.5,-1278.56 2284.5,-1314.56"/>
<text text-anchor="middle" x="2234" y="-1291.56" font-family="Times,serif" font-size="20.00">browser</text>
</g>
<!-- SG_2_Node_1 -->
<g id="node32" class="node">
<title>SG_2_Node_1</title>
<ellipse fill="none" stroke="black" cx="2201" cy="-1067.35" rx="33.88" ry="21.43"/>
<text text-anchor="middle" x="2201" y="-1062.35" font-family="Times,serif" font-size="20.00">0.0</text>
</g>
<!-- SG_2_Node_0&#45;&gt;SG_2_Node_1 -->
<g id="edge29" class="edge">
<title>SG_2_Node_0&#45;&gt;SG_2_Node_1</title>
<path fill="none" stroke="black" d="M2213.82,-1278.48C2209.04,-1273.27 2204.58,-1267.15 2202,-1260.56 2180.94,-1206.73 2187.92,-1137.75 2194.64,-1098.76"/>
<polygon fill="black" stroke="black" points="2198.14,-1099.06 2196.5,-1088.6 2191.26,-1097.8 2198.14,-1099.06"/>
<text text-anchor="middle" x="2247.5" y="-1189.56" font-family="Times,serif" font-size="20.00">[NA]</text>
<text text-anchor="middle" x="2247.5" y="-1167.56" font-family="Times,serif" font-size="20.00">17 levels</text>
</g>
<!-- SG_2_Node_2 -->
<g id="node33" class="node">
<title>SG_2_Node_2</title>
<ellipse fill="none" stroke="black" cx="2315" cy="-1067.35" rx="33.88" ry="21.43"/>
<text text-anchor="middle" x="2315" y="-1062.35" font-family="Times,serif" font-size="20.00">1.0</text>
</g>
<!-- SG_2_Node_0&#45;&gt;SG_2_Node_2 -->
<g id="edge30" class="edge">
<title>SG_2_Node_0&#45;&gt;SG_2_Node_2</title>
<path fill="none" stroke="black" d="M2274.4,-1278.46C2281.63,-1273.67 2288.34,-1267.76 2293,-1260.56 2325.09,-1211 2323.49,-1138.87 2319.33,-1098.53"/>
<polygon fill="black" stroke="black" points="2322.79,-1098.05 2318.17,-1088.52 2315.84,-1098.86 2322.79,-1098.05"/>
<text text-anchor="middle" x="2550" y="-1189.56" font-family="Times,serif" font-size="20.00">firefox iPadOS 17.2 121.0 (36782) intent real</text>
<text text-anchor="middle" x="2550" y="-1167.56" font-family="Times,serif" font-size="20.00">operagx iPadOS 17.2 2.2.2 intent real</text>
</g>
</g>
</svg>
