<?xml version="1.0" encoding="UTF-8" standalone="no"?>
<!DOCTYPE svg PUBLIC "-//W3C//DTD SVG 1.1//EN"
 "http://www.w3.org/Graphics/SVG/1.1/DTD/svg11.dtd">
<!-- Generated by graphviz version 2.43.0 (0)
 -->
<!-- Title: G Pages: 1 -->
<svg width="3599pt" height="1425pt"
 viewBox="0.00 0.00 3599.00 1424.98" xmlns="http://www.w3.org/2000/svg" xmlns:xlink="http://www.w3.org/1999/xlink">
<g id="graph0" class="graph" transform="scale(1 1) rotate(0) translate(4 1420.98)">
<title>G</title>
<polygon fill="white" stroke="transparent" points="-4,4 -4,-1420.98 3595,-1420.98 3595,4 -4,4"/>
<g id="clust1" class="cluster">
<title>cluster_0</title>
<polygon fill="none" stroke="black" points="8,-130.43 8,-1408.98 1236,-1408.98 1236,-130.43 8,-130.43"/>
<text text-anchor="middle" x="622" y="-1372.98" font-family="Times,serif" font-size="40.00">Tree 0, Class fullscreenEnabled: false</text>
</g>
<g id="clust9" class="cluster">
<title>cluster_1</title>
<polygon fill="none" stroke="black" points="1244,-8 1244,-1408.98 2684,-1408.98 2684,-8 1244,-8"/>
<text text-anchor="middle" x="1964" y="-1372.98" font-family="Times,serif" font-size="40.00">Tree 0, Class fullscreenEnabled: true</text>
</g>
<g id="clust18" class="cluster">
<title>cluster_2</title>
<polygon fill="none" stroke="black" points="2692,-1050.56 2692,-1408.98 3583,-1408.98 3583,-1050.56 2692,-1050.56"/>
<text text-anchor="middle" x="3137.5" y="-1372.98" font-family="Times,serif" font-size="40.00">Tree 0, Class fullscreenEnabled: undefined</text>
</g>
<!-- SG_0_Node_0 -->
<g id="node1" class="node">
<title>SG_0_Node_0</title>
<polygon fill="none" stroke="black" points="366.5,-1348.98 265.5,-1348.98 265.5,-1312.98 366.5,-1312.98 366.5,-1348.98"/>
<text text-anchor="middle" x="316" y="-1325.98" font-family="Times,serif" font-size="20.00">browser</text>
</g>
<!-- SG_0_Node_6 -->
<g id="node2" class="node">
<title>SG_0_Node_6</title>
<ellipse fill="none" stroke="black" cx="173" cy="-1079.77" rx="33.88" ry="21.43"/>
<text text-anchor="middle" x="173" y="-1074.77" font-family="Times,serif" font-size="20.00">0.0</text>
</g>
<!-- SG_0_Node_0&#45;&gt;SG_0_Node_6 -->
<g id="edge1" class="edge">
<title>SG_0_Node_0&#45;&gt;SG_0_Node_6</title>
<path fill="none" stroke="black" d="M265.48,-1324.11C229.43,-1318.76 185.39,-1309.45 174,-1294.98 132.06,-1241.71 149.35,-1155.68 162.77,-1110.57"/>
<polygon fill="black" stroke="black" points="166.18,-1111.39 165.81,-1100.8 159.5,-1109.31 166.18,-1111.39"/>
<text text-anchor="middle" x="420.5" y="-1278.98" font-family="Times,serif" font-size="20.00">brave iPadOS 17.2 1.61 (23.12.18.22) intent real</text>
<text text-anchor="middle" x="420.5" y="-1256.98" font-family="Times,serif" font-size="20.00">chrome iPadOS 17.2 120.0.6099.119 intent real</text>
<text text-anchor="middle" x="420.5" y="-1234.98" font-family="Times,serif" font-size="20.00">edge iPadOS 17.2 120.0.2210.116 intent real</text>
<text text-anchor="middle" x="420.5" y="-1212.98" font-family="Times,serif" font-size="20.00">firefox Ubuntu 22.04 119 selenium headless</text>
<text text-anchor="middle" x="420.5" y="-1190.98" font-family="Times,serif" font-size="20.00">firefox Ubuntu 22.04 119 selenium xvfb</text>
<text text-anchor="middle" x="420.5" y="-1168.98" font-family="Times,serif" font-size="20.00">firefox iPadOS 17.2 121.0 (36782) intent real</text>
<text text-anchor="middle" x="420.5" y="-1146.98" font-family="Times,serif" font-size="20.00">firefox_beta Android 11 122.0b1 intent real</text>
<text text-anchor="middle" x="420.5" y="-1124.98" font-family="Times,serif" font-size="20.00">operagx iPadOS 17.2 2.2.2 intent real</text>
</g>
<!-- SG_0_Node_1 -->
<g id="node3" class="node">
<title>SG_0_Node_1</title>
<polygon fill="none" stroke="black" points="757.5,-1097.77 620.5,-1097.77 620.5,-1061.77 757.5,-1061.77 757.5,-1097.77"/>
<text text-anchor="middle" x="689" y="-1074.77" font-family="Times,serif" font-size="20.00">raw_header</text>
</g>
<!-- SG_0_Node_0&#45;&gt;SG_0_Node_1 -->
<g id="edge2" class="edge">
<title>SG_0_Node_0&#45;&gt;SG_0_Node_1</title>
<path fill="none" stroke="black" d="M366.58,-1328.42C458.67,-1325.07 646.16,-1315.77 667,-1294.98 716.63,-1245.5 705.37,-1153.61 695.78,-1107.97"/>
<polygon fill="black" stroke="black" points="699.14,-1106.92 693.54,-1097.92 692.31,-1108.45 699.14,-1106.92"/>
<text text-anchor="middle" x="749.5" y="-1212.98" font-family="Times,serif" font-size="20.00">[NA]</text>
<text text-anchor="middle" x="749.5" y="-1190.98" font-family="Times,serif" font-size="20.00">11 levels</text>
</g>
<!-- SG_0_Node_7 -->
<g id="node4" class="node">
<title>SG_0_Node_7</title>
<ellipse fill="none" stroke="black" cx="249" cy="-847.35" rx="33.88" ry="21.43"/>
<text text-anchor="middle" x="249" y="-842.35" font-family="Times,serif" font-size="20.00">0.0</text>
</g>
<!-- SG_0_Node_1&#45;&gt;SG_0_Node_7 -->
<g id="edge3" class="edge">
<title>SG_0_Node_1&#45;&gt;SG_0_Node_7</title>
<path fill="none" stroke="black" d="M620.32,-1077.84C502.19,-1075.52 270.76,-1067.54 246,-1040.56 205.46,-996.37 223.31,-919.52 237.55,-877.62"/>
<polygon fill="black" stroke="black" points="240.92,-878.61 240.97,-868.01 234.32,-876.26 240.92,-878.61"/>
<text text-anchor="middle" x="485.5" y="-1024.56" font-family="Times,serif" font-size="20.00">[[&#39;Feature&#45;Policy&#39;, &#39;fullscreen *&#39;]]</text>
<text text-anchor="middle" x="485.5" y="-1002.56" font-family="Times,serif" font-size="20.00">[[&#39;Permissions&#45;Policy&#39;, &#39;*&#39;]]</text>
<text text-anchor="middle" x="485.5" y="-980.56" font-family="Times,serif" font-size="20.00">[[&#39;Permissions&#45;Policy&#39;, &#39;fullscreen=&#39;]]</text>
<text text-anchor="middle" x="485.5" y="-958.56" font-family="Times,serif" font-size="20.00">[[&#39;Permissions&#45;Policy&#39;, &#39;fullscreen=(self,none)&#39;]]</text>
<text text-anchor="middle" x="485.5" y="-936.56" font-family="Times,serif" font-size="20.00">[[&#39;Permissions&#45;Policy&#39;, &#39;fullscreen=*&#39;]]</text>
<text text-anchor="middle" x="485.5" y="-914.56" font-family="Times,serif" font-size="20.00">[[&#39;Permissions&#45;Policy&#39;, &#39;null&#39;]]</text>
<text text-anchor="middle" x="485.5" y="-892.56" font-family="Times,serif" font-size="20.00">[]</text>
</g>
<!-- SG_0_Node_2 -->
<g id="node5" class="node">
<title>SG_0_Node_2</title>
<polygon fill="none" stroke="black" points="817,-865.35 685,-865.35 685,-829.35 817,-829.35 817,-865.35"/>
<text text-anchor="middle" x="751" y="-842.35" font-family="Times,serif" font-size="20.00">resp_origin</text>
</g>
<!-- SG_0_Node_1&#45;&gt;SG_0_Node_2 -->
<g id="edge4" class="edge">
<title>SG_0_Node_1&#45;&gt;SG_0_Node_2</title>
<path fill="none" stroke="black" d="M712.37,-1061.56C718.8,-1055.63 725.07,-1048.47 729,-1040.56 755.77,-986.67 755.85,-914.07 753.48,-875.34"/>
<polygon fill="black" stroke="black" points="756.97,-875.08 752.77,-865.36 749.99,-875.58 756.97,-875.08"/>
<text text-anchor="middle" x="799.5" y="-969.56" font-family="Times,serif" font-size="20.00">[NA]</text>
<text text-anchor="middle" x="799.5" y="-947.56" font-family="Times,serif" font-size="20.00">15 levels</text>
</g>
<!-- SG_0_Node_3 -->
<g id="node6" class="node">
<title>SG_0_Node_3</title>
<polygon fill="none" stroke="black" points="454.5,-632.92 317.5,-632.92 317.5,-596.92 454.5,-596.92 454.5,-632.92"/>
<text text-anchor="middle" x="386" y="-609.92" font-family="Times,serif" font-size="20.00">raw_header</text>
</g>
<!-- SG_0_Node_2&#45;&gt;SG_0_Node_3 -->
<g id="edge5" class="edge">
<title>SG_0_Node_2&#45;&gt;SG_0_Node_3</title>
<path fill="none" stroke="black" d="M684.74,-844.19C584.24,-840.22 402.78,-830.08 383,-808.13 342,-762.66 361.3,-683.65 375.54,-642.52"/>
<polygon fill="black" stroke="black" points="378.9,-643.52 379.01,-632.93 372.31,-641.14 378.9,-643.52"/>
<text text-anchor="middle" x="569.5" y="-737.13" font-family="Times,serif" font-size="20.00">http://sub.headers.websec.saarland</text>
<text text-anchor="middle" x="569.5" y="-715.13" font-family="Times,serif" font-size="20.00">https://sub.headers.websec.saarland</text>
</g>
<!-- SG_0_Node_8 -->
<g id="node7" class="node">
<title>SG_0_Node_8</title>
<ellipse fill="none" stroke="black" cx="782" cy="-614.92" rx="33.88" ry="21.43"/>
<text text-anchor="middle" x="782" y="-609.92" font-family="Times,serif" font-size="20.00">1.0</text>
</g>
<!-- SG_0_Node_2&#45;&gt;SG_0_Node_8 -->
<g id="edge6" class="edge">
<title>SG_0_Node_2&#45;&gt;SG_0_Node_8</title>
<path fill="none" stroke="black" d="M755.46,-829.31C757.07,-822.73 758.78,-815.12 760,-808.13 769.87,-751.51 776.38,-684.71 779.6,-646.63"/>
<polygon fill="black" stroke="black" points="783.13,-646.49 780.46,-636.23 776.15,-645.91 783.13,-646.49"/>
<text text-anchor="middle" x="985.5" y="-792.13" font-family="Times,serif" font-size="20.00">[NA]</text>
<text text-anchor="middle" x="985.5" y="-770.13" font-family="Times,serif" font-size="20.00">http://headers.webappsec.eu</text>
<text text-anchor="middle" x="985.5" y="-748.13" font-family="Times,serif" font-size="20.00">http://headers.websec.saarland</text>
<text text-anchor="middle" x="985.5" y="-726.13" font-family="Times,serif" font-size="20.00">http://sub.sub.headers.websec.saarland</text>
<text text-anchor="middle" x="985.5" y="-704.13" font-family="Times,serif" font-size="20.00">https://headers.webappsec.eu</text>
<text text-anchor="middle" x="985.5" y="-682.13" font-family="Times,serif" font-size="20.00">https://headers.websec.saarland</text>
<text text-anchor="middle" x="985.5" y="-660.13" font-family="Times,serif" font-size="20.00">https://sub.sub.headers.websec.saarland</text>
</g>
<!-- SG_0_Node_4 -->
<g id="node8" class="node">
<title>SG_0_Node_4</title>
<polygon fill="none" stroke="black" points="303.5,-466.49 166.5,-466.49 166.5,-430.49 303.5,-430.49 303.5,-466.49"/>
<text text-anchor="middle" x="235" y="-443.49" font-family="Times,serif" font-size="20.00">raw_header</text>
</g>
<!-- SG_0_Node_3&#45;&gt;SG_0_Node_4 -->
<g id="edge7" class="edge">
<title>SG_0_Node_3&#45;&gt;SG_0_Node_4</title>
<path fill="none" stroke="black" d="M317.32,-604.67C282.94,-598.5 246.44,-589.03 236,-575.71 214.07,-547.72 219.54,-504.5 226.48,-476.61"/>
<polygon fill="black" stroke="black" points="229.92,-477.3 229.16,-466.73 223.17,-475.46 229.92,-477.3"/>
<text text-anchor="middle" x="581.5" y="-559.71" font-family="Times,serif" font-size="20.00">[[&#39;Feature&#45;Policy&#39;, &quot;fullscreen &#39;self&#39;&quot;]]</text>
<text text-anchor="middle" x="581.5" y="-537.71" font-family="Times,serif" font-size="20.00">[[&#39;Feature&#45;Policy&#39;, &#39;fullscreen https://sub.headers.websec.saarland&#39;]]</text>
<text text-anchor="middle" x="581.5" y="-515.71" font-family="Times,serif" font-size="20.00">[[&#39;Permissions&#45;Policy&#39;, &#39;fullscreen=(self none)&#39;]]</text>
<text text-anchor="middle" x="581.5" y="-493.71" font-family="Times,serif" font-size="20.00">[[&#39;Permissions&#45;Policy&#39;, &#39;fullscreen=(self)&#39;]]</text>
</g>
<!-- SG_0_Node_9 -->
<g id="node9" class="node">
<title>SG_0_Node_9</title>
<ellipse fill="none" stroke="black" cx="949" cy="-448.49" rx="33.88" ry="21.43"/>
<text text-anchor="middle" x="949" y="-443.49" font-family="Times,serif" font-size="20.00">1.0</text>
</g>
<!-- SG_0_Node_3&#45;&gt;SG_0_Node_9 -->
<g id="edge8" class="edge">
<title>SG_0_Node_3&#45;&gt;SG_0_Node_9</title>
<path fill="none" stroke="black" d="M454.58,-610.17C598.24,-602.17 918.33,-583.53 927,-575.71 953.32,-551.94 955.39,-508.83 953.21,-479.68"/>
<polygon fill="black" stroke="black" points="956.68,-479.26 952.25,-469.64 949.71,-479.93 956.68,-479.26"/>
<text text-anchor="middle" x="998.5" y="-537.71" font-family="Times,serif" font-size="20.00">[NA]</text>
<text text-anchor="middle" x="998.5" y="-515.71" font-family="Times,serif" font-size="20.00">11 levels</text>
</g>
<!-- SG_0_Node_10 -->
<g id="node10" class="node">
<title>SG_0_Node_10</title>
<ellipse fill="none" stroke="black" cx="50" cy="-304.07" rx="33.88" ry="21.43"/>
<text text-anchor="middle" x="50" y="-299.07" font-family="Times,serif" font-size="20.00">0.0</text>
</g>
<!-- SG_0_Node_4&#45;&gt;SG_0_Node_10 -->
<g id="edge9" class="edge">
<title>SG_0_Node_4&#45;&gt;SG_0_Node_10</title>
<path fill="none" stroke="black" d="M166.37,-443.52C115.26,-438.96 51.59,-429.34 35,-409.28 17.67,-388.33 25.54,-356.54 35.18,-333.58"/>
<polygon fill="black" stroke="black" points="38.43,-334.89 39.35,-324.34 32.05,-332.01 38.43,-334.89"/>
<text text-anchor="middle" x="275" y="-393.28" font-family="Times,serif" font-size="20.00">[[&#39;Feature&#45;Policy&#39;, &quot;fullscreen &#39;self&#39;&quot;]]</text>
<text text-anchor="middle" x="275" y="-371.28" font-family="Times,serif" font-size="20.00">[[&#39;Permissions&#45;Policy&#39;, &#39;fullscreen=(self none)&#39;]]</text>
<text text-anchor="middle" x="275" y="-349.28" font-family="Times,serif" font-size="20.00">[[&#39;Permissions&#45;Policy&#39;, &#39;fullscreen=(self)&#39;]]</text>
</g>
<!-- SG_0_Node_5 -->
<g id="node11" class="node">
<title>SG_0_Node_5</title>
<polygon fill="none" stroke="black" points="598,-322.07 476,-322.07 476,-286.07 598,-286.07 598,-322.07"/>
<text text-anchor="middle" x="537" y="-299.07" font-family="Times,serif" font-size="20.00">org_origin</text>
</g>
<!-- SG_0_Node_4&#45;&gt;SG_0_Node_5 -->
<g id="edge10" class="edge">
<title>SG_0_Node_4&#45;&gt;SG_0_Node_5</title>
<path fill="none" stroke="black" d="M303.76,-446.92C376.63,-444.82 485.23,-436.97 515,-409.28 535.78,-389.95 539.55,-356.33 539.24,-332.51"/>
<polygon fill="black" stroke="black" points="542.73,-332.21 538.85,-322.35 535.74,-332.47 542.73,-332.21"/>
<text text-anchor="middle" x="883.5" y="-371.28" font-family="Times,serif" font-size="20.00">[[&#39;Feature&#45;Policy&#39;, &#39;fullscreen https://sub.headers.websec.saarland&#39;]]</text>
</g>
<!-- SG_0_Node_11 -->
<g id="node12" class="node">
<title>SG_0_Node_11</title>
<ellipse fill="none" stroke="black" cx="305" cy="-159.64" rx="33.88" ry="21.43"/>
<text text-anchor="middle" x="305" y="-154.64" font-family="Times,serif" font-size="20.00">0.0</text>
</g>
<!-- SG_0_Node_5&#45;&gt;SG_0_Node_11 -->
<g id="edge11" class="edge">
<title>SG_0_Node_5&#45;&gt;SG_0_Node_11</title>
<path fill="none" stroke="black" d="M475.99,-301.8C413.95,-299.07 323.93,-290.63 302,-264.85 284.74,-244.56 288.32,-213.14 294.48,-190.11"/>
<polygon fill="black" stroke="black" points="297.85,-191.08 297.33,-180.49 291.13,-189.09 297.85,-191.08"/>
<text text-anchor="middle" x="488.5" y="-237.85" font-family="Times,serif" font-size="20.00">[NA]</text>
<text text-anchor="middle" x="488.5" y="-215.85" font-family="Times,serif" font-size="20.00">https://sub.headers.websec.saarland</text>
</g>
<!-- SG_0_Node_12 -->
<g id="node13" class="node">
<title>SG_0_Node_12</title>
<ellipse fill="none" stroke="black" cx="701" cy="-159.64" rx="33.88" ry="21.43"/>
<text text-anchor="middle" x="701" y="-154.64" font-family="Times,serif" font-size="20.00">1.0</text>
</g>
<!-- SG_0_Node_5&#45;&gt;SG_0_Node_12 -->
<g id="edge12" class="edge">
<title>SG_0_Node_5&#45;&gt;SG_0_Node_12</title>
<path fill="none" stroke="black" d="M598.25,-300.8C626.5,-296.56 658.29,-286.73 679,-264.85 697.44,-245.38 702.04,-214.52 702.57,-191.43"/>
<polygon fill="black" stroke="black" points="706.07,-191.11 702.56,-181.12 699.07,-191.12 706.07,-191.11"/>
<text text-anchor="middle" x="883.5" y="-226.85" font-family="Times,serif" font-size="20.00">http://sub.headers.websec.saarland</text>
</g>
<!-- SG_1_Node_0 -->
<g id="node14" class="node">
<title>SG_1_Node_0</title>
<polygon fill="none" stroke="black" points="2013.5,-1348.98 1912.5,-1348.98 1912.5,-1312.98 2013.5,-1312.98 2013.5,-1348.98"/>
<text text-anchor="middle" x="1963" y="-1325.98" font-family="Times,serif" font-size="20.00">browser</text>
</g>
<!-- SG_1_Node_1 -->
<g id="node15" class="node">
<title>SG_1_Node_1</title>
<polygon fill="none" stroke="black" points="1973.5,-1097.77 1836.5,-1097.77 1836.5,-1061.77 1973.5,-1061.77 1973.5,-1097.77"/>
<text text-anchor="middle" x="1905" y="-1074.77" font-family="Times,serif" font-size="20.00">raw_header</text>
</g>
<!-- SG_1_Node_0&#45;&gt;SG_1_Node_1 -->
<g id="edge13" class="edge">
<title>SG_1_Node_0&#45;&gt;SG_1_Node_1</title>
<path fill="none" stroke="black" d="M1926.71,-1312.89C1920.04,-1308.06 1913.95,-1302.13 1910,-1294.98 1876.88,-1235.12 1888.77,-1150.71 1898.09,-1107.92"/>
<polygon fill="black" stroke="black" points="1901.54,-1108.51 1900.37,-1097.98 1894.72,-1106.94 1901.54,-1108.51"/>
<text text-anchor="middle" x="1955.5" y="-1212.98" font-family="Times,serif" font-size="20.00">[NA]</text>
<text text-anchor="middle" x="1955.5" y="-1190.98" font-family="Times,serif" font-size="20.00">13 levels</text>
</g>
<!-- SG_1_Node_8 -->
<g id="node16" class="node">
<title>SG_1_Node_8</title>
<ellipse fill="none" stroke="black" cx="2025" cy="-1079.77" rx="33.88" ry="21.43"/>
<text text-anchor="middle" x="2025" y="-1074.77" font-family="Times,serif" font-size="20.00">1.0</text>
</g>
<!-- SG_1_Node_0&#45;&gt;SG_1_Node_8 -->
<g id="edge14" class="edge">
<title>SG_1_Node_0&#45;&gt;SG_1_Node_8</title>
<path fill="none" stroke="black" d="M1986.8,-1312.92C1992.33,-1307.78 1997.59,-1301.71 2001,-1294.98 2031.25,-1235.28 2030.95,-1154.45 2028.02,-1111.15"/>
<polygon fill="black" stroke="black" points="2031.49,-1110.69 2027.23,-1100.98 2024.51,-1111.22 2031.49,-1110.69"/>
<text text-anchor="middle" x="2275.5" y="-1256.98" font-family="Times,serif" font-size="20.00">brave iPadOS 17.2 1.61 (23.12.18.22) intent real</text>
<text text-anchor="middle" x="2275.5" y="-1234.98" font-family="Times,serif" font-size="20.00">chrome iPadOS 17.2 120.0.6099.119 intent real</text>
<text text-anchor="middle" x="2275.5" y="-1212.98" font-family="Times,serif" font-size="20.00">edge iPadOS 17.2 120.0.2210.116 intent real</text>
<text text-anchor="middle" x="2275.5" y="-1190.98" font-family="Times,serif" font-size="20.00">firefox Ubuntu 22.04 119 selenium headless</text>
<text text-anchor="middle" x="2275.5" y="-1168.98" font-family="Times,serif" font-size="20.00">firefox Ubuntu 22.04 119 selenium xvfb</text>
<text text-anchor="middle" x="2275.5" y="-1146.98" font-family="Times,serif" font-size="20.00">firefox_beta Android 11 122.0b1 intent real</text>
</g>
<!-- SG_1_Node_2 -->
<g id="node17" class="node">
<title>SG_1_Node_2</title>
<polygon fill="none" stroke="black" points="1774,-865.35 1642,-865.35 1642,-829.35 1774,-829.35 1774,-865.35"/>
<text text-anchor="middle" x="1708" y="-842.35" font-family="Times,serif" font-size="20.00">resp_origin</text>
</g>
<!-- SG_1_Node_1&#45;&gt;SG_1_Node_2 -->
<g id="edge15" class="edge">
<title>SG_1_Node_1&#45;&gt;SG_1_Node_2</title>
<path fill="none" stroke="black" d="M1890.19,-1061.45C1855.67,-1021.07 1769.71,-920.53 1729.45,-873.43"/>
<polygon fill="black" stroke="black" points="1731.87,-870.88 1722.71,-865.55 1726.55,-875.43 1731.87,-870.88"/>
<text text-anchor="middle" x="1916.5" y="-969.56" font-family="Times,serif" font-size="20.00">[NA]</text>
<text text-anchor="middle" x="1916.5" y="-947.56" font-family="Times,serif" font-size="20.00">15 levels</text>
</g>
<!-- SG_1_Node_3 -->
<g id="node18" class="node">
<title>SG_1_Node_3</title>
<polygon fill="none" stroke="black" points="2154.5,-865.35 2053.5,-865.35 2053.5,-829.35 2154.5,-829.35 2154.5,-865.35"/>
<text text-anchor="middle" x="2104" y="-842.35" font-family="Times,serif" font-size="20.00">browser</text>
</g>
<!-- SG_1_Node_1&#45;&gt;SG_1_Node_3 -->
<g id="edge16" class="edge">
<title>SG_1_Node_1&#45;&gt;SG_1_Node_3</title>
<path fill="none" stroke="black" d="M1937.39,-1061.7C1947.16,-1055.73 1957.53,-1048.51 1966,-1040.56 2020.62,-989.28 2067.46,-913.51 2089.88,-874.17"/>
<polygon fill="black" stroke="black" points="2092.93,-875.87 2094.79,-865.44 2086.83,-872.44 2092.93,-875.87"/>
<text text-anchor="middle" x="2321.5" y="-1024.56" font-family="Times,serif" font-size="20.00">[[&#39;Feature&#45;Policy&#39;, &#39;fullscreen *&#39;]]</text>
<text text-anchor="middle" x="2321.5" y="-1002.56" font-family="Times,serif" font-size="20.00">[[&#39;Permissions&#45;Policy&#39;, &#39;*&#39;]]</text>
<text text-anchor="middle" x="2321.5" y="-980.56" font-family="Times,serif" font-size="20.00">[[&#39;Permissions&#45;Policy&#39;, &#39;fullscreen=&#39;]]</text>
<text text-anchor="middle" x="2321.5" y="-958.56" font-family="Times,serif" font-size="20.00">[[&#39;Permissions&#45;Policy&#39;, &#39;fullscreen=(self,none)&#39;]]</text>
<text text-anchor="middle" x="2321.5" y="-936.56" font-family="Times,serif" font-size="20.00">[[&#39;Permissions&#45;Policy&#39;, &#39;fullscreen=*&#39;]]</text>
<text text-anchor="middle" x="2321.5" y="-914.56" font-family="Times,serif" font-size="20.00">[[&#39;Permissions&#45;Policy&#39;, &#39;null&#39;]]</text>
<text text-anchor="middle" x="2321.5" y="-892.56" font-family="Times,serif" font-size="20.00">[]</text>
</g>
<!-- SG_1_Node_9 -->
<g id="node19" class="node">
<title>SG_1_Node_9</title>
<ellipse fill="none" stroke="black" cx="1286" cy="-614.92" rx="33.88" ry="21.43"/>
<text text-anchor="middle" x="1286" y="-609.92" font-family="Times,serif" font-size="20.00">0.0</text>
</g>
<!-- SG_1_Node_2&#45;&gt;SG_1_Node_9 -->
<g id="edge19" class="edge">
<title>SG_1_Node_2&#45;&gt;SG_1_Node_9</title>
<path fill="none" stroke="black" d="M1641.74,-845.06C1529.66,-842.21 1312.47,-833.44 1289,-808.13 1248.33,-764.27 1263.13,-687.62 1275.67,-645.58"/>
<polygon fill="black" stroke="black" points="1279.05,-646.52 1278.7,-635.93 1272.37,-644.42 1279.05,-646.52"/>
<text text-anchor="middle" x="1496.5" y="-792.13" font-family="Times,serif" font-size="20.00">[NA]</text>
<text text-anchor="middle" x="1496.5" y="-770.13" font-family="Times,serif" font-size="20.00">http://headers.webappsec.eu</text>
<text text-anchor="middle" x="1496.5" y="-748.13" font-family="Times,serif" font-size="20.00">http://headers.websec.saarland</text>
<text text-anchor="middle" x="1496.5" y="-726.13" font-family="Times,serif" font-size="20.00">http://sub.sub.headers.websec.saarland</text>
<text text-anchor="middle" x="1496.5" y="-704.13" font-family="Times,serif" font-size="20.00">https://headers.webappsec.eu</text>
<text text-anchor="middle" x="1496.5" y="-682.13" font-family="Times,serif" font-size="20.00">https://headers.websec.saarland</text>
<text text-anchor="middle" x="1496.5" y="-660.13" font-family="Times,serif" font-size="20.00">https://sub.sub.headers.websec.saarland</text>
</g>
<!-- SG_1_Node_4 -->
<g id="node20" class="node">
<title>SG_1_Node_4</title>
<polygon fill="none" stroke="black" points="1776.5,-632.92 1639.5,-632.92 1639.5,-596.92 1776.5,-596.92 1776.5,-632.92"/>
<text text-anchor="middle" x="1708" y="-609.92" font-family="Times,serif" font-size="20.00">raw_header</text>
</g>
<!-- SG_1_Node_2&#45;&gt;SG_1_Node_4 -->
<g id="edge20" class="edge">
<title>SG_1_Node_2&#45;&gt;SG_1_Node_4</title>
<path fill="none" stroke="black" d="M1708,-829.03C1708,-789.31 1708,-691.42 1708,-643.39"/>
<polygon fill="black" stroke="black" points="1711.5,-643.12 1708,-633.12 1704.5,-643.12 1711.5,-643.12"/>
<text text-anchor="middle" x="1894.5" y="-737.13" font-family="Times,serif" font-size="20.00">http://sub.headers.websec.saarland</text>
<text text-anchor="middle" x="1894.5" y="-715.13" font-family="Times,serif" font-size="20.00">https://sub.headers.websec.saarland</text>
</g>
<!-- SG_1_Node_10 -->
<g id="node21" class="node">
<title>SG_1_Node_10</title>
<ellipse fill="none" stroke="black" cx="2104" cy="-614.92" rx="33.88" ry="21.43"/>
<text text-anchor="middle" x="2104" y="-609.92" font-family="Times,serif" font-size="20.00">0.0</text>
</g>
<!-- SG_1_Node_3&#45;&gt;SG_1_Node_10 -->
<g id="edge17" class="edge">
<title>SG_1_Node_3&#45;&gt;SG_1_Node_10</title>
<path fill="none" stroke="black" d="M2104,-829.03C2104,-790.12 2104,-695.38 2104,-646.38"/>
<polygon fill="black" stroke="black" points="2107.5,-646.38 2104,-636.38 2100.5,-646.38 2107.5,-646.38"/>
<text text-anchor="middle" x="2333" y="-737.13" font-family="Times,serif" font-size="20.00">firefox iPadOS 17.2 121.0 (36782) intent real</text>
<text text-anchor="middle" x="2333" y="-715.13" font-family="Times,serif" font-size="20.00">operagx iPadOS 17.2 2.2.2 intent real</text>
</g>
<!-- SG_1_Node_11 -->
<g id="node22" class="node">
<title>SG_1_Node_11</title>
<ellipse fill="none" stroke="black" cx="2585" cy="-614.92" rx="33.88" ry="21.43"/>
<text text-anchor="middle" x="2585" y="-609.92" font-family="Times,serif" font-size="20.00">1.0</text>
</g>
<!-- SG_1_Node_3&#45;&gt;SG_1_Node_11 -->
<g id="edge18" class="edge">
<title>SG_1_Node_3&#45;&gt;SG_1_Node_11</title>
<path fill="none" stroke="black" d="M2154.88,-845.68C2268.31,-843.69 2534.19,-836.07 2563,-808.13 2606.24,-766.21 2599.7,-688.72 2591.9,-646.05"/>
<polygon fill="black" stroke="black" points="2595.29,-645.13 2589.92,-635.99 2588.42,-646.48 2595.29,-645.13"/>
<text text-anchor="middle" x="2642.5" y="-737.13" font-family="Times,serif" font-size="20.00">[NA]</text>
<text text-anchor="middle" x="2642.5" y="-715.13" font-family="Times,serif" font-size="20.00">11 levels</text>
</g>
<!-- SG_1_Node_12 -->
<g id="node23" class="node">
<title>SG_1_Node_12</title>
<ellipse fill="none" stroke="black" cx="1651" cy="-448.49" rx="33.88" ry="21.43"/>
<text text-anchor="middle" x="1651" y="-443.49" font-family="Times,serif" font-size="20.00">0.0</text>
</g>
<!-- SG_1_Node_4&#45;&gt;SG_1_Node_12 -->
<g id="edge21" class="edge">
<title>SG_1_Node_4&#45;&gt;SG_1_Node_12</title>
<path fill="none" stroke="black" d="M1671.85,-596.76C1663.92,-591.2 1656.54,-584.22 1652,-575.71 1636.16,-546.01 1638.97,-506.51 1643.75,-479.66"/>
<polygon fill="black" stroke="black" points="1647.22,-480.18 1645.72,-469.69 1640.35,-478.82 1647.22,-480.18"/>
<text text-anchor="middle" x="1697.5" y="-537.71" font-family="Times,serif" font-size="20.00">[NA]</text>
<text text-anchor="middle" x="1697.5" y="-515.71" font-family="Times,serif" font-size="20.00">11 levels</text>
</g>
<!-- SG_1_Node_5 -->
<g id="node24" class="node">
<title>SG_1_Node_5</title>
<polygon fill="none" stroke="black" points="1815.5,-466.49 1714.5,-466.49 1714.5,-430.49 1815.5,-430.49 1815.5,-466.49"/>
<text text-anchor="middle" x="1765" y="-443.49" font-family="Times,serif" font-size="20.00">browser</text>
</g>
<!-- SG_1_Node_4&#45;&gt;SG_1_Node_5 -->
<g id="edge22" class="edge">
<title>SG_1_Node_4&#45;&gt;SG_1_Node_5</title>
<path fill="none" stroke="black" d="M1727.46,-596.88C1733.31,-590.77 1739.19,-583.46 1743,-575.71 1758.53,-544.13 1763.27,-503.38 1764.62,-476.85"/>
<polygon fill="black" stroke="black" points="1768.12,-476.89 1765.01,-466.76 1761.13,-476.62 1768.12,-476.89"/>
<text text-anchor="middle" x="2108.5" y="-559.71" font-family="Times,serif" font-size="20.00">[[&#39;Feature&#45;Policy&#39;, &quot;fullscreen &#39;self&#39;&quot;]]</text>
<text text-anchor="middle" x="2108.5" y="-537.71" font-family="Times,serif" font-size="20.00">[[&#39;Feature&#45;Policy&#39;, &#39;fullscreen https://sub.headers.websec.saarland&#39;]]</text>
<text text-anchor="middle" x="2108.5" y="-515.71" font-family="Times,serif" font-size="20.00">[[&#39;Permissions&#45;Policy&#39;, &#39;fullscreen=(self none)&#39;]]</text>
<text text-anchor="middle" x="2108.5" y="-493.71" font-family="Times,serif" font-size="20.00">[[&#39;Permissions&#45;Policy&#39;, &#39;fullscreen=(self)&#39;]]</text>
</g>
<!-- SG_1_Node_13 -->
<g id="node25" class="node">
<title>SG_1_Node_13</title>
<ellipse fill="none" stroke="black" cx="1416" cy="-304.07" rx="33.88" ry="21.43"/>
<text text-anchor="middle" x="1416" y="-299.07" font-family="Times,serif" font-size="20.00">0.0</text>
</g>
<!-- SG_1_Node_5&#45;&gt;SG_1_Node_13 -->
<g id="edge23" class="edge">
<title>SG_1_Node_5&#45;&gt;SG_1_Node_13</title>
<path fill="none" stroke="black" d="M1714.5,-431.7C1707.66,-429.98 1700.69,-428.43 1694,-427.28 1663.17,-421.97 1434.4,-432.1 1413,-409.28 1394.66,-389.73 1398.54,-357.93 1405.07,-334.59"/>
<polygon fill="black" stroke="black" points="1408.48,-335.44 1408.08,-324.85 1401.79,-333.37 1408.48,-335.44"/>
<text text-anchor="middle" x="1642" y="-382.28" font-family="Times,serif" font-size="20.00">firefox iPadOS 17.2 121.0 (36782) intent real</text>
<text text-anchor="middle" x="1642" y="-360.28" font-family="Times,serif" font-size="20.00">operagx iPadOS 17.2 2.2.2 intent real</text>
</g>
<!-- SG_1_Node_6 -->
<g id="node26" class="node">
<title>SG_1_Node_6</title>
<polygon fill="none" stroke="black" points="1965.5,-322.07 1828.5,-322.07 1828.5,-286.07 1965.5,-286.07 1965.5,-322.07"/>
<text text-anchor="middle" x="1897" y="-299.07" font-family="Times,serif" font-size="20.00">raw_header</text>
</g>
<!-- SG_1_Node_5&#45;&gt;SG_1_Node_6 -->
<g id="edge24" class="edge">
<title>SG_1_Node_5&#45;&gt;SG_1_Node_6</title>
<path fill="none" stroke="black" d="M1815.77,-441.02C1836.9,-435.79 1859.96,-426.34 1875,-409.28 1893.57,-388.2 1897.85,-355.43 1898.26,-332.28"/>
<polygon fill="black" stroke="black" points="1901.76,-332.06 1898.2,-322.08 1894.76,-332.1 1901.76,-332.06"/>
<text text-anchor="middle" x="1942.5" y="-382.28" font-family="Times,serif" font-size="20.00">[NA]</text>
<text text-anchor="middle" x="1942.5" y="-360.28" font-family="Times,serif" font-size="20.00">11 levels</text>
</g>
<!-- SG_1_Node_7 -->
<g id="node27" class="node">
<title>SG_1_Node_7</title>
<polygon fill="none" stroke="black" points="1458,-177.64 1336,-177.64 1336,-141.64 1458,-141.64 1458,-177.64"/>
<text text-anchor="middle" x="1397" y="-154.64" font-family="Times,serif" font-size="20.00">org_origin</text>
</g>
<!-- SG_1_Node_6&#45;&gt;SG_1_Node_7 -->
<g id="edge25" class="edge">
<title>SG_1_Node_6&#45;&gt;SG_1_Node_7</title>
<path fill="none" stroke="black" d="M1828.44,-300.3C1694.22,-294.56 1408.55,-280.55 1394,-264.85 1375.14,-244.5 1379.94,-211.15 1386.83,-187.67"/>
<polygon fill="black" stroke="black" points="1390.22,-188.56 1389.96,-177.97 1383.56,-186.41 1390.22,-188.56"/>
<text text-anchor="middle" x="1739.5" y="-226.85" font-family="Times,serif" font-size="20.00">[[&#39;Feature&#45;Policy&#39;, &#39;fullscreen https://sub.headers.websec.saarland&#39;]]</text>
</g>
<!-- SG_1_Node_14 -->
<g id="node28" class="node">
<title>SG_1_Node_14</title>
<ellipse fill="none" stroke="black" cx="2111" cy="-159.64" rx="33.88" ry="21.43"/>
<text text-anchor="middle" x="2111" y="-154.64" font-family="Times,serif" font-size="20.00">1.0</text>
</g>
<!-- SG_1_Node_6&#45;&gt;SG_1_Node_14 -->
<g id="edge26" class="edge">
<title>SG_1_Node_6&#45;&gt;SG_1_Node_14</title>
<path fill="none" stroke="black" d="M1965.6,-297.34C2013.43,-291.93 2071.66,-282 2089,-264.85 2108.27,-245.8 2112.69,-214.41 2112.94,-191.05"/>
<polygon fill="black" stroke="black" points="2116.44,-190.91 2112.8,-180.96 2109.44,-191 2116.44,-190.91"/>
<text text-anchor="middle" x="2352" y="-248.85" font-family="Times,serif" font-size="20.00">[[&#39;Feature&#45;Policy&#39;, &quot;fullscreen &#39;self&#39;&quot;]]</text>
<text text-anchor="middle" x="2352" y="-226.85" font-family="Times,serif" font-size="20.00">[[&#39;Permissions&#45;Policy&#39;, &#39;fullscreen=(self none)&#39;]]</text>
<text text-anchor="middle" x="2352" y="-204.85" font-family="Times,serif" font-size="20.00">[[&#39;Permissions&#45;Policy&#39;, &#39;fullscreen=(self)&#39;]]</text>
</g>
<!-- SG_1_Node_15 -->
<g id="node29" class="node">
<title>SG_1_Node_15</title>
<ellipse fill="none" stroke="black" cx="1341" cy="-37.21" rx="33.88" ry="21.43"/>
<text text-anchor="middle" x="1341" y="-32.21" font-family="Times,serif" font-size="20.00">0.0</text>
</g>
<!-- SG_1_Node_7&#45;&gt;SG_1_Node_15 -->
<g id="edge27" class="edge">
<title>SG_1_Node_7&#45;&gt;SG_1_Node_15</title>
<path fill="none" stroke="black" d="M1361.79,-141.55C1353.9,-135.96 1346.52,-128.95 1342,-120.43 1333.66,-104.7 1333.2,-84.79 1334.93,-68.51"/>
<polygon fill="black" stroke="black" points="1338.43,-68.79 1336.33,-58.4 1331.49,-67.83 1338.43,-68.79"/>
<text text-anchor="middle" x="1523.5" y="-93.43" font-family="Times,serif" font-size="20.00">http://sub.headers.websec.saarland</text>
</g>
<!-- SG_1_Node_16 -->
<g id="node30" class="node">
<title>SG_1_Node_16</title>
<ellipse fill="none" stroke="black" cx="1727" cy="-37.21" rx="33.88" ry="21.43"/>
<text text-anchor="middle" x="1727" y="-32.21" font-family="Times,serif" font-size="20.00">1.0</text>
</g>
<!-- SG_1_Node_7&#45;&gt;SG_1_Node_16 -->
<g id="edge28" class="edge">
<title>SG_1_Node_7&#45;&gt;SG_1_Node_16</title>
<path fill="none" stroke="black" d="M1458.3,-158.89C1537.45,-157.93 1669.29,-151.52 1705,-120.43 1719.49,-107.81 1724.93,-86.8 1726.79,-69.18"/>
<polygon fill="black" stroke="black" points="1730.31,-68.98 1727.52,-58.75 1723.33,-68.48 1730.31,-68.98"/>
<text text-anchor="middle" x="1911.5" y="-104.43" font-family="Times,serif" font-size="20.00">[NA]</text>
<text text-anchor="middle" x="1911.5" y="-82.43" font-family="Times,serif" font-size="20.00">https://sub.headers.websec.saarland</text>
</g>
<!-- SG_2_Node_0 -->
<g id="node31" class="node">
<title>SG_2_Node_0</title>
<polygon fill="none" stroke="black" points="2849.5,-1348.98 2748.5,-1348.98 2748.5,-1312.98 2849.5,-1312.98 2849.5,-1348.98"/>
<text text-anchor="middle" x="2799" y="-1325.98" font-family="Times,serif" font-size="20.00">browser</text>
</g>
<!-- SG_2_Node_1 -->
<g id="node32" class="node">
<title>SG_2_Node_1</title>
<ellipse fill="none" stroke="black" cx="2766" cy="-1079.77" rx="33.88" ry="21.43"/>
<text text-anchor="middle" x="2766" y="-1074.77" font-family="Times,serif" font-size="20.00">0.0</text>
</g>
<!-- SG_2_Node_0&#45;&gt;SG_2_Node_1 -->
<g id="edge29" class="edge">
<title>SG_2_Node_0&#45;&gt;SG_2_Node_1</title>
<path fill="none" stroke="black" d="M2778.82,-1312.9C2774.04,-1307.69 2769.58,-1301.58 2767,-1294.98 2742.85,-1233.2 2751.87,-1153.51 2759.56,-1110.87"/>
<polygon fill="black" stroke="black" points="2763.03,-1111.33 2761.46,-1100.86 2756.16,-1110.03 2763.03,-1111.33"/>
<text text-anchor="middle" x="2812.5" y="-1212.98" font-family="Times,serif" font-size="20.00">[NA]</text>
<text text-anchor="middle" x="2812.5" y="-1190.98" font-family="Times,serif" font-size="20.00">17 levels</text>
</g>
<!-- SG_2_Node_2 -->
<g id="node33" class="node">
<title>SG_2_Node_2</title>
<ellipse fill="none" stroke="black" cx="2880" cy="-1079.77" rx="33.88" ry="21.43"/>
<text text-anchor="middle" x="2880" y="-1074.77" font-family="Times,serif" font-size="20.00">1.0</text>
</g>
<!-- SG_2_Node_0&#45;&gt;SG_2_Node_2 -->
<g id="edge30" class="edge">
<title>SG_2_Node_0&#45;&gt;SG_2_Node_2</title>
<path fill="none" stroke="black" d="M2839.47,-1312.93C2846.69,-1308.14 2853.38,-1302.21 2858,-1294.98 2894.28,-1238.24 2890.39,-1155.28 2884.91,-1111.1"/>
<polygon fill="black" stroke="black" points="2888.35,-1110.44 2883.54,-1101 2881.41,-1111.38 2888.35,-1110.44"/>
<text text-anchor="middle" x="3117" y="-1212.98" font-family="Times,serif" font-size="20.00">firefox iPadOS 17.2 121.0 (36782) intent real</text>
<text text-anchor="middle" x="3117" y="-1190.98" font-family="Times,serif" font-size="20.00">operagx iPadOS 17.2 2.2.2 intent real</text>
</g>
</g>
</svg>
