<?xml version="1.0" encoding="UTF-8" standalone="no"?>
<!DOCTYPE svg PUBLIC "-//W3C//DTD SVG 1.1//EN"
 "http://www.w3.org/Graphics/SVG/1.1/DTD/svg11.dtd">
<!-- Generated by graphviz version 2.43.0 (0)
 -->
<!-- Title: G Pages: 1 -->
<svg width="3012pt" height="1180pt"
 viewBox="0.00 0.00 3012.00 1180.13" xmlns="http://www.w3.org/2000/svg" xmlns:xlink="http://www.w3.org/1999/xlink">
<g id="graph0" class="graph" transform="scale(1 1) rotate(0) translate(4 1176.13)">
<title>G</title>
<polygon fill="white" stroke="transparent" points="-4,4 -4,-1176.13 3008,-1176.13 3008,4 -4,4"/>
<g id="clust1" class="cluster">
<title>cluster_0</title>
<polygon fill="none" stroke="black" points="8,-130.43 8,-1164.13 853,-1164.13 853,-130.43 8,-130.43"/>
<text text-anchor="middle" x="430.5" y="-1128.13" font-family="Times,serif" font-size="40.00">Tree 0, Class fullscreenEnabled: false</text>
</g>
<g id="clust7" class="cluster">
<title>cluster_1</title>
<polygon fill="none" stroke="black" points="861,-8 861,-1164.13 2097,-1164.13 2097,-8 861,-8"/>
<text text-anchor="middle" x="1479" y="-1128.13" font-family="Times,serif" font-size="40.00">Tree 0, Class fullscreenEnabled: true</text>
</g>
<g id="clust14" class="cluster">
<title>cluster_2</title>
<polygon fill="none" stroke="black" points="2105,-761.71 2105,-1164.13 2996,-1164.13 2996,-761.71 2105,-761.71"/>
<text text-anchor="middle" x="2550.5" y="-1128.13" font-family="Times,serif" font-size="40.00">Tree 0, Class fullscreenEnabled: undefined</text>
</g>
<!-- SG_0_Node_0 -->
<g id="node1" class="node">
<title>SG_0_Node_0</title>
<polygon fill="none" stroke="black" points="387.5,-1104.13 250.5,-1104.13 250.5,-1068.13 387.5,-1068.13 387.5,-1104.13"/>
<text text-anchor="middle" x="319" y="-1081.13" font-family="Times,serif" font-size="20.00">raw_header</text>
</g>
<!-- SG_0_Node_4 -->
<g id="node2" class="node">
<title>SG_0_Node_4</title>
<ellipse fill="none" stroke="black" cx="56" cy="-790.92" rx="33.88" ry="21.43"/>
<text text-anchor="middle" x="56" y="-785.92" font-family="Times,serif" font-size="20.00">0.0</text>
</g>
<!-- SG_0_Node_0&#45;&gt;SG_0_Node_4 -->
<g id="edge1" class="edge">
<title>SG_0_Node_0&#45;&gt;SG_0_Node_4</title>
<path fill="none" stroke="black" d="M250.39,-1085.95C180.27,-1085.14 78.18,-1078.85 53,-1050.13 -3.38,-985.85 25.91,-874.05 44.51,-821.2"/>
<polygon fill="black" stroke="black" points="47.82,-822.33 47.95,-811.74 41.24,-819.94 47.82,-822.33"/>
<text text-anchor="middle" x="293" y="-1034.13" font-family="Times,serif" font-size="20.00">[[&#39;Feature&#45;Policy&#39;, &quot;fullscreen &#39;self&#39;&quot;]]</text>
<text text-anchor="middle" x="293" y="-1012.13" font-family="Times,serif" font-size="20.00">[[&#39;Feature&#45;Policy&#39;, &#39;fullscreen *&#39;]]</text>
<text text-anchor="middle" x="293" y="-990.13" font-family="Times,serif" font-size="20.00">[[&#39;Permissions&#45;Policy&#39;, &#39;*&#39;]]</text>
<text text-anchor="middle" x="293" y="-968.13" font-family="Times,serif" font-size="20.00">[[&#39;Permissions&#45;Policy&#39;, &#39;fullscreen=&#39;]]</text>
<text text-anchor="middle" x="293" y="-946.13" font-family="Times,serif" font-size="20.00">[[&#39;Permissions&#45;Policy&#39;, &#39;fullscreen=(self none)&#39;]]</text>
<text text-anchor="middle" x="293" y="-924.13" font-family="Times,serif" font-size="20.00">[[&#39;Permissions&#45;Policy&#39;, &#39;fullscreen=(self)&#39;]]</text>
<text text-anchor="middle" x="293" y="-902.13" font-family="Times,serif" font-size="20.00">[[&#39;Permissions&#45;Policy&#39;, &#39;fullscreen=(self,none)&#39;]]</text>
<text text-anchor="middle" x="293" y="-880.13" font-family="Times,serif" font-size="20.00">[[&#39;Permissions&#45;Policy&#39;, &#39;fullscreen=*&#39;]]</text>
<text text-anchor="middle" x="293" y="-858.13" font-family="Times,serif" font-size="20.00">[[&#39;Permissions&#45;Policy&#39;, &#39;null&#39;]]</text>
<text text-anchor="middle" x="293" y="-836.13" font-family="Times,serif" font-size="20.00">[]</text>
</g>
<!-- SG_0_Node_1 -->
<g id="node3" class="node">
<title>SG_0_Node_1</title>
<polygon fill="none" stroke="black" points="609.5,-808.92 508.5,-808.92 508.5,-772.92 609.5,-772.92 609.5,-808.92"/>
<text text-anchor="middle" x="559" y="-785.92" font-family="Times,serif" font-size="20.00">browser</text>
</g>
<!-- SG_0_Node_0&#45;&gt;SG_0_Node_1 -->
<g id="edge2" class="edge">
<title>SG_0_Node_0&#45;&gt;SG_0_Node_1</title>
<path fill="none" stroke="black" d="M387.61,-1083.08C443.8,-1079.84 517.15,-1071.52 537,-1050.13 596.28,-986.28 578.46,-871.27 566.27,-819.04"/>
<polygon fill="black" stroke="black" points="569.63,-818.06 563.86,-809.18 562.83,-819.72 569.63,-818.06"/>
<text text-anchor="middle" x="623.5" y="-946.13" font-family="Times,serif" font-size="20.00">[NA]</text>
<text text-anchor="middle" x="623.5" y="-924.13" font-family="Times,serif" font-size="20.00">12 levels</text>
</g>
<!-- SG_0_Node_5 -->
<g id="node4" class="node">
<title>SG_0_Node_5</title>
<ellipse fill="none" stroke="black" cx="144" cy="-536.49" rx="33.88" ry="21.43"/>
<text text-anchor="middle" x="144" y="-531.49" font-family="Times,serif" font-size="20.00">0.0</text>
</g>
<!-- SG_0_Node_1&#45;&gt;SG_0_Node_5 -->
<g id="edge3" class="edge">
<title>SG_0_Node_1&#45;&gt;SG_0_Node_5</title>
<path fill="none" stroke="black" d="M508.5,-789.03C402.67,-786.66 165.35,-778.38 141,-751.71 94.84,-701.14 116.62,-612.54 132.49,-566.74"/>
<polygon fill="black" stroke="black" points="135.86,-567.72 135.96,-557.12 129.28,-565.34 135.86,-567.72"/>
<text text-anchor="middle" x="387.5" y="-735.71" font-family="Times,serif" font-size="20.00">brave iPadOS 17.2 1.61 (23.12.18.22) intent real</text>
<text text-anchor="middle" x="387.5" y="-713.71" font-family="Times,serif" font-size="20.00">chrome iPadOS 17.2 120.0.6099.119 intent real</text>
<text text-anchor="middle" x="387.5" y="-691.71" font-family="Times,serif" font-size="20.00">edge iPadOS 17.2 120.0.2210.116 intent real</text>
<text text-anchor="middle" x="387.5" y="-669.71" font-family="Times,serif" font-size="20.00">firefox Ubuntu 22.04 119 selenium headless</text>
<text text-anchor="middle" x="387.5" y="-647.71" font-family="Times,serif" font-size="20.00">firefox Ubuntu 22.04 119 selenium xvfb</text>
<text text-anchor="middle" x="387.5" y="-625.71" font-family="Times,serif" font-size="20.00">firefox iPadOS 17.2 121.0 (36782) intent real</text>
<text text-anchor="middle" x="387.5" y="-603.71" font-family="Times,serif" font-size="20.00">firefox_beta Android 11 122.0b1 intent real</text>
<text text-anchor="middle" x="387.5" y="-581.71" font-family="Times,serif" font-size="20.00">operagx iPadOS 17.2 2.2.2 intent real</text>
</g>
<!-- SG_0_Node_2 -->
<g id="node5" class="node">
<title>SG_0_Node_2</title>
<polygon fill="none" stroke="black" points="728.5,-554.49 591.5,-554.49 591.5,-518.49 728.5,-518.49 728.5,-554.49"/>
<text text-anchor="middle" x="660" y="-531.49" font-family="Times,serif" font-size="20.00">raw_header</text>
</g>
<!-- SG_0_Node_1&#45;&gt;SG_0_Node_2 -->
<g id="edge4" class="edge">
<title>SG_0_Node_1&#45;&gt;SG_0_Node_2</title>
<path fill="none" stroke="black" d="M609.76,-774.72C620.67,-769.16 631,-761.69 638,-751.71 677.74,-695 671.49,-608.21 665,-564.55"/>
<polygon fill="black" stroke="black" points="668.45,-564 663.41,-554.68 661.54,-565.1 668.45,-564"/>
<text text-anchor="middle" x="714.5" y="-669.71" font-family="Times,serif" font-size="20.00">[NA]</text>
<text text-anchor="middle" x="714.5" y="-647.71" font-family="Times,serif" font-size="20.00">11 levels</text>
</g>
<!-- SG_0_Node_3 -->
<g id="node6" class="node">
<title>SG_0_Node_3</title>
<polygon fill="none" stroke="black" points="148,-432.07 16,-432.07 16,-396.07 148,-396.07 148,-432.07"/>
<text text-anchor="middle" x="82" y="-409.07" font-family="Times,serif" font-size="20.00">resp_origin</text>
</g>
<!-- SG_0_Node_2&#45;&gt;SG_0_Node_3 -->
<g id="edge5" class="edge">
<title>SG_0_Node_2&#45;&gt;SG_0_Node_3</title>
<path fill="none" stroke="black" d="M591.27,-532.51C431.22,-525.39 46.4,-507.28 37,-497.28 23.6,-483.03 28.79,-471.03 37,-453.28 39.37,-448.16 42.79,-443.48 46.72,-439.28"/>
<polygon fill="black" stroke="black" points="49.3,-441.66 54.19,-432.26 44.51,-436.56 49.3,-441.66"/>
<text text-anchor="middle" x="382.5" y="-470.28" font-family="Times,serif" font-size="20.00">[[&#39;Feature&#45;Policy&#39;, &#39;fullscreen https://sub.headers.websec.saarland&#39;]]</text>
</g>
<!-- SG_0_Node_6 -->
<g id="node7" class="node">
<title>SG_0_Node_6</title>
<ellipse fill="none" stroke="black" cx="754" cy="-414.07" rx="33.88" ry="21.43"/>
<text text-anchor="middle" x="754" y="-409.07" font-family="Times,serif" font-size="20.00">1.0</text>
</g>
<!-- SG_0_Node_2&#45;&gt;SG_0_Node_6 -->
<g id="edge6" class="edge">
<title>SG_0_Node_2&#45;&gt;SG_0_Node_6</title>
<path fill="none" stroke="black" d="M706.05,-518.29C715.76,-512.84 725.13,-505.92 732,-497.28 743.62,-482.67 749.13,-462.46 751.73,-445.74"/>
<polygon fill="black" stroke="black" points="755.26,-445.7 753.05,-435.34 748.32,-444.82 755.26,-445.7"/>
<text text-anchor="middle" x="795.5" y="-481.28" font-family="Times,serif" font-size="20.00">[NA]</text>
<text text-anchor="middle" x="795.5" y="-459.28" font-family="Times,serif" font-size="20.00">11 levels</text>
</g>
<!-- SG_0_Node_7 -->
<g id="node8" class="node">
<title>SG_0_Node_7</title>
<ellipse fill="none" stroke="black" cx="50" cy="-159.64" rx="33.88" ry="21.43"/>
<text text-anchor="middle" x="50" y="-154.64" font-family="Times,serif" font-size="20.00">0.0</text>
</g>
<!-- SG_0_Node_3&#45;&gt;SG_0_Node_7 -->
<g id="edge7" class="edge">
<title>SG_0_Node_3&#45;&gt;SG_0_Node_7</title>
<path fill="none" stroke="black" d="M52.49,-395.7C45.46,-390.01 38.89,-383.02 35,-374.85 1.39,-304.22 20.46,-275.71 35,-198.85 35.58,-195.8 36.39,-192.68 37.35,-189.6"/>
<polygon fill="black" stroke="black" points="40.69,-190.65 40.76,-180.05 34.1,-188.29 40.69,-190.65"/>
<text text-anchor="middle" x="221.5" y="-281.85" font-family="Times,serif" font-size="20.00">https://sub.headers.websec.saarland</text>
</g>
<!-- SG_0_Node_8 -->
<g id="node9" class="node">
<title>SG_0_Node_8</title>
<ellipse fill="none" stroke="black" cx="430" cy="-159.64" rx="33.88" ry="21.43"/>
<text text-anchor="middle" x="430" y="-154.64" font-family="Times,serif" font-size="20.00">1.0</text>
</g>
<!-- SG_0_Node_3&#45;&gt;SG_0_Node_8 -->
<g id="edge8" class="edge">
<title>SG_0_Node_3&#45;&gt;SG_0_Node_8</title>
<path fill="none" stroke="black" d="M148.26,-409.68C238.27,-404.43 390.12,-392.99 408,-374.85 432.92,-349.57 432.97,-243.91 431.34,-191.04"/>
<polygon fill="black" stroke="black" points="434.83,-190.78 430.99,-180.91 427.84,-191.02 434.83,-190.78"/>
<text text-anchor="middle" x="638.5" y="-358.85" font-family="Times,serif" font-size="20.00">[NA]</text>
<text text-anchor="middle" x="638.5" y="-336.85" font-family="Times,serif" font-size="20.00">http://headers.webappsec.eu</text>
<text text-anchor="middle" x="638.5" y="-314.85" font-family="Times,serif" font-size="20.00">http://headers.websec.saarland</text>
<text text-anchor="middle" x="638.5" y="-292.85" font-family="Times,serif" font-size="20.00">http://sub.headers.websec.saarland</text>
<text text-anchor="middle" x="638.5" y="-270.85" font-family="Times,serif" font-size="20.00">http://sub.sub.headers.websec.saarland</text>
<text text-anchor="middle" x="638.5" y="-248.85" font-family="Times,serif" font-size="20.00">https://headers.webappsec.eu</text>
<text text-anchor="middle" x="638.5" y="-226.85" font-family="Times,serif" font-size="20.00">https://headers.websec.saarland</text>
<text text-anchor="middle" x="638.5" y="-204.85" font-family="Times,serif" font-size="20.00">https://sub.sub.headers.websec.saarland</text>
</g>
<!-- SG_1_Node_0 -->
<g id="node10" class="node">
<title>SG_1_Node_0</title>
<polygon fill="none" stroke="black" points="1326.5,-1104.13 1189.5,-1104.13 1189.5,-1068.13 1326.5,-1068.13 1326.5,-1104.13"/>
<text text-anchor="middle" x="1258" y="-1081.13" font-family="Times,serif" font-size="20.00">raw_header</text>
</g>
<!-- SG_1_Node_1 -->
<g id="node11" class="node">
<title>SG_1_Node_1</title>
<polygon fill="none" stroke="black" points="1051.5,-808.92 950.5,-808.92 950.5,-772.92 1051.5,-772.92 1051.5,-808.92"/>
<text text-anchor="middle" x="1001" y="-785.92" font-family="Times,serif" font-size="20.00">browser</text>
</g>
<!-- SG_1_Node_0&#45;&gt;SG_1_Node_1 -->
<g id="edge9" class="edge">
<title>SG_1_Node_0&#45;&gt;SG_1_Node_1</title>
<path fill="none" stroke="black" d="M1243.07,-1068.1C1199.69,-1018.61 1073.5,-874.64 1022.63,-816.6"/>
<polygon fill="black" stroke="black" points="1025.19,-814.21 1015.97,-809 1019.93,-818.82 1025.19,-814.21"/>
<text text-anchor="middle" x="1271.5" y="-946.13" font-family="Times,serif" font-size="20.00">[NA]</text>
<text text-anchor="middle" x="1271.5" y="-924.13" font-family="Times,serif" font-size="20.00">12 levels</text>
</g>
<!-- SG_1_Node_2 -->
<g id="node12" class="node">
<title>SG_1_Node_2</title>
<polygon fill="none" stroke="black" points="1567.5,-808.92 1466.5,-808.92 1466.5,-772.92 1567.5,-772.92 1567.5,-808.92"/>
<text text-anchor="middle" x="1517" y="-785.92" font-family="Times,serif" font-size="20.00">browser</text>
</g>
<!-- SG_1_Node_0&#45;&gt;SG_1_Node_2 -->
<g id="edge10" class="edge">
<title>SG_1_Node_0&#45;&gt;SG_1_Node_2</title>
<path fill="none" stroke="black" d="M1294.68,-1068.1C1303.77,-1063.01 1313.15,-1056.94 1321,-1050.13 1403.29,-978.78 1473.18,-867.74 1502.38,-817.8"/>
<polygon fill="black" stroke="black" points="1505.53,-819.34 1507.51,-808.93 1499.48,-815.83 1505.53,-819.34"/>
<text text-anchor="middle" x="1732" y="-1034.13" font-family="Times,serif" font-size="20.00">[[&#39;Feature&#45;Policy&#39;, &quot;fullscreen &#39;self&#39;&quot;]]</text>
<text text-anchor="middle" x="1732" y="-1012.13" font-family="Times,serif" font-size="20.00">[[&#39;Feature&#45;Policy&#39;, &#39;fullscreen *&#39;]]</text>
<text text-anchor="middle" x="1732" y="-990.13" font-family="Times,serif" font-size="20.00">[[&#39;Permissions&#45;Policy&#39;, &#39;*&#39;]]</text>
<text text-anchor="middle" x="1732" y="-968.13" font-family="Times,serif" font-size="20.00">[[&#39;Permissions&#45;Policy&#39;, &#39;fullscreen=&#39;]]</text>
<text text-anchor="middle" x="1732" y="-946.13" font-family="Times,serif" font-size="20.00">[[&#39;Permissions&#45;Policy&#39;, &#39;fullscreen=(self none)&#39;]]</text>
<text text-anchor="middle" x="1732" y="-924.13" font-family="Times,serif" font-size="20.00">[[&#39;Permissions&#45;Policy&#39;, &#39;fullscreen=(self)&#39;]]</text>
<text text-anchor="middle" x="1732" y="-902.13" font-family="Times,serif" font-size="20.00">[[&#39;Permissions&#45;Policy&#39;, &#39;fullscreen=(self,none)&#39;]]</text>
<text text-anchor="middle" x="1732" y="-880.13" font-family="Times,serif" font-size="20.00">[[&#39;Permissions&#45;Policy&#39;, &#39;fullscreen=*&#39;]]</text>
<text text-anchor="middle" x="1732" y="-858.13" font-family="Times,serif" font-size="20.00">[[&#39;Permissions&#45;Policy&#39;, &#39;null&#39;]]</text>
<text text-anchor="middle" x="1732" y="-836.13" font-family="Times,serif" font-size="20.00">[]</text>
</g>
<!-- SG_1_Node_3 -->
<g id="node13" class="node">
<title>SG_1_Node_3</title>
<polygon fill="none" stroke="black" points="1006.5,-554.49 869.5,-554.49 869.5,-518.49 1006.5,-518.49 1006.5,-554.49"/>
<text text-anchor="middle" x="938" y="-531.49" font-family="Times,serif" font-size="20.00">raw_header</text>
</g>
<!-- SG_1_Node_1&#45;&gt;SG_1_Node_3 -->
<g id="edge13" class="edge">
<title>SG_1_Node_1&#45;&gt;SG_1_Node_3</title>
<path fill="none" stroke="black" d="M950.3,-783.07C931.28,-777.77 911.51,-768.36 900,-751.71 855.54,-687.35 870.17,-648.02 900,-575.71 902,-570.86 904.95,-566.3 908.33,-562.14"/>
<polygon fill="black" stroke="black" points="911.03,-564.37 915.24,-554.65 905.88,-559.63 911.03,-564.37"/>
<text text-anchor="middle" x="945.5" y="-669.71" font-family="Times,serif" font-size="20.00">[NA]</text>
<text text-anchor="middle" x="945.5" y="-647.71" font-family="Times,serif" font-size="20.00">13 levels</text>
</g>
<!-- SG_1_Node_6 -->
<g id="node14" class="node">
<title>SG_1_Node_6</title>
<ellipse fill="none" stroke="black" cx="1058" cy="-536.49" rx="33.88" ry="21.43"/>
<text text-anchor="middle" x="1058" y="-531.49" font-family="Times,serif" font-size="20.00">1.0</text>
</g>
<!-- SG_1_Node_1&#45;&gt;SG_1_Node_6 -->
<g id="edge14" class="edge">
<title>SG_1_Node_1&#45;&gt;SG_1_Node_6</title>
<path fill="none" stroke="black" d="M998.74,-772.81C994.56,-735.14 988.65,-643.07 1020,-575.71 1022.53,-570.27 1026.17,-565.16 1030.21,-560.56"/>
<polygon fill="black" stroke="black" points="1032.79,-562.93 1037.26,-553.32 1027.78,-558.04 1032.79,-562.93"/>
<text text-anchor="middle" x="1266.5" y="-713.71" font-family="Times,serif" font-size="20.00">brave iPadOS 17.2 1.61 (23.12.18.22) intent real</text>
<text text-anchor="middle" x="1266.5" y="-691.71" font-family="Times,serif" font-size="20.00">chrome iPadOS 17.2 120.0.6099.119 intent real</text>
<text text-anchor="middle" x="1266.5" y="-669.71" font-family="Times,serif" font-size="20.00">edge iPadOS 17.2 120.0.2210.116 intent real</text>
<text text-anchor="middle" x="1266.5" y="-647.71" font-family="Times,serif" font-size="20.00">firefox Ubuntu 22.04 119 selenium headless</text>
<text text-anchor="middle" x="1266.5" y="-625.71" font-family="Times,serif" font-size="20.00">firefox Ubuntu 22.04 119 selenium xvfb</text>
<text text-anchor="middle" x="1266.5" y="-603.71" font-family="Times,serif" font-size="20.00">firefox_beta Android 11 122.0b1 intent real</text>
</g>
<!-- SG_1_Node_7 -->
<g id="node15" class="node">
<title>SG_1_Node_7</title>
<ellipse fill="none" stroke="black" cx="1517" cy="-536.49" rx="33.88" ry="21.43"/>
<text text-anchor="middle" x="1517" y="-531.49" font-family="Times,serif" font-size="20.00">0.0</text>
</g>
<!-- SG_1_Node_2&#45;&gt;SG_1_Node_7 -->
<g id="edge11" class="edge">
<title>SG_1_Node_2&#45;&gt;SG_1_Node_7</title>
<path fill="none" stroke="black" d="M1517,-772.57C1517,-730.26 1517,-621.35 1517,-567.94"/>
<polygon fill="black" stroke="black" points="1520.5,-567.73 1517,-557.73 1513.5,-567.73 1520.5,-567.73"/>
<text text-anchor="middle" x="1746" y="-669.71" font-family="Times,serif" font-size="20.00">firefox iPadOS 17.2 121.0 (36782) intent real</text>
<text text-anchor="middle" x="1746" y="-647.71" font-family="Times,serif" font-size="20.00">operagx iPadOS 17.2 2.2.2 intent real</text>
</g>
<!-- SG_1_Node_8 -->
<g id="node16" class="node">
<title>SG_1_Node_8</title>
<ellipse fill="none" stroke="black" cx="1998" cy="-536.49" rx="33.88" ry="21.43"/>
<text text-anchor="middle" x="1998" y="-531.49" font-family="Times,serif" font-size="20.00">1.0</text>
</g>
<!-- SG_1_Node_2&#45;&gt;SG_1_Node_8 -->
<g id="edge12" class="edge">
<title>SG_1_Node_2&#45;&gt;SG_1_Node_8</title>
<path fill="none" stroke="black" d="M1567.91,-789.27C1681.38,-787.33 1947.35,-779.81 1976,-751.71 2025.13,-703.52 2014.98,-613.87 2005.4,-567.3"/>
<polygon fill="black" stroke="black" points="2008.81,-566.54 2003.26,-557.51 2001.98,-568.03 2008.81,-566.54"/>
<text text-anchor="middle" x="2058.5" y="-669.71" font-family="Times,serif" font-size="20.00">[NA]</text>
<text text-anchor="middle" x="2058.5" y="-647.71" font-family="Times,serif" font-size="20.00">17 levels</text>
</g>
<!-- SG_1_Node_9 -->
<g id="node17" class="node">
<title>SG_1_Node_9</title>
<ellipse fill="none" stroke="black" cx="920" cy="-414.07" rx="33.88" ry="21.43"/>
<text text-anchor="middle" x="920" y="-409.07" font-family="Times,serif" font-size="20.00">0.0</text>
</g>
<!-- SG_1_Node_3&#45;&gt;SG_1_Node_9 -->
<g id="edge15" class="edge">
<title>SG_1_Node_3&#45;&gt;SG_1_Node_9</title>
<path fill="none" stroke="black" d="M930.45,-518.31C927.94,-511.84 925.43,-504.34 924,-497.28 920.59,-480.44 919.5,-461.28 919.3,-445.69"/>
<polygon fill="black" stroke="black" points="922.8,-445.55 919.29,-435.55 915.8,-445.55 922.8,-445.55"/>
<text text-anchor="middle" x="969.5" y="-481.28" font-family="Times,serif" font-size="20.00">[NA]</text>
<text text-anchor="middle" x="969.5" y="-459.28" font-family="Times,serif" font-size="20.00">11 levels</text>
</g>
<!-- SG_1_Node_4 -->
<g id="node18" class="node">
<title>SG_1_Node_4</title>
<polygon fill="none" stroke="black" points="1104,-432.07 972,-432.07 972,-396.07 1104,-396.07 1104,-432.07"/>
<text text-anchor="middle" x="1038" y="-409.07" font-family="Times,serif" font-size="20.00">resp_origin</text>
</g>
<!-- SG_1_Node_3&#45;&gt;SG_1_Node_4 -->
<g id="edge16" class="edge">
<title>SG_1_Node_3&#45;&gt;SG_1_Node_4</title>
<path fill="none" stroke="black" d="M987.94,-518.34C998.04,-512.93 1007.77,-506.02 1015,-497.28 1027.76,-481.87 1033.46,-459.85 1035.99,-442.48"/>
<polygon fill="black" stroke="black" points="1039.49,-442.71 1037.2,-432.36 1032.54,-441.88 1039.49,-442.71"/>
<text text-anchor="middle" x="1379.5" y="-470.28" font-family="Times,serif" font-size="20.00">[[&#39;Feature&#45;Policy&#39;, &#39;fullscreen https://sub.headers.websec.saarland&#39;]]</text>
</g>
<!-- SG_1_Node_10 -->
<g id="node19" class="node">
<title>SG_1_Node_10</title>
<ellipse fill="none" stroke="black" cx="924" cy="-159.64" rx="33.88" ry="21.43"/>
<text text-anchor="middle" x="924" y="-154.64" font-family="Times,serif" font-size="20.00">0.0</text>
</g>
<!-- SG_1_Node_4&#45;&gt;SG_1_Node_10 -->
<g id="edge17" class="edge">
<title>SG_1_Node_4&#45;&gt;SG_1_Node_10</title>
<path fill="none" stroke="black" d="M978.01,-396.04C952.86,-388.31 928.57,-379.81 925,-374.85 885.45,-320 901.58,-234.99 914.25,-190.35"/>
<polygon fill="black" stroke="black" points="917.62,-191.26 917.11,-180.68 910.91,-189.27 917.62,-191.26"/>
<text text-anchor="middle" x="1132.5" y="-358.85" font-family="Times,serif" font-size="20.00">[NA]</text>
<text text-anchor="middle" x="1132.5" y="-336.85" font-family="Times,serif" font-size="20.00">http://headers.webappsec.eu</text>
<text text-anchor="middle" x="1132.5" y="-314.85" font-family="Times,serif" font-size="20.00">http://headers.websec.saarland</text>
<text text-anchor="middle" x="1132.5" y="-292.85" font-family="Times,serif" font-size="20.00">http://sub.headers.websec.saarland</text>
<text text-anchor="middle" x="1132.5" y="-270.85" font-family="Times,serif" font-size="20.00">http://sub.sub.headers.websec.saarland</text>
<text text-anchor="middle" x="1132.5" y="-248.85" font-family="Times,serif" font-size="20.00">https://headers.webappsec.eu</text>
<text text-anchor="middle" x="1132.5" y="-226.85" font-family="Times,serif" font-size="20.00">https://headers.websec.saarland</text>
<text text-anchor="middle" x="1132.5" y="-204.85" font-family="Times,serif" font-size="20.00">https://sub.sub.headers.websec.saarland</text>
</g>
<!-- SG_1_Node_5 -->
<g id="node20" class="node">
<title>SG_1_Node_5</title>
<polygon fill="none" stroke="black" points="1412.5,-177.64 1311.5,-177.64 1311.5,-141.64 1412.5,-141.64 1412.5,-177.64"/>
<text text-anchor="middle" x="1362" y="-154.64" font-family="Times,serif" font-size="20.00">browser</text>
</g>
<!-- SG_1_Node_4&#45;&gt;SG_1_Node_5 -->
<g id="edge18" class="edge">
<title>SG_1_Node_4&#45;&gt;SG_1_Node_5</title>
<path fill="none" stroke="black" d="M1104.29,-413.92C1183.2,-413.42 1308.29,-407.32 1340,-374.85 1388.97,-324.71 1378.02,-233.13 1368.64,-187.69"/>
<polygon fill="black" stroke="black" points="1372.01,-186.72 1366.45,-177.7 1365.17,-188.22 1372.01,-186.72"/>
<text text-anchor="middle" x="1562.5" y="-281.85" font-family="Times,serif" font-size="20.00">https://sub.headers.websec.saarland</text>
</g>
<!-- SG_1_Node_11 -->
<g id="node21" class="node">
<title>SG_1_Node_11</title>
<ellipse fill="none" stroke="black" cx="1132" cy="-37.21" rx="33.88" ry="21.43"/>
<text text-anchor="middle" x="1132" y="-32.21" font-family="Times,serif" font-size="20.00">0.0</text>
</g>
<!-- SG_1_Node_5&#45;&gt;SG_1_Node_11 -->
<g id="edge19" class="edge">
<title>SG_1_Node_5&#45;&gt;SG_1_Node_11</title>
<path fill="none" stroke="black" d="M1311.24,-157.49C1250.9,-154.92 1155.53,-146.7 1133,-120.43 1121,-106.43 1120.85,-85.62 1123.66,-68.44"/>
<polygon fill="black" stroke="black" points="1127.15,-68.8 1125.7,-58.31 1120.29,-67.42 1127.15,-68.8"/>
<text text-anchor="middle" x="1362" y="-104.43" font-family="Times,serif" font-size="20.00">firefox iPadOS 17.2 121.0 (36782) intent real</text>
<text text-anchor="middle" x="1362" y="-82.43" font-family="Times,serif" font-size="20.00">operagx iPadOS 17.2 2.2.2 intent real</text>
</g>
<!-- SG_1_Node_12 -->
<g id="node22" class="node">
<title>SG_1_Node_12</title>
<ellipse fill="none" stroke="black" cx="1613" cy="-37.21" rx="33.88" ry="21.43"/>
<text text-anchor="middle" x="1613" y="-32.21" font-family="Times,serif" font-size="20.00">1.0</text>
</g>
<!-- SG_1_Node_5&#45;&gt;SG_1_Node_12 -->
<g id="edge20" class="edge">
<title>SG_1_Node_5&#45;&gt;SG_1_Node_12</title>
<path fill="none" stroke="black" d="M1412.54,-156.46C1471.88,-152.86 1565.49,-143.6 1591,-120.43 1605.22,-107.51 1610.67,-86.51 1612.59,-68.97"/>
<polygon fill="black" stroke="black" points="1616.11,-68.83 1613.38,-58.59 1609.13,-68.3 1616.11,-68.83"/>
<text text-anchor="middle" x="1656.5" y="-104.43" font-family="Times,serif" font-size="20.00">[NA]</text>
<text text-anchor="middle" x="1656.5" y="-82.43" font-family="Times,serif" font-size="20.00">11 levels</text>
</g>
<!-- SG_2_Node_0 -->
<g id="node23" class="node">
<title>SG_2_Node_0</title>
<polygon fill="none" stroke="black" points="2262.5,-1104.13 2161.5,-1104.13 2161.5,-1068.13 2262.5,-1068.13 2262.5,-1104.13"/>
<text text-anchor="middle" x="2212" y="-1081.13" font-family="Times,serif" font-size="20.00">browser</text>
</g>
<!-- SG_2_Node_1 -->
<g id="node24" class="node">
<title>SG_2_Node_1</title>
<ellipse fill="none" stroke="black" cx="2179" cy="-790.92" rx="33.88" ry="21.43"/>
<text text-anchor="middle" x="2179" y="-785.92" font-family="Times,serif" font-size="20.00">0.0</text>
</g>
<!-- SG_2_Node_0&#45;&gt;SG_2_Node_1 -->
<g id="edge21" class="edge">
<title>SG_2_Node_0&#45;&gt;SG_2_Node_1</title>
<path fill="none" stroke="black" d="M2191.81,-1068.05C2187.03,-1062.84 2182.58,-1056.73 2180,-1050.13 2149.77,-972.71 2162.8,-872 2172.29,-822.34"/>
<polygon fill="black" stroke="black" points="2175.77,-822.75 2174.3,-812.26 2168.91,-821.38 2175.77,-822.75"/>
<text text-anchor="middle" x="2225.5" y="-946.13" font-family="Times,serif" font-size="20.00">[NA]</text>
<text text-anchor="middle" x="2225.5" y="-924.13" font-family="Times,serif" font-size="20.00">17 levels</text>
</g>
<!-- SG_2_Node_2 -->
<g id="node25" class="node">
<title>SG_2_Node_2</title>
<ellipse fill="none" stroke="black" cx="2293" cy="-790.92" rx="33.88" ry="21.43"/>
<text text-anchor="middle" x="2293" y="-785.92" font-family="Times,serif" font-size="20.00">1.0</text>
</g>
<!-- SG_2_Node_0&#45;&gt;SG_2_Node_2 -->
<g id="edge22" class="edge">
<title>SG_2_Node_0&#45;&gt;SG_2_Node_2</title>
<path fill="none" stroke="black" d="M2252.86,-1067.94C2259.97,-1063.18 2266.51,-1057.3 2271,-1050.13 2315.75,-978.79 2306.82,-873.72 2298.79,-822.4"/>
<polygon fill="black" stroke="black" points="2302.2,-821.58 2297.1,-812.29 2295.29,-822.73 2302.2,-821.58"/>
<text text-anchor="middle" x="2534" y="-946.13" font-family="Times,serif" font-size="20.00">firefox iPadOS 17.2 121.0 (36782) intent real</text>
<text text-anchor="middle" x="2534" y="-924.13" font-family="Times,serif" font-size="20.00">operagx iPadOS 17.2 2.2.2 intent real</text>
</g>
</g>
</svg>
