<?xml version="1.0" encoding="UTF-8" standalone="no"?>
<!DOCTYPE svg PUBLIC "-//W3C//DTD SVG 1.1//EN"
 "http://www.w3.org/Graphics/SVG/1.1/DTD/svg11.dtd">
<!-- Generated by graphviz version 2.43.0 (0)
 -->
<!-- Title: G Pages: 1 -->
<svg width="2063pt" height="382pt"
 viewBox="0.00 0.00 2063.00 382.43" xmlns="http://www.w3.org/2000/svg" xmlns:xlink="http://www.w3.org/1999/xlink">
<g id="graph0" class="graph" transform="scale(1 1) rotate(0) translate(4 378.43)">
<title>G</title>
<polygon fill="white" stroke="transparent" points="-4,4 -4,-378.43 2059,-378.43 2059,4 -4,4"/>
<g id="clust1" class="cluster">
<title>cluster_0</title>
<polygon fill="none" stroke="black" points="8,-8 8,-366.43 964,-366.43 964,-8 8,-8"/>
<text text-anchor="middle" x="486" y="-330.43" font-family="Times,serif" font-size="40.00">Tree 0, Class window.originAgentCluster: true</text>
</g>
<g id="clust4" class="cluster">
<title>cluster_1</title>
<polygon fill="none" stroke="black" points="972,-8 972,-366.43 2047,-366.43 2047,-8 972,-8"/>
<text text-anchor="middle" x="1509.5" y="-330.43" font-family="Times,serif" font-size="40.00">Tree 0, Class window.originAgentCluster: undefined</text>
</g>
<!-- SG_0_Node_0 -->
<g id="node1" class="node">
<title>SG_0_Node_0</title>
<polygon fill="none" stroke="black" points="366.5,-306.43 265.5,-306.43 265.5,-270.43 366.5,-270.43 366.5,-306.43"/>
<text text-anchor="middle" x="316" y="-283.43" font-family="Times,serif" font-size="20.00">browser</text>
</g>
<!-- SG_0_Node_1 -->
<g id="node2" class="node">
<title>SG_0_Node_1</title>
<ellipse fill="none" stroke="black" cx="183" cy="-37.21" rx="33.88" ry="21.43"/>
<text text-anchor="middle" x="183" y="-32.21" font-family="Times,serif" font-size="20.00">0.0</text>
</g>
<!-- SG_0_Node_0&#45;&gt;SG_0_Node_1 -->
<g id="edge1" class="edge">
<title>SG_0_Node_0&#45;&gt;SG_0_Node_1</title>
<path fill="none" stroke="black" d="M265.15,-280.41C232.4,-274.73 194.11,-265.51 184,-252.43 142.53,-198.79 159.62,-112.92 172.89,-67.92"/>
<polygon fill="black" stroke="black" points="176.29,-68.77 175.89,-58.18 169.6,-66.7 176.29,-68.77"/>
<text text-anchor="middle" x="430.5" y="-236.43" font-family="Times,serif" font-size="20.00">brave iPadOS 17.2 1.61 (23.12.18.22) intent real</text>
<text text-anchor="middle" x="430.5" y="-214.43" font-family="Times,serif" font-size="20.00">chrome iPadOS 17.2 120.0.6099.119 intent real</text>
<text text-anchor="middle" x="430.5" y="-192.43" font-family="Times,serif" font-size="20.00">edge iPadOS 17.2 120.0.2210.116 intent real</text>
<text text-anchor="middle" x="430.5" y="-170.43" font-family="Times,serif" font-size="20.00">firefox Ubuntu 22.04 119 selenium headless</text>
<text text-anchor="middle" x="430.5" y="-148.43" font-family="Times,serif" font-size="20.00">firefox Ubuntu 22.04 119 selenium xvfb</text>
<text text-anchor="middle" x="430.5" y="-126.43" font-family="Times,serif" font-size="20.00">firefox iPadOS 17.2 121.0 (36782) intent real</text>
<text text-anchor="middle" x="430.5" y="-104.43" font-family="Times,serif" font-size="20.00">firefox_beta Android 11 122.0b1 intent real</text>
<text text-anchor="middle" x="430.5" y="-82.43" font-family="Times,serif" font-size="20.00">operagx iPadOS 17.2 2.2.2 intent real</text>
</g>
<!-- SG_0_Node_2 -->
<g id="node3" class="node">
<title>SG_0_Node_2</title>
<ellipse fill="none" stroke="black" cx="699" cy="-37.21" rx="33.88" ry="21.43"/>
<text text-anchor="middle" x="699" y="-32.21" font-family="Times,serif" font-size="20.00">1.0</text>
</g>
<!-- SG_0_Node_0&#45;&gt;SG_0_Node_2 -->
<g id="edge2" class="edge">
<title>SG_0_Node_0&#45;&gt;SG_0_Node_2</title>
<path fill="none" stroke="black" d="M366.55,-286.01C460.71,-282.89 655.43,-273.88 677,-252.43 725.7,-204.01 715.84,-114.78 706.38,-68.24"/>
<polygon fill="black" stroke="black" points="709.74,-67.22 704.21,-58.18 702.9,-68.69 709.74,-67.22"/>
<text text-anchor="middle" x="759.5" y="-170.43" font-family="Times,serif" font-size="20.00">[NA]</text>
<text text-anchor="middle" x="759.5" y="-148.43" font-family="Times,serif" font-size="20.00">11 levels</text>
</g>
<!-- SG_1_Node_0 -->
<g id="node4" class="node">
<title>SG_1_Node_0</title>
<polygon fill="none" stroke="black" points="1129.5,-306.43 1028.5,-306.43 1028.5,-270.43 1129.5,-270.43 1129.5,-306.43"/>
<text text-anchor="middle" x="1079" y="-283.43" font-family="Times,serif" font-size="20.00">browser</text>
</g>
<!-- SG_1_Node_1 -->
<g id="node5" class="node">
<title>SG_1_Node_1</title>
<ellipse fill="none" stroke="black" cx="1046" cy="-37.21" rx="33.88" ry="21.43"/>
<text text-anchor="middle" x="1046" y="-32.21" font-family="Times,serif" font-size="20.00">0.0</text>
</g>
<!-- SG_1_Node_0&#45;&gt;SG_1_Node_1 -->
<g id="edge3" class="edge">
<title>SG_1_Node_0&#45;&gt;SG_1_Node_1</title>
<path fill="none" stroke="black" d="M1058.82,-270.35C1054.04,-265.13 1049.58,-259.02 1047,-252.43 1022.85,-190.64 1031.87,-110.95 1039.56,-68.31"/>
<polygon fill="black" stroke="black" points="1043.03,-68.78 1041.46,-58.3 1036.16,-67.47 1043.03,-68.78"/>
<text text-anchor="middle" x="1092.5" y="-170.43" font-family="Times,serif" font-size="20.00">[NA]</text>
<text text-anchor="middle" x="1092.5" y="-148.43" font-family="Times,serif" font-size="20.00">11 levels</text>
</g>
<!-- SG_1_Node_2 -->
<g id="node6" class="node">
<title>SG_1_Node_2</title>
<ellipse fill="none" stroke="black" cx="1160" cy="-37.21" rx="33.88" ry="21.43"/>
<text text-anchor="middle" x="1160" y="-32.21" font-family="Times,serif" font-size="20.00">1.0</text>
</g>
<!-- SG_1_Node_0&#45;&gt;SG_1_Node_2 -->
<g id="edge4" class="edge">
<title>SG_1_Node_0&#45;&gt;SG_1_Node_2</title>
<path fill="none" stroke="black" d="M1119.47,-270.37C1126.69,-265.58 1133.38,-259.65 1138,-252.43 1174.28,-195.68 1170.39,-112.72 1164.91,-68.54"/>
<polygon fill="black" stroke="black" points="1168.35,-67.88 1163.54,-58.44 1161.41,-68.82 1168.35,-67.88"/>
<text text-anchor="middle" x="1414.5" y="-236.43" font-family="Times,serif" font-size="20.00">brave iPadOS 17.2 1.61 (23.12.18.22) intent real</text>
<text text-anchor="middle" x="1414.5" y="-214.43" font-family="Times,serif" font-size="20.00">chrome iPadOS 17.2 120.0.6099.119 intent real</text>
<text text-anchor="middle" x="1414.5" y="-192.43" font-family="Times,serif" font-size="20.00">edge iPadOS 17.2 120.0.2210.116 intent real</text>
<text text-anchor="middle" x="1414.5" y="-170.43" font-family="Times,serif" font-size="20.00">firefox Ubuntu 22.04 119 selenium headless</text>
<text text-anchor="middle" x="1414.5" y="-148.43" font-family="Times,serif" font-size="20.00">firefox Ubuntu 22.04 119 selenium xvfb</text>
<text text-anchor="middle" x="1414.5" y="-126.43" font-family="Times,serif" font-size="20.00">firefox iPadOS 17.2 121.0 (36782) intent real</text>
<text text-anchor="middle" x="1414.5" y="-104.43" font-family="Times,serif" font-size="20.00">firefox_beta Android 11 122.0b1 intent real</text>
<text text-anchor="middle" x="1414.5" y="-82.43" font-family="Times,serif" font-size="20.00">operagx iPadOS 17.2 2.2.2 intent real</text>
</g>
</g>
</svg>
