<?xml version="1.0" encoding="UTF-8" standalone="no"?>
<!DOCTYPE svg PUBLIC "-//W3C//DTD SVG 1.1//EN"
 "http://www.w3.org/Graphics/SVG/1.1/DTD/svg11.dtd">
<!-- Generated by graphviz version 2.43.0 (0)
 -->
<!-- Title: G Pages: 1 -->
<svg width="7019pt" height="926pt"
 viewBox="0.00 0.00 7019.00 925.71" xmlns="http://www.w3.org/2000/svg" xmlns:xlink="http://www.w3.org/1999/xlink">
<g id="graph0" class="graph" transform="scale(1 1) rotate(0) translate(4 921.71)">
<title>G</title>
<polygon fill="white" stroke="transparent" points="-4,4 -4,-921.71 7015,-921.71 7015,4 -4,4"/>
<g id="clust1" class="cluster">
<title>cluster_0</title>
<polygon fill="none" stroke="black" points="8,-318.85 8,-909.71 885,-909.71 885,-318.85 8,-318.85"/>
<text text-anchor="middle" x="446.5" y="-873.71" font-family="Times,serif" font-size="40.00">Tree 0, Class No performance entry</text>
</g>
<g id="clust5" class="cluster">
<title>cluster_1</title>
<polygon fill="none" stroke="black" points="893,-8 893,-909.71 3943,-909.71 3943,-8 893,-8"/>
<text text-anchor="middle" x="2418" y="-873.71" font-family="Times,serif" font-size="40.00">Tree 0, Class {&#39;requestStart != 0&#39;: False}</text>
</g>
<g id="clust11" class="cluster">
<title>cluster_2</title>
<polygon fill="none" stroke="black" points="3951,-8 3951,-909.71 7001,-909.71 7001,-8 3951,-8"/>
<text text-anchor="middle" x="5476" y="-873.71" font-family="Times,serif" font-size="40.00">Tree 0, Class {&#39;requestStart != 0&#39;: True}</text>
</g>
<!-- SG_0_Node_0 -->
<g id="node1" class="node">
<title>SG_0_Node_0</title>
<polygon fill="none" stroke="black" points="358.5,-849.71 257.5,-849.71 257.5,-813.71 358.5,-813.71 358.5,-849.71"/>
<text text-anchor="middle" x="308" y="-826.71" font-family="Times,serif" font-size="20.00">browser</text>
</g>
<!-- SG_0_Node_2 -->
<g id="node2" class="node">
<title>SG_0_Node_2</title>
<ellipse fill="none" stroke="black" cx="50" cy="-624.49" rx="33.88" ry="21.43"/>
<text text-anchor="middle" x="50" y="-619.49" font-family="Times,serif" font-size="20.00">0.0</text>
</g>
<!-- SG_0_Node_0&#45;&gt;SG_0_Node_2 -->
<g id="edge1" class="edge">
<title>SG_0_Node_0&#45;&gt;SG_0_Node_2</title>
<path fill="none" stroke="black" d="M257.41,-827.68C183.49,-822.73 53.16,-811.83 39,-795.71 4.92,-756.9 22.38,-691.96 36.98,-654.51"/>
<polygon fill="black" stroke="black" points="40.25,-655.75 40.78,-645.17 33.77,-653.11 40.25,-655.75"/>
<text text-anchor="middle" x="285.5" y="-779.71" font-family="Times,serif" font-size="20.00">brave iPadOS 17.2 1.61 (23.12.18.22) intent real</text>
<text text-anchor="middle" x="285.5" y="-757.71" font-family="Times,serif" font-size="20.00">firefox Ubuntu 22.04 119 selenium headless</text>
<text text-anchor="middle" x="285.5" y="-735.71" font-family="Times,serif" font-size="20.00">firefox Ubuntu 22.04 119 selenium xvfb</text>
<text text-anchor="middle" x="285.5" y="-713.71" font-family="Times,serif" font-size="20.00">firefox iPadOS 17.2 121.0 (36782) intent real</text>
<text text-anchor="middle" x="285.5" y="-691.71" font-family="Times,serif" font-size="20.00">firefox_beta Android 11 122.0b1 intent real</text>
<text text-anchor="middle" x="285.5" y="-669.71" font-family="Times,serif" font-size="20.00">operagx iPadOS 17.2 2.2.2 intent real</text>
</g>
<!-- SG_0_Node_1 -->
<g id="node3" class="node">
<title>SG_0_Node_1</title>
<polygon fill="none" stroke="black" points="538,-642.49 406,-642.49 406,-606.49 538,-606.49 538,-642.49"/>
<text text-anchor="middle" x="472" y="-619.49" font-family="Times,serif" font-size="20.00">resp_origin</text>
</g>
<!-- SG_0_Node_0&#45;&gt;SG_0_Node_1 -->
<g id="edge2" class="edge">
<title>SG_0_Node_0&#45;&gt;SG_0_Node_1</title>
<path fill="none" stroke="black" d="M358.55,-830.31C418.63,-828.64 513.6,-821.8 536,-795.71 574.21,-751.19 564.96,-714.73 536,-663.71 532.65,-657.81 527.99,-652.72 522.7,-648.37"/>
<polygon fill="black" stroke="black" points="524.73,-645.51 514.57,-642.49 520.63,-651.19 524.73,-645.51"/>
<text text-anchor="middle" x="606.5" y="-735.71" font-family="Times,serif" font-size="20.00">[NA]</text>
<text text-anchor="middle" x="606.5" y="-713.71" font-family="Times,serif" font-size="20.00">13 levels</text>
</g>
<!-- SG_0_Node_3 -->
<g id="node4" class="node">
<title>SG_0_Node_3</title>
<ellipse fill="none" stroke="black" cx="50" cy="-348.07" rx="33.88" ry="21.43"/>
<text text-anchor="middle" x="50" y="-343.07" font-family="Times,serif" font-size="20.00">0.0</text>
</g>
<!-- SG_0_Node_1&#45;&gt;SG_0_Node_3 -->
<g id="edge3" class="edge">
<title>SG_0_Node_1&#45;&gt;SG_0_Node_3</title>
<path fill="none" stroke="black" d="M405.74,-622.22C293.64,-619.37 76.43,-610.62 53,-585.28 0.77,-528.8 23.47,-428.27 39.34,-378.56"/>
<polygon fill="black" stroke="black" points="42.67,-379.64 42.49,-369.05 36.02,-377.44 42.67,-379.64"/>
<text text-anchor="middle" x="260.5" y="-503.28" font-family="Times,serif" font-size="20.00">https://headers.webappsec.eu</text>
<text text-anchor="middle" x="260.5" y="-481.28" font-family="Times,serif" font-size="20.00">https://headers.websec.saarland</text>
<text text-anchor="middle" x="260.5" y="-459.28" font-family="Times,serif" font-size="20.00">https://sub.sub.headers.websec.saarland</text>
</g>
<!-- SG_0_Node_4 -->
<g id="node5" class="node">
<title>SG_0_Node_4</title>
<ellipse fill="none" stroke="black" cx="472" cy="-348.07" rx="33.88" ry="21.43"/>
<text text-anchor="middle" x="472" y="-343.07" font-family="Times,serif" font-size="20.00">1.0</text>
</g>
<!-- SG_0_Node_1&#45;&gt;SG_0_Node_4 -->
<g id="edge4" class="edge">
<title>SG_0_Node_1&#45;&gt;SG_0_Node_4</title>
<path fill="none" stroke="black" d="M472,-606.33C472,-561.02 472,-437.74 472,-379.86"/>
<polygon fill="black" stroke="black" points="475.5,-379.52 472,-369.52 468.5,-379.52 475.5,-379.52"/>
<text text-anchor="middle" x="674.5" y="-525.28" font-family="Times,serif" font-size="20.00">[NA]</text>
<text text-anchor="middle" x="674.5" y="-503.28" font-family="Times,serif" font-size="20.00">http://headers.webappsec.eu</text>
<text text-anchor="middle" x="674.5" y="-481.28" font-family="Times,serif" font-size="20.00">http://headers.websec.saarland</text>
<text text-anchor="middle" x="674.5" y="-459.28" font-family="Times,serif" font-size="20.00">http://sub.headers.websec.saarland</text>
<text text-anchor="middle" x="674.5" y="-437.28" font-family="Times,serif" font-size="20.00">http://sub.sub.headers.websec.saarland</text>
</g>
<!-- SG_1_Node_0 -->
<g id="node6" class="node">
<title>SG_1_Node_0</title>
<polygon fill="none" stroke="black" points="1535.5,-849.71 1434.5,-849.71 1434.5,-813.71 1535.5,-813.71 1535.5,-849.71"/>
<text text-anchor="middle" x="1485" y="-826.71" font-family="Times,serif" font-size="20.00">browser</text>
</g>
<!-- SG_1_Node_1 -->
<g id="node7" class="node">
<title>SG_1_Node_1</title>
<polygon fill="none" stroke="black" points="1413,-642.49 1281,-642.49 1281,-606.49 1413,-606.49 1413,-642.49"/>
<text text-anchor="middle" x="1347" y="-619.49" font-family="Times,serif" font-size="20.00">resp_origin</text>
</g>
<!-- SG_1_Node_0&#45;&gt;SG_1_Node_1 -->
<g id="edge5" class="edge">
<title>SG_1_Node_0&#45;&gt;SG_1_Node_1</title>
<path fill="none" stroke="black" d="M1473.47,-813.56C1449.22,-777.5 1392.82,-693.62 1364.25,-651.14"/>
<polygon fill="black" stroke="black" points="1367.08,-649.08 1358.59,-642.73 1361.27,-652.98 1367.08,-649.08"/>
<text text-anchor="middle" x="1503.5" y="-735.71" font-family="Times,serif" font-size="20.00">[NA]</text>
<text text-anchor="middle" x="1503.5" y="-713.71" font-family="Times,serif" font-size="20.00">13 levels</text>
</g>
<!-- SG_1_Node_2 -->
<g id="node8" class="node">
<title>SG_1_Node_2</title>
<polygon fill="none" stroke="black" points="1853.5,-642.49 1716.5,-642.49 1716.5,-606.49 1853.5,-606.49 1853.5,-642.49"/>
<text text-anchor="middle" x="1785" y="-619.49" font-family="Times,serif" font-size="20.00">raw_header</text>
</g>
<!-- SG_1_Node_0&#45;&gt;SG_1_Node_2 -->
<g id="edge6" class="edge">
<title>SG_1_Node_0&#45;&gt;SG_1_Node_2</title>
<path fill="none" stroke="black" d="M1520.88,-813.57C1531.42,-808.19 1542.84,-801.99 1553,-795.71 1629.46,-748.39 1713.1,-683.46 1756.02,-649.08"/>
<polygon fill="black" stroke="black" points="1758.44,-651.62 1764.04,-642.62 1754.06,-646.16 1758.44,-651.62"/>
<text text-anchor="middle" x="1980.5" y="-779.71" font-family="Times,serif" font-size="20.00">brave iPadOS 17.2 1.61 (23.12.18.22) intent real</text>
<text text-anchor="middle" x="1980.5" y="-757.71" font-family="Times,serif" font-size="20.00">firefox Ubuntu 22.04 119 selenium headless</text>
<text text-anchor="middle" x="1980.5" y="-735.71" font-family="Times,serif" font-size="20.00">firefox Ubuntu 22.04 119 selenium xvfb</text>
<text text-anchor="middle" x="1980.5" y="-713.71" font-family="Times,serif" font-size="20.00">firefox iPadOS 17.2 121.0 (36782) intent real</text>
<text text-anchor="middle" x="1980.5" y="-691.71" font-family="Times,serif" font-size="20.00">firefox_beta Android 11 122.0b1 intent real</text>
<text text-anchor="middle" x="1980.5" y="-669.71" font-family="Times,serif" font-size="20.00">operagx iPadOS 17.2 2.2.2 intent real</text>
</g>
<!-- SG_1_Node_6 -->
<g id="node9" class="node">
<title>SG_1_Node_6</title>
<ellipse fill="none" stroke="black" cx="935" cy="-348.07" rx="33.88" ry="21.43"/>
<text text-anchor="middle" x="935" y="-343.07" font-family="Times,serif" font-size="20.00">0.0</text>
</g>
<!-- SG_1_Node_1&#45;&gt;SG_1_Node_6 -->
<g id="edge13" class="edge">
<title>SG_1_Node_1&#45;&gt;SG_1_Node_6</title>
<path fill="none" stroke="black" d="M1280.57,-622.05C1170.65,-618.98 960.73,-609.91 938,-585.28 885.83,-528.74 908.5,-428.24 924.35,-378.55"/>
<polygon fill="black" stroke="black" points="927.68,-379.63 927.5,-369.04 921.03,-377.43 927.68,-379.63"/>
<text text-anchor="middle" x="1140.5" y="-525.28" font-family="Times,serif" font-size="20.00">[NA]</text>
<text text-anchor="middle" x="1140.5" y="-503.28" font-family="Times,serif" font-size="20.00">http://headers.webappsec.eu</text>
<text text-anchor="middle" x="1140.5" y="-481.28" font-family="Times,serif" font-size="20.00">http://headers.websec.saarland</text>
<text text-anchor="middle" x="1140.5" y="-459.28" font-family="Times,serif" font-size="20.00">http://sub.headers.websec.saarland</text>
<text text-anchor="middle" x="1140.5" y="-437.28" font-family="Times,serif" font-size="20.00">http://sub.sub.headers.websec.saarland</text>
</g>
<!-- SG_1_Node_3 -->
<g id="node10" class="node">
<title>SG_1_Node_3</title>
<polygon fill="none" stroke="black" points="1397.5,-366.07 1296.5,-366.07 1296.5,-330.07 1397.5,-330.07 1397.5,-366.07"/>
<text text-anchor="middle" x="1347" y="-343.07" font-family="Times,serif" font-size="20.00">browser</text>
</g>
<!-- SG_1_Node_1&#45;&gt;SG_1_Node_3 -->
<g id="edge14" class="edge">
<title>SG_1_Node_1&#45;&gt;SG_1_Node_3</title>
<path fill="none" stroke="black" d="M1347,-606.33C1347,-560.12 1347,-432.83 1347,-376.5"/>
<polygon fill="black" stroke="black" points="1350.5,-376.23 1347,-366.23 1343.5,-376.23 1350.5,-376.23"/>
<text text-anchor="middle" x="1554.5" y="-503.28" font-family="Times,serif" font-size="20.00">https://headers.webappsec.eu</text>
<text text-anchor="middle" x="1554.5" y="-481.28" font-family="Times,serif" font-size="20.00">https://headers.websec.saarland</text>
<text text-anchor="middle" x="1554.5" y="-459.28" font-family="Times,serif" font-size="20.00">https://sub.sub.headers.websec.saarland</text>
</g>
<!-- SG_1_Node_4 -->
<g id="node11" class="node">
<title>SG_1_Node_4</title>
<polygon fill="none" stroke="black" points="1835.5,-366.07 1734.5,-366.07 1734.5,-330.07 1835.5,-330.07 1835.5,-366.07"/>
<text text-anchor="middle" x="1785" y="-343.07" font-family="Times,serif" font-size="20.00">browser</text>
</g>
<!-- SG_1_Node_2&#45;&gt;SG_1_Node_4 -->
<g id="edge7" class="edge">
<title>SG_1_Node_2&#45;&gt;SG_1_Node_4</title>
<path fill="none" stroke="black" d="M1785,-606.33C1785,-560.12 1785,-432.83 1785,-376.5"/>
<polygon fill="black" stroke="black" points="1788.5,-376.23 1785,-366.23 1781.5,-376.23 1788.5,-376.23"/>
<text text-anchor="middle" x="2309.5" y="-525.28" font-family="Times,serif" font-size="20.00">[[&#39;Timing&#45;Allow&#45;Origin&#39;, &#39;*&#39;], [&#39;location&#39;, &#39;https://sub.headers.websec.saarland/_hp/common/empty.html&#39;]]</text>
<text text-anchor="middle" x="2309.5" y="-503.28" font-family="Times,serif" font-size="20.00">[[&#39;Timing&#45;Allow&#45;Origin&#39;, &#39;*&#39;]]</text>
<text text-anchor="middle" x="2309.5" y="-481.28" font-family="Times,serif" font-size="20.00">[[&#39;Timing&#45;Allow&#45;Origin&#39;, &#39;https://sub.headers.websec.saarland&#39;], [&#39;Timing&#45;Allow&#45;Origin&#39;, &#39;*&#39;]]</text>
<text text-anchor="middle" x="2309.5" y="-459.28" font-family="Times,serif" font-size="20.00">[[&#39;Timing&#45;Allow&#45;Origin&#39;, &#39;https://sub.headers.websec.saarland&#39;]]</text>
<text text-anchor="middle" x="2309.5" y="-437.28" font-family="Times,serif" font-size="20.00">[[&#39;Timing&#45;Allow&#45;Origin&#39;, &#39;null&#39;], [&#39;Timing&#45;Allow&#45;Origin&#39;, &#39;*&#39;]]</text>
</g>
<!-- SG_1_Node_7 -->
<g id="node12" class="node">
<title>SG_1_Node_7</title>
<ellipse fill="none" stroke="black" cx="2857" cy="-348.07" rx="33.88" ry="21.43"/>
<text text-anchor="middle" x="2857" y="-343.07" font-family="Times,serif" font-size="20.00">1.0</text>
</g>
<!-- SG_1_Node_2&#45;&gt;SG_1_Node_7 -->
<g id="edge8" class="edge">
<title>SG_1_Node_2&#45;&gt;SG_1_Node_7</title>
<path fill="none" stroke="black" d="M1853.63,-623.46C2081.32,-623.03 2799.33,-618.99 2835,-585.28 2863.9,-557.97 2861.72,-437.51 2858.9,-379.93"/>
<polygon fill="black" stroke="black" points="2862.38,-379.42 2858.36,-369.62 2855.39,-379.79 2862.38,-379.42"/>
<text text-anchor="middle" x="3399" y="-569.28" font-family="Times,serif" font-size="20.00">[NA]</text>
<text text-anchor="middle" x="3399" y="-547.28" font-family="Times,serif" font-size="20.00">[[&#39;Timing&#45;Allow&#45;Origin&#39;, &#39;http://sub.headers.websec.saarland&#39;]]</text>
<text text-anchor="middle" x="3399" y="-525.28" font-family="Times,serif" font-size="20.00">[[&#39;Timing&#45;Allow&#45;Origin&#39;, &#39;https://headers.websec.saarland&#39;]]</text>
<text text-anchor="middle" x="3399" y="-503.28" font-family="Times,serif" font-size="20.00">[[&#39;Timing&#45;Allow&#45;Origin&#39;, &#39;https://sub.headers.websec.saarland/&#39;]]</text>
<text text-anchor="middle" x="3399" y="-481.28" font-family="Times,serif" font-size="20.00">[[&#39;Timing&#45;Allow&#45;Origin&#39;, &#39;https://sub.headers.websec.saarland:443&#39;]]</text>
<text text-anchor="middle" x="3399" y="-459.28" font-family="Times,serif" font-size="20.00">[[&#39;Timing&#45;Allow&#45;Origin&#39;, &#39;null&#39;], [&#39;location&#39;, &#39;https://sub.headers.websec.saarland/_hp/common/empty.html&#39;]]</text>
<text text-anchor="middle" x="3399" y="-437.28" font-family="Times,serif" font-size="20.00">[[&#39;Timing&#45;Allow&#45;Origin&#39;, &#39;null&#39;]]</text>
<text text-anchor="middle" x="3399" y="-415.28" font-family="Times,serif" font-size="20.00">[[&#39;Timing&#45;Allow&#45;Origin&#39;, &#39;sub.headers.websec.saarland&#39;]]</text>
<text text-anchor="middle" x="3399" y="-393.28" font-family="Times,serif" font-size="20.00">[]</text>
</g>
<!-- SG_1_Node_8 -->
<g id="node13" class="node">
<title>SG_1_Node_8</title>
<ellipse fill="none" stroke="black" cx="992" cy="-159.64" rx="33.88" ry="21.43"/>
<text text-anchor="middle" x="992" y="-154.64" font-family="Times,serif" font-size="20.00">0.0</text>
</g>
<!-- SG_1_Node_3&#45;&gt;SG_1_Node_8 -->
<g id="edge15" class="edge">
<title>SG_1_Node_3&#45;&gt;SG_1_Node_8</title>
<path fill="none" stroke="black" d="M1296.29,-345.34C1202.4,-341.61 1009.16,-331.28 989,-308.85 960.15,-276.76 970.38,-223.14 980.87,-189.94"/>
<polygon fill="black" stroke="black" points="984.23,-190.94 984.09,-180.35 977.59,-188.71 984.23,-190.94"/>
<text text-anchor="middle" x="1231.5" y="-259.85" font-family="Times,serif" font-size="20.00">chrome iPadOS 17.2 120.0.6099.119 intent real</text>
<text text-anchor="middle" x="1231.5" y="-237.85" font-family="Times,serif" font-size="20.00">edge iPadOS 17.2 120.0.2210.116 intent real</text>
</g>
<!-- SG_1_Node_9 -->
<g id="node14" class="node">
<title>SG_1_Node_9</title>
<ellipse fill="none" stroke="black" cx="1500" cy="-159.64" rx="33.88" ry="21.43"/>
<text text-anchor="middle" x="1500" y="-154.64" font-family="Times,serif" font-size="20.00">1.0</text>
</g>
<!-- SG_1_Node_3&#45;&gt;SG_1_Node_9 -->
<g id="edge16" class="edge">
<title>SG_1_Node_3&#45;&gt;SG_1_Node_9</title>
<path fill="none" stroke="black" d="M1397.55,-345.1C1425.32,-341.26 1458.07,-331.71 1478,-308.85 1506.31,-276.39 1507.2,-223.92 1504.3,-190.9"/>
<polygon fill="black" stroke="black" points="1507.78,-190.49 1503.25,-180.91 1500.82,-191.22 1507.78,-190.49"/>
<text text-anchor="middle" x="1550.5" y="-259.85" font-family="Times,serif" font-size="20.00">[NA]</text>
<text text-anchor="middle" x="1550.5" y="-237.85" font-family="Times,serif" font-size="20.00">11 levels</text>
</g>
<!-- SG_1_Node_10 -->
<g id="node15" class="node">
<title>SG_1_Node_10</title>
<ellipse fill="none" stroke="black" cx="1728" cy="-159.64" rx="33.88" ry="21.43"/>
<text text-anchor="middle" x="1728" y="-154.64" font-family="Times,serif" font-size="20.00">0.0</text>
</g>
<!-- SG_1_Node_4&#45;&gt;SG_1_Node_10 -->
<g id="edge9" class="edge">
<title>SG_1_Node_4&#45;&gt;SG_1_Node_10</title>
<path fill="none" stroke="black" d="M1748.84,-329.91C1740.91,-324.35 1733.54,-317.37 1729,-308.85 1709.33,-271.92 1714.25,-222.1 1720.45,-190.67"/>
<polygon fill="black" stroke="black" points="1723.9,-191.28 1722.57,-180.76 1717.06,-189.81 1723.9,-191.28"/>
<text text-anchor="middle" x="1975.5" y="-292.85" font-family="Times,serif" font-size="20.00">brave iPadOS 17.2 1.61 (23.12.18.22) intent real</text>
<text text-anchor="middle" x="1975.5" y="-270.85" font-family="Times,serif" font-size="20.00">firefox Ubuntu 22.04 119 selenium headless</text>
<text text-anchor="middle" x="1975.5" y="-248.85" font-family="Times,serif" font-size="20.00">firefox Ubuntu 22.04 119 selenium xvfb</text>
<text text-anchor="middle" x="1975.5" y="-226.85" font-family="Times,serif" font-size="20.00">firefox iPadOS 17.2 121.0 (36782) intent real</text>
<text text-anchor="middle" x="1975.5" y="-204.85" font-family="Times,serif" font-size="20.00">operagx iPadOS 17.2 2.2.2 intent real</text>
</g>
<!-- SG_1_Node_5 -->
<g id="node16" class="node">
<title>SG_1_Node_5</title>
<polygon fill="none" stroke="black" points="2312.5,-177.64 2175.5,-177.64 2175.5,-141.64 2312.5,-141.64 2312.5,-177.64"/>
<text text-anchor="middle" x="2244" y="-154.64" font-family="Times,serif" font-size="20.00">status_code</text>
</g>
<!-- SG_1_Node_4&#45;&gt;SG_1_Node_5 -->
<g id="edge10" class="edge">
<title>SG_1_Node_4&#45;&gt;SG_1_Node_5</title>
<path fill="none" stroke="black" d="M1835.83,-346.1C1945.03,-343.53 2194.38,-334.86 2222,-308.85 2254.64,-278.12 2253.3,-221.59 2248.94,-187.93"/>
<polygon fill="black" stroke="black" points="2252.38,-187.25 2247.46,-177.87 2245.46,-188.27 2252.38,-187.25"/>
<text text-anchor="middle" x="2472" y="-248.85" font-family="Times,serif" font-size="20.00">firefox_beta Android 11 122.0b1 intent real</text>
</g>
<!-- SG_1_Node_11 -->
<g id="node17" class="node">
<title>SG_1_Node_11</title>
<ellipse fill="none" stroke="black" cx="2203" cy="-37.21" rx="33.88" ry="21.43"/>
<text text-anchor="middle" x="2203" y="-32.21" font-family="Times,serif" font-size="20.00">0.0</text>
</g>
<!-- SG_1_Node_5&#45;&gt;SG_1_Node_11 -->
<g id="edge11" class="edge">
<title>SG_1_Node_5&#45;&gt;SG_1_Node_11</title>
<path fill="none" stroke="black" d="M2225.94,-141.47C2220.57,-135.35 2215.26,-128.07 2212,-120.43 2205.14,-104.33 2202.77,-84.93 2202.17,-69.01"/>
<polygon fill="black" stroke="black" points="2205.66,-68.58 2202.01,-58.64 2198.66,-68.69 2205.66,-68.58"/>
<text text-anchor="middle" x="2235.5" y="-104.43" font-family="Times,serif" font-size="20.00">[NA]</text>
<text text-anchor="middle" x="2235.5" y="-82.43" font-family="Times,serif" font-size="20.00">200</text>
</g>
<!-- SG_1_Node_12 -->
<g id="node18" class="node">
<title>SG_1_Node_12</title>
<ellipse fill="none" stroke="black" cx="2289" cy="-37.21" rx="33.88" ry="21.43"/>
<text text-anchor="middle" x="2289" y="-32.21" font-family="Times,serif" font-size="20.00">1.0</text>
</g>
<!-- SG_1_Node_5&#45;&gt;SG_1_Node_12 -->
<g id="edge12" class="edge">
<title>SG_1_Node_5&#45;&gt;SG_1_Node_12</title>
<path fill="none" stroke="black" d="M2250.81,-141.55C2253.41,-134.96 2256.38,-127.36 2259,-120.43 2265.58,-103.06 2272.71,-83.53 2278.37,-67.87"/>
<polygon fill="black" stroke="black" points="2281.76,-68.79 2281.86,-58.2 2275.18,-66.42 2281.76,-68.79"/>
<text text-anchor="middle" x="2293.5" y="-93.43" font-family="Times,serif" font-size="20.00">302</text>
</g>
<!-- SG_2_Node_0 -->
<g id="node19" class="node">
<title>SG_2_Node_0</title>
<polygon fill="none" stroke="black" points="4593.5,-849.71 4492.5,-849.71 4492.5,-813.71 4593.5,-813.71 4593.5,-849.71"/>
<text text-anchor="middle" x="4543" y="-826.71" font-family="Times,serif" font-size="20.00">browser</text>
</g>
<!-- SG_2_Node_1 -->
<g id="node20" class="node">
<title>SG_2_Node_1</title>
<polygon fill="none" stroke="black" points="4471,-642.49 4339,-642.49 4339,-606.49 4471,-606.49 4471,-642.49"/>
<text text-anchor="middle" x="4405" y="-619.49" font-family="Times,serif" font-size="20.00">resp_origin</text>
</g>
<!-- SG_2_Node_0&#45;&gt;SG_2_Node_1 -->
<g id="edge17" class="edge">
<title>SG_2_Node_0&#45;&gt;SG_2_Node_1</title>
<path fill="none" stroke="black" d="M4531.47,-813.56C4507.22,-777.5 4450.82,-693.62 4422.25,-651.14"/>
<polygon fill="black" stroke="black" points="4425.08,-649.08 4416.59,-642.73 4419.27,-652.98 4425.08,-649.08"/>
<text text-anchor="middle" x="4561.5" y="-735.71" font-family="Times,serif" font-size="20.00">[NA]</text>
<text text-anchor="middle" x="4561.5" y="-713.71" font-family="Times,serif" font-size="20.00">13 levels</text>
</g>
<!-- SG_2_Node_2 -->
<g id="node21" class="node">
<title>SG_2_Node_2</title>
<polygon fill="none" stroke="black" points="4911.5,-642.49 4774.5,-642.49 4774.5,-606.49 4911.5,-606.49 4911.5,-642.49"/>
<text text-anchor="middle" x="4843" y="-619.49" font-family="Times,serif" font-size="20.00">raw_header</text>
</g>
<!-- SG_2_Node_0&#45;&gt;SG_2_Node_2 -->
<g id="edge18" class="edge">
<title>SG_2_Node_0&#45;&gt;SG_2_Node_2</title>
<path fill="none" stroke="black" d="M4578.88,-813.57C4589.42,-808.19 4600.84,-801.99 4611,-795.71 4687.46,-748.39 4771.1,-683.46 4814.02,-649.08"/>
<polygon fill="black" stroke="black" points="4816.44,-651.62 4822.04,-642.62 4812.06,-646.16 4816.44,-651.62"/>
<text text-anchor="middle" x="5038.5" y="-779.71" font-family="Times,serif" font-size="20.00">brave iPadOS 17.2 1.61 (23.12.18.22) intent real</text>
<text text-anchor="middle" x="5038.5" y="-757.71" font-family="Times,serif" font-size="20.00">firefox Ubuntu 22.04 119 selenium headless</text>
<text text-anchor="middle" x="5038.5" y="-735.71" font-family="Times,serif" font-size="20.00">firefox Ubuntu 22.04 119 selenium xvfb</text>
<text text-anchor="middle" x="5038.5" y="-713.71" font-family="Times,serif" font-size="20.00">firefox iPadOS 17.2 121.0 (36782) intent real</text>
<text text-anchor="middle" x="5038.5" y="-691.71" font-family="Times,serif" font-size="20.00">firefox_beta Android 11 122.0b1 intent real</text>
<text text-anchor="middle" x="5038.5" y="-669.71" font-family="Times,serif" font-size="20.00">operagx iPadOS 17.2 2.2.2 intent real</text>
</g>
<!-- SG_2_Node_6 -->
<g id="node22" class="node">
<title>SG_2_Node_6</title>
<ellipse fill="none" stroke="black" cx="3993" cy="-348.07" rx="33.88" ry="21.43"/>
<text text-anchor="middle" x="3993" y="-343.07" font-family="Times,serif" font-size="20.00">0.0</text>
</g>
<!-- SG_2_Node_1&#45;&gt;SG_2_Node_6 -->
<g id="edge25" class="edge">
<title>SG_2_Node_1&#45;&gt;SG_2_Node_6</title>
<path fill="none" stroke="black" d="M4338.57,-622.05C4228.65,-618.98 4018.73,-609.91 3996,-585.28 3943.83,-528.74 3966.5,-428.24 3982.35,-378.55"/>
<polygon fill="black" stroke="black" points="3985.68,-379.63 3985.5,-369.04 3979.03,-377.43 3985.68,-379.63"/>
<text text-anchor="middle" x="4198.5" y="-525.28" font-family="Times,serif" font-size="20.00">[NA]</text>
<text text-anchor="middle" x="4198.5" y="-503.28" font-family="Times,serif" font-size="20.00">http://headers.webappsec.eu</text>
<text text-anchor="middle" x="4198.5" y="-481.28" font-family="Times,serif" font-size="20.00">http://headers.websec.saarland</text>
<text text-anchor="middle" x="4198.5" y="-459.28" font-family="Times,serif" font-size="20.00">http://sub.headers.websec.saarland</text>
<text text-anchor="middle" x="4198.5" y="-437.28" font-family="Times,serif" font-size="20.00">http://sub.sub.headers.websec.saarland</text>
</g>
<!-- SG_2_Node_3 -->
<g id="node23" class="node">
<title>SG_2_Node_3</title>
<polygon fill="none" stroke="black" points="4455.5,-366.07 4354.5,-366.07 4354.5,-330.07 4455.5,-330.07 4455.5,-366.07"/>
<text text-anchor="middle" x="4405" y="-343.07" font-family="Times,serif" font-size="20.00">browser</text>
</g>
<!-- SG_2_Node_1&#45;&gt;SG_2_Node_3 -->
<g id="edge26" class="edge">
<title>SG_2_Node_1&#45;&gt;SG_2_Node_3</title>
<path fill="none" stroke="black" d="M4405,-606.33C4405,-560.12 4405,-432.83 4405,-376.5"/>
<polygon fill="black" stroke="black" points="4408.5,-376.23 4405,-366.23 4401.5,-376.23 4408.5,-376.23"/>
<text text-anchor="middle" x="4612.5" y="-503.28" font-family="Times,serif" font-size="20.00">https://headers.webappsec.eu</text>
<text text-anchor="middle" x="4612.5" y="-481.28" font-family="Times,serif" font-size="20.00">https://headers.websec.saarland</text>
<text text-anchor="middle" x="4612.5" y="-459.28" font-family="Times,serif" font-size="20.00">https://sub.sub.headers.websec.saarland</text>
</g>
<!-- SG_2_Node_7 -->
<g id="node24" class="node">
<title>SG_2_Node_7</title>
<ellipse fill="none" stroke="black" cx="4843" cy="-348.07" rx="33.88" ry="21.43"/>
<text text-anchor="middle" x="4843" y="-343.07" font-family="Times,serif" font-size="20.00">0.0</text>
</g>
<!-- SG_2_Node_2&#45;&gt;SG_2_Node_7 -->
<g id="edge19" class="edge">
<title>SG_2_Node_2&#45;&gt;SG_2_Node_7</title>
<path fill="none" stroke="black" d="M4843,-606.33C4843,-561.02 4843,-437.74 4843,-379.86"/>
<polygon fill="black" stroke="black" points="4846.5,-379.52 4843,-369.52 4839.5,-379.52 4846.5,-379.52"/>
<text text-anchor="middle" x="5382" y="-569.28" font-family="Times,serif" font-size="20.00">[NA]</text>
<text text-anchor="middle" x="5382" y="-547.28" font-family="Times,serif" font-size="20.00">[[&#39;Timing&#45;Allow&#45;Origin&#39;, &#39;http://sub.headers.websec.saarland&#39;]]</text>
<text text-anchor="middle" x="5382" y="-525.28" font-family="Times,serif" font-size="20.00">[[&#39;Timing&#45;Allow&#45;Origin&#39;, &#39;https://headers.websec.saarland&#39;]]</text>
<text text-anchor="middle" x="5382" y="-503.28" font-family="Times,serif" font-size="20.00">[[&#39;Timing&#45;Allow&#45;Origin&#39;, &#39;https://sub.headers.websec.saarland/&#39;]]</text>
<text text-anchor="middle" x="5382" y="-481.28" font-family="Times,serif" font-size="20.00">[[&#39;Timing&#45;Allow&#45;Origin&#39;, &#39;https://sub.headers.websec.saarland:443&#39;]]</text>
<text text-anchor="middle" x="5382" y="-459.28" font-family="Times,serif" font-size="20.00">[[&#39;Timing&#45;Allow&#45;Origin&#39;, &#39;null&#39;], [&#39;location&#39;, &#39;https://sub.headers.websec.saarland/_hp/common/empty.html&#39;]]</text>
<text text-anchor="middle" x="5382" y="-437.28" font-family="Times,serif" font-size="20.00">[[&#39;Timing&#45;Allow&#45;Origin&#39;, &#39;null&#39;]]</text>
<text text-anchor="middle" x="5382" y="-415.28" font-family="Times,serif" font-size="20.00">[[&#39;Timing&#45;Allow&#45;Origin&#39;, &#39;sub.headers.websec.saarland&#39;]]</text>
<text text-anchor="middle" x="5382" y="-393.28" font-family="Times,serif" font-size="20.00">[]</text>
</g>
<!-- SG_2_Node_4 -->
<g id="node25" class="node">
<title>SG_2_Node_4</title>
<polygon fill="none" stroke="black" points="5994.5,-366.07 5893.5,-366.07 5893.5,-330.07 5994.5,-330.07 5994.5,-366.07"/>
<text text-anchor="middle" x="5944" y="-343.07" font-family="Times,serif" font-size="20.00">browser</text>
</g>
<!-- SG_2_Node_2&#45;&gt;SG_2_Node_4 -->
<g id="edge20" class="edge">
<title>SG_2_Node_2&#45;&gt;SG_2_Node_4</title>
<path fill="none" stroke="black" d="M4911.5,-623.53C5143.2,-623.34 5885.22,-620 5922,-585.28 5979.34,-531.15 5963.22,-425.87 5951.44,-376.22"/>
<polygon fill="black" stroke="black" points="5954.77,-375.09 5948.95,-366.23 5947.98,-376.78 5954.77,-375.09"/>
<text text-anchor="middle" x="6486.5" y="-525.28" font-family="Times,serif" font-size="20.00">[[&#39;Timing&#45;Allow&#45;Origin&#39;, &#39;*&#39;], [&#39;location&#39;, &#39;https://sub.headers.websec.saarland/_hp/common/empty.html&#39;]]</text>
<text text-anchor="middle" x="6486.5" y="-503.28" font-family="Times,serif" font-size="20.00">[[&#39;Timing&#45;Allow&#45;Origin&#39;, &#39;*&#39;]]</text>
<text text-anchor="middle" x="6486.5" y="-481.28" font-family="Times,serif" font-size="20.00">[[&#39;Timing&#45;Allow&#45;Origin&#39;, &#39;https://sub.headers.websec.saarland&#39;], [&#39;Timing&#45;Allow&#45;Origin&#39;, &#39;*&#39;]]</text>
<text text-anchor="middle" x="6486.5" y="-459.28" font-family="Times,serif" font-size="20.00">[[&#39;Timing&#45;Allow&#45;Origin&#39;, &#39;https://sub.headers.websec.saarland&#39;]]</text>
<text text-anchor="middle" x="6486.5" y="-437.28" font-family="Times,serif" font-size="20.00">[[&#39;Timing&#45;Allow&#45;Origin&#39;, &#39;null&#39;], [&#39;Timing&#45;Allow&#45;Origin&#39;, &#39;*&#39;]]</text>
</g>
<!-- SG_2_Node_8 -->
<g id="node26" class="node">
<title>SG_2_Node_8</title>
<ellipse fill="none" stroke="black" cx="4348" cy="-159.64" rx="33.88" ry="21.43"/>
<text text-anchor="middle" x="4348" y="-154.64" font-family="Times,serif" font-size="20.00">0.0</text>
</g>
<!-- SG_2_Node_3&#45;&gt;SG_2_Node_8 -->
<g id="edge27" class="edge">
<title>SG_2_Node_3&#45;&gt;SG_2_Node_8</title>
<path fill="none" stroke="black" d="M4368.84,-329.91C4360.91,-324.35 4353.54,-317.37 4349,-308.85 4329.33,-271.92 4334.25,-222.1 4340.45,-190.67"/>
<polygon fill="black" stroke="black" points="4343.9,-191.28 4342.57,-180.76 4337.06,-189.81 4343.9,-191.28"/>
<text text-anchor="middle" x="4394.5" y="-259.85" font-family="Times,serif" font-size="20.00">[NA]</text>
<text text-anchor="middle" x="4394.5" y="-237.85" font-family="Times,serif" font-size="20.00">11 levels</text>
</g>
<!-- SG_2_Node_9 -->
<g id="node27" class="node">
<title>SG_2_Node_9</title>
<ellipse fill="none" stroke="black" cx="4462" cy="-159.64" rx="33.88" ry="21.43"/>
<text text-anchor="middle" x="4462" y="-154.64" font-family="Times,serif" font-size="20.00">1.0</text>
</g>
<!-- SG_2_Node_3&#45;&gt;SG_2_Node_9 -->
<g id="edge28" class="edge">
<title>SG_2_Node_3&#45;&gt;SG_2_Node_9</title>
<path fill="none" stroke="black" d="M4424.94,-329.7C4430.68,-323.67 4436.36,-316.49 4440,-308.85 4458.01,-271.04 4462.07,-222.16 4462.6,-191.09"/>
<polygon fill="black" stroke="black" points="4466.1,-190.91 4462.66,-180.89 4459.1,-190.87 4466.1,-190.91"/>
<text text-anchor="middle" x="4704.5" y="-259.85" font-family="Times,serif" font-size="20.00">chrome iPadOS 17.2 120.0.6099.119 intent real</text>
<text text-anchor="middle" x="4704.5" y="-237.85" font-family="Times,serif" font-size="20.00">edge iPadOS 17.2 120.0.2210.116 intent real</text>
</g>
<!-- SG_2_Node_5 -->
<g id="node28" class="node">
<title>SG_2_Node_5</title>
<polygon fill="none" stroke="black" points="5780.5,-177.64 5643.5,-177.64 5643.5,-141.64 5780.5,-141.64 5780.5,-177.64"/>
<text text-anchor="middle" x="5712" y="-154.64" font-family="Times,serif" font-size="20.00">status_code</text>
</g>
<!-- SG_2_Node_4&#45;&gt;SG_2_Node_5 -->
<g id="edge21" class="edge">
<title>SG_2_Node_4&#45;&gt;SG_2_Node_5</title>
<path fill="none" stroke="black" d="M5893.31,-346.02C5832.46,-343.57 5735.74,-335.48 5713,-308.85 5684.35,-275.3 5693.63,-220.22 5702.88,-187.49"/>
<polygon fill="black" stroke="black" points="5706.29,-188.29 5705.83,-177.7 5699.59,-186.26 5706.29,-188.29"/>
<text text-anchor="middle" x="5934" y="-248.85" font-family="Times,serif" font-size="20.00">firefox_beta Android 11 122.0b1 intent real</text>
</g>
<!-- SG_2_Node_10 -->
<g id="node29" class="node">
<title>SG_2_Node_10</title>
<ellipse fill="none" stroke="black" cx="6177" cy="-159.64" rx="33.88" ry="21.43"/>
<text text-anchor="middle" x="6177" y="-154.64" font-family="Times,serif" font-size="20.00">1.0</text>
</g>
<!-- SG_2_Node_4&#45;&gt;SG_2_Node_10 -->
<g id="edge22" class="edge">
<title>SG_2_Node_4&#45;&gt;SG_2_Node_10</title>
<path fill="none" stroke="black" d="M5994.93,-344.52C6050.17,-340.64 6133.37,-331.18 6155,-308.85 6185.13,-277.75 6185.38,-224.42 6181.86,-190.92"/>
<polygon fill="black" stroke="black" points="6185.31,-190.3 6180.62,-180.8 6178.37,-191.15 6185.31,-190.3"/>
<text text-anchor="middle" x="6429.5" y="-292.85" font-family="Times,serif" font-size="20.00">brave iPadOS 17.2 1.61 (23.12.18.22) intent real</text>
<text text-anchor="middle" x="6429.5" y="-270.85" font-family="Times,serif" font-size="20.00">firefox Ubuntu 22.04 119 selenium headless</text>
<text text-anchor="middle" x="6429.5" y="-248.85" font-family="Times,serif" font-size="20.00">firefox Ubuntu 22.04 119 selenium xvfb</text>
<text text-anchor="middle" x="6429.5" y="-226.85" font-family="Times,serif" font-size="20.00">firefox iPadOS 17.2 121.0 (36782) intent real</text>
<text text-anchor="middle" x="6429.5" y="-204.85" font-family="Times,serif" font-size="20.00">operagx iPadOS 17.2 2.2.2 intent real</text>
</g>
<!-- SG_2_Node_11 -->
<g id="node30" class="node">
<title>SG_2_Node_11</title>
<ellipse fill="none" stroke="black" cx="5672" cy="-37.21" rx="33.88" ry="21.43"/>
<text text-anchor="middle" x="5672" y="-32.21" font-family="Times,serif" font-size="20.00">0.0</text>
</g>
<!-- SG_2_Node_5&#45;&gt;SG_2_Node_11 -->
<g id="edge23" class="edge">
<title>SG_2_Node_5&#45;&gt;SG_2_Node_11</title>
<path fill="none" stroke="black" d="M5697.27,-141.37C5692.66,-135.13 5688,-127.8 5685,-120.43 5678.37,-104.11 5675.11,-84.7 5673.51,-68.83"/>
<polygon fill="black" stroke="black" points="5676.96,-68.17 5672.64,-58.5 5669.99,-68.75 5676.96,-68.17"/>
<text text-anchor="middle" x="5704.5" y="-93.43" font-family="Times,serif" font-size="20.00">302</text>
</g>
<!-- SG_2_Node_12 -->
<g id="node31" class="node">
<title>SG_2_Node_12</title>
<ellipse fill="none" stroke="black" cx="5758" cy="-37.21" rx="33.88" ry="21.43"/>
<text text-anchor="middle" x="5758" y="-32.21" font-family="Times,serif" font-size="20.00">1.0</text>
</g>
<!-- SG_2_Node_5&#45;&gt;SG_2_Node_12 -->
<g id="edge24" class="edge">
<title>SG_2_Node_5&#45;&gt;SG_2_Node_12</title>
<path fill="none" stroke="black" d="M5718.59,-141.39C5725.94,-122.15 5737.95,-90.71 5746.78,-67.59"/>
<polygon fill="black" stroke="black" points="5750.05,-68.84 5750.35,-58.24 5743.51,-66.34 5750.05,-68.84"/>
<text text-anchor="middle" x="5766.5" y="-104.43" font-family="Times,serif" font-size="20.00">[NA]</text>
<text text-anchor="middle" x="5766.5" y="-82.43" font-family="Times,serif" font-size="20.00">200</text>
</g>
</g>
</svg>
