<?xml version="1.0" encoding="UTF-8" standalone="no"?>
<!DOCTYPE svg PUBLIC "-//W3C//DTD SVG 1.1//EN"
 "http://www.w3.org/Graphics/SVG/1.1/DTD/svg11.dtd">
<!-- Generated by graphviz version 2.43.0 (0)
 -->
<!-- Title: G Pages: 1 -->
<svg width="2574pt" height="432pt"
 viewBox="0.00 0.00 2574.00 432.43" xmlns="http://www.w3.org/2000/svg" xmlns:xlink="http://www.w3.org/1999/xlink">
<g id="graph0" class="graph" transform="scale(1 1) rotate(0) translate(4 428.43)">
<title>G</title>
<polygon fill="white" stroke="transparent" points="-4,4 -4,-428.43 2570,-428.43 2570,4 -4,4"/>
<g id="clust1" class="cluster">
<title>cluster_0</title>
<polygon fill="none" stroke="black" points="8,-8 8,-416.43 1279,-416.43 1279,-8 8,-8"/>
<text text-anchor="middle" x="643.5" y="-380.43" font-family="Times,serif" font-size="40.00">Tree 0, Class message send</text>
</g>
<g id="clust5" class="cluster">
<title>cluster_1</title>
<polygon fill="none" stroke="black" points="1287,-8 1287,-416.43 2558,-416.43 2558,-8 1287,-8"/>
<text text-anchor="middle" x="1922.5" y="-380.43" font-family="Times,serif" font-size="40.00">Tree 0, Class message timeout</text>
</g>
<!-- SG_0_Node_0 -->
<g id="node1" class="node">
<title>SG_0_Node_0</title>
<polygon fill="none" stroke="black" points="414.5,-356.43 277.5,-356.43 277.5,-320.43 414.5,-320.43 414.5,-356.43"/>
<text text-anchor="middle" x="346" y="-333.43" font-family="Times,serif" font-size="20.00">raw_header</text>
</g>
<!-- SG_0_Node_1 -->
<g id="node2" class="node">
<title>SG_0_Node_1</title>
<polygon fill="none" stroke="black" points="153.5,-240.43 52.5,-240.43 52.5,-204.43 153.5,-204.43 153.5,-240.43"/>
<text text-anchor="middle" x="103" y="-217.43" font-family="Times,serif" font-size="20.00">browser</text>
</g>
<!-- SG_0_Node_0&#45;&gt;SG_0_Node_1 -->
<g id="edge1" class="edge">
<title>SG_0_Node_0&#45;&gt;SG_0_Node_1</title>
<path fill="none" stroke="black" d="M277.38,-337.08C213.94,-335.13 126.22,-327.76 104,-302.43 91.79,-288.51 92.18,-267.3 95.28,-250.36"/>
<polygon fill="black" stroke="black" points="98.72,-250.99 97.46,-240.47 91.89,-249.48 98.72,-250.99"/>
<text text-anchor="middle" x="335.5" y="-275.43" font-family="Times,serif" font-size="20.00">[[&#39;Content&#45;Security&#45;Policy&#39;, &quot;script&#45;src &#39;self&#39;&quot;]]</text>
</g>
<!-- SG_0_Node_2 -->
<g id="node3" class="node">
<title>SG_0_Node_2</title>
<polygon fill="none" stroke="black" points="714.5,-240.43 613.5,-240.43 613.5,-204.43 714.5,-204.43 714.5,-240.43"/>
<text text-anchor="middle" x="664" y="-217.43" font-family="Times,serif" font-size="20.00">browser</text>
</g>
<!-- SG_0_Node_0&#45;&gt;SG_0_Node_2 -->
<g id="edge2" class="edge">
<title>SG_0_Node_0&#45;&gt;SG_0_Node_2</title>
<path fill="none" stroke="black" d="M414.58,-332.11C469.65,-326.84 541.81,-317.35 567,-302.43 588.26,-289.83 582.26,-274.54 601,-258.43 606.29,-253.88 612.27,-249.65 618.38,-245.82"/>
<polygon fill="black" stroke="black" points="620.54,-248.61 627.36,-240.5 616.97,-242.58 620.54,-248.61"/>
<text text-anchor="middle" x="942" y="-286.43" font-family="Times,serif" font-size="20.00">[NA]</text>
<text text-anchor="middle" x="942" y="-264.43" font-family="Times,serif" font-size="20.00">[[&#39;Content&#45;Security&#45;Policy&#39;, &#39;script&#45;src *.headers.websec.saarland&#39;]]</text>
</g>
<!-- SG_0_Node_3 -->
<g id="node4" class="node">
<title>SG_0_Node_3</title>
<ellipse fill="none" stroke="black" cx="50" cy="-37.21" rx="33.88" ry="21.43"/>
<text text-anchor="middle" x="50" y="-32.21" font-family="Times,serif" font-size="20.00">0.0</text>
</g>
<!-- SG_0_Node_1&#45;&gt;SG_0_Node_3 -->
<g id="edge5" class="edge">
<title>SG_0_Node_1&#45;&gt;SG_0_Node_3</title>
<path fill="none" stroke="black" d="M52.38,-205.91C43.88,-201.03 36.16,-194.67 31,-186.43 5.07,-144.98 19.82,-124.02 31,-76.43 31.76,-73.18 32.84,-69.9 34.11,-66.68"/>
<polygon fill="black" stroke="black" points="37.38,-67.94 38.32,-57.39 31,-65.06 37.38,-67.94"/>
<text text-anchor="middle" x="76.5" y="-137.43" font-family="Times,serif" font-size="20.00">[NA]</text>
<text text-anchor="middle" x="76.5" y="-115.43" font-family="Times,serif" font-size="20.00">14 levels</text>
</g>
<!-- SG_0_Node_4 -->
<g id="node5" class="node">
<title>SG_0_Node_4</title>
<ellipse fill="none" stroke="black" cx="148" cy="-37.21" rx="33.88" ry="21.43"/>
<text text-anchor="middle" x="148" y="-32.21" font-family="Times,serif" font-size="20.00">1.0</text>
</g>
<!-- SG_0_Node_1&#45;&gt;SG_0_Node_4 -->
<g id="edge6" class="edge">
<title>SG_0_Node_1&#45;&gt;SG_0_Node_4</title>
<path fill="none" stroke="black" d="M116.53,-204.07C120.13,-198.68 123.67,-192.54 126,-186.43 140.84,-147.51 145.73,-99.29 147.3,-68.63"/>
<polygon fill="black" stroke="black" points="150.8,-68.71 147.73,-58.57 143.81,-68.41 150.8,-68.71"/>
<text text-anchor="middle" x="392.5" y="-170.43" font-family="Times,serif" font-size="20.00">brave iPadOS 17.2 1.61 (23.12.18.22) intent real</text>
<text text-anchor="middle" x="392.5" y="-148.43" font-family="Times,serif" font-size="20.00">chrome iPadOS 17.2 120.0.6099.119 intent real</text>
<text text-anchor="middle" x="392.5" y="-126.43" font-family="Times,serif" font-size="20.00">edge iPadOS 17.2 120.0.2210.116 intent real</text>
<text text-anchor="middle" x="392.5" y="-104.43" font-family="Times,serif" font-size="20.00">firefox iPadOS 17.2 121.0 (36782) intent real</text>
<text text-anchor="middle" x="392.5" y="-82.43" font-family="Times,serif" font-size="20.00">operagx iPadOS 17.2 2.2.2 intent real</text>
</g>
<!-- SG_0_Node_5 -->
<g id="node6" class="node">
<title>SG_0_Node_5</title>
<ellipse fill="none" stroke="black" cx="664" cy="-37.21" rx="33.88" ry="21.43"/>
<text text-anchor="middle" x="664" y="-32.21" font-family="Times,serif" font-size="20.00">0.0</text>
</g>
<!-- SG_0_Node_2&#45;&gt;SG_0_Node_5 -->
<g id="edge3" class="edge">
<title>SG_0_Node_2&#45;&gt;SG_0_Node_5</title>
<path fill="none" stroke="black" d="M664,-204.19C664,-173.17 664,-107.56 664,-68.76"/>
<polygon fill="black" stroke="black" points="667.5,-68.58 664,-58.58 660.5,-68.58 667.5,-68.58"/>
<text text-anchor="middle" x="910.5" y="-170.43" font-family="Times,serif" font-size="20.00">brave iPadOS 17.2 1.61 (23.12.18.22) intent real</text>
<text text-anchor="middle" x="910.5" y="-148.43" font-family="Times,serif" font-size="20.00">chrome iPadOS 17.2 120.0.6099.119 intent real</text>
<text text-anchor="middle" x="910.5" y="-126.43" font-family="Times,serif" font-size="20.00">edge iPadOS 17.2 120.0.2210.116 intent real</text>
<text text-anchor="middle" x="910.5" y="-104.43" font-family="Times,serif" font-size="20.00">firefox iPadOS 17.2 121.0 (36782) intent real</text>
<text text-anchor="middle" x="910.5" y="-82.43" font-family="Times,serif" font-size="20.00">operagx iPadOS 17.2 2.2.2 intent real</text>
</g>
<!-- SG_0_Node_6 -->
<g id="node7" class="node">
<title>SG_0_Node_6</title>
<ellipse fill="none" stroke="black" cx="1180" cy="-37.21" rx="33.88" ry="21.43"/>
<text text-anchor="middle" x="1180" y="-32.21" font-family="Times,serif" font-size="20.00">1.0</text>
</g>
<!-- SG_0_Node_2&#45;&gt;SG_0_Node_6 -->
<g id="edge4" class="edge">
<title>SG_0_Node_2&#45;&gt;SG_0_Node_6</title>
<path fill="none" stroke="black" d="M714.64,-221.36C834.12,-220.71 1125.99,-216.08 1158,-186.43 1189.95,-156.84 1189.52,-102.58 1185.4,-68.56"/>
<polygon fill="black" stroke="black" points="1188.81,-67.7 1183.97,-58.28 1181.88,-68.67 1188.81,-67.7"/>
<text text-anchor="middle" x="1232.5" y="-137.43" font-family="Times,serif" font-size="20.00">[NA]</text>
<text text-anchor="middle" x="1232.5" y="-115.43" font-family="Times,serif" font-size="20.00">14 levels</text>
</g>
<!-- SG_1_Node_0 -->
<g id="node8" class="node">
<title>SG_1_Node_0</title>
<polygon fill="none" stroke="black" points="1775.5,-356.43 1638.5,-356.43 1638.5,-320.43 1775.5,-320.43 1775.5,-356.43"/>
<text text-anchor="middle" x="1707" y="-333.43" font-family="Times,serif" font-size="20.00">raw_header</text>
</g>
<!-- SG_1_Node_1 -->
<g id="node9" class="node">
<title>SG_1_Node_1</title>
<polygon fill="none" stroke="black" points="1414.5,-240.43 1313.5,-240.43 1313.5,-204.43 1414.5,-204.43 1414.5,-240.43"/>
<text text-anchor="middle" x="1364" y="-217.43" font-family="Times,serif" font-size="20.00">browser</text>
</g>
<!-- SG_1_Node_0&#45;&gt;SG_1_Node_1 -->
<g id="edge7" class="edge">
<title>SG_1_Node_0&#45;&gt;SG_1_Node_1</title>
<path fill="none" stroke="black" d="M1638.47,-335.21C1543.94,-331.45 1383.07,-322.19 1365,-302.43 1352.51,-288.76 1352.91,-267.54 1356.08,-250.54"/>
<polygon fill="black" stroke="black" points="1359.54,-251.12 1358.33,-240.6 1352.71,-249.58 1359.54,-251.12"/>
<text text-anchor="middle" x="1706" y="-286.43" font-family="Times,serif" font-size="20.00">[NA]</text>
<text text-anchor="middle" x="1706" y="-264.43" font-family="Times,serif" font-size="20.00">[[&#39;Content&#45;Security&#45;Policy&#39;, &#39;script&#45;src *.headers.websec.saarland&#39;]]</text>
</g>
<!-- SG_1_Node_2 -->
<g id="node10" class="node">
<title>SG_1_Node_2</title>
<polygon fill="none" stroke="black" points="2119.5,-240.43 2018.5,-240.43 2018.5,-204.43 2119.5,-204.43 2119.5,-240.43"/>
<text text-anchor="middle" x="2069" y="-217.43" font-family="Times,serif" font-size="20.00">browser</text>
</g>
<!-- SG_1_Node_0&#45;&gt;SG_1_Node_2 -->
<g id="edge8" class="edge">
<title>SG_1_Node_0&#45;&gt;SG_1_Node_2</title>
<path fill="none" stroke="black" d="M1775.66,-334.46C1869,-329.81 2026.73,-319.53 2047,-302.43 2061.87,-289.88 2067.13,-268.22 2068.81,-250.75"/>
<polygon fill="black" stroke="black" points="2072.32,-250.73 2069.44,-240.53 2065.33,-250.3 2072.32,-250.73"/>
<text text-anchor="middle" x="2298.5" y="-275.43" font-family="Times,serif" font-size="20.00">[[&#39;Content&#45;Security&#45;Policy&#39;, &quot;script&#45;src &#39;self&#39;&quot;]]</text>
</g>
<!-- SG_1_Node_3 -->
<g id="node11" class="node">
<title>SG_1_Node_3</title>
<ellipse fill="none" stroke="black" cx="1329" cy="-37.21" rx="33.88" ry="21.43"/>
<text text-anchor="middle" x="1329" y="-32.21" font-family="Times,serif" font-size="20.00">0.0</text>
</g>
<!-- SG_1_Node_1&#45;&gt;SG_1_Node_3 -->
<g id="edge11" class="edge">
<title>SG_1_Node_1&#45;&gt;SG_1_Node_3</title>
<path fill="none" stroke="black" d="M1329.86,-204.25C1323.48,-199.4 1317.67,-193.48 1314,-186.43 1294.49,-148.96 1305.98,-98.97 1316.86,-67.69"/>
<polygon fill="black" stroke="black" points="1320.17,-68.83 1320.33,-58.23 1313.6,-66.42 1320.17,-68.83"/>
<text text-anchor="middle" x="1359.5" y="-137.43" font-family="Times,serif" font-size="20.00">[NA]</text>
<text text-anchor="middle" x="1359.5" y="-115.43" font-family="Times,serif" font-size="20.00">14 levels</text>
</g>
<!-- SG_1_Node_4 -->
<g id="node12" class="node">
<title>SG_1_Node_4</title>
<ellipse fill="none" stroke="black" cx="1427" cy="-37.21" rx="33.88" ry="21.43"/>
<text text-anchor="middle" x="1427" y="-32.21" font-family="Times,serif" font-size="20.00">1.0</text>
</g>
<!-- SG_1_Node_1&#45;&gt;SG_1_Node_4 -->
<g id="edge12" class="edge">
<title>SG_1_Node_1&#45;&gt;SG_1_Node_4</title>
<path fill="none" stroke="black" d="M1389.92,-204.2C1395.74,-199.14 1401.28,-193.14 1405,-186.43 1415.87,-166.8 1422.08,-106.34 1424.97,-68.98"/>
<polygon fill="black" stroke="black" points="1428.49,-68.89 1425.74,-58.66 1421.51,-68.37 1428.49,-68.89"/>
<text text-anchor="middle" x="1670.5" y="-170.43" font-family="Times,serif" font-size="20.00">brave iPadOS 17.2 1.61 (23.12.18.22) intent real</text>
<text text-anchor="middle" x="1670.5" y="-148.43" font-family="Times,serif" font-size="20.00">chrome iPadOS 17.2 120.0.6099.119 intent real</text>
<text text-anchor="middle" x="1670.5" y="-126.43" font-family="Times,serif" font-size="20.00">edge iPadOS 17.2 120.0.2210.116 intent real</text>
<text text-anchor="middle" x="1670.5" y="-104.43" font-family="Times,serif" font-size="20.00">firefox iPadOS 17.2 121.0 (36782) intent real</text>
<text text-anchor="middle" x="1670.5" y="-82.43" font-family="Times,serif" font-size="20.00">operagx iPadOS 17.2 2.2.2 intent real</text>
</g>
<!-- SG_1_Node_5 -->
<g id="node13" class="node">
<title>SG_1_Node_5</title>
<ellipse fill="none" stroke="black" cx="1943" cy="-37.21" rx="33.88" ry="21.43"/>
<text text-anchor="middle" x="1943" y="-32.21" font-family="Times,serif" font-size="20.00">0.0</text>
</g>
<!-- SG_1_Node_2&#45;&gt;SG_1_Node_5 -->
<g id="edge9" class="edge">
<title>SG_1_Node_2&#45;&gt;SG_1_Node_5</title>
<path fill="none" stroke="black" d="M2018.48,-213.59C1988,-207.72 1953.3,-198.6 1944,-186.43 1918.14,-152.57 1925.31,-100.5 1933.61,-67.95"/>
<polygon fill="black" stroke="black" points="1937.04,-68.68 1936.3,-58.11 1930.28,-66.83 1937.04,-68.68"/>
<text text-anchor="middle" x="2190.5" y="-170.43" font-family="Times,serif" font-size="20.00">brave iPadOS 17.2 1.61 (23.12.18.22) intent real</text>
<text text-anchor="middle" x="2190.5" y="-148.43" font-family="Times,serif" font-size="20.00">chrome iPadOS 17.2 120.0.6099.119 intent real</text>
<text text-anchor="middle" x="2190.5" y="-126.43" font-family="Times,serif" font-size="20.00">edge iPadOS 17.2 120.0.2210.116 intent real</text>
<text text-anchor="middle" x="2190.5" y="-104.43" font-family="Times,serif" font-size="20.00">firefox iPadOS 17.2 121.0 (36782) intent real</text>
<text text-anchor="middle" x="2190.5" y="-82.43" font-family="Times,serif" font-size="20.00">operagx iPadOS 17.2 2.2.2 intent real</text>
</g>
<!-- SG_1_Node_6 -->
<g id="node14" class="node">
<title>SG_1_Node_6</title>
<ellipse fill="none" stroke="black" cx="2459" cy="-37.21" rx="33.88" ry="21.43"/>
<text text-anchor="middle" x="2459" y="-32.21" font-family="Times,serif" font-size="20.00">1.0</text>
</g>
<!-- SG_1_Node_2&#45;&gt;SG_1_Node_6 -->
<g id="edge10" class="edge">
<title>SG_1_Node_2&#45;&gt;SG_1_Node_6</title>
<path fill="none" stroke="black" d="M2119.7,-220.02C2215.24,-216.88 2414.45,-207.82 2437,-186.43 2468.5,-156.54 2468.27,-102.61 2464.3,-68.7"/>
<polygon fill="black" stroke="black" points="2467.73,-67.89 2462.92,-58.45 2460.79,-68.83 2467.73,-67.89"/>
<text text-anchor="middle" x="2511.5" y="-137.43" font-family="Times,serif" font-size="20.00">[NA]</text>
<text text-anchor="middle" x="2511.5" y="-115.43" font-family="Times,serif" font-size="20.00">14 levels</text>
</g>
</g>
</svg>
