<?xml version="1.0" encoding="UTF-8" standalone="no"?>
<!DOCTYPE svg PUBLIC "-//W3C//DTD SVG 1.1//EN"
 "http://www.w3.org/Graphics/SVG/1.1/DTD/svg11.dtd">
<!-- Generated by graphviz version 2.43.0 (0)
 -->
<!-- Title: G Pages: 1 -->
<svg width="7222pt" height="539pt"
 viewBox="0.00 0.00 7222.00 539.28" xmlns="http://www.w3.org/2000/svg" xmlns:xlink="http://www.w3.org/1999/xlink">
<g id="graph0" class="graph" transform="scale(1 1) rotate(0) translate(4 535.28)">
<title>G</title>
<polygon fill="white" stroke="transparent" points="-4,4 -4,-535.28 7218,-535.28 7218,4 -4,4"/>
<g id="clust1" class="cluster">
<title>cluster_0</title>
<polygon fill="none" stroke="black" points="8,-8 8,-523.28 3612,-523.28 3612,-8 8,-8"/>
<text text-anchor="middle" x="1810" y="-487.28" font-family="Times,serif" font-size="40.00">Tree 0, Class {&#39;image&#45;events&#39;: {&#39;swag.jpg&#39;: &#39;error&#39;, &#39;swag&#45;same&#45;site.jpg&#39;: &#39;error&#39;, &#39;swag&#45;cross&#45;site.jpg&#39;: &#39;load&#39;, &#39;swag&#45;same&#45;origin.jpg&#39;: &#39;error&#39;}, &#39;window.crossOriginIsolated&#39;: False}</text>
</g>
<g id="clust6" class="cluster">
<title>cluster_1</title>
<polygon fill="none" stroke="black" points="3620,-8 3620,-523.28 7206,-523.28 7206,-8 3620,-8"/>
<text text-anchor="middle" x="5413" y="-487.28" font-family="Times,serif" font-size="40.00">Tree 0, Class {&#39;image&#45;events&#39;: {&#39;swag.jpg&#39;: &#39;load&#39;, &#39;swag&#45;same&#45;site.jpg&#39;: &#39;error&#39;, &#39;swag&#45;cross&#45;site.jpg&#39;: &#39;load&#39;, &#39;swag&#45;same&#45;origin.jpg&#39;: &#39;error&#39;}, &#39;window.crossOriginIsolated&#39;: False}</text>
</g>
<!-- SG_0_Node_0 -->
<g id="node1" class="node">
<title>SG_0_Node_0</title>
<polygon fill="none" stroke="black" points="222.5,-463.28 121.5,-463.28 121.5,-427.28 222.5,-427.28 222.5,-463.28"/>
<text text-anchor="middle" x="172" y="-440.28" font-family="Times,serif" font-size="20.00">browser</text>
</g>
<!-- SG_0_Node_1 -->
<g id="node2" class="node">
<title>SG_0_Node_1</title>
<polygon fill="none" stroke="black" points="165.5,-344.07 64.5,-344.07 64.5,-308.07 165.5,-308.07 165.5,-344.07"/>
<text text-anchor="middle" x="115" y="-321.07" font-family="Times,serif" font-size="20.00">browser</text>
</g>
<!-- SG_0_Node_0&#45;&gt;SG_0_Node_1 -->
<g id="edge1" class="edge">
<title>SG_0_Node_0&#45;&gt;SG_0_Node_1</title>
<path fill="none" stroke="black" d="M133.07,-427.18C126.25,-422.39 120.05,-416.47 116,-409.28 106.76,-392.85 106.79,-371.49 108.98,-354.66"/>
<polygon fill="black" stroke="black" points="112.51,-354.78 110.66,-344.35 105.6,-353.66 112.51,-354.78"/>
<text text-anchor="middle" x="161.5" y="-393.28" font-family="Times,serif" font-size="20.00">[NA]</text>
<text text-anchor="middle" x="161.5" y="-371.28" font-family="Times,serif" font-size="20.00">17 levels</text>
</g>
<!-- SG_0_Node_3 -->
<g id="node3" class="node">
<title>SG_0_Node_3</title>
<ellipse fill="none" stroke="black" cx="229" cy="-326.07" rx="33.88" ry="21.43"/>
<text text-anchor="middle" x="229" y="-321.07" font-family="Times,serif" font-size="20.00">1.0</text>
</g>
<!-- SG_0_Node_0&#45;&gt;SG_0_Node_3 -->
<g id="edge2" class="edge">
<title>SG_0_Node_0&#45;&gt;SG_0_Node_3</title>
<path fill="none" stroke="black" d="M192.92,-426.94C198.14,-421.73 203.31,-415.68 207,-409.28 216.15,-393.43 221.59,-373.67 224.78,-357.49"/>
<polygon fill="black" stroke="black" points="228.26,-357.92 226.56,-347.46 221.37,-356.69 228.26,-357.92"/>
<text text-anchor="middle" x="464.5" y="-393.28" font-family="Times,serif" font-size="20.00">chrome iPadOS 17.2 120.0.6099.119 intent real</text>
<text text-anchor="middle" x="464.5" y="-371.28" font-family="Times,serif" font-size="20.00">operagx iPadOS 17.2 2.2.2 intent real</text>
</g>
<!-- SG_0_Node_4 -->
<g id="node4" class="node">
<title>SG_0_Node_4</title>
<ellipse fill="none" stroke="black" cx="82" cy="-203.64" rx="33.88" ry="21.43"/>
<text text-anchor="middle" x="82" y="-198.64" font-family="Times,serif" font-size="20.00">0.0</text>
</g>
<!-- SG_0_Node_1&#45;&gt;SG_0_Node_4 -->
<g id="edge3" class="edge">
<title>SG_0_Node_1&#45;&gt;SG_0_Node_4</title>
<path fill="none" stroke="black" d="M98.38,-307.75C93.49,-301.62 88.73,-294.37 86,-286.85 80.05,-270.49 78.85,-251.07 79.24,-235.22"/>
<polygon fill="black" stroke="black" points="82.75,-235.04 79.72,-224.89 75.76,-234.72 82.75,-235.04"/>
<text text-anchor="middle" x="131.5" y="-270.85" font-family="Times,serif" font-size="20.00">[NA]</text>
<text text-anchor="middle" x="131.5" y="-248.85" font-family="Times,serif" font-size="20.00">16 levels</text>
</g>
<!-- SG_0_Node_2 -->
<g id="node5" class="node">
<title>SG_0_Node_2</title>
<polygon fill="none" stroke="black" points="266,-221.64 134,-221.64 134,-185.64 266,-185.64 266,-221.64"/>
<text text-anchor="middle" x="200" y="-198.64" font-family="Times,serif" font-size="20.00">resp_origin</text>
</g>
<!-- SG_0_Node_1&#45;&gt;SG_0_Node_2 -->
<g id="edge4" class="edge">
<title>SG_0_Node_1&#45;&gt;SG_0_Node_2</title>
<path fill="none" stroke="black" d="M152.7,-307.98C161.74,-302.37 170.61,-295.34 177,-286.85 189.04,-270.87 194.78,-248.89 197.51,-231.67"/>
<polygon fill="black" stroke="black" points="200.99,-232.04 198.85,-221.67 194.05,-231.11 200.99,-232.04"/>
<text text-anchor="middle" x="440.5" y="-259.85" font-family="Times,serif" font-size="20.00">brave iPadOS 17.2 1.61 (23.12.18.22) intent real</text>
</g>
<!-- SG_0_Node_5 -->
<g id="node6" class="node">
<title>SG_0_Node_5</title>
<ellipse fill="none" stroke="black" cx="125" cy="-37.21" rx="33.88" ry="21.43"/>
<text text-anchor="middle" x="125" y="-32.21" font-family="Times,serif" font-size="20.00">0.0</text>
</g>
<!-- SG_0_Node_2&#45;&gt;SG_0_Node_5 -->
<g id="edge5" class="edge">
<title>SG_0_Node_2&#45;&gt;SG_0_Node_5</title>
<path fill="none" stroke="black" d="M148.72,-185.54C139.69,-180.2 131.45,-173.3 126,-164.43 108.28,-135.58 111.58,-95.59 116.99,-68.4"/>
<polygon fill="black" stroke="black" points="120.48,-68.83 119.21,-58.31 113.64,-67.33 120.48,-68.83"/>
<text text-anchor="middle" x="333.5" y="-148.43" font-family="Times,serif" font-size="20.00">[NA]</text>
<text text-anchor="middle" x="333.5" y="-126.43" font-family="Times,serif" font-size="20.00">https://headers.webappsec.eu</text>
<text text-anchor="middle" x="333.5" y="-104.43" font-family="Times,serif" font-size="20.00">https://headers.websec.saarland</text>
<text text-anchor="middle" x="333.5" y="-82.43" font-family="Times,serif" font-size="20.00">https://sub.sub.headers.websec.saarland</text>
</g>
<!-- SG_0_Node_6 -->
<g id="node7" class="node">
<title>SG_0_Node_6</title>
<ellipse fill="none" stroke="black" cx="563" cy="-37.21" rx="33.88" ry="21.43"/>
<text text-anchor="middle" x="563" y="-32.21" font-family="Times,serif" font-size="20.00">1.0</text>
</g>
<!-- SG_0_Node_2&#45;&gt;SG_0_Node_6 -->
<g id="edge6" class="edge">
<title>SG_0_Node_2&#45;&gt;SG_0_Node_6</title>
<path fill="none" stroke="black" d="M266.38,-199.44C359.93,-194.29 521.42,-182.85 541,-164.43 566.68,-140.26 568.99,-97.63 567.03,-68.66"/>
<polygon fill="black" stroke="black" points="570.51,-68.32 566.15,-58.67 563.54,-68.94 570.51,-68.32"/>
<text text-anchor="middle" x="753.5" y="-115.43" font-family="Times,serif" font-size="20.00">https://sub.headers.websec.saarland</text>
</g>
<!-- SG_1_Node_0 -->
<g id="node8" class="node">
<title>SG_1_Node_0</title>
<polygon fill="none" stroke="black" points="3974.5,-463.28 3873.5,-463.28 3873.5,-427.28 3974.5,-427.28 3974.5,-463.28"/>
<text text-anchor="middle" x="3924" y="-440.28" font-family="Times,serif" font-size="20.00">browser</text>
</g>
<!-- SG_1_Node_3 -->
<g id="node9" class="node">
<title>SG_1_Node_3</title>
<ellipse fill="none" stroke="black" cx="3682" cy="-326.07" rx="33.88" ry="21.43"/>
<text text-anchor="middle" x="3682" y="-321.07" font-family="Times,serif" font-size="20.00">0.0</text>
</g>
<!-- SG_1_Node_0&#45;&gt;SG_1_Node_3 -->
<g id="edge7" class="edge">
<title>SG_1_Node_0&#45;&gt;SG_1_Node_3</title>
<path fill="none" stroke="black" d="M3873.39,-444.33C3810.16,-443.19 3707.27,-436.99 3683,-409.28 3670.85,-395.41 3670.71,-374.6 3673.55,-357.39"/>
<polygon fill="black" stroke="black" points="3677.05,-357.73 3675.62,-347.23 3670.19,-356.33 3677.05,-357.73"/>
<text text-anchor="middle" x="3925.5" y="-393.28" font-family="Times,serif" font-size="20.00">chrome iPadOS 17.2 120.0.6099.119 intent real</text>
<text text-anchor="middle" x="3925.5" y="-371.28" font-family="Times,serif" font-size="20.00">operagx iPadOS 17.2 2.2.2 intent real</text>
</g>
<!-- SG_1_Node_1 -->
<g id="node10" class="node">
<title>SG_1_Node_1</title>
<polygon fill="none" stroke="black" points="4240.5,-344.07 4139.5,-344.07 4139.5,-308.07 4240.5,-308.07 4240.5,-344.07"/>
<text text-anchor="middle" x="4190" y="-321.07" font-family="Times,serif" font-size="20.00">browser</text>
</g>
<!-- SG_1_Node_0&#45;&gt;SG_1_Node_1 -->
<g id="edge8" class="edge">
<title>SG_1_Node_0&#45;&gt;SG_1_Node_1</title>
<path fill="none" stroke="black" d="M3974.77,-443.4C4037.73,-441.26 4140.19,-433.96 4168,-409.28 4183.33,-395.67 4188.51,-372.66 4190.03,-354.44"/>
<polygon fill="black" stroke="black" points="4193.53,-354.54 4190.56,-344.37 4186.54,-354.17 4193.53,-354.54"/>
<text text-anchor="middle" x="4233.5" y="-393.28" font-family="Times,serif" font-size="20.00">[NA]</text>
<text text-anchor="middle" x="4233.5" y="-371.28" font-family="Times,serif" font-size="20.00">17 levels</text>
</g>
<!-- SG_1_Node_2 -->
<g id="node11" class="node">
<title>SG_1_Node_2</title>
<polygon fill="none" stroke="black" points="3942,-221.64 3810,-221.64 3810,-185.64 3942,-185.64 3942,-221.64"/>
<text text-anchor="middle" x="3876" y="-198.64" font-family="Times,serif" font-size="20.00">resp_origin</text>
</g>
<!-- SG_1_Node_1&#45;&gt;SG_1_Node_2 -->
<g id="edge9" class="edge">
<title>SG_1_Node_1&#45;&gt;SG_1_Node_2</title>
<path fill="none" stroke="black" d="M4139.46,-322.59C4054.44,-317.91 3890.35,-306.42 3873,-286.85 3859.93,-272.11 3861.81,-249.39 3866.33,-231.57"/>
<polygon fill="black" stroke="black" points="3869.76,-232.32 3869.21,-221.73 3863.04,-230.35 3869.76,-232.32"/>
<text text-anchor="middle" x="4119.5" y="-259.85" font-family="Times,serif" font-size="20.00">brave iPadOS 17.2 1.61 (23.12.18.22) intent real</text>
</g>
<!-- SG_1_Node_4 -->
<g id="node12" class="node">
<title>SG_1_Node_4</title>
<ellipse fill="none" stroke="black" cx="4392" cy="-203.64" rx="33.88" ry="21.43"/>
<text text-anchor="middle" x="4392" y="-198.64" font-family="Times,serif" font-size="20.00">1.0</text>
</g>
<!-- SG_1_Node_1&#45;&gt;SG_1_Node_4 -->
<g id="edge10" class="edge">
<title>SG_1_Node_1&#45;&gt;SG_1_Node_4</title>
<path fill="none" stroke="black" d="M4240.89,-320.19C4287.42,-314.71 4351.69,-304.23 4370,-286.85 4383.85,-273.71 4389.32,-252.9 4391.35,-235.5"/>
<polygon fill="black" stroke="black" points="4394.86,-235.47 4392.21,-225.21 4387.88,-234.88 4394.86,-235.47"/>
<text text-anchor="middle" x="4435.5" y="-270.85" font-family="Times,serif" font-size="20.00">[NA]</text>
<text text-anchor="middle" x="4435.5" y="-248.85" font-family="Times,serif" font-size="20.00">16 levels</text>
</g>
<!-- SG_1_Node_5 -->
<g id="node13" class="node">
<title>SG_1_Node_5</title>
<ellipse fill="none" stroke="black" cx="3769" cy="-37.21" rx="33.88" ry="21.43"/>
<text text-anchor="middle" x="3769" y="-32.21" font-family="Times,serif" font-size="20.00">0.0</text>
</g>
<!-- SG_1_Node_2&#45;&gt;SG_1_Node_5 -->
<g id="edge11" class="edge">
<title>SG_1_Node_2&#45;&gt;SG_1_Node_5</title>
<path fill="none" stroke="black" d="M3809.89,-192.33C3794.35,-186.66 3779.56,-177.91 3770,-164.43 3750.23,-136.52 3754.19,-95.73 3760.3,-68.14"/>
<polygon fill="black" stroke="black" points="3763.74,-68.81 3762.7,-58.27 3756.94,-67.16 3763.74,-68.81"/>
<text text-anchor="middle" x="3956.5" y="-115.43" font-family="Times,serif" font-size="20.00">https://sub.headers.websec.saarland</text>
</g>
<!-- SG_1_Node_6 -->
<g id="node14" class="node">
<title>SG_1_Node_6</title>
<ellipse fill="none" stroke="black" cx="4165" cy="-37.21" rx="33.88" ry="21.43"/>
<text text-anchor="middle" x="4165" y="-32.21" font-family="Times,serif" font-size="20.00">1.0</text>
</g>
<!-- SG_1_Node_2&#45;&gt;SG_1_Node_6 -->
<g id="edge12" class="edge">
<title>SG_1_Node_2&#45;&gt;SG_1_Node_6</title>
<path fill="none" stroke="black" d="M3942.08,-201.8C4011.74,-199.47 4115.19,-191.41 4143,-164.43 4168.2,-139.98 4170.69,-97.7 4168.89,-68.87"/>
<polygon fill="black" stroke="black" points="4172.35,-68.22 4168.03,-58.55 4165.37,-68.8 4172.35,-68.22"/>
<text text-anchor="middle" x="4376.5" y="-148.43" font-family="Times,serif" font-size="20.00">[NA]</text>
<text text-anchor="middle" x="4376.5" y="-126.43" font-family="Times,serif" font-size="20.00">https://headers.webappsec.eu</text>
<text text-anchor="middle" x="4376.5" y="-104.43" font-family="Times,serif" font-size="20.00">https://headers.websec.saarland</text>
<text text-anchor="middle" x="4376.5" y="-82.43" font-family="Times,serif" font-size="20.00">https://sub.sub.headers.websec.saarland</text>
</g>
</g>
</svg>
