<?xml version="1.0" encoding="UTF-8" standalone="no"?>
<!DOCTYPE svg PUBLIC "-//W3C//DTD SVG 1.1//EN"
 "http://www.w3.org/Graphics/SVG/1.1/DTD/svg11.dtd">
<!-- Generated by graphviz version 2.43.0 (0)
 -->
<!-- Title: G Pages: 1 -->
<svg width="1314pt" height="338pt"
 viewBox="0.00 0.00 1314.00 338.43" xmlns="http://www.w3.org/2000/svg" xmlns:xlink="http://www.w3.org/1999/xlink">
<g id="graph0" class="graph" transform="scale(1 1) rotate(0) translate(4 334.43)">
<title>G</title>
<polygon fill="white" stroke="transparent" points="-4,4 -4,-334.43 1310,-334.43 1310,4 -4,4"/>
<g id="clust1" class="cluster">
<title>cluster_0</title>
<polygon fill="none" stroke="black" points="8,-8 8,-322.43 649,-322.43 649,-8 8,-8"/>
<text text-anchor="middle" x="328.5" y="-286.43" font-family="Times,serif" font-size="40.00">Tree 0, Class error</text>
</g>
<g id="clust4" class="cluster">
<title>cluster_1</title>
<polygon fill="none" stroke="black" points="657,-8 657,-322.43 1298,-322.43 1298,-8 657,-8"/>
<text text-anchor="middle" x="977.5" y="-286.43" font-family="Times,serif" font-size="40.00">Tree 0, Class load</text>
</g>
<!-- SG_0_Node_0 -->
<g id="node1" class="node">
<title>SG_0_Node_0</title>
<polygon fill="none" stroke="black" points="157.5,-262.43 56.5,-262.43 56.5,-226.43 157.5,-226.43 157.5,-262.43"/>
<text text-anchor="middle" x="107" y="-239.43" font-family="Times,serif" font-size="20.00">browser</text>
</g>
<!-- SG_0_Node_1 -->
<g id="node2" class="node">
<title>SG_0_Node_1</title>
<ellipse fill="none" stroke="black" cx="50" cy="-37.21" rx="33.88" ry="21.43"/>
<text text-anchor="middle" x="50" y="-32.21" font-family="Times,serif" font-size="20.00">0.0</text>
</g>
<!-- SG_0_Node_0&#45;&gt;SG_0_Node_1 -->
<g id="edge1" class="edge">
<title>SG_0_Node_0&#45;&gt;SG_0_Node_1</title>
<path fill="none" stroke="black" d="M56.34,-229.84C46.31,-224.77 37.03,-217.85 31,-208.43 -0.64,-159.02 17.58,-133.54 31,-76.43 31.76,-73.18 32.84,-69.9 34.11,-66.68"/>
<polygon fill="black" stroke="black" points="37.38,-67.94 38.32,-57.39 31,-65.06 37.38,-67.94"/>
<text text-anchor="middle" x="76.5" y="-148.43" font-family="Times,serif" font-size="20.00">[NA]</text>
<text text-anchor="middle" x="76.5" y="-126.43" font-family="Times,serif" font-size="20.00">13 levels</text>
</g>
<!-- SG_0_Node_2 -->
<g id="node3" class="node">
<title>SG_0_Node_2</title>
<ellipse fill="none" stroke="black" cx="148" cy="-37.21" rx="33.88" ry="21.43"/>
<text text-anchor="middle" x="148" y="-32.21" font-family="Times,serif" font-size="20.00">1.0</text>
</g>
<!-- SG_0_Node_0&#45;&gt;SG_0_Node_2 -->
<g id="edge2" class="edge">
<title>SG_0_Node_0&#45;&gt;SG_0_Node_2</title>
<path fill="none" stroke="black" d="M117.99,-226.19C121.04,-220.7 124.04,-214.48 126,-208.43 141.23,-161.36 145.96,-103.75 147.4,-69.07"/>
<polygon fill="black" stroke="black" points="150.91,-68.77 147.76,-58.65 143.92,-68.53 150.91,-68.77"/>
<text text-anchor="middle" x="393.5" y="-192.43" font-family="Times,serif" font-size="20.00">brave iPadOS 17.2 1.61 (23.12.18.22) intent real</text>
<text text-anchor="middle" x="393.5" y="-170.43" font-family="Times,serif" font-size="20.00">firefox Ubuntu 22.04 119 selenium headless</text>
<text text-anchor="middle" x="393.5" y="-148.43" font-family="Times,serif" font-size="20.00">firefox Ubuntu 22.04 119 selenium xvfb</text>
<text text-anchor="middle" x="393.5" y="-126.43" font-family="Times,serif" font-size="20.00">firefox iPadOS 17.2 121.0 (36782) intent real</text>
<text text-anchor="middle" x="393.5" y="-104.43" font-family="Times,serif" font-size="20.00">firefox_beta Android 11 122.0b1 intent real</text>
<text text-anchor="middle" x="393.5" y="-82.43" font-family="Times,serif" font-size="20.00">operagx iPadOS 17.2 2.2.2 intent real</text>
</g>
<!-- SG_1_Node_0 -->
<g id="node4" class="node">
<title>SG_1_Node_0</title>
<polygon fill="none" stroke="black" points="1007.5,-262.43 906.5,-262.43 906.5,-226.43 1007.5,-226.43 1007.5,-262.43"/>
<text text-anchor="middle" x="957" y="-239.43" font-family="Times,serif" font-size="20.00">browser</text>
</g>
<!-- SG_1_Node_1 -->
<g id="node5" class="node">
<title>SG_1_Node_1</title>
<ellipse fill="none" stroke="black" cx="699" cy="-37.21" rx="33.88" ry="21.43"/>
<text text-anchor="middle" x="699" y="-32.21" font-family="Times,serif" font-size="20.00">0.0</text>
</g>
<!-- SG_1_Node_0&#45;&gt;SG_1_Node_1 -->
<g id="edge3" class="edge">
<title>SG_1_Node_0&#45;&gt;SG_1_Node_1</title>
<path fill="none" stroke="black" d="M906.47,-240.61C830.65,-235.86 694.71,-225.11 680,-208.43 645.61,-169.42 667.07,-104.28 684.13,-66.91"/>
<polygon fill="black" stroke="black" points="687.42,-68.13 688.55,-57.6 681.1,-65.13 687.42,-68.13"/>
<text text-anchor="middle" x="926.5" y="-192.43" font-family="Times,serif" font-size="20.00">brave iPadOS 17.2 1.61 (23.12.18.22) intent real</text>
<text text-anchor="middle" x="926.5" y="-170.43" font-family="Times,serif" font-size="20.00">firefox Ubuntu 22.04 119 selenium headless</text>
<text text-anchor="middle" x="926.5" y="-148.43" font-family="Times,serif" font-size="20.00">firefox Ubuntu 22.04 119 selenium xvfb</text>
<text text-anchor="middle" x="926.5" y="-126.43" font-family="Times,serif" font-size="20.00">firefox iPadOS 17.2 121.0 (36782) intent real</text>
<text text-anchor="middle" x="926.5" y="-104.43" font-family="Times,serif" font-size="20.00">firefox_beta Android 11 122.0b1 intent real</text>
<text text-anchor="middle" x="926.5" y="-82.43" font-family="Times,serif" font-size="20.00">operagx iPadOS 17.2 2.2.2 intent real</text>
</g>
<!-- SG_1_Node_2 -->
<g id="node6" class="node">
<title>SG_1_Node_2</title>
<ellipse fill="none" stroke="black" cx="1199" cy="-37.21" rx="33.88" ry="21.43"/>
<text text-anchor="middle" x="1199" y="-32.21" font-family="Times,serif" font-size="20.00">1.0</text>
</g>
<!-- SG_1_Node_0&#45;&gt;SG_1_Node_2 -->
<g id="edge4" class="edge">
<title>SG_1_Node_0&#45;&gt;SG_1_Node_2</title>
<path fill="none" stroke="black" d="M1007.56,-242.19C1065.12,-239.66 1154.16,-231.94 1177,-208.43 1212.96,-171.4 1210.33,-106.55 1204.87,-68.49"/>
<polygon fill="black" stroke="black" points="1208.31,-67.83 1203.28,-58.5 1201.39,-68.93 1208.31,-67.83"/>
<text text-anchor="middle" x="1253.5" y="-148.43" font-family="Times,serif" font-size="20.00">[NA]</text>
<text text-anchor="middle" x="1253.5" y="-126.43" font-family="Times,serif" font-size="20.00">13 levels</text>
</g>
</g>
</svg>
