<?xml version="1.0" encoding="UTF-8" standalone="no"?>
<!DOCTYPE svg PUBLIC "-//W3C//DTD SVG 1.1//EN"
 "http://www.w3.org/Graphics/SVG/1.1/DTD/svg11.dtd">
<!-- Generated by graphviz version 2.43.0 (0)
 -->
<!-- Title: G Pages: 1 -->
<svg width="1835pt" height="316pt"
 viewBox="0.00 0.00 1835.00 316.43" xmlns="http://www.w3.org/2000/svg" xmlns:xlink="http://www.w3.org/1999/xlink">
<g id="graph0" class="graph" transform="scale(1 1) rotate(0) translate(4 312.43)">
<title>G</title>
<polygon fill="white" stroke="transparent" points="-4,4 -4,-312.43 1831,-312.43 1831,4 -4,4"/>
<g id="clust1" class="cluster">
<title>cluster_0</title>
<polygon fill="none" stroke="black" points="8,-8 8,-300.43 915,-300.43 915,-8 8,-8"/>
<text text-anchor="middle" x="461.5" y="-264.43" font-family="Times,serif" font-size="40.00">Tree 0, Class {&#39;response.redirected&#39;: False}</text>
</g>
<g id="clust4" class="cluster">
<title>cluster_1</title>
<polygon fill="none" stroke="black" points="923,-8 923,-300.43 1819,-300.43 1819,-8 923,-8"/>
<text text-anchor="middle" x="1371" y="-264.43" font-family="Times,serif" font-size="40.00">Tree 0, Class {&#39;response.redirected&#39;: True}</text>
</g>
<!-- SG_0_Node_0 -->
<g id="node1" class="node">
<title>SG_0_Node_0</title>
<polygon fill="none" stroke="black" points="366.5,-240.43 265.5,-240.43 265.5,-204.43 366.5,-204.43 366.5,-240.43"/>
<text text-anchor="middle" x="316" y="-217.43" font-family="Times,serif" font-size="20.00">browser</text>
</g>
<!-- SG_0_Node_1 -->
<g id="node2" class="node">
<title>SG_0_Node_1</title>
<ellipse fill="none" stroke="black" cx="175" cy="-37.21" rx="33.88" ry="21.43"/>
<text text-anchor="middle" x="175" y="-32.21" font-family="Times,serif" font-size="20.00">0.0</text>
</g>
<!-- SG_0_Node_0&#45;&gt;SG_0_Node_1 -->
<g id="edge1" class="edge">
<title>SG_0_Node_0&#45;&gt;SG_0_Node_1</title>
<path fill="none" stroke="black" d="M265.46,-215.33C230.05,-209.91 187.15,-200.61 176,-186.43 149.67,-152.93 156.98,-100.76 165.43,-68.09"/>
<polygon fill="black" stroke="black" points="168.87,-68.78 168.17,-58.21 162.12,-66.91 168.87,-68.78"/>
<text text-anchor="middle" x="422.5" y="-170.43" font-family="Times,serif" font-size="20.00">brave iPadOS 17.2 1.61 (23.12.18.22) intent real</text>
<text text-anchor="middle" x="422.5" y="-148.43" font-family="Times,serif" font-size="20.00">chrome iPadOS 17.2 120.0.6099.119 intent real</text>
<text text-anchor="middle" x="422.5" y="-126.43" font-family="Times,serif" font-size="20.00">edge iPadOS 17.2 120.0.2210.116 intent real</text>
<text text-anchor="middle" x="422.5" y="-104.43" font-family="Times,serif" font-size="20.00">firefox iPadOS 17.2 121.0 (36782) intent real</text>
<text text-anchor="middle" x="422.5" y="-82.43" font-family="Times,serif" font-size="20.00">operagx iPadOS 17.2 2.2.2 intent real</text>
</g>
<!-- SG_0_Node_2 -->
<g id="node3" class="node">
<title>SG_0_Node_2</title>
<ellipse fill="none" stroke="black" cx="691" cy="-37.21" rx="33.88" ry="21.43"/>
<text text-anchor="middle" x="691" y="-32.21" font-family="Times,serif" font-size="20.00">1.0</text>
</g>
<!-- SG_0_Node_0&#45;&gt;SG_0_Node_2 -->
<g id="edge2" class="edge">
<title>SG_0_Node_0&#45;&gt;SG_0_Node_2</title>
<path fill="none" stroke="black" d="M366.78,-219.79C459.25,-216.33 647.57,-206.84 669,-186.43 700.44,-156.47 700.23,-102.56 696.28,-68.67"/>
<polygon fill="black" stroke="black" points="699.71,-67.87 694.9,-58.43 692.77,-68.81 699.71,-67.87"/>
<text text-anchor="middle" x="743.5" y="-137.43" font-family="Times,serif" font-size="20.00">[NA]</text>
<text text-anchor="middle" x="743.5" y="-115.43" font-family="Times,serif" font-size="20.00">14 levels</text>
</g>
<!-- SG_1_Node_0 -->
<g id="node4" class="node">
<title>SG_1_Node_0</title>
<polygon fill="none" stroke="black" points="1080.5,-240.43 979.5,-240.43 979.5,-204.43 1080.5,-204.43 1080.5,-240.43"/>
<text text-anchor="middle" x="1030" y="-217.43" font-family="Times,serif" font-size="20.00">browser</text>
</g>
<!-- SG_1_Node_1 -->
<g id="node5" class="node">
<title>SG_1_Node_1</title>
<ellipse fill="none" stroke="black" cx="997" cy="-37.21" rx="33.88" ry="21.43"/>
<text text-anchor="middle" x="997" y="-32.21" font-family="Times,serif" font-size="20.00">0.0</text>
</g>
<!-- SG_1_Node_0&#45;&gt;SG_1_Node_1 -->
<g id="edge3" class="edge">
<title>SG_1_Node_0&#45;&gt;SG_1_Node_1</title>
<path fill="none" stroke="black" d="M1009.83,-204.34C1005.04,-199.13 1000.58,-193.02 998,-186.43 982.96,-148.07 986.34,-99.71 990.99,-68.87"/>
<polygon fill="black" stroke="black" points="994.48,-69.17 992.65,-58.73 987.58,-68.03 994.48,-69.17"/>
<text text-anchor="middle" x="1043.5" y="-137.43" font-family="Times,serif" font-size="20.00">[NA]</text>
<text text-anchor="middle" x="1043.5" y="-115.43" font-family="Times,serif" font-size="20.00">14 levels</text>
</g>
<!-- SG_1_Node_2 -->
<g id="node6" class="node">
<title>SG_1_Node_2</title>
<ellipse fill="none" stroke="black" cx="1111" cy="-37.21" rx="33.88" ry="21.43"/>
<text text-anchor="middle" x="1111" y="-32.21" font-family="Times,serif" font-size="20.00">1.0</text>
</g>
<!-- SG_1_Node_0&#45;&gt;SG_1_Node_2 -->
<g id="edge4" class="edge">
<title>SG_1_Node_0&#45;&gt;SG_1_Node_2</title>
<path fill="none" stroke="black" d="M1069.91,-204.41C1077.27,-199.59 1084.15,-193.64 1089,-186.43 1112.65,-151.21 1115.1,-100.72 1113.76,-68.71"/>
<polygon fill="black" stroke="black" points="1117.24,-68.39 1113.18,-58.61 1110.26,-68.79 1117.24,-68.39"/>
<text text-anchor="middle" x="1360.5" y="-170.43" font-family="Times,serif" font-size="20.00">brave iPadOS 17.2 1.61 (23.12.18.22) intent real</text>
<text text-anchor="middle" x="1360.5" y="-148.43" font-family="Times,serif" font-size="20.00">chrome iPadOS 17.2 120.0.6099.119 intent real</text>
<text text-anchor="middle" x="1360.5" y="-126.43" font-family="Times,serif" font-size="20.00">edge iPadOS 17.2 120.0.2210.116 intent real</text>
<text text-anchor="middle" x="1360.5" y="-104.43" font-family="Times,serif" font-size="20.00">firefox iPadOS 17.2 121.0 (36782) intent real</text>
<text text-anchor="middle" x="1360.5" y="-82.43" font-family="Times,serif" font-size="20.00">operagx iPadOS 17.2 2.2.2 intent real</text>
</g>
</g>
</svg>
