<?xml version="1.0" encoding="UTF-8" standalone="no"?>
<!DOCTYPE svg PUBLIC "-//W3C//DTD SVG 1.1//EN"
 "http://www.w3.org/Graphics/SVG/1.1/DTD/svg11.dtd">
<!-- Generated by graphviz version 2.43.0 (0)
 -->
<!-- Title: G Pages: 1 -->
<svg width="4592pt" height="1114pt"
 viewBox="0.00 0.00 4592.00 1114.13" xmlns="http://www.w3.org/2000/svg" xmlns:xlink="http://www.w3.org/1999/xlink">
<g id="graph0" class="graph" transform="scale(1 1) rotate(0) translate(4 1110.13)">
<title>G</title>
<polygon fill="white" stroke="transparent" points="-4,4 -4,-1110.13 4588,-1110.13 4588,4 -4,4"/>
<g id="clust1" class="cluster">
<title>cluster_0</title>
<polygon fill="none" stroke="black" points="8,-8 8,-1098.13 2288,-1098.13 2288,-8 8,-8"/>
<text text-anchor="middle" x="1148" y="-1062.13" font-family="Times,serif" font-size="40.00">Tree 0, Class {&#39;window.open.opener&#39;: &#39;null&#39;}</text>
</g>
<g id="clust8" class="cluster">
<title>cluster_1</title>
<polygon fill="none" stroke="black" points="2296,-8 2296,-1098.13 4576,-1098.13 4576,-8 2296,-8"/>
<text text-anchor="middle" x="3436" y="-1062.13" font-family="Times,serif" font-size="40.00">Tree 0, Class {&#39;window.open.opener&#39;: &#39;object [object Window]&#39;}</text>
</g>
<!-- SG_0_Node_0 -->
<g id="node1" class="node">
<title>SG_0_Node_0</title>
<polygon fill="none" stroke="black" points="563.5,-1038.13 426.5,-1038.13 426.5,-1002.13 563.5,-1002.13 563.5,-1038.13"/>
<text text-anchor="middle" x="495" y="-1015.13" font-family="Times,serif" font-size="20.00">raw_header</text>
</g>
<!-- SG_0_Node_5 -->
<g id="node2" class="node">
<title>SG_0_Node_5</title>
<ellipse fill="none" stroke="black" cx="50" cy="-768.92" rx="33.88" ry="21.43"/>
<text text-anchor="middle" x="50" y="-763.92" font-family="Times,serif" font-size="20.00">0.0</text>
</g>
<!-- SG_0_Node_0&#45;&gt;SG_0_Node_5 -->
<g id="edge1" class="edge">
<title>SG_0_Node_0&#45;&gt;SG_0_Node_5</title>
<path fill="none" stroke="black" d="M426.49,-1018.99C303.89,-1018.01 57.3,-1012.49 31,-984.13 -22.19,-926.78 13.11,-884.28 31,-808.13 31.76,-804.89 32.84,-801.6 34.11,-798.39"/>
<polygon fill="black" stroke="black" points="37.38,-799.65 38.32,-789.1 31,-796.76 37.38,-799.65"/>
<text text-anchor="middle" x="455" y="-968.13" font-family="Times,serif" font-size="20.00">[NA]</text>
<text text-anchor="middle" x="455" y="-946.13" font-family="Times,serif" font-size="20.00">[[&#39;Cross&#45;Origin&#45;Opener&#45;Policy&#39;, &#39;&#39;]]</text>
<text text-anchor="middle" x="455" y="-924.13" font-family="Times,serif" font-size="20.00">[[&#39;Cross&#45;Origin&#45;Opener&#45;Policy&#39;, &#39;*&#39;]]</text>
<text text-anchor="middle" x="455" y="-902.13" font-family="Times,serif" font-size="20.00">[[&#39;Cross&#45;Origin&#45;Opener&#45;Policy&#39;, &#39;null&#39;]]</text>
<text text-anchor="middle" x="455" y="-880.13" font-family="Times,serif" font-size="20.00">[[&#39;Cross&#45;Origin&#45;Opener&#45;Policy&#39;, &#39;same&#45;origin&#45;plus&#45;COEP&#39;]]</text>
<text text-anchor="middle" x="455" y="-858.13" font-family="Times,serif" font-size="20.00">[[&#39;Cross&#45;Origin&#45;Opener&#45;Policy&#39;, &#39;unsafe&#45;none&#39;]]</text>
<text text-anchor="middle" x="455" y="-836.13" font-family="Times,serif" font-size="20.00">[[&#39;Cross&#45;Origin&#45;Opener&#45;Policy&#39;, &#39;unsafe&#45;none, same&#45;origin, same&#45;origin&#45;plus&#45;COEP&#39;]]</text>
<text text-anchor="middle" x="455" y="-814.13" font-family="Times,serif" font-size="20.00">[]</text>
</g>
<!-- SG_0_Node_1 -->
<g id="node3" class="node">
<title>SG_0_Node_1</title>
<polygon fill="none" stroke="black" points="971,-786.92 839,-786.92 839,-750.92 971,-750.92 971,-786.92"/>
<text text-anchor="middle" x="905" y="-763.92" font-family="Times,serif" font-size="20.00">resp_origin</text>
</g>
<!-- SG_0_Node_0&#45;&gt;SG_0_Node_1 -->
<g id="edge2" class="edge">
<title>SG_0_Node_0&#45;&gt;SG_0_Node_1</title>
<path fill="none" stroke="black" d="M563.7,-1017.6C669.07,-1014.56 860.8,-1006.05 883,-984.13 908.76,-958.69 908.13,-849.09 906.3,-797.27"/>
<polygon fill="black" stroke="black" points="909.79,-796.99 905.9,-787.14 902.8,-797.27 909.79,-796.99"/>
<text text-anchor="middle" x="1594.5" y="-924.13" font-family="Times,serif" font-size="20.00">[[&#39;Cross&#45;Origin&#45;Opener&#45;Policy&#39;, &#39;same&#45;origin&#39;], [&#39;location&#39;, &#39;https://sub.headers.websec.saarland/_hp/common/empty.html&#39;]]</text>
<text text-anchor="middle" x="1594.5" y="-902.13" font-family="Times,serif" font-size="20.00">[[&#39;Cross&#45;Origin&#45;Opener&#45;Policy&#39;, &#39;same&#45;origin&#39;]]</text>
<text text-anchor="middle" x="1594.5" y="-880.13" font-family="Times,serif" font-size="20.00">[[&#39;Cross&#45;Origin&#45;Opener&#45;Policy&#39;, &#39;same&#45;origin&#45;allow&#45;popups&#39;], [&#39;location&#39;, &#39;https://sub.headers.websec.saarland/_hp/common/empty.html&#39;]]</text>
<text text-anchor="middle" x="1594.5" y="-858.13" font-family="Times,serif" font-size="20.00">[[&#39;Cross&#45;Origin&#45;Opener&#45;Policy&#39;, &#39;same&#45;origin&#45;allow&#45;popups&#39;]]</text>
</g>
<!-- SG_0_Node_2 -->
<g id="node4" class="node">
<title>SG_0_Node_2</title>
<polygon fill="none" stroke="black" points="699.5,-598.49 598.5,-598.49 598.5,-562.49 699.5,-562.49 699.5,-598.49"/>
<text text-anchor="middle" x="649" y="-575.49" font-family="Times,serif" font-size="20.00">browser</text>
</g>
<!-- SG_0_Node_1&#45;&gt;SG_0_Node_2 -->
<g id="edge3" class="edge">
<title>SG_0_Node_1&#45;&gt;SG_0_Node_2</title>
<path fill="none" stroke="black" d="M838.75,-767.61C770.41,-765.71 670.43,-758 646,-729.71 617.17,-696.31 628.3,-641.17 638.8,-608.39"/>
<polygon fill="black" stroke="black" points="642.22,-609.18 642.13,-598.59 635.6,-606.93 642.22,-609.18"/>
<text text-anchor="middle" x="848.5" y="-702.71" font-family="Times,serif" font-size="20.00">http://headers.webappsec.eu</text>
<text text-anchor="middle" x="848.5" y="-680.71" font-family="Times,serif" font-size="20.00">http://headers.websec.saarland</text>
<text text-anchor="middle" x="848.5" y="-658.71" font-family="Times,serif" font-size="20.00">http://sub.headers.websec.saarland</text>
<text text-anchor="middle" x="848.5" y="-636.71" font-family="Times,serif" font-size="20.00">http://sub.sub.headers.websec.saarland</text>
</g>
<!-- SG_0_Node_6 -->
<g id="node5" class="node">
<title>SG_0_Node_6</title>
<ellipse fill="none" stroke="black" cx="1077" cy="-580.49" rx="33.88" ry="21.43"/>
<text text-anchor="middle" x="1077" y="-575.49" font-family="Times,serif" font-size="20.00">1.0</text>
</g>
<!-- SG_0_Node_1&#45;&gt;SG_0_Node_6 -->
<g id="edge4" class="edge">
<title>SG_0_Node_1&#45;&gt;SG_0_Node_6</title>
<path fill="none" stroke="black" d="M971.36,-758.39C1005.97,-752.03 1043.47,-742.47 1055,-729.71 1083.94,-697.65 1084.6,-644.83 1081.48,-611.66"/>
<polygon fill="black" stroke="black" points="1084.95,-611.19 1080.37,-601.64 1077.99,-611.96 1084.95,-611.19"/>
<text text-anchor="middle" x="1289.5" y="-713.71" font-family="Times,serif" font-size="20.00">[NA]</text>
<text text-anchor="middle" x="1289.5" y="-691.71" font-family="Times,serif" font-size="20.00">https://headers.webappsec.eu</text>
<text text-anchor="middle" x="1289.5" y="-669.71" font-family="Times,serif" font-size="20.00">https://headers.websec.saarland</text>
<text text-anchor="middle" x="1289.5" y="-647.71" font-family="Times,serif" font-size="20.00">https://sub.headers.websec.saarland</text>
<text text-anchor="middle" x="1289.5" y="-625.71" font-family="Times,serif" font-size="20.00">https://sub.sub.headers.websec.saarland</text>
</g>
<!-- SG_0_Node_7 -->
<g id="node6" class="node">
<title>SG_0_Node_7</title>
<ellipse fill="none" stroke="black" cx="592" cy="-326.07" rx="33.88" ry="21.43"/>
<text text-anchor="middle" x="592" y="-321.07" font-family="Times,serif" font-size="20.00">0.0</text>
</g>
<!-- SG_0_Node_2&#45;&gt;SG_0_Node_7 -->
<g id="edge5" class="edge">
<title>SG_0_Node_2&#45;&gt;SG_0_Node_7</title>
<path fill="none" stroke="black" d="M614.71,-562.48C606.85,-556.87 599.49,-549.82 595,-541.28 563.87,-482.14 574.96,-400.49 584.34,-357.06"/>
<polygon fill="black" stroke="black" points="587.8,-357.66 586.6,-347.13 580.97,-356.1 587.8,-357.66"/>
<text text-anchor="middle" x="640.5" y="-459.28" font-family="Times,serif" font-size="20.00">[NA]</text>
<text text-anchor="middle" x="640.5" y="-437.28" font-family="Times,serif" font-size="20.00">11 levels</text>
</g>
<!-- SG_0_Node_3 -->
<g id="node7" class="node">
<title>SG_0_Node_3</title>
<polygon fill="none" stroke="black" points="776,-344.07 644,-344.07 644,-308.07 776,-308.07 776,-344.07"/>
<text text-anchor="middle" x="710" y="-321.07" font-family="Times,serif" font-size="20.00">resp_origin</text>
</g>
<!-- SG_0_Node_2&#45;&gt;SG_0_Node_3 -->
<g id="edge6" class="edge">
<title>SG_0_Node_2&#45;&gt;SG_0_Node_3</title>
<path fill="none" stroke="black" d="M670.25,-562.39C676.33,-556.37 682.3,-549.13 686,-541.28 715.21,-479.31 714.91,-396.43 712.38,-354.23"/>
<polygon fill="black" stroke="black" points="715.86,-353.91 711.68,-344.18 708.88,-354.4 715.86,-353.91"/>
<text text-anchor="middle" x="1072.5" y="-525.28" font-family="Times,serif" font-size="20.00">brave Ubuntu 22.04 1.59.120 (118.0.5993.88) selenium headless&#45;new</text>
<text text-anchor="middle" x="1072.5" y="-503.28" font-family="Times,serif" font-size="20.00">brave Ubuntu 22.04 1.59.120 (118.0.5993.88) selenium xvfb</text>
<text text-anchor="middle" x="1072.5" y="-481.28" font-family="Times,serif" font-size="20.00">brave Ubuntu 22.04 1.60.114 (119.0.6045.124) selenium headless&#45;new</text>
<text text-anchor="middle" x="1072.5" y="-459.28" font-family="Times,serif" font-size="20.00">brave Ubuntu 22.04 1.60.114 (119.0.6045.124) selenium xvfb</text>
<text text-anchor="middle" x="1072.5" y="-437.28" font-family="Times,serif" font-size="20.00">brave macOS 14.0 1.60.118 (119.0.6045.163) selenium headless&#45;new</text>
<text text-anchor="middle" x="1072.5" y="-415.28" font-family="Times,serif" font-size="20.00">brave macOS 14.0 1.60.118 (119.0.6045.163) selenium real</text>
<text text-anchor="middle" x="1072.5" y="-393.28" font-family="Times,serif" font-size="20.00">chrome Ubuntu 22.04 119 selenium headless&#45;new</text>
<text text-anchor="middle" x="1072.5" y="-371.28" font-family="Times,serif" font-size="20.00">chrome Ubuntu 22.04 119 selenium xvfb</text>
</g>
<!-- SG_0_Node_4 -->
<g id="node8" class="node">
<title>SG_0_Node_4</title>
<polygon fill="none" stroke="black" points="441,-177.64 319,-177.64 319,-141.64 441,-141.64 441,-177.64"/>
<text text-anchor="middle" x="380" y="-154.64" font-family="Times,serif" font-size="20.00">org_origin</text>
</g>
<!-- SG_0_Node_3&#45;&gt;SG_0_Node_4 -->
<g id="edge7" class="edge">
<title>SG_0_Node_3&#45;&gt;SG_0_Node_4</title>
<path fill="none" stroke="black" d="M650.87,-308C645.53,-306.8 640.19,-305.72 635,-304.85 606.66,-300.09 396.6,-307.87 377,-286.85 352.5,-260.59 360.6,-216.23 369.6,-187.71"/>
<polygon fill="black" stroke="black" points="373,-188.57 372.89,-177.98 366.37,-186.32 373,-188.57"/>
<text text-anchor="middle" x="558.5" y="-237.85" font-family="Times,serif" font-size="20.00">http://sub.headers.websec.saarland</text>
</g>
<!-- SG_0_Node_8 -->
<g id="node9" class="node">
<title>SG_0_Node_8</title>
<ellipse fill="none" stroke="black" cx="766" cy="-159.64" rx="33.88" ry="21.43"/>
<text text-anchor="middle" x="766" y="-154.64" font-family="Times,serif" font-size="20.00">1.0</text>
</g>
<!-- SG_0_Node_3&#45;&gt;SG_0_Node_8 -->
<g id="edge8" class="edge">
<title>SG_0_Node_3&#45;&gt;SG_0_Node_8</title>
<path fill="none" stroke="black" d="M728.9,-307.94C734.59,-301.82 740.29,-294.53 744,-286.85 758.71,-256.4 763.7,-217.6 765.34,-191.11"/>
<polygon fill="black" stroke="black" points="768.84,-191.07 765.84,-180.91 761.85,-190.73 768.84,-191.07"/>
<text text-anchor="middle" x="966.5" y="-259.85" font-family="Times,serif" font-size="20.00">http://headers.webappsec.eu</text>
<text text-anchor="middle" x="966.5" y="-237.85" font-family="Times,serif" font-size="20.00">http://headers.websec.saarland</text>
<text text-anchor="middle" x="966.5" y="-215.85" font-family="Times,serif" font-size="20.00">http://sub.sub.headers.websec.saarland</text>
</g>
<!-- SG_0_Node_9 -->
<g id="node10" class="node">
<title>SG_0_Node_9</title>
<ellipse fill="none" stroke="black" cx="215" cy="-37.21" rx="33.88" ry="21.43"/>
<text text-anchor="middle" x="215" y="-32.21" font-family="Times,serif" font-size="20.00">0.0</text>
</g>
<!-- SG_0_Node_4&#45;&gt;SG_0_Node_9 -->
<g id="edge9" class="edge">
<title>SG_0_Node_4&#45;&gt;SG_0_Node_9</title>
<path fill="none" stroke="black" d="M318.7,-152.22C277.7,-146.52 228.96,-136.55 216,-120.43 204.45,-106.05 204.3,-85.25 206.99,-68.17"/>
<polygon fill="black" stroke="black" points="210.47,-68.59 208.95,-58.1 203.6,-67.25 210.47,-68.59"/>
<text text-anchor="middle" x="397.5" y="-93.43" font-family="Times,serif" font-size="20.00">http://sub.headers.websec.saarland</text>
</g>
<!-- SG_0_Node_10 -->
<g id="node11" class="node">
<title>SG_0_Node_10</title>
<ellipse fill="none" stroke="black" cx="601" cy="-37.21" rx="33.88" ry="21.43"/>
<text text-anchor="middle" x="601" y="-32.21" font-family="Times,serif" font-size="20.00">1.0</text>
</g>
<!-- SG_0_Node_4&#45;&gt;SG_0_Node_10 -->
<g id="edge10" class="edge">
<title>SG_0_Node_4&#45;&gt;SG_0_Node_10</title>
<path fill="none" stroke="black" d="M441.15,-153.96C492.07,-148.83 559.3,-138.76 579,-120.43 593.06,-107.34 598.52,-86.34 600.48,-68.84"/>
<polygon fill="black" stroke="black" points="604,-68.74 601.29,-58.5 597.02,-68.19 604,-68.74"/>
<text text-anchor="middle" x="785.5" y="-104.43" font-family="Times,serif" font-size="20.00">[NA]</text>
<text text-anchor="middle" x="785.5" y="-82.43" font-family="Times,serif" font-size="20.00">https://sub.headers.websec.saarland</text>
</g>
<!-- SG_1_Node_0 -->
<g id="node12" class="node">
<title>SG_1_Node_0</title>
<polygon fill="none" stroke="black" points="3114.5,-1038.13 2977.5,-1038.13 2977.5,-1002.13 3114.5,-1002.13 3114.5,-1038.13"/>
<text text-anchor="middle" x="3046" y="-1015.13" font-family="Times,serif" font-size="20.00">raw_header</text>
</g>
<!-- SG_1_Node_1 -->
<g id="node13" class="node">
<title>SG_1_Node_1</title>
<polygon fill="none" stroke="black" points="2436,-786.92 2304,-786.92 2304,-750.92 2436,-750.92 2436,-786.92"/>
<text text-anchor="middle" x="2370" y="-763.92" font-family="Times,serif" font-size="20.00">resp_origin</text>
</g>
<!-- SG_1_Node_0&#45;&gt;SG_1_Node_1 -->
<g id="edge11" class="edge">
<title>SG_1_Node_0&#45;&gt;SG_1_Node_1</title>
<path fill="none" stroke="black" d="M2977.49,-1018.36C2800.74,-1016.04 2341.5,-1007.74 2319,-984.13 2292.02,-955.82 2301.5,-843.11 2319,-808.13 2321.7,-802.74 2325.55,-797.92 2329.95,-793.66"/>
<polygon fill="black" stroke="black" points="2332.4,-796.17 2337.77,-787.03 2327.88,-790.83 2332.4,-796.17"/>
<text text-anchor="middle" x="3006.5" y="-924.13" font-family="Times,serif" font-size="20.00">[[&#39;Cross&#45;Origin&#45;Opener&#45;Policy&#39;, &#39;same&#45;origin&#39;], [&#39;location&#39;, &#39;https://sub.headers.websec.saarland/_hp/common/empty.html&#39;]]</text>
<text text-anchor="middle" x="3006.5" y="-902.13" font-family="Times,serif" font-size="20.00">[[&#39;Cross&#45;Origin&#45;Opener&#45;Policy&#39;, &#39;same&#45;origin&#39;]]</text>
<text text-anchor="middle" x="3006.5" y="-880.13" font-family="Times,serif" font-size="20.00">[[&#39;Cross&#45;Origin&#45;Opener&#45;Policy&#39;, &#39;same&#45;origin&#45;allow&#45;popups&#39;], [&#39;location&#39;, &#39;https://sub.headers.websec.saarland/_hp/common/empty.html&#39;]]</text>
<text text-anchor="middle" x="3006.5" y="-858.13" font-family="Times,serif" font-size="20.00">[[&#39;Cross&#45;Origin&#45;Opener&#45;Policy&#39;, &#39;same&#45;origin&#45;allow&#45;popups&#39;]]</text>
</g>
<!-- SG_1_Node_5 -->
<g id="node14" class="node">
<title>SG_1_Node_5</title>
<ellipse fill="none" stroke="black" cx="3720" cy="-768.92" rx="33.88" ry="21.43"/>
<text text-anchor="middle" x="3720" y="-763.92" font-family="Times,serif" font-size="20.00">1.0</text>
</g>
<!-- SG_1_Node_0&#45;&gt;SG_1_Node_5 -->
<g id="edge12" class="edge">
<title>SG_1_Node_0&#45;&gt;SG_1_Node_5</title>
<path fill="none" stroke="black" d="M3114.68,-1017.82C3277.93,-1014.39 3677.13,-1004.01 3698,-984.13 3747.83,-936.67 3737.38,-846.71 3727.57,-799.9"/>
<polygon fill="black" stroke="black" points="3730.97,-799.06 3725.38,-790.06 3724.13,-800.58 3730.97,-799.06"/>
<text text-anchor="middle" x="4159" y="-968.13" font-family="Times,serif" font-size="20.00">[NA]</text>
<text text-anchor="middle" x="4159" y="-946.13" font-family="Times,serif" font-size="20.00">[[&#39;Cross&#45;Origin&#45;Opener&#45;Policy&#39;, &#39;&#39;]]</text>
<text text-anchor="middle" x="4159" y="-924.13" font-family="Times,serif" font-size="20.00">[[&#39;Cross&#45;Origin&#45;Opener&#45;Policy&#39;, &#39;*&#39;]]</text>
<text text-anchor="middle" x="4159" y="-902.13" font-family="Times,serif" font-size="20.00">[[&#39;Cross&#45;Origin&#45;Opener&#45;Policy&#39;, &#39;null&#39;]]</text>
<text text-anchor="middle" x="4159" y="-880.13" font-family="Times,serif" font-size="20.00">[[&#39;Cross&#45;Origin&#45;Opener&#45;Policy&#39;, &#39;same&#45;origin&#45;plus&#45;COEP&#39;]]</text>
<text text-anchor="middle" x="4159" y="-858.13" font-family="Times,serif" font-size="20.00">[[&#39;Cross&#45;Origin&#45;Opener&#45;Policy&#39;, &#39;unsafe&#45;none&#39;]]</text>
<text text-anchor="middle" x="4159" y="-836.13" font-family="Times,serif" font-size="20.00">[[&#39;Cross&#45;Origin&#45;Opener&#45;Policy&#39;, &#39;unsafe&#45;none, same&#45;origin, same&#45;origin&#45;plus&#45;COEP&#39;]]</text>
<text text-anchor="middle" x="4159" y="-814.13" font-family="Times,serif" font-size="20.00">[]</text>
</g>
<!-- SG_1_Node_6 -->
<g id="node15" class="node">
<title>SG_1_Node_6</title>
<ellipse fill="none" stroke="black" cx="2354" cy="-580.49" rx="33.88" ry="21.43"/>
<text text-anchor="middle" x="2354" y="-575.49" font-family="Times,serif" font-size="20.00">0.0</text>
</g>
<!-- SG_1_Node_1&#45;&gt;SG_1_Node_6 -->
<g id="edge13" class="edge">
<title>SG_1_Node_1&#45;&gt;SG_1_Node_6</title>
<path fill="none" stroke="black" d="M2361.74,-750.82C2359.04,-744.36 2356.38,-736.84 2355,-729.71 2347.28,-689.65 2348.74,-642.37 2350.97,-612.17"/>
<polygon fill="black" stroke="black" points="2354.48,-612.11 2351.81,-601.86 2347.51,-611.54 2354.48,-612.11"/>
<text text-anchor="middle" x="2562.5" y="-702.71" font-family="Times,serif" font-size="20.00">https://headers.webappsec.eu</text>
<text text-anchor="middle" x="2562.5" y="-680.71" font-family="Times,serif" font-size="20.00">https://headers.websec.saarland</text>
<text text-anchor="middle" x="2562.5" y="-658.71" font-family="Times,serif" font-size="20.00">https://sub.headers.websec.saarland</text>
<text text-anchor="middle" x="2562.5" y="-636.71" font-family="Times,serif" font-size="20.00">https://sub.sub.headers.websec.saarland</text>
</g>
<!-- SG_1_Node_2 -->
<g id="node16" class="node">
<title>SG_1_Node_2</title>
<polygon fill="none" stroke="black" points="2842.5,-598.49 2741.5,-598.49 2741.5,-562.49 2842.5,-562.49 2842.5,-598.49"/>
<text text-anchor="middle" x="2792" y="-575.49" font-family="Times,serif" font-size="20.00">browser</text>
</g>
<!-- SG_1_Node_1&#45;&gt;SG_1_Node_2 -->
<g id="edge14" class="edge">
<title>SG_1_Node_1&#45;&gt;SG_1_Node_2</title>
<path fill="none" stroke="black" d="M2436.36,-765.98C2543.82,-762.2 2746.35,-752.16 2770,-729.71 2802.52,-698.84 2801.22,-642.36 2796.9,-608.74"/>
<polygon fill="black" stroke="black" points="2800.34,-608.08 2795.43,-598.69 2793.42,-609.09 2800.34,-608.08"/>
<text text-anchor="middle" x="3001.5" y="-713.71" font-family="Times,serif" font-size="20.00">[NA]</text>
<text text-anchor="middle" x="3001.5" y="-691.71" font-family="Times,serif" font-size="20.00">http://headers.webappsec.eu</text>
<text text-anchor="middle" x="3001.5" y="-669.71" font-family="Times,serif" font-size="20.00">http://headers.websec.saarland</text>
<text text-anchor="middle" x="3001.5" y="-647.71" font-family="Times,serif" font-size="20.00">http://sub.headers.websec.saarland</text>
<text text-anchor="middle" x="3001.5" y="-625.71" font-family="Times,serif" font-size="20.00">http://sub.sub.headers.websec.saarland</text>
</g>
<!-- SG_1_Node_3 -->
<g id="node17" class="node">
<title>SG_1_Node_3</title>
<polygon fill="none" stroke="black" points="2634,-344.07 2502,-344.07 2502,-308.07 2634,-308.07 2634,-344.07"/>
<text text-anchor="middle" x="2568" y="-321.07" font-family="Times,serif" font-size="20.00">resp_origin</text>
</g>
<!-- SG_1_Node_2&#45;&gt;SG_1_Node_3 -->
<g id="edge15" class="edge">
<title>SG_1_Node_2&#45;&gt;SG_1_Node_3</title>
<path fill="none" stroke="black" d="M2741.49,-578.11C2682.65,-575.32 2590.68,-566.87 2569,-541.28 2524.06,-488.23 2544.22,-398.43 2558.37,-353.84"/>
<polygon fill="black" stroke="black" points="2561.71,-354.88 2561.53,-344.28 2555.07,-352.68 2561.71,-354.88"/>
<text text-anchor="middle" x="2928.5" y="-525.28" font-family="Times,serif" font-size="20.00">brave Ubuntu 22.04 1.59.120 (118.0.5993.88) selenium headless&#45;new</text>
<text text-anchor="middle" x="2928.5" y="-503.28" font-family="Times,serif" font-size="20.00">brave Ubuntu 22.04 1.59.120 (118.0.5993.88) selenium xvfb</text>
<text text-anchor="middle" x="2928.5" y="-481.28" font-family="Times,serif" font-size="20.00">brave Ubuntu 22.04 1.60.114 (119.0.6045.124) selenium headless&#45;new</text>
<text text-anchor="middle" x="2928.5" y="-459.28" font-family="Times,serif" font-size="20.00">brave Ubuntu 22.04 1.60.114 (119.0.6045.124) selenium xvfb</text>
<text text-anchor="middle" x="2928.5" y="-437.28" font-family="Times,serif" font-size="20.00">brave macOS 14.0 1.60.118 (119.0.6045.163) selenium headless&#45;new</text>
<text text-anchor="middle" x="2928.5" y="-415.28" font-family="Times,serif" font-size="20.00">brave macOS 14.0 1.60.118 (119.0.6045.163) selenium real</text>
<text text-anchor="middle" x="2928.5" y="-393.28" font-family="Times,serif" font-size="20.00">chrome Ubuntu 22.04 119 selenium headless&#45;new</text>
<text text-anchor="middle" x="2928.5" y="-371.28" font-family="Times,serif" font-size="20.00">chrome Ubuntu 22.04 119 selenium xvfb</text>
</g>
<!-- SG_1_Node_7 -->
<g id="node18" class="node">
<title>SG_1_Node_7</title>
<ellipse fill="none" stroke="black" cx="3310" cy="-326.07" rx="33.88" ry="21.43"/>
<text text-anchor="middle" x="3310" y="-321.07" font-family="Times,serif" font-size="20.00">1.0</text>
</g>
<!-- SG_1_Node_2&#45;&gt;SG_1_Node_7 -->
<g id="edge16" class="edge">
<title>SG_1_Node_2&#45;&gt;SG_1_Node_7</title>
<path fill="none" stroke="black" d="M2842.94,-579.19C2963.12,-577.98 3256.61,-571.88 3288,-541.28 3337.28,-493.24 3327.06,-403.53 3317.43,-356.91"/>
<polygon fill="black" stroke="black" points="3320.85,-356.13 3315.29,-347.11 3314.01,-357.63 3320.85,-356.13"/>
<text text-anchor="middle" x="3370.5" y="-459.28" font-family="Times,serif" font-size="20.00">[NA]</text>
<text text-anchor="middle" x="3370.5" y="-437.28" font-family="Times,serif" font-size="20.00">11 levels</text>
</g>
<!-- SG_1_Node_8 -->
<g id="node19" class="node">
<title>SG_1_Node_8</title>
<ellipse fill="none" stroke="black" cx="2453" cy="-159.64" rx="33.88" ry="21.43"/>
<text text-anchor="middle" x="2453" y="-154.64" font-family="Times,serif" font-size="20.00">0.0</text>
</g>
<!-- SG_1_Node_3&#45;&gt;SG_1_Node_8 -->
<g id="edge17" class="edge">
<title>SG_1_Node_3&#45;&gt;SG_1_Node_8</title>
<path fill="none" stroke="black" d="M2501.77,-317.34C2483.37,-311.8 2465.34,-302.48 2454,-286.85 2433.92,-259.17 2437.95,-218.34 2444.16,-190.67"/>
<polygon fill="black" stroke="black" points="2447.6,-191.31 2446.6,-180.77 2440.81,-189.64 2447.6,-191.31"/>
<text text-anchor="middle" x="2656.5" y="-270.85" font-family="Times,serif" font-size="20.00">[NA]</text>
<text text-anchor="middle" x="2656.5" y="-248.85" font-family="Times,serif" font-size="20.00">http://headers.webappsec.eu</text>
<text text-anchor="middle" x="2656.5" y="-226.85" font-family="Times,serif" font-size="20.00">http://headers.websec.saarland</text>
<text text-anchor="middle" x="2656.5" y="-204.85" font-family="Times,serif" font-size="20.00">http://sub.sub.headers.websec.saarland</text>
</g>
<!-- SG_1_Node_4 -->
<g id="node20" class="node">
<title>SG_1_Node_4</title>
<polygon fill="none" stroke="black" points="2942,-177.64 2820,-177.64 2820,-141.64 2942,-141.64 2942,-177.64"/>
<text text-anchor="middle" x="2881" y="-154.64" font-family="Times,serif" font-size="20.00">org_origin</text>
</g>
<!-- SG_1_Node_3&#45;&gt;SG_1_Node_4 -->
<g id="edge18" class="edge">
<title>SG_1_Node_3&#45;&gt;SG_1_Node_4</title>
<path fill="none" stroke="black" d="M2634.21,-325.17C2710.02,-323.82 2827.78,-316.78 2859,-286.85 2885.34,-261.6 2886.95,-216.89 2884.72,-188.02"/>
<polygon fill="black" stroke="black" points="2888.18,-187.42 2883.72,-177.81 2881.21,-188.1 2888.18,-187.42"/>
<text text-anchor="middle" x="3066.5" y="-237.85" font-family="Times,serif" font-size="20.00">http://sub.headers.websec.saarland</text>
</g>
<!-- SG_1_Node_9 -->
<g id="node21" class="node">
<title>SG_1_Node_9</title>
<ellipse fill="none" stroke="black" cx="2683" cy="-37.21" rx="33.88" ry="21.43"/>
<text text-anchor="middle" x="2683" y="-32.21" font-family="Times,serif" font-size="20.00">0.0</text>
</g>
<!-- SG_1_Node_4&#45;&gt;SG_1_Node_9 -->
<g id="edge19" class="edge">
<title>SG_1_Node_4&#45;&gt;SG_1_Node_9</title>
<path fill="none" stroke="black" d="M2819.79,-155.04C2768.55,-150.6 2701.14,-140.95 2684,-120.43 2672.18,-106.27 2672.04,-85.47 2674.79,-68.33"/>
<polygon fill="black" stroke="black" points="2678.28,-68.71 2676.81,-58.22 2671.42,-67.35 2678.28,-68.71"/>
<text text-anchor="middle" x="2870.5" y="-93.43" font-family="Times,serif" font-size="20.00">https://sub.headers.websec.saarland</text>
</g>
<!-- SG_1_Node_10 -->
<g id="node22" class="node">
<title>SG_1_Node_10</title>
<ellipse fill="none" stroke="black" cx="3079" cy="-37.21" rx="33.88" ry="21.43"/>
<text text-anchor="middle" x="3079" y="-32.21" font-family="Times,serif" font-size="20.00">1.0</text>
</g>
<!-- SG_1_Node_4&#45;&gt;SG_1_Node_10 -->
<g id="edge20" class="edge">
<title>SG_1_Node_4&#45;&gt;SG_1_Node_10</title>
<path fill="none" stroke="black" d="M2942.32,-152.14C2986.31,-146.25 3040.59,-136.07 3057,-120.43 3070.81,-107.25 3076.29,-86.44 3078.32,-69.05"/>
<polygon fill="black" stroke="black" points="3081.84,-69.02 3079.19,-58.77 3074.86,-68.44 3081.84,-69.02"/>
<text text-anchor="middle" x="3257.5" y="-104.43" font-family="Times,serif" font-size="20.00">[NA]</text>
<text text-anchor="middle" x="3257.5" y="-82.43" font-family="Times,serif" font-size="20.00">http://sub.headers.websec.saarland</text>
</g>
</g>
</svg>
