<?xml version="1.0" encoding="UTF-8" standalone="no"?>
<!DOCTYPE svg PUBLIC "-//W3C//DTD SVG 1.1//EN"
 "http://www.w3.org/Graphics/SVG/1.1/DTD/svg11.dtd">
<!-- Generated by graphviz version 2.43.0 (0)
 -->
<!-- Title: G Pages: 1 -->
<svg width="19972pt" height="737pt"
 viewBox="0.00 0.00 19972.00 737.28" xmlns="http://www.w3.org/2000/svg" xmlns:xlink="http://www.w3.org/1999/xlink">
<g id="graph0" class="graph" transform="scale(1 1) rotate(0) translate(4 733.28)">
<title>G</title>
<polygon fill="white" stroke="transparent" points="-4,4 -4,-733.28 19968,-733.28 19968,4 -4,4"/>
<g id="clust1" class="cluster">
<title>cluster_0</title>
<polygon fill="none" stroke="black" points="8,-130.43 8,-721.28 4552,-721.28 4552,-130.43 8,-130.43"/>
<text text-anchor="middle" x="2280" y="-685.28" font-family="Times,serif" font-size="40.00">Tree 0, Class {&#39;error&#39;: &#39;null&#39;, &#39;headers&#39;: &#39;access&#45;control&#45;allow&#45;credentials,access&#45;control&#45;allow&#45;headers,access&#45;control&#45;allow&#45;methods,access&#45;control&#45;allow&#45;orgin,access&#45;control&#45;expose&#45;headers,content&#45;length,date,server,test,&#39;}</text>
</g>
<g id="clust5" class="cluster">
<title>cluster_1</title>
<polygon fill="none" stroke="black" points="4560,-130.43 4560,-721.28 8139,-721.28 8139,-130.43 4560,-130.43"/>
<text text-anchor="middle" x="6349.5" y="-685.28" font-family="Times,serif" font-size="40.00">Tree 0, Class {&#39;error&#39;: &#39;null&#39;, &#39;headers&#39;: &#39;access&#45;control&#45;allow&#45;credentials,access&#45;control&#45;allow&#45;orgin,content&#45;length,date,server,test,&#39;}</text>
</g>
<g id="clust9" class="cluster">
<title>cluster_2</title>
<polygon fill="none" stroke="black" points="8147,-130.43 8147,-721.28 11374,-721.28 11374,-130.43 8147,-130.43"/>
<text text-anchor="middle" x="9760.5" y="-685.28" font-family="Times,serif" font-size="40.00">Tree 0, Class {&#39;error&#39;: &#39;null&#39;, &#39;headers&#39;: &#39;access&#45;control&#45;allow&#45;credentials,content&#45;length,date,server,test,&#39;}</text>
</g>
<g id="clust13" class="cluster">
<title>cluster_3</title>
<polygon fill="none" stroke="black" points="11382,-130.43 11382,-721.28 14868,-721.28 14868,-130.43 11382,-130.43"/>
<text text-anchor="middle" x="13125" y="-685.28" font-family="Times,serif" font-size="40.00">Tree 0, Class {&#39;error&#39;: &#39;null&#39;, &#39;headers&#39;: &#39;access&#45;control&#45;allow&#45;orgin,content&#45;length,date,server,test,&#39;}</text>
</g>
<g id="clust17" class="cluster">
<title>cluster_4</title>
<polygon fill="none" stroke="black" points="14876,-8 14876,-721.28 17084,-721.28 17084,-8 14876,-8"/>
<text text-anchor="middle" x="15980" y="-685.28" font-family="Times,serif" font-size="40.00">Tree 0, Class {&#39;error&#39;: &#39;null&#39;, &#39;headers&#39;: &#39;access&#45;control&#45;allow&#45;origin,cache&#45;control,content&#45;type,date,server,&#39;}</text>
</g>
<g id="clust22" class="cluster">
<title>cluster_5</title>
<polygon fill="none" stroke="black" points="17092,-8 17092,-721.28 18504,-721.28 18504,-8 17092,-8"/>
<text text-anchor="middle" x="17798" y="-685.28" font-family="Times,serif" font-size="40.00">Tree 0, Class {&#39;error&#39;: &#39;null&#39;, &#39;headers&#39;: &#39;cache&#45;control,content&#45;type,&#39;}</text>
</g>
<g id="clust27" class="cluster">
<title>cluster_6</title>
<polygon fill="none" stroke="black" points="18512,-362.85 18512,-721.28 19956,-721.28 19956,-362.85 18512,-362.85"/>
<text text-anchor="middle" x="19234" y="-685.28" font-family="Times,serif" font-size="40.00">Tree 0, Class {&#39;error&#39;: &#39;object TypeError: Failed to fetch&#39;, &#39;headers&#39;: &#39;&#39;}</text>
</g>
<!-- SG_0_Node_0 -->
<g id="node1" class="node">
<title>SG_0_Node_0</title>
<polygon fill="none" stroke="black" points="890.5,-661.28 753.5,-661.28 753.5,-625.28 890.5,-625.28 890.5,-661.28"/>
<text text-anchor="middle" x="822" y="-638.28" font-family="Times,serif" font-size="20.00">raw_header</text>
</g>
<!-- SG_0_Node_3 -->
<g id="node2" class="node">
<title>SG_0_Node_3</title>
<ellipse fill="none" stroke="black" cx="254" cy="-392.07" rx="33.88" ry="21.43"/>
<text text-anchor="middle" x="254" y="-387.07" font-family="Times,serif" font-size="20.00">0.0</text>
</g>
<!-- SG_0_Node_0&#45;&gt;SG_0_Node_3 -->
<g id="edge1" class="edge">
<title>SG_0_Node_0&#45;&gt;SG_0_Node_3</title>
<path fill="none" stroke="black" d="M753.25,-640.51C605.96,-636.4 271.87,-625.14 255,-607.28 207.99,-557.51 228.07,-468.56 243.06,-422.5"/>
<polygon fill="black" stroke="black" points="246.45,-423.42 246.34,-412.83 239.82,-421.17 246.45,-423.42"/>
<text text-anchor="middle" x="998.5" y="-569.28" font-family="Times,serif" font-size="20.00">[NA]</text>
<text text-anchor="middle" x="998.5" y="-547.28" font-family="Times,serif" font-size="20.00">[[&#39;Access&#45;Control&#45;Allow&#45;Orgin&#39;, &#39;*&#39;], [&#39;location&#39;, &#39;https://sub.headers.websec.saarland/_hp/common/empty.html&#39;]]</text>
<text text-anchor="middle" x="998.5" y="-525.28" font-family="Times,serif" font-size="20.00">[[&#39;Access&#45;Control&#45;Allow&#45;Orgin&#39;, &#39;https://sub.headers.websec.saarland&#39;], [&#39;location&#39;, &#39;https://sub.headers.websec.saarland/_hp/common/empty.html&#39;]]</text>
<text text-anchor="middle" x="998.5" y="-503.28" font-family="Times,serif" font-size="20.00">[[&#39;Test&#39;, &#39;Test&#39;], [&#39;Access&#45;Control&#45;Allow&#45;Credentials&#39;, &#39;true&#39;]]</text>
<text text-anchor="middle" x="998.5" y="-481.28" font-family="Times,serif" font-size="20.00">[[&#39;Test&#39;, &#39;Test&#39;], [&#39;Access&#45;Control&#45;Allow&#45;Orgin&#39;, &#39;*&#39;], [&#39;Access&#45;Control&#45;Allow&#45;Credentials&#39;, &#39;true&#39;]]</text>
<text text-anchor="middle" x="998.5" y="-459.28" font-family="Times,serif" font-size="20.00">[[&#39;Test&#39;, &#39;Test&#39;], [&#39;Access&#45;Control&#45;Allow&#45;Orgin&#39;, &#39;http://sub.headers.websec.saarland&#39;]]</text>
</g>
<!-- SG_0_Node_1 -->
<g id="node3" class="node">
<title>SG_0_Node_1</title>
<polygon fill="none" stroke="black" points="1830,-410.07 1698,-410.07 1698,-374.07 1830,-374.07 1830,-410.07"/>
<text text-anchor="middle" x="1764" y="-387.07" font-family="Times,serif" font-size="20.00">resp_origin</text>
</g>
<!-- SG_0_Node_0&#45;&gt;SG_0_Node_1 -->
<g id="edge2" class="edge">
<title>SG_0_Node_0&#45;&gt;SG_0_Node_1</title>
<path fill="none" stroke="black" d="M890.71,-642.1C1099.01,-641.25 1711.07,-636.29 1742,-607.28 1793.36,-559.12 1781.06,-465.89 1770.97,-419.96"/>
<polygon fill="black" stroke="black" points="1774.36,-419.08 1768.68,-410.13 1767.54,-420.67 1774.36,-419.08"/>
<text text-anchor="middle" x="3067" y="-514.28" font-family="Times,serif" font-size="20.00">[[&#39;Test&#39;, &#39;Test&#39;], [&#39;Access&#45;Control&#45;Allow&#45;Orgin&#39;, &#39;https://sub.headers.websec.saarland&#39;], [&#39;Access&#45;Control&#45;Allow&#45;Credentials&#39;, &#39;true&#39;], [&#39;Access&#45;Control&#45;Allow&#45;Methods&#39;, &#39;TEST&#39;], [&#39;Access&#45;Control&#45;Allow&#45;Headers&#39;, &#39;Test&#39;], [&#39;Access&#45;Control&#45;Expose&#45;Headers&#39;, &#39;Test&#39;]]</text>
</g>
<!-- SG_0_Node_4 -->
<g id="node4" class="node">
<title>SG_0_Node_4</title>
<ellipse fill="none" stroke="black" cx="1545" cy="-159.64" rx="33.88" ry="21.43"/>
<text text-anchor="middle" x="1545" y="-154.64" font-family="Times,serif" font-size="20.00">0.0</text>
</g>
<!-- SG_0_Node_1&#45;&gt;SG_0_Node_4 -->
<g id="edge3" class="edge">
<title>SG_0_Node_1&#45;&gt;SG_0_Node_4</title>
<path fill="none" stroke="black" d="M1697.95,-388.54C1641.08,-384.81 1565.21,-375.61 1546,-352.85 1507.59,-307.37 1522.23,-231.95 1534.63,-190.39"/>
<polygon fill="black" stroke="black" points="1538.05,-191.18 1537.7,-180.59 1531.37,-189.09 1538.05,-191.18"/>
<text text-anchor="middle" x="1753.5" y="-336.85" font-family="Times,serif" font-size="20.00">[NA]</text>
<text text-anchor="middle" x="1753.5" y="-314.85" font-family="Times,serif" font-size="20.00">http://headers.webappsec.eu</text>
<text text-anchor="middle" x="1753.5" y="-292.85" font-family="Times,serif" font-size="20.00">http://headers.websec.saarland</text>
<text text-anchor="middle" x="1753.5" y="-270.85" font-family="Times,serif" font-size="20.00">http://sub.sub.headers.websec.saarland</text>
<text text-anchor="middle" x="1753.5" y="-248.85" font-family="Times,serif" font-size="20.00">https://headers.webappsec.eu</text>
<text text-anchor="middle" x="1753.5" y="-226.85" font-family="Times,serif" font-size="20.00">https://headers.websec.saarland</text>
<text text-anchor="middle" x="1753.5" y="-204.85" font-family="Times,serif" font-size="20.00">https://sub.sub.headers.websec.saarland</text>
</g>
<!-- SG_0_Node_5 -->
<g id="node5" class="node">
<title>SG_0_Node_5</title>
<ellipse fill="none" stroke="black" cx="1983" cy="-159.64" rx="33.88" ry="21.43"/>
<text text-anchor="middle" x="1983" y="-154.64" font-family="Times,serif" font-size="20.00">0.5</text>
</g>
<!-- SG_0_Node_1&#45;&gt;SG_0_Node_5 -->
<g id="edge4" class="edge">
<title>SG_0_Node_1&#45;&gt;SG_0_Node_5</title>
<path fill="none" stroke="black" d="M1830.25,-386.51C1880.38,-381.59 1943.49,-371.78 1961,-352.85 2001.69,-308.87 1996.36,-232.86 1989.38,-190.8"/>
<polygon fill="black" stroke="black" points="1992.81,-190.11 1987.6,-180.89 1985.92,-191.35 1992.81,-190.11"/>
<text text-anchor="middle" x="2180.5" y="-281.85" font-family="Times,serif" font-size="20.00">http://sub.headers.websec.saarland</text>
<text text-anchor="middle" x="2180.5" y="-259.85" font-family="Times,serif" font-size="20.00">https://sub.headers.websec.saarland</text>
</g>
<!-- SG_1_Node_0 -->
<g id="node6" class="node">
<title>SG_1_Node_0</title>
<polygon fill="none" stroke="black" points="5979.5,-661.28 5842.5,-661.28 5842.5,-625.28 5979.5,-625.28 5979.5,-661.28"/>
<text text-anchor="middle" x="5911" y="-638.28" font-family="Times,serif" font-size="20.00">raw_header</text>
</g>
<!-- SG_1_Node_3 -->
<g id="node7" class="node">
<title>SG_1_Node_3</title>
<ellipse fill="none" stroke="black" cx="4602" cy="-392.07" rx="33.88" ry="21.43"/>
<text text-anchor="middle" x="4602" y="-387.07" font-family="Times,serif" font-size="20.00">0.0</text>
</g>
<!-- SG_1_Node_0&#45;&gt;SG_1_Node_3 -->
<g id="edge5" class="edge">
<title>SG_1_Node_0&#45;&gt;SG_1_Node_3</title>
<path fill="none" stroke="black" d="M5842.29,-641.76C5573.28,-639.55 4605.16,-630.04 4583,-607.28 4555.71,-579.26 4574.06,-469.35 4583,-431.28 4583.76,-428.03 4584.84,-424.75 4586.11,-421.54"/>
<polygon fill="black" stroke="black" points="4589.38,-422.8 4590.32,-412.24 4583,-419.91 4589.38,-422.8"/>
<text text-anchor="middle" x="5871" y="-569.28" font-family="Times,serif" font-size="20.00">[NA]</text>
<text text-anchor="middle" x="5871" y="-547.28" font-family="Times,serif" font-size="20.00">[[&#39;Access&#45;Control&#45;Allow&#45;Orgin&#39;, &#39;*&#39;], [&#39;location&#39;, &#39;https://sub.headers.websec.saarland/_hp/common/empty.html&#39;]]</text>
<text text-anchor="middle" x="5871" y="-525.28" font-family="Times,serif" font-size="20.00">[[&#39;Access&#45;Control&#45;Allow&#45;Orgin&#39;, &#39;https://sub.headers.websec.saarland&#39;], [&#39;location&#39;, &#39;https://sub.headers.websec.saarland/_hp/common/empty.html&#39;]]</text>
<text text-anchor="middle" x="5871" y="-503.28" font-family="Times,serif" font-size="20.00">[[&#39;Test&#39;, &#39;Test&#39;], [&#39;Access&#45;Control&#45;Allow&#45;Credentials&#39;, &#39;true&#39;]]</text>
<text text-anchor="middle" x="5871" y="-481.28" font-family="Times,serif" font-size="20.00">[[&#39;Test&#39;, &#39;Test&#39;], [&#39;Access&#45;Control&#45;Allow&#45;Orgin&#39;, &#39;http://sub.headers.websec.saarland&#39;]]</text>
<text text-anchor="middle" x="5871" y="-459.28" font-family="Times,serif" font-size="20.00">[[&#39;Test&#39;, &#39;Test&#39;], [&#39;Access&#45;Control&#45;Allow&#45;Orgin&#39;, &#39;https://sub.headers.websec.saarland&#39;], [&#39;Access&#45;Control&#45;Allow&#45;Credentials&#39;, &#39;true&#39;], [&#39;Access&#45;Control&#45;Allow&#45;Methods&#39;, &#39;TEST&#39;], [&#39;Access&#45;Control&#45;Allow&#45;Headers&#39;, &#39;Test&#39;], [&#39;Access&#45;Control&#45;Expose&#45;Headers&#39;, &#39;Test&#39;]]</text>
</g>
<!-- SG_1_Node_1 -->
<g id="node8" class="node">
<title>SG_1_Node_1</title>
<polygon fill="none" stroke="black" points="7251,-410.07 7119,-410.07 7119,-374.07 7251,-374.07 7251,-410.07"/>
<text text-anchor="middle" x="7185" y="-387.07" font-family="Times,serif" font-size="20.00">resp_origin</text>
</g>
<!-- SG_1_Node_0&#45;&gt;SG_1_Node_1 -->
<g id="edge6" class="edge">
<title>SG_1_Node_0&#45;&gt;SG_1_Node_1</title>
<path fill="none" stroke="black" d="M5979.65,-641.58C6238.39,-638.77 7141.16,-627.55 7163,-607.28 7189.54,-582.64 7188.51,-472.63 7186.44,-420.56"/>
<polygon fill="black" stroke="black" points="7189.93,-420.21 7185.99,-410.38 7182.93,-420.52 7189.93,-420.21"/>
<text text-anchor="middle" x="7660" y="-514.28" font-family="Times,serif" font-size="20.00">[[&#39;Test&#39;, &#39;Test&#39;], [&#39;Access&#45;Control&#45;Allow&#45;Orgin&#39;, &#39;*&#39;], [&#39;Access&#45;Control&#45;Allow&#45;Credentials&#39;, &#39;true&#39;]]</text>
</g>
<!-- SG_1_Node_4 -->
<g id="node9" class="node">
<title>SG_1_Node_4</title>
<ellipse fill="none" stroke="black" cx="6966" cy="-159.64" rx="33.88" ry="21.43"/>
<text text-anchor="middle" x="6966" y="-154.64" font-family="Times,serif" font-size="20.00">0.0</text>
</g>
<!-- SG_1_Node_1&#45;&gt;SG_1_Node_4 -->
<g id="edge7" class="edge">
<title>SG_1_Node_1&#45;&gt;SG_1_Node_4</title>
<path fill="none" stroke="black" d="M7118.95,-388.54C7062.08,-384.81 6986.21,-375.61 6967,-352.85 6928.59,-307.37 6943.23,-231.95 6955.63,-190.39"/>
<polygon fill="black" stroke="black" points="6959.05,-191.18 6958.7,-180.59 6952.37,-189.09 6959.05,-191.18"/>
<text text-anchor="middle" x="7174.5" y="-336.85" font-family="Times,serif" font-size="20.00">[NA]</text>
<text text-anchor="middle" x="7174.5" y="-314.85" font-family="Times,serif" font-size="20.00">http://headers.webappsec.eu</text>
<text text-anchor="middle" x="7174.5" y="-292.85" font-family="Times,serif" font-size="20.00">http://headers.websec.saarland</text>
<text text-anchor="middle" x="7174.5" y="-270.85" font-family="Times,serif" font-size="20.00">http://sub.sub.headers.websec.saarland</text>
<text text-anchor="middle" x="7174.5" y="-248.85" font-family="Times,serif" font-size="20.00">https://headers.webappsec.eu</text>
<text text-anchor="middle" x="7174.5" y="-226.85" font-family="Times,serif" font-size="20.00">https://headers.websec.saarland</text>
<text text-anchor="middle" x="7174.5" y="-204.85" font-family="Times,serif" font-size="20.00">https://sub.sub.headers.websec.saarland</text>
</g>
<!-- SG_1_Node_5 -->
<g id="node10" class="node">
<title>SG_1_Node_5</title>
<ellipse fill="none" stroke="black" cx="7404" cy="-159.64" rx="33.88" ry="21.43"/>
<text text-anchor="middle" x="7404" y="-154.64" font-family="Times,serif" font-size="20.00">0.5</text>
</g>
<!-- SG_1_Node_1&#45;&gt;SG_1_Node_5 -->
<g id="edge8" class="edge">
<title>SG_1_Node_1&#45;&gt;SG_1_Node_5</title>
<path fill="none" stroke="black" d="M7251.25,-386.51C7301.38,-381.59 7364.49,-371.78 7382,-352.85 7422.69,-308.87 7417.36,-232.86 7410.38,-190.8"/>
<polygon fill="black" stroke="black" points="7413.81,-190.11 7408.6,-180.89 7406.92,-191.35 7413.81,-190.11"/>
<text text-anchor="middle" x="7601.5" y="-281.85" font-family="Times,serif" font-size="20.00">http://sub.headers.websec.saarland</text>
<text text-anchor="middle" x="7601.5" y="-259.85" font-family="Times,serif" font-size="20.00">https://sub.headers.websec.saarland</text>
</g>
<!-- SG_2_Node_0 -->
<g id="node11" class="node">
<title>SG_2_Node_0</title>
<polygon fill="none" stroke="black" points="9566.5,-661.28 9429.5,-661.28 9429.5,-625.28 9566.5,-625.28 9566.5,-661.28"/>
<text text-anchor="middle" x="9498" y="-638.28" font-family="Times,serif" font-size="20.00">raw_header</text>
</g>
<!-- SG_2_Node_3 -->
<g id="node12" class="node">
<title>SG_2_Node_3</title>
<ellipse fill="none" stroke="black" cx="8189" cy="-392.07" rx="33.88" ry="21.43"/>
<text text-anchor="middle" x="8189" y="-387.07" font-family="Times,serif" font-size="20.00">0.0</text>
</g>
<!-- SG_2_Node_0&#45;&gt;SG_2_Node_3 -->
<g id="edge9" class="edge">
<title>SG_2_Node_0&#45;&gt;SG_2_Node_3</title>
<path fill="none" stroke="black" d="M9429.29,-641.76C9160.28,-639.55 8192.16,-630.04 8170,-607.28 8142.71,-579.26 8161.06,-469.35 8170,-431.28 8170.76,-428.03 8171.84,-424.75 8173.11,-421.54"/>
<polygon fill="black" stroke="black" points="8176.38,-422.8 8177.32,-412.24 8170,-419.91 8176.38,-422.8"/>
<text text-anchor="middle" x="9458" y="-569.28" font-family="Times,serif" font-size="20.00">[NA]</text>
<text text-anchor="middle" x="9458" y="-547.28" font-family="Times,serif" font-size="20.00">[[&#39;Access&#45;Control&#45;Allow&#45;Orgin&#39;, &#39;*&#39;], [&#39;location&#39;, &#39;https://sub.headers.websec.saarland/_hp/common/empty.html&#39;]]</text>
<text text-anchor="middle" x="9458" y="-525.28" font-family="Times,serif" font-size="20.00">[[&#39;Access&#45;Control&#45;Allow&#45;Orgin&#39;, &#39;https://sub.headers.websec.saarland&#39;], [&#39;location&#39;, &#39;https://sub.headers.websec.saarland/_hp/common/empty.html&#39;]]</text>
<text text-anchor="middle" x="9458" y="-503.28" font-family="Times,serif" font-size="20.00">[[&#39;Test&#39;, &#39;Test&#39;], [&#39;Access&#45;Control&#45;Allow&#45;Orgin&#39;, &#39;*&#39;], [&#39;Access&#45;Control&#45;Allow&#45;Credentials&#39;, &#39;true&#39;]]</text>
<text text-anchor="middle" x="9458" y="-481.28" font-family="Times,serif" font-size="20.00">[[&#39;Test&#39;, &#39;Test&#39;], [&#39;Access&#45;Control&#45;Allow&#45;Orgin&#39;, &#39;http://sub.headers.websec.saarland&#39;]]</text>
<text text-anchor="middle" x="9458" y="-459.28" font-family="Times,serif" font-size="20.00">[[&#39;Test&#39;, &#39;Test&#39;], [&#39;Access&#45;Control&#45;Allow&#45;Orgin&#39;, &#39;https://sub.headers.websec.saarland&#39;], [&#39;Access&#45;Control&#45;Allow&#45;Credentials&#39;, &#39;true&#39;], [&#39;Access&#45;Control&#45;Allow&#45;Methods&#39;, &#39;TEST&#39;], [&#39;Access&#45;Control&#45;Allow&#45;Headers&#39;, &#39;Test&#39;], [&#39;Access&#45;Control&#45;Expose&#45;Headers&#39;, &#39;Test&#39;]]</text>
</g>
<!-- SG_2_Node_1 -->
<g id="node13" class="node">
<title>SG_2_Node_1</title>
<polygon fill="none" stroke="black" points="10838,-410.07 10706,-410.07 10706,-374.07 10838,-374.07 10838,-410.07"/>
<text text-anchor="middle" x="10772" y="-387.07" font-family="Times,serif" font-size="20.00">resp_origin</text>
</g>
<!-- SG_2_Node_0&#45;&gt;SG_2_Node_1 -->
<g id="edge10" class="edge">
<title>SG_2_Node_0&#45;&gt;SG_2_Node_1</title>
<path fill="none" stroke="black" d="M9566.65,-641.58C9825.39,-638.77 10728.16,-627.55 10750,-607.28 10776.54,-582.64 10775.51,-472.63 10773.44,-420.56"/>
<polygon fill="black" stroke="black" points="10776.93,-420.21 10772.99,-410.38 10769.93,-420.52 10776.93,-420.21"/>
<text text-anchor="middle" x="11071" y="-514.28" font-family="Times,serif" font-size="20.00">[[&#39;Test&#39;, &#39;Test&#39;], [&#39;Access&#45;Control&#45;Allow&#45;Credentials&#39;, &#39;true&#39;]]</text>
</g>
<!-- SG_2_Node_4 -->
<g id="node14" class="node">
<title>SG_2_Node_4</title>
<ellipse fill="none" stroke="black" cx="10444" cy="-159.64" rx="33.88" ry="21.43"/>
<text text-anchor="middle" x="10444" y="-154.64" font-family="Times,serif" font-size="20.00">0.0</text>
</g>
<!-- SG_2_Node_1&#45;&gt;SG_2_Node_4 -->
<g id="edge11" class="edge">
<title>SG_2_Node_1&#45;&gt;SG_2_Node_4</title>
<path fill="none" stroke="black" d="M10705.62,-388.06C10614.06,-383.22 10458.27,-372.23 10441,-352.85 10401.2,-308.2 10418.6,-231.86 10432.61,-190.09"/>
<polygon fill="black" stroke="black" points="10435.97,-191.09 10435.98,-180.5 10429.36,-188.77 10435.97,-191.09"/>
<text text-anchor="middle" x="10648.5" y="-336.85" font-family="Times,serif" font-size="20.00">[NA]</text>
<text text-anchor="middle" x="10648.5" y="-314.85" font-family="Times,serif" font-size="20.00">http://headers.webappsec.eu</text>
<text text-anchor="middle" x="10648.5" y="-292.85" font-family="Times,serif" font-size="20.00">http://headers.websec.saarland</text>
<text text-anchor="middle" x="10648.5" y="-270.85" font-family="Times,serif" font-size="20.00">http://sub.sub.headers.websec.saarland</text>
<text text-anchor="middle" x="10648.5" y="-248.85" font-family="Times,serif" font-size="20.00">https://headers.webappsec.eu</text>
<text text-anchor="middle" x="10648.5" y="-226.85" font-family="Times,serif" font-size="20.00">https://headers.websec.saarland</text>
<text text-anchor="middle" x="10648.5" y="-204.85" font-family="Times,serif" font-size="20.00">https://sub.sub.headers.websec.saarland</text>
</g>
<!-- SG_2_Node_5 -->
<g id="node15" class="node">
<title>SG_2_Node_5</title>
<ellipse fill="none" stroke="black" cx="10882" cy="-159.64" rx="33.88" ry="21.43"/>
<text text-anchor="middle" x="10882" y="-154.64" font-family="Times,serif" font-size="20.00">0.5</text>
</g>
<!-- SG_2_Node_1&#45;&gt;SG_2_Node_5 -->
<g id="edge12" class="edge">
<title>SG_2_Node_1&#45;&gt;SG_2_Node_5</title>
<path fill="none" stroke="black" d="M10834.21,-374C10844.16,-368.71 10853.36,-361.82 10860,-352.85 10895.31,-305.18 10892.37,-231.79 10887.15,-190.87"/>
<polygon fill="black" stroke="black" points="10890.62,-190.37 10885.76,-180.96 10883.68,-191.35 10890.62,-190.37"/>
<text text-anchor="middle" x="11076.5" y="-281.85" font-family="Times,serif" font-size="20.00">http://sub.headers.websec.saarland</text>
<text text-anchor="middle" x="11076.5" y="-259.85" font-family="Times,serif" font-size="20.00">https://sub.headers.websec.saarland</text>
</g>
<!-- SG_3_Node_0 -->
<g id="node16" class="node">
<title>SG_3_Node_0</title>
<polygon fill="none" stroke="black" points="12801.5,-661.28 12664.5,-661.28 12664.5,-625.28 12801.5,-625.28 12801.5,-661.28"/>
<text text-anchor="middle" x="12733" y="-638.28" font-family="Times,serif" font-size="20.00">raw_header</text>
</g>
<!-- SG_3_Node_3 -->
<g id="node17" class="node">
<title>SG_3_Node_3</title>
<ellipse fill="none" stroke="black" cx="11424" cy="-392.07" rx="33.88" ry="21.43"/>
<text text-anchor="middle" x="11424" y="-387.07" font-family="Times,serif" font-size="20.00">0.0</text>
</g>
<!-- SG_3_Node_0&#45;&gt;SG_3_Node_3 -->
<g id="edge13" class="edge">
<title>SG_3_Node_0&#45;&gt;SG_3_Node_3</title>
<path fill="none" stroke="black" d="M12664.29,-641.76C12395.28,-639.55 11427.16,-630.04 11405,-607.28 11377.71,-579.26 11396.06,-469.35 11405,-431.28 11405.76,-428.03 11406.84,-424.75 11408.11,-421.54"/>
<polygon fill="black" stroke="black" points="11411.38,-422.8 11412.32,-412.24 11405,-419.91 11411.38,-422.8"/>
<text text-anchor="middle" x="12693" y="-569.28" font-family="Times,serif" font-size="20.00">[NA]</text>
<text text-anchor="middle" x="12693" y="-547.28" font-family="Times,serif" font-size="20.00">[[&#39;Access&#45;Control&#45;Allow&#45;Orgin&#39;, &#39;*&#39;], [&#39;location&#39;, &#39;https://sub.headers.websec.saarland/_hp/common/empty.html&#39;]]</text>
<text text-anchor="middle" x="12693" y="-525.28" font-family="Times,serif" font-size="20.00">[[&#39;Access&#45;Control&#45;Allow&#45;Orgin&#39;, &#39;https://sub.headers.websec.saarland&#39;], [&#39;location&#39;, &#39;https://sub.headers.websec.saarland/_hp/common/empty.html&#39;]]</text>
<text text-anchor="middle" x="12693" y="-503.28" font-family="Times,serif" font-size="20.00">[[&#39;Test&#39;, &#39;Test&#39;], [&#39;Access&#45;Control&#45;Allow&#45;Credentials&#39;, &#39;true&#39;]]</text>
<text text-anchor="middle" x="12693" y="-481.28" font-family="Times,serif" font-size="20.00">[[&#39;Test&#39;, &#39;Test&#39;], [&#39;Access&#45;Control&#45;Allow&#45;Orgin&#39;, &#39;*&#39;], [&#39;Access&#45;Control&#45;Allow&#45;Credentials&#39;, &#39;true&#39;]]</text>
<text text-anchor="middle" x="12693" y="-459.28" font-family="Times,serif" font-size="20.00">[[&#39;Test&#39;, &#39;Test&#39;], [&#39;Access&#45;Control&#45;Allow&#45;Orgin&#39;, &#39;https://sub.headers.websec.saarland&#39;], [&#39;Access&#45;Control&#45;Allow&#45;Credentials&#39;, &#39;true&#39;], [&#39;Access&#45;Control&#45;Allow&#45;Methods&#39;, &#39;TEST&#39;], [&#39;Access&#45;Control&#45;Allow&#45;Headers&#39;, &#39;Test&#39;], [&#39;Access&#45;Control&#45;Expose&#45;Headers&#39;, &#39;Test&#39;]]</text>
</g>
<!-- SG_3_Node_1 -->
<g id="node18" class="node">
<title>SG_3_Node_1</title>
<polygon fill="none" stroke="black" points="14073,-410.07 13941,-410.07 13941,-374.07 14073,-374.07 14073,-410.07"/>
<text text-anchor="middle" x="14007" y="-387.07" font-family="Times,serif" font-size="20.00">resp_origin</text>
</g>
<!-- SG_3_Node_0&#45;&gt;SG_3_Node_1 -->
<g id="edge14" class="edge">
<title>SG_3_Node_0&#45;&gt;SG_3_Node_1</title>
<path fill="none" stroke="black" d="M12801.65,-641.58C13060.39,-638.77 13963.16,-627.55 13985,-607.28 14011.54,-582.64 14010.51,-472.63 14008.44,-420.56"/>
<polygon fill="black" stroke="black" points="14011.93,-420.21 14007.99,-410.38 14004.93,-420.52 14011.93,-420.21"/>
<text text-anchor="middle" x="14435.5" y="-514.28" font-family="Times,serif" font-size="20.00">[[&#39;Test&#39;, &#39;Test&#39;], [&#39;Access&#45;Control&#45;Allow&#45;Orgin&#39;, &#39;http://sub.headers.websec.saarland&#39;]]</text>
</g>
<!-- SG_3_Node_4 -->
<g id="node19" class="node">
<title>SG_3_Node_4</title>
<ellipse fill="none" stroke="black" cx="13788" cy="-159.64" rx="33.88" ry="21.43"/>
<text text-anchor="middle" x="13788" y="-154.64" font-family="Times,serif" font-size="20.00">0.0</text>
</g>
<!-- SG_3_Node_1&#45;&gt;SG_3_Node_4 -->
<g id="edge15" class="edge">
<title>SG_3_Node_1&#45;&gt;SG_3_Node_4</title>
<path fill="none" stroke="black" d="M13940.95,-388.54C13884.08,-384.81 13808.21,-375.61 13789,-352.85 13750.59,-307.37 13765.23,-231.95 13777.63,-190.39"/>
<polygon fill="black" stroke="black" points="13781.05,-191.18 13780.7,-180.59 13774.37,-189.09 13781.05,-191.18"/>
<text text-anchor="middle" x="13996.5" y="-336.85" font-family="Times,serif" font-size="20.00">[NA]</text>
<text text-anchor="middle" x="13996.5" y="-314.85" font-family="Times,serif" font-size="20.00">http://headers.webappsec.eu</text>
<text text-anchor="middle" x="13996.5" y="-292.85" font-family="Times,serif" font-size="20.00">http://headers.websec.saarland</text>
<text text-anchor="middle" x="13996.5" y="-270.85" font-family="Times,serif" font-size="20.00">http://sub.sub.headers.websec.saarland</text>
<text text-anchor="middle" x="13996.5" y="-248.85" font-family="Times,serif" font-size="20.00">https://headers.webappsec.eu</text>
<text text-anchor="middle" x="13996.5" y="-226.85" font-family="Times,serif" font-size="20.00">https://headers.websec.saarland</text>
<text text-anchor="middle" x="13996.5" y="-204.85" font-family="Times,serif" font-size="20.00">https://sub.sub.headers.websec.saarland</text>
</g>
<!-- SG_3_Node_5 -->
<g id="node20" class="node">
<title>SG_3_Node_5</title>
<ellipse fill="none" stroke="black" cx="14226" cy="-159.64" rx="33.88" ry="21.43"/>
<text text-anchor="middle" x="14226" y="-154.64" font-family="Times,serif" font-size="20.00">0.5</text>
</g>
<!-- SG_3_Node_1&#45;&gt;SG_3_Node_5 -->
<g id="edge16" class="edge">
<title>SG_3_Node_1&#45;&gt;SG_3_Node_5</title>
<path fill="none" stroke="black" d="M14073.25,-386.51C14123.38,-381.59 14186.49,-371.78 14204,-352.85 14244.69,-308.87 14239.36,-232.86 14232.38,-190.8"/>
<polygon fill="black" stroke="black" points="14235.81,-190.11 14230.6,-180.89 14228.92,-191.35 14235.81,-190.11"/>
<text text-anchor="middle" x="14423.5" y="-281.85" font-family="Times,serif" font-size="20.00">http://sub.headers.websec.saarland</text>
<text text-anchor="middle" x="14423.5" y="-259.85" font-family="Times,serif" font-size="20.00">https://sub.headers.websec.saarland</text>
</g>
<!-- SG_4_Node_0 -->
<g id="node21" class="node">
<title>SG_4_Node_0</title>
<polygon fill="none" stroke="black" points="15219,-661.28 15087,-661.28 15087,-625.28 15219,-625.28 15219,-661.28"/>
<text text-anchor="middle" x="15153" y="-638.28" font-family="Times,serif" font-size="20.00">resp_origin</text>
</g>
<!-- SG_4_Node_3 -->
<g id="node22" class="node">
<title>SG_4_Node_3</title>
<ellipse fill="none" stroke="black" cx="15035" cy="-392.07" rx="33.88" ry="21.43"/>
<text text-anchor="middle" x="15035" y="-387.07" font-family="Times,serif" font-size="20.00">0.0</text>
</g>
<!-- SG_4_Node_0&#45;&gt;SG_4_Node_3 -->
<g id="edge17" class="edge">
<title>SG_4_Node_0&#45;&gt;SG_4_Node_3</title>
<path fill="none" stroke="black" d="M15086.7,-637.3C15067.29,-632.38 15048.07,-623.41 15036,-607.28 14995.38,-553 15012.11,-467.4 15025.1,-422.61"/>
<polygon fill="black" stroke="black" points="15028.49,-423.51 15028.04,-412.92 15021.79,-421.47 15028.49,-423.51"/>
<text text-anchor="middle" x="15243.5" y="-591.28" font-family="Times,serif" font-size="20.00">[NA]</text>
<text text-anchor="middle" x="15243.5" y="-569.28" font-family="Times,serif" font-size="20.00">http://headers.webappsec.eu</text>
<text text-anchor="middle" x="15243.5" y="-547.28" font-family="Times,serif" font-size="20.00">http://headers.websec.saarland</text>
<text text-anchor="middle" x="15243.5" y="-525.28" font-family="Times,serif" font-size="20.00">http://sub.headers.websec.saarland</text>
<text text-anchor="middle" x="15243.5" y="-503.28" font-family="Times,serif" font-size="20.00">http://sub.sub.headers.websec.saarland</text>
<text text-anchor="middle" x="15243.5" y="-481.28" font-family="Times,serif" font-size="20.00">https://headers.webappsec.eu</text>
<text text-anchor="middle" x="15243.5" y="-459.28" font-family="Times,serif" font-size="20.00">https://headers.websec.saarland</text>
<text text-anchor="middle" x="15243.5" y="-437.28" font-family="Times,serif" font-size="20.00">https://sub.sub.headers.websec.saarland</text>
</g>
<!-- SG_4_Node_1 -->
<g id="node23" class="node">
<title>SG_4_Node_1</title>
<polygon fill="none" stroke="black" points="15541.5,-410.07 15404.5,-410.07 15404.5,-374.07 15541.5,-374.07 15541.5,-410.07"/>
<text text-anchor="middle" x="15473" y="-387.07" font-family="Times,serif" font-size="20.00">status_code</text>
</g>
<!-- SG_4_Node_0&#45;&gt;SG_4_Node_1 -->
<g id="edge18" class="edge">
<title>SG_4_Node_0&#45;&gt;SG_4_Node_1</title>
<path fill="none" stroke="black" d="M15219.17,-638.84C15302,-633.88 15435.03,-623.49 15451,-607.28 15500.2,-557.36 15489.14,-465.68 15479.69,-420.17"/>
<polygon fill="black" stroke="black" points="15483.05,-419.17 15477.48,-410.16 15476.22,-420.68 15483.05,-419.17"/>
<text text-anchor="middle" x="15673.5" y="-514.28" font-family="Times,serif" font-size="20.00">https://sub.headers.websec.saarland</text>
</g>
<!-- SG_4_Node_4 -->
<g id="node24" class="node">
<title>SG_4_Node_4</title>
<ellipse fill="none" stroke="black" cx="15421" cy="-159.64" rx="33.88" ry="21.43"/>
<text text-anchor="middle" x="15421" y="-154.64" font-family="Times,serif" font-size="20.00">0.0</text>
</g>
<!-- SG_4_Node_1&#45;&gt;SG_4_Node_4 -->
<g id="edge19" class="edge">
<title>SG_4_Node_1&#45;&gt;SG_4_Node_4</title>
<path fill="none" stroke="black" d="M15456.99,-374.01C15452.03,-367.79 15447.06,-360.42 15444,-352.85 15422.18,-298.88 15419.36,-229.95 15419.82,-191.01"/>
<polygon fill="black" stroke="black" points="15423.32,-190.93 15420.02,-180.86 15416.32,-190.79 15423.32,-190.93"/>
<text text-anchor="middle" x="15467.5" y="-281.85" font-family="Times,serif" font-size="20.00">[NA]</text>
<text text-anchor="middle" x="15467.5" y="-259.85" font-family="Times,serif" font-size="20.00">200</text>
</g>
<!-- SG_4_Node_2 -->
<g id="node25" class="node">
<title>SG_4_Node_2</title>
<polygon fill="none" stroke="black" points="15595,-177.64 15473,-177.64 15473,-141.64 15595,-141.64 15595,-177.64"/>
<text text-anchor="middle" x="15534" y="-154.64" font-family="Times,serif" font-size="20.00">org_origin</text>
</g>
<!-- SG_4_Node_1&#45;&gt;SG_4_Node_2 -->
<g id="edge20" class="edge">
<title>SG_4_Node_1&#45;&gt;SG_4_Node_2</title>
<path fill="none" stroke="black" d="M15482.07,-373.9C15485.22,-367.43 15488.58,-359.93 15491,-352.85 15510.62,-295.59 15523.67,-225.61 15529.85,-187.88"/>
<polygon fill="black" stroke="black" points="15533.36,-188.12 15531.48,-177.7 15526.44,-187.02 15533.36,-188.12"/>
<text text-anchor="middle" x="15546.5" y="-270.85" font-family="Times,serif" font-size="20.00">302</text>
</g>
<!-- SG_4_Node_5 -->
<g id="node26" class="node">
<title>SG_4_Node_5</title>
<ellipse fill="none" stroke="black" cx="15341" cy="-37.21" rx="33.88" ry="21.43"/>
<text text-anchor="middle" x="15341" y="-32.21" font-family="Times,serif" font-size="20.00">0.0</text>
</g>
<!-- SG_4_Node_2&#45;&gt;SG_4_Node_5 -->
<g id="edge21" class="edge">
<title>SG_4_Node_2&#45;&gt;SG_4_Node_5</title>
<path fill="none" stroke="black" d="M15497.62,-141.57C15487,-137.25 15475.22,-133.08 15464,-130.43 15450.76,-127.29 15351.28,-130.37 15342,-120.43 15329.34,-106.85 15329.28,-85.86 15332.29,-68.49"/>
<polygon fill="black" stroke="black" points="15335.81,-68.75 15334.48,-58.24 15328.97,-67.29 15335.81,-68.75"/>
<text text-anchor="middle" x="15523.5" y="-93.43" font-family="Times,serif" font-size="20.00">http://sub.headers.websec.saarland</text>
</g>
<!-- SG_4_Node_6 -->
<g id="node27" class="node">
<title>SG_4_Node_6</title>
<ellipse fill="none" stroke="black" cx="15727" cy="-37.21" rx="33.88" ry="21.43"/>
<text text-anchor="middle" x="15727" y="-32.21" font-family="Times,serif" font-size="20.00">1.0</text>
</g>
<!-- SG_4_Node_2&#45;&gt;SG_4_Node_6 -->
<g id="edge22" class="edge">
<title>SG_4_Node_2&#45;&gt;SG_4_Node_6</title>
<path fill="none" stroke="black" d="M15595.36,-151.68C15637.79,-145.64 15689.3,-135.48 15705,-120.43 15718.78,-107.21 15724.25,-86.4 15726.29,-69.02"/>
<polygon fill="black" stroke="black" points="15729.81,-69 15727.17,-58.74 15722.83,-68.41 15729.81,-69"/>
<text text-anchor="middle" x="15910.5" y="-104.43" font-family="Times,serif" font-size="20.00">[NA]</text>
<text text-anchor="middle" x="15910.5" y="-82.43" font-family="Times,serif" font-size="20.00">https://sub.headers.websec.saarland</text>
</g>
<!-- SG_5_Node_0 -->
<g id="node28" class="node">
<title>SG_5_Node_0</title>
<polygon fill="none" stroke="black" points="17435,-661.28 17303,-661.28 17303,-625.28 17435,-625.28 17435,-661.28"/>
<text text-anchor="middle" x="17369" y="-638.28" font-family="Times,serif" font-size="20.00">resp_origin</text>
</g>
<!-- SG_5_Node_3 -->
<g id="node29" class="node">
<title>SG_5_Node_3</title>
<ellipse fill="none" stroke="black" cx="17251" cy="-392.07" rx="33.88" ry="21.43"/>
<text text-anchor="middle" x="17251" y="-387.07" font-family="Times,serif" font-size="20.00">0.0</text>
</g>
<!-- SG_5_Node_0&#45;&gt;SG_5_Node_3 -->
<g id="edge23" class="edge">
<title>SG_5_Node_0&#45;&gt;SG_5_Node_3</title>
<path fill="none" stroke="black" d="M17302.7,-637.3C17283.29,-632.38 17264.07,-623.41 17252,-607.28 17211.38,-553 17228.11,-467.4 17241.1,-422.61"/>
<polygon fill="black" stroke="black" points="17244.49,-423.51 17244.04,-412.92 17237.79,-421.47 17244.49,-423.51"/>
<text text-anchor="middle" x="17459.5" y="-591.28" font-family="Times,serif" font-size="20.00">[NA]</text>
<text text-anchor="middle" x="17459.5" y="-569.28" font-family="Times,serif" font-size="20.00">http://headers.webappsec.eu</text>
<text text-anchor="middle" x="17459.5" y="-547.28" font-family="Times,serif" font-size="20.00">http://headers.websec.saarland</text>
<text text-anchor="middle" x="17459.5" y="-525.28" font-family="Times,serif" font-size="20.00">http://sub.sub.headers.websec.saarland</text>
<text text-anchor="middle" x="17459.5" y="-503.28" font-family="Times,serif" font-size="20.00">https://headers.webappsec.eu</text>
<text text-anchor="middle" x="17459.5" y="-481.28" font-family="Times,serif" font-size="20.00">https://headers.websec.saarland</text>
<text text-anchor="middle" x="17459.5" y="-459.28" font-family="Times,serif" font-size="20.00">https://sub.headers.websec.saarland</text>
<text text-anchor="middle" x="17459.5" y="-437.28" font-family="Times,serif" font-size="20.00">https://sub.sub.headers.websec.saarland</text>
</g>
<!-- SG_5_Node_1 -->
<g id="node30" class="node">
<title>SG_5_Node_1</title>
<polygon fill="none" stroke="black" points="17757.5,-410.07 17620.5,-410.07 17620.5,-374.07 17757.5,-374.07 17757.5,-410.07"/>
<text text-anchor="middle" x="17689" y="-387.07" font-family="Times,serif" font-size="20.00">status_code</text>
</g>
<!-- SG_5_Node_0&#45;&gt;SG_5_Node_1 -->
<g id="edge24" class="edge">
<title>SG_5_Node_0&#45;&gt;SG_5_Node_1</title>
<path fill="none" stroke="black" d="M17435.17,-638.84C17518,-633.88 17651.03,-623.49 17667,-607.28 17716.2,-557.36 17705.14,-465.68 17695.69,-420.17"/>
<polygon fill="black" stroke="black" points="17699.05,-419.17 17693.48,-410.16 17692.22,-420.68 17699.05,-419.17"/>
<text text-anchor="middle" x="17884.5" y="-514.28" font-family="Times,serif" font-size="20.00">http://sub.headers.websec.saarland</text>
</g>
<!-- SG_5_Node_4 -->
<g id="node31" class="node">
<title>SG_5_Node_4</title>
<ellipse fill="none" stroke="black" cx="17637" cy="-159.64" rx="33.88" ry="21.43"/>
<text text-anchor="middle" x="17637" y="-154.64" font-family="Times,serif" font-size="20.00">0.0</text>
</g>
<!-- SG_5_Node_1&#45;&gt;SG_5_Node_4 -->
<g id="edge25" class="edge">
<title>SG_5_Node_1&#45;&gt;SG_5_Node_4</title>
<path fill="none" stroke="black" d="M17672.99,-374.01C17668.03,-367.79 17663.06,-360.42 17660,-352.85 17638.18,-298.88 17635.36,-229.95 17635.82,-191.01"/>
<polygon fill="black" stroke="black" points="17639.32,-190.93 17636.02,-180.86 17632.32,-190.79 17639.32,-190.93"/>
<text text-anchor="middle" x="17683.5" y="-281.85" font-family="Times,serif" font-size="20.00">[NA]</text>
<text text-anchor="middle" x="17683.5" y="-259.85" font-family="Times,serif" font-size="20.00">200</text>
</g>
<!-- SG_5_Node_2 -->
<g id="node32" class="node">
<title>SG_5_Node_2</title>
<polygon fill="none" stroke="black" points="17811,-177.64 17689,-177.64 17689,-141.64 17811,-141.64 17811,-177.64"/>
<text text-anchor="middle" x="17750" y="-154.64" font-family="Times,serif" font-size="20.00">org_origin</text>
</g>
<!-- SG_5_Node_1&#45;&gt;SG_5_Node_2 -->
<g id="edge26" class="edge">
<title>SG_5_Node_1&#45;&gt;SG_5_Node_2</title>
<path fill="none" stroke="black" d="M17698.07,-373.9C17701.22,-367.43 17704.58,-359.93 17707,-352.85 17726.62,-295.59 17739.67,-225.61 17745.85,-187.88"/>
<polygon fill="black" stroke="black" points="17749.36,-188.12 17747.48,-177.7 17742.44,-187.02 17749.36,-188.12"/>
<text text-anchor="middle" x="17762.5" y="-270.85" font-family="Times,serif" font-size="20.00">302</text>
</g>
<!-- SG_5_Node_5 -->
<g id="node33" class="node">
<title>SG_5_Node_5</title>
<ellipse fill="none" stroke="black" cx="17552" cy="-37.21" rx="33.88" ry="21.43"/>
<text text-anchor="middle" x="17552" y="-32.21" font-family="Times,serif" font-size="20.00">0.0</text>
</g>
<!-- SG_5_Node_2&#45;&gt;SG_5_Node_5 -->
<g id="edge27" class="edge">
<title>SG_5_Node_2&#45;&gt;SG_5_Node_5</title>
<path fill="none" stroke="black" d="M17713.63,-141.54C17703,-137.22 17691.22,-133.06 17680,-130.43 17666.22,-127.19 17562.67,-130.76 17553,-120.43 17540.32,-106.87 17540.26,-85.88 17543.28,-68.5"/>
<polygon fill="black" stroke="black" points="17546.8,-68.76 17545.46,-58.25 17539.95,-67.3 17546.8,-68.76"/>
<text text-anchor="middle" x="17739.5" y="-93.43" font-family="Times,serif" font-size="20.00">https://sub.headers.websec.saarland</text>
</g>
<!-- SG_5_Node_6 -->
<g id="node34" class="node">
<title>SG_5_Node_6</title>
<ellipse fill="none" stroke="black" cx="17948" cy="-37.21" rx="33.88" ry="21.43"/>
<text text-anchor="middle" x="17948" y="-32.21" font-family="Times,serif" font-size="20.00">1.0</text>
</g>
<!-- SG_5_Node_2&#45;&gt;SG_5_Node_6 -->
<g id="edge28" class="edge">
<title>SG_5_Node_2&#45;&gt;SG_5_Node_6</title>
<path fill="none" stroke="black" d="M17811.32,-152.14C17855.31,-146.25 17909.59,-136.07 17926,-120.43 17939.81,-107.25 17945.29,-86.44 17947.32,-69.05"/>
<polygon fill="black" stroke="black" points="17950.84,-69.02 17948.19,-58.77 17943.86,-68.44 17950.84,-69.02"/>
<text text-anchor="middle" x="18126.5" y="-104.43" font-family="Times,serif" font-size="20.00">[NA]</text>
<text text-anchor="middle" x="18126.5" y="-82.43" font-family="Times,serif" font-size="20.00">http://sub.headers.websec.saarland</text>
</g>
<!-- SG_6_Node_0 -->
<g id="node35" class="node">
<title>SG_6_Node_0</title>
<polygon fill="none" stroke="black" points="18834,-661.28 18702,-661.28 18702,-625.28 18834,-625.28 18834,-661.28"/>
<text text-anchor="middle" x="18768" y="-638.28" font-family="Times,serif" font-size="20.00">resp_origin</text>
</g>
<!-- SG_6_Node_2 -->
<g id="node36" class="node">
<title>SG_6_Node_2</title>
<ellipse fill="none" stroke="black" cx="18661" cy="-392.07" rx="33.88" ry="21.43"/>
<text text-anchor="middle" x="18661" y="-387.07" font-family="Times,serif" font-size="20.00">0.5</text>
</g>
<!-- SG_6_Node_0&#45;&gt;SG_6_Node_2 -->
<g id="edge29" class="edge">
<title>SG_6_Node_0&#45;&gt;SG_6_Node_2</title>
<path fill="none" stroke="black" d="M18701.98,-634.04C18686.44,-628.84 18671.63,-620.53 18662,-607.28 18622.25,-552.57 18638.47,-467.5 18651.2,-422.81"/>
<polygon fill="black" stroke="black" points="18654.58,-423.72 18654.08,-413.13 18647.87,-421.72 18654.58,-423.72"/>
<text text-anchor="middle" x="18848.5" y="-525.28" font-family="Times,serif" font-size="20.00">http://sub.headers.websec.saarland</text>
<text text-anchor="middle" x="18848.5" y="-503.28" font-family="Times,serif" font-size="20.00">https://sub.headers.websec.saarland</text>
</g>
<!-- SG_6_Node_3 -->
<g id="node37" class="node">
<title>SG_6_Node_3</title>
<ellipse fill="none" stroke="black" cx="19057" cy="-392.07" rx="33.88" ry="21.43"/>
<text text-anchor="middle" x="19057" y="-387.07" font-family="Times,serif" font-size="20.00">1.0</text>
</g>
<!-- SG_6_Node_0&#45;&gt;SG_6_Node_3 -->
<g id="edge30" class="edge">
<title>SG_6_Node_0&#45;&gt;SG_6_Node_3</title>
<path fill="none" stroke="black" d="M18834.08,-642.65C18904.03,-641.54 19007.99,-635.06 19035,-607.28 19082.75,-558.17 19073.42,-469.62 19064.25,-423.25"/>
<polygon fill="black" stroke="black" points="19067.63,-422.28 19062.14,-413.22 19060.78,-423.73 19067.63,-422.28"/>
<text text-anchor="middle" x="19278.5" y="-580.28" font-family="Times,serif" font-size="20.00">[NA]</text>
<text text-anchor="middle" x="19278.5" y="-558.28" font-family="Times,serif" font-size="20.00">http://headers.webappsec.eu</text>
<text text-anchor="middle" x="19278.5" y="-536.28" font-family="Times,serif" font-size="20.00">http://headers.websec.saarland</text>
<text text-anchor="middle" x="19278.5" y="-514.28" font-family="Times,serif" font-size="20.00">http://sub.sub.headers.websec.saarland</text>
<text text-anchor="middle" x="19278.5" y="-492.28" font-family="Times,serif" font-size="20.00">https://headers.webappsec.eu</text>
<text text-anchor="middle" x="19278.5" y="-470.28" font-family="Times,serif" font-size="20.00">https://headers.websec.saarland</text>
<text text-anchor="middle" x="19278.5" y="-448.28" font-family="Times,serif" font-size="20.00">https://sub.sub.headers.websec.saarland</text>
</g>
</g>
</svg>
