<?xml version="1.0" encoding="UTF-8" standalone="no"?>
<!DOCTYPE svg PUBLIC "-//W3C//DTD SVG 1.1//EN"
 "http://www.w3.org/Graphics/SVG/1.1/DTD/svg11.dtd">
<!-- Generated by graphviz version 2.43.0 (0)
 -->
<!-- Title: G Pages: 1 -->
<svg width="1325pt" height="715pt"
 viewBox="0.00 0.00 1324.71 715.28" xmlns="http://www.w3.org/2000/svg" xmlns:xlink="http://www.w3.org/1999/xlink">
<g id="graph0" class="graph" transform="scale(1 1) rotate(0) translate(4 711.28)">
<title>G</title>
<polygon fill="white" stroke="transparent" points="-4,4 -4,-711.28 1320.71,-711.28 1320.71,4 -4,4"/>
<g id="clust1" class="cluster">
<title>cluster_0</title>
<polygon fill="none" stroke="black" points="9.71,-8 9.71,-699.28 653.71,-699.28 653.71,-8 9.71,-8"/>
<text text-anchor="middle" x="331.71" y="-663.28" font-family="Times,serif" font-size="40.00">Tree 0, Class message send</text>
</g>
<g id="clust6" class="cluster">
<title>cluster_1</title>
<polygon fill="none" stroke="black" points="661.71,-8 661.71,-699.28 1305.71,-699.28 1305.71,-8 661.71,-8"/>
<text text-anchor="middle" x="983.71" y="-663.28" font-family="Times,serif" font-size="40.00">Tree 0, Class message timeout</text>
</g>
<!-- SG_0_Node_0 -->
<g id="node1" class="node">
<title>SG_0_Node_0</title>
<polygon fill="none" stroke="black" points="186.21,-639.28 49.21,-639.28 49.21,-603.28 186.21,-603.28 186.21,-639.28"/>
<text text-anchor="middle" x="117.71" y="-616.28" font-family="Times,serif" font-size="20.00">raw_header</text>
</g>
<!-- SG_0_Node_1 -->
<g id="node2" class="node">
<title>SG_0_Node_1</title>
<polygon fill="none" stroke="black" points="155.21,-344.07 18.21,-344.07 18.21,-308.07 155.21,-308.07 155.21,-344.07"/>
<text text-anchor="middle" x="86.71" y="-321.07" font-family="Times,serif" font-size="20.00">raw_header</text>
</g>
<!-- SG_0_Node_0&#45;&gt;SG_0_Node_1 -->
<g id="edge1" class="edge">
<title>SG_0_Node_0&#45;&gt;SG_0_Node_1</title>
<path fill="none" stroke="black" d="M56.06,-603.18C48.42,-598.56 41.59,-592.7 36.71,-585.28 -16.99,-503.57 -6.62,-452.93 36.71,-365.28 39.38,-359.88 43.21,-355.04 47.59,-350.76"/>
<polygon fill="black" stroke="black" points="50.05,-353.26 55.36,-344.1 45.49,-347.95 50.05,-353.26"/>
<text text-anchor="middle" x="82.21" y="-481.28" font-family="Times,serif" font-size="20.00">[NA]</text>
<text text-anchor="middle" x="82.21" y="-459.28" font-family="Times,serif" font-size="20.00">22 levels</text>
</g>
<!-- SG_0_Node_5 -->
<g id="node3" class="node">
<title>SG_0_Node_5</title>
<ellipse fill="none" stroke="black" cx="206.71" cy="-326.07" rx="33.88" ry="21.43"/>
<text text-anchor="middle" x="206.71" y="-321.07" font-family="Times,serif" font-size="20.00">0.5</text>
</g>
<!-- SG_0_Node_0&#45;&gt;SG_0_Node_5 -->
<g id="edge2" class="edge">
<title>SG_0_Node_0&#45;&gt;SG_0_Node_5</title>
<path fill="none" stroke="black" d="M123.13,-602.94C124.75,-597.34 126.44,-591.08 127.71,-585.28 148.9,-488.64 113.41,-451.62 161.71,-365.28 165.21,-359.03 170.15,-353.34 175.48,-348.38"/>
<polygon fill="black" stroke="black" points="178.08,-350.77 183.46,-341.64 173.56,-345.42 178.08,-350.77"/>
<text text-anchor="middle" x="409.71" y="-569.28" font-family="Times,serif" font-size="20.00">[[&#39;Content&#45;Security&#45;Policy&#39;, &#39;&#39;]]</text>
<text text-anchor="middle" x="409.71" y="-547.28" font-family="Times,serif" font-size="20.00">[[&#39;Content&#45;Security&#45;Policy&#39;, &#39;*&#39;]]</text>
<text text-anchor="middle" x="409.71" y="-525.28" font-family="Times,serif" font-size="20.00">[[&#39;Content&#45;Security&#45;Policy&#39;, &#39;frame&#45;ancestors=*&#39;]]</text>
<text text-anchor="middle" x="409.71" y="-503.28" font-family="Times,serif" font-size="20.00">[[&#39;Content&#45;Security&#45;Policy&#39;, &#39;null&#39;]]</text>
<text text-anchor="middle" x="409.71" y="-481.28" font-family="Times,serif" font-size="20.00">[[&#39;x&#45;frame&#45;options&#39;, &#39;&#39;]]</text>
<text text-anchor="middle" x="409.71" y="-459.28" font-family="Times,serif" font-size="20.00">[[&#39;x&#45;frame&#45;options&#39;, &#39;*&#39;]]</text>
<text text-anchor="middle" x="409.71" y="-437.28" font-family="Times,serif" font-size="20.00">[[&#39;x&#45;frame&#45;options&#39;, &#39;ALLOWALL&#39;]]</text>
<text text-anchor="middle" x="409.71" y="-415.28" font-family="Times,serif" font-size="20.00">[[&#39;x&#45;frame&#45;options&#39;, &#39;INVALID&#39;]]</text>
<text text-anchor="middle" x="409.71" y="-393.28" font-family="Times,serif" font-size="20.00">[[&#39;x&#45;frame&#45;options&#39;, &#39;null&#39;]]</text>
<text text-anchor="middle" x="409.71" y="-371.28" font-family="Times,serif" font-size="20.00">[]</text>
</g>
<!-- SG_0_Node_6 -->
<g id="node4" class="node">
<title>SG_0_Node_6</title>
<ellipse fill="none" stroke="black" cx="51.71" cy="-203.64" rx="33.88" ry="21.43"/>
<text text-anchor="middle" x="51.71" y="-198.64" font-family="Times,serif" font-size="20.00">0.0</text>
</g>
<!-- SG_0_Node_1&#45;&gt;SG_0_Node_6 -->
<g id="edge3" class="edge">
<title>SG_0_Node_1&#45;&gt;SG_0_Node_6</title>
<path fill="none" stroke="black" d="M62.35,-307.73C56.06,-301.88 50.11,-294.8 46.71,-286.85 39.75,-270.57 40.69,-250.79 43.52,-234.72"/>
<polygon fill="black" stroke="black" points="46.99,-235.27 45.59,-224.77 40.13,-233.84 46.99,-235.27"/>
<text text-anchor="middle" x="92.21" y="-270.85" font-family="Times,serif" font-size="20.00">[NA]</text>
<text text-anchor="middle" x="92.21" y="-248.85" font-family="Times,serif" font-size="20.00">21 levels</text>
</g>
<!-- SG_0_Node_3 -->
<g id="node5" class="node">
<title>SG_0_Node_3</title>
<polygon fill="none" stroke="black" points="210.21,-221.64 109.21,-221.64 109.21,-185.64 210.21,-185.64 210.21,-221.64"/>
<text text-anchor="middle" x="159.71" y="-198.64" font-family="Times,serif" font-size="20.00">browser</text>
</g>
<!-- SG_0_Node_1&#45;&gt;SG_0_Node_3 -->
<g id="edge4" class="edge">
<title>SG_0_Node_1&#45;&gt;SG_0_Node_3</title>
<path fill="none" stroke="black" d="M116.46,-307.91C124.35,-302.11 132.2,-295.01 137.71,-286.85 148.71,-270.59 154.22,-249.06 156.97,-232.11"/>
<polygon fill="black" stroke="black" points="160.51,-232.12 158.42,-221.73 153.57,-231.16 160.51,-232.12"/>
<text text-anchor="middle" x="396.71" y="-259.85" font-family="Times,serif" font-size="20.00">[[&#39;Content&#45;Security&#45;Policy&#39;, &#39;frame&#45;ancestors *&#39;]]</text>
</g>
<!-- SG_0_Node_7 -->
<g id="node6" class="node">
<title>SG_0_Node_7</title>
<ellipse fill="none" stroke="black" cx="66.71" cy="-37.21" rx="33.88" ry="21.43"/>
<text text-anchor="middle" x="66.71" y="-32.21" font-family="Times,serif" font-size="20.00">0.0</text>
</g>
<!-- SG_0_Node_3&#45;&gt;SG_0_Node_7 -->
<g id="edge5" class="edge">
<title>SG_0_Node_3&#45;&gt;SG_0_Node_7</title>
<path fill="none" stroke="black" d="M108.92,-186.51C91.37,-179.85 74.81,-171.94 69.71,-164.43 50.5,-136.13 53.59,-95.43 58.94,-67.96"/>
<polygon fill="black" stroke="black" points="62.37,-68.65 61.06,-58.14 55.53,-67.17 62.37,-68.65"/>
<text text-anchor="middle" x="115.21" y="-126.43" font-family="Times,serif" font-size="20.00">[NA]</text>
<text text-anchor="middle" x="115.21" y="-104.43" font-family="Times,serif" font-size="20.00">15 levels</text>
</g>
<!-- SG_0_Node_8 -->
<g id="node7" class="node">
<title>SG_0_Node_8</title>
<ellipse fill="none" stroke="black" cx="180.71" cy="-37.21" rx="33.88" ry="21.43"/>
<text text-anchor="middle" x="180.71" y="-32.21" font-family="Times,serif" font-size="20.00">0.5</text>
</g>
<!-- SG_0_Node_3&#45;&gt;SG_0_Node_8 -->
<g id="edge6" class="edge">
<title>SG_0_Node_3&#45;&gt;SG_0_Node_8</title>
<path fill="none" stroke="black" d="M161.92,-185.35C165.46,-157.63 172.45,-102.87 176.84,-68.53"/>
<polygon fill="black" stroke="black" points="180.32,-68.95 178.11,-58.58 173.37,-68.06 180.32,-68.95"/>
<text text-anchor="middle" x="399.21" y="-148.43" font-family="Times,serif" font-size="20.00">firefox Ubuntu 22.04 119 selenium headless</text>
<text text-anchor="middle" x="399.21" y="-126.43" font-family="Times,serif" font-size="20.00">firefox Ubuntu 22.04 119 selenium xvfb</text>
<text text-anchor="middle" x="399.21" y="-104.43" font-family="Times,serif" font-size="20.00">firefox macOS 14.0 119 selenium headless</text>
<text text-anchor="middle" x="399.21" y="-82.43" font-family="Times,serif" font-size="20.00">firefox macOS 14.0 119 selenium real</text>
</g>
<!-- SG_1_Node_0 -->
<g id="node8" class="node">
<title>SG_1_Node_0</title>
<polygon fill="none" stroke="black" points="1041.21,-639.28 904.21,-639.28 904.21,-603.28 1041.21,-603.28 1041.21,-639.28"/>
<text text-anchor="middle" x="972.71" y="-616.28" font-family="Times,serif" font-size="20.00">raw_header</text>
</g>
<!-- SG_1_Node_5 -->
<g id="node9" class="node">
<title>SG_1_Node_5</title>
<ellipse fill="none" stroke="black" cx="703.71" cy="-326.07" rx="33.88" ry="21.43"/>
<text text-anchor="middle" x="703.71" y="-321.07" font-family="Times,serif" font-size="20.00">0.5</text>
</g>
<!-- SG_1_Node_0&#45;&gt;SG_1_Node_5 -->
<g id="edge7" class="edge">
<title>SG_1_Node_0&#45;&gt;SG_1_Node_5</title>
<path fill="none" stroke="black" d="M903.97,-616.64C823.42,-611.66 699.03,-601.44 684.71,-585.28 652.29,-548.68 673.53,-412.87 684.71,-365.28 685.47,-362.03 686.56,-358.75 687.82,-355.54"/>
<polygon fill="black" stroke="black" points="691.09,-356.8 692.03,-346.24 684.72,-353.91 691.09,-356.8"/>
<text text-anchor="middle" x="932.71" y="-569.28" font-family="Times,serif" font-size="20.00">[[&#39;Content&#45;Security&#45;Policy&#39;, &#39;&#39;]]</text>
<text text-anchor="middle" x="932.71" y="-547.28" font-family="Times,serif" font-size="20.00">[[&#39;Content&#45;Security&#45;Policy&#39;, &#39;*&#39;]]</text>
<text text-anchor="middle" x="932.71" y="-525.28" font-family="Times,serif" font-size="20.00">[[&#39;Content&#45;Security&#45;Policy&#39;, &#39;frame&#45;ancestors=*&#39;]]</text>
<text text-anchor="middle" x="932.71" y="-503.28" font-family="Times,serif" font-size="20.00">[[&#39;Content&#45;Security&#45;Policy&#39;, &#39;null&#39;]]</text>
<text text-anchor="middle" x="932.71" y="-481.28" font-family="Times,serif" font-size="20.00">[[&#39;x&#45;frame&#45;options&#39;, &#39;&#39;]]</text>
<text text-anchor="middle" x="932.71" y="-459.28" font-family="Times,serif" font-size="20.00">[[&#39;x&#45;frame&#45;options&#39;, &#39;*&#39;]]</text>
<text text-anchor="middle" x="932.71" y="-437.28" font-family="Times,serif" font-size="20.00">[[&#39;x&#45;frame&#45;options&#39;, &#39;ALLOWALL&#39;]]</text>
<text text-anchor="middle" x="932.71" y="-415.28" font-family="Times,serif" font-size="20.00">[[&#39;x&#45;frame&#45;options&#39;, &#39;INVALID&#39;]]</text>
<text text-anchor="middle" x="932.71" y="-393.28" font-family="Times,serif" font-size="20.00">[[&#39;x&#45;frame&#45;options&#39;, &#39;null&#39;]]</text>
<text text-anchor="middle" x="932.71" y="-371.28" font-family="Times,serif" font-size="20.00">[]</text>
</g>
<!-- SG_1_Node_2 -->
<g id="node10" class="node">
<title>SG_1_Node_2</title>
<polygon fill="none" stroke="black" points="1275.21,-344.07 1138.21,-344.07 1138.21,-308.07 1275.21,-308.07 1275.21,-344.07"/>
<text text-anchor="middle" x="1206.71" y="-321.07" font-family="Times,serif" font-size="20.00">raw_header</text>
</g>
<!-- SG_1_Node_0&#45;&gt;SG_1_Node_2 -->
<g id="edge8" class="edge">
<title>SG_1_Node_0&#45;&gt;SG_1_Node_2</title>
<path fill="none" stroke="black" d="M1041.34,-617.85C1095.74,-614.37 1165.66,-605.89 1184.71,-585.28 1243.85,-521.3 1226.11,-406.35 1213.96,-354.16"/>
<polygon fill="black" stroke="black" points="1217.32,-353.19 1211.55,-344.31 1210.52,-354.85 1217.32,-353.19"/>
<text text-anchor="middle" x="1271.21" y="-481.28" font-family="Times,serif" font-size="20.00">[NA]</text>
<text text-anchor="middle" x="1271.21" y="-459.28" font-family="Times,serif" font-size="20.00">22 levels</text>
</g>
<!-- SG_1_Node_3 -->
<g id="node11" class="node">
<title>SG_1_Node_3</title>
<polygon fill="none" stroke="black" points="771.21,-221.64 670.21,-221.64 670.21,-185.64 771.21,-185.64 771.21,-221.64"/>
<text text-anchor="middle" x="720.71" y="-198.64" font-family="Times,serif" font-size="20.00">browser</text>
</g>
<!-- SG_1_Node_2&#45;&gt;SG_1_Node_3 -->
<g id="edge9" class="edge">
<title>SG_1_Node_2&#45;&gt;SG_1_Node_3</title>
<path fill="none" stroke="black" d="M1137.87,-324.76C1009.66,-323.46 744.71,-317.11 716.71,-286.85 703.27,-272.32 705.55,-249.43 710.47,-231.49"/>
<polygon fill="black" stroke="black" points="713.84,-232.45 713.49,-221.86 707.16,-230.36 713.84,-232.45"/>
<text text-anchor="middle" x="959.71" y="-259.85" font-family="Times,serif" font-size="20.00">[[&#39;Content&#45;Security&#45;Policy&#39;, &#39;frame&#45;ancestors *&#39;]]</text>
</g>
<!-- SG_1_Node_6 -->
<g id="node12" class="node">
<title>SG_1_Node_6</title>
<ellipse fill="none" stroke="black" cx="1206.71" cy="-203.64" rx="33.88" ry="21.43"/>
<text text-anchor="middle" x="1206.71" y="-198.64" font-family="Times,serif" font-size="20.00">1.0</text>
</g>
<!-- SG_1_Node_2&#45;&gt;SG_1_Node_6 -->
<g id="edge10" class="edge">
<title>SG_1_Node_2&#45;&gt;SG_1_Node_6</title>
<path fill="none" stroke="black" d="M1206.71,-307.81C1206.71,-288.95 1206.71,-258.34 1206.71,-235.36"/>
<polygon fill="black" stroke="black" points="1210.21,-235.09 1206.71,-225.09 1203.21,-235.09 1210.21,-235.09"/>
<text text-anchor="middle" x="1252.21" y="-270.85" font-family="Times,serif" font-size="20.00">[NA]</text>
<text text-anchor="middle" x="1252.21" y="-248.85" font-family="Times,serif" font-size="20.00">21 levels</text>
</g>
<!-- SG_1_Node_7 -->
<g id="node13" class="node">
<title>SG_1_Node_7</title>
<ellipse fill="none" stroke="black" cx="711.71" cy="-37.21" rx="33.88" ry="21.43"/>
<text text-anchor="middle" x="711.71" y="-32.21" font-family="Times,serif" font-size="20.00">0.5</text>
</g>
<!-- SG_1_Node_3&#45;&gt;SG_1_Node_7 -->
<g id="edge11" class="edge">
<title>SG_1_Node_3&#45;&gt;SG_1_Node_7</title>
<path fill="none" stroke="black" d="M716.4,-185.63C714.93,-179.06 713.47,-171.44 712.71,-164.43 709.23,-132.02 709.45,-94.66 710.26,-69.04"/>
<polygon fill="black" stroke="black" points="713.76,-68.95 710.63,-58.83 706.77,-68.7 713.76,-68.95"/>
<text text-anchor="middle" x="937.21" y="-148.43" font-family="Times,serif" font-size="20.00">firefox Ubuntu 22.04 119 selenium headless</text>
<text text-anchor="middle" x="937.21" y="-126.43" font-family="Times,serif" font-size="20.00">firefox Ubuntu 22.04 119 selenium xvfb</text>
<text text-anchor="middle" x="937.21" y="-104.43" font-family="Times,serif" font-size="20.00">firefox macOS 14.0 119 selenium headless</text>
<text text-anchor="middle" x="937.21" y="-82.43" font-family="Times,serif" font-size="20.00">firefox macOS 14.0 119 selenium real</text>
</g>
<!-- SG_1_Node_8 -->
<g id="node14" class="node">
<title>SG_1_Node_8</title>
<ellipse fill="none" stroke="black" cx="1183.71" cy="-37.21" rx="33.88" ry="21.43"/>
<text text-anchor="middle" x="1183.71" y="-32.21" font-family="Times,serif" font-size="20.00">1.0</text>
</g>
<!-- SG_1_Node_3&#45;&gt;SG_1_Node_8 -->
<g id="edge12" class="edge">
<title>SG_1_Node_3&#45;&gt;SG_1_Node_8</title>
<path fill="none" stroke="black" d="M771.55,-201.66C881.42,-199.07 1133.47,-190.34 1161.71,-164.43 1187.7,-140.59 1189.93,-97.87 1187.87,-68.8"/>
<polygon fill="black" stroke="black" points="1191.35,-68.41 1186.96,-58.77 1184.38,-69.05 1191.35,-68.41"/>
<text text-anchor="middle" x="1233.21" y="-126.43" font-family="Times,serif" font-size="20.00">[NA]</text>
<text text-anchor="middle" x="1233.21" y="-104.43" font-family="Times,serif" font-size="20.00">15 levels</text>
</g>
</g>
</svg>
