<?xml version="1.0" encoding="UTF-8" standalone="no"?>
<!DOCTYPE svg PUBLIC "-//W3C//DTD SVG 1.1//EN"
 "http://www.w3.org/Graphics/SVG/1.1/DTD/svg11.dtd">
<!-- Generated by graphviz version 2.43.0 (0)
 -->
<!-- Title: G Pages: 1 -->
<svg width="5180pt" height="1186pt"
 viewBox="0.00 0.00 5180.00 1186.13" xmlns="http://www.w3.org/2000/svg" xmlns:xlink="http://www.w3.org/1999/xlink">
<g id="graph0" class="graph" transform="scale(1 1) rotate(0) translate(4 1182.13)">
<title>G</title>
<polygon fill="white" stroke="transparent" points="-4,4 -4,-1182.13 5176,-1182.13 5176,4 -4,4"/>
<g id="clust1" class="cluster">
<title>cluster_0</title>
<polygon fill="none" stroke="black" points="8,-8 8,-1170.13 2582,-1170.13 2582,-8 8,-8"/>
<text text-anchor="middle" x="1295" y="-1134.13" font-family="Times,serif" font-size="40.00">Tree 0, Class message send</text>
</g>
<g id="clust9" class="cluster">
<title>cluster_1</title>
<polygon fill="none" stroke="black" points="2590,-8 2590,-1170.13 5164,-1170.13 5164,-8 2590,-8"/>
<text text-anchor="middle" x="3877" y="-1134.13" font-family="Times,serif" font-size="40.00">Tree 0, Class message timeout</text>
</g>
<!-- SG_0_Node_0 -->
<g id="node1" class="node">
<title>SG_0_Node_0</title>
<polygon fill="none" stroke="black" points="1509.5,-1110.13 1372.5,-1110.13 1372.5,-1074.13 1509.5,-1074.13 1509.5,-1110.13"/>
<text text-anchor="middle" x="1441" y="-1087.13" font-family="Times,serif" font-size="20.00">raw_header</text>
</g>
<!-- SG_0_Node_1 -->
<g id="node2" class="node">
<title>SG_0_Node_1</title>
<polygon fill="none" stroke="black" points="976.5,-994.13 839.5,-994.13 839.5,-958.13 976.5,-958.13 976.5,-994.13"/>
<text text-anchor="middle" x="908" y="-971.13" font-family="Times,serif" font-size="20.00">raw_header</text>
</g>
<!-- SG_0_Node_0&#45;&gt;SG_0_Node_1 -->
<g id="edge1" class="edge">
<title>SG_0_Node_0&#45;&gt;SG_0_Node_1</title>
<path fill="none" stroke="black" d="M1372.41,-1076.46C1273.4,-1055.29 1090.9,-1016.25 986.59,-993.94"/>
<polygon fill="black" stroke="black" points="987.26,-990.51 976.75,-991.84 985.79,-997.35 987.26,-990.51"/>
<text text-anchor="middle" x="1313.5" y="-1040.13" font-family="Times,serif" font-size="20.00">[NA]</text>
<text text-anchor="middle" x="1313.5" y="-1018.13" font-family="Times,serif" font-size="20.00">20 levels</text>
</g>
<!-- SG_0_Node_2 -->
<g id="node3" class="node">
<title>SG_0_Node_2</title>
<polygon fill="none" stroke="black" points="2025.5,-994.13 1924.5,-994.13 1924.5,-958.13 2025.5,-958.13 2025.5,-994.13"/>
<text text-anchor="middle" x="1975" y="-971.13" font-family="Times,serif" font-size="20.00">browser</text>
</g>
<!-- SG_0_Node_0&#45;&gt;SG_0_Node_2 -->
<g id="edge2" class="edge">
<title>SG_0_Node_0&#45;&gt;SG_0_Node_2</title>
<path fill="none" stroke="black" d="M1509.72,-1076.46C1614.98,-1053.99 1814.42,-1011.41 1914.51,-990.05"/>
<polygon fill="black" stroke="black" points="1915.41,-993.43 1924.46,-987.92 1913.95,-986.59 1915.41,-993.43"/>
<text text-anchor="middle" x="1847.5" y="-1029.13" font-family="Times,serif" font-size="20.00">12 levels</text>
</g>
<!-- SG_0_Node_3 -->
<g id="node4" class="node">
<title>SG_0_Node_3</title>
<polygon fill="none" stroke="black" points="482.5,-808.92 345.5,-808.92 345.5,-772.92 482.5,-772.92 482.5,-808.92"/>
<text text-anchor="middle" x="414" y="-785.92" font-family="Times,serif" font-size="20.00">raw_header</text>
</g>
<!-- SG_0_Node_1&#45;&gt;SG_0_Node_3 -->
<g id="edge5" class="edge">
<title>SG_0_Node_1&#45;&gt;SG_0_Node_3</title>
<path fill="none" stroke="black" d="M856.02,-958.08C839.36,-952.49 820.86,-946.17 804,-940.13 682.78,-896.72 541.85,-842.13 467.04,-812.82"/>
<polygon fill="black" stroke="black" points="467.96,-809.42 457.37,-809.03 465.4,-815.94 467.96,-809.42"/>
<text text-anchor="middle" x="849.5" y="-891.13" font-family="Times,serif" font-size="20.00">[NA]</text>
<text text-anchor="middle" x="849.5" y="-869.13" font-family="Times,serif" font-size="20.00">15 levels</text>
</g>
<!-- SG_0_Node_4 -->
<g id="node5" class="node">
<title>SG_0_Node_4</title>
<polygon fill="none" stroke="black" points="1359,-808.92 1227,-808.92 1227,-772.92 1359,-772.92 1359,-808.92"/>
<text text-anchor="middle" x="1293" y="-785.92" font-family="Times,serif" font-size="20.00">resp_origin</text>
</g>
<!-- SG_0_Node_1&#45;&gt;SG_0_Node_4 -->
<g id="edge6" class="edge">
<title>SG_0_Node_1&#45;&gt;SG_0_Node_4</title>
<path fill="none" stroke="black" d="M904.25,-957.9C898.72,-927.36 892.45,-863.79 927,-830.13 947.3,-810.36 1115.23,-799.64 1216.43,-794.92"/>
<polygon fill="black" stroke="black" points="1216.78,-798.41 1226.61,-794.46 1216.46,-791.42 1216.78,-798.41"/>
<text text-anchor="middle" x="1449" y="-924.13" font-family="Times,serif" font-size="20.00">[[&#39;Content&#45;Security&#45;Policy&#39;, &quot;frame&#45;ancestors &#39;self&#39;&quot;]]</text>
<text text-anchor="middle" x="1449" y="-902.13" font-family="Times,serif" font-size="20.00">[[&#39;Content&#45;Security&#45;Policy&#39;, &#39;*&#39;], [&#39;X&#45;Frame&#45;Options&#39;, &#39;SAMEORIGIN&#39;]]</text>
<text text-anchor="middle" x="1449" y="-880.13" font-family="Times,serif" font-size="20.00">[[&#39;Content&#45;Security&#45;Policy&#39;, &#39;frame&#45;ancestors *.headers.websec.saarland&#39;]]</text>
<text text-anchor="middle" x="1449" y="-858.13" font-family="Times,serif" font-size="20.00">[[&#39;X&#45;Frame&#45;Options&#39;, &#39;DENY&#39;], [&#39;Content&#45;Security&#45;Policy&#39;, &#39;frame&#45;ancestors *.headers.websec.saarland&#39;]]</text>
<text text-anchor="middle" x="1449" y="-836.13" font-family="Times,serif" font-size="20.00">[[&#39;x&#45;frame&#45;options&#39;, &#39;SAMEORIGIN&#39;]]</text>
</g>
<!-- SG_0_Node_15 -->
<g id="node6" class="node">
<title>SG_0_Node_15</title>
<ellipse fill="none" stroke="black" cx="1975" cy="-790.92" rx="33.88" ry="21.43"/>
<text text-anchor="middle" x="1975" y="-785.92" font-family="Times,serif" font-size="20.00">0.0</text>
</g>
<!-- SG_0_Node_2&#45;&gt;SG_0_Node_15 -->
<g id="edge3" class="edge">
<title>SG_0_Node_2&#45;&gt;SG_0_Node_15</title>
<path fill="none" stroke="black" d="M1975,-957.9C1975,-926.87 1975,-861.26 1975,-822.47"/>
<polygon fill="black" stroke="black" points="1978.5,-822.29 1975,-812.29 1971.5,-822.29 1978.5,-822.29"/>
<text text-anchor="middle" x="2166" y="-880.13" font-family="Times,serif" font-size="20.00">safari macOS 14.0 17.0 selenium real</text>
</g>
<!-- SG_0_Node_16 -->
<g id="node7" class="node">
<title>SG_0_Node_16</title>
<ellipse fill="none" stroke="black" cx="2380" cy="-790.92" rx="33.88" ry="21.43"/>
<text text-anchor="middle" x="2380" y="-785.92" font-family="Times,serif" font-size="20.00">0.5</text>
</g>
<!-- SG_0_Node_2&#45;&gt;SG_0_Node_16 -->
<g id="edge4" class="edge">
<title>SG_0_Node_2&#45;&gt;SG_0_Node_16</title>
<path fill="none" stroke="black" d="M2025.85,-973.93C2124.5,-971.1 2334.35,-962.49 2358,-940.13 2389.56,-910.3 2389.31,-856.35 2385.32,-822.42"/>
<polygon fill="black" stroke="black" points="2388.74,-821.61 2383.93,-812.17 2381.81,-822.55 2388.74,-821.61"/>
<text text-anchor="middle" x="2432.5" y="-891.13" font-family="Times,serif" font-size="20.00">[NA]</text>
<text text-anchor="middle" x="2432.5" y="-869.13" font-family="Times,serif" font-size="20.00">18 levels</text>
</g>
<!-- SG_0_Node_17 -->
<g id="node8" class="node">
<title>SG_0_Node_17</title>
<ellipse fill="none" stroke="black" cx="298" cy="-558.49" rx="33.88" ry="21.43"/>
<text text-anchor="middle" x="298" y="-553.49" font-family="Times,serif" font-size="20.00">0.0</text>
</g>
<!-- SG_0_Node_3&#45;&gt;SG_0_Node_17 -->
<g id="edge17" class="edge">
<title>SG_0_Node_3&#45;&gt;SG_0_Node_17</title>
<path fill="none" stroke="black" d="M345.44,-772.98C335.25,-767.69 325.87,-760.77 319,-751.71 283.09,-704.33 286.81,-630.52 292.52,-589.52"/>
<polygon fill="black" stroke="black" points="295.99,-590.01 294.03,-579.6 289.06,-588.96 295.99,-590.01"/>
<text text-anchor="middle" x="364.5" y="-680.71" font-family="Times,serif" font-size="20.00">[NA]</text>
<text text-anchor="middle" x="364.5" y="-658.71" font-family="Times,serif" font-size="20.00">13 levels</text>
</g>
<!-- SG_0_Node_6 -->
<g id="node9" class="node">
<title>SG_0_Node_6</title>
<polygon fill="none" stroke="black" points="482,-576.49 350,-576.49 350,-540.49 482,-540.49 482,-576.49"/>
<text text-anchor="middle" x="416" y="-553.49" font-family="Times,serif" font-size="20.00">resp_origin</text>
</g>
<!-- SG_0_Node_3&#45;&gt;SG_0_Node_6 -->
<g id="edge18" class="edge">
<title>SG_0_Node_3&#45;&gt;SG_0_Node_6</title>
<path fill="none" stroke="black" d="M414.15,-772.6C414.5,-732.89 415.34,-634.99 415.76,-586.96"/>
<polygon fill="black" stroke="black" points="419.26,-586.73 415.85,-576.7 412.26,-586.67 419.26,-586.73"/>
<text text-anchor="middle" x="843" y="-680.71" font-family="Times,serif" font-size="20.00">[[&#39;Content&#45;Security&#45;Policy&#39;, &#39;frame&#45;ancestors https://sub.headers.websec.saarland&#39;]]</text>
<text text-anchor="middle" x="843" y="-658.71" font-family="Times,serif" font-size="20.00">[[&#39;Content&#45;Security&#45;Policy&#39;, &#39;frame&#45;ancestors https://sub.headers.websec.saarland/&#39;]]</text>
</g>
<!-- SG_0_Node_7 -->
<g id="node10" class="node">
<title>SG_0_Node_7</title>
<polygon fill="none" stroke="black" points="1359,-576.49 1227,-576.49 1227,-540.49 1359,-540.49 1359,-576.49"/>
<text text-anchor="middle" x="1293" y="-553.49" font-family="Times,serif" font-size="20.00">resp_origin</text>
</g>
<!-- SG_0_Node_4&#45;&gt;SG_0_Node_7 -->
<g id="edge7" class="edge">
<title>SG_0_Node_4&#45;&gt;SG_0_Node_7</title>
<path fill="none" stroke="black" d="M1293,-772.6C1293,-732.89 1293,-634.99 1293,-586.96"/>
<polygon fill="black" stroke="black" points="1296.5,-586.7 1293,-576.7 1289.5,-586.7 1296.5,-586.7"/>
<text text-anchor="middle" x="1500.5" y="-735.71" font-family="Times,serif" font-size="20.00">[NA]</text>
<text text-anchor="middle" x="1500.5" y="-713.71" font-family="Times,serif" font-size="20.00">http://headers.webappsec.eu</text>
<text text-anchor="middle" x="1500.5" y="-691.71" font-family="Times,serif" font-size="20.00">http://headers.websec.saarland</text>
<text text-anchor="middle" x="1500.5" y="-669.71" font-family="Times,serif" font-size="20.00">http://sub.sub.headers.websec.saarland</text>
<text text-anchor="middle" x="1500.5" y="-647.71" font-family="Times,serif" font-size="20.00">https://headers.webappsec.eu</text>
<text text-anchor="middle" x="1500.5" y="-625.71" font-family="Times,serif" font-size="20.00">https://headers.websec.saarland</text>
<text text-anchor="middle" x="1500.5" y="-603.71" font-family="Times,serif" font-size="20.00">https://sub.sub.headers.websec.saarland</text>
</g>
<!-- SG_0_Node_8 -->
<g id="node11" class="node">
<title>SG_0_Node_8</title>
<polygon fill="none" stroke="black" points="1781.5,-576.49 1680.5,-576.49 1680.5,-540.49 1781.5,-540.49 1781.5,-576.49"/>
<text text-anchor="middle" x="1731" y="-553.49" font-family="Times,serif" font-size="20.00">browser</text>
</g>
<!-- SG_0_Node_4&#45;&gt;SG_0_Node_8 -->
<g id="edge8" class="edge">
<title>SG_0_Node_4&#45;&gt;SG_0_Node_8</title>
<path fill="none" stroke="black" d="M1359.42,-788.33C1470.57,-785.03 1684.56,-775.6 1709,-751.71 1753.07,-708.61 1745.26,-628.52 1737.31,-586.62"/>
<polygon fill="black" stroke="black" points="1740.69,-585.7 1735.26,-576.6 1733.83,-587.1 1740.69,-585.7"/>
<text text-anchor="middle" x="1929.5" y="-680.71" font-family="Times,serif" font-size="20.00">http://sub.headers.websec.saarland</text>
<text text-anchor="middle" x="1929.5" y="-658.71" font-family="Times,serif" font-size="20.00">https://sub.headers.websec.saarland</text>
</g>
<!-- SG_0_Node_18 -->
<g id="node12" class="node">
<title>SG_0_Node_18</title>
<ellipse fill="none" stroke="black" cx="50" cy="-304.07" rx="33.88" ry="21.43"/>
<text text-anchor="middle" x="50" y="-299.07" font-family="Times,serif" font-size="20.00">0.0</text>
</g>
<!-- SG_0_Node_6&#45;&gt;SG_0_Node_18 -->
<g id="edge19" class="edge">
<title>SG_0_Node_6&#45;&gt;SG_0_Node_18</title>
<path fill="none" stroke="black" d="M357.29,-540.46C351.82,-539.24 346.32,-538.15 341,-537.28 307.82,-531.88 62.05,-543.75 39,-519.28 -8.11,-469.28 18.39,-380.11 36.87,-334.19"/>
<polygon fill="black" stroke="black" points="40.16,-335.38 40.78,-324.81 33.7,-332.69 40.16,-335.38"/>
<text text-anchor="middle" x="246.5" y="-503.28" font-family="Times,serif" font-size="20.00">[NA]</text>
<text text-anchor="middle" x="246.5" y="-481.28" font-family="Times,serif" font-size="20.00">http://headers.webappsec.eu</text>
<text text-anchor="middle" x="246.5" y="-459.28" font-family="Times,serif" font-size="20.00">http://headers.websec.saarland</text>
<text text-anchor="middle" x="246.5" y="-437.28" font-family="Times,serif" font-size="20.00">http://sub.headers.websec.saarland</text>
<text text-anchor="middle" x="246.5" y="-415.28" font-family="Times,serif" font-size="20.00">http://sub.sub.headers.websec.saarland</text>
<text text-anchor="middle" x="246.5" y="-393.28" font-family="Times,serif" font-size="20.00">https://headers.webappsec.eu</text>
<text text-anchor="middle" x="246.5" y="-371.28" font-family="Times,serif" font-size="20.00">https://headers.websec.saarland</text>
<text text-anchor="middle" x="246.5" y="-349.28" font-family="Times,serif" font-size="20.00">https://sub.sub.headers.websec.saarland</text>
</g>
<!-- SG_0_Node_9 -->
<g id="node13" class="node">
<title>SG_0_Node_9</title>
<polygon fill="none" stroke="black" points="481,-322.07 359,-322.07 359,-286.07 481,-286.07 481,-322.07"/>
<text text-anchor="middle" x="420" y="-299.07" font-family="Times,serif" font-size="20.00">org_origin</text>
</g>
<!-- SG_0_Node_6&#45;&gt;SG_0_Node_9 -->
<g id="edge20" class="edge">
<title>SG_0_Node_6&#45;&gt;SG_0_Node_9</title>
<path fill="none" stroke="black" d="M441.55,-540.36C448.16,-534.53 454.41,-527.39 458,-519.28 489.63,-447.74 487.83,-415.59 458,-343.28 456,-338.43 453.05,-333.87 449.67,-329.71"/>
<polygon fill="black" stroke="black" points="452.12,-327.2 442.76,-322.22 446.97,-331.95 452.12,-327.2"/>
<text text-anchor="middle" x="667.5" y="-426.28" font-family="Times,serif" font-size="20.00">https://sub.headers.websec.saarland</text>
</g>
<!-- SG_0_Node_19 -->
<g id="node14" class="node">
<title>SG_0_Node_19</title>
<ellipse fill="none" stroke="black" cx="939" cy="-304.07" rx="33.88" ry="21.43"/>
<text text-anchor="middle" x="939" y="-299.07" font-family="Times,serif" font-size="20.00">0.0</text>
</g>
<!-- SG_0_Node_7&#45;&gt;SG_0_Node_19 -->
<g id="edge11" class="edge">
<title>SG_0_Node_7&#45;&gt;SG_0_Node_19</title>
<path fill="none" stroke="black" d="M1226.82,-554.37C1134.54,-549.37 976.39,-538.14 958,-519.28 910.14,-470.2 921.16,-381.33 931.22,-334.99"/>
<polygon fill="black" stroke="black" points="934.63,-335.77 933.46,-325.24 927.81,-334.2 934.63,-335.77"/>
<text text-anchor="middle" x="1123.5" y="-470.28" font-family="Times,serif" font-size="20.00">[NA]</text>
<text text-anchor="middle" x="1123.5" y="-448.28" font-family="Times,serif" font-size="20.00">http://headers.webappsec.eu</text>
<text text-anchor="middle" x="1123.5" y="-426.28" font-family="Times,serif" font-size="20.00">http://headers.websec.saarland</text>
<text text-anchor="middle" x="1123.5" y="-404.28" font-family="Times,serif" font-size="20.00">https://headers.webappsec.eu</text>
<text text-anchor="middle" x="1123.5" y="-382.28" font-family="Times,serif" font-size="20.00">https://headers.websec.saarland</text>
</g>
<!-- SG_0_Node_10 -->
<g id="node15" class="node">
<title>SG_0_Node_10</title>
<polygon fill="none" stroke="black" points="1361.5,-322.07 1224.5,-322.07 1224.5,-286.07 1361.5,-286.07 1361.5,-322.07"/>
<text text-anchor="middle" x="1293" y="-299.07" font-family="Times,serif" font-size="20.00">raw_header</text>
</g>
<!-- SG_0_Node_7&#45;&gt;SG_0_Node_10 -->
<g id="edge12" class="edge">
<title>SG_0_Node_7&#45;&gt;SG_0_Node_10</title>
<path fill="none" stroke="black" d="M1293,-540.14C1293,-496.99 1293,-384.53 1293,-332.37"/>
<polygon fill="black" stroke="black" points="1296.5,-332.2 1293,-322.2 1289.5,-332.2 1296.5,-332.2"/>
<text text-anchor="middle" x="1500.5" y="-437.28" font-family="Times,serif" font-size="20.00">http://sub.sub.headers.websec.saarland</text>
<text text-anchor="middle" x="1500.5" y="-415.28" font-family="Times,serif" font-size="20.00">https://sub.sub.headers.websec.saarland</text>
</g>
<!-- SG_0_Node_20 -->
<g id="node16" class="node">
<title>SG_0_Node_20</title>
<ellipse fill="none" stroke="black" cx="1731" cy="-304.07" rx="33.88" ry="21.43"/>
<text text-anchor="middle" x="1731" y="-299.07" font-family="Times,serif" font-size="20.00">0.0</text>
</g>
<!-- SG_0_Node_8&#45;&gt;SG_0_Node_20 -->
<g id="edge9" class="edge">
<title>SG_0_Node_8&#45;&gt;SG_0_Node_20</title>
<path fill="none" stroke="black" d="M1731,-540.14C1731,-497.83 1731,-388.92 1731,-335.51"/>
<polygon fill="black" stroke="black" points="1734.5,-335.31 1731,-325.31 1727.5,-335.31 1734.5,-335.31"/>
<text text-anchor="middle" x="1922" y="-426.28" font-family="Times,serif" font-size="20.00">safari macOS 14.0 17.0 selenium real</text>
</g>
<!-- SG_0_Node_21 -->
<g id="node17" class="node">
<title>SG_0_Node_21</title>
<ellipse fill="none" stroke="black" cx="2136" cy="-304.07" rx="33.88" ry="21.43"/>
<text text-anchor="middle" x="2136" y="-299.07" font-family="Times,serif" font-size="20.00">0.5</text>
</g>
<!-- SG_0_Node_8&#45;&gt;SG_0_Node_21 -->
<g id="edge10" class="edge">
<title>SG_0_Node_8&#45;&gt;SG_0_Node_21</title>
<path fill="none" stroke="black" d="M1781.57,-555.95C1880.24,-552.44 2090.9,-542.31 2114,-519.28 2162.61,-470.81 2152.81,-381.67 2143.38,-335.14"/>
<polygon fill="black" stroke="black" points="2146.8,-334.38 2141.27,-325.34 2139.95,-335.86 2146.8,-334.38"/>
<text text-anchor="middle" x="2196.5" y="-437.28" font-family="Times,serif" font-size="20.00">[NA]</text>
<text text-anchor="middle" x="2196.5" y="-415.28" font-family="Times,serif" font-size="20.00">18 levels</text>
</g>
<!-- SG_0_Node_22 -->
<g id="node18" class="node">
<title>SG_0_Node_22</title>
<ellipse fill="none" stroke="black" cx="50" cy="-159.64" rx="33.88" ry="21.43"/>
<text text-anchor="middle" x="50" y="-154.64" font-family="Times,serif" font-size="20.00">0.0</text>
</g>
<!-- SG_0_Node_9&#45;&gt;SG_0_Node_22 -->
<g id="edge21" class="edge">
<title>SG_0_Node_9&#45;&gt;SG_0_Node_22</title>
<path fill="none" stroke="black" d="M358.83,-301.02C259.81,-297.08 73.37,-286.81 53,-264.85 34.96,-245.41 36.59,-214.07 41.28,-190.83"/>
<polygon fill="black" stroke="black" points="44.76,-191.33 43.6,-180.8 37.94,-189.76 44.76,-191.33"/>
<text text-anchor="middle" x="234.5" y="-226.85" font-family="Times,serif" font-size="20.00">http://sub.headers.websec.saarland</text>
</g>
<!-- SG_0_Node_12 -->
<g id="node19" class="node">
<title>SG_0_Node_12</title>
<polygon fill="none" stroke="black" points="470.5,-177.64 369.5,-177.64 369.5,-141.64 470.5,-141.64 470.5,-177.64"/>
<text text-anchor="middle" x="420" y="-154.64" font-family="Times,serif" font-size="20.00">browser</text>
</g>
<!-- SG_0_Node_9&#45;&gt;SG_0_Node_12 -->
<g id="edge22" class="edge">
<title>SG_0_Node_9&#45;&gt;SG_0_Node_12</title>
<path fill="none" stroke="black" d="M420,-285.89C420,-261.61 420,-217.02 420,-188.12"/>
<polygon fill="black" stroke="black" points="423.5,-187.88 420,-177.88 416.5,-187.88 423.5,-187.88"/>
<text text-anchor="middle" x="606.5" y="-237.85" font-family="Times,serif" font-size="20.00">[NA]</text>
<text text-anchor="middle" x="606.5" y="-215.85" font-family="Times,serif" font-size="20.00">https://sub.headers.websec.saarland</text>
</g>
<!-- SG_0_Node_23 -->
<g id="node20" class="node">
<title>SG_0_Node_23</title>
<ellipse fill="none" stroke="black" cx="816" cy="-159.64" rx="33.88" ry="21.43"/>
<text text-anchor="middle" x="816" y="-154.64" font-family="Times,serif" font-size="20.00">0.0</text>
</g>
<!-- SG_0_Node_10&#45;&gt;SG_0_Node_23 -->
<g id="edge13" class="edge">
<title>SG_0_Node_10&#45;&gt;SG_0_Node_23</title>
<path fill="none" stroke="black" d="M1224.4,-298.8C1093.39,-290.5 819.89,-272.32 813,-264.85 794.81,-245.16 798.67,-213.38 805.16,-190.09"/>
<polygon fill="black" stroke="black" points="808.55,-190.95 808.14,-180.37 801.86,-188.9 808.55,-190.95"/>
<text text-anchor="middle" x="1158.5" y="-248.85" font-family="Times,serif" font-size="20.00">[[&#39;Content&#45;Security&#45;Policy&#39;, &quot;frame&#45;ancestors &#39;self&#39;&quot;]]</text>
<text text-anchor="middle" x="1158.5" y="-226.85" font-family="Times,serif" font-size="20.00">[[&#39;Content&#45;Security&#45;Policy&#39;, &#39;*&#39;], [&#39;X&#45;Frame&#45;Options&#39;, &#39;SAMEORIGIN&#39;]]</text>
<text text-anchor="middle" x="1158.5" y="-204.85" font-family="Times,serif" font-size="20.00">[[&#39;x&#45;frame&#45;options&#39;, &#39;SAMEORIGIN&#39;]]</text>
</g>
<!-- SG_0_Node_13 -->
<g id="node21" class="node">
<title>SG_0_Node_13</title>
<polygon fill="none" stroke="black" points="1580.5,-177.64 1479.5,-177.64 1479.5,-141.64 1580.5,-141.64 1580.5,-177.64"/>
<text text-anchor="middle" x="1530" y="-154.64" font-family="Times,serif" font-size="20.00">browser</text>
</g>
<!-- SG_0_Node_10&#45;&gt;SG_0_Node_13 -->
<g id="edge14" class="edge">
<title>SG_0_Node_10&#45;&gt;SG_0_Node_13</title>
<path fill="none" stroke="black" d="M1361.73,-299.08C1416.57,-294.45 1487.47,-284.73 1508,-264.85 1528.39,-245.11 1532.24,-211.58 1532.05,-187.89"/>
<polygon fill="black" stroke="black" points="1535.55,-187.66 1531.73,-177.78 1528.55,-187.89 1535.55,-187.66"/>
<text text-anchor="middle" x="2053" y="-237.85" font-family="Times,serif" font-size="20.00">[[&#39;Content&#45;Security&#45;Policy&#39;, &#39;frame&#45;ancestors *.headers.websec.saarland&#39;]]</text>
<text text-anchor="middle" x="2053" y="-215.85" font-family="Times,serif" font-size="20.00">[[&#39;X&#45;Frame&#45;Options&#39;, &#39;DENY&#39;], [&#39;Content&#45;Security&#45;Policy&#39;, &#39;frame&#45;ancestors *.headers.websec.saarland&#39;]]</text>
</g>
<!-- SG_0_Node_24 -->
<g id="node22" class="node">
<title>SG_0_Node_24</title>
<ellipse fill="none" stroke="black" cx="235" cy="-37.21" rx="33.88" ry="21.43"/>
<text text-anchor="middle" x="235" y="-32.21" font-family="Times,serif" font-size="20.00">0.0</text>
</g>
<!-- SG_0_Node_12&#45;&gt;SG_0_Node_24 -->
<g id="edge23" class="edge">
<title>SG_0_Node_12&#45;&gt;SG_0_Node_24</title>
<path fill="none" stroke="black" d="M369.24,-155.09C320.75,-150.52 252.65,-140.63 236,-120.43 224.27,-106.19 224.13,-85.39 226.86,-68.27"/>
<polygon fill="black" stroke="black" points="230.35,-68.67 228.86,-58.18 223.48,-67.31 230.35,-68.67"/>
<text text-anchor="middle" x="427" y="-93.43" font-family="Times,serif" font-size="20.00">safari macOS 14.0 17.0 selenium real</text>
</g>
<!-- SG_0_Node_25 -->
<g id="node23" class="node">
<title>SG_0_Node_25</title>
<ellipse fill="none" stroke="black" cx="640" cy="-37.21" rx="33.88" ry="21.43"/>
<text text-anchor="middle" x="640" y="-32.21" font-family="Times,serif" font-size="20.00">1.0</text>
</g>
<!-- SG_0_Node_12&#45;&gt;SG_0_Node_25 -->
<g id="edge24" class="edge">
<title>SG_0_Node_12&#45;&gt;SG_0_Node_25</title>
<path fill="none" stroke="black" d="M470.67,-154.92C522.1,-150.11 597.06,-139.93 618,-120.43 632.06,-107.33 637.51,-86.33 639.47,-68.84"/>
<polygon fill="black" stroke="black" points="642.99,-68.74 640.29,-58.49 636.01,-68.19 642.99,-68.74"/>
<text text-anchor="middle" x="683.5" y="-104.43" font-family="Times,serif" font-size="20.00">[NA]</text>
<text text-anchor="middle" x="683.5" y="-82.43" font-family="Times,serif" font-size="20.00">18 levels</text>
</g>
<!-- SG_0_Node_26 -->
<g id="node24" class="node">
<title>SG_0_Node_26</title>
<ellipse fill="none" stroke="black" cx="1327" cy="-37.21" rx="33.88" ry="21.43"/>
<text text-anchor="middle" x="1327" y="-32.21" font-family="Times,serif" font-size="20.00">0.0</text>
</g>
<!-- SG_0_Node_13&#45;&gt;SG_0_Node_26 -->
<g id="edge15" class="edge">
<title>SG_0_Node_13&#45;&gt;SG_0_Node_26</title>
<path fill="none" stroke="black" d="M1479.17,-156.43C1424.68,-152.87 1343.36,-143.71 1324,-120.43 1312.2,-106.24 1313.08,-85.43 1316.84,-68.3"/>
<polygon fill="black" stroke="black" points="1320.33,-68.76 1319.46,-58.2 1313.56,-67 1320.33,-68.76"/>
<text text-anchor="middle" x="1515" y="-93.43" font-family="Times,serif" font-size="20.00">safari macOS 14.0 17.0 selenium real</text>
</g>
<!-- SG_0_Node_27 -->
<g id="node25" class="node">
<title>SG_0_Node_27</title>
<ellipse fill="none" stroke="black" cx="1732" cy="-37.21" rx="33.88" ry="21.43"/>
<text text-anchor="middle" x="1732" y="-32.21" font-family="Times,serif" font-size="20.00">0.5</text>
</g>
<!-- SG_0_Node_13&#45;&gt;SG_0_Node_27 -->
<g id="edge16" class="edge">
<title>SG_0_Node_13&#45;&gt;SG_0_Node_27</title>
<path fill="none" stroke="black" d="M1580.89,-153.77C1627.42,-148.28 1691.69,-137.8 1710,-120.43 1723.85,-107.29 1729.32,-86.47 1731.35,-69.07"/>
<polygon fill="black" stroke="black" points="1734.86,-69.04 1732.21,-58.78 1727.88,-68.46 1734.86,-69.04"/>
<text text-anchor="middle" x="1775.5" y="-104.43" font-family="Times,serif" font-size="20.00">[NA]</text>
<text text-anchor="middle" x="1775.5" y="-82.43" font-family="Times,serif" font-size="20.00">18 levels</text>
</g>
<!-- SG_1_Node_0 -->
<g id="node26" class="node">
<title>SG_1_Node_0</title>
<polygon fill="none" stroke="black" points="3077.5,-1110.13 2940.5,-1110.13 2940.5,-1074.13 3077.5,-1074.13 3077.5,-1110.13"/>
<text text-anchor="middle" x="3009" y="-1087.13" font-family="Times,serif" font-size="20.00">raw_header</text>
</g>
<!-- SG_1_Node_1 -->
<g id="node27" class="node">
<title>SG_1_Node_1</title>
<polygon fill="none" stroke="black" points="2857.5,-994.13 2756.5,-994.13 2756.5,-958.13 2857.5,-958.13 2857.5,-994.13"/>
<text text-anchor="middle" x="2807" y="-971.13" font-family="Times,serif" font-size="20.00">browser</text>
</g>
<!-- SG_1_Node_0&#45;&gt;SG_1_Node_1 -->
<g id="edge25" class="edge">
<title>SG_1_Node_0&#45;&gt;SG_1_Node_1</title>
<path fill="none" stroke="black" d="M2978.76,-1074.07C2943.5,-1054.17 2885.13,-1021.23 2846.37,-999.35"/>
<polygon fill="black" stroke="black" points="2847.88,-996.18 2837.45,-994.32 2844.44,-1002.28 2847.88,-996.18"/>
<text text-anchor="middle" x="2988.5" y="-1029.13" font-family="Times,serif" font-size="20.00">12 levels</text>
</g>
<!-- SG_1_Node_2 -->
<g id="node28" class="node">
<title>SG_1_Node_2</title>
<polygon fill="none" stroke="black" points="3280.5,-994.13 3143.5,-994.13 3143.5,-958.13 3280.5,-958.13 3280.5,-994.13"/>
<text text-anchor="middle" x="3212" y="-971.13" font-family="Times,serif" font-size="20.00">raw_header</text>
</g>
<!-- SG_1_Node_0&#45;&gt;SG_1_Node_2 -->
<g id="edge26" class="edge">
<title>SG_1_Node_0&#45;&gt;SG_1_Node_2</title>
<path fill="none" stroke="black" d="M3039.39,-1074.07C3074.82,-1054.17 3133.48,-1021.23 3172.43,-999.35"/>
<polygon fill="black" stroke="black" points="3174.4,-1002.26 3181.4,-994.32 3170.97,-996.16 3174.4,-1002.26"/>
<text text-anchor="middle" x="3191.5" y="-1040.13" font-family="Times,serif" font-size="20.00">[NA]</text>
<text text-anchor="middle" x="3191.5" y="-1018.13" font-family="Times,serif" font-size="20.00">20 levels</text>
</g>
<!-- SG_1_Node_15 -->
<g id="node29" class="node">
<title>SG_1_Node_15</title>
<ellipse fill="none" stroke="black" cx="2693" cy="-790.92" rx="33.88" ry="21.43"/>
<text text-anchor="middle" x="2693" y="-785.92" font-family="Times,serif" font-size="20.00">0.5</text>
</g>
<!-- SG_1_Node_1&#45;&gt;SG_1_Node_15 -->
<g id="edge47" class="edge">
<title>SG_1_Node_1&#45;&gt;SG_1_Node_15</title>
<path fill="none" stroke="black" d="M2756.36,-967.3C2739.84,-962.23 2722.95,-953.88 2712,-940.13 2685.42,-906.77 2685.15,-855.13 2688.35,-822.45"/>
<polygon fill="black" stroke="black" points="2691.87,-822.48 2689.54,-812.14 2684.92,-821.68 2691.87,-822.48"/>
<text text-anchor="middle" x="2757.5" y="-891.13" font-family="Times,serif" font-size="20.00">[NA]</text>
<text text-anchor="middle" x="2757.5" y="-869.13" font-family="Times,serif" font-size="20.00">18 levels</text>
</g>
<!-- SG_1_Node_16 -->
<g id="node30" class="node">
<title>SG_1_Node_16</title>
<ellipse fill="none" stroke="black" cx="2807" cy="-790.92" rx="33.88" ry="21.43"/>
<text text-anchor="middle" x="2807" y="-785.92" font-family="Times,serif" font-size="20.00">1.0</text>
</g>
<!-- SG_1_Node_1&#45;&gt;SG_1_Node_16 -->
<g id="edge48" class="edge">
<title>SG_1_Node_1&#45;&gt;SG_1_Node_16</title>
<path fill="none" stroke="black" d="M2807,-957.9C2807,-926.87 2807,-861.26 2807,-822.47"/>
<polygon fill="black" stroke="black" points="2810.5,-822.29 2807,-812.29 2803.5,-822.29 2810.5,-822.29"/>
<text text-anchor="middle" x="2998" y="-880.13" font-family="Times,serif" font-size="20.00">safari macOS 14.0 17.0 selenium real</text>
</g>
<!-- SG_1_Node_4 -->
<g id="node31" class="node">
<title>SG_1_Node_4</title>
<polygon fill="none" stroke="black" points="3278,-808.92 3146,-808.92 3146,-772.92 3278,-772.92 3278,-808.92"/>
<text text-anchor="middle" x="3212" y="-785.92" font-family="Times,serif" font-size="20.00">resp_origin</text>
</g>
<!-- SG_1_Node_2&#45;&gt;SG_1_Node_4 -->
<g id="edge27" class="edge">
<title>SG_1_Node_2&#45;&gt;SG_1_Node_4</title>
<path fill="none" stroke="black" d="M3212,-957.9C3212,-926.03 3212,-857.68 3212,-819.38"/>
<polygon fill="black" stroke="black" points="3215.5,-818.98 3212,-808.98 3208.5,-818.98 3215.5,-818.98"/>
<text text-anchor="middle" x="3734" y="-924.13" font-family="Times,serif" font-size="20.00">[[&#39;Content&#45;Security&#45;Policy&#39;, &quot;frame&#45;ancestors &#39;self&#39;&quot;]]</text>
<text text-anchor="middle" x="3734" y="-902.13" font-family="Times,serif" font-size="20.00">[[&#39;Content&#45;Security&#45;Policy&#39;, &#39;*&#39;], [&#39;X&#45;Frame&#45;Options&#39;, &#39;SAMEORIGIN&#39;]]</text>
<text text-anchor="middle" x="3734" y="-880.13" font-family="Times,serif" font-size="20.00">[[&#39;Content&#45;Security&#45;Policy&#39;, &#39;frame&#45;ancestors *.headers.websec.saarland&#39;]]</text>
<text text-anchor="middle" x="3734" y="-858.13" font-family="Times,serif" font-size="20.00">[[&#39;X&#45;Frame&#45;Options&#39;, &#39;DENY&#39;], [&#39;Content&#45;Security&#45;Policy&#39;, &#39;frame&#45;ancestors *.headers.websec.saarland&#39;]]</text>
<text text-anchor="middle" x="3734" y="-836.13" font-family="Times,serif" font-size="20.00">[[&#39;x&#45;frame&#45;options&#39;, &#39;SAMEORIGIN&#39;]]</text>
</g>
<!-- SG_1_Node_5 -->
<g id="node32" class="node">
<title>SG_1_Node_5</title>
<polygon fill="none" stroke="black" points="4347.5,-808.92 4210.5,-808.92 4210.5,-772.92 4347.5,-772.92 4347.5,-808.92"/>
<text text-anchor="middle" x="4279" y="-785.92" font-family="Times,serif" font-size="20.00">raw_header</text>
</g>
<!-- SG_1_Node_2&#45;&gt;SG_1_Node_5 -->
<g id="edge28" class="edge">
<title>SG_1_Node_2&#45;&gt;SG_1_Node_5</title>
<path fill="none" stroke="black" d="M3280.63,-975.23C3507.43,-975.22 4220.58,-972.63 4257,-940.13 4290.45,-910.29 4288.84,-853.45 4284.2,-819.49"/>
<polygon fill="black" stroke="black" points="4287.62,-818.68 4282.64,-809.33 4280.7,-819.75 4287.62,-818.68"/>
<text text-anchor="middle" x="4331.5" y="-891.13" font-family="Times,serif" font-size="20.00">[NA]</text>
<text text-anchor="middle" x="4331.5" y="-869.13" font-family="Times,serif" font-size="20.00">15 levels</text>
</g>
<!-- SG_1_Node_6 -->
<g id="node33" class="node">
<title>SG_1_Node_6</title>
<polygon fill="none" stroke="black" points="2980.5,-576.49 2879.5,-576.49 2879.5,-540.49 2980.5,-540.49 2980.5,-576.49"/>
<text text-anchor="middle" x="2930" y="-553.49" font-family="Times,serif" font-size="20.00">browser</text>
</g>
<!-- SG_1_Node_4&#45;&gt;SG_1_Node_6 -->
<g id="edge37" class="edge">
<title>SG_1_Node_4&#45;&gt;SG_1_Node_6</title>
<path fill="none" stroke="black" d="M3145.75,-790.38C3072.21,-789.31 2960.28,-782.49 2933,-751.71 2892.49,-706 2908.36,-627.42 2920.71,-586.32"/>
<polygon fill="black" stroke="black" points="2924.07,-587.31 2923.74,-576.72 2917.39,-585.21 2924.07,-587.31"/>
<text text-anchor="middle" x="3119.5" y="-680.71" font-family="Times,serif" font-size="20.00">http://sub.headers.websec.saarland</text>
<text text-anchor="middle" x="3119.5" y="-658.71" font-family="Times,serif" font-size="20.00">https://sub.headers.websec.saarland</text>
</g>
<!-- SG_1_Node_7 -->
<g id="node34" class="node">
<title>SG_1_Node_7</title>
<polygon fill="none" stroke="black" points="3401,-576.49 3269,-576.49 3269,-540.49 3401,-540.49 3401,-576.49"/>
<text text-anchor="middle" x="3335" y="-553.49" font-family="Times,serif" font-size="20.00">resp_origin</text>
</g>
<!-- SG_1_Node_4&#45;&gt;SG_1_Node_7 -->
<g id="edge38" class="edge">
<title>SG_1_Node_4&#45;&gt;SG_1_Node_7</title>
<path fill="none" stroke="black" d="M3278.04,-775.35C3290.28,-769.82 3301.78,-762.2 3310,-751.71 3347.7,-703.54 3344.47,-626.88 3339.42,-586.46"/>
<polygon fill="black" stroke="black" points="3342.89,-585.97 3338.06,-576.54 3335.96,-586.93 3342.89,-585.97"/>
<text text-anchor="middle" x="3549.5" y="-735.71" font-family="Times,serif" font-size="20.00">[NA]</text>
<text text-anchor="middle" x="3549.5" y="-713.71" font-family="Times,serif" font-size="20.00">http://headers.webappsec.eu</text>
<text text-anchor="middle" x="3549.5" y="-691.71" font-family="Times,serif" font-size="20.00">http://headers.websec.saarland</text>
<text text-anchor="middle" x="3549.5" y="-669.71" font-family="Times,serif" font-size="20.00">http://sub.sub.headers.websec.saarland</text>
<text text-anchor="middle" x="3549.5" y="-647.71" font-family="Times,serif" font-size="20.00">https://headers.webappsec.eu</text>
<text text-anchor="middle" x="3549.5" y="-625.71" font-family="Times,serif" font-size="20.00">https://headers.websec.saarland</text>
<text text-anchor="middle" x="3549.5" y="-603.71" font-family="Times,serif" font-size="20.00">https://sub.sub.headers.websec.saarland</text>
</g>
<!-- SG_1_Node_8 -->
<g id="node35" class="node">
<title>SG_1_Node_8</title>
<polygon fill="none" stroke="black" points="4331,-576.49 4199,-576.49 4199,-540.49 4331,-540.49 4331,-576.49"/>
<text text-anchor="middle" x="4265" y="-553.49" font-family="Times,serif" font-size="20.00">resp_origin</text>
</g>
<!-- SG_1_Node_5&#45;&gt;SG_1_Node_8 -->
<g id="edge29" class="edge">
<title>SG_1_Node_5&#45;&gt;SG_1_Node_8</title>
<path fill="none" stroke="black" d="M4210.83,-772.71C4201.42,-767.46 4192.95,-760.62 4187,-751.71 4149,-694.78 4150.78,-655.78 4187,-597.71 4190.75,-591.69 4195.76,-586.59 4201.43,-582.28"/>
<polygon fill="black" stroke="black" points="4203.74,-584.95 4210.15,-576.51 4199.88,-579.11 4203.74,-584.95"/>
<text text-anchor="middle" x="4615" y="-680.71" font-family="Times,serif" font-size="20.00">[[&#39;Content&#45;Security&#45;Policy&#39;, &#39;frame&#45;ancestors https://sub.headers.websec.saarland&#39;]]</text>
<text text-anchor="middle" x="4615" y="-658.71" font-family="Times,serif" font-size="20.00">[[&#39;Content&#45;Security&#45;Policy&#39;, &#39;frame&#45;ancestors https://sub.headers.websec.saarland/&#39;]]</text>
</g>
<!-- SG_1_Node_17 -->
<g id="node36" class="node">
<title>SG_1_Node_17</title>
<ellipse fill="none" stroke="black" cx="5065" cy="-558.49" rx="33.88" ry="21.43"/>
<text text-anchor="middle" x="5065" y="-553.49" font-family="Times,serif" font-size="20.00">1.0</text>
</g>
<!-- SG_1_Node_5&#45;&gt;SG_1_Node_17 -->
<g id="edge30" class="edge">
<title>SG_1_Node_5&#45;&gt;SG_1_Node_17</title>
<path fill="none" stroke="black" d="M4347.51,-788.87C4530.37,-785.77 5017.85,-775.3 5043,-751.71 5087.02,-710.42 5080.08,-632.39 5072.04,-589.55"/>
<polygon fill="black" stroke="black" points="5075.46,-588.81 5070.05,-579.7 5068.6,-590.2 5075.46,-588.81"/>
<text text-anchor="middle" x="5122.5" y="-680.71" font-family="Times,serif" font-size="20.00">[NA]</text>
<text text-anchor="middle" x="5122.5" y="-658.71" font-family="Times,serif" font-size="20.00">13 levels</text>
</g>
<!-- SG_1_Node_18 -->
<g id="node37" class="node">
<title>SG_1_Node_18</title>
<ellipse fill="none" stroke="black" cx="2816" cy="-304.07" rx="33.88" ry="21.43"/>
<text text-anchor="middle" x="2816" y="-299.07" font-family="Times,serif" font-size="20.00">0.5</text>
</g>
<!-- SG_1_Node_6&#45;&gt;SG_1_Node_18 -->
<g id="edge45" class="edge">
<title>SG_1_Node_6&#45;&gt;SG_1_Node_18</title>
<path fill="none" stroke="black" d="M2879.46,-548.29C2862.74,-542.69 2845.7,-533.7 2835,-519.28 2794.63,-464.88 2801.94,-379.97 2809.62,-335.14"/>
<polygon fill="black" stroke="black" points="2813.09,-335.63 2811.46,-325.17 2806.21,-334.37 2813.09,-335.63"/>
<text text-anchor="middle" x="2880.5" y="-437.28" font-family="Times,serif" font-size="20.00">[NA]</text>
<text text-anchor="middle" x="2880.5" y="-415.28" font-family="Times,serif" font-size="20.00">18 levels</text>
</g>
<!-- SG_1_Node_19 -->
<g id="node38" class="node">
<title>SG_1_Node_19</title>
<ellipse fill="none" stroke="black" cx="2930" cy="-304.07" rx="33.88" ry="21.43"/>
<text text-anchor="middle" x="2930" y="-299.07" font-family="Times,serif" font-size="20.00">1.0</text>
</g>
<!-- SG_1_Node_6&#45;&gt;SG_1_Node_19 -->
<g id="edge46" class="edge">
<title>SG_1_Node_6&#45;&gt;SG_1_Node_19</title>
<path fill="none" stroke="black" d="M2930,-540.14C2930,-497.83 2930,-388.92 2930,-335.51"/>
<polygon fill="black" stroke="black" points="2933.5,-335.31 2930,-325.31 2926.5,-335.31 2933.5,-335.31"/>
<text text-anchor="middle" x="3121" y="-426.28" font-family="Times,serif" font-size="20.00">safari macOS 14.0 17.0 selenium real</text>
</g>
<!-- SG_1_Node_10 -->
<g id="node39" class="node">
<title>SG_1_Node_10</title>
<polygon fill="none" stroke="black" points="3403.5,-322.07 3266.5,-322.07 3266.5,-286.07 3403.5,-286.07 3403.5,-322.07"/>
<text text-anchor="middle" x="3335" y="-299.07" font-family="Times,serif" font-size="20.00">raw_header</text>
</g>
<!-- SG_1_Node_7&#45;&gt;SG_1_Node_10 -->
<g id="edge39" class="edge">
<title>SG_1_Node_7&#45;&gt;SG_1_Node_10</title>
<path fill="none" stroke="black" d="M3335,-540.14C3335,-496.99 3335,-384.53 3335,-332.37"/>
<polygon fill="black" stroke="black" points="3338.5,-332.2 3335,-322.2 3331.5,-332.2 3338.5,-332.2"/>
<text text-anchor="middle" x="3542.5" y="-437.28" font-family="Times,serif" font-size="20.00">http://sub.sub.headers.websec.saarland</text>
<text text-anchor="middle" x="3542.5" y="-415.28" font-family="Times,serif" font-size="20.00">https://sub.sub.headers.websec.saarland</text>
</g>
<!-- SG_1_Node_20 -->
<g id="node40" class="node">
<title>SG_1_Node_20</title>
<ellipse fill="none" stroke="black" cx="3773" cy="-304.07" rx="33.88" ry="21.43"/>
<text text-anchor="middle" x="3773" y="-299.07" font-family="Times,serif" font-size="20.00">1.0</text>
</g>
<!-- SG_1_Node_7&#45;&gt;SG_1_Node_20 -->
<g id="edge40" class="edge">
<title>SG_1_Node_7&#45;&gt;SG_1_Node_20</title>
<path fill="none" stroke="black" d="M3401,-555.95C3512.07,-552.7 3726.67,-543.35 3751,-519.28 3799.92,-470.88 3789.86,-381.33 3780.35,-334.83"/>
<polygon fill="black" stroke="black" points="3783.77,-334.08 3778.23,-325.05 3776.93,-335.57 3783.77,-334.08"/>
<text text-anchor="middle" x="3953.5" y="-470.28" font-family="Times,serif" font-size="20.00">[NA]</text>
<text text-anchor="middle" x="3953.5" y="-448.28" font-family="Times,serif" font-size="20.00">http://headers.webappsec.eu</text>
<text text-anchor="middle" x="3953.5" y="-426.28" font-family="Times,serif" font-size="20.00">http://headers.websec.saarland</text>
<text text-anchor="middle" x="3953.5" y="-404.28" font-family="Times,serif" font-size="20.00">https://headers.webappsec.eu</text>
<text text-anchor="middle" x="3953.5" y="-382.28" font-family="Times,serif" font-size="20.00">https://headers.websec.saarland</text>
</g>
<!-- SG_1_Node_11 -->
<g id="node41" class="node">
<title>SG_1_Node_11</title>
<polygon fill="none" stroke="black" points="4458,-322.07 4336,-322.07 4336,-286.07 4458,-286.07 4458,-322.07"/>
<text text-anchor="middle" x="4397" y="-299.07" font-family="Times,serif" font-size="20.00">org_origin</text>
</g>
<!-- SG_1_Node_8&#45;&gt;SG_1_Node_11 -->
<g id="edge31" class="edge">
<title>SG_1_Node_8&#45;&gt;SG_1_Node_11</title>
<path fill="none" stroke="black" d="M4258.89,-540.34C4246.05,-500.99 4221.01,-402.98 4266,-343.28 4280.16,-324.49 4303.05,-314.53 4325.76,-309.37"/>
<polygon fill="black" stroke="black" points="4326.67,-312.76 4335.8,-307.39 4325.31,-305.89 4326.67,-312.76"/>
<text text-anchor="middle" x="4452.5" y="-426.28" font-family="Times,serif" font-size="20.00">https://sub.headers.websec.saarland</text>
</g>
<!-- SG_1_Node_21 -->
<g id="node42" class="node">
<title>SG_1_Node_21</title>
<ellipse fill="none" stroke="black" cx="4661" cy="-304.07" rx="33.88" ry="21.43"/>
<text text-anchor="middle" x="4661" y="-299.07" font-family="Times,serif" font-size="20.00">1.0</text>
</g>
<!-- SG_1_Node_8&#45;&gt;SG_1_Node_21 -->
<g id="edge32" class="edge">
<title>SG_1_Node_8&#45;&gt;SG_1_Node_21</title>
<path fill="none" stroke="black" d="M4331.24,-555.2C4432.85,-551.02 4617.71,-540.56 4639,-519.28 4687.55,-470.75 4677.77,-381.64 4668.36,-335.12"/>
<polygon fill="black" stroke="black" points="4671.78,-334.38 4666.26,-325.33 4664.94,-335.85 4671.78,-334.38"/>
<text text-anchor="middle" x="4883.5" y="-503.28" font-family="Times,serif" font-size="20.00">[NA]</text>
<text text-anchor="middle" x="4883.5" y="-481.28" font-family="Times,serif" font-size="20.00">http://headers.webappsec.eu</text>
<text text-anchor="middle" x="4883.5" y="-459.28" font-family="Times,serif" font-size="20.00">http://headers.websec.saarland</text>
<text text-anchor="middle" x="4883.5" y="-437.28" font-family="Times,serif" font-size="20.00">http://sub.headers.websec.saarland</text>
<text text-anchor="middle" x="4883.5" y="-415.28" font-family="Times,serif" font-size="20.00">http://sub.sub.headers.websec.saarland</text>
<text text-anchor="middle" x="4883.5" y="-393.28" font-family="Times,serif" font-size="20.00">https://headers.webappsec.eu</text>
<text text-anchor="middle" x="4883.5" y="-371.28" font-family="Times,serif" font-size="20.00">https://headers.websec.saarland</text>
<text text-anchor="middle" x="4883.5" y="-349.28" font-family="Times,serif" font-size="20.00">https://sub.sub.headers.websec.saarland</text>
</g>
<!-- SG_1_Node_12 -->
<g id="node43" class="node">
<title>SG_1_Node_12</title>
<polygon fill="none" stroke="black" points="2699.5,-177.64 2598.5,-177.64 2598.5,-141.64 2699.5,-141.64 2699.5,-177.64"/>
<text text-anchor="middle" x="2649" y="-154.64" font-family="Times,serif" font-size="20.00">browser</text>
</g>
<!-- SG_1_Node_10&#45;&gt;SG_1_Node_12 -->
<g id="edge41" class="edge">
<title>SG_1_Node_10&#45;&gt;SG_1_Node_12</title>
<path fill="none" stroke="black" d="M3266.28,-299.11C3193.47,-294.95 3075.14,-288.26 2973,-282.85 2953,-281.79 2626.8,-279.36 2613,-264.85 2592.78,-243.6 2602.18,-226.12 2613,-198.85 2614.84,-194.23 2617.53,-189.83 2620.63,-185.79"/>
<polygon fill="black" stroke="black" points="2623.48,-187.84 2627.41,-178 2618.21,-183.24 2623.48,-187.84"/>
<text text-anchor="middle" x="3135" y="-237.85" font-family="Times,serif" font-size="20.00">[[&#39;Content&#45;Security&#45;Policy&#39;, &#39;frame&#45;ancestors *.headers.websec.saarland&#39;]]</text>
<text text-anchor="middle" x="3135" y="-215.85" font-family="Times,serif" font-size="20.00">[[&#39;X&#45;Frame&#45;Options&#39;, &#39;DENY&#39;], [&#39;Content&#45;Security&#45;Policy&#39;, &#39;frame&#45;ancestors *.headers.websec.saarland&#39;]]</text>
</g>
<!-- SG_1_Node_22 -->
<g id="node44" class="node">
<title>SG_1_Node_22</title>
<ellipse fill="none" stroke="black" cx="3683" cy="-159.64" rx="33.88" ry="21.43"/>
<text text-anchor="middle" x="3683" y="-154.64" font-family="Times,serif" font-size="20.00">1.0</text>
</g>
<!-- SG_1_Node_10&#45;&gt;SG_1_Node_22 -->
<g id="edge42" class="edge">
<title>SG_1_Node_10&#45;&gt;SG_1_Node_22</title>
<path fill="none" stroke="black" d="M3403.65,-299.25C3493.66,-293.61 3642.37,-281.85 3661,-264.85 3681.14,-246.48 3685.38,-214.71 3685.35,-191.06"/>
<polygon fill="black" stroke="black" points="3688.84,-190.75 3685.08,-180.85 3681.85,-190.94 3688.84,-190.75"/>
<text text-anchor="middle" x="4030.5" y="-248.85" font-family="Times,serif" font-size="20.00">[[&#39;Content&#45;Security&#45;Policy&#39;, &quot;frame&#45;ancestors &#39;self&#39;&quot;]]</text>
<text text-anchor="middle" x="4030.5" y="-226.85" font-family="Times,serif" font-size="20.00">[[&#39;Content&#45;Security&#45;Policy&#39;, &#39;*&#39;], [&#39;X&#45;Frame&#45;Options&#39;, &#39;SAMEORIGIN&#39;]]</text>
<text text-anchor="middle" x="4030.5" y="-204.85" font-family="Times,serif" font-size="20.00">[[&#39;x&#45;frame&#45;options&#39;, &#39;SAMEORIGIN&#39;]]</text>
</g>
<!-- SG_1_Node_13 -->
<g id="node45" class="node">
<title>SG_1_Node_13</title>
<polygon fill="none" stroke="black" points="4447.5,-177.64 4346.5,-177.64 4346.5,-141.64 4447.5,-141.64 4447.5,-177.64"/>
<text text-anchor="middle" x="4397" y="-154.64" font-family="Times,serif" font-size="20.00">browser</text>
</g>
<!-- SG_1_Node_11&#45;&gt;SG_1_Node_13 -->
<g id="edge33" class="edge">
<title>SG_1_Node_11&#45;&gt;SG_1_Node_13</title>
<path fill="none" stroke="black" d="M4397,-285.89C4397,-261.61 4397,-217.02 4397,-188.12"/>
<polygon fill="black" stroke="black" points="4400.5,-187.88 4397,-177.88 4393.5,-187.88 4400.5,-187.88"/>
<text text-anchor="middle" x="4583.5" y="-226.85" font-family="Times,serif" font-size="20.00">https://sub.headers.websec.saarland</text>
</g>
<!-- SG_1_Node_23 -->
<g id="node46" class="node">
<title>SG_1_Node_23</title>
<ellipse fill="none" stroke="black" cx="4793" cy="-159.64" rx="33.88" ry="21.43"/>
<text text-anchor="middle" x="4793" y="-154.64" font-family="Times,serif" font-size="20.00">1.0</text>
</g>
<!-- SG_1_Node_11&#45;&gt;SG_1_Node_23 -->
<g id="edge34" class="edge">
<title>SG_1_Node_11&#45;&gt;SG_1_Node_23</title>
<path fill="none" stroke="black" d="M4458.18,-297.27C4563.5,-287.24 4768.12,-267.44 4771,-264.85 4791.27,-246.63 4795.49,-214.83 4795.42,-191.14"/>
<polygon fill="black" stroke="black" points="4798.92,-190.8 4795.13,-180.9 4791.92,-191 4798.92,-190.8"/>
<text text-anchor="middle" x="4976.5" y="-237.85" font-family="Times,serif" font-size="20.00">[NA]</text>
<text text-anchor="middle" x="4976.5" y="-215.85" font-family="Times,serif" font-size="20.00">http://sub.headers.websec.saarland</text>
</g>
<!-- SG_1_Node_24 -->
<g id="node47" class="node">
<title>SG_1_Node_24</title>
<ellipse fill="none" stroke="black" cx="2641" cy="-37.21" rx="33.88" ry="21.43"/>
<text text-anchor="middle" x="2641" y="-32.21" font-family="Times,serif" font-size="20.00">0.5</text>
</g>
<!-- SG_1_Node_12&#45;&gt;SG_1_Node_24 -->
<g id="edge43" class="edge">
<title>SG_1_Node_12&#45;&gt;SG_1_Node_24</title>
<path fill="none" stroke="black" d="M2645.24,-141.61C2643.96,-135.02 2642.68,-127.41 2642,-120.43 2640.34,-103.34 2640.02,-84.17 2640.15,-68.64"/>
<polygon fill="black" stroke="black" points="2643.65,-68.59 2640.3,-58.54 2636.65,-68.48 2643.65,-68.59"/>
<text text-anchor="middle" x="2687.5" y="-104.43" font-family="Times,serif" font-size="20.00">[NA]</text>
<text text-anchor="middle" x="2687.5" y="-82.43" font-family="Times,serif" font-size="20.00">18 levels</text>
</g>
<!-- SG_1_Node_25 -->
<g id="node48" class="node">
<title>SG_1_Node_25</title>
<ellipse fill="none" stroke="black" cx="2755" cy="-37.21" rx="33.88" ry="21.43"/>
<text text-anchor="middle" x="2755" y="-32.21" font-family="Times,serif" font-size="20.00">1.0</text>
</g>
<!-- SG_1_Node_12&#45;&gt;SG_1_Node_25 -->
<g id="edge44" class="edge">
<title>SG_1_Node_12&#45;&gt;SG_1_Node_25</title>
<path fill="none" stroke="black" d="M2699.59,-144.18C2711.98,-138.52 2724.2,-130.82 2733,-120.43 2745.18,-106.05 2750.68,-85.59 2753.14,-68.68"/>
<polygon fill="black" stroke="black" points="2756.62,-69.04 2754.31,-58.7 2749.67,-68.22 2756.62,-69.04"/>
<text text-anchor="middle" x="2942" y="-93.43" font-family="Times,serif" font-size="20.00">safari macOS 14.0 17.0 selenium real</text>
</g>
<!-- SG_1_Node_26 -->
<g id="node49" class="node">
<title>SG_1_Node_26</title>
<ellipse fill="none" stroke="black" cx="4340" cy="-37.21" rx="33.88" ry="21.43"/>
<text text-anchor="middle" x="4340" y="-32.21" font-family="Times,serif" font-size="20.00">0.0</text>
</g>
<!-- SG_1_Node_13&#45;&gt;SG_1_Node_26 -->
<g id="edge35" class="edge">
<title>SG_1_Node_13&#45;&gt;SG_1_Node_26</title>
<path fill="none" stroke="black" d="M4360.88,-141.47C4352.94,-135.91 4345.56,-128.93 4341,-120.43 4332.59,-104.74 4332.14,-84.83 4333.88,-68.53"/>
<polygon fill="black" stroke="black" points="4337.38,-68.81 4335.29,-58.43 4330.44,-67.85 4337.38,-68.81"/>
<text text-anchor="middle" x="4386.5" y="-104.43" font-family="Times,serif" font-size="20.00">[NA]</text>
<text text-anchor="middle" x="4386.5" y="-82.43" font-family="Times,serif" font-size="20.00">18 levels</text>
</g>
<!-- SG_1_Node_27 -->
<g id="node50" class="node">
<title>SG_1_Node_27</title>
<ellipse fill="none" stroke="black" cx="4454" cy="-37.21" rx="33.88" ry="21.43"/>
<text text-anchor="middle" x="4454" y="-32.21" font-family="Times,serif" font-size="20.00">1.0</text>
</g>
<!-- SG_1_Node_13&#45;&gt;SG_1_Node_27 -->
<g id="edge36" class="edge">
<title>SG_1_Node_13&#45;&gt;SG_1_Node_27</title>
<path fill="none" stroke="black" d="M4416.06,-141.39C4421.89,-135.27 4427.85,-128 4432,-120.43 4440.8,-104.38 4446.23,-84.61 4449.5,-68.48"/>
<polygon fill="black" stroke="black" points="4452.97,-68.96 4451.35,-58.49 4446.09,-67.68 4452.97,-68.96"/>
<text text-anchor="middle" x="4638" y="-93.43" font-family="Times,serif" font-size="20.00">safari macOS 14.0 17.0 selenium real</text>
</g>
</g>
</svg>
