<?xml version="1.0" encoding="UTF-8" standalone="no"?>
<!DOCTYPE svg PUBLIC "-//W3C//DTD SVG 1.1//EN"
 "http://www.w3.org/Graphics/SVG/1.1/DTD/svg11.dtd">
<!-- Generated by graphviz version 2.43.0 (0)
 -->
<!-- Title: G Pages: 1 -->
<svg width="5180pt" height="1064pt"
 viewBox="0.00 0.00 5180.00 1063.71" xmlns="http://www.w3.org/2000/svg" xmlns:xlink="http://www.w3.org/1999/xlink">
<g id="graph0" class="graph" transform="scale(1 1) rotate(0) translate(4 1059.71)">
<title>G</title>
<polygon fill="white" stroke="transparent" points="-4,4 -4,-1059.71 5176,-1059.71 5176,4 -4,4"/>
<g id="clust1" class="cluster">
<title>cluster_0</title>
<polygon fill="none" stroke="black" points="8,-8 8,-1047.71 2582,-1047.71 2582,-8 8,-8"/>
<text text-anchor="middle" x="1295" y="-1011.71" font-family="Times,serif" font-size="40.00">Tree 0, Class message send</text>
</g>
<g id="clust8" class="cluster">
<title>cluster_1</title>
<polygon fill="none" stroke="black" points="2590,-8 2590,-1047.71 5164,-1047.71 5164,-8 2590,-8"/>
<text text-anchor="middle" x="3877" y="-1011.71" font-family="Times,serif" font-size="40.00">Tree 0, Class message timeout</text>
</g>
<!-- SG_0_Node_0 -->
<g id="node1" class="node">
<title>SG_0_Node_0</title>
<polygon fill="none" stroke="black" points="821.5,-987.71 684.5,-987.71 684.5,-951.71 821.5,-951.71 821.5,-987.71"/>
<text text-anchor="middle" x="753" y="-964.71" font-family="Times,serif" font-size="20.00">raw_header</text>
</g>
<!-- SG_0_Node_1 -->
<g id="node2" class="node">
<title>SG_0_Node_1</title>
<polygon fill="none" stroke="black" points="762.5,-868.49 625.5,-868.49 625.5,-832.49 762.5,-832.49 762.5,-868.49"/>
<text text-anchor="middle" x="694" y="-845.49" font-family="Times,serif" font-size="20.00">raw_header</text>
</g>
<!-- SG_0_Node_0&#45;&gt;SG_0_Node_1 -->
<g id="edge1" class="edge">
<title>SG_0_Node_0&#45;&gt;SG_0_Node_1</title>
<path fill="none" stroke="black" d="M716.25,-951.62C709.44,-946.78 703.17,-940.85 699,-933.71 689.42,-917.29 688.44,-895.77 689.71,-878.86"/>
<polygon fill="black" stroke="black" points="693.23,-878.83 690.8,-868.51 686.27,-878.09 693.23,-878.83"/>
<text text-anchor="middle" x="744.5" y="-917.71" font-family="Times,serif" font-size="20.00">[NA]</text>
<text text-anchor="middle" x="744.5" y="-895.71" font-family="Times,serif" font-size="20.00">20 levels</text>
</g>
<!-- SG_0_Node_11 -->
<g id="node3" class="node">
<title>SG_0_Node_11</title>
<ellipse fill="none" stroke="black" cx="814" cy="-850.49" rx="33.88" ry="21.43"/>
<text text-anchor="middle" x="814" y="-845.49" font-family="Times,serif" font-size="20.00">0.5</text>
</g>
<!-- SG_0_Node_0&#45;&gt;SG_0_Node_11 -->
<g id="edge2" class="edge">
<title>SG_0_Node_0&#45;&gt;SG_0_Node_11</title>
<path fill="none" stroke="black" d="M775.03,-951.49C780.56,-946.27 786.03,-940.19 790,-933.71 799.6,-917.99 805.53,-898.24 809.1,-882.03"/>
<polygon fill="black" stroke="black" points="812.58,-882.46 811.11,-871.97 805.71,-881.09 812.58,-882.46"/>
<text text-anchor="middle" x="852.5" y="-906.71" font-family="Times,serif" font-size="20.00">12 levels</text>
</g>
<!-- SG_0_Node_3 -->
<g id="node4" class="node">
<title>SG_0_Node_3</title>
<polygon fill="none" stroke="black" points="323.5,-683.28 186.5,-683.28 186.5,-647.28 323.5,-647.28 323.5,-683.28"/>
<text text-anchor="middle" x="255" y="-660.28" font-family="Times,serif" font-size="20.00">raw_header</text>
</g>
<!-- SG_0_Node_1&#45;&gt;SG_0_Node_3 -->
<g id="edge3" class="edge">
<title>SG_0_Node_1&#45;&gt;SG_0_Node_3</title>
<path fill="none" stroke="black" d="M653.09,-832.42C572.46,-798.77 393.24,-723.97 305.44,-687.33"/>
<polygon fill="black" stroke="black" points="306.54,-684 295.96,-683.37 303.84,-690.46 306.54,-684"/>
<text text-anchor="middle" x="644.5" y="-762.28" font-family="Times,serif" font-size="20.00">[NA]</text>
<text text-anchor="middle" x="644.5" y="-740.28" font-family="Times,serif" font-size="20.00">15 levels</text>
</g>
<!-- SG_0_Node_4 -->
<g id="node5" class="node">
<title>SG_0_Node_4</title>
<polygon fill="none" stroke="black" points="1200,-683.28 1068,-683.28 1068,-647.28 1200,-647.28 1200,-683.28"/>
<text text-anchor="middle" x="1134" y="-660.28" font-family="Times,serif" font-size="20.00">resp_origin</text>
</g>
<!-- SG_0_Node_1&#45;&gt;SG_0_Node_4 -->
<g id="edge4" class="edge">
<title>SG_0_Node_1&#45;&gt;SG_0_Node_4</title>
<path fill="none" stroke="black" d="M735,-832.42C815.89,-798.74 995.81,-723.82 1083.71,-687.22"/>
<polygon fill="black" stroke="black" points="1085.06,-690.45 1092.94,-683.37 1082.37,-683.99 1085.06,-690.45"/>
<text text-anchor="middle" x="1571" y="-795.28" font-family="Times,serif" font-size="20.00">[[&#39;Content&#45;Security&#45;Policy&#39;, &quot;frame&#45;ancestors &#39;self&#39;&quot;]]</text>
<text text-anchor="middle" x="1571" y="-773.28" font-family="Times,serif" font-size="20.00">[[&#39;Content&#45;Security&#45;Policy&#39;, &#39;*&#39;], [&#39;X&#45;Frame&#45;Options&#39;, &#39;SAMEORIGIN&#39;]]</text>
<text text-anchor="middle" x="1571" y="-751.28" font-family="Times,serif" font-size="20.00">[[&#39;Content&#45;Security&#45;Policy&#39;, &#39;frame&#45;ancestors *.headers.websec.saarland&#39;]]</text>
<text text-anchor="middle" x="1571" y="-729.28" font-family="Times,serif" font-size="20.00">[[&#39;X&#45;Frame&#45;Options&#39;, &#39;DENY&#39;], [&#39;Content&#45;Security&#45;Policy&#39;, &#39;frame&#45;ancestors *.headers.websec.saarland&#39;]]</text>
<text text-anchor="middle" x="1571" y="-707.28" font-family="Times,serif" font-size="20.00">[[&#39;x&#45;frame&#45;options&#39;, &#39;SAMEORIGIN&#39;]]</text>
</g>
<!-- SG_0_Node_12 -->
<g id="node6" class="node">
<title>SG_0_Node_12</title>
<ellipse fill="none" stroke="black" cx="138" cy="-436.07" rx="33.88" ry="21.43"/>
<text text-anchor="middle" x="138" y="-431.07" font-family="Times,serif" font-size="20.00">0.0</text>
</g>
<!-- SG_0_Node_3&#45;&gt;SG_0_Node_12 -->
<g id="edge11" class="edge">
<title>SG_0_Node_3&#45;&gt;SG_0_Node_12</title>
<path fill="none" stroke="black" d="M186.09,-649.44C176.07,-644.53 166.84,-637.99 160,-629.28 123.26,-582.51 126.82,-508.47 132.51,-467.27"/>
<polygon fill="black" stroke="black" points="135.98,-467.7 134.02,-457.29 129.06,-466.66 135.98,-467.7"/>
<text text-anchor="middle" x="205.5" y="-558.28" font-family="Times,serif" font-size="20.00">[NA]</text>
<text text-anchor="middle" x="205.5" y="-536.28" font-family="Times,serif" font-size="20.00">13 levels</text>
</g>
<!-- SG_0_Node_5 -->
<g id="node7" class="node">
<title>SG_0_Node_5</title>
<polygon fill="none" stroke="black" points="322,-454.07 190,-454.07 190,-418.07 322,-418.07 322,-454.07"/>
<text text-anchor="middle" x="256" y="-431.07" font-family="Times,serif" font-size="20.00">resp_origin</text>
</g>
<!-- SG_0_Node_3&#45;&gt;SG_0_Node_5 -->
<g id="edge12" class="edge">
<title>SG_0_Node_3&#45;&gt;SG_0_Node_5</title>
<path fill="none" stroke="black" d="M255.08,-647.2C255.25,-608.14 255.67,-511.98 255.88,-464.5"/>
<polygon fill="black" stroke="black" points="259.38,-464.36 255.92,-454.34 252.38,-464.33 259.38,-464.36"/>
<text text-anchor="middle" x="683" y="-558.28" font-family="Times,serif" font-size="20.00">[[&#39;Content&#45;Security&#45;Policy&#39;, &#39;frame&#45;ancestors https://sub.headers.websec.saarland&#39;]]</text>
<text text-anchor="middle" x="683" y="-536.28" font-family="Times,serif" font-size="20.00">[[&#39;Content&#45;Security&#45;Policy&#39;, &#39;frame&#45;ancestors https://sub.headers.websec.saarland/&#39;]]</text>
</g>
<!-- SG_0_Node_6 -->
<g id="node8" class="node">
<title>SG_0_Node_6</title>
<polygon fill="none" stroke="black" points="1200,-454.07 1068,-454.07 1068,-418.07 1200,-418.07 1200,-454.07"/>
<text text-anchor="middle" x="1134" y="-431.07" font-family="Times,serif" font-size="20.00">resp_origin</text>
</g>
<!-- SG_0_Node_4&#45;&gt;SG_0_Node_6 -->
<g id="edge5" class="edge">
<title>SG_0_Node_4&#45;&gt;SG_0_Node_6</title>
<path fill="none" stroke="black" d="M1134,-647.2C1134,-608.14 1134,-511.98 1134,-464.5"/>
<polygon fill="black" stroke="black" points="1137.5,-464.34 1134,-454.34 1130.5,-464.34 1137.5,-464.34"/>
<text text-anchor="middle" x="1341.5" y="-613.28" font-family="Times,serif" font-size="20.00">[NA]</text>
<text text-anchor="middle" x="1341.5" y="-591.28" font-family="Times,serif" font-size="20.00">http://headers.webappsec.eu</text>
<text text-anchor="middle" x="1341.5" y="-569.28" font-family="Times,serif" font-size="20.00">http://headers.websec.saarland</text>
<text text-anchor="middle" x="1341.5" y="-547.28" font-family="Times,serif" font-size="20.00">http://sub.sub.headers.websec.saarland</text>
<text text-anchor="middle" x="1341.5" y="-525.28" font-family="Times,serif" font-size="20.00">https://headers.webappsec.eu</text>
<text text-anchor="middle" x="1341.5" y="-503.28" font-family="Times,serif" font-size="20.00">https://headers.websec.saarland</text>
<text text-anchor="middle" x="1341.5" y="-481.28" font-family="Times,serif" font-size="20.00">https://sub.sub.headers.websec.saarland</text>
</g>
<!-- SG_0_Node_13 -->
<g id="node9" class="node">
<title>SG_0_Node_13</title>
<ellipse fill="none" stroke="black" cx="1572" cy="-436.07" rx="33.88" ry="21.43"/>
<text text-anchor="middle" x="1572" y="-431.07" font-family="Times,serif" font-size="20.00">0.5</text>
</g>
<!-- SG_0_Node_4&#45;&gt;SG_0_Node_13 -->
<g id="edge6" class="edge">
<title>SG_0_Node_4&#45;&gt;SG_0_Node_13</title>
<path fill="none" stroke="black" d="M1200.4,-663.22C1311.53,-660.8 1525.49,-653.07 1550,-629.28 1593.22,-587.34 1586.69,-509.85 1578.9,-467.19"/>
<polygon fill="black" stroke="black" points="1582.28,-466.27 1576.92,-457.14 1575.42,-467.63 1582.28,-466.27"/>
<text text-anchor="middle" x="1770.5" y="-558.28" font-family="Times,serif" font-size="20.00">http://sub.headers.websec.saarland</text>
<text text-anchor="middle" x="1770.5" y="-536.28" font-family="Times,serif" font-size="20.00">https://sub.headers.websec.saarland</text>
</g>
<!-- SG_0_Node_14 -->
<g id="node10" class="node">
<title>SG_0_Node_14</title>
<ellipse fill="none" stroke="black" cx="50" cy="-181.64" rx="33.88" ry="21.43"/>
<text text-anchor="middle" x="50" y="-176.64" font-family="Times,serif" font-size="20.00">0.0</text>
</g>
<!-- SG_0_Node_5&#45;&gt;SG_0_Node_14 -->
<g id="edge13" class="edge">
<title>SG_0_Node_5&#45;&gt;SG_0_Node_14</title>
<path fill="none" stroke="black" d="M195.59,-418.02C190.67,-416.87 185.76,-415.79 181,-414.85 149.79,-408.7 60.03,-420.72 39,-396.85 -6.42,-345.32 19.33,-256.83 37.26,-211.4"/>
<polygon fill="black" stroke="black" points="40.51,-212.71 41.06,-202.13 34.03,-210.06 40.51,-212.71"/>
<text text-anchor="middle" x="246.5" y="-380.85" font-family="Times,serif" font-size="20.00">[NA]</text>
<text text-anchor="middle" x="246.5" y="-358.85" font-family="Times,serif" font-size="20.00">http://headers.webappsec.eu</text>
<text text-anchor="middle" x="246.5" y="-336.85" font-family="Times,serif" font-size="20.00">http://headers.websec.saarland</text>
<text text-anchor="middle" x="246.5" y="-314.85" font-family="Times,serif" font-size="20.00">http://sub.headers.websec.saarland</text>
<text text-anchor="middle" x="246.5" y="-292.85" font-family="Times,serif" font-size="20.00">http://sub.sub.headers.websec.saarland</text>
<text text-anchor="middle" x="246.5" y="-270.85" font-family="Times,serif" font-size="20.00">https://headers.webappsec.eu</text>
<text text-anchor="middle" x="246.5" y="-248.85" font-family="Times,serif" font-size="20.00">https://headers.websec.saarland</text>
<text text-anchor="middle" x="246.5" y="-226.85" font-family="Times,serif" font-size="20.00">https://sub.sub.headers.websec.saarland</text>
</g>
<!-- SG_0_Node_8 -->
<g id="node11" class="node">
<title>SG_0_Node_8</title>
<polygon fill="none" stroke="black" points="481,-199.64 359,-199.64 359,-163.64 481,-163.64 481,-199.64"/>
<text text-anchor="middle" x="420" y="-176.64" font-family="Times,serif" font-size="20.00">org_origin</text>
</g>
<!-- SG_0_Node_5&#45;&gt;SG_0_Node_8 -->
<g id="edge14" class="edge">
<title>SG_0_Node_5&#45;&gt;SG_0_Node_8</title>
<path fill="none" stroke="black" d="M322.17,-431.46C374.28,-427.07 440.89,-417.5 458,-396.85 507.91,-336.62 487.83,-293.16 458,-220.85 456,-216 453.05,-211.45 449.67,-207.28"/>
<polygon fill="black" stroke="black" points="452.12,-204.77 442.76,-199.8 446.97,-209.52 452.12,-204.77"/>
<text text-anchor="middle" x="674.5" y="-303.85" font-family="Times,serif" font-size="20.00">https://sub.headers.websec.saarland</text>
</g>
<!-- SG_0_Node_15 -->
<g id="node12" class="node">
<title>SG_0_Node_15</title>
<ellipse fill="none" stroke="black" cx="1004" cy="-181.64" rx="33.88" ry="21.43"/>
<text text-anchor="middle" x="1004" y="-176.64" font-family="Times,serif" font-size="20.00">0.0</text>
</g>
<!-- SG_0_Node_6&#45;&gt;SG_0_Node_15 -->
<g id="edge7" class="edge">
<title>SG_0_Node_6&#45;&gt;SG_0_Node_15</title>
<path fill="none" stroke="black" d="M1067.67,-431.34C1044.07,-426.42 1019.72,-416.47 1005,-396.85 964.31,-342.62 981.06,-257 994.08,-212.2"/>
<polygon fill="black" stroke="black" points="997.47,-213.09 997.03,-202.5 990.77,-211.05 997.47,-213.09"/>
<text text-anchor="middle" x="1170.5" y="-347.85" font-family="Times,serif" font-size="20.00">[NA]</text>
<text text-anchor="middle" x="1170.5" y="-325.85" font-family="Times,serif" font-size="20.00">http://headers.webappsec.eu</text>
<text text-anchor="middle" x="1170.5" y="-303.85" font-family="Times,serif" font-size="20.00">http://headers.websec.saarland</text>
<text text-anchor="middle" x="1170.5" y="-281.85" font-family="Times,serif" font-size="20.00">https://headers.webappsec.eu</text>
<text text-anchor="middle" x="1170.5" y="-259.85" font-family="Times,serif" font-size="20.00">https://headers.websec.saarland</text>
</g>
<!-- SG_0_Node_9 -->
<g id="node13" class="node">
<title>SG_0_Node_9</title>
<polygon fill="none" stroke="black" points="1426.5,-199.64 1289.5,-199.64 1289.5,-163.64 1426.5,-163.64 1426.5,-199.64"/>
<text text-anchor="middle" x="1358" y="-176.64" font-family="Times,serif" font-size="20.00">raw_header</text>
</g>
<!-- SG_0_Node_6&#45;&gt;SG_0_Node_9 -->
<g id="edge8" class="edge">
<title>SG_0_Node_6&#45;&gt;SG_0_Node_9</title>
<path fill="none" stroke="black" d="M1200.16,-430.95C1251.87,-426.26 1317.92,-416.53 1336,-396.85 1383.3,-345.37 1373.24,-254.79 1364.37,-209.71"/>
<polygon fill="black" stroke="black" points="1367.77,-208.86 1362.3,-199.79 1360.92,-210.29 1367.77,-208.86"/>
<text text-anchor="middle" x="1578.5" y="-314.85" font-family="Times,serif" font-size="20.00">http://sub.sub.headers.websec.saarland</text>
<text text-anchor="middle" x="1578.5" y="-292.85" font-family="Times,serif" font-size="20.00">https://sub.sub.headers.websec.saarland</text>
</g>
<!-- SG_0_Node_16 -->
<g id="node14" class="node">
<title>SG_0_Node_16</title>
<ellipse fill="none" stroke="black" cx="50" cy="-37.21" rx="33.88" ry="21.43"/>
<text text-anchor="middle" x="50" y="-32.21" font-family="Times,serif" font-size="20.00">0.0</text>
</g>
<!-- SG_0_Node_8&#45;&gt;SG_0_Node_16 -->
<g id="edge15" class="edge">
<title>SG_0_Node_8&#45;&gt;SG_0_Node_16</title>
<path fill="none" stroke="black" d="M358.83,-178.59C259.81,-174.65 73.37,-164.38 53,-142.43 34.96,-122.98 36.59,-91.64 41.28,-68.41"/>
<polygon fill="black" stroke="black" points="44.76,-68.9 43.6,-58.37 37.94,-67.33 44.76,-68.9"/>
<text text-anchor="middle" x="234.5" y="-104.43" font-family="Times,serif" font-size="20.00">http://sub.headers.websec.saarland</text>
</g>
<!-- SG_0_Node_17 -->
<g id="node15" class="node">
<title>SG_0_Node_17</title>
<ellipse fill="none" stroke="black" cx="420" cy="-37.21" rx="33.88" ry="21.43"/>
<text text-anchor="middle" x="420" y="-32.21" font-family="Times,serif" font-size="20.00">1.0</text>
</g>
<!-- SG_0_Node_8&#45;&gt;SG_0_Node_17 -->
<g id="edge16" class="edge">
<title>SG_0_Node_8&#45;&gt;SG_0_Node_17</title>
<path fill="none" stroke="black" d="M420,-163.46C420,-140.1 420,-97.94 420,-69.04"/>
<polygon fill="black" stroke="black" points="423.5,-68.67 420,-58.67 416.5,-68.67 423.5,-68.67"/>
<text text-anchor="middle" x="606.5" y="-115.43" font-family="Times,serif" font-size="20.00">[NA]</text>
<text text-anchor="middle" x="606.5" y="-93.43" font-family="Times,serif" font-size="20.00">https://sub.headers.websec.saarland</text>
</g>
<!-- SG_0_Node_18 -->
<g id="node16" class="node">
<title>SG_0_Node_18</title>
<ellipse fill="none" stroke="black" cx="816" cy="-37.21" rx="33.88" ry="21.43"/>
<text text-anchor="middle" x="816" y="-32.21" font-family="Times,serif" font-size="20.00">0.0</text>
</g>
<!-- SG_0_Node_9&#45;&gt;SG_0_Node_18 -->
<g id="edge9" class="edge">
<title>SG_0_Node_9&#45;&gt;SG_0_Node_18</title>
<path fill="none" stroke="black" d="M1289.27,-176.12C1143.22,-166.48 815.01,-144.58 813,-142.43 794.72,-122.82 798.59,-91.03 805.11,-67.7"/>
<polygon fill="black" stroke="black" points="808.5,-68.56 808.11,-57.97 801.82,-66.5 808.5,-68.56"/>
<text text-anchor="middle" x="1158.5" y="-126.43" font-family="Times,serif" font-size="20.00">[[&#39;Content&#45;Security&#45;Policy&#39;, &quot;frame&#45;ancestors &#39;self&#39;&quot;]]</text>
<text text-anchor="middle" x="1158.5" y="-104.43" font-family="Times,serif" font-size="20.00">[[&#39;Content&#45;Security&#45;Policy&#39;, &#39;*&#39;], [&#39;X&#45;Frame&#45;Options&#39;, &#39;SAMEORIGIN&#39;]]</text>
<text text-anchor="middle" x="1158.5" y="-82.43" font-family="Times,serif" font-size="20.00">[[&#39;x&#45;frame&#45;options&#39;, &#39;SAMEORIGIN&#39;]]</text>
</g>
<!-- SG_0_Node_19 -->
<g id="node17" class="node">
<title>SG_0_Node_19</title>
<ellipse fill="none" stroke="black" cx="1530" cy="-37.21" rx="33.88" ry="21.43"/>
<text text-anchor="middle" x="1530" y="-32.21" font-family="Times,serif" font-size="20.00">0.5</text>
</g>
<!-- SG_0_Node_9&#45;&gt;SG_0_Node_19 -->
<g id="edge10" class="edge">
<title>SG_0_Node_9&#45;&gt;SG_0_Node_19</title>
<path fill="none" stroke="black" d="M1426.5,-170.38C1460.34,-163.94 1496.37,-154.55 1508,-142.43 1526.65,-122.99 1531.2,-91.92 1531.65,-68.76"/>
<polygon fill="black" stroke="black" points="1535.15,-68.73 1531.61,-58.74 1528.15,-68.76 1535.15,-68.73"/>
<text text-anchor="middle" x="2053" y="-115.43" font-family="Times,serif" font-size="20.00">[[&#39;Content&#45;Security&#45;Policy&#39;, &#39;frame&#45;ancestors *.headers.websec.saarland&#39;]]</text>
<text text-anchor="middle" x="2053" y="-93.43" font-family="Times,serif" font-size="20.00">[[&#39;X&#45;Frame&#45;Options&#39;, &#39;DENY&#39;], [&#39;Content&#45;Security&#45;Policy&#39;, &#39;frame&#45;ancestors *.headers.websec.saarland&#39;]]</text>
</g>
<!-- SG_1_Node_0 -->
<g id="node18" class="node">
<title>SG_1_Node_0</title>
<polygon fill="none" stroke="black" points="3846.5,-987.71 3709.5,-987.71 3709.5,-951.71 3846.5,-951.71 3846.5,-987.71"/>
<text text-anchor="middle" x="3778" y="-964.71" font-family="Times,serif" font-size="20.00">raw_header</text>
</g>
<!-- SG_1_Node_11 -->
<g id="node19" class="node">
<title>SG_1_Node_11</title>
<ellipse fill="none" stroke="black" cx="3719" cy="-850.49" rx="33.88" ry="21.43"/>
<text text-anchor="middle" x="3719" y="-845.49" font-family="Times,serif" font-size="20.00">0.5</text>
</g>
<!-- SG_1_Node_0&#45;&gt;SG_1_Node_11 -->
<g id="edge17" class="edge">
<title>SG_1_Node_0&#45;&gt;SG_1_Node_11</title>
<path fill="none" stroke="black" d="M3741.25,-951.62C3734.44,-946.78 3728.17,-940.85 3724,-933.71 3715.01,-918.31 3713.59,-898.4 3714.5,-882.04"/>
<polygon fill="black" stroke="black" points="3718.01,-882.14 3715.38,-871.88 3711.03,-881.54 3718.01,-882.14"/>
<text text-anchor="middle" x="3769.5" y="-906.71" font-family="Times,serif" font-size="20.00">12 levels</text>
</g>
<!-- SG_1_Node_2 -->
<g id="node20" class="node">
<title>SG_1_Node_2</title>
<polygon fill="none" stroke="black" points="3907.5,-868.49 3770.5,-868.49 3770.5,-832.49 3907.5,-832.49 3907.5,-868.49"/>
<text text-anchor="middle" x="3839" y="-845.49" font-family="Times,serif" font-size="20.00">raw_header</text>
</g>
<!-- SG_1_Node_0&#45;&gt;SG_1_Node_2 -->
<g id="edge18" class="edge">
<title>SG_1_Node_0&#45;&gt;SG_1_Node_2</title>
<path fill="none" stroke="black" d="M3800.03,-951.49C3805.56,-946.27 3811.03,-940.19 3815,-933.71 3825.24,-916.95 3831.3,-895.6 3834.77,-878.86"/>
<polygon fill="black" stroke="black" points="3838.29,-879.09 3836.7,-868.62 3831.41,-877.8 3838.29,-879.09"/>
<text text-anchor="middle" x="3877.5" y="-917.71" font-family="Times,serif" font-size="20.00">[NA]</text>
<text text-anchor="middle" x="3877.5" y="-895.71" font-family="Times,serif" font-size="20.00">20 levels</text>
</g>
<!-- SG_1_Node_3 -->
<g id="node21" class="node">
<title>SG_1_Node_3</title>
<polygon fill="none" stroke="black" points="3372,-683.28 3240,-683.28 3240,-647.28 3372,-647.28 3372,-683.28"/>
<text text-anchor="middle" x="3306" y="-660.28" font-family="Times,serif" font-size="20.00">resp_origin</text>
</g>
<!-- SG_1_Node_2&#45;&gt;SG_1_Node_3 -->
<g id="edge19" class="edge">
<title>SG_1_Node_2&#45;&gt;SG_1_Node_3</title>
<path fill="none" stroke="black" d="M3779.15,-832.44C3773.39,-831.2 3767.6,-830.12 3762,-829.28 3736.98,-825.55 3324.59,-829.46 3307,-811.28 3276.98,-780.27 3286.72,-725.76 3296.43,-693.14"/>
<polygon fill="black" stroke="black" points="3299.84,-693.96 3299.53,-683.37 3293.17,-691.84 3299.84,-693.96"/>
<text text-anchor="middle" x="3829" y="-795.28" font-family="Times,serif" font-size="20.00">[[&#39;Content&#45;Security&#45;Policy&#39;, &quot;frame&#45;ancestors &#39;self&#39;&quot;]]</text>
<text text-anchor="middle" x="3829" y="-773.28" font-family="Times,serif" font-size="20.00">[[&#39;Content&#45;Security&#45;Policy&#39;, &#39;*&#39;], [&#39;X&#45;Frame&#45;Options&#39;, &#39;SAMEORIGIN&#39;]]</text>
<text text-anchor="middle" x="3829" y="-751.28" font-family="Times,serif" font-size="20.00">[[&#39;Content&#45;Security&#45;Policy&#39;, &#39;frame&#45;ancestors *.headers.websec.saarland&#39;]]</text>
<text text-anchor="middle" x="3829" y="-729.28" font-family="Times,serif" font-size="20.00">[[&#39;X&#45;Frame&#45;Options&#39;, &#39;DENY&#39;], [&#39;Content&#45;Security&#45;Policy&#39;, &#39;frame&#45;ancestors *.headers.websec.saarland&#39;]]</text>
<text text-anchor="middle" x="3829" y="-707.28" font-family="Times,serif" font-size="20.00">[[&#39;x&#45;frame&#45;options&#39;, &#39;SAMEORIGIN&#39;]]</text>
</g>
<!-- SG_1_Node_4 -->
<g id="node22" class="node">
<title>SG_1_Node_4</title>
<polygon fill="none" stroke="black" points="4441.5,-683.28 4304.5,-683.28 4304.5,-647.28 4441.5,-647.28 4441.5,-683.28"/>
<text text-anchor="middle" x="4373" y="-660.28" font-family="Times,serif" font-size="20.00">raw_header</text>
</g>
<!-- SG_1_Node_2&#45;&gt;SG_1_Node_4 -->
<g id="edge20" class="edge">
<title>SG_1_Node_2&#45;&gt;SG_1_Node_4</title>
<path fill="none" stroke="black" d="M3907.69,-849.04C4039.82,-847.5 4319.19,-840.76 4351,-811.28 4383.02,-781.61 4382.02,-726.65 4377.86,-693.57"/>
<polygon fill="black" stroke="black" points="4381.33,-693.07 4376.44,-683.67 4374.4,-694.06 4381.33,-693.07"/>
<text text-anchor="middle" x="4424.5" y="-762.28" font-family="Times,serif" font-size="20.00">[NA]</text>
<text text-anchor="middle" x="4424.5" y="-740.28" font-family="Times,serif" font-size="20.00">15 levels</text>
</g>
<!-- SG_1_Node_12 -->
<g id="node23" class="node">
<title>SG_1_Node_12</title>
<ellipse fill="none" stroke="black" cx="3108" cy="-436.07" rx="33.88" ry="21.43"/>
<text text-anchor="middle" x="3108" y="-431.07" font-family="Times,serif" font-size="20.00">0.5</text>
</g>
<!-- SG_1_Node_3&#45;&gt;SG_1_Node_12 -->
<g id="edge27" class="edge">
<title>SG_1_Node_3&#45;&gt;SG_1_Node_12</title>
<path fill="none" stroke="black" d="M3239.75,-661.38C3189.24,-657.62 3125.62,-649 3109,-629.28 3070.65,-583.75 3085.26,-508.35 3097.64,-466.8"/>
<polygon fill="black" stroke="black" points="3101.06,-467.6 3100.71,-457.01 3094.38,-465.51 3101.06,-467.6"/>
<text text-anchor="middle" x="3295.5" y="-558.28" font-family="Times,serif" font-size="20.00">http://sub.headers.websec.saarland</text>
<text text-anchor="middle" x="3295.5" y="-536.28" font-family="Times,serif" font-size="20.00">https://sub.headers.websec.saarland</text>
</g>
<!-- SG_1_Node_6 -->
<g id="node24" class="node">
<title>SG_1_Node_6</title>
<polygon fill="none" stroke="black" points="3570,-454.07 3438,-454.07 3438,-418.07 3570,-418.07 3570,-454.07"/>
<text text-anchor="middle" x="3504" y="-431.07" font-family="Times,serif" font-size="20.00">resp_origin</text>
</g>
<!-- SG_1_Node_3&#45;&gt;SG_1_Node_6 -->
<g id="edge28" class="edge">
<title>SG_1_Node_3&#45;&gt;SG_1_Node_6</title>
<path fill="none" stroke="black" d="M3372.1,-659.17C3415.61,-654.35 3467.17,-645.38 3482,-629.28 3523.65,-584.05 3516.98,-505.22 3509.8,-463.97"/>
<polygon fill="black" stroke="black" points="3513.23,-463.28 3507.95,-454.1 3506.36,-464.57 3513.23,-463.28"/>
<text text-anchor="middle" x="3722.5" y="-613.28" font-family="Times,serif" font-size="20.00">[NA]</text>
<text text-anchor="middle" x="3722.5" y="-591.28" font-family="Times,serif" font-size="20.00">http://headers.webappsec.eu</text>
<text text-anchor="middle" x="3722.5" y="-569.28" font-family="Times,serif" font-size="20.00">http://headers.websec.saarland</text>
<text text-anchor="middle" x="3722.5" y="-547.28" font-family="Times,serif" font-size="20.00">http://sub.sub.headers.websec.saarland</text>
<text text-anchor="middle" x="3722.5" y="-525.28" font-family="Times,serif" font-size="20.00">https://headers.webappsec.eu</text>
<text text-anchor="middle" x="3722.5" y="-503.28" font-family="Times,serif" font-size="20.00">https://headers.websec.saarland</text>
<text text-anchor="middle" x="3722.5" y="-481.28" font-family="Times,serif" font-size="20.00">https://sub.sub.headers.websec.saarland</text>
</g>
<!-- SG_1_Node_7 -->
<g id="node25" class="node">
<title>SG_1_Node_7</title>
<polygon fill="none" stroke="black" points="4331,-454.07 4199,-454.07 4199,-418.07 4331,-418.07 4331,-454.07"/>
<text text-anchor="middle" x="4265" y="-431.07" font-family="Times,serif" font-size="20.00">resp_origin</text>
</g>
<!-- SG_1_Node_4&#45;&gt;SG_1_Node_7 -->
<g id="edge21" class="edge">
<title>SG_1_Node_4&#45;&gt;SG_1_Node_7</title>
<path fill="none" stroke="black" d="M4304.06,-660.32C4257.49,-656.04 4201.89,-647.24 4187,-629.28 4143.31,-576.6 4150.78,-533.36 4187,-475.28 4190.75,-469.26 4195.76,-464.17 4201.43,-459.85"/>
<polygon fill="black" stroke="black" points="4203.74,-462.52 4210.15,-454.09 4199.88,-456.68 4203.74,-462.52"/>
<text text-anchor="middle" x="4615" y="-558.28" font-family="Times,serif" font-size="20.00">[[&#39;Content&#45;Security&#45;Policy&#39;, &#39;frame&#45;ancestors https://sub.headers.websec.saarland&#39;]]</text>
<text text-anchor="middle" x="4615" y="-536.28" font-family="Times,serif" font-size="20.00">[[&#39;Content&#45;Security&#45;Policy&#39;, &#39;frame&#45;ancestors https://sub.headers.websec.saarland/&#39;]]</text>
</g>
<!-- SG_1_Node_13 -->
<g id="node26" class="node">
<title>SG_1_Node_13</title>
<ellipse fill="none" stroke="black" cx="5065" cy="-436.07" rx="33.88" ry="21.43"/>
<text text-anchor="middle" x="5065" y="-431.07" font-family="Times,serif" font-size="20.00">1.0</text>
</g>
<!-- SG_1_Node_4&#45;&gt;SG_1_Node_13 -->
<g id="edge22" class="edge">
<title>SG_1_Node_4&#45;&gt;SG_1_Node_13</title>
<path fill="none" stroke="black" d="M4441.72,-663.06C4608.25,-659.78 5021.35,-649.64 5043,-629.28 5086.97,-587.94 5080.06,-509.94 5072.02,-467.11"/>
<polygon fill="black" stroke="black" points="5075.45,-466.38 5070.04,-457.27 5068.59,-467.76 5075.45,-466.38"/>
<text text-anchor="middle" x="5122.5" y="-558.28" font-family="Times,serif" font-size="20.00">[NA]</text>
<text text-anchor="middle" x="5122.5" y="-536.28" font-family="Times,serif" font-size="20.00">13 levels</text>
</g>
<!-- SG_1_Node_8 -->
<g id="node27" class="node">
<title>SG_1_Node_8</title>
<polygon fill="none" stroke="black" points="3353.5,-199.64 3216.5,-199.64 3216.5,-163.64 3353.5,-163.64 3353.5,-199.64"/>
<text text-anchor="middle" x="3285" y="-176.64" font-family="Times,serif" font-size="20.00">raw_header</text>
</g>
<!-- SG_1_Node_6&#45;&gt;SG_1_Node_8 -->
<g id="edge29" class="edge">
<title>SG_1_Node_6&#45;&gt;SG_1_Node_8</title>
<path fill="none" stroke="black" d="M3437.95,-432.54C3381.07,-428.82 3305.21,-419.61 3286,-396.85 3241.16,-343.72 3261.27,-253.96 3275.39,-209.4"/>
<polygon fill="black" stroke="black" points="3278.73,-210.44 3278.55,-199.85 3272.08,-208.24 3278.73,-210.44"/>
<text text-anchor="middle" x="3493.5" y="-314.85" font-family="Times,serif" font-size="20.00">http://sub.sub.headers.websec.saarland</text>
<text text-anchor="middle" x="3493.5" y="-292.85" font-family="Times,serif" font-size="20.00">https://sub.sub.headers.websec.saarland</text>
</g>
<!-- SG_1_Node_14 -->
<g id="node28" class="node">
<title>SG_1_Node_14</title>
<ellipse fill="none" stroke="black" cx="3723" cy="-181.64" rx="33.88" ry="21.43"/>
<text text-anchor="middle" x="3723" y="-176.64" font-family="Times,serif" font-size="20.00">1.0</text>
</g>
<!-- SG_1_Node_6&#45;&gt;SG_1_Node_14 -->
<g id="edge30" class="edge">
<title>SG_1_Node_6&#45;&gt;SG_1_Node_14</title>
<path fill="none" stroke="black" d="M3570.06,-430.58C3620.26,-425.71 3683.57,-415.91 3701,-396.85 3747.11,-346.43 3738.6,-258.82 3729.95,-212.82"/>
<polygon fill="black" stroke="black" points="3733.35,-211.99 3727.95,-202.87 3726.49,-213.36 3733.35,-211.99"/>
<text text-anchor="middle" x="3901.5" y="-347.85" font-family="Times,serif" font-size="20.00">[NA]</text>
<text text-anchor="middle" x="3901.5" y="-325.85" font-family="Times,serif" font-size="20.00">http://headers.webappsec.eu</text>
<text text-anchor="middle" x="3901.5" y="-303.85" font-family="Times,serif" font-size="20.00">http://headers.websec.saarland</text>
<text text-anchor="middle" x="3901.5" y="-281.85" font-family="Times,serif" font-size="20.00">https://headers.webappsec.eu</text>
<text text-anchor="middle" x="3901.5" y="-259.85" font-family="Times,serif" font-size="20.00">https://headers.websec.saarland</text>
</g>
<!-- SG_1_Node_9 -->
<g id="node29" class="node">
<title>SG_1_Node_9</title>
<polygon fill="none" stroke="black" points="4458,-199.64 4336,-199.64 4336,-163.64 4458,-163.64 4458,-199.64"/>
<text text-anchor="middle" x="4397" y="-176.64" font-family="Times,serif" font-size="20.00">org_origin</text>
</g>
<!-- SG_1_Node_7&#45;&gt;SG_1_Node_9 -->
<g id="edge23" class="edge">
<title>SG_1_Node_7&#45;&gt;SG_1_Node_9</title>
<path fill="none" stroke="black" d="M4258.89,-417.92C4246.05,-378.56 4221.01,-280.55 4266,-220.85 4280.16,-202.06 4303.05,-192.1 4325.76,-186.95"/>
<polygon fill="black" stroke="black" points="4326.67,-190.33 4335.8,-184.96 4325.31,-183.47 4326.67,-190.33"/>
<text text-anchor="middle" x="4452.5" y="-303.85" font-family="Times,serif" font-size="20.00">https://sub.headers.websec.saarland</text>
</g>
<!-- SG_1_Node_15 -->
<g id="node30" class="node">
<title>SG_1_Node_15</title>
<ellipse fill="none" stroke="black" cx="4661" cy="-181.64" rx="33.88" ry="21.43"/>
<text text-anchor="middle" x="4661" y="-176.64" font-family="Times,serif" font-size="20.00">1.0</text>
</g>
<!-- SG_1_Node_7&#45;&gt;SG_1_Node_15 -->
<g id="edge24" class="edge">
<title>SG_1_Node_7&#45;&gt;SG_1_Node_15</title>
<path fill="none" stroke="black" d="M4331.24,-432.77C4432.85,-428.59 4617.71,-418.13 4639,-396.85 4687.55,-348.33 4677.77,-259.21 4668.36,-212.7"/>
<polygon fill="black" stroke="black" points="4671.78,-211.95 4666.26,-202.91 4664.94,-213.42 4671.78,-211.95"/>
<text text-anchor="middle" x="4883.5" y="-380.85" font-family="Times,serif" font-size="20.00">[NA]</text>
<text text-anchor="middle" x="4883.5" y="-358.85" font-family="Times,serif" font-size="20.00">http://headers.webappsec.eu</text>
<text text-anchor="middle" x="4883.5" y="-336.85" font-family="Times,serif" font-size="20.00">http://headers.websec.saarland</text>
<text text-anchor="middle" x="4883.5" y="-314.85" font-family="Times,serif" font-size="20.00">http://sub.headers.websec.saarland</text>
<text text-anchor="middle" x="4883.5" y="-292.85" font-family="Times,serif" font-size="20.00">http://sub.sub.headers.websec.saarland</text>
<text text-anchor="middle" x="4883.5" y="-270.85" font-family="Times,serif" font-size="20.00">https://headers.webappsec.eu</text>
<text text-anchor="middle" x="4883.5" y="-248.85" font-family="Times,serif" font-size="20.00">https://headers.websec.saarland</text>
<text text-anchor="middle" x="4883.5" y="-226.85" font-family="Times,serif" font-size="20.00">https://sub.sub.headers.websec.saarland</text>
</g>
<!-- SG_1_Node_16 -->
<g id="node31" class="node">
<title>SG_1_Node_16</title>
<ellipse fill="none" stroke="black" cx="2632" cy="-37.21" rx="33.88" ry="21.43"/>
<text text-anchor="middle" x="2632" y="-32.21" font-family="Times,serif" font-size="20.00">0.5</text>
</g>
<!-- SG_1_Node_8&#45;&gt;SG_1_Node_16 -->
<g id="edge31" class="edge">
<title>SG_1_Node_8&#45;&gt;SG_1_Node_16</title>
<path fill="none" stroke="black" d="M3216.23,-179.24C3049.06,-175.52 2633.49,-164.11 2613,-142.43 2594.02,-122.33 2603.87,-89.92 2615.25,-66.57"/>
<polygon fill="black" stroke="black" points="2618.46,-67.98 2619.96,-57.49 2612.25,-64.75 2618.46,-67.98"/>
<text text-anchor="middle" x="3135" y="-115.43" font-family="Times,serif" font-size="20.00">[[&#39;Content&#45;Security&#45;Policy&#39;, &#39;frame&#45;ancestors *.headers.websec.saarland&#39;]]</text>
<text text-anchor="middle" x="3135" y="-93.43" font-family="Times,serif" font-size="20.00">[[&#39;X&#45;Frame&#45;Options&#39;, &#39;DENY&#39;], [&#39;Content&#45;Security&#45;Policy&#39;, &#39;frame&#45;ancestors *.headers.websec.saarland&#39;]]</text>
</g>
<!-- SG_1_Node_17 -->
<g id="node32" class="node">
<title>SG_1_Node_17</title>
<ellipse fill="none" stroke="black" cx="3683" cy="-37.21" rx="33.88" ry="21.43"/>
<text text-anchor="middle" x="3683" y="-32.21" font-family="Times,serif" font-size="20.00">1.0</text>
</g>
<!-- SG_1_Node_8&#45;&gt;SG_1_Node_17 -->
<g id="edge32" class="edge">
<title>SG_1_Node_8&#45;&gt;SG_1_Node_17</title>
<path fill="none" stroke="black" d="M3353.84,-177.98C3456.13,-173.4 3638.67,-162.49 3661,-142.43 3681.28,-124.21 3685.5,-92.41 3685.43,-68.72"/>
<polygon fill="black" stroke="black" points="3688.92,-68.38 3685.14,-58.48 3681.92,-68.58 3688.92,-68.38"/>
<text text-anchor="middle" x="4030.5" y="-126.43" font-family="Times,serif" font-size="20.00">[[&#39;Content&#45;Security&#45;Policy&#39;, &quot;frame&#45;ancestors &#39;self&#39;&quot;]]</text>
<text text-anchor="middle" x="4030.5" y="-104.43" font-family="Times,serif" font-size="20.00">[[&#39;Content&#45;Security&#45;Policy&#39;, &#39;*&#39;], [&#39;X&#45;Frame&#45;Options&#39;, &#39;SAMEORIGIN&#39;]]</text>
<text text-anchor="middle" x="4030.5" y="-82.43" font-family="Times,serif" font-size="20.00">[[&#39;x&#45;frame&#45;options&#39;, &#39;SAMEORIGIN&#39;]]</text>
</g>
<!-- SG_1_Node_18 -->
<g id="node33" class="node">
<title>SG_1_Node_18</title>
<ellipse fill="none" stroke="black" cx="4397" cy="-37.21" rx="33.88" ry="21.43"/>
<text text-anchor="middle" x="4397" y="-32.21" font-family="Times,serif" font-size="20.00">0.0</text>
</g>
<!-- SG_1_Node_9&#45;&gt;SG_1_Node_18 -->
<g id="edge25" class="edge">
<title>SG_1_Node_9&#45;&gt;SG_1_Node_18</title>
<path fill="none" stroke="black" d="M4397,-163.46C4397,-140.1 4397,-97.94 4397,-69.04"/>
<polygon fill="black" stroke="black" points="4400.5,-68.67 4397,-58.67 4393.5,-68.67 4400.5,-68.67"/>
<text text-anchor="middle" x="4583.5" y="-104.43" font-family="Times,serif" font-size="20.00">https://sub.headers.websec.saarland</text>
</g>
<!-- SG_1_Node_19 -->
<g id="node34" class="node">
<title>SG_1_Node_19</title>
<ellipse fill="none" stroke="black" cx="4793" cy="-37.21" rx="33.88" ry="21.43"/>
<text text-anchor="middle" x="4793" y="-32.21" font-family="Times,serif" font-size="20.00">1.0</text>
</g>
<!-- SG_1_Node_9&#45;&gt;SG_1_Node_19 -->
<g id="edge26" class="edge">
<title>SG_1_Node_9&#45;&gt;SG_1_Node_19</title>
<path fill="none" stroke="black" d="M4458.18,-174.85C4563.5,-164.81 4768.12,-145.02 4771,-142.43 4791.27,-124.2 4795.49,-92.41 4795.42,-68.72"/>
<polygon fill="black" stroke="black" points="4798.92,-68.38 4795.13,-58.48 4791.92,-68.57 4798.92,-68.38"/>
<text text-anchor="middle" x="4976.5" y="-115.43" font-family="Times,serif" font-size="20.00">[NA]</text>
<text text-anchor="middle" x="4976.5" y="-93.43" font-family="Times,serif" font-size="20.00">http://sub.headers.websec.saarland</text>
</g>
</g>
</svg>
