<?xml version="1.0" encoding="UTF-8" standalone="no"?>
<!DOCTYPE svg PUBLIC "-//W3C//DTD SVG 1.1//EN"
 "http://www.w3.org/Graphics/SVG/1.1/DTD/svg11.dtd">
<!-- Generated by graphviz version 2.43.0 (0)
 -->
<!-- Title: G Pages: 1 -->
<svg width="3339pt" height="1193pt"
 viewBox="0.00 0.00 3339.00 1192.56" xmlns="http://www.w3.org/2000/svg" xmlns:xlink="http://www.w3.org/1999/xlink">
<g id="graph0" class="graph" transform="scale(1 1) rotate(0) translate(4 1188.56)">
<title>G</title>
<polygon fill="white" stroke="transparent" points="-4,4 -4,-1188.56 3335,-1188.56 3335,4 -4,4"/>
<g id="clust1" class="cluster">
<title>cluster_0</title>
<polygon fill="none" stroke="black" points="8,-8 8,-1176.56 853,-1176.56 853,-8 8,-8"/>
<text text-anchor="middle" x="430.5" y="-1140.56" font-family="Times,serif" font-size="40.00">Tree 0, Class fullscreenEnabled: false</text>
</g>
<g id="clust9" class="cluster">
<title>cluster_1</title>
<polygon fill="none" stroke="black" points="861,-8 861,-1176.56 2675,-1176.56 2675,-8 861,-8"/>
<text text-anchor="middle" x="1768" y="-1140.56" font-family="Times,serif" font-size="40.00">Tree 0, Class fullscreenEnabled: true</text>
</g>
<g id="clust17" class="cluster">
<title>cluster_2</title>
<polygon fill="none" stroke="black" points="2683,-840.13 2683,-1176.56 3323,-1176.56 3323,-840.13 2683,-840.13"/>
<text text-anchor="middle" x="3003" y="-1140.56" font-family="Times,serif" font-size="40.00">Tree 0, Class message timeout</text>
</g>
<!-- SG_0_Node_0 -->
<g id="node1" class="node">
<title>SG_0_Node_0</title>
<polygon fill="none" stroke="black" points="322,-1116.56 190,-1116.56 190,-1080.56 322,-1080.56 322,-1116.56"/>
<text text-anchor="middle" x="256" y="-1093.56" font-family="Times,serif" font-size="20.00">resp_origin</text>
</g>
<!-- SG_0_Node_1 -->
<g id="node2" class="node">
<title>SG_0_Node_1</title>
<polygon fill="none" stroke="black" points="153.5,-887.35 16.5,-887.35 16.5,-851.35 153.5,-851.35 153.5,-887.35"/>
<text text-anchor="middle" x="85" y="-864.35" font-family="Times,serif" font-size="20.00">raw_header</text>
</g>
<!-- SG_0_Node_0&#45;&gt;SG_0_Node_1 -->
<g id="edge1" class="edge">
<title>SG_0_Node_0&#45;&gt;SG_0_Node_1</title>
<path fill="none" stroke="black" d="M189.91,-1096.24C132.19,-1093.53 54.65,-1085.56 35,-1062.56 -9.45,-1010.51 4.67,-969.92 35,-908.56 37.67,-903.16 41.5,-898.32 45.88,-894.04"/>
<polygon fill="black" stroke="black" points="48.34,-896.54 53.65,-887.38 43.78,-891.23 48.34,-896.54"/>
<text text-anchor="middle" x="221.5" y="-991.56" font-family="Times,serif" font-size="20.00">http://sub.headers.websec.saarland</text>
<text text-anchor="middle" x="221.5" y="-969.56" font-family="Times,serif" font-size="20.00">https://sub.headers.websec.saarland</text>
</g>
<!-- SG_0_Node_2 -->
<g id="node3" class="node">
<title>SG_0_Node_2</title>
<polygon fill="none" stroke="black" points="498.5,-887.35 361.5,-887.35 361.5,-851.35 498.5,-851.35 498.5,-887.35"/>
<text text-anchor="middle" x="430" y="-864.35" font-family="Times,serif" font-size="20.00">status_code</text>
</g>
<!-- SG_0_Node_0&#45;&gt;SG_0_Node_2 -->
<g id="edge2" class="edge">
<title>SG_0_Node_0&#45;&gt;SG_0_Node_2</title>
<path fill="none" stroke="black" d="M322.11,-1089.94C357.56,-1084.44 396.32,-1075.63 408,-1062.56 448.87,-1016.82 442.63,-938.54 435.69,-897.41"/>
<polygon fill="black" stroke="black" points="439.13,-896.77 433.89,-887.56 432.24,-898.02 439.13,-896.77"/>
<text text-anchor="middle" x="647.5" y="-1046.56" font-family="Times,serif" font-size="20.00">[NA]</text>
<text text-anchor="middle" x="647.5" y="-1024.56" font-family="Times,serif" font-size="20.00">http://headers.webappsec.eu</text>
<text text-anchor="middle" x="647.5" y="-1002.56" font-family="Times,serif" font-size="20.00">http://headers.websec.saarland</text>
<text text-anchor="middle" x="647.5" y="-980.56" font-family="Times,serif" font-size="20.00">http://sub.sub.headers.websec.saarland</text>
<text text-anchor="middle" x="647.5" y="-958.56" font-family="Times,serif" font-size="20.00">https://headers.webappsec.eu</text>
<text text-anchor="middle" x="647.5" y="-936.56" font-family="Times,serif" font-size="20.00">https://headers.websec.saarland</text>
<text text-anchor="middle" x="647.5" y="-914.56" font-family="Times,serif" font-size="20.00">https://sub.sub.headers.websec.saarland</text>
</g>
<!-- SG_0_Node_9 -->
<g id="node4" class="node">
<title>SG_0_Node_9</title>
<ellipse fill="none" stroke="black" cx="68" cy="-746.92" rx="33.88" ry="21.43"/>
<text text-anchor="middle" x="68" y="-741.92" font-family="Times,serif" font-size="20.00">0.0</text>
</g>
<!-- SG_0_Node_1&#45;&gt;SG_0_Node_9 -->
<g id="edge5" class="edge">
<title>SG_0_Node_1&#45;&gt;SG_0_Node_9</title>
<path fill="none" stroke="black" d="M76.21,-851.3C73.33,-844.84 70.49,-837.32 69,-830.13 65.52,-813.32 65.09,-794.17 65.61,-778.58"/>
<polygon fill="black" stroke="black" points="69.11,-778.58 66.09,-768.42 62.12,-778.24 69.11,-778.58"/>
<text text-anchor="middle" x="114.5" y="-803.13" font-family="Times,serif" font-size="20.00">12 levels</text>
</g>
<!-- SG_0_Node_3 -->
<g id="node5" class="node">
<title>SG_0_Node_3</title>
<polygon fill="none" stroke="black" points="232.5,-764.92 131.5,-764.92 131.5,-728.92 232.5,-728.92 232.5,-764.92"/>
<text text-anchor="middle" x="182" y="-741.92" font-family="Times,serif" font-size="20.00">browser</text>
</g>
<!-- SG_0_Node_1&#45;&gt;SG_0_Node_3 -->
<g id="edge6" class="edge">
<title>SG_0_Node_1&#45;&gt;SG_0_Node_3</title>
<path fill="none" stroke="black" d="M133.34,-851.25C143.31,-845.82 152.92,-838.88 160,-830.13 172.55,-814.63 177.98,-792.62 180.31,-775.27"/>
<polygon fill="black" stroke="black" points="183.81,-775.49 181.4,-765.17 176.85,-774.74 183.81,-775.49"/>
<text text-anchor="middle" x="223.5" y="-814.13" font-family="Times,serif" font-size="20.00">[NA]</text>
<text text-anchor="middle" x="223.5" y="-792.13" font-family="Times,serif" font-size="20.00">12 levels</text>
</g>
<!-- SG_0_Node_10 -->
<g id="node6" class="node">
<title>SG_0_Node_10</title>
<ellipse fill="none" stroke="black" cx="390" cy="-746.92" rx="33.88" ry="21.43"/>
<text text-anchor="middle" x="390" y="-741.92" font-family="Times,serif" font-size="20.00">0.0</text>
</g>
<!-- SG_0_Node_2&#45;&gt;SG_0_Node_10 -->
<g id="edge3" class="edge">
<title>SG_0_Node_2&#45;&gt;SG_0_Node_10</title>
<path fill="none" stroke="black" d="M415.27,-851.07C410.66,-844.84 406,-837.51 403,-830.13 396.37,-813.82 393.11,-794.4 391.51,-778.54"/>
<polygon fill="black" stroke="black" points="394.96,-777.88 390.64,-768.2 387.99,-778.46 394.96,-777.88"/>
<text text-anchor="middle" x="422.5" y="-803.13" font-family="Times,serif" font-size="20.00">302</text>
</g>
<!-- SG_0_Node_11 -->
<g id="node7" class="node">
<title>SG_0_Node_11</title>
<ellipse fill="none" stroke="black" cx="476" cy="-746.92" rx="33.88" ry="21.43"/>
<text text-anchor="middle" x="476" y="-741.92" font-family="Times,serif" font-size="20.00">0.5</text>
</g>
<!-- SG_0_Node_2&#45;&gt;SG_0_Node_11 -->
<g id="edge4" class="edge">
<title>SG_0_Node_2&#45;&gt;SG_0_Node_11</title>
<path fill="none" stroke="black" d="M436.59,-851.09C443.94,-831.86 455.95,-800.42 464.78,-777.29"/>
<polygon fill="black" stroke="black" points="468.05,-778.54 468.35,-767.95 461.51,-776.04 468.05,-778.54"/>
<text text-anchor="middle" x="484.5" y="-814.13" font-family="Times,serif" font-size="20.00">[NA]</text>
<text text-anchor="middle" x="484.5" y="-792.13" font-family="Times,serif" font-size="20.00">200</text>
</g>
<!-- SG_0_Node_12 -->
<g id="node8" class="node">
<title>SG_0_Node_12</title>
<ellipse fill="none" stroke="black" cx="116" cy="-448.49" rx="33.88" ry="21.43"/>
<text text-anchor="middle" x="116" y="-443.49" font-family="Times,serif" font-size="20.00">0.0</text>
</g>
<!-- SG_0_Node_3&#45;&gt;SG_0_Node_12 -->
<g id="edge7" class="edge">
<title>SG_0_Node_3&#45;&gt;SG_0_Node_12</title>
<path fill="none" stroke="black" d="M138.47,-728.82C129.9,-723.38 122.02,-716.44 117,-707.71 75.1,-634.8 94.07,-530.1 107.2,-479.35"/>
<polygon fill="black" stroke="black" points="110.59,-480.22 109.81,-469.65 103.83,-478.4 110.59,-480.22"/>
<text text-anchor="middle" x="341.5" y="-636.71" font-family="Times,serif" font-size="20.00">firefox Ubuntu 22.04 119 selenium headless</text>
<text text-anchor="middle" x="341.5" y="-614.71" font-family="Times,serif" font-size="20.00">firefox Ubuntu 22.04 119 selenium xvfb</text>
<text text-anchor="middle" x="341.5" y="-592.71" font-family="Times,serif" font-size="20.00">firefox macOS 14.0 119 selenium headless</text>
<text text-anchor="middle" x="341.5" y="-570.71" font-family="Times,serif" font-size="20.00">firefox macOS 14.0 119 selenium real</text>
<text text-anchor="middle" x="341.5" y="-548.71" font-family="Times,serif" font-size="20.00">safari macOS 14.0 17.0 selenium real</text>
</g>
<!-- SG_0_Node_5 -->
<g id="node9" class="node">
<title>SG_0_Node_5</title>
<polygon fill="none" stroke="black" points="656.5,-466.49 519.5,-466.49 519.5,-430.49 656.5,-430.49 656.5,-466.49"/>
<text text-anchor="middle" x="588" y="-443.49" font-family="Times,serif" font-size="20.00">raw_header</text>
</g>
<!-- SG_0_Node_3&#45;&gt;SG_0_Node_5 -->
<g id="edge8" class="edge">
<title>SG_0_Node_3&#45;&gt;SG_0_Node_5</title>
<path fill="none" stroke="black" d="M232.86,-739.16C265.45,-734.96 308.67,-729.63 347,-725.71 371.29,-723.22 548.71,-724.94 566,-707.71 627.85,-646.04 608.55,-529.42 595.61,-476.65"/>
<polygon fill="black" stroke="black" points="598.93,-475.5 593.05,-466.69 592.14,-477.24 598.93,-475.5"/>
<text text-anchor="middle" x="653.5" y="-603.71" font-family="Times,serif" font-size="20.00">[NA]</text>
<text text-anchor="middle" x="653.5" y="-581.71" font-family="Times,serif" font-size="20.00">14 levels</text>
</g>
<!-- SG_0_Node_6 -->
<g id="node10" class="node">
<title>SG_0_Node_6</title>
<polygon fill="none" stroke="black" points="138,-344.07 16,-344.07 16,-308.07 138,-308.07 138,-344.07"/>
<text text-anchor="middle" x="77" y="-321.07" font-family="Times,serif" font-size="20.00">org_origin</text>
</g>
<!-- SG_0_Node_5&#45;&gt;SG_0_Node_6 -->
<g id="edge9" class="edge">
<title>SG_0_Node_5&#45;&gt;SG_0_Node_6</title>
<path fill="none" stroke="black" d="M519.28,-445.2C375.16,-440.05 53.22,-426.66 37,-409.28 23.66,-394.98 29.31,-383.26 37,-365.28 39.07,-360.44 42.09,-355.91 45.56,-351.8"/>
<polygon fill="black" stroke="black" points="48.25,-354.05 52.64,-344.41 43.2,-349.2 48.25,-354.05"/>
<text text-anchor="middle" x="382.5" y="-382.28" font-family="Times,serif" font-size="20.00">[[&#39;Feature&#45;Policy&#39;, &#39;fullscreen https://sub.headers.websec.saarland&#39;]]</text>
</g>
<!-- SG_0_Node_13 -->
<g id="node11" class="node">
<title>SG_0_Node_13</title>
<ellipse fill="none" stroke="black" cx="754" cy="-326.07" rx="33.88" ry="21.43"/>
<text text-anchor="middle" x="754" y="-321.07" font-family="Times,serif" font-size="20.00">0.5</text>
</g>
<!-- SG_0_Node_5&#45;&gt;SG_0_Node_13 -->
<g id="edge10" class="edge">
<title>SG_0_Node_5&#45;&gt;SG_0_Node_13</title>
<path fill="none" stroke="black" d="M656.54,-443.8C683.24,-438.99 712.14,-429.1 732,-409.28 745.51,-395.8 750.99,-374.98 753.1,-357.68"/>
<polygon fill="black" stroke="black" points="756.61,-357.72 754.02,-347.45 749.64,-357.09 756.61,-357.72"/>
<text text-anchor="middle" x="796.5" y="-393.28" font-family="Times,serif" font-size="20.00">[NA]</text>
<text text-anchor="middle" x="796.5" y="-371.28" font-family="Times,serif" font-size="20.00">11 levels</text>
</g>
<!-- SG_0_Node_14 -->
<g id="node12" class="node">
<title>SG_0_Node_14</title>
<ellipse fill="none" stroke="black" cx="63" cy="-137.64" rx="33.88" ry="21.43"/>
<text text-anchor="middle" x="63" y="-132.64" font-family="Times,serif" font-size="20.00">0.0</text>
</g>
<!-- SG_0_Node_6&#45;&gt;SG_0_Node_14 -->
<g id="edge11" class="edge">
<title>SG_0_Node_6&#45;&gt;SG_0_Node_14</title>
<path fill="none" stroke="black" d="M69.84,-307.87C67.5,-301.4 65.19,-293.9 64,-286.85 57.21,-246.63 58.44,-199.39 60.37,-169.24"/>
<polygon fill="black" stroke="black" points="63.88,-169.18 61.1,-158.95 56.9,-168.68 63.88,-169.18"/>
<text text-anchor="middle" x="250.5" y="-226.85" font-family="Times,serif" font-size="20.00">https://sub.headers.websec.saarland</text>
</g>
<!-- SG_0_Node_8 -->
<g id="node13" class="node">
<title>SG_0_Node_8</title>
<polygon fill="none" stroke="black" points="525,-155.64 393,-155.64 393,-119.64 525,-119.64 525,-155.64"/>
<text text-anchor="middle" x="459" y="-132.64" font-family="Times,serif" font-size="20.00">resp_origin</text>
</g>
<!-- SG_0_Node_6&#45;&gt;SG_0_Node_8 -->
<g id="edge12" class="edge">
<title>SG_0_Node_6&#45;&gt;SG_0_Node_8</title>
<path fill="none" stroke="black" d="M138.3,-322.6C235.42,-318.09 415.91,-307.08 437,-286.85 469.35,-255.82 468.12,-199.39 463.85,-165.83"/>
<polygon fill="black" stroke="black" points="467.3,-165.2 462.4,-155.8 460.37,-166.2 467.3,-165.2"/>
<text text-anchor="middle" x="647.5" y="-237.85" font-family="Times,serif" font-size="20.00">[NA]</text>
<text text-anchor="middle" x="647.5" y="-215.85" font-family="Times,serif" font-size="20.00">http://sub.headers.websec.saarland</text>
</g>
<!-- SG_0_Node_15 -->
<g id="node14" class="node">
<title>SG_0_Node_15</title>
<ellipse fill="none" stroke="black" cx="74" cy="-37.21" rx="33.88" ry="21.43"/>
<text text-anchor="middle" x="74" y="-32.21" font-family="Times,serif" font-size="20.00">0.0</text>
</g>
<!-- SG_0_Node_8&#45;&gt;SG_0_Node_15 -->
<g id="edge13" class="edge">
<title>SG_0_Node_8&#45;&gt;SG_0_Node_15</title>
<path fill="none" stroke="black" d="M392.75,-134.07C291.65,-129.53 108.18,-118.6 86,-98.43 77.75,-90.93 74.24,-79.5 72.97,-68.62"/>
<polygon fill="black" stroke="black" points="76.46,-68.26 72.36,-58.49 69.47,-68.68 76.46,-68.26"/>
<text text-anchor="middle" x="272.5" y="-82.43" font-family="Times,serif" font-size="20.00">https://sub.headers.websec.saarland</text>
</g>
<!-- SG_0_Node_16 -->
<g id="node15" class="node">
<title>SG_0_Node_16</title>
<ellipse fill="none" stroke="black" cx="470" cy="-37.21" rx="33.88" ry="21.43"/>
<text text-anchor="middle" x="470" y="-32.21" font-family="Times,serif" font-size="20.00">1.0</text>
</g>
<!-- SG_0_Node_8&#45;&gt;SG_0_Node_16 -->
<g id="edge14" class="edge">
<title>SG_0_Node_8&#45;&gt;SG_0_Node_16</title>
<path fill="none" stroke="black" d="M460.92,-119.5C462.47,-105.58 464.7,-85.6 466.57,-68.94"/>
<polygon fill="black" stroke="black" points="470.09,-68.89 467.73,-58.56 463.14,-68.11 470.09,-68.89"/>
<text text-anchor="middle" x="646.5" y="-82.43" font-family="Times,serif" font-size="20.00">http://sub.headers.websec.saarland</text>
</g>
<!-- SG_1_Node_0 -->
<g id="node16" class="node">
<title>SG_1_Node_0</title>
<polygon fill="none" stroke="black" points="1221,-1116.56 1089,-1116.56 1089,-1080.56 1221,-1080.56 1221,-1116.56"/>
<text text-anchor="middle" x="1155" y="-1093.56" font-family="Times,serif" font-size="20.00">resp_origin</text>
</g>
<!-- SG_1_Node_11 -->
<g id="node17" class="node">
<title>SG_1_Node_11</title>
<ellipse fill="none" stroke="black" cx="936" cy="-869.35" rx="33.88" ry="21.43"/>
<text text-anchor="middle" x="936" y="-864.35" font-family="Times,serif" font-size="20.00">0.0</text>
</g>
<!-- SG_1_Node_0&#45;&gt;SG_1_Node_11 -->
<g id="edge15" class="edge">
<title>SG_1_Node_0&#45;&gt;SG_1_Node_11</title>
<path fill="none" stroke="black" d="M1088.73,-1096.03C1031.92,-1093.16 956.3,-1085.08 937,-1062.56 898.19,-1017.26 913.09,-941.5 925.62,-899.91"/>
<polygon fill="black" stroke="black" points="928.96,-900.94 928.64,-890.35 922.29,-898.83 928.96,-900.94"/>
<text text-anchor="middle" x="1144.5" y="-1046.56" font-family="Times,serif" font-size="20.00">[NA]</text>
<text text-anchor="middle" x="1144.5" y="-1024.56" font-family="Times,serif" font-size="20.00">http://headers.webappsec.eu</text>
<text text-anchor="middle" x="1144.5" y="-1002.56" font-family="Times,serif" font-size="20.00">http://headers.websec.saarland</text>
<text text-anchor="middle" x="1144.5" y="-980.56" font-family="Times,serif" font-size="20.00">http://sub.sub.headers.websec.saarland</text>
<text text-anchor="middle" x="1144.5" y="-958.56" font-family="Times,serif" font-size="20.00">https://headers.webappsec.eu</text>
<text text-anchor="middle" x="1144.5" y="-936.56" font-family="Times,serif" font-size="20.00">https://headers.websec.saarland</text>
<text text-anchor="middle" x="1144.5" y="-914.56" font-family="Times,serif" font-size="20.00">https://sub.sub.headers.websec.saarland</text>
</g>
<!-- SG_1_Node_1 -->
<g id="node18" class="node">
<title>SG_1_Node_1</title>
<polygon fill="none" stroke="black" points="1442.5,-887.35 1305.5,-887.35 1305.5,-851.35 1442.5,-851.35 1442.5,-887.35"/>
<text text-anchor="middle" x="1374" y="-864.35" font-family="Times,serif" font-size="20.00">raw_header</text>
</g>
<!-- SG_1_Node_0&#45;&gt;SG_1_Node_1 -->
<g id="edge16" class="edge">
<title>SG_1_Node_0&#45;&gt;SG_1_Node_1</title>
<path fill="none" stroke="black" d="M1221.2,-1094.13C1271.3,-1090.06 1334.39,-1081.29 1352,-1062.56 1394.11,-1017.76 1387.25,-938.74 1379.92,-897.35"/>
<polygon fill="black" stroke="black" points="1383.34,-896.61 1378.02,-887.45 1376.46,-897.93 1383.34,-896.61"/>
<text text-anchor="middle" x="1571.5" y="-991.56" font-family="Times,serif" font-size="20.00">http://sub.headers.websec.saarland</text>
<text text-anchor="middle" x="1571.5" y="-969.56" font-family="Times,serif" font-size="20.00">https://sub.headers.websec.saarland</text>
</g>
<!-- SG_1_Node_2 -->
<g id="node19" class="node">
<title>SG_1_Node_2</title>
<polygon fill="none" stroke="black" points="1051.5,-764.92 950.5,-764.92 950.5,-728.92 1051.5,-728.92 1051.5,-764.92"/>
<text text-anchor="middle" x="1001" y="-741.92" font-family="Times,serif" font-size="20.00">browser</text>
</g>
<!-- SG_1_Node_1&#45;&gt;SG_1_Node_2 -->
<g id="edge17" class="edge">
<title>SG_1_Node_1&#45;&gt;SG_1_Node_2</title>
<path fill="none" stroke="black" d="M1320.95,-851.22C1252.47,-829.11 1133.58,-790.72 1061.6,-767.49"/>
<polygon fill="black" stroke="black" points="1062.36,-764.05 1051.77,-764.31 1060.21,-770.71 1062.36,-764.05"/>
<text text-anchor="middle" x="1298.5" y="-814.13" font-family="Times,serif" font-size="20.00">[NA]</text>
<text text-anchor="middle" x="1298.5" y="-792.13" font-family="Times,serif" font-size="20.00">13 levels</text>
</g>
<!-- SG_1_Node_3 -->
<g id="node20" class="node">
<title>SG_1_Node_3</title>
<polygon fill="none" stroke="black" points="1541.5,-764.92 1404.5,-764.92 1404.5,-728.92 1541.5,-728.92 1541.5,-764.92"/>
<text text-anchor="middle" x="1473" y="-741.92" font-family="Times,serif" font-size="20.00">raw_header</text>
</g>
<!-- SG_1_Node_1&#45;&gt;SG_1_Node_3 -->
<g id="edge18" class="edge">
<title>SG_1_Node_1&#45;&gt;SG_1_Node_3</title>
<path fill="none" stroke="black" d="M1388.18,-851.09C1405.02,-830.61 1433.23,-796.3 1452.45,-772.92"/>
<polygon fill="black" stroke="black" points="1455.2,-775.09 1458.84,-765.14 1449.79,-770.64 1455.2,-775.09"/>
<text text-anchor="middle" x="1485.5" y="-803.13" font-family="Times,serif" font-size="20.00">11 levels</text>
</g>
<!-- SG_1_Node_12 -->
<g id="node21" class="node">
<title>SG_1_Node_12</title>
<ellipse fill="none" stroke="black" cx="903" cy="-448.49" rx="33.88" ry="21.43"/>
<text text-anchor="middle" x="903" y="-443.49" font-family="Times,serif" font-size="20.00">0.0</text>
</g>
<!-- SG_1_Node_2&#45;&gt;SG_1_Node_12 -->
<g id="edge29" class="edge">
<title>SG_1_Node_2&#45;&gt;SG_1_Node_12</title>
<path fill="none" stroke="black" d="M950.47,-736.69C934.21,-731.09 917.86,-722.11 908,-707.71 860.26,-637.95 880.12,-530.91 893.91,-479.32"/>
<polygon fill="black" stroke="black" points="897.34,-480.05 896.65,-469.48 890.59,-478.18 897.34,-480.05"/>
<text text-anchor="middle" x="953.5" y="-603.71" font-family="Times,serif" font-size="20.00">[NA]</text>
<text text-anchor="middle" x="953.5" y="-581.71" font-family="Times,serif" font-size="20.00">14 levels</text>
</g>
<!-- SG_1_Node_4 -->
<g id="node22" class="node">
<title>SG_1_Node_4</title>
<polygon fill="none" stroke="black" points="1091.5,-466.49 954.5,-466.49 954.5,-430.49 1091.5,-430.49 1091.5,-466.49"/>
<text text-anchor="middle" x="1023" y="-443.49" font-family="Times,serif" font-size="20.00">status_code</text>
</g>
<!-- SG_1_Node_2&#45;&gt;SG_1_Node_4 -->
<g id="edge30" class="edge">
<title>SG_1_Node_2&#45;&gt;SG_1_Node_4</title>
<path fill="none" stroke="black" d="M1002.24,-728.69C1005.23,-687.21 1013.1,-578.47 1020,-487.71 1020.27,-484.15 1020.56,-480.4 1020.85,-476.71"/>
<polygon fill="black" stroke="black" points="1024.35,-476.85 1021.64,-466.61 1017.37,-476.31 1024.35,-476.85"/>
<text text-anchor="middle" x="1244.5" y="-636.71" font-family="Times,serif" font-size="20.00">firefox Ubuntu 22.04 119 selenium headless</text>
<text text-anchor="middle" x="1244.5" y="-614.71" font-family="Times,serif" font-size="20.00">firefox Ubuntu 22.04 119 selenium xvfb</text>
<text text-anchor="middle" x="1244.5" y="-592.71" font-family="Times,serif" font-size="20.00">firefox macOS 14.0 119 selenium headless</text>
<text text-anchor="middle" x="1244.5" y="-570.71" font-family="Times,serif" font-size="20.00">firefox macOS 14.0 119 selenium real</text>
<text text-anchor="middle" x="1244.5" y="-548.71" font-family="Times,serif" font-size="20.00">safari macOS 14.0 17.0 selenium real</text>
</g>
<!-- SG_1_Node_5 -->
<g id="node23" class="node">
<title>SG_1_Node_5</title>
<polygon fill="none" stroke="black" points="1534,-466.49 1412,-466.49 1412,-430.49 1534,-430.49 1534,-466.49"/>
<text text-anchor="middle" x="1473" y="-443.49" font-family="Times,serif" font-size="20.00">org_origin</text>
</g>
<!-- SG_1_Node_3&#45;&gt;SG_1_Node_5 -->
<g id="edge19" class="edge">
<title>SG_1_Node_3&#45;&gt;SG_1_Node_5</title>
<path fill="none" stroke="black" d="M1473,-728.7C1473,-679.38 1473,-537.26 1473,-477.01"/>
<polygon fill="black" stroke="black" points="1476.5,-476.76 1473,-466.76 1469.5,-476.76 1476.5,-476.76"/>
<text text-anchor="middle" x="1818.5" y="-592.71" font-family="Times,serif" font-size="20.00">[[&#39;Feature&#45;Policy&#39;, &#39;fullscreen https://sub.headers.websec.saarland&#39;]]</text>
</g>
<!-- SG_1_Node_13 -->
<g id="node24" class="node">
<title>SG_1_Node_13</title>
<ellipse fill="none" stroke="black" cx="2187" cy="-448.49" rx="33.88" ry="21.43"/>
<text text-anchor="middle" x="2187" y="-443.49" font-family="Times,serif" font-size="20.00">0.5</text>
</g>
<!-- SG_1_Node_3&#45;&gt;SG_1_Node_13 -->
<g id="edge20" class="edge">
<title>SG_1_Node_3&#45;&gt;SG_1_Node_13</title>
<path fill="none" stroke="black" d="M1541.5,-744.54C1711.91,-740.78 2142.86,-729.19 2165,-707.71 2226.59,-647.92 2208.6,-533.84 2195.44,-479.59"/>
<polygon fill="black" stroke="black" points="2198.75,-478.4 2192.89,-469.57 2191.96,-480.13 2198.75,-478.4"/>
<text text-anchor="middle" x="2448" y="-691.71" font-family="Times,serif" font-size="20.00">[[&#39;Feature&#45;Policy&#39;, &quot;fullscreen &#39;self&#39;&quot;]]</text>
<text text-anchor="middle" x="2448" y="-669.71" font-family="Times,serif" font-size="20.00">[[&#39;Feature&#45;Policy&#39;, &#39;fullscreen *&#39;]]</text>
<text text-anchor="middle" x="2448" y="-647.71" font-family="Times,serif" font-size="20.00">[[&#39;Permissions&#45;Policy&#39;, &#39;*&#39;]]</text>
<text text-anchor="middle" x="2448" y="-625.71" font-family="Times,serif" font-size="20.00">[[&#39;Permissions&#45;Policy&#39;, &#39;fullscreen=&#39;]]</text>
<text text-anchor="middle" x="2448" y="-603.71" font-family="Times,serif" font-size="20.00">[[&#39;Permissions&#45;Policy&#39;, &#39;fullscreen=(self none)&#39;]]</text>
<text text-anchor="middle" x="2448" y="-581.71" font-family="Times,serif" font-size="20.00">[[&#39;Permissions&#45;Policy&#39;, &#39;fullscreen=(self)&#39;]]</text>
<text text-anchor="middle" x="2448" y="-559.71" font-family="Times,serif" font-size="20.00">[[&#39;Permissions&#45;Policy&#39;, &#39;fullscreen=(self,none)&#39;]]</text>
<text text-anchor="middle" x="2448" y="-537.71" font-family="Times,serif" font-size="20.00">[[&#39;Permissions&#45;Policy&#39;, &#39;fullscreen=*&#39;]]</text>
<text text-anchor="middle" x="2448" y="-515.71" font-family="Times,serif" font-size="20.00">[[&#39;Permissions&#45;Policy&#39;, &#39;null&#39;]]</text>
<text text-anchor="middle" x="2448" y="-493.71" font-family="Times,serif" font-size="20.00">[]</text>
</g>
<!-- SG_1_Node_14 -->
<g id="node25" class="node">
<title>SG_1_Node_14</title>
<ellipse fill="none" stroke="black" cx="983" cy="-326.07" rx="33.88" ry="21.43"/>
<text text-anchor="middle" x="983" y="-321.07" font-family="Times,serif" font-size="20.00">0.0</text>
</g>
<!-- SG_1_Node_4&#45;&gt;SG_1_Node_14 -->
<g id="edge31" class="edge">
<title>SG_1_Node_4&#45;&gt;SG_1_Node_14</title>
<path fill="none" stroke="black" d="M1008.27,-430.22C1003.66,-423.98 999,-416.65 996,-409.28 989.37,-392.96 986.11,-373.55 984.51,-357.68"/>
<polygon fill="black" stroke="black" points="987.96,-357.02 983.64,-347.35 980.99,-357.61 987.96,-357.02"/>
<text text-anchor="middle" x="1015.5" y="-382.28" font-family="Times,serif" font-size="20.00">302</text>
</g>
<!-- SG_1_Node_15 -->
<g id="node26" class="node">
<title>SG_1_Node_15</title>
<ellipse fill="none" stroke="black" cx="1069" cy="-326.07" rx="33.88" ry="21.43"/>
<text text-anchor="middle" x="1069" y="-321.07" font-family="Times,serif" font-size="20.00">0.5</text>
</g>
<!-- SG_1_Node_4&#45;&gt;SG_1_Node_15 -->
<g id="edge32" class="edge">
<title>SG_1_Node_4&#45;&gt;SG_1_Node_15</title>
<path fill="none" stroke="black" d="M1029.59,-430.24C1036.94,-411 1048.95,-379.57 1057.78,-356.44"/>
<polygon fill="black" stroke="black" points="1061.05,-357.69 1061.35,-347.1 1054.51,-355.19 1061.05,-357.69"/>
<text text-anchor="middle" x="1077.5" y="-393.28" font-family="Times,serif" font-size="20.00">[NA]</text>
<text text-anchor="middle" x="1077.5" y="-371.28" font-family="Times,serif" font-size="20.00">200</text>
</g>
<!-- SG_1_Node_8 -->
<g id="node27" class="node">
<title>SG_1_Node_8</title>
<polygon fill="none" stroke="black" points="1300.5,-344.07 1199.5,-344.07 1199.5,-308.07 1300.5,-308.07 1300.5,-344.07"/>
<text text-anchor="middle" x="1250" y="-321.07" font-family="Times,serif" font-size="20.00">browser</text>
</g>
<!-- SG_1_Node_5&#45;&gt;SG_1_Node_8 -->
<g id="edge21" class="edge">
<title>SG_1_Node_5&#45;&gt;SG_1_Node_8</title>
<path fill="none" stroke="black" d="M1411.71,-447.06C1374.42,-443.93 1327.65,-434.59 1294,-409.28 1275.77,-395.57 1264.28,-372.04 1257.63,-353.66"/>
<polygon fill="black" stroke="black" points="1260.91,-352.45 1254.42,-344.07 1254.28,-354.67 1260.91,-352.45"/>
<text text-anchor="middle" x="1475.5" y="-382.28" font-family="Times,serif" font-size="20.00">http://sub.headers.websec.saarland</text>
</g>
<!-- SG_1_Node_9 -->
<g id="node28" class="node">
<title>SG_1_Node_9</title>
<polygon fill="none" stroke="black" points="1788,-344.07 1656,-344.07 1656,-308.07 1788,-308.07 1788,-344.07"/>
<text text-anchor="middle" x="1722" y="-321.07" font-family="Times,serif" font-size="20.00">resp_origin</text>
</g>
<!-- SG_1_Node_5&#45;&gt;SG_1_Node_9 -->
<g id="edge22" class="edge">
<title>SG_1_Node_5&#45;&gt;SG_1_Node_9</title>
<path fill="none" stroke="black" d="M1534.04,-445.3C1571.86,-441.5 1620.08,-432.08 1657,-409.28 1679.12,-395.62 1696.79,-371.6 1708.09,-353.04"/>
<polygon fill="black" stroke="black" points="1711.25,-354.58 1713.27,-344.18 1705.2,-351.05 1711.25,-354.58"/>
<text text-anchor="middle" x="1886.5" y="-393.28" font-family="Times,serif" font-size="20.00">[NA]</text>
<text text-anchor="middle" x="1886.5" y="-371.28" font-family="Times,serif" font-size="20.00">https://sub.headers.websec.saarland</text>
</g>
<!-- SG_1_Node_16 -->
<g id="node29" class="node">
<title>SG_1_Node_16</title>
<ellipse fill="none" stroke="black" cx="1133" cy="-137.64" rx="33.88" ry="21.43"/>
<text text-anchor="middle" x="1133" y="-132.64" font-family="Times,serif" font-size="20.00">0.0</text>
</g>
<!-- SG_1_Node_8&#45;&gt;SG_1_Node_16 -->
<g id="edge25" class="edge">
<title>SG_1_Node_8&#45;&gt;SG_1_Node_16</title>
<path fill="none" stroke="black" d="M1199.43,-315.34C1182.91,-309.69 1166.01,-300.81 1155,-286.85 1128.51,-253.27 1126.97,-201.69 1129.26,-169.08"/>
<polygon fill="black" stroke="black" points="1132.78,-169.07 1130.15,-158.8 1125.8,-168.46 1132.78,-169.07"/>
<text text-anchor="middle" x="1200.5" y="-237.85" font-family="Times,serif" font-size="20.00">[NA]</text>
<text text-anchor="middle" x="1200.5" y="-215.85" font-family="Times,serif" font-size="20.00">14 levels</text>
</g>
<!-- SG_1_Node_10 -->
<g id="node30" class="node">
<title>SG_1_Node_10</title>
<polygon fill="none" stroke="black" points="1317,-155.64 1185,-155.64 1185,-119.64 1317,-119.64 1317,-155.64"/>
<text text-anchor="middle" x="1251" y="-132.64" font-family="Times,serif" font-size="20.00">resp_origin</text>
</g>
<!-- SG_1_Node_8&#45;&gt;SG_1_Node_10 -->
<g id="edge26" class="edge">
<title>SG_1_Node_8&#45;&gt;SG_1_Node_10</title>
<path fill="none" stroke="black" d="M1250.09,-307.86C1250.27,-275.4 1250.64,-204.88 1250.85,-165.9"/>
<polygon fill="black" stroke="black" points="1254.35,-165.82 1250.91,-155.8 1247.35,-165.78 1254.35,-165.82"/>
<text text-anchor="middle" x="1474.5" y="-270.85" font-family="Times,serif" font-size="20.00">firefox Ubuntu 22.04 119 selenium headless</text>
<text text-anchor="middle" x="1474.5" y="-248.85" font-family="Times,serif" font-size="20.00">firefox Ubuntu 22.04 119 selenium xvfb</text>
<text text-anchor="middle" x="1474.5" y="-226.85" font-family="Times,serif" font-size="20.00">firefox macOS 14.0 119 selenium headless</text>
<text text-anchor="middle" x="1474.5" y="-204.85" font-family="Times,serif" font-size="20.00">firefox macOS 14.0 119 selenium real</text>
<text text-anchor="middle" x="1474.5" y="-182.85" font-family="Times,serif" font-size="20.00">safari macOS 14.0 17.0 selenium real</text>
</g>
<!-- SG_1_Node_17 -->
<g id="node31" class="node">
<title>SG_1_Node_17</title>
<ellipse fill="none" stroke="black" cx="1722" cy="-137.64" rx="33.88" ry="21.43"/>
<text text-anchor="middle" x="1722" y="-132.64" font-family="Times,serif" font-size="20.00">0.0</text>
</g>
<!-- SG_1_Node_9&#45;&gt;SG_1_Node_17 -->
<g id="edge23" class="edge">
<title>SG_1_Node_9&#45;&gt;SG_1_Node_17</title>
<path fill="none" stroke="black" d="M1722,-307.86C1722,-276.24 1722,-208.5 1722,-168.99"/>
<polygon fill="black" stroke="black" points="1725.5,-168.88 1722,-158.88 1718.5,-168.88 1725.5,-168.88"/>
<text text-anchor="middle" x="1903.5" y="-226.85" font-family="Times,serif" font-size="20.00">http://sub.headers.websec.saarland</text>
</g>
<!-- SG_1_Node_18 -->
<g id="node32" class="node">
<title>SG_1_Node_18</title>
<ellipse fill="none" stroke="black" cx="2108" cy="-137.64" rx="33.88" ry="21.43"/>
<text text-anchor="middle" x="2108" y="-132.64" font-family="Times,serif" font-size="20.00">1.0</text>
</g>
<!-- SG_1_Node_9&#45;&gt;SG_1_Node_18 -->
<g id="edge24" class="edge">
<title>SG_1_Node_9&#45;&gt;SG_1_Node_18</title>
<path fill="none" stroke="black" d="M1788.39,-322.44C1887.54,-317.88 2064.98,-306.99 2086,-286.85 2117.36,-256.81 2117.17,-202.93 2113.25,-169.07"/>
<polygon fill="black" stroke="black" points="2116.68,-168.28 2111.88,-158.83 2109.74,-169.21 2116.68,-168.28"/>
<text text-anchor="middle" x="2301.5" y="-226.85" font-family="Times,serif" font-size="20.00">https://sub.headers.websec.saarland</text>
</g>
<!-- SG_1_Node_19 -->
<g id="node33" class="node">
<title>SG_1_Node_19</title>
<ellipse fill="none" stroke="black" cx="1060" cy="-37.21" rx="33.88" ry="21.43"/>
<text text-anchor="middle" x="1060" y="-32.21" font-family="Times,serif" font-size="20.00">0.0</text>
</g>
<!-- SG_1_Node_10&#45;&gt;SG_1_Node_19 -->
<g id="edge27" class="edge">
<title>SG_1_Node_10&#45;&gt;SG_1_Node_19</title>
<path fill="none" stroke="black" d="M1189.74,-119.55C1185.1,-118.43 1180.49,-117.38 1176,-116.43 1150.7,-111.05 1077.98,-117.94 1061,-98.43 1053.87,-90.24 1052.36,-78.79 1053.09,-68.07"/>
<polygon fill="black" stroke="black" points="1056.56,-68.51 1054.35,-58.15 1049.61,-67.62 1056.56,-68.51"/>
<text text-anchor="middle" x="1247.5" y="-82.43" font-family="Times,serif" font-size="20.00">https://sub.headers.websec.saarland</text>
</g>
<!-- SG_1_Node_20 -->
<g id="node34" class="node">
<title>SG_1_Node_20</title>
<ellipse fill="none" stroke="black" cx="1456" cy="-37.21" rx="33.88" ry="21.43"/>
<text text-anchor="middle" x="1456" y="-32.21" font-family="Times,serif" font-size="20.00">1.0</text>
</g>
<!-- SG_1_Node_10&#45;&gt;SG_1_Node_20 -->
<g id="edge28" class="edge">
<title>SG_1_Node_10&#45;&gt;SG_1_Node_20</title>
<path fill="none" stroke="black" d="M1317.18,-129.62C1362.17,-123.61 1416.57,-113.5 1434,-98.43 1442.89,-90.73 1448.19,-79.13 1451.35,-68.16"/>
<polygon fill="black" stroke="black" points="1454.76,-68.93 1453.69,-58.39 1447.96,-67.3 1454.76,-68.93"/>
<text text-anchor="middle" x="1629.5" y="-82.43" font-family="Times,serif" font-size="20.00">http://sub.headers.websec.saarland</text>
</g>
<!-- SG_2_Node_0 -->
<g id="node35" class="node">
<title>SG_2_Node_0</title>
<polygon fill="none" stroke="black" points="2845.5,-1116.56 2708.5,-1116.56 2708.5,-1080.56 2845.5,-1080.56 2845.5,-1116.56"/>
<text text-anchor="middle" x="2777" y="-1093.56" font-family="Times,serif" font-size="20.00">status_code</text>
</g>
<!-- SG_2_Node_2 -->
<g id="node36" class="node">
<title>SG_2_Node_2</title>
<ellipse fill="none" stroke="black" cx="2751" cy="-869.35" rx="33.88" ry="21.43"/>
<text text-anchor="middle" x="2751" y="-864.35" font-family="Times,serif" font-size="20.00">0.5</text>
</g>
<!-- SG_2_Node_0&#45;&gt;SG_2_Node_2 -->
<g id="edge33" class="edge">
<title>SG_2_Node_0&#45;&gt;SG_2_Node_2</title>
<path fill="none" stroke="black" d="M2769.51,-1080.41C2767.37,-1074.82 2765.28,-1068.52 2764,-1062.56 2751.98,-1006.6 2750.22,-939.58 2750.38,-901.28"/>
<polygon fill="black" stroke="black" points="2753.88,-900.84 2750.47,-890.81 2746.88,-900.78 2753.88,-900.84"/>
<text text-anchor="middle" x="2787.5" y="-991.56" font-family="Times,serif" font-size="20.00">[NA]</text>
<text text-anchor="middle" x="2787.5" y="-969.56" font-family="Times,serif" font-size="20.00">200</text>
</g>
<!-- SG_2_Node_3 -->
<g id="node37" class="node">
<title>SG_2_Node_3</title>
<ellipse fill="none" stroke="black" cx="2837" cy="-869.35" rx="33.88" ry="21.43"/>
<text text-anchor="middle" x="2837" y="-864.35" font-family="Times,serif" font-size="20.00">1.0</text>
</g>
<!-- SG_2_Node_0&#45;&gt;SG_2_Node_3 -->
<g id="edge34" class="edge">
<title>SG_2_Node_0&#45;&gt;SG_2_Node_3</title>
<path fill="none" stroke="black" d="M2797.85,-1080.42C2802.93,-1075.21 2807.81,-1069.11 2811,-1062.56 2836.63,-1009.85 2839.43,-939.97 2838.59,-900.63"/>
<polygon fill="black" stroke="black" points="2842.09,-900.5 2838.29,-890.61 2835.09,-900.71 2842.09,-900.5"/>
<text text-anchor="middle" x="2857.5" y="-980.56" font-family="Times,serif" font-size="20.00">302</text>
</g>
</g>
</svg>
