<?xml version="1.0" encoding="UTF-8" standalone="no"?>
<!DOCTYPE svg PUBLIC "-//W3C//DTD SVG 1.1//EN"
 "http://www.w3.org/Graphics/SVG/1.1/DTD/svg11.dtd">
<!-- Generated by graphviz version 2.43.0 (0)
 -->
<!-- Title: G Pages: 1 -->
<svg width="3223pt" height="1425pt"
 viewBox="0.00 0.00 3223.11 1424.98" xmlns="http://www.w3.org/2000/svg" xmlns:xlink="http://www.w3.org/1999/xlink">
<g id="graph0" class="graph" transform="scale(1 1) rotate(0) translate(4 1420.98)">
<title>G</title>
<polygon fill="white" stroke="transparent" points="-4,4 -4,-1420.98 3219.11,-1420.98 3219.11,4 -4,4"/>
<g id="clust1" class="cluster">
<title>cluster_0</title>
<polygon fill="none" stroke="black" points="9.11,-8 9.11,-1408.98 1323.11,-1408.98 1323.11,-8 9.11,-8"/>
<text text-anchor="middle" x="666.11" y="-1372.98" font-family="Times,serif" font-size="40.00">Tree 0, Class fullscreenEnabled: false</text>
</g>
<g id="clust10" class="cluster">
<title>cluster_1</title>
<polygon fill="none" stroke="black" points="1331.11,-8 1331.11,-1408.98 2559.11,-1408.98 2559.11,-8 1331.11,-8"/>
<text text-anchor="middle" x="1945.11" y="-1372.98" font-family="Times,serif" font-size="40.00">Tree 0, Class fullscreenEnabled: true</text>
</g>
<g id="clust19" class="cluster">
<title>cluster_2</title>
<polygon fill="none" stroke="black" points="2567.11,-1028.56 2567.11,-1408.98 3207.11,-1408.98 3207.11,-1028.56 2567.11,-1028.56"/>
<text text-anchor="middle" x="2887.11" y="-1372.98" font-family="Times,serif" font-size="40.00">Tree 0, Class message timeout</text>
</g>
<!-- SG_0_Node_0 -->
<g id="node1" class="node">
<title>SG_0_Node_0</title>
<polygon fill="none" stroke="black" points="723.61,-1348.98 586.61,-1348.98 586.61,-1312.98 723.61,-1312.98 723.61,-1348.98"/>
<text text-anchor="middle" x="655.11" y="-1325.98" font-family="Times,serif" font-size="20.00">raw_header</text>
</g>
<!-- SG_0_Node_9 -->
<g id="node2" class="node">
<title>SG_0_Node_9</title>
<ellipse fill="none" stroke="black" cx="51.11" cy="-1057.77" rx="33.88" ry="21.43"/>
<text text-anchor="middle" x="51.11" y="-1052.77" font-family="Times,serif" font-size="20.00">0.0</text>
</g>
<!-- SG_0_Node_0&#45;&gt;SG_0_Node_9 -->
<g id="edge1" class="edge">
<title>SG_0_Node_0&#45;&gt;SG_0_Node_9</title>
<path fill="none" stroke="black" d="M586.44,-1328.63C428.39,-1325.17 50.91,-1314.87 32.11,-1294.98 -28.35,-1231.04 11.99,-1182.65 32.11,-1096.98 32.87,-1093.74 33.95,-1090.45 35.22,-1087.24"/>
<polygon fill="black" stroke="black" points="38.49,-1088.5 39.43,-1077.95 32.11,-1085.61 38.49,-1088.5"/>
<text text-anchor="middle" x="615.11" y="-1278.98" font-family="Times,serif" font-size="20.00">[[&#39;Feature&#45;Policy&#39;, &#39;fullscreen *&#39;]]</text>
<text text-anchor="middle" x="615.11" y="-1256.98" font-family="Times,serif" font-size="20.00">[[&#39;Permissions&#45;Policy&#39;, &#39;*&#39;]]</text>
<text text-anchor="middle" x="615.11" y="-1234.98" font-family="Times,serif" font-size="20.00">[[&#39;Permissions&#45;Policy&#39;, &#39;fullscreen=&#39;]]</text>
<text text-anchor="middle" x="615.11" y="-1212.98" font-family="Times,serif" font-size="20.00">[[&#39;Permissions&#45;Policy&#39;, &#39;fullscreen=()&#39;], [&#39;location&#39;, &#39;https://sub.headers.websec.saarland/_hp/common/empty.html&#39;]]</text>
<text text-anchor="middle" x="615.11" y="-1190.98" font-family="Times,serif" font-size="20.00">[[&#39;Permissions&#45;Policy&#39;, &#39;fullscreen=(*)&#39;], [&#39;location&#39;, &#39;https://sub.headers.websec.saarland/_hp/common/empty.html&#39;]]</text>
<text text-anchor="middle" x="615.11" y="-1168.98" font-family="Times,serif" font-size="20.00">[[&#39;Permissions&#45;Policy&#39;, &#39;fullscreen=(self,none)&#39;]]</text>
<text text-anchor="middle" x="615.11" y="-1146.98" font-family="Times,serif" font-size="20.00">[[&#39;Permissions&#45;Policy&#39;, &#39;fullscreen=*&#39;]]</text>
<text text-anchor="middle" x="615.11" y="-1124.98" font-family="Times,serif" font-size="20.00">[[&#39;Permissions&#45;Policy&#39;, &#39;null&#39;]]</text>
<text text-anchor="middle" x="615.11" y="-1102.98" font-family="Times,serif" font-size="20.00">[]</text>
</g>
<!-- SG_0_Node_1 -->
<g id="node3" class="node">
<title>SG_0_Node_1</title>
<polygon fill="none" stroke="black" points="1112.61,-1075.77 1011.61,-1075.77 1011.61,-1039.77 1112.61,-1039.77 1112.61,-1075.77"/>
<text text-anchor="middle" x="1062.11" y="-1052.77" font-family="Times,serif" font-size="20.00">browser</text>
</g>
<!-- SG_0_Node_0&#45;&gt;SG_0_Node_1 -->
<g id="edge2" class="edge">
<title>SG_0_Node_0&#45;&gt;SG_0_Node_1</title>
<path fill="none" stroke="black" d="M723.77,-1330.71C863.41,-1331.47 1170.04,-1329.17 1202.11,-1294.98 1232.21,-1262.89 1228.81,-1131.95 1202.11,-1096.98 1192.13,-1083.92 1155.94,-1074.24 1122.86,-1067.9"/>
<polygon fill="black" stroke="black" points="1123.2,-1064.4 1112.73,-1066.04 1121.93,-1071.29 1123.2,-1064.4"/>
<text text-anchor="middle" x="1268.61" y="-1201.98" font-family="Times,serif" font-size="20.00">[NA]</text>
<text text-anchor="middle" x="1268.61" y="-1179.98" font-family="Times,serif" font-size="20.00">15 levels</text>
</g>
<!-- SG_0_Node_10 -->
<g id="node4" class="node">
<title>SG_0_Node_10</title>
<ellipse fill="none" stroke="black" cx="590.11" cy="-869.35" rx="33.88" ry="21.43"/>
<text text-anchor="middle" x="590.11" y="-864.35" font-family="Times,serif" font-size="20.00">0.0</text>
</g>
<!-- SG_0_Node_1&#45;&gt;SG_0_Node_10 -->
<g id="edge3" class="edge">
<title>SG_0_Node_1&#45;&gt;SG_0_Node_10</title>
<path fill="none" stroke="black" d="M1011.4,-1056.49C894.81,-1055.3 615.44,-1049.26 587.11,-1018.56 557.85,-986.85 568.2,-933.1 578.83,-899.79"/>
<polygon fill="black" stroke="black" points="582.2,-900.74 582.09,-890.15 575.57,-898.5 582.2,-900.74"/>
<text text-anchor="middle" x="811.61" y="-1002.56" font-family="Times,serif" font-size="20.00">firefox Ubuntu 22.04 119 selenium headless</text>
<text text-anchor="middle" x="811.61" y="-980.56" font-family="Times,serif" font-size="20.00">firefox Ubuntu 22.04 119 selenium xvfb</text>
<text text-anchor="middle" x="811.61" y="-958.56" font-family="Times,serif" font-size="20.00">firefox macOS 14.0 119 selenium headless</text>
<text text-anchor="middle" x="811.61" y="-936.56" font-family="Times,serif" font-size="20.00">firefox macOS 14.0 119 selenium real</text>
<text text-anchor="middle" x="811.61" y="-914.56" font-family="Times,serif" font-size="20.00">safari macOS 14.0 17.0 selenium real</text>
</g>
<!-- SG_0_Node_2 -->
<g id="node5" class="node">
<title>SG_0_Node_2</title>
<polygon fill="none" stroke="black" points="966.11,-887.35 834.11,-887.35 834.11,-851.35 966.11,-851.35 966.11,-887.35"/>
<text text-anchor="middle" x="900.11" y="-864.35" font-family="Times,serif" font-size="20.00">resp_origin</text>
</g>
<!-- SG_0_Node_1&#45;&gt;SG_0_Node_2 -->
<g id="edge4" class="edge">
<title>SG_0_Node_1&#45;&gt;SG_0_Node_2</title>
<path fill="none" stroke="black" d="M1065.02,-1039.67C1069.14,-1009.26 1072.91,-945.53 1040.11,-908.56 1023.94,-890.34 1000.01,-880.43 976.5,-875.15"/>
<polygon fill="black" stroke="black" points="976.96,-871.68 966.47,-873.17 975.59,-878.54 976.96,-871.68"/>
<text text-anchor="middle" x="1112.61" y="-969.56" font-family="Times,serif" font-size="20.00">[NA]</text>
<text text-anchor="middle" x="1112.61" y="-947.56" font-family="Times,serif" font-size="20.00">14 levels</text>
</g>
<!-- SG_0_Node_3 -->
<g id="node6" class="node">
<title>SG_0_Node_3</title>
<polygon fill="none" stroke="black" points="572.61,-654.92 435.61,-654.92 435.61,-618.92 572.61,-618.92 572.61,-654.92"/>
<text text-anchor="middle" x="504.11" y="-631.92" font-family="Times,serif" font-size="20.00">raw_header</text>
</g>
<!-- SG_0_Node_2&#45;&gt;SG_0_Node_3 -->
<g id="edge5" class="edge">
<title>SG_0_Node_2&#45;&gt;SG_0_Node_3</title>
<path fill="none" stroke="black" d="M833.81,-863.8C728.55,-856.27 533.92,-840.98 523.11,-830.13 479.65,-786.56 488.73,-706.68 497.36,-664.94"/>
<polygon fill="black" stroke="black" points="500.83,-665.47 499.57,-654.95 493.99,-663.96 500.83,-665.47"/>
<text text-anchor="middle" x="709.61" y="-759.13" font-family="Times,serif" font-size="20.00">http://sub.headers.websec.saarland</text>
<text text-anchor="middle" x="709.61" y="-737.13" font-family="Times,serif" font-size="20.00">https://sub.headers.websec.saarland</text>
</g>
<!-- SG_0_Node_11 -->
<g id="node7" class="node">
<title>SG_0_Node_11</title>
<ellipse fill="none" stroke="black" cx="900.11" cy="-636.92" rx="33.88" ry="21.43"/>
<text text-anchor="middle" x="900.11" y="-631.92" font-family="Times,serif" font-size="20.00">0.5</text>
</g>
<!-- SG_0_Node_2&#45;&gt;SG_0_Node_11 -->
<g id="edge6" class="edge">
<title>SG_0_Node_2&#45;&gt;SG_0_Node_11</title>
<path fill="none" stroke="black" d="M900.11,-851.03C900.11,-812.12 900.11,-717.38 900.11,-668.38"/>
<polygon fill="black" stroke="black" points="903.61,-668.38 900.11,-658.38 896.61,-668.38 903.61,-668.38"/>
<text text-anchor="middle" x="1107.61" y="-814.13" font-family="Times,serif" font-size="20.00">[NA]</text>
<text text-anchor="middle" x="1107.61" y="-792.13" font-family="Times,serif" font-size="20.00">http://headers.webappsec.eu</text>
<text text-anchor="middle" x="1107.61" y="-770.13" font-family="Times,serif" font-size="20.00">http://headers.websec.saarland</text>
<text text-anchor="middle" x="1107.61" y="-748.13" font-family="Times,serif" font-size="20.00">http://sub.sub.headers.websec.saarland</text>
<text text-anchor="middle" x="1107.61" y="-726.13" font-family="Times,serif" font-size="20.00">https://headers.webappsec.eu</text>
<text text-anchor="middle" x="1107.61" y="-704.13" font-family="Times,serif" font-size="20.00">https://headers.websec.saarland</text>
<text text-anchor="middle" x="1107.61" y="-682.13" font-family="Times,serif" font-size="20.00">https://sub.sub.headers.websec.saarland</text>
</g>
<!-- SG_0_Node_5 -->
<g id="node8" class="node">
<title>SG_0_Node_5</title>
<polygon fill="none" stroke="black" points="363.61,-422.49 226.61,-422.49 226.61,-386.49 363.61,-386.49 363.61,-422.49"/>
<text text-anchor="middle" x="295.11" y="-399.49" font-family="Times,serif" font-size="20.00">raw_header</text>
</g>
<!-- SG_0_Node_3&#45;&gt;SG_0_Node_5 -->
<g id="edge7" class="edge">
<title>SG_0_Node_3&#45;&gt;SG_0_Node_5</title>
<path fill="none" stroke="black" d="M435.48,-632.53C381.93,-628.28 313.76,-618.78 296.11,-597.71 256.98,-550.99 273.17,-473.12 285.66,-432.31"/>
<polygon fill="black" stroke="black" points="289.07,-433.13 288.8,-422.54 282.41,-430.99 289.07,-433.13"/>
<text text-anchor="middle" x="641.61" y="-548.71" font-family="Times,serif" font-size="20.00">[[&#39;Feature&#45;Policy&#39;, &quot;fullscreen &#39;self&#39;&quot;]]</text>
<text text-anchor="middle" x="641.61" y="-526.71" font-family="Times,serif" font-size="20.00">[[&#39;Feature&#45;Policy&#39;, &#39;fullscreen https://sub.headers.websec.saarland&#39;]]</text>
<text text-anchor="middle" x="641.61" y="-504.71" font-family="Times,serif" font-size="20.00">[[&#39;Permissions&#45;Policy&#39;, &#39;fullscreen=(self none)&#39;]]</text>
<text text-anchor="middle" x="641.61" y="-482.71" font-family="Times,serif" font-size="20.00">[[&#39;Permissions&#45;Policy&#39;, &#39;fullscreen=(self)&#39;]]</text>
</g>
<!-- SG_0_Node_12 -->
<g id="node9" class="node">
<title>SG_0_Node_12</title>
<ellipse fill="none" stroke="black" cx="1009.11" cy="-404.49" rx="33.88" ry="21.43"/>
<text text-anchor="middle" x="1009.11" y="-399.49" font-family="Times,serif" font-size="20.00">0.5</text>
</g>
<!-- SG_0_Node_3&#45;&gt;SG_0_Node_12 -->
<g id="edge8" class="edge">
<title>SG_0_Node_3&#45;&gt;SG_0_Node_12</title>
<path fill="none" stroke="black" d="M572.79,-632.77C702.62,-626.51 972.43,-611.87 987.11,-597.71 1030.43,-555.87 1023.86,-478.35 1016.03,-435.65"/>
<polygon fill="black" stroke="black" points="1019.42,-434.72 1014.05,-425.59 1012.55,-436.07 1019.42,-434.72"/>
<text text-anchor="middle" x="1066.61" y="-526.71" font-family="Times,serif" font-size="20.00">[NA]</text>
<text text-anchor="middle" x="1066.61" y="-504.71" font-family="Times,serif" font-size="20.00">11 levels</text>
</g>
<!-- SG_0_Node_13 -->
<g id="node10" class="node">
<title>SG_0_Node_13</title>
<ellipse fill="none" stroke="black" cx="86.11" cy="-260.07" rx="33.88" ry="21.43"/>
<text text-anchor="middle" x="86.11" y="-255.07" font-family="Times,serif" font-size="20.00">0.0</text>
</g>
<!-- SG_0_Node_5&#45;&gt;SG_0_Node_13 -->
<g id="edge9" class="edge">
<title>SG_0_Node_5&#45;&gt;SG_0_Node_13</title>
<path fill="none" stroke="black" d="M226.51,-400.08C172.97,-395.82 104.8,-386.32 87.11,-365.28 70.04,-344.99 72.19,-313.77 77.14,-290.8"/>
<polygon fill="black" stroke="black" points="80.59,-291.43 79.56,-280.89 73.79,-289.77 80.59,-291.43"/>
<text text-anchor="middle" x="327.11" y="-349.28" font-family="Times,serif" font-size="20.00">[[&#39;Feature&#45;Policy&#39;, &quot;fullscreen &#39;self&#39;&quot;]]</text>
<text text-anchor="middle" x="327.11" y="-327.28" font-family="Times,serif" font-size="20.00">[[&#39;Permissions&#45;Policy&#39;, &#39;fullscreen=(self none)&#39;]]</text>
<text text-anchor="middle" x="327.11" y="-305.28" font-family="Times,serif" font-size="20.00">[[&#39;Permissions&#45;Policy&#39;, &#39;fullscreen=(self)&#39;]]</text>
</g>
<!-- SG_0_Node_7 -->
<g id="node11" class="node">
<title>SG_0_Node_7</title>
<polygon fill="none" stroke="black" points="650.11,-278.07 528.11,-278.07 528.11,-242.07 650.11,-242.07 650.11,-278.07"/>
<text text-anchor="middle" x="589.11" y="-255.07" font-family="Times,serif" font-size="20.00">org_origin</text>
</g>
<!-- SG_0_Node_5&#45;&gt;SG_0_Node_7 -->
<g id="edge10" class="edge">
<title>SG_0_Node_5&#45;&gt;SG_0_Node_7</title>
<path fill="none" stroke="black" d="M363.85,-402.58C434.62,-400.17 538.48,-392.01 567.11,-365.28 587.85,-345.91 591.63,-312.3 591.33,-288.49"/>
<polygon fill="black" stroke="black" points="594.82,-288.19 590.95,-278.33 587.83,-288.46 594.82,-288.19"/>
<text text-anchor="middle" x="935.61" y="-327.28" font-family="Times,serif" font-size="20.00">[[&#39;Feature&#45;Policy&#39;, &#39;fullscreen https://sub.headers.websec.saarland&#39;]]</text>
</g>
<!-- SG_0_Node_14 -->
<g id="node12" class="node">
<title>SG_0_Node_14</title>
<ellipse fill="none" stroke="black" cx="374.11" cy="-137.64" rx="33.88" ry="21.43"/>
<text text-anchor="middle" x="374.11" y="-132.64" font-family="Times,serif" font-size="20.00">0.0</text>
</g>
<!-- SG_0_Node_7&#45;&gt;SG_0_Node_14 -->
<g id="edge11" class="edge">
<title>SG_0_Node_7&#45;&gt;SG_0_Node_14</title>
<path fill="none" stroke="black" d="M527.93,-256.87C470.59,-253.38 390.82,-244.32 371.11,-220.85 359.24,-206.72 360.11,-185.92 363.89,-168.77"/>
<polygon fill="black" stroke="black" points="367.39,-169.22 366.53,-158.66 360.62,-167.45 367.39,-169.22"/>
<text text-anchor="middle" x="557.61" y="-193.85" font-family="Times,serif" font-size="20.00">https://sub.headers.websec.saarland</text>
</g>
<!-- SG_0_Node_8 -->
<g id="node13" class="node">
<title>SG_0_Node_8</title>
<polygon fill="none" stroke="black" points="836.11,-155.64 704.11,-155.64 704.11,-119.64 836.11,-119.64 836.11,-155.64"/>
<text text-anchor="middle" x="770.11" y="-132.64" font-family="Times,serif" font-size="20.00">resp_origin</text>
</g>
<!-- SG_0_Node_7&#45;&gt;SG_0_Node_8 -->
<g id="edge12" class="edge">
<title>SG_0_Node_7&#45;&gt;SG_0_Node_8</title>
<path fill="none" stroke="black" d="M650.37,-250.91C688.97,-244.56 734.08,-234.53 748.11,-220.85 762.63,-206.69 767.91,-184.08 769.67,-166.15"/>
<polygon fill="black" stroke="black" points="773.18,-166.18 770.36,-155.97 766.2,-165.71 773.18,-166.18"/>
<text text-anchor="middle" x="948.61" y="-204.85" font-family="Times,serif" font-size="20.00">[NA]</text>
<text text-anchor="middle" x="948.61" y="-182.85" font-family="Times,serif" font-size="20.00">http://sub.headers.websec.saarland</text>
</g>
<!-- SG_0_Node_15 -->
<g id="node14" class="node">
<title>SG_0_Node_15</title>
<ellipse fill="none" stroke="black" cx="465.11" cy="-37.21" rx="33.88" ry="21.43"/>
<text text-anchor="middle" x="465.11" y="-32.21" font-family="Times,serif" font-size="20.00">0.0</text>
</g>
<!-- SG_0_Node_8&#45;&gt;SG_0_Node_15 -->
<g id="edge13" class="edge">
<title>SG_0_Node_8&#45;&gt;SG_0_Node_15</title>
<path fill="none" stroke="black" d="M704,-133.03C618.29,-127.66 477.85,-116.24 462.11,-98.43 454.91,-90.28 454.05,-78.84 455.56,-68.12"/>
<polygon fill="black" stroke="black" points="459.02,-68.69 457.61,-58.18 452.16,-67.27 459.02,-68.69"/>
<text text-anchor="middle" x="648.61" y="-82.43" font-family="Times,serif" font-size="20.00">https://sub.headers.websec.saarland</text>
</g>
<!-- SG_0_Node_16 -->
<g id="node15" class="node">
<title>SG_0_Node_16</title>
<ellipse fill="none" stroke="black" cx="861.11" cy="-37.21" rx="33.88" ry="21.43"/>
<text text-anchor="middle" x="861.11" y="-32.21" font-family="Times,serif" font-size="20.00">1.0</text>
</g>
<!-- SG_0_Node_8&#45;&gt;SG_0_Node_16 -->
<g id="edge14" class="edge">
<title>SG_0_Node_8&#45;&gt;SG_0_Node_16</title>
<path fill="none" stroke="black" d="M812.29,-119.5C822.11,-113.95 831.81,-106.96 839.11,-98.43 846.45,-89.84 851.43,-78.59 854.77,-68.14"/>
<polygon fill="black" stroke="black" points="858.15,-69.06 857.49,-58.48 851.41,-67.16 858.15,-69.06"/>
<text text-anchor="middle" x="1032.61" y="-82.43" font-family="Times,serif" font-size="20.00">http://sub.headers.websec.saarland</text>
</g>
<!-- SG_1_Node_0 -->
<g id="node16" class="node">
<title>SG_1_Node_0</title>
<polygon fill="none" stroke="black" points="1852.61,-1348.98 1715.61,-1348.98 1715.61,-1312.98 1852.61,-1312.98 1852.61,-1348.98"/>
<text text-anchor="middle" x="1784.11" y="-1325.98" font-family="Times,serif" font-size="20.00">raw_header</text>
</g>
<!-- SG_1_Node_1 -->
<g id="node17" class="node">
<title>SG_1_Node_1</title>
<polygon fill="none" stroke="black" points="1777.61,-1075.77 1676.61,-1075.77 1676.61,-1039.77 1777.61,-1039.77 1777.61,-1075.77"/>
<text text-anchor="middle" x="1727.11" y="-1052.77" font-family="Times,serif" font-size="20.00">browser</text>
</g>
<!-- SG_1_Node_0&#45;&gt;SG_1_Node_1 -->
<g id="edge15" class="edge">
<title>SG_1_Node_0&#45;&gt;SG_1_Node_1</title>
<path fill="none" stroke="black" d="M1745.13,-1312.91C1738.31,-1308.12 1732.12,-1302.2 1728.11,-1294.98 1690.62,-1227.68 1707.61,-1131.95 1719.32,-1085.76"/>
<polygon fill="black" stroke="black" points="1722.75,-1086.47 1721.93,-1075.9 1715.98,-1084.67 1722.75,-1086.47"/>
<text text-anchor="middle" x="1773.61" y="-1201.98" font-family="Times,serif" font-size="20.00">[NA]</text>
<text text-anchor="middle" x="1773.61" y="-1179.98" font-family="Times,serif" font-size="20.00">17 levels</text>
</g>
<!-- SG_1_Node_11 -->
<g id="node18" class="node">
<title>SG_1_Node_11</title>
<ellipse fill="none" stroke="black" cx="1841.11" cy="-1057.77" rx="33.88" ry="21.43"/>
<text text-anchor="middle" x="1841.11" y="-1052.77" font-family="Times,serif" font-size="20.00">0.5</text>
</g>
<!-- SG_1_Node_0&#45;&gt;SG_1_Node_11 -->
<g id="edge16" class="edge">
<title>SG_1_Node_0&#45;&gt;SG_1_Node_11</title>
<path fill="none" stroke="black" d="M1806.12,-1312.66C1811.22,-1307.53 1816.04,-1301.52 1819.11,-1294.98 1851.11,-1226.85 1848.63,-1135.61 1844.59,-1088.98"/>
<polygon fill="black" stroke="black" points="1848.07,-1088.55 1843.64,-1078.93 1841.1,-1089.21 1848.07,-1088.55"/>
<text text-anchor="middle" x="2085.61" y="-1256.98" font-family="Times,serif" font-size="20.00">[[&#39;Feature&#45;Policy&#39;, &#39;fullscreen *&#39;]]</text>
<text text-anchor="middle" x="2085.61" y="-1234.98" font-family="Times,serif" font-size="20.00">[[&#39;Permissions&#45;Policy&#39;, &#39;*&#39;]]</text>
<text text-anchor="middle" x="2085.61" y="-1212.98" font-family="Times,serif" font-size="20.00">[[&#39;Permissions&#45;Policy&#39;, &#39;fullscreen=&#39;]]</text>
<text text-anchor="middle" x="2085.61" y="-1190.98" font-family="Times,serif" font-size="20.00">[[&#39;Permissions&#45;Policy&#39;, &#39;fullscreen=(self,none)&#39;]]</text>
<text text-anchor="middle" x="2085.61" y="-1168.98" font-family="Times,serif" font-size="20.00">[[&#39;Permissions&#45;Policy&#39;, &#39;fullscreen=*&#39;]]</text>
<text text-anchor="middle" x="2085.61" y="-1146.98" font-family="Times,serif" font-size="20.00">[[&#39;Permissions&#45;Policy&#39;, &#39;null&#39;]]</text>
<text text-anchor="middle" x="2085.61" y="-1124.98" font-family="Times,serif" font-size="20.00">[]</text>
</g>
<!-- SG_1_Node_3 -->
<g id="node19" class="node">
<title>SG_1_Node_3</title>
<polygon fill="none" stroke="black" points="1671.61,-887.35 1534.61,-887.35 1534.61,-851.35 1671.61,-851.35 1671.61,-887.35"/>
<text text-anchor="middle" x="1603.11" y="-864.35" font-family="Times,serif" font-size="20.00">raw_header</text>
</g>
<!-- SG_1_Node_1&#45;&gt;SG_1_Node_3 -->
<g id="edge17" class="edge">
<title>SG_1_Node_1&#45;&gt;SG_1_Node_3</title>
<path fill="none" stroke="black" d="M1715.66,-1039.57C1693.8,-1006.69 1645.96,-934.77 1620.25,-896.12"/>
<polygon fill="black" stroke="black" points="1622.98,-893.9 1614.52,-887.51 1617.15,-897.77 1622.98,-893.9"/>
<text text-anchor="middle" x="1745.61" y="-969.56" font-family="Times,serif" font-size="20.00">[NA]</text>
<text text-anchor="middle" x="1745.61" y="-947.56" font-family="Times,serif" font-size="20.00">14 levels</text>
</g>
<!-- SG_1_Node_4 -->
<g id="node20" class="node">
<title>SG_1_Node_4</title>
<polygon fill="none" stroke="black" points="2385.61,-887.35 2248.61,-887.35 2248.61,-851.35 2385.61,-851.35 2385.61,-887.35"/>
<text text-anchor="middle" x="2317.11" y="-864.35" font-family="Times,serif" font-size="20.00">status_code</text>
</g>
<!-- SG_1_Node_1&#45;&gt;SG_1_Node_4 -->
<g id="edge18" class="edge">
<title>SG_1_Node_1&#45;&gt;SG_1_Node_4</title>
<path fill="none" stroke="black" d="M1768.56,-1039.63C1778.21,-1035.83 1788.47,-1031.94 1798.11,-1028.56 1956.19,-973.16 2145.08,-918.38 2245.7,-890.1"/>
<polygon fill="black" stroke="black" points="2246.77,-893.43 2255.46,-887.36 2244.88,-886.69 2246.77,-893.43"/>
<text text-anchor="middle" x="2402.61" y="-1002.56" font-family="Times,serif" font-size="20.00">firefox Ubuntu 22.04 119 selenium headless</text>
<text text-anchor="middle" x="2402.61" y="-980.56" font-family="Times,serif" font-size="20.00">firefox Ubuntu 22.04 119 selenium xvfb</text>
<text text-anchor="middle" x="2402.61" y="-958.56" font-family="Times,serif" font-size="20.00">firefox macOS 14.0 119 selenium headless</text>
<text text-anchor="middle" x="2402.61" y="-936.56" font-family="Times,serif" font-size="20.00">firefox macOS 14.0 119 selenium real</text>
<text text-anchor="middle" x="2402.61" y="-914.56" font-family="Times,serif" font-size="20.00">safari macOS 14.0 17.0 selenium real</text>
</g>
<!-- SG_1_Node_12 -->
<g id="node21" class="node">
<title>SG_1_Node_12</title>
<ellipse fill="none" stroke="black" cx="1486.11" cy="-636.92" rx="33.88" ry="21.43"/>
<text text-anchor="middle" x="1486.11" y="-631.92" font-family="Times,serif" font-size="20.00">0.0</text>
</g>
<!-- SG_1_Node_3&#45;&gt;SG_1_Node_12 -->
<g id="edge21" class="edge">
<title>SG_1_Node_3&#45;&gt;SG_1_Node_12</title>
<path fill="none" stroke="black" d="M1534.59,-851.37C1524.39,-846.09 1515,-839.18 1508.11,-830.13 1472.06,-782.82 1475.35,-708.99 1480.81,-667.97"/>
<polygon fill="black" stroke="black" points="1484.28,-668.44 1482.26,-658.04 1477.35,-667.43 1484.28,-668.44"/>
<text text-anchor="middle" x="1553.61" y="-759.13" font-family="Times,serif" font-size="20.00">[NA]</text>
<text text-anchor="middle" x="1553.61" y="-737.13" font-family="Times,serif" font-size="20.00">13 levels</text>
</g>
<!-- SG_1_Node_5 -->
<g id="node22" class="node">
<title>SG_1_Node_5</title>
<polygon fill="none" stroke="black" points="1670.11,-654.92 1538.11,-654.92 1538.11,-618.92 1670.11,-618.92 1670.11,-654.92"/>
<text text-anchor="middle" x="1604.11" y="-631.92" font-family="Times,serif" font-size="20.00">resp_origin</text>
</g>
<!-- SG_1_Node_3&#45;&gt;SG_1_Node_5 -->
<g id="edge22" class="edge">
<title>SG_1_Node_3&#45;&gt;SG_1_Node_5</title>
<path fill="none" stroke="black" d="M1603.18,-851.03C1603.36,-811.31 1603.78,-713.42 1603.99,-665.39"/>
<polygon fill="black" stroke="black" points="1607.49,-665.14 1604.03,-655.12 1600.49,-665.11 1607.49,-665.14"/>
<text text-anchor="middle" x="1948.61" y="-781.13" font-family="Times,serif" font-size="20.00">[[&#39;Feature&#45;Policy&#39;, &quot;fullscreen &#39;self&#39;&quot;]]</text>
<text text-anchor="middle" x="1948.61" y="-759.13" font-family="Times,serif" font-size="20.00">[[&#39;Feature&#45;Policy&#39;, &#39;fullscreen https://sub.headers.websec.saarland&#39;]]</text>
<text text-anchor="middle" x="1948.61" y="-737.13" font-family="Times,serif" font-size="20.00">[[&#39;Permissions&#45;Policy&#39;, &#39;fullscreen=(self none)&#39;]]</text>
<text text-anchor="middle" x="1948.61" y="-715.13" font-family="Times,serif" font-size="20.00">[[&#39;Permissions&#45;Policy&#39;, &#39;fullscreen=(self)&#39;]]</text>
</g>
<!-- SG_1_Node_13 -->
<g id="node23" class="node">
<title>SG_1_Node_13</title>
<ellipse fill="none" stroke="black" cx="2311.11" cy="-636.92" rx="33.88" ry="21.43"/>
<text text-anchor="middle" x="2311.11" y="-631.92" font-family="Times,serif" font-size="20.00">0.0</text>
</g>
<!-- SG_1_Node_4&#45;&gt;SG_1_Node_13 -->
<g id="edge19" class="edge">
<title>SG_1_Node_4&#45;&gt;SG_1_Node_13</title>
<path fill="none" stroke="black" d="M2316.66,-851.03C2315.64,-812.12 2313.18,-717.38 2311.9,-668.38"/>
<polygon fill="black" stroke="black" points="2315.4,-668.28 2311.64,-658.38 2308.4,-668.46 2315.4,-668.28"/>
<text text-anchor="middle" x="2334.61" y="-748.13" font-family="Times,serif" font-size="20.00">302</text>
</g>
<!-- SG_1_Node_14 -->
<g id="node24" class="node">
<title>SG_1_Node_14</title>
<ellipse fill="none" stroke="black" cx="2397.11" cy="-636.92" rx="33.88" ry="21.43"/>
<text text-anchor="middle" x="2397.11" y="-631.92" font-family="Times,serif" font-size="20.00">0.5</text>
</g>
<!-- SG_1_Node_4&#45;&gt;SG_1_Node_14 -->
<g id="edge20" class="edge">
<title>SG_1_Node_4&#45;&gt;SG_1_Node_14</title>
<path fill="none" stroke="black" d="M2340.64,-851.01C2347.21,-845.08 2353.73,-837.94 2358.11,-830.13 2387.06,-778.42 2394.67,-708.18 2396.58,-668.51"/>
<polygon fill="black" stroke="black" points="2400.08,-668.53 2396.97,-658.4 2393.08,-668.26 2400.08,-668.53"/>
<text text-anchor="middle" x="2418.61" y="-759.13" font-family="Times,serif" font-size="20.00">[NA]</text>
<text text-anchor="middle" x="2418.61" y="-737.13" font-family="Times,serif" font-size="20.00">200</text>
</g>
<!-- SG_1_Node_15 -->
<g id="node25" class="node">
<title>SG_1_Node_15</title>
<ellipse fill="none" stroke="black" cx="1488.11" cy="-404.49" rx="33.88" ry="21.43"/>
<text text-anchor="middle" x="1488.11" y="-399.49" font-family="Times,serif" font-size="20.00">0.0</text>
</g>
<!-- SG_1_Node_5&#45;&gt;SG_1_Node_15 -->
<g id="edge23" class="edge">
<title>SG_1_Node_5&#45;&gt;SG_1_Node_15</title>
<path fill="none" stroke="black" d="M1542.74,-618.86C1517.26,-611.17 1492.74,-602.71 1489.11,-597.71 1454.33,-549.77 1467.29,-475.93 1478.51,-435.13"/>
<polygon fill="black" stroke="black" points="1481.88,-436.09 1481.3,-425.51 1475.16,-434.14 1481.88,-436.09"/>
<text text-anchor="middle" x="1696.61" y="-581.71" font-family="Times,serif" font-size="20.00">[NA]</text>
<text text-anchor="middle" x="1696.61" y="-559.71" font-family="Times,serif" font-size="20.00">http://headers.webappsec.eu</text>
<text text-anchor="middle" x="1696.61" y="-537.71" font-family="Times,serif" font-size="20.00">http://headers.websec.saarland</text>
<text text-anchor="middle" x="1696.61" y="-515.71" font-family="Times,serif" font-size="20.00">http://sub.sub.headers.websec.saarland</text>
<text text-anchor="middle" x="1696.61" y="-493.71" font-family="Times,serif" font-size="20.00">https://headers.webappsec.eu</text>
<text text-anchor="middle" x="1696.61" y="-471.71" font-family="Times,serif" font-size="20.00">https://headers.websec.saarland</text>
<text text-anchor="middle" x="1696.61" y="-449.71" font-family="Times,serif" font-size="20.00">https://sub.sub.headers.websec.saarland</text>
</g>
<!-- SG_1_Node_7 -->
<g id="node26" class="node">
<title>SG_1_Node_7</title>
<polygon fill="none" stroke="black" points="1994.61,-422.49 1857.61,-422.49 1857.61,-386.49 1994.61,-386.49 1994.61,-422.49"/>
<text text-anchor="middle" x="1926.11" y="-399.49" font-family="Times,serif" font-size="20.00">raw_header</text>
</g>
<!-- SG_1_Node_5&#45;&gt;SG_1_Node_7 -->
<g id="edge24" class="edge">
<title>SG_1_Node_5&#45;&gt;SG_1_Node_7</title>
<path fill="none" stroke="black" d="M1670.25,-636.65C1748.59,-636.01 1872.48,-629.74 1904.11,-597.71 1947.31,-553.95 1939.97,-474.48 1932.29,-432.75"/>
<polygon fill="black" stroke="black" points="1935.69,-431.89 1930.31,-422.76 1928.82,-433.25 1935.69,-431.89"/>
<text text-anchor="middle" x="2124.61" y="-526.71" font-family="Times,serif" font-size="20.00">http://sub.headers.websec.saarland</text>
<text text-anchor="middle" x="2124.61" y="-504.71" font-family="Times,serif" font-size="20.00">https://sub.headers.websec.saarland</text>
</g>
<!-- SG_1_Node_8 -->
<g id="node27" class="node">
<title>SG_1_Node_8</title>
<polygon fill="none" stroke="black" points="1461.11,-278.07 1339.11,-278.07 1339.11,-242.07 1461.11,-242.07 1461.11,-278.07"/>
<text text-anchor="middle" x="1400.11" y="-255.07" font-family="Times,serif" font-size="20.00">org_origin</text>
</g>
<!-- SG_1_Node_7&#45;&gt;SG_1_Node_8 -->
<g id="edge25" class="edge">
<title>SG_1_Node_7&#45;&gt;SG_1_Node_8</title>
<path fill="none" stroke="black" d="M1857.47,-400.13C1707.38,-392.6 1362.61,-374.37 1354.11,-365.28 1334.07,-343.86 1341.65,-325.83 1354.11,-299.28 1356.53,-294.11 1360.04,-289.4 1364.05,-285.19"/>
<polygon fill="black" stroke="black" points="1366.71,-287.5 1371.69,-278.15 1361.96,-282.35 1366.71,-287.5"/>
<text text-anchor="middle" x="1699.61" y="-327.28" font-family="Times,serif" font-size="20.00">[[&#39;Feature&#45;Policy&#39;, &#39;fullscreen https://sub.headers.websec.saarland&#39;]]</text>
</g>
<!-- SG_1_Node_16 -->
<g id="node28" class="node">
<title>SG_1_Node_16</title>
<ellipse fill="none" stroke="black" cx="2071.11" cy="-260.07" rx="33.88" ry="21.43"/>
<text text-anchor="middle" x="2071.11" y="-255.07" font-family="Times,serif" font-size="20.00">0.5</text>
</g>
<!-- SG_1_Node_7&#45;&gt;SG_1_Node_16 -->
<g id="edge26" class="edge">
<title>SG_1_Node_7&#45;&gt;SG_1_Node_16</title>
<path fill="none" stroke="black" d="M1994.85,-395.53C2014.83,-390 2035.03,-380.74 2049.11,-365.28 2067.17,-345.45 2071.83,-314.64 2072.47,-291.66"/>
<polygon fill="black" stroke="black" points="2075.97,-291.42 2072.51,-281.4 2068.97,-291.39 2075.97,-291.42"/>
<text text-anchor="middle" x="2311.11" y="-349.28" font-family="Times,serif" font-size="20.00">[[&#39;Feature&#45;Policy&#39;, &quot;fullscreen &#39;self&#39;&quot;]]</text>
<text text-anchor="middle" x="2311.11" y="-327.28" font-family="Times,serif" font-size="20.00">[[&#39;Permissions&#45;Policy&#39;, &#39;fullscreen=(self none)&#39;]]</text>
<text text-anchor="middle" x="2311.11" y="-305.28" font-family="Times,serif" font-size="20.00">[[&#39;Permissions&#45;Policy&#39;, &#39;fullscreen=(self)&#39;]]</text>
</g>
<!-- SG_1_Node_17 -->
<g id="node29" class="node">
<title>SG_1_Node_17</title>
<ellipse fill="none" stroke="black" cx="1386.11" cy="-137.64" rx="33.88" ry="21.43"/>
<text text-anchor="middle" x="1386.11" y="-132.64" font-family="Times,serif" font-size="20.00">0.0</text>
</g>
<!-- SG_1_Node_8&#45;&gt;SG_1_Node_17 -->
<g id="edge27" class="edge">
<title>SG_1_Node_8&#45;&gt;SG_1_Node_17</title>
<path fill="none" stroke="black" d="M1392.97,-241.87C1390.63,-235.39 1388.32,-227.9 1387.11,-220.85 1384.2,-203.94 1383.81,-184.77 1384.2,-169.2"/>
<polygon fill="black" stroke="black" points="1387.71,-169.2 1384.58,-159.07 1380.71,-168.93 1387.71,-169.2"/>
<text text-anchor="middle" x="1568.61" y="-193.85" font-family="Times,serif" font-size="20.00">http://sub.headers.websec.saarland</text>
</g>
<!-- SG_1_Node_10 -->
<g id="node30" class="node">
<title>SG_1_Node_10</title>
<polygon fill="none" stroke="black" points="1838.11,-155.64 1706.11,-155.64 1706.11,-119.64 1838.11,-119.64 1838.11,-155.64"/>
<text text-anchor="middle" x="1772.11" y="-132.64" font-family="Times,serif" font-size="20.00">resp_origin</text>
</g>
<!-- SG_1_Node_8&#45;&gt;SG_1_Node_10 -->
<g id="edge28" class="edge">
<title>SG_1_Node_8&#45;&gt;SG_1_Node_10</title>
<path fill="none" stroke="black" d="M1461.37,-256.11C1555.89,-250.99 1728.68,-239.23 1750.11,-220.85 1765.76,-207.42 1770.89,-184.19 1772.31,-165.84"/>
<polygon fill="black" stroke="black" points="1775.81,-165.86 1772.77,-155.72 1768.82,-165.55 1775.81,-165.86"/>
<text text-anchor="middle" x="1956.61" y="-204.85" font-family="Times,serif" font-size="20.00">[NA]</text>
<text text-anchor="middle" x="1956.61" y="-182.85" font-family="Times,serif" font-size="20.00">https://sub.headers.websec.saarland</text>
</g>
<!-- SG_1_Node_18 -->
<g id="node31" class="node">
<title>SG_1_Node_18</title>
<ellipse fill="none" stroke="black" cx="1579.11" cy="-37.21" rx="33.88" ry="21.43"/>
<text text-anchor="middle" x="1579.11" y="-32.21" font-family="Times,serif" font-size="20.00">0.0</text>
</g>
<!-- SG_1_Node_10&#45;&gt;SG_1_Node_18 -->
<g id="edge29" class="edge">
<title>SG_1_Node_10&#45;&gt;SG_1_Node_18</title>
<path fill="none" stroke="black" d="M1706.03,-132.19C1657.05,-127.36 1596.11,-117.61 1580.11,-98.43 1573.27,-90.24 1571.73,-79.02 1572.34,-68.48"/>
<polygon fill="black" stroke="black" points="1575.84,-68.65 1573.56,-58.3 1568.89,-67.82 1575.84,-68.65"/>
<text text-anchor="middle" x="1761.61" y="-82.43" font-family="Times,serif" font-size="20.00">http://sub.headers.websec.saarland</text>
</g>
<!-- SG_1_Node_19 -->
<g id="node32" class="node">
<title>SG_1_Node_19</title>
<ellipse fill="none" stroke="black" cx="1965.11" cy="-37.21" rx="33.88" ry="21.43"/>
<text text-anchor="middle" x="1965.11" y="-32.21" font-family="Times,serif" font-size="20.00">1.0</text>
</g>
<!-- SG_1_Node_10&#45;&gt;SG_1_Node_19 -->
<g id="edge30" class="edge">
<title>SG_1_Node_10&#45;&gt;SG_1_Node_19</title>
<path fill="none" stroke="black" d="M1838.45,-128.45C1879.57,-122.15 1927.44,-112.17 1943.11,-98.43 1951.79,-90.81 1957.05,-79.46 1960.24,-68.67"/>
<polygon fill="black" stroke="black" points="1963.72,-69.18 1962.7,-58.63 1956.92,-67.51 1963.72,-69.18"/>
<text text-anchor="middle" x="2143.61" y="-82.43" font-family="Times,serif" font-size="20.00">https://sub.headers.websec.saarland</text>
</g>
<!-- SG_2_Node_0 -->
<g id="node33" class="node">
<title>SG_2_Node_0</title>
<polygon fill="none" stroke="black" points="2729.61,-1348.98 2592.61,-1348.98 2592.61,-1312.98 2729.61,-1312.98 2729.61,-1348.98"/>
<text text-anchor="middle" x="2661.11" y="-1325.98" font-family="Times,serif" font-size="20.00">status_code</text>
</g>
<!-- SG_2_Node_2 -->
<g id="node34" class="node">
<title>SG_2_Node_2</title>
<ellipse fill="none" stroke="black" cx="2635.11" cy="-1057.77" rx="33.88" ry="21.43"/>
<text text-anchor="middle" x="2635.11" y="-1052.77" font-family="Times,serif" font-size="20.00">0.5</text>
</g>
<!-- SG_2_Node_0&#45;&gt;SG_2_Node_2 -->
<g id="edge31" class="edge">
<title>SG_2_Node_0&#45;&gt;SG_2_Node_2</title>
<path fill="none" stroke="black" d="M2653.57,-1312.84C2651.43,-1307.25 2649.35,-1300.95 2648.11,-1294.98 2632.99,-1222.4 2632.73,-1134.72 2633.89,-1089.33"/>
<polygon fill="black" stroke="black" points="2637.39,-1089.36 2634.19,-1079.26 2630.39,-1089.15 2637.39,-1089.36"/>
<text text-anchor="middle" x="2671.61" y="-1201.98" font-family="Times,serif" font-size="20.00">[NA]</text>
<text text-anchor="middle" x="2671.61" y="-1179.98" font-family="Times,serif" font-size="20.00">200</text>
</g>
<!-- SG_2_Node_3 -->
<g id="node35" class="node">
<title>SG_2_Node_3</title>
<ellipse fill="none" stroke="black" cx="2721.11" cy="-1057.77" rx="33.88" ry="21.43"/>
<text text-anchor="middle" x="2721.11" y="-1052.77" font-family="Times,serif" font-size="20.00">1.0</text>
</g>
<!-- SG_2_Node_0&#45;&gt;SG_2_Node_3 -->
<g id="edge32" class="edge">
<title>SG_2_Node_0&#45;&gt;SG_2_Node_3</title>
<path fill="none" stroke="black" d="M2682.07,-1312.9C2687.15,-1307.69 2692,-1301.58 2695.11,-1294.98 2727.16,-1226.95 2726.75,-1136.03 2723.85,-1089.31"/>
<polygon fill="black" stroke="black" points="2727.34,-1088.97 2723.15,-1079.24 2720.36,-1089.46 2727.34,-1088.97"/>
<text text-anchor="middle" x="2743.61" y="-1190.98" font-family="Times,serif" font-size="20.00">302</text>
</g>
</g>
</svg>
