<?xml version="1.0" encoding="UTF-8" standalone="no"?>
<!DOCTYPE svg PUBLIC "-//W3C//DTD SVG 1.1//EN"
 "http://www.w3.org/Graphics/SVG/1.1/DTD/svg11.dtd">
<!-- Generated by graphviz version 2.43.0 (0)
 -->
<!-- Title: G Pages: 1 -->
<svg width="4591pt" height="1479pt"
 viewBox="0.00 0.00 4591.00 1478.56" xmlns="http://www.w3.org/2000/svg" xmlns:xlink="http://www.w3.org/1999/xlink">
<g id="graph0" class="graph" transform="scale(1 1) rotate(0) translate(4 1474.56)">
<title>G</title>
<polygon fill="white" stroke="transparent" points="-4,4 -4,-1474.56 4587,-1474.56 4587,4 -4,4"/>
<g id="clust1" class="cluster">
<title>cluster_0</title>
<polygon fill="none" stroke="black" points="8,-8 8,-1462.56 1713,-1462.56 1713,-8 8,-8"/>
<text text-anchor="middle" x="860.5" y="-1426.56" font-family="Times,serif" font-size="40.00">Tree 0, Class fullscreenEnabled: false</text>
</g>
<g id="clust9" class="cluster">
<title>cluster_1</title>
<polygon fill="none" stroke="black" points="1721,-174.43 1721,-1462.56 3558,-1462.56 3558,-174.43 1721,-174.43"/>
<text text-anchor="middle" x="2639.5" y="-1426.56" font-family="Times,serif" font-size="40.00">Tree 0, Class fullscreenEnabled: true</text>
</g>
<g id="clust16" class="cluster">
<title>cluster_2</title>
<polygon fill="none" stroke="black" points="3566,-683.28 3566,-1462.56 4575,-1462.56 4575,-683.28 3566,-683.28"/>
<text text-anchor="middle" x="4070.5" y="-1426.56" font-family="Times,serif" font-size="40.00">Tree 0, Class message timeout</text>
</g>
<!-- SG_0_Node_0 -->
<g id="node1" class="node">
<title>SG_0_Node_0</title>
<polygon fill="none" stroke="black" points="192.5,-1402.56 55.5,-1402.56 55.5,-1366.56 192.5,-1366.56 192.5,-1402.56"/>
<text text-anchor="middle" x="124" y="-1379.56" font-family="Times,serif" font-size="20.00">raw_header</text>
</g>
<!-- SG_0_Node_8 -->
<g id="node2" class="node">
<title>SG_0_Node_8</title>
<ellipse fill="none" stroke="black" cx="87" cy="-1089.35" rx="33.88" ry="21.43"/>
<text text-anchor="middle" x="87" y="-1084.35" font-family="Times,serif" font-size="20.00">0.0</text>
</g>
<!-- SG_0_Node_0&#45;&gt;SG_0_Node_8 -->
<g id="edge1" class="edge">
<title>SG_0_Node_0&#45;&gt;SG_0_Node_8</title>
<path fill="none" stroke="black" d="M100.96,-1366.52C95.72,-1361.38 90.86,-1355.3 88,-1348.56 55.36,-1271.71 69.68,-1170 79.91,-1120.29"/>
<polygon fill="black" stroke="black" points="83.34,-1121.01 82.02,-1110.5 76.49,-1119.54 83.34,-1121.01"/>
<text text-anchor="middle" x="133.5" y="-1233.56" font-family="Times,serif" font-size="20.00">12 levels</text>
</g>
<!-- SG_0_Node_1 -->
<g id="node3" class="node">
<title>SG_0_Node_1</title>
<polygon fill="none" stroke="black" points="251.5,-1107.35 150.5,-1107.35 150.5,-1071.35 251.5,-1071.35 251.5,-1107.35"/>
<text text-anchor="middle" x="201" y="-1084.35" font-family="Times,serif" font-size="20.00">browser</text>
</g>
<!-- SG_0_Node_0&#45;&gt;SG_0_Node_1 -->
<g id="edge2" class="edge">
<title>SG_0_Node_0&#45;&gt;SG_0_Node_1</title>
<path fill="none" stroke="black" d="M161.29,-1366.5C168.24,-1361.67 174.66,-1355.72 179,-1348.56 223.51,-1275.06 213.85,-1167.51 206.08,-1117.63"/>
<polygon fill="black" stroke="black" points="209.5,-1116.91 204.42,-1107.61 202.6,-1118.05 209.5,-1116.91"/>
<text text-anchor="middle" x="257.5" y="-1244.56" font-family="Times,serif" font-size="20.00">[NA]</text>
<text text-anchor="middle" x="257.5" y="-1222.56" font-family="Times,serif" font-size="20.00">12 levels</text>
</g>
<!-- SG_0_Node_9 -->
<g id="node4" class="node">
<title>SG_0_Node_9</title>
<ellipse fill="none" stroke="black" cx="125" cy="-900.92" rx="33.88" ry="21.43"/>
<text text-anchor="middle" x="125" y="-895.92" font-family="Times,serif" font-size="20.00">0.0</text>
</g>
<!-- SG_0_Node_1&#45;&gt;SG_0_Node_9 -->
<g id="edge3" class="edge">
<title>SG_0_Node_1&#45;&gt;SG_0_Node_9</title>
<path fill="none" stroke="black" d="M150.18,-1072.04C140.58,-1066.6 131.76,-1059.46 126,-1050.13 103.89,-1014.33 109.62,-963.8 116.64,-931.96"/>
<polygon fill="black" stroke="black" points="120.12,-932.46 119.03,-921.92 113.31,-930.84 120.12,-932.46"/>
<text text-anchor="middle" x="350.5" y="-1034.13" font-family="Times,serif" font-size="20.00">firefox Ubuntu 22.04 119 selenium headless</text>
<text text-anchor="middle" x="350.5" y="-1012.13" font-family="Times,serif" font-size="20.00">firefox Ubuntu 22.04 119 selenium xvfb</text>
<text text-anchor="middle" x="350.5" y="-990.13" font-family="Times,serif" font-size="20.00">firefox macOS 14.0 119 selenium headless</text>
<text text-anchor="middle" x="350.5" y="-968.13" font-family="Times,serif" font-size="20.00">firefox macOS 14.0 119 selenium real</text>
<text text-anchor="middle" x="350.5" y="-946.13" font-family="Times,serif" font-size="20.00">safari macOS 14.0 17.0 selenium real</text>
</g>
<!-- SG_0_Node_2 -->
<g id="node5" class="node">
<title>SG_0_Node_2</title>
<polygon fill="none" stroke="black" points="658,-918.92 536,-918.92 536,-882.92 658,-882.92 658,-918.92"/>
<text text-anchor="middle" x="597" y="-895.92" font-family="Times,serif" font-size="20.00">org_origin</text>
</g>
<!-- SG_0_Node_1&#45;&gt;SG_0_Node_2 -->
<g id="edge4" class="edge">
<title>SG_0_Node_1&#45;&gt;SG_0_Node_2</title>
<path fill="none" stroke="black" d="M251.78,-1086.57C348.61,-1082.7 552.08,-1072.03 575,-1050.13 607.42,-1019.16 606.16,-962.71 601.87,-929.13"/>
<polygon fill="black" stroke="black" points="605.31,-928.49 600.41,-919.09 598.39,-929.49 605.31,-928.49"/>
<text text-anchor="middle" x="649.5" y="-1001.13" font-family="Times,serif" font-size="20.00">[NA]</text>
<text text-anchor="middle" x="649.5" y="-979.13" font-family="Times,serif" font-size="20.00">14 levels</text>
</g>
<!-- SG_0_Node_3 -->
<g id="node6" class="node">
<title>SG_0_Node_3</title>
<polygon fill="none" stroke="black" points="528,-730.49 396,-730.49 396,-694.49 528,-694.49 528,-730.49"/>
<text text-anchor="middle" x="462" y="-707.49" font-family="Times,serif" font-size="20.00">resp_origin</text>
</g>
<!-- SG_0_Node_2&#45;&gt;SG_0_Node_3 -->
<g id="edge5" class="edge">
<title>SG_0_Node_2&#45;&gt;SG_0_Node_3</title>
<path fill="none" stroke="black" d="M535.92,-887.98C520.68,-882.32 505.67,-873.98 495,-861.71 465.63,-827.93 460.7,-773.75 460.71,-741.1"/>
<polygon fill="black" stroke="black" points="464.22,-740.96 460.88,-730.91 457.22,-740.85 464.22,-740.96"/>
<text text-anchor="middle" x="681.5" y="-801.71" font-family="Times,serif" font-size="20.00">https://sub.headers.websec.saarland</text>
</g>
<!-- SG_0_Node_4 -->
<g id="node7" class="node">
<title>SG_0_Node_4</title>
<polygon fill="none" stroke="black" points="968.5,-730.49 831.5,-730.49 831.5,-694.49 968.5,-694.49 968.5,-730.49"/>
<text text-anchor="middle" x="900" y="-707.49" font-family="Times,serif" font-size="20.00">raw_header</text>
</g>
<!-- SG_0_Node_2&#45;&gt;SG_0_Node_4 -->
<g id="edge6" class="edge">
<title>SG_0_Node_2&#45;&gt;SG_0_Node_4</title>
<path fill="none" stroke="black" d="M658.19,-899.19C728.62,-897.04 838.43,-889.21 868,-861.71 901.22,-830.81 904.22,-774.34 902.62,-740.73"/>
<polygon fill="black" stroke="black" points="906.11,-740.44 901.98,-730.68 899.13,-740.89 906.11,-740.44"/>
<text text-anchor="middle" x="1083.5" y="-812.71" font-family="Times,serif" font-size="20.00">[NA]</text>
<text text-anchor="middle" x="1083.5" y="-790.71" font-family="Times,serif" font-size="20.00">http://sub.headers.websec.saarland</text>
</g>
<!-- SG_0_Node_10 -->
<g id="node8" class="node">
<title>SG_0_Node_10</title>
<ellipse fill="none" stroke="black" cx="50" cy="-458.07" rx="33.88" ry="21.43"/>
<text text-anchor="middle" x="50" y="-453.07" font-family="Times,serif" font-size="20.00">0.0</text>
</g>
<!-- SG_0_Node_3&#45;&gt;SG_0_Node_10 -->
<g id="edge11" class="edge">
<title>SG_0_Node_3&#45;&gt;SG_0_Node_10</title>
<path fill="none" stroke="black" d="M395.57,-710.05C285.66,-706.97 75.74,-697.9 53,-673.28 6.66,-623.12 25.25,-534.71 39.47,-488.73"/>
<polygon fill="black" stroke="black" points="42.85,-489.65 42.59,-479.06 36.19,-487.5 42.85,-489.65"/>
<text text-anchor="middle" x="255.5" y="-613.28" font-family="Times,serif" font-size="20.00">http://headers.webappsec.eu</text>
<text text-anchor="middle" x="255.5" y="-591.28" font-family="Times,serif" font-size="20.00">http://headers.websec.saarland</text>
<text text-anchor="middle" x="255.5" y="-569.28" font-family="Times,serif" font-size="20.00">http://sub.headers.websec.saarland</text>
<text text-anchor="middle" x="255.5" y="-547.28" font-family="Times,serif" font-size="20.00">http://sub.sub.headers.websec.saarland</text>
</g>
<!-- SG_0_Node_5 -->
<g id="node9" class="node">
<title>SG_0_Node_5</title>
<polygon fill="none" stroke="black" points="530.5,-476.07 393.5,-476.07 393.5,-440.07 530.5,-440.07 530.5,-476.07"/>
<text text-anchor="middle" x="462" y="-453.07" font-family="Times,serif" font-size="20.00">raw_header</text>
</g>
<!-- SG_0_Node_3&#45;&gt;SG_0_Node_5 -->
<g id="edge12" class="edge">
<title>SG_0_Node_3&#45;&gt;SG_0_Node_5</title>
<path fill="none" stroke="black" d="M462,-694.14C462,-650.99 462,-538.53 462,-486.37"/>
<polygon fill="black" stroke="black" points="465.5,-486.2 462,-476.2 458.5,-486.2 465.5,-486.2"/>
<text text-anchor="middle" x="669.5" y="-624.28" font-family="Times,serif" font-size="20.00">[NA]</text>
<text text-anchor="middle" x="669.5" y="-602.28" font-family="Times,serif" font-size="20.00">https://headers.webappsec.eu</text>
<text text-anchor="middle" x="669.5" y="-580.28" font-family="Times,serif" font-size="20.00">https://headers.websec.saarland</text>
<text text-anchor="middle" x="669.5" y="-558.28" font-family="Times,serif" font-size="20.00">https://sub.headers.websec.saarland</text>
<text text-anchor="middle" x="669.5" y="-536.28" font-family="Times,serif" font-size="20.00">https://sub.sub.headers.websec.saarland</text>
</g>
<!-- SG_0_Node_6 -->
<g id="node10" class="node">
<title>SG_0_Node_6</title>
<polygon fill="none" stroke="black" points="966,-476.07 834,-476.07 834,-440.07 966,-440.07 966,-476.07"/>
<text text-anchor="middle" x="900" y="-453.07" font-family="Times,serif" font-size="20.00">resp_origin</text>
</g>
<!-- SG_0_Node_4&#45;&gt;SG_0_Node_6 -->
<g id="edge7" class="edge">
<title>SG_0_Node_4&#45;&gt;SG_0_Node_6</title>
<path fill="none" stroke="black" d="M900,-694.14C900,-650.99 900,-538.53 900,-486.37"/>
<polygon fill="black" stroke="black" points="903.5,-486.2 900,-476.2 896.5,-486.2 903.5,-486.2"/>
<text text-anchor="middle" x="1245.5" y="-580.28" font-family="Times,serif" font-size="20.00">[[&#39;Feature&#45;Policy&#39;, &#39;fullscreen https://sub.headers.websec.saarland&#39;]]</text>
</g>
<!-- SG_0_Node_11 -->
<g id="node11" class="node">
<title>SG_0_Node_11</title>
<ellipse fill="none" stroke="black" cx="1614" cy="-458.07" rx="33.88" ry="21.43"/>
<text text-anchor="middle" x="1614" y="-453.07" font-family="Times,serif" font-size="20.00">1.0</text>
</g>
<!-- SG_0_Node_4&#45;&gt;SG_0_Node_11 -->
<g id="edge8" class="edge">
<title>SG_0_Node_4&#45;&gt;SG_0_Node_11</title>
<path fill="none" stroke="black" d="M968.79,-710.08C1139.37,-706.26 1569.69,-694.56 1592,-673.28 1617.69,-648.78 1617.37,-542.74 1615.49,-489.62"/>
<polygon fill="black" stroke="black" points="1618.98,-489.3 1615.09,-479.44 1611.99,-489.57 1618.98,-489.3"/>
<text text-anchor="middle" x="1661.5" y="-591.28" font-family="Times,serif" font-size="20.00">[NA]</text>
<text text-anchor="middle" x="1661.5" y="-569.28" font-family="Times,serif" font-size="20.00">11 levels</text>
</g>
<!-- SG_0_Node_7 -->
<g id="node12" class="node">
<title>SG_0_Node_7</title>
<polygon fill="none" stroke="black" points="148,-221.64 16,-221.64 16,-185.64 148,-185.64 148,-221.64"/>
<text text-anchor="middle" x="82" y="-198.64" font-family="Times,serif" font-size="20.00">resp_origin</text>
</g>
<!-- SG_0_Node_5&#45;&gt;SG_0_Node_7 -->
<g id="edge13" class="edge">
<title>SG_0_Node_5&#45;&gt;SG_0_Node_7</title>
<path fill="none" stroke="black" d="M393.26,-455.42C284.99,-452.1 84.73,-442.77 63,-418.85 10.39,-360.96 45.11,-319 63,-242.85 63.93,-238.91 65.32,-234.91 66.95,-231.05"/>
<polygon fill="black" stroke="black" points="70.18,-232.41 71.32,-221.88 63.86,-229.4 70.18,-232.41"/>
<text text-anchor="middle" x="408.5" y="-325.85" font-family="Times,serif" font-size="20.00">[[&#39;Feature&#45;Policy&#39;, &#39;fullscreen https://sub.headers.websec.saarland&#39;]]</text>
</g>
<!-- SG_0_Node_12 -->
<g id="node13" class="node">
<title>SG_0_Node_12</title>
<ellipse fill="none" stroke="black" cx="780" cy="-203.64" rx="33.88" ry="21.43"/>
<text text-anchor="middle" x="780" y="-198.64" font-family="Times,serif" font-size="20.00">1.0</text>
</g>
<!-- SG_0_Node_5&#45;&gt;SG_0_Node_12 -->
<g id="edge14" class="edge">
<title>SG_0_Node_5&#45;&gt;SG_0_Node_12</title>
<path fill="none" stroke="black" d="M530.74,-457.69C608.23,-456.82 727.45,-450.21 758,-418.85 805.8,-369.79 796.45,-281.22 787.27,-234.83"/>
<polygon fill="black" stroke="black" points="790.64,-233.86 785.15,-224.8 783.79,-235.31 790.64,-233.86"/>
<text text-anchor="middle" x="839.5" y="-336.85" font-family="Times,serif" font-size="20.00">[NA]</text>
<text text-anchor="middle" x="839.5" y="-314.85" font-family="Times,serif" font-size="20.00">11 levels</text>
</g>
<!-- SG_0_Node_13 -->
<g id="node14" class="node">
<title>SG_0_Node_13</title>
<ellipse fill="none" stroke="black" cx="894" cy="-203.64" rx="33.88" ry="21.43"/>
<text text-anchor="middle" x="894" y="-198.64" font-family="Times,serif" font-size="20.00">0.0</text>
</g>
<!-- SG_0_Node_6&#45;&gt;SG_0_Node_13 -->
<g id="edge9" class="edge">
<title>SG_0_Node_6&#45;&gt;SG_0_Node_13</title>
<path fill="none" stroke="black" d="M897.3,-439.99C896.38,-433.4 895.47,-425.8 895,-418.85 890.59,-353.49 891.77,-276.64 892.94,-235.07"/>
<polygon fill="black" stroke="black" points="896.44,-235.15 893.25,-225.05 889.45,-234.94 896.44,-235.15"/>
<text text-anchor="middle" x="1081.5" y="-325.85" font-family="Times,serif" font-size="20.00">https://sub.headers.websec.saarland</text>
</g>
<!-- SG_0_Node_14 -->
<g id="node15" class="node">
<title>SG_0_Node_14</title>
<ellipse fill="none" stroke="black" cx="1290" cy="-203.64" rx="33.88" ry="21.43"/>
<text text-anchor="middle" x="1290" y="-198.64" font-family="Times,serif" font-size="20.00">1.0</text>
</g>
<!-- SG_0_Node_6&#45;&gt;SG_0_Node_14 -->
<g id="edge10" class="edge">
<title>SG_0_Node_6&#45;&gt;SG_0_Node_14</title>
<path fill="none" stroke="black" d="M966.41,-454.64C1066.64,-450.32 1247.15,-439.73 1268,-418.85 1293.09,-393.74 1293.06,-287.99 1291.37,-235.07"/>
<polygon fill="black" stroke="black" points="1294.87,-234.8 1291.01,-224.93 1287.87,-235.05 1294.87,-234.8"/>
<text text-anchor="middle" x="1498.5" y="-402.85" font-family="Times,serif" font-size="20.00">[NA]</text>
<text text-anchor="middle" x="1498.5" y="-380.85" font-family="Times,serif" font-size="20.00">http://headers.webappsec.eu</text>
<text text-anchor="middle" x="1498.5" y="-358.85" font-family="Times,serif" font-size="20.00">http://headers.websec.saarland</text>
<text text-anchor="middle" x="1498.5" y="-336.85" font-family="Times,serif" font-size="20.00">http://sub.headers.websec.saarland</text>
<text text-anchor="middle" x="1498.5" y="-314.85" font-family="Times,serif" font-size="20.00">http://sub.sub.headers.websec.saarland</text>
<text text-anchor="middle" x="1498.5" y="-292.85" font-family="Times,serif" font-size="20.00">https://headers.webappsec.eu</text>
<text text-anchor="middle" x="1498.5" y="-270.85" font-family="Times,serif" font-size="20.00">https://headers.websec.saarland</text>
<text text-anchor="middle" x="1498.5" y="-248.85" font-family="Times,serif" font-size="20.00">https://sub.sub.headers.websec.saarland</text>
</g>
<!-- SG_0_Node_15 -->
<g id="node16" class="node">
<title>SG_0_Node_15</title>
<ellipse fill="none" stroke="black" cx="66" cy="-37.21" rx="33.88" ry="21.43"/>
<text text-anchor="middle" x="66" y="-32.21" font-family="Times,serif" font-size="20.00">0.0</text>
</g>
<!-- SG_0_Node_7&#45;&gt;SG_0_Node_15 -->
<g id="edge15" class="edge">
<title>SG_0_Node_7&#45;&gt;SG_0_Node_15</title>
<path fill="none" stroke="black" d="M73.74,-185.54C71.04,-179.08 68.38,-171.56 67,-164.43 60.78,-132.24 61.49,-94.56 63.15,-68.81"/>
<polygon fill="black" stroke="black" points="66.66,-68.78 63.9,-58.55 59.68,-68.27 66.66,-68.78"/>
<text text-anchor="middle" x="253.5" y="-115.43" font-family="Times,serif" font-size="20.00">https://sub.headers.websec.saarland</text>
</g>
<!-- SG_0_Node_16 -->
<g id="node17" class="node">
<title>SG_0_Node_16</title>
<ellipse fill="none" stroke="black" cx="462" cy="-37.21" rx="33.88" ry="21.43"/>
<text text-anchor="middle" x="462" y="-32.21" font-family="Times,serif" font-size="20.00">1.0</text>
</g>
<!-- SG_0_Node_7&#45;&gt;SG_0_Node_16 -->
<g id="edge16" class="edge">
<title>SG_0_Node_7&#45;&gt;SG_0_Node_16</title>
<path fill="none" stroke="black" d="M148.04,-199.84C245.63,-195.07 419.15,-183.94 440,-164.43 465.75,-140.33 468.04,-97.68 466.06,-68.69"/>
<polygon fill="black" stroke="black" points="469.54,-68.34 465.17,-58.69 462.57,-68.96 469.54,-68.34"/>
<text text-anchor="middle" x="673.5" y="-148.43" font-family="Times,serif" font-size="20.00">[NA]</text>
<text text-anchor="middle" x="673.5" y="-126.43" font-family="Times,serif" font-size="20.00">https://headers.webappsec.eu</text>
<text text-anchor="middle" x="673.5" y="-104.43" font-family="Times,serif" font-size="20.00">https://headers.websec.saarland</text>
<text text-anchor="middle" x="673.5" y="-82.43" font-family="Times,serif" font-size="20.00">https://sub.sub.headers.websec.saarland</text>
</g>
<!-- SG_1_Node_0 -->
<g id="node18" class="node">
<title>SG_1_Node_0</title>
<polygon fill="none" stroke="black" points="2501.5,-1402.56 2364.5,-1402.56 2364.5,-1366.56 2501.5,-1366.56 2501.5,-1402.56"/>
<text text-anchor="middle" x="2433" y="-1379.56" font-family="Times,serif" font-size="20.00">raw_header</text>
</g>
<!-- SG_1_Node_1 -->
<g id="node19" class="node">
<title>SG_1_Node_1</title>
<polygon fill="none" stroke="black" points="2337.5,-1107.35 2236.5,-1107.35 2236.5,-1071.35 2337.5,-1071.35 2337.5,-1107.35"/>
<text text-anchor="middle" x="2287" y="-1084.35" font-family="Times,serif" font-size="20.00">browser</text>
</g>
<!-- SG_1_Node_0&#45;&gt;SG_1_Node_1 -->
<g id="edge17" class="edge">
<title>SG_1_Node_0&#45;&gt;SG_1_Node_1</title>
<path fill="none" stroke="black" d="M2424.52,-1366.53C2400.08,-1317.44 2329.36,-1175.41 2300.01,-1116.47"/>
<polygon fill="black" stroke="black" points="2303.09,-1114.82 2295.5,-1107.42 2296.83,-1117.94 2303.09,-1114.82"/>
<text text-anchor="middle" x="2459.5" y="-1244.56" font-family="Times,serif" font-size="20.00">[NA]</text>
<text text-anchor="middle" x="2459.5" y="-1222.56" font-family="Times,serif" font-size="20.00">14 levels</text>
</g>
<!-- SG_1_Node_2 -->
<g id="node20" class="node">
<title>SG_1_Node_2</title>
<polygon fill="none" stroke="black" points="2820,-1107.35 2698,-1107.35 2698,-1071.35 2820,-1071.35 2820,-1107.35"/>
<text text-anchor="middle" x="2759" y="-1084.35" font-family="Times,serif" font-size="20.00">org_origin</text>
</g>
<!-- SG_1_Node_0&#45;&gt;SG_1_Node_2 -->
<g id="edge18" class="edge">
<title>SG_1_Node_0&#45;&gt;SG_1_Node_2</title>
<path fill="none" stroke="black" d="M2477.53,-1366.39C2488.27,-1361.36 2499.4,-1355.36 2509,-1348.56 2608.14,-1278.3 2701.11,-1165.52 2739.93,-1115.56"/>
<polygon fill="black" stroke="black" points="2742.78,-1117.6 2746.12,-1107.54 2737.24,-1113.32 2742.78,-1117.6"/>
<text text-anchor="middle" x="2969" y="-1332.56" font-family="Times,serif" font-size="20.00">[[&#39;Feature&#45;Policy&#39;, &quot;fullscreen &#39;self&#39;&quot;]]</text>
<text text-anchor="middle" x="2969" y="-1310.56" font-family="Times,serif" font-size="20.00">[[&#39;Feature&#45;Policy&#39;, &#39;fullscreen *&#39;]]</text>
<text text-anchor="middle" x="2969" y="-1288.56" font-family="Times,serif" font-size="20.00">[[&#39;Permissions&#45;Policy&#39;, &#39;*&#39;]]</text>
<text text-anchor="middle" x="2969" y="-1266.56" font-family="Times,serif" font-size="20.00">[[&#39;Permissions&#45;Policy&#39;, &#39;fullscreen=&#39;]]</text>
<text text-anchor="middle" x="2969" y="-1244.56" font-family="Times,serif" font-size="20.00">[[&#39;Permissions&#45;Policy&#39;, &#39;fullscreen=(self none)&#39;]]</text>
<text text-anchor="middle" x="2969" y="-1222.56" font-family="Times,serif" font-size="20.00">[[&#39;Permissions&#45;Policy&#39;, &#39;fullscreen=(self)&#39;]]</text>
<text text-anchor="middle" x="2969" y="-1200.56" font-family="Times,serif" font-size="20.00">[[&#39;Permissions&#45;Policy&#39;, &#39;fullscreen=(self,none)&#39;]]</text>
<text text-anchor="middle" x="2969" y="-1178.56" font-family="Times,serif" font-size="20.00">[[&#39;Permissions&#45;Policy&#39;, &#39;fullscreen=*&#39;]]</text>
<text text-anchor="middle" x="2969" y="-1156.56" font-family="Times,serif" font-size="20.00">[[&#39;Permissions&#45;Policy&#39;, &#39;null&#39;]]</text>
<text text-anchor="middle" x="2969" y="-1134.56" font-family="Times,serif" font-size="20.00">[]</text>
</g>
<!-- SG_1_Node_3 -->
<g id="node21" class="node">
<title>SG_1_Node_3</title>
<polygon fill="none" stroke="black" points="1929.5,-918.92 1792.5,-918.92 1792.5,-882.92 1929.5,-882.92 1929.5,-918.92"/>
<text text-anchor="middle" x="1861" y="-895.92" font-family="Times,serif" font-size="20.00">raw_header</text>
</g>
<!-- SG_1_Node_1&#45;&gt;SG_1_Node_3 -->
<g id="edge23" class="edge">
<title>SG_1_Node_1&#45;&gt;SG_1_Node_3</title>
<path fill="none" stroke="black" d="M2238.02,-1071.25C2220.54,-1064.91 2200.78,-1057.48 2183,-1050.13 2082.1,-1008.45 1966.42,-953.37 1904.89,-923.47"/>
<polygon fill="black" stroke="black" points="1906.38,-920.3 1895.86,-919.07 1903.32,-926.59 1906.38,-920.3"/>
<text text-anchor="middle" x="2228.5" y="-1001.13" font-family="Times,serif" font-size="20.00">[NA]</text>
<text text-anchor="middle" x="2228.5" y="-979.13" font-family="Times,serif" font-size="20.00">14 levels</text>
</g>
<!-- SG_1_Node_4 -->
<g id="node22" class="node">
<title>SG_1_Node_4</title>
<polygon fill="none" stroke="black" points="2643.5,-918.92 2506.5,-918.92 2506.5,-882.92 2643.5,-882.92 2643.5,-918.92"/>
<text text-anchor="middle" x="2575" y="-895.92" font-family="Times,serif" font-size="20.00">status_code</text>
</g>
<!-- SG_1_Node_1&#45;&gt;SG_1_Node_4 -->
<g id="edge24" class="edge">
<title>SG_1_Node_1&#45;&gt;SG_1_Node_4</title>
<path fill="none" stroke="black" d="M2283.24,-1070.87C2277.69,-1039.87 2271.38,-975.22 2306,-940.13 2331.89,-913.89 2426.45,-905.44 2496.18,-902.85"/>
<polygon fill="black" stroke="black" points="2496.39,-906.34 2506.27,-902.51 2496.16,-899.35 2496.39,-906.34"/>
<text text-anchor="middle" x="2530.5" y="-1034.13" font-family="Times,serif" font-size="20.00">firefox Ubuntu 22.04 119 selenium headless</text>
<text text-anchor="middle" x="2530.5" y="-1012.13" font-family="Times,serif" font-size="20.00">firefox Ubuntu 22.04 119 selenium xvfb</text>
<text text-anchor="middle" x="2530.5" y="-990.13" font-family="Times,serif" font-size="20.00">firefox macOS 14.0 119 selenium headless</text>
<text text-anchor="middle" x="2530.5" y="-968.13" font-family="Times,serif" font-size="20.00">firefox macOS 14.0 119 selenium real</text>
<text text-anchor="middle" x="2530.5" y="-946.13" font-family="Times,serif" font-size="20.00">safari macOS 14.0 17.0 selenium real</text>
</g>
<!-- SG_1_Node_5 -->
<g id="node23" class="node">
<title>SG_1_Node_5</title>
<polygon fill="none" stroke="black" points="2825,-918.92 2693,-918.92 2693,-882.92 2825,-882.92 2825,-918.92"/>
<text text-anchor="middle" x="2759" y="-895.92" font-family="Times,serif" font-size="20.00">resp_origin</text>
</g>
<!-- SG_1_Node_2&#45;&gt;SG_1_Node_5 -->
<g id="edge19" class="edge">
<title>SG_1_Node_2&#45;&gt;SG_1_Node_5</title>
<path fill="none" stroke="black" d="M2759,-1071.14C2759,-1038.68 2759,-968.16 2759,-929.18"/>
<polygon fill="black" stroke="black" points="2762.5,-929.08 2759,-919.08 2755.5,-929.08 2762.5,-929.08"/>
<text text-anchor="middle" x="2945.5" y="-990.13" font-family="Times,serif" font-size="20.00">https://sub.headers.websec.saarland</text>
</g>
<!-- SG_1_Node_9 -->
<g id="node24" class="node">
<title>SG_1_Node_9</title>
<ellipse fill="none" stroke="black" cx="3155" cy="-900.92" rx="33.88" ry="21.43"/>
<text text-anchor="middle" x="3155" y="-895.92" font-family="Times,serif" font-size="20.00">1.0</text>
</g>
<!-- SG_1_Node_2&#45;&gt;SG_1_Node_9 -->
<g id="edge20" class="edge">
<title>SG_1_Node_2&#45;&gt;SG_1_Node_9</title>
<path fill="none" stroke="black" d="M2820.25,-1086.14C2920.53,-1081.94 3110.88,-1071.27 3133,-1050.13 3164.4,-1020.13 3164.2,-966.24 3160.27,-932.36"/>
<polygon fill="black" stroke="black" points="3163.69,-931.57 3158.89,-922.12 3156.75,-932.5 3163.69,-931.57"/>
<text text-anchor="middle" x="3343.5" y="-1001.13" font-family="Times,serif" font-size="20.00">[NA]</text>
<text text-anchor="middle" x="3343.5" y="-979.13" font-family="Times,serif" font-size="20.00">http://sub.headers.websec.saarland</text>
</g>
<!-- SG_1_Node_10 -->
<g id="node25" class="node">
<title>SG_1_Node_10</title>
<ellipse fill="none" stroke="black" cx="1763" cy="-712.49" rx="33.88" ry="21.43"/>
<text text-anchor="middle" x="1763" y="-707.49" font-family="Times,serif" font-size="20.00">0.0</text>
</g>
<!-- SG_1_Node_3&#45;&gt;SG_1_Node_10 -->
<g id="edge31" class="edge">
<title>SG_1_Node_3&#45;&gt;SG_1_Node_10</title>
<path fill="none" stroke="black" d="M1792.25,-887.1C1779.18,-881.47 1767.08,-873.36 1759,-861.71 1734.78,-826.77 1743.47,-775.24 1752.69,-743.05"/>
<polygon fill="black" stroke="black" points="1756.09,-743.92 1755.66,-733.33 1749.39,-741.87 1756.09,-743.92"/>
<text text-anchor="middle" x="1804.5" y="-812.71" font-family="Times,serif" font-size="20.00">[NA]</text>
<text text-anchor="middle" x="1804.5" y="-790.71" font-family="Times,serif" font-size="20.00">13 levels</text>
</g>
<!-- SG_1_Node_6 -->
<g id="node26" class="node">
<title>SG_1_Node_6</title>
<polygon fill="none" stroke="black" points="1947,-730.49 1815,-730.49 1815,-694.49 1947,-694.49 1947,-730.49"/>
<text text-anchor="middle" x="1881" y="-707.49" font-family="Times,serif" font-size="20.00">resp_origin</text>
</g>
<!-- SG_1_Node_3&#45;&gt;SG_1_Node_6 -->
<g id="edge32" class="edge">
<title>SG_1_Node_3&#45;&gt;SG_1_Node_6</title>
<path fill="none" stroke="black" d="M1858.64,-882.73C1855.35,-854.79 1850.96,-798.01 1862,-751.71 1862.94,-747.76 1864.35,-743.76 1865.97,-739.91"/>
<polygon fill="black" stroke="black" points="1869.2,-741.27 1870.35,-730.74 1862.88,-738.26 1869.2,-741.27"/>
<text text-anchor="middle" x="2207.5" y="-801.71" font-family="Times,serif" font-size="20.00">[[&#39;Feature&#45;Policy&#39;, &#39;fullscreen https://sub.headers.websec.saarland&#39;]]</text>
</g>
<!-- SG_1_Node_11 -->
<g id="node27" class="node">
<title>SG_1_Node_11</title>
<ellipse fill="none" stroke="black" cx="2524" cy="-712.49" rx="33.88" ry="21.43"/>
<text text-anchor="middle" x="2524" y="-707.49" font-family="Times,serif" font-size="20.00">0.0</text>
</g>
<!-- SG_1_Node_4&#45;&gt;SG_1_Node_11 -->
<g id="edge25" class="edge">
<title>SG_1_Node_4&#45;&gt;SG_1_Node_11</title>
<path fill="none" stroke="black" d="M2575.17,-882.74C2574.88,-854.34 2571.76,-796.3 2553,-751.71 2551.24,-747.53 2548.93,-743.41 2546.37,-739.51"/>
<polygon fill="black" stroke="black" points="2549.18,-737.43 2540.49,-731.36 2543.51,-741.52 2549.18,-737.43"/>
<text text-anchor="middle" x="2593.5" y="-801.71" font-family="Times,serif" font-size="20.00">302</text>
</g>
<!-- SG_1_Node_7 -->
<g id="node28" class="node">
<title>SG_1_Node_7</title>
<polygon fill="none" stroke="black" points="2698,-730.49 2576,-730.49 2576,-694.49 2698,-694.49 2698,-730.49"/>
<text text-anchor="middle" x="2637" y="-707.49" font-family="Times,serif" font-size="20.00">org_origin</text>
</g>
<!-- SG_1_Node_4&#45;&gt;SG_1_Node_7 -->
<g id="edge26" class="edge">
<title>SG_1_Node_4&#45;&gt;SG_1_Node_7</title>
<path fill="none" stroke="black" d="M2598.21,-882.62C2604.63,-876.69 2610.94,-869.55 2615,-861.71 2635.01,-823.06 2638.26,-771.64 2638.11,-740.64"/>
<polygon fill="black" stroke="black" points="2641.61,-740.51 2637.94,-730.58 2634.61,-740.63 2641.61,-740.51"/>
<text text-anchor="middle" x="2661.5" y="-812.71" font-family="Times,serif" font-size="20.00">[NA]</text>
<text text-anchor="middle" x="2661.5" y="-790.71" font-family="Times,serif" font-size="20.00">200</text>
</g>
<!-- SG_1_Node_12 -->
<g id="node29" class="node">
<title>SG_1_Node_12</title>
<ellipse fill="none" stroke="black" cx="2750" cy="-712.49" rx="33.88" ry="21.43"/>
<text text-anchor="middle" x="2750" y="-707.49" font-family="Times,serif" font-size="20.00">0.0</text>
</g>
<!-- SG_1_Node_5&#45;&gt;SG_1_Node_12 -->
<g id="edge21" class="edge">
<title>SG_1_Node_5&#45;&gt;SG_1_Node_12</title>
<path fill="none" stroke="black" d="M2726.77,-882.8C2719.24,-877.15 2712.21,-870.12 2708,-861.71 2686.13,-817.98 2688.23,-796.42 2708,-751.71 2710.67,-745.67 2714.81,-740.18 2719.48,-735.36"/>
<polygon fill="black" stroke="black" points="2722.11,-737.7 2727.1,-728.36 2717.37,-732.54 2722.11,-737.7"/>
<text text-anchor="middle" x="2910.5" y="-834.71" font-family="Times,serif" font-size="20.00">http://headers.webappsec.eu</text>
<text text-anchor="middle" x="2910.5" y="-812.71" font-family="Times,serif" font-size="20.00">http://headers.websec.saarland</text>
<text text-anchor="middle" x="2910.5" y="-790.71" font-family="Times,serif" font-size="20.00">http://sub.headers.websec.saarland</text>
<text text-anchor="middle" x="2910.5" y="-768.71" font-family="Times,serif" font-size="20.00">http://sub.sub.headers.websec.saarland</text>
</g>
<!-- SG_1_Node_13 -->
<g id="node30" class="node">
<title>SG_1_Node_13</title>
<ellipse fill="none" stroke="black" cx="3135" cy="-712.49" rx="33.88" ry="21.43"/>
<text text-anchor="middle" x="3135" y="-707.49" font-family="Times,serif" font-size="20.00">1.0</text>
</g>
<!-- SG_1_Node_5&#45;&gt;SG_1_Node_13 -->
<g id="edge22" class="edge">
<title>SG_1_Node_5&#45;&gt;SG_1_Node_13</title>
<path fill="none" stroke="black" d="M2825.16,-897.09C2921.88,-892.32 3092.69,-881.22 3113,-861.71 3144.31,-831.62 3144.14,-777.75 3140.23,-743.9"/>
<polygon fill="black" stroke="black" points="3143.66,-743.12 3138.87,-733.68 3136.72,-744.05 3143.66,-743.12"/>
<text text-anchor="middle" x="3349.5" y="-845.71" font-family="Times,serif" font-size="20.00">[NA]</text>
<text text-anchor="middle" x="3349.5" y="-823.71" font-family="Times,serif" font-size="20.00">https://headers.webappsec.eu</text>
<text text-anchor="middle" x="3349.5" y="-801.71" font-family="Times,serif" font-size="20.00">https://headers.websec.saarland</text>
<text text-anchor="middle" x="3349.5" y="-779.71" font-family="Times,serif" font-size="20.00">https://sub.headers.websec.saarland</text>
<text text-anchor="middle" x="3349.5" y="-757.71" font-family="Times,serif" font-size="20.00">https://sub.sub.headers.websec.saarland</text>
</g>
<!-- SG_1_Node_14 -->
<g id="node31" class="node">
<title>SG_1_Node_14</title>
<ellipse fill="none" stroke="black" cx="1773" cy="-458.07" rx="33.88" ry="21.43"/>
<text text-anchor="middle" x="1773" y="-453.07" font-family="Times,serif" font-size="20.00">0.0</text>
</g>
<!-- SG_1_Node_6&#45;&gt;SG_1_Node_14 -->
<g id="edge33" class="edge">
<title>SG_1_Node_6&#45;&gt;SG_1_Node_14</title>
<path fill="none" stroke="black" d="M1836.73,-694.36C1826.67,-690.6 1816,-686.72 1806,-683.28 1791.91,-678.43 1782.85,-685.26 1774,-673.28 1733.71,-618.75 1750.3,-533.25 1763.18,-488.55"/>
<polygon fill="black" stroke="black" points="1766.56,-489.46 1766.1,-478.88 1759.86,-487.44 1766.56,-489.46"/>
<text text-anchor="middle" x="1981.5" y="-657.28" font-family="Times,serif" font-size="20.00">[NA]</text>
<text text-anchor="middle" x="1981.5" y="-635.28" font-family="Times,serif" font-size="20.00">http://headers.webappsec.eu</text>
<text text-anchor="middle" x="1981.5" y="-613.28" font-family="Times,serif" font-size="20.00">http://headers.websec.saarland</text>
<text text-anchor="middle" x="1981.5" y="-591.28" font-family="Times,serif" font-size="20.00">http://sub.headers.websec.saarland</text>
<text text-anchor="middle" x="1981.5" y="-569.28" font-family="Times,serif" font-size="20.00">http://sub.sub.headers.websec.saarland</text>
<text text-anchor="middle" x="1981.5" y="-547.28" font-family="Times,serif" font-size="20.00">https://headers.webappsec.eu</text>
<text text-anchor="middle" x="1981.5" y="-525.28" font-family="Times,serif" font-size="20.00">https://headers.websec.saarland</text>
<text text-anchor="middle" x="1981.5" y="-503.28" font-family="Times,serif" font-size="20.00">https://sub.sub.headers.websec.saarland</text>
</g>
<!-- SG_1_Node_15 -->
<g id="node32" class="node">
<title>SG_1_Node_15</title>
<ellipse fill="none" stroke="black" cx="2211" cy="-458.07" rx="33.88" ry="21.43"/>
<text text-anchor="middle" x="2211" y="-453.07" font-family="Times,serif" font-size="20.00">1.0</text>
</g>
<!-- SG_1_Node_6&#45;&gt;SG_1_Node_15 -->
<g id="edge34" class="edge">
<title>SG_1_Node_6&#45;&gt;SG_1_Node_15</title>
<path fill="none" stroke="black" d="M1947.21,-707.62C2032.66,-701.96 2172.39,-690.24 2189,-673.28 2236.92,-624.33 2227.52,-535.72 2218.3,-489.29"/>
<polygon fill="black" stroke="black" points="2221.66,-488.31 2216.17,-479.25 2214.82,-489.75 2221.66,-488.31"/>
<text text-anchor="middle" x="2411.5" y="-580.28" font-family="Times,serif" font-size="20.00">https://sub.headers.websec.saarland</text>
</g>
<!-- SG_1_Node_8 -->
<g id="node33" class="node">
<title>SG_1_Node_8</title>
<polygon fill="none" stroke="black" points="2693,-476.07 2561,-476.07 2561,-440.07 2693,-440.07 2693,-476.07"/>
<text text-anchor="middle" x="2627" y="-453.07" font-family="Times,serif" font-size="20.00">resp_origin</text>
</g>
<!-- SG_1_Node_7&#45;&gt;SG_1_Node_8 -->
<g id="edge27" class="edge">
<title>SG_1_Node_7&#45;&gt;SG_1_Node_8</title>
<path fill="none" stroke="black" d="M2632.04,-694.14C2630.41,-687.65 2628.82,-680.18 2628,-673.28 2620.08,-606.47 2622.85,-527.1 2625.16,-486.3"/>
<polygon fill="black" stroke="black" points="2628.67,-486.28 2625.78,-476.09 2621.68,-485.86 2628.67,-486.28"/>
<text text-anchor="middle" x="2814.5" y="-580.28" font-family="Times,serif" font-size="20.00">https://sub.headers.websec.saarland</text>
</g>
<!-- SG_1_Node_16 -->
<g id="node34" class="node">
<title>SG_1_Node_16</title>
<ellipse fill="none" stroke="black" cx="3023" cy="-458.07" rx="33.88" ry="21.43"/>
<text text-anchor="middle" x="3023" y="-453.07" font-family="Times,serif" font-size="20.00">1.0</text>
</g>
<!-- SG_1_Node_7&#45;&gt;SG_1_Node_16 -->
<g id="edge28" class="edge">
<title>SG_1_Node_7&#45;&gt;SG_1_Node_16</title>
<path fill="none" stroke="black" d="M2672.58,-694.37C2683.39,-689.93 2695.46,-685.72 2707,-683.28 2722.99,-679.9 2989.06,-684.43 3001,-673.28 3051.3,-626.31 3040.64,-536.13 3030.68,-489.17"/>
<polygon fill="black" stroke="black" points="3034.06,-488.28 3028.45,-479.29 3027.23,-489.81 3034.06,-488.28"/>
<text text-anchor="middle" x="3220.5" y="-591.28" font-family="Times,serif" font-size="20.00">[NA]</text>
<text text-anchor="middle" x="3220.5" y="-569.28" font-family="Times,serif" font-size="20.00">http://sub.headers.websec.saarland</text>
</g>
<!-- SG_1_Node_17 -->
<g id="node35" class="node">
<title>SG_1_Node_17</title>
<ellipse fill="none" stroke="black" cx="2413" cy="-203.64" rx="33.88" ry="21.43"/>
<text text-anchor="middle" x="2413" y="-198.64" font-family="Times,serif" font-size="20.00">0.0</text>
</g>
<!-- SG_1_Node_8&#45;&gt;SG_1_Node_17 -->
<g id="edge29" class="edge">
<title>SG_1_Node_8&#45;&gt;SG_1_Node_17</title>
<path fill="none" stroke="black" d="M2560.83,-454.21C2505.44,-450.27 2432.55,-440.93 2414,-418.85 2370.17,-366.71 2388.54,-279.54 2402.55,-234.14"/>
<polygon fill="black" stroke="black" points="2405.89,-235.18 2405.62,-224.59 2399.23,-233.04 2405.89,-235.18"/>
<text text-anchor="middle" x="2616.5" y="-358.85" font-family="Times,serif" font-size="20.00">http://headers.webappsec.eu</text>
<text text-anchor="middle" x="2616.5" y="-336.85" font-family="Times,serif" font-size="20.00">http://headers.websec.saarland</text>
<text text-anchor="middle" x="2616.5" y="-314.85" font-family="Times,serif" font-size="20.00">http://sub.headers.websec.saarland</text>
<text text-anchor="middle" x="2616.5" y="-292.85" font-family="Times,serif" font-size="20.00">http://sub.sub.headers.websec.saarland</text>
</g>
<!-- SG_1_Node_18 -->
<g id="node36" class="node">
<title>SG_1_Node_18</title>
<ellipse fill="none" stroke="black" cx="2841" cy="-203.64" rx="33.88" ry="21.43"/>
<text text-anchor="middle" x="2841" y="-198.64" font-family="Times,serif" font-size="20.00">1.0</text>
</g>
<!-- SG_1_Node_8&#45;&gt;SG_1_Node_18 -->
<g id="edge30" class="edge">
<title>SG_1_Node_8&#45;&gt;SG_1_Node_18</title>
<path fill="none" stroke="black" d="M2693.14,-452.18C2741.79,-447.12 2802.24,-437.27 2819,-418.85 2864.99,-368.32 2856.53,-280.76 2847.92,-234.8"/>
<polygon fill="black" stroke="black" points="2851.32,-233.97 2845.93,-224.85 2844.46,-235.34 2851.32,-233.97"/>
<text text-anchor="middle" x="3061.5" y="-369.85" font-family="Times,serif" font-size="20.00">[NA]</text>
<text text-anchor="middle" x="3061.5" y="-347.85" font-family="Times,serif" font-size="20.00">https://headers.webappsec.eu</text>
<text text-anchor="middle" x="3061.5" y="-325.85" font-family="Times,serif" font-size="20.00">https://headers.websec.saarland</text>
<text text-anchor="middle" x="3061.5" y="-303.85" font-family="Times,serif" font-size="20.00">https://sub.headers.websec.saarland</text>
<text text-anchor="middle" x="3061.5" y="-281.85" font-family="Times,serif" font-size="20.00">https://sub.sub.headers.websec.saarland</text>
</g>
<!-- SG_2_Node_0 -->
<g id="node37" class="node">
<title>SG_2_Node_0</title>
<polygon fill="none" stroke="black" points="3906,-1402.56 3784,-1402.56 3784,-1366.56 3906,-1366.56 3906,-1402.56"/>
<text text-anchor="middle" x="3845" y="-1379.56" font-family="Times,serif" font-size="20.00">org_origin</text>
</g>
<!-- SG_2_Node_1 -->
<g id="node38" class="node">
<title>SG_2_Node_1</title>
<polygon fill="none" stroke="black" points="3720.5,-1107.35 3583.5,-1107.35 3583.5,-1071.35 3720.5,-1071.35 3720.5,-1107.35"/>
<text text-anchor="middle" x="3652" y="-1084.35" font-family="Times,serif" font-size="20.00">status_code</text>
</g>
<!-- SG_2_Node_0&#45;&gt;SG_2_Node_1 -->
<g id="edge35" class="edge">
<title>SG_2_Node_0&#45;&gt;SG_2_Node_1</title>
<path fill="none" stroke="black" d="M3783.87,-1380.7C3734.12,-1376.94 3669.53,-1368.3 3653,-1348.56 3597.39,-1282.16 3625.14,-1168.93 3642.11,-1117.36"/>
<polygon fill="black" stroke="black" points="3645.52,-1118.21 3645.43,-1107.61 3638.89,-1115.95 3645.52,-1118.21"/>
<text text-anchor="middle" x="3834.5" y="-1233.56" font-family="Times,serif" font-size="20.00">http://sub.headers.websec.saarland</text>
</g>
<!-- SG_2_Node_2 -->
<g id="node39" class="node">
<title>SG_2_Node_2</title>
<polygon fill="none" stroke="black" points="4104,-1107.35 3972,-1107.35 3972,-1071.35 4104,-1071.35 4104,-1107.35"/>
<text text-anchor="middle" x="4038" y="-1084.35" font-family="Times,serif" font-size="20.00">resp_origin</text>
</g>
<!-- SG_2_Node_0&#45;&gt;SG_2_Node_2 -->
<g id="edge36" class="edge">
<title>SG_2_Node_0&#45;&gt;SG_2_Node_2</title>
<path fill="none" stroke="black" d="M3906.23,-1378.68C3949.21,-1373.9 4001.5,-1364.86 4016,-1348.56 4073.91,-1283.46 4056.79,-1169.09 4045.02,-1117.24"/>
<polygon fill="black" stroke="black" points="4048.41,-1116.37 4042.69,-1107.46 4041.6,-1117.99 4048.41,-1116.37"/>
<text text-anchor="middle" x="4242.5" y="-1244.56" font-family="Times,serif" font-size="20.00">[NA]</text>
<text text-anchor="middle" x="4242.5" y="-1222.56" font-family="Times,serif" font-size="20.00">https://sub.headers.websec.saarland</text>
</g>
<!-- SG_2_Node_4 -->
<g id="node40" class="node">
<title>SG_2_Node_4</title>
<ellipse fill="none" stroke="black" cx="3608" cy="-900.92" rx="33.88" ry="21.43"/>
<text text-anchor="middle" x="3608" y="-895.92" font-family="Times,serif" font-size="20.00">0.0</text>
</g>
<!-- SG_2_Node_1&#45;&gt;SG_2_Node_4 -->
<g id="edge41" class="edge">
<title>SG_2_Node_1&#45;&gt;SG_2_Node_4</title>
<path fill="none" stroke="black" d="M3616.72,-1071.29C3608.83,-1065.71 3601.47,-1058.68 3597,-1050.13 3577.56,-1012.95 3587.25,-963.2 3596.92,-931.85"/>
<polygon fill="black" stroke="black" points="3600.37,-932.56 3600.15,-921.97 3593.71,-930.39 3600.37,-932.56"/>
<text text-anchor="middle" x="3620.5" y="-1001.13" font-family="Times,serif" font-size="20.00">[NA]</text>
<text text-anchor="middle" x="3620.5" y="-979.13" font-family="Times,serif" font-size="20.00">200</text>
</g>
<!-- SG_2_Node_5 -->
<g id="node41" class="node">
<title>SG_2_Node_5</title>
<ellipse fill="none" stroke="black" cx="3694" cy="-900.92" rx="33.88" ry="21.43"/>
<text text-anchor="middle" x="3694" y="-895.92" font-family="Times,serif" font-size="20.00">1.0</text>
</g>
<!-- SG_2_Node_1&#45;&gt;SG_2_Node_5 -->
<g id="edge42" class="edge">
<title>SG_2_Node_1&#45;&gt;SG_2_Node_5</title>
<path fill="none" stroke="black" d="M3650.05,-1071.17C3647.51,-1042.77 3645.3,-984.74 3663,-940.13 3664.8,-935.61 3667.33,-931.2 3670.18,-927.09"/>
<polygon fill="black" stroke="black" points="3673,-929.16 3676.35,-919.11 3667.47,-924.88 3673,-929.16"/>
<text text-anchor="middle" x="3682.5" y="-990.13" font-family="Times,serif" font-size="20.00">302</text>
</g>
<!-- SG_2_Node_3 -->
<g id="node42" class="node">
<title>SG_2_Node_3</title>
<polygon fill="none" stroke="black" points="3882.5,-918.92 3745.5,-918.92 3745.5,-882.92 3882.5,-882.92 3882.5,-918.92"/>
<text text-anchor="middle" x="3814" y="-895.92" font-family="Times,serif" font-size="20.00">status_code</text>
</g>
<!-- SG_2_Node_2&#45;&gt;SG_2_Node_3 -->
<g id="edge37" class="edge">
<title>SG_2_Node_2&#45;&gt;SG_2_Node_3</title>
<path fill="none" stroke="black" d="M3971.83,-1084.98C3883.82,-1079.82 3737.34,-1068.56 3721,-1050.13 3704.78,-1031.84 3707.39,-960.44 3721,-940.13 3725.14,-933.95 3730.48,-928.77 3736.51,-924.43"/>
<polygon fill="black" stroke="black" points="3738.51,-927.3 3745.1,-919.01 3734.78,-921.38 3738.51,-927.3"/>
<text text-anchor="middle" x="3928.5" y="-1023.13" font-family="Times,serif" font-size="20.00">https://headers.webappsec.eu</text>
<text text-anchor="middle" x="3928.5" y="-1001.13" font-family="Times,serif" font-size="20.00">https://headers.websec.saarland</text>
<text text-anchor="middle" x="3928.5" y="-979.13" font-family="Times,serif" font-size="20.00">https://sub.headers.websec.saarland</text>
<text text-anchor="middle" x="3928.5" y="-957.13" font-family="Times,serif" font-size="20.00">https://sub.sub.headers.websec.saarland</text>
</g>
<!-- SG_2_Node_6 -->
<g id="node43" class="node">
<title>SG_2_Node_6</title>
<ellipse fill="none" stroke="black" cx="4162" cy="-900.92" rx="33.88" ry="21.43"/>
<text text-anchor="middle" x="4162" y="-895.92" font-family="Times,serif" font-size="20.00">1.0</text>
</g>
<!-- SG_2_Node_2&#45;&gt;SG_2_Node_6 -->
<g id="edge38" class="edge">
<title>SG_2_Node_2&#45;&gt;SG_2_Node_6</title>
<path fill="none" stroke="black" d="M4104.18,-1075.14C4117.8,-1069.53 4130.79,-1061.53 4140,-1050.13 4166.89,-1016.87 4168.31,-965.2 4165.89,-932.48"/>
<polygon fill="black" stroke="black" points="4169.35,-931.81 4164.95,-922.17 4162.37,-932.45 4169.35,-931.81"/>
<text text-anchor="middle" x="4368.5" y="-1034.13" font-family="Times,serif" font-size="20.00">[NA]</text>
<text text-anchor="middle" x="4368.5" y="-1012.13" font-family="Times,serif" font-size="20.00">http://headers.webappsec.eu</text>
<text text-anchor="middle" x="4368.5" y="-990.13" font-family="Times,serif" font-size="20.00">http://headers.websec.saarland</text>
<text text-anchor="middle" x="4368.5" y="-968.13" font-family="Times,serif" font-size="20.00">http://sub.headers.websec.saarland</text>
<text text-anchor="middle" x="4368.5" y="-946.13" font-family="Times,serif" font-size="20.00">http://sub.sub.headers.websec.saarland</text>
</g>
<!-- SG_2_Node_7 -->
<g id="node44" class="node">
<title>SG_2_Node_7</title>
<ellipse fill="none" stroke="black" cx="3773" cy="-712.49" rx="33.88" ry="21.43"/>
<text text-anchor="middle" x="3773" y="-707.49" font-family="Times,serif" font-size="20.00">0.0</text>
</g>
<!-- SG_2_Node_3&#45;&gt;SG_2_Node_7 -->
<g id="edge39" class="edge">
<title>SG_2_Node_3&#45;&gt;SG_2_Node_7</title>
<path fill="none" stroke="black" d="M3795.73,-882.84C3790.34,-876.73 3785.07,-869.42 3782,-861.71 3766.73,-823.36 3767.04,-775 3769.42,-744.15"/>
<polygon fill="black" stroke="black" points="3772.92,-744.29 3770.32,-734.02 3765.95,-743.67 3772.92,-744.29"/>
<text text-anchor="middle" x="3805.5" y="-812.71" font-family="Times,serif" font-size="20.00">[NA]</text>
<text text-anchor="middle" x="3805.5" y="-790.71" font-family="Times,serif" font-size="20.00">200</text>
</g>
<!-- SG_2_Node_8 -->
<g id="node45" class="node">
<title>SG_2_Node_8</title>
<ellipse fill="none" stroke="black" cx="3859" cy="-712.49" rx="33.88" ry="21.43"/>
<text text-anchor="middle" x="3859" y="-707.49" font-family="Times,serif" font-size="20.00">1.0</text>
</g>
<!-- SG_2_Node_3&#45;&gt;SG_2_Node_8 -->
<g id="edge40" class="edge">
<title>SG_2_Node_3&#45;&gt;SG_2_Node_8</title>
<path fill="none" stroke="black" d="M3821.52,-882.64C3824.14,-876.16 3826.94,-868.68 3829,-861.71 3840.83,-821.61 3849.55,-774.06 3854.45,-743.83"/>
<polygon fill="black" stroke="black" points="3857.92,-744.33 3856.02,-733.9 3851,-743.23 3857.92,-744.33"/>
<text text-anchor="middle" x="3871.5" y="-801.71" font-family="Times,serif" font-size="20.00">302</text>
</g>
</g>
</svg>
