<?xml version="1.0" encoding="UTF-8" standalone="no"?>
<!DOCTYPE svg PUBLIC "-//W3C//DTD SVG 1.1//EN"
 "http://www.w3.org/Graphics/SVG/1.1/DTD/svg11.dtd">
<!-- Generated by graphviz version 2.43.0 (0)
 -->
<!-- Title: G Pages: 1 -->
<svg width="1457pt" height="250pt"
 viewBox="0.00 0.00 1457.00 250.43" xmlns="http://www.w3.org/2000/svg" xmlns:xlink="http://www.w3.org/1999/xlink">
<g id="graph0" class="graph" transform="scale(1 1) rotate(0) translate(4 246.43)">
<title>G</title>
<polygon fill="white" stroke="transparent" points="-4,4 -4,-246.43 1453,-246.43 1453,4 -4,4"/>
<g id="clust1" class="cluster">
<title>cluster_0</title>
<polygon fill="none" stroke="black" points="8,-8 8,-234.43 793,-234.43 793,-8 8,-8"/>
<text text-anchor="middle" x="400.5" y="-198.43" font-family="Times,serif" font-size="40.00">Tree 0, Class fullscreenEnabled: false</text>
</g>
<g id="clust4" class="cluster">
<title>cluster_1</title>
<polygon fill="none" stroke="black" points="801,-8 801,-234.43 1441,-234.43 1441,-8 801,-8"/>
<text text-anchor="middle" x="1121" y="-198.43" font-family="Times,serif" font-size="40.00">Tree 0, Class message timeout</text>
</g>
<!-- SG_0_Node_0 -->
<g id="node1" class="node">
<title>SG_0_Node_0</title>
<polygon fill="none" stroke="black" points="166.5,-174.43 29.5,-174.43 29.5,-138.43 166.5,-138.43 166.5,-174.43"/>
<text text-anchor="middle" x="98" y="-151.43" font-family="Times,serif" font-size="20.00">status_code</text>
</g>
<!-- SG_0_Node_2 -->
<g id="node2" class="node">
<title>SG_0_Node_2</title>
<ellipse fill="none" stroke="black" cx="74" cy="-37.21" rx="33.88" ry="21.43"/>
<text text-anchor="middle" x="74" y="-32.21" font-family="Times,serif" font-size="20.00">0.0</text>
</g>
<!-- SG_0_Node_0&#45;&gt;SG_0_Node_2 -->
<g id="edge1" class="edge">
<title>SG_0_Node_0&#45;&gt;SG_0_Node_2</title>
<path fill="none" stroke="black" d="M94.51,-138.38C90.76,-120.08 84.73,-90.62 80.18,-68.38"/>
<polygon fill="black" stroke="black" points="83.57,-67.52 78.14,-58.43 76.72,-68.93 83.57,-67.52"/>
<text text-anchor="middle" x="109.5" y="-93.43" font-family="Times,serif" font-size="20.00">302</text>
</g>
<!-- SG_0_Node_3 -->
<g id="node3" class="node">
<title>SG_0_Node_3</title>
<ellipse fill="none" stroke="black" cx="160" cy="-37.21" rx="33.88" ry="21.43"/>
<text text-anchor="middle" x="160" y="-32.21" font-family="Times,serif" font-size="20.00">0.5</text>
</g>
<!-- SG_0_Node_0&#45;&gt;SG_0_Node_3 -->
<g id="edge2" class="edge">
<title>SG_0_Node_0&#45;&gt;SG_0_Node_3</title>
<path fill="none" stroke="black" d="M117.68,-138.2C122.87,-132.91 128.11,-126.78 132,-120.43 141.76,-104.5 148.63,-84.74 153.12,-68.58"/>
<polygon fill="black" stroke="black" points="156.6,-69.12 155.73,-58.56 149.82,-67.35 156.6,-69.12"/>
<text text-anchor="middle" x="173.5" y="-104.43" font-family="Times,serif" font-size="20.00">[NA]</text>
<text text-anchor="middle" x="173.5" y="-82.43" font-family="Times,serif" font-size="20.00">200</text>
</g>
<!-- SG_1_Node_0 -->
<g id="node4" class="node">
<title>SG_1_Node_0</title>
<polygon fill="none" stroke="black" points="963.5,-174.43 826.5,-174.43 826.5,-138.43 963.5,-138.43 963.5,-174.43"/>
<text text-anchor="middle" x="895" y="-151.43" font-family="Times,serif" font-size="20.00">status_code</text>
</g>
<!-- SG_1_Node_2 -->
<g id="node5" class="node">
<title>SG_1_Node_2</title>
<ellipse fill="none" stroke="black" cx="869" cy="-37.21" rx="33.88" ry="21.43"/>
<text text-anchor="middle" x="869" y="-32.21" font-family="Times,serif" font-size="20.00">0.5</text>
</g>
<!-- SG_1_Node_0&#45;&gt;SG_1_Node_2 -->
<g id="edge3" class="edge">
<title>SG_1_Node_0&#45;&gt;SG_1_Node_2</title>
<path fill="none" stroke="black" d="M887.83,-138.2C885.71,-132.61 883.54,-126.32 882,-120.43 877.6,-103.62 874.46,-84.46 872.37,-68.87"/>
<polygon fill="black" stroke="black" points="875.82,-68.2 871.09,-58.72 868.87,-69.08 875.82,-68.2"/>
<text text-anchor="middle" x="905.5" y="-104.43" font-family="Times,serif" font-size="20.00">[NA]</text>
<text text-anchor="middle" x="905.5" y="-82.43" font-family="Times,serif" font-size="20.00">200</text>
</g>
<!-- SG_1_Node_3 -->
<g id="node6" class="node">
<title>SG_1_Node_3</title>
<ellipse fill="none" stroke="black" cx="955" cy="-37.21" rx="33.88" ry="21.43"/>
<text text-anchor="middle" x="955" y="-32.21" font-family="Times,serif" font-size="20.00">1.0</text>
</g>
<!-- SG_1_Node_0&#45;&gt;SG_1_Node_3 -->
<g id="edge4" class="edge">
<title>SG_1_Node_0&#45;&gt;SG_1_Node_3</title>
<path fill="none" stroke="black" d="M914.77,-138.26C919.96,-132.96 925.18,-126.83 929,-120.43 938.51,-104.51 944.91,-84.75 948.97,-68.59"/>
<polygon fill="black" stroke="black" points="952.45,-69.1 951.32,-58.57 945.63,-67.51 952.45,-69.1"/>
<text text-anchor="middle" x="965.5" y="-93.43" font-family="Times,serif" font-size="20.00">302</text>
</g>
</g>
</svg>
