<?xml version="1.0" encoding="UTF-8" standalone="no"?>
<!DOCTYPE svg PUBLIC "-//W3C//DTD SVG 1.1//EN"
 "http://www.w3.org/Graphics/SVG/1.1/DTD/svg11.dtd">
<!-- Generated by graphviz version 2.43.0 (0)
 -->
<!-- Title: G Pages: 1 -->
<svg width="2948pt" height="816pt"
 viewBox="0.00 0.00 2948.00 815.71" xmlns="http://www.w3.org/2000/svg" xmlns:xlink="http://www.w3.org/1999/xlink">
<g id="graph0" class="graph" transform="scale(1 1) rotate(0) translate(4 811.71)">
<title>G</title>
<polygon fill="white" stroke="transparent" points="-4,4 -4,-811.71 2944,-811.71 2944,4 -4,4"/>
<g id="clust1" class="cluster">
<title>cluster_0</title>
<polygon fill="none" stroke="black" points="8,-196.43 8,-799.71 885,-799.71 885,-196.43 8,-196.43"/>
<text text-anchor="middle" x="446.5" y="-763.71" font-family="Times,serif" font-size="40.00">Tree 0, Class message timeout</text>
</g>
<g id="clust6" class="cluster">
<title>cluster_1</title>
<polygon fill="none" stroke="black" points="893,-8 893,-799.71 1849,-799.71 1849,-8 893,-8"/>
<text text-anchor="middle" x="1371" y="-763.71" font-family="Times,serif" font-size="40.00">Tree 0, Class window.originAgentCluster: true</text>
</g>
<g id="clust12" class="cluster">
<title>cluster_2</title>
<polygon fill="none" stroke="black" points="1857,-8 1857,-799.71 2932,-799.71 2932,-8 1857,-8"/>
<text text-anchor="middle" x="2394.5" y="-763.71" font-family="Times,serif" font-size="40.00">Tree 0, Class window.originAgentCluster: undefined</text>
</g>
<!-- SG_0_Node_0 -->
<g id="node1" class="node">
<title>SG_0_Node_0</title>
<polygon fill="none" stroke="black" points="184.5,-739.71 47.5,-739.71 47.5,-703.71 184.5,-703.71 184.5,-739.71"/>
<text text-anchor="middle" x="116" y="-716.71" font-family="Times,serif" font-size="20.00">status_code</text>
</g>
<!-- SG_0_Node_1 -->
<g id="node2" class="node">
<title>SG_0_Node_1</title>
<polygon fill="none" stroke="black" points="157,-554.49 35,-554.49 35,-518.49 157,-518.49 157,-554.49"/>
<text text-anchor="middle" x="96" y="-531.49" font-family="Times,serif" font-size="20.00">org_origin</text>
</g>
<!-- SG_0_Node_0&#45;&gt;SG_0_Node_1 -->
<g id="edge1" class="edge">
<title>SG_0_Node_0&#45;&gt;SG_0_Node_1</title>
<path fill="none" stroke="black" d="M114.12,-703.47C110.64,-671.61 103.18,-603.26 99,-564.95"/>
<polygon fill="black" stroke="black" points="102.43,-564.11 97.86,-554.55 95.47,-564.87 102.43,-564.11"/>
<text text-anchor="middle" x="135.5" y="-636.71" font-family="Times,serif" font-size="20.00">[NA]</text>
<text text-anchor="middle" x="135.5" y="-614.71" font-family="Times,serif" font-size="20.00">200</text>
</g>
<!-- SG_0_Node_3 -->
<g id="node3" class="node">
<title>SG_0_Node_3</title>
<ellipse fill="none" stroke="black" cx="209" cy="-536.49" rx="33.88" ry="21.43"/>
<text text-anchor="middle" x="209" y="-531.49" font-family="Times,serif" font-size="20.00">1.0</text>
</g>
<!-- SG_0_Node_0&#45;&gt;SG_0_Node_3 -->
<g id="edge2" class="edge">
<title>SG_0_Node_0&#45;&gt;SG_0_Node_3</title>
<path fill="none" stroke="black" d="M144.94,-703.62C151.63,-698.55 158.18,-692.52 163,-685.71 188.38,-649.84 200.09,-599.53 205.25,-567.73"/>
<polygon fill="black" stroke="black" points="208.73,-568.11 206.76,-557.7 201.81,-567.07 208.73,-568.11"/>
<text text-anchor="middle" x="222.5" y="-625.71" font-family="Times,serif" font-size="20.00">302</text>
</g>
<!-- SG_0_Node_4 -->
<g id="node4" class="node">
<title>SG_0_Node_4</title>
<ellipse fill="none" stroke="black" cx="68" cy="-414.07" rx="33.88" ry="21.43"/>
<text text-anchor="middle" x="68" y="-409.07" font-family="Times,serif" font-size="20.00">0.0</text>
</g>
<!-- SG_0_Node_1&#45;&gt;SG_0_Node_4 -->
<g id="edge3" class="edge">
<title>SG_0_Node_1&#45;&gt;SG_0_Node_4</title>
<path fill="none" stroke="black" d="M80.65,-518.45C75.99,-512.23 71.46,-504.85 69,-497.28 63.63,-480.73 63.15,-461.31 64.12,-445.49"/>
<polygon fill="black" stroke="black" points="67.63,-445.46 64.97,-435.2 60.66,-444.88 67.63,-445.46"/>
<text text-anchor="middle" x="250.5" y="-470.28" font-family="Times,serif" font-size="20.00">http://sub.headers.websec.saarland</text>
</g>
<!-- SG_0_Node_2 -->
<g id="node5" class="node">
<title>SG_0_Node_2</title>
<polygon fill="none" stroke="black" points="520,-432.07 388,-432.07 388,-396.07 520,-396.07 520,-432.07"/>
<text text-anchor="middle" x="454" y="-409.07" font-family="Times,serif" font-size="20.00">resp_origin</text>
</g>
<!-- SG_0_Node_1&#45;&gt;SG_0_Node_2 -->
<g id="edge4" class="edge">
<title>SG_0_Node_1&#45;&gt;SG_0_Node_2</title>
<path fill="none" stroke="black" d="M150.76,-518.48C155.88,-517.25 161.02,-516.16 166,-515.28 195.17,-510.14 409.12,-516.1 432,-497.28 447.93,-484.17 453.03,-460.91 454.37,-442.47"/>
<polygon fill="black" stroke="black" points="457.88,-442.42 454.78,-432.28 450.88,-442.13 457.88,-442.42"/>
<text text-anchor="middle" x="639.5" y="-481.28" font-family="Times,serif" font-size="20.00">[NA]</text>
<text text-anchor="middle" x="639.5" y="-459.28" font-family="Times,serif" font-size="20.00">https://sub.headers.websec.saarland</text>
</g>
<!-- SG_0_Node_5 -->
<g id="node6" class="node">
<title>SG_0_Node_5</title>
<ellipse fill="none" stroke="black" cx="50" cy="-225.64" rx="33.88" ry="21.43"/>
<text text-anchor="middle" x="50" y="-220.64" font-family="Times,serif" font-size="20.00">0.0</text>
</g>
<!-- SG_0_Node_2&#45;&gt;SG_0_Node_5 -->
<g id="edge5" class="edge">
<title>SG_0_Node_2&#45;&gt;SG_0_Node_5</title>
<path fill="none" stroke="black" d="M387.62,-409.29C273.14,-402.46 49.61,-387.58 38,-374.85 8.75,-342.79 23.09,-288.93 36.38,-255.72"/>
<polygon fill="black" stroke="black" points="39.77,-256.7 40.43,-246.12 33.32,-253.98 39.77,-256.7"/>
<text text-anchor="middle" x="245.5" y="-347.85" font-family="Times,serif" font-size="20.00">https://headers.webappsec.eu</text>
<text text-anchor="middle" x="245.5" y="-325.85" font-family="Times,serif" font-size="20.00">https://headers.websec.saarland</text>
<text text-anchor="middle" x="245.5" y="-303.85" font-family="Times,serif" font-size="20.00">https://sub.headers.websec.saarland</text>
<text text-anchor="middle" x="245.5" y="-281.85" font-family="Times,serif" font-size="20.00">https://sub.sub.headers.websec.saarland</text>
</g>
<!-- SG_0_Node_6 -->
<g id="node7" class="node">
<title>SG_0_Node_6</title>
<ellipse fill="none" stroke="black" cx="472" cy="-225.64" rx="33.88" ry="21.43"/>
<text text-anchor="middle" x="472" y="-220.64" font-family="Times,serif" font-size="20.00">1.0</text>
</g>
<!-- SG_0_Node_2&#45;&gt;SG_0_Node_6 -->
<g id="edge6" class="edge">
<title>SG_0_Node_2&#45;&gt;SG_0_Node_6</title>
<path fill="none" stroke="black" d="M455.66,-395.86C458.71,-364.24 465.25,-296.5 469.07,-256.99"/>
<polygon fill="black" stroke="black" points="472.57,-257.17 470.05,-246.88 465.6,-256.5 472.57,-257.17"/>
<text text-anchor="middle" x="670.5" y="-358.85" font-family="Times,serif" font-size="20.00">[NA]</text>
<text text-anchor="middle" x="670.5" y="-336.85" font-family="Times,serif" font-size="20.00">http://headers.webappsec.eu</text>
<text text-anchor="middle" x="670.5" y="-314.85" font-family="Times,serif" font-size="20.00">http://headers.websec.saarland</text>
<text text-anchor="middle" x="670.5" y="-292.85" font-family="Times,serif" font-size="20.00">http://sub.headers.websec.saarland</text>
<text text-anchor="middle" x="670.5" y="-270.85" font-family="Times,serif" font-size="20.00">http://sub.sub.headers.websec.saarland</text>
</g>
<!-- SG_1_Node_0 -->
<g id="node8" class="node">
<title>SG_1_Node_0</title>
<polygon fill="none" stroke="black" points="1229.5,-739.71 1128.5,-739.71 1128.5,-703.71 1229.5,-703.71 1229.5,-739.71"/>
<text text-anchor="middle" x="1179" y="-716.71" font-family="Times,serif" font-size="20.00">browser</text>
</g>
<!-- SG_1_Node_4 -->
<g id="node9" class="node">
<title>SG_1_Node_4</title>
<ellipse fill="none" stroke="black" cx="970" cy="-536.49" rx="33.88" ry="21.43"/>
<text text-anchor="middle" x="970" y="-531.49" font-family="Times,serif" font-size="20.00">0.0</text>
</g>
<!-- SG_1_Node_0&#45;&gt;SG_1_Node_4 -->
<g id="edge7" class="edge">
<title>SG_1_Node_0&#45;&gt;SG_1_Node_4</title>
<path fill="none" stroke="black" d="M1128.25,-719.4C1073.3,-716.79 990.82,-708.98 971,-685.71 943.23,-653.09 951.15,-600.21 960.09,-567.22"/>
<polygon fill="black" stroke="black" points="963.56,-567.84 962.99,-557.26 956.84,-565.89 963.56,-567.84"/>
<text text-anchor="middle" x="1195.5" y="-669.71" font-family="Times,serif" font-size="20.00">firefox Ubuntu 22.04 119 selenium headless</text>
<text text-anchor="middle" x="1195.5" y="-647.71" font-family="Times,serif" font-size="20.00">firefox Ubuntu 22.04 119 selenium xvfb</text>
<text text-anchor="middle" x="1195.5" y="-625.71" font-family="Times,serif" font-size="20.00">firefox macOS 14.0 119 selenium headless</text>
<text text-anchor="middle" x="1195.5" y="-603.71" font-family="Times,serif" font-size="20.00">firefox macOS 14.0 119 selenium real</text>
<text text-anchor="middle" x="1195.5" y="-581.71" font-family="Times,serif" font-size="20.00">safari macOS 14.0 17.0 selenium real</text>
</g>
<!-- SG_1_Node_1 -->
<g id="node10" class="node">
<title>SG_1_Node_1</title>
<polygon fill="none" stroke="black" points="1510.5,-554.49 1373.5,-554.49 1373.5,-518.49 1510.5,-518.49 1510.5,-554.49"/>
<text text-anchor="middle" x="1442" y="-531.49" font-family="Times,serif" font-size="20.00">status_code</text>
</g>
<!-- SG_1_Node_0&#45;&gt;SG_1_Node_1 -->
<g id="edge8" class="edge">
<title>SG_1_Node_0&#45;&gt;SG_1_Node_1</title>
<path fill="none" stroke="black" d="M1229.59,-720.22C1292.27,-718.49 1393.99,-711.64 1420,-685.71 1451.75,-654.05 1450.72,-597.84 1446.66,-564.49"/>
<polygon fill="black" stroke="black" points="1450.12,-563.94 1445.27,-554.52 1443.18,-564.91 1450.12,-563.94"/>
<text text-anchor="middle" x="1493.5" y="-636.71" font-family="Times,serif" font-size="20.00">[NA]</text>
<text text-anchor="middle" x="1493.5" y="-614.71" font-family="Times,serif" font-size="20.00">14 levels</text>
</g>
<!-- SG_1_Node_5 -->
<g id="node11" class="node">
<title>SG_1_Node_5</title>
<ellipse fill="none" stroke="black" cx="1342" cy="-414.07" rx="33.88" ry="21.43"/>
<text text-anchor="middle" x="1342" y="-409.07" font-family="Times,serif" font-size="20.00">0.0</text>
</g>
<!-- SG_1_Node_1&#45;&gt;SG_1_Node_5 -->
<g id="edge9" class="edge">
<title>SG_1_Node_1&#45;&gt;SG_1_Node_5</title>
<path fill="none" stroke="black" d="M1423.14,-518.18C1416.54,-511.82 1409.23,-504.42 1403,-497.28 1387.83,-479.87 1372.34,-458.95 1360.77,-442.58"/>
<polygon fill="black" stroke="black" points="1363.37,-440.18 1354.77,-433.99 1357.63,-444.2 1363.37,-440.18"/>
<text text-anchor="middle" x="1422.5" y="-470.28" font-family="Times,serif" font-size="20.00">302</text>
</g>
<!-- SG_1_Node_2 -->
<g id="node12" class="node">
<title>SG_1_Node_2</title>
<polygon fill="none" stroke="black" points="1516,-432.07 1394,-432.07 1394,-396.07 1516,-396.07 1516,-432.07"/>
<text text-anchor="middle" x="1455" y="-409.07" font-family="Times,serif" font-size="20.00">org_origin</text>
</g>
<!-- SG_1_Node_1&#45;&gt;SG_1_Node_2 -->
<g id="edge10" class="edge">
<title>SG_1_Node_1&#45;&gt;SG_1_Node_2</title>
<path fill="none" stroke="black" d="M1443.86,-518.24C1446.01,-498.39 1449.55,-465.53 1452.07,-442.24"/>
<polygon fill="black" stroke="black" points="1455.55,-442.61 1453.14,-432.29 1448.59,-441.85 1455.55,-442.61"/>
<text text-anchor="middle" x="1473.5" y="-481.28" font-family="Times,serif" font-size="20.00">[NA]</text>
<text text-anchor="middle" x="1473.5" y="-459.28" font-family="Times,serif" font-size="20.00">200</text>
</g>
<!-- SG_1_Node_3 -->
<g id="node13" class="node">
<title>SG_1_Node_3</title>
<polygon fill="none" stroke="black" points="1143,-243.64 1011,-243.64 1011,-207.64 1143,-207.64 1143,-243.64"/>
<text text-anchor="middle" x="1077" y="-220.64" font-family="Times,serif" font-size="20.00">resp_origin</text>
</g>
<!-- SG_1_Node_2&#45;&gt;SG_1_Node_3 -->
<g id="edge11" class="edge">
<title>SG_1_Node_2&#45;&gt;SG_1_Node_3</title>
<path fill="none" stroke="black" d="M1400.24,-396.01C1395.12,-394.79 1389.99,-393.71 1385,-392.85 1351.65,-387.12 1104.54,-399.16 1081,-374.85 1050.3,-343.15 1058.93,-287.44 1067.97,-254.09"/>
<polygon fill="black" stroke="black" points="1071.44,-254.69 1070.88,-244.11 1064.72,-252.73 1071.44,-254.69"/>
<text text-anchor="middle" x="1267.5" y="-314.85" font-family="Times,serif" font-size="20.00">https://sub.headers.websec.saarland</text>
</g>
<!-- SG_1_Node_6 -->
<g id="node14" class="node">
<title>SG_1_Node_6</title>
<ellipse fill="none" stroke="black" cx="1473" cy="-225.64" rx="33.88" ry="21.43"/>
<text text-anchor="middle" x="1473" y="-220.64" font-family="Times,serif" font-size="20.00">1.0</text>
</g>
<!-- SG_1_Node_2&#45;&gt;SG_1_Node_6 -->
<g id="edge12" class="edge">
<title>SG_1_Node_2&#45;&gt;SG_1_Node_6</title>
<path fill="none" stroke="black" d="M1456.66,-395.86C1459.71,-364.24 1466.25,-296.5 1470.07,-256.99"/>
<polygon fill="black" stroke="black" points="1473.57,-257.17 1471.05,-246.88 1466.6,-256.5 1473.57,-257.17"/>
<text text-anchor="middle" x="1650.5" y="-325.85" font-family="Times,serif" font-size="20.00">[NA]</text>
<text text-anchor="middle" x="1650.5" y="-303.85" font-family="Times,serif" font-size="20.00">http://sub.headers.websec.saarland</text>
</g>
<!-- SG_1_Node_7 -->
<g id="node15" class="node">
<title>SG_1_Node_7</title>
<ellipse fill="none" stroke="black" cx="966" cy="-37.21" rx="33.88" ry="21.43"/>
<text text-anchor="middle" x="966" y="-32.21" font-family="Times,serif" font-size="20.00">0.0</text>
</g>
<!-- SG_1_Node_3&#45;&gt;SG_1_Node_7 -->
<g id="edge13" class="edge">
<title>SG_1_Node_3&#45;&gt;SG_1_Node_7</title>
<path fill="none" stroke="black" d="M1010.73,-215.65C993.78,-210.03 977.42,-200.97 967,-186.43 942.26,-151.88 949.02,-100.24 956.94,-67.92"/>
<polygon fill="black" stroke="black" points="960.34,-68.72 959.51,-58.16 953.58,-66.94 960.34,-68.72"/>
<text text-anchor="middle" x="1169.5" y="-159.43" font-family="Times,serif" font-size="20.00">http://headers.webappsec.eu</text>
<text text-anchor="middle" x="1169.5" y="-137.43" font-family="Times,serif" font-size="20.00">http://headers.websec.saarland</text>
<text text-anchor="middle" x="1169.5" y="-115.43" font-family="Times,serif" font-size="20.00">http://sub.headers.websec.saarland</text>
<text text-anchor="middle" x="1169.5" y="-93.43" font-family="Times,serif" font-size="20.00">http://sub.sub.headers.websec.saarland</text>
</g>
<!-- SG_1_Node_8 -->
<g id="node16" class="node">
<title>SG_1_Node_8</title>
<ellipse fill="none" stroke="black" cx="1394" cy="-37.21" rx="33.88" ry="21.43"/>
<text text-anchor="middle" x="1394" y="-32.21" font-family="Times,serif" font-size="20.00">1.0</text>
</g>
<!-- SG_1_Node_3&#45;&gt;SG_1_Node_8 -->
<g id="edge14" class="edge">
<title>SG_1_Node_3&#45;&gt;SG_1_Node_8</title>
<path fill="none" stroke="black" d="M1143.22,-225.02C1220.16,-223.98 1340.58,-217.27 1372,-186.43 1402.99,-156.01 1402.92,-102.24 1399.12,-68.5"/>
<polygon fill="black" stroke="black" points="1402.55,-67.77 1397.79,-58.31 1395.61,-68.68 1402.55,-67.77"/>
<text text-anchor="middle" x="1607.5" y="-170.43" font-family="Times,serif" font-size="20.00">[NA]</text>
<text text-anchor="middle" x="1607.5" y="-148.43" font-family="Times,serif" font-size="20.00">https://headers.webappsec.eu</text>
<text text-anchor="middle" x="1607.5" y="-126.43" font-family="Times,serif" font-size="20.00">https://headers.websec.saarland</text>
<text text-anchor="middle" x="1607.5" y="-104.43" font-family="Times,serif" font-size="20.00">https://sub.headers.websec.saarland</text>
<text text-anchor="middle" x="1607.5" y="-82.43" font-family="Times,serif" font-size="20.00">https://sub.sub.headers.websec.saarland</text>
</g>
<!-- SG_2_Node_0 -->
<g id="node17" class="node">
<title>SG_2_Node_0</title>
<polygon fill="none" stroke="black" points="2014.5,-739.71 1913.5,-739.71 1913.5,-703.71 2014.5,-703.71 2014.5,-739.71"/>
<text text-anchor="middle" x="1964" y="-716.71" font-family="Times,serif" font-size="20.00">browser</text>
</g>
<!-- SG_2_Node_4 -->
<g id="node18" class="node">
<title>SG_2_Node_4</title>
<ellipse fill="none" stroke="black" cx="1931" cy="-536.49" rx="33.88" ry="21.43"/>
<text text-anchor="middle" x="1931" y="-531.49" font-family="Times,serif" font-size="20.00">0.0</text>
</g>
<!-- SG_2_Node_0&#45;&gt;SG_2_Node_4 -->
<g id="edge15" class="edge">
<title>SG_2_Node_0&#45;&gt;SG_2_Node_4</title>
<path fill="none" stroke="black" d="M1946.72,-703.57C1942.43,-698.27 1938.38,-692.13 1936,-685.71 1921.7,-647.04 1923.33,-598.76 1926.56,-568.02"/>
<polygon fill="black" stroke="black" points="1930.06,-568.26 1927.75,-557.92 1923.1,-567.44 1930.06,-568.26"/>
<text text-anchor="middle" x="1981.5" y="-636.71" font-family="Times,serif" font-size="20.00">[NA]</text>
<text text-anchor="middle" x="1981.5" y="-614.71" font-family="Times,serif" font-size="20.00">14 levels</text>
</g>
<!-- SG_2_Node_1 -->
<g id="node19" class="node">
<title>SG_2_Node_1</title>
<polygon fill="none" stroke="black" points="2119.5,-554.49 1982.5,-554.49 1982.5,-518.49 2119.5,-518.49 2119.5,-554.49"/>
<text text-anchor="middle" x="2051" y="-531.49" font-family="Times,serif" font-size="20.00">status_code</text>
</g>
<!-- SG_2_Node_0&#45;&gt;SG_2_Node_1 -->
<g id="edge16" class="edge">
<title>SG_2_Node_0&#45;&gt;SG_2_Node_1</title>
<path fill="none" stroke="black" d="M2007.15,-703.68C2014.78,-698.91 2021.9,-692.98 2027,-685.71 2052.19,-649.83 2054.64,-597.13 2053.36,-565.19"/>
<polygon fill="black" stroke="black" points="2056.83,-564.61 2052.78,-554.82 2049.84,-565 2056.83,-564.61"/>
<text text-anchor="middle" x="2277.5" y="-669.71" font-family="Times,serif" font-size="20.00">firefox Ubuntu 22.04 119 selenium headless</text>
<text text-anchor="middle" x="2277.5" y="-647.71" font-family="Times,serif" font-size="20.00">firefox Ubuntu 22.04 119 selenium xvfb</text>
<text text-anchor="middle" x="2277.5" y="-625.71" font-family="Times,serif" font-size="20.00">firefox macOS 14.0 119 selenium headless</text>
<text text-anchor="middle" x="2277.5" y="-603.71" font-family="Times,serif" font-size="20.00">firefox macOS 14.0 119 selenium real</text>
<text text-anchor="middle" x="2277.5" y="-581.71" font-family="Times,serif" font-size="20.00">safari macOS 14.0 17.0 selenium real</text>
</g>
<!-- SG_2_Node_5 -->
<g id="node20" class="node">
<title>SG_2_Node_5</title>
<ellipse fill="none" stroke="black" cx="2000" cy="-414.07" rx="33.88" ry="21.43"/>
<text text-anchor="middle" x="2000" y="-409.07" font-family="Times,serif" font-size="20.00">0.0</text>
</g>
<!-- SG_2_Node_1&#45;&gt;SG_2_Node_5 -->
<g id="edge17" class="edge">
<title>SG_2_Node_1&#45;&gt;SG_2_Node_5</title>
<path fill="none" stroke="black" d="M2038.84,-518.12C2034.72,-511.75 2030.33,-504.37 2027,-497.28 2019.14,-480.55 2012.6,-460.91 2007.92,-445.02"/>
<polygon fill="black" stroke="black" points="2011.23,-443.85 2005.13,-435.19 2004.5,-445.76 2011.23,-443.85"/>
<text text-anchor="middle" x="2046.5" y="-470.28" font-family="Times,serif" font-size="20.00">302</text>
</g>
<!-- SG_2_Node_2 -->
<g id="node21" class="node">
<title>SG_2_Node_2</title>
<polygon fill="none" stroke="black" points="2174,-432.07 2052,-432.07 2052,-396.07 2174,-396.07 2174,-432.07"/>
<text text-anchor="middle" x="2113" y="-409.07" font-family="Times,serif" font-size="20.00">org_origin</text>
</g>
<!-- SG_2_Node_1&#45;&gt;SG_2_Node_2 -->
<g id="edge18" class="edge">
<title>SG_2_Node_1&#45;&gt;SG_2_Node_2</title>
<path fill="none" stroke="black" d="M2059.88,-518.24C2070.24,-498.12 2087.48,-464.64 2099.49,-441.3"/>
<polygon fill="black" stroke="black" points="2102.67,-442.78 2104.13,-432.29 2096.44,-439.58 2102.67,-442.78"/>
<text text-anchor="middle" x="2115.5" y="-481.28" font-family="Times,serif" font-size="20.00">[NA]</text>
<text text-anchor="middle" x="2115.5" y="-459.28" font-family="Times,serif" font-size="20.00">200</text>
</g>
<!-- SG_2_Node_3 -->
<g id="node22" class="node">
<title>SG_2_Node_3</title>
<polygon fill="none" stroke="black" points="2069,-243.64 1937,-243.64 1937,-207.64 2069,-207.64 2069,-243.64"/>
<text text-anchor="middle" x="2003" y="-220.64" font-family="Times,serif" font-size="20.00">resp_origin</text>
</g>
<!-- SG_2_Node_2&#45;&gt;SG_2_Node_3 -->
<g id="edge19" class="edge">
<title>SG_2_Node_2&#45;&gt;SG_2_Node_3</title>
<path fill="none" stroke="black" d="M2055.43,-396.02C2031.06,-388.23 2007.45,-379.69 2004,-374.85 1978.61,-339.3 1986.46,-285.7 1994.63,-253.64"/>
<polygon fill="black" stroke="black" points="1998.1,-254.22 1997.36,-243.65 1991.35,-252.37 1998.1,-254.22"/>
<text text-anchor="middle" x="2190.5" y="-314.85" font-family="Times,serif" font-size="20.00">https://sub.headers.websec.saarland</text>
</g>
<!-- SG_2_Node_6 -->
<g id="node23" class="node">
<title>SG_2_Node_6</title>
<ellipse fill="none" stroke="black" cx="2399" cy="-225.64" rx="33.88" ry="21.43"/>
<text text-anchor="middle" x="2399" y="-220.64" font-family="Times,serif" font-size="20.00">1.0</text>
</g>
<!-- SG_2_Node_2&#45;&gt;SG_2_Node_6 -->
<g id="edge20" class="edge">
<title>SG_2_Node_2&#45;&gt;SG_2_Node_6</title>
<path fill="none" stroke="black" d="M2174.14,-412.4C2243.11,-410.28 2349.28,-402.47 2377,-374.85 2407.68,-344.28 2407.76,-290.79 2404.06,-257.12"/>
<polygon fill="black" stroke="black" points="2407.5,-256.42 2402.77,-246.94 2400.56,-257.3 2407.5,-256.42"/>
<text text-anchor="middle" x="2586.5" y="-325.85" font-family="Times,serif" font-size="20.00">[NA]</text>
<text text-anchor="middle" x="2586.5" y="-303.85" font-family="Times,serif" font-size="20.00">http://sub.headers.websec.saarland</text>
</g>
<!-- SG_2_Node_7 -->
<g id="node24" class="node">
<title>SG_2_Node_7</title>
<ellipse fill="none" stroke="black" cx="1951" cy="-37.21" rx="33.88" ry="21.43"/>
<text text-anchor="middle" x="1951" y="-32.21" font-family="Times,serif" font-size="20.00">0.0</text>
</g>
<!-- SG_2_Node_3&#45;&gt;SG_2_Node_7 -->
<g id="edge21" class="edge">
<title>SG_2_Node_3&#45;&gt;SG_2_Node_7</title>
<path fill="none" stroke="black" d="M1970.8,-207.51C1963.28,-201.86 1956.24,-194.82 1952,-186.43 1933.15,-149.07 1937.85,-99.37 1943.78,-68.08"/>
<polygon fill="black" stroke="black" points="1947.22,-68.72 1945.81,-58.22 1940.36,-67.31 1947.22,-68.72"/>
<text text-anchor="middle" x="2154.5" y="-159.43" font-family="Times,serif" font-size="20.00">http://headers.webappsec.eu</text>
<text text-anchor="middle" x="2154.5" y="-137.43" font-family="Times,serif" font-size="20.00">http://headers.websec.saarland</text>
<text text-anchor="middle" x="2154.5" y="-115.43" font-family="Times,serif" font-size="20.00">http://sub.headers.websec.saarland</text>
<text text-anchor="middle" x="2154.5" y="-93.43" font-family="Times,serif" font-size="20.00">http://sub.sub.headers.websec.saarland</text>
</g>
<!-- SG_2_Node_8 -->
<g id="node25" class="node">
<title>SG_2_Node_8</title>
<ellipse fill="none" stroke="black" cx="2379" cy="-37.21" rx="33.88" ry="21.43"/>
<text text-anchor="middle" x="2379" y="-32.21" font-family="Times,serif" font-size="20.00">1.0</text>
</g>
<!-- SG_2_Node_3&#45;&gt;SG_2_Node_8 -->
<g id="edge22" class="edge">
<title>SG_2_Node_3&#45;&gt;SG_2_Node_8</title>
<path fill="none" stroke="black" d="M2069.16,-221.81C2165.88,-217.04 2336.69,-205.94 2357,-186.43 2388.31,-156.34 2388.14,-102.47 2384.23,-68.62"/>
<polygon fill="black" stroke="black" points="2387.66,-67.85 2382.87,-58.4 2380.72,-68.77 2387.66,-67.85"/>
<text text-anchor="middle" x="2593.5" y="-170.43" font-family="Times,serif" font-size="20.00">[NA]</text>
<text text-anchor="middle" x="2593.5" y="-148.43" font-family="Times,serif" font-size="20.00">https://headers.webappsec.eu</text>
<text text-anchor="middle" x="2593.5" y="-126.43" font-family="Times,serif" font-size="20.00">https://headers.websec.saarland</text>
<text text-anchor="middle" x="2593.5" y="-104.43" font-family="Times,serif" font-size="20.00">https://sub.headers.websec.saarland</text>
<text text-anchor="middle" x="2593.5" y="-82.43" font-family="Times,serif" font-size="20.00">https://sub.sub.headers.websec.saarland</text>
</g>
</g>
</svg>
