<?xml version="1.0" encoding="UTF-8" standalone="no"?>
<!DOCTYPE svg PUBLIC "-//W3C//DTD SVG 1.1//EN"
 "http://www.w3.org/Graphics/SVG/1.1/DTD/svg11.dtd">
<!-- Generated by graphviz version 2.43.0 (0)
 -->
<!-- Title: G Pages: 1 -->
<svg width="5124pt" height="976pt"
 viewBox="0.00 0.00 5124.00 975.71" xmlns="http://www.w3.org/2000/svg" xmlns:xlink="http://www.w3.org/1999/xlink">
<g id="graph0" class="graph" transform="scale(1 1) rotate(0) translate(4 971.71)">
<title>G</title>
<polygon fill="white" stroke="transparent" points="-4,4 -4,-971.71 5120,-971.71 5120,4 -4,4"/>
<g id="clust1" class="cluster">
<title>cluster_0</title>
<polygon fill="none" stroke="black" points="8,-8 8,-959.71 2554,-959.71 2554,-8 8,-8"/>
<text text-anchor="middle" x="1281" y="-923.71" font-family="Times,serif" font-size="40.00">Tree 0, Class message send</text>
</g>
<g id="clust8" class="cluster">
<title>cluster_1</title>
<polygon fill="none" stroke="black" points="2562,-8 2562,-959.71 5108,-959.71 5108,-8 2562,-8"/>
<text text-anchor="middle" x="3835" y="-923.71" font-family="Times,serif" font-size="40.00">Tree 0, Class message timeout</text>
</g>
<!-- SG_0_Node_0 -->
<g id="node1" class="node">
<title>SG_0_Node_0</title>
<polygon fill="none" stroke="black" points="1419.5,-899.71 1282.5,-899.71 1282.5,-863.71 1419.5,-863.71 1419.5,-899.71"/>
<text text-anchor="middle" x="1351" y="-876.71" font-family="Times,serif" font-size="20.00">raw_header</text>
</g>
<!-- SG_0_Node_1 -->
<g id="node2" class="node">
<title>SG_0_Node_1</title>
<polygon fill="none" stroke="black" points="786.5,-695.71 649.5,-695.71 649.5,-659.71 786.5,-659.71 786.5,-695.71"/>
<text text-anchor="middle" x="718" y="-672.71" font-family="Times,serif" font-size="20.00">raw_header</text>
</g>
<!-- SG_0_Node_0&#45;&gt;SG_0_Node_1 -->
<g id="edge1" class="edge">
<title>SG_0_Node_0&#45;&gt;SG_0_Node_1</title>
<path fill="none" stroke="black" d="M1282.24,-879.4C1122.46,-876.03 738.18,-865.85 719,-845.71 683.46,-808.37 696.8,-742.35 708.27,-705.49"/>
<polygon fill="black" stroke="black" points="711.62,-706.51 711.41,-695.92 704.97,-704.33 711.62,-706.51"/>
<text text-anchor="middle" x="1341" y="-829.71" font-family="Times,serif" font-size="20.00">[[&#39;Content&#45;Security&#45;Policy&#39;, &quot;script&#45;src &#39;none&#39;&quot;], [&#39;location&#39;, &#39;https://sub.headers.websec.saarland/_hp/common/empty.html&#39;]]</text>
<text text-anchor="middle" x="1341" y="-807.71" font-family="Times,serif" font-size="20.00">[[&#39;Content&#45;Security&#45;Policy&#39;, &quot;script&#45;src &#39;none&#39;&quot;]]</text>
<text text-anchor="middle" x="1341" y="-785.71" font-family="Times,serif" font-size="20.00">[[&#39;Content&#45;Security&#45;Policy&#39;, &quot;script&#45;src &#39;none&#39;, script&#45;src *, script&#45;src &#39;self&#39;&quot;]]</text>
<text text-anchor="middle" x="1341" y="-763.71" font-family="Times,serif" font-size="20.00">[[&#39;Content&#45;Security&#45;Policy&#39;, &quot;script&#45;src &#39;self&#39;&quot;]]</text>
<text text-anchor="middle" x="1341" y="-741.71" font-family="Times,serif" font-size="20.00">[[&#39;Content&#45;Security&#45;Policy&#39;, &#39;script&#45;src *&#39;], [&#39;location&#39;, &#39;https://sub.headers.websec.saarland/_hp/common/empty.html&#39;]]</text>
<text text-anchor="middle" x="1341" y="-719.71" font-family="Times,serif" font-size="20.00">[[&#39;Content&#45;Security&#45;Policy&#39;, &#39;script&#45;src&#39;]]</text>
</g>
<!-- SG_0_Node_2 -->
<g id="node3" class="node">
<title>SG_0_Node_2</title>
<polygon fill="none" stroke="black" points="2046,-695.71 1924,-695.71 1924,-659.71 2046,-659.71 2046,-695.71"/>
<text text-anchor="middle" x="1985" y="-672.71" font-family="Times,serif" font-size="20.00">org_origin</text>
</g>
<!-- SG_0_Node_0&#45;&gt;SG_0_Node_2 -->
<g id="edge2" class="edge">
<title>SG_0_Node_0&#45;&gt;SG_0_Node_2</title>
<path fill="none" stroke="black" d="M1419.73,-879.1C1575.48,-875.16 1943.36,-863.95 1963,-845.71 2001.13,-810.3 1996.88,-743.43 1990.75,-705.94"/>
<polygon fill="black" stroke="black" points="1994.13,-704.98 1988.91,-695.76 1987.24,-706.22 1994.13,-704.98"/>
<text text-anchor="middle" x="2039.5" y="-785.71" font-family="Times,serif" font-size="20.00">[NA]</text>
<text text-anchor="middle" x="2039.5" y="-763.71" font-family="Times,serif" font-size="20.00">11 levels</text>
</g>
<!-- SG_0_Node_7 -->
<g id="node4" class="node">
<title>SG_0_Node_7</title>
<ellipse fill="none" stroke="black" cx="50" cy="-492.49" rx="33.88" ry="21.43"/>
<text text-anchor="middle" x="50" y="-487.49" font-family="Times,serif" font-size="20.00">0.0</text>
</g>
<!-- SG_0_Node_1&#45;&gt;SG_0_Node_7 -->
<g id="edge7" class="edge">
<title>SG_0_Node_1&#45;&gt;SG_0_Node_7</title>
<path fill="none" stroke="black" d="M649.27,-675.73C479.42,-672.98 52.07,-663.88 31,-641.71 0.75,-609.87 18.81,-555.33 34.52,-522.03"/>
<polygon fill="black" stroke="black" points="37.78,-523.35 39.06,-512.83 31.5,-520.25 37.78,-523.35"/>
<text text-anchor="middle" x="653" y="-625.71" font-family="Times,serif" font-size="20.00">[[&#39;Content&#45;Security&#45;Policy&#39;, &quot;script&#45;src &#39;none&#39;&quot;], [&#39;location&#39;, &#39;https://sub.headers.websec.saarland/_hp/common/empty.html&#39;]]</text>
<text text-anchor="middle" x="653" y="-603.71" font-family="Times,serif" font-size="20.00">[[&#39;Content&#45;Security&#45;Policy&#39;, &quot;script&#45;src &#39;none&#39;&quot;]]</text>
<text text-anchor="middle" x="653" y="-581.71" font-family="Times,serif" font-size="20.00">[[&#39;Content&#45;Security&#45;Policy&#39;, &quot;script&#45;src &#39;none&#39;, script&#45;src *, script&#45;src &#39;self&#39;&quot;]]</text>
<text text-anchor="middle" x="653" y="-559.71" font-family="Times,serif" font-size="20.00">[[&#39;Content&#45;Security&#45;Policy&#39;, &#39;script&#45;src *&#39;], [&#39;location&#39;, &#39;https://sub.headers.websec.saarland/_hp/common/empty.html&#39;]]</text>
<text text-anchor="middle" x="653" y="-537.71" font-family="Times,serif" font-size="20.00">[[&#39;Content&#45;Security&#45;Policy&#39;, &#39;script&#45;src&#39;]]</text>
</g>
<!-- SG_0_Node_3 -->
<g id="node5" class="node">
<title>SG_0_Node_3</title>
<polygon fill="none" stroke="black" points="1367,-510.49 1235,-510.49 1235,-474.49 1367,-474.49 1367,-510.49"/>
<text text-anchor="middle" x="1301" y="-487.49" font-family="Times,serif" font-size="20.00">resp_origin</text>
</g>
<!-- SG_0_Node_1&#45;&gt;SG_0_Node_3 -->
<g id="edge8" class="edge">
<title>SG_0_Node_1&#45;&gt;SG_0_Node_3</title>
<path fill="none" stroke="black" d="M786.67,-677.16C928.48,-677.44 1243.49,-674.32 1279,-641.71 1296.18,-625.93 1300.08,-559.55 1300.88,-521.19"/>
<polygon fill="black" stroke="black" points="1304.39,-520.77 1301.04,-510.72 1297.39,-520.67 1304.39,-520.77"/>
<text text-anchor="middle" x="1531.5" y="-581.71" font-family="Times,serif" font-size="20.00">[[&#39;Content&#45;Security&#45;Policy&#39;, &quot;script&#45;src &#39;self&#39;&quot;]]</text>
</g>
<!-- SG_0_Node_4 -->
<g id="node6" class="node">
<title>SG_0_Node_4</title>
<polygon fill="none" stroke="black" points="1853,-510.49 1721,-510.49 1721,-474.49 1853,-474.49 1853,-510.49"/>
<text text-anchor="middle" x="1787" y="-487.49" font-family="Times,serif" font-size="20.00">resp_origin</text>
</g>
<!-- SG_0_Node_2&#45;&gt;SG_0_Node_4 -->
<g id="edge3" class="edge">
<title>SG_0_Node_2&#45;&gt;SG_0_Node_4</title>
<path fill="none" stroke="black" d="M1923.81,-674.17C1872.6,-670.61 1805.19,-662.08 1788,-641.71 1759.55,-607.99 1768.76,-552.96 1777.94,-520.28"/>
<polygon fill="black" stroke="black" points="1781.35,-521.1 1780.88,-510.52 1774.65,-519.09 1781.35,-521.1"/>
<text text-anchor="middle" x="1974.5" y="-581.71" font-family="Times,serif" font-size="20.00">https://sub.headers.websec.saarland</text>
</g>
<!-- SG_0_Node_8 -->
<g id="node7" class="node">
<title>SG_0_Node_8</title>
<ellipse fill="none" stroke="black" cx="2183" cy="-492.49" rx="33.88" ry="21.43"/>
<text text-anchor="middle" x="2183" y="-487.49" font-family="Times,serif" font-size="20.00">1.0</text>
</g>
<!-- SG_0_Node_2&#45;&gt;SG_0_Node_8 -->
<g id="edge4" class="edge">
<title>SG_0_Node_2&#45;&gt;SG_0_Node_8</title>
<path fill="none" stroke="black" d="M2046.33,-671.95C2090.65,-667.18 2145.37,-658.12 2161,-641.71 2190.78,-610.43 2191.19,-557.38 2187.79,-523.95"/>
<polygon fill="black" stroke="black" points="2191.25,-523.36 2186.59,-513.84 2184.3,-524.19 2191.25,-523.36"/>
<text text-anchor="middle" x="2370.5" y="-592.71" font-family="Times,serif" font-size="20.00">[NA]</text>
<text text-anchor="middle" x="2370.5" y="-570.71" font-family="Times,serif" font-size="20.00">http://sub.headers.websec.saarland</text>
</g>
<!-- SG_0_Node_9 -->
<g id="node8" class="node">
<title>SG_0_Node_9</title>
<ellipse fill="none" stroke="black" cx="865" cy="-260.07" rx="33.88" ry="21.43"/>
<text text-anchor="middle" x="865" y="-255.07" font-family="Times,serif" font-size="20.00">0.0</text>
</g>
<!-- SG_0_Node_3&#45;&gt;SG_0_Node_9 -->
<g id="edge9" class="edge">
<title>SG_0_Node_3&#45;&gt;SG_0_Node_9</title>
<path fill="none" stroke="black" d="M1234.93,-490.03C1123.14,-486.9 906.37,-477.72 882,-453.28 839.58,-410.75 848.25,-333.5 857.24,-291.03"/>
<polygon fill="black" stroke="black" points="860.71,-291.55 859.51,-281.03 853.89,-290.01 860.71,-291.55"/>
<text text-anchor="middle" x="1089.5" y="-437.28" font-family="Times,serif" font-size="20.00">[NA]</text>
<text text-anchor="middle" x="1089.5" y="-415.28" font-family="Times,serif" font-size="20.00">http://headers.webappsec.eu</text>
<text text-anchor="middle" x="1089.5" y="-393.28" font-family="Times,serif" font-size="20.00">http://headers.websec.saarland</text>
<text text-anchor="middle" x="1089.5" y="-371.28" font-family="Times,serif" font-size="20.00">http://sub.sub.headers.websec.saarland</text>
<text text-anchor="middle" x="1089.5" y="-349.28" font-family="Times,serif" font-size="20.00">https://headers.webappsec.eu</text>
<text text-anchor="middle" x="1089.5" y="-327.28" font-family="Times,serif" font-size="20.00">https://headers.websec.saarland</text>
<text text-anchor="middle" x="1089.5" y="-305.28" font-family="Times,serif" font-size="20.00">https://sub.sub.headers.websec.saarland</text>
</g>
<!-- SG_0_Node_5 -->
<g id="node9" class="node">
<title>SG_0_Node_5</title>
<polygon fill="none" stroke="black" points="1364,-278.07 1242,-278.07 1242,-242.07 1364,-242.07 1364,-278.07"/>
<text text-anchor="middle" x="1303" y="-255.07" font-family="Times,serif" font-size="20.00">org_origin</text>
</g>
<!-- SG_0_Node_3&#45;&gt;SG_0_Node_5 -->
<g id="edge10" class="edge">
<title>SG_0_Node_3&#45;&gt;SG_0_Node_5</title>
<path fill="none" stroke="black" d="M1301.15,-474.17C1301.5,-434.46 1302.34,-336.56 1302.76,-288.54"/>
<polygon fill="black" stroke="black" points="1306.26,-288.3 1302.85,-278.27 1299.26,-288.24 1306.26,-288.3"/>
<text text-anchor="middle" x="1488.5" y="-382.28" font-family="Times,serif" font-size="20.00">http://sub.headers.websec.saarland</text>
<text text-anchor="middle" x="1488.5" y="-360.28" font-family="Times,serif" font-size="20.00">https://sub.headers.websec.saarland</text>
</g>
<!-- SG_0_Node_10 -->
<g id="node10" class="node">
<title>SG_0_Node_10</title>
<ellipse fill="none" stroke="black" cx="1700" cy="-260.07" rx="33.88" ry="21.43"/>
<text text-anchor="middle" x="1700" y="-255.07" font-family="Times,serif" font-size="20.00">0.0</text>
</g>
<!-- SG_0_Node_4&#45;&gt;SG_0_Node_10 -->
<g id="edge5" class="edge">
<title>SG_0_Node_4&#45;&gt;SG_0_Node_10</title>
<path fill="none" stroke="black" d="M1724.52,-474.26C1715.21,-469.01 1706.81,-462.17 1701,-453.28 1668.75,-403.94 1680.53,-331.19 1690.93,-290.81"/>
<polygon fill="black" stroke="black" points="1694.34,-291.61 1693.58,-281.04 1687.58,-289.78 1694.34,-291.61"/>
<text text-anchor="middle" x="1903.5" y="-404.28" font-family="Times,serif" font-size="20.00">http://headers.webappsec.eu</text>
<text text-anchor="middle" x="1903.5" y="-382.28" font-family="Times,serif" font-size="20.00">http://headers.websec.saarland</text>
<text text-anchor="middle" x="1903.5" y="-360.28" font-family="Times,serif" font-size="20.00">http://sub.headers.websec.saarland</text>
<text text-anchor="middle" x="1903.5" y="-338.28" font-family="Times,serif" font-size="20.00">http://sub.sub.headers.websec.saarland</text>
</g>
<!-- SG_0_Node_11 -->
<g id="node11" class="node">
<title>SG_0_Node_11</title>
<ellipse fill="none" stroke="black" cx="2128" cy="-260.07" rx="33.88" ry="21.43"/>
<text text-anchor="middle" x="2128" y="-255.07" font-family="Times,serif" font-size="20.00">1.0</text>
</g>
<!-- SG_0_Node_4&#45;&gt;SG_0_Node_11 -->
<g id="edge6" class="edge">
<title>SG_0_Node_4&#45;&gt;SG_0_Node_11</title>
<path fill="none" stroke="black" d="M1853.29,-487.89C1941.52,-482.44 2088.52,-470.85 2106,-453.28 2148.36,-410.69 2142.27,-333.8 2134.75,-291.32"/>
<polygon fill="black" stroke="black" points="2138.15,-290.46 2132.84,-281.3 2131.28,-291.78 2138.15,-290.46"/>
<text text-anchor="middle" x="2347.5" y="-415.28" font-family="Times,serif" font-size="20.00">[NA]</text>
<text text-anchor="middle" x="2347.5" y="-393.28" font-family="Times,serif" font-size="20.00">https://headers.webappsec.eu</text>
<text text-anchor="middle" x="2347.5" y="-371.28" font-family="Times,serif" font-size="20.00">https://headers.websec.saarland</text>
<text text-anchor="middle" x="2347.5" y="-349.28" font-family="Times,serif" font-size="20.00">https://sub.headers.websec.saarland</text>
<text text-anchor="middle" x="2347.5" y="-327.28" font-family="Times,serif" font-size="20.00">https://sub.sub.headers.websec.saarland</text>
</g>
<!-- SG_0_Node_6 -->
<g id="node12" class="node">
<title>SG_0_Node_6</title>
<polygon fill="none" stroke="black" points="1171,-155.64 1039,-155.64 1039,-119.64 1171,-119.64 1171,-155.64"/>
<text text-anchor="middle" x="1105" y="-132.64" font-family="Times,serif" font-size="20.00">resp_origin</text>
</g>
<!-- SG_0_Node_5&#45;&gt;SG_0_Node_6 -->
<g id="edge11" class="edge">
<title>SG_0_Node_5&#45;&gt;SG_0_Node_6</title>
<path fill="none" stroke="black" d="M1241.79,-255.46C1190.55,-251.03 1123.14,-241.38 1106,-220.85 1093.58,-205.97 1094.05,-183.74 1097.24,-166.15"/>
<polygon fill="black" stroke="black" points="1100.76,-166.42 1099.48,-155.9 1093.92,-164.92 1100.76,-166.42"/>
<text text-anchor="middle" x="1292.5" y="-193.85" font-family="Times,serif" font-size="20.00">https://sub.headers.websec.saarland</text>
</g>
<!-- SG_0_Node_12 -->
<g id="node13" class="node">
<title>SG_0_Node_12</title>
<ellipse fill="none" stroke="black" cx="1501" cy="-137.64" rx="33.88" ry="21.43"/>
<text text-anchor="middle" x="1501" y="-132.64" font-family="Times,serif" font-size="20.00">1.0</text>
</g>
<!-- SG_0_Node_5&#45;&gt;SG_0_Node_12 -->
<g id="edge12" class="edge">
<title>SG_0_Node_5&#45;&gt;SG_0_Node_12</title>
<path fill="none" stroke="black" d="M1364.32,-252.57C1408.31,-246.68 1462.59,-236.5 1479,-220.85 1492.81,-207.68 1498.29,-186.87 1500.32,-169.48"/>
<polygon fill="black" stroke="black" points="1503.84,-169.45 1501.19,-159.19 1496.86,-168.86 1503.84,-169.45"/>
<text text-anchor="middle" x="1679.5" y="-204.85" font-family="Times,serif" font-size="20.00">[NA]</text>
<text text-anchor="middle" x="1679.5" y="-182.85" font-family="Times,serif" font-size="20.00">http://sub.headers.websec.saarland</text>
</g>
<!-- SG_0_Node_13 -->
<g id="node14" class="node">
<title>SG_0_Node_13</title>
<ellipse fill="none" stroke="black" cx="912" cy="-37.21" rx="33.88" ry="21.43"/>
<text text-anchor="middle" x="912" y="-32.21" font-family="Times,serif" font-size="20.00">0.0</text>
</g>
<!-- SG_0_Node_6&#45;&gt;SG_0_Node_13 -->
<g id="edge13" class="edge">
<title>SG_0_Node_6&#45;&gt;SG_0_Node_13</title>
<path fill="none" stroke="black" d="M1038.92,-132.19C989.94,-127.36 929.01,-117.61 913,-98.43 906.17,-90.24 904.62,-79.02 905.23,-68.48"/>
<polygon fill="black" stroke="black" points="908.74,-68.65 906.45,-58.3 901.79,-67.82 908.74,-68.65"/>
<text text-anchor="middle" x="1094.5" y="-82.43" font-family="Times,serif" font-size="20.00">http://sub.headers.websec.saarland</text>
</g>
<!-- SG_0_Node_14 -->
<g id="node15" class="node">
<title>SG_0_Node_14</title>
<ellipse fill="none" stroke="black" cx="1298" cy="-37.21" rx="33.88" ry="21.43"/>
<text text-anchor="middle" x="1298" y="-32.21" font-family="Times,serif" font-size="20.00">1.0</text>
</g>
<!-- SG_0_Node_6&#45;&gt;SG_0_Node_14 -->
<g id="edge14" class="edge">
<title>SG_0_Node_6&#45;&gt;SG_0_Node_14</title>
<path fill="none" stroke="black" d="M1171.34,-128.45C1212.46,-122.15 1260.34,-112.17 1276,-98.43 1284.69,-90.81 1289.94,-79.46 1293.13,-68.67"/>
<polygon fill="black" stroke="black" points="1296.61,-69.18 1295.59,-58.63 1289.81,-67.51 1296.61,-69.18"/>
<text text-anchor="middle" x="1476.5" y="-82.43" font-family="Times,serif" font-size="20.00">https://sub.headers.websec.saarland</text>
</g>
<!-- SG_1_Node_0 -->
<g id="node16" class="node">
<title>SG_1_Node_0</title>
<polygon fill="none" stroke="black" points="3239.5,-899.71 3102.5,-899.71 3102.5,-863.71 3239.5,-863.71 3239.5,-899.71"/>
<text text-anchor="middle" x="3171" y="-876.71" font-family="Times,serif" font-size="20.00">raw_header</text>
</g>
<!-- SG_1_Node_1 -->
<g id="node17" class="node">
<title>SG_1_Node_1</title>
<polygon fill="none" stroke="black" points="3035,-695.71 2913,-695.71 2913,-659.71 3035,-659.71 3035,-695.71"/>
<text text-anchor="middle" x="2974" y="-672.71" font-family="Times,serif" font-size="20.00">org_origin</text>
</g>
<!-- SG_1_Node_0&#45;&gt;SG_1_Node_1 -->
<g id="edge15" class="edge">
<title>SG_1_Node_0&#45;&gt;SG_1_Node_1</title>
<path fill="none" stroke="black" d="M3154.2,-863.48C3119.17,-827.56 3038.19,-744.53 2997.8,-703.11"/>
<polygon fill="black" stroke="black" points="3000.24,-700.6 2990.75,-695.88 2995.23,-705.49 3000.24,-700.6"/>
<text text-anchor="middle" x="3178.5" y="-785.71" font-family="Times,serif" font-size="20.00">[NA]</text>
<text text-anchor="middle" x="3178.5" y="-763.71" font-family="Times,serif" font-size="20.00">11 levels</text>
</g>
<!-- SG_1_Node_2 -->
<g id="node18" class="node">
<title>SG_1_Node_2</title>
<polygon fill="none" stroke="black" points="3438.5,-695.71 3301.5,-695.71 3301.5,-659.71 3438.5,-659.71 3438.5,-695.71"/>
<text text-anchor="middle" x="3370" y="-672.71" font-family="Times,serif" font-size="20.00">raw_header</text>
</g>
<!-- SG_1_Node_0&#45;&gt;SG_1_Node_2 -->
<g id="edge16" class="edge">
<title>SG_1_Node_0&#45;&gt;SG_1_Node_2</title>
<path fill="none" stroke="black" d="M3202.69,-863.68C3211.29,-858.43 3220.33,-852.28 3228,-845.71 3279.15,-801.88 3327.45,-738.82 3352.39,-704.08"/>
<polygon fill="black" stroke="black" points="3355.28,-706.06 3358.22,-695.89 3349.57,-702.01 3355.28,-706.06"/>
<text text-anchor="middle" x="3965" y="-829.71" font-family="Times,serif" font-size="20.00">[[&#39;Content&#45;Security&#45;Policy&#39;, &quot;script&#45;src &#39;none&#39;&quot;], [&#39;location&#39;, &#39;https://sub.headers.websec.saarland/_hp/common/empty.html&#39;]]</text>
<text text-anchor="middle" x="3965" y="-807.71" font-family="Times,serif" font-size="20.00">[[&#39;Content&#45;Security&#45;Policy&#39;, &quot;script&#45;src &#39;none&#39;&quot;]]</text>
<text text-anchor="middle" x="3965" y="-785.71" font-family="Times,serif" font-size="20.00">[[&#39;Content&#45;Security&#45;Policy&#39;, &quot;script&#45;src &#39;none&#39;, script&#45;src *, script&#45;src &#39;self&#39;&quot;]]</text>
<text text-anchor="middle" x="3965" y="-763.71" font-family="Times,serif" font-size="20.00">[[&#39;Content&#45;Security&#45;Policy&#39;, &quot;script&#45;src &#39;self&#39;&quot;]]</text>
<text text-anchor="middle" x="3965" y="-741.71" font-family="Times,serif" font-size="20.00">[[&#39;Content&#45;Security&#45;Policy&#39;, &#39;script&#45;src *&#39;], [&#39;location&#39;, &#39;https://sub.headers.websec.saarland/_hp/common/empty.html&#39;]]</text>
<text text-anchor="middle" x="3965" y="-719.71" font-family="Times,serif" font-size="20.00">[[&#39;Content&#45;Security&#45;Policy&#39;, &#39;script&#45;src&#39;]]</text>
</g>
<!-- SG_1_Node_7 -->
<g id="node19" class="node">
<title>SG_1_Node_7</title>
<ellipse fill="none" stroke="black" cx="2604" cy="-492.49" rx="33.88" ry="21.43"/>
<text text-anchor="middle" x="2604" y="-487.49" font-family="Times,serif" font-size="20.00">0.0</text>
</g>
<!-- SG_1_Node_1&#45;&gt;SG_1_Node_7 -->
<g id="edge25" class="edge">
<title>SG_1_Node_1&#45;&gt;SG_1_Node_7</title>
<path fill="none" stroke="black" d="M2912.82,-675.23C2813.8,-672.21 2627.35,-663.64 2607,-641.71 2577.65,-610.07 2585.46,-556.31 2594.34,-522.96"/>
<polygon fill="black" stroke="black" points="2597.71,-523.89 2597.09,-513.32 2590.98,-521.97 2597.71,-523.89"/>
<text text-anchor="middle" x="2788.5" y="-581.71" font-family="Times,serif" font-size="20.00">http://sub.headers.websec.saarland</text>
</g>
<!-- SG_1_Node_3 -->
<g id="node20" class="node">
<title>SG_1_Node_3</title>
<polygon fill="none" stroke="black" points="3040,-510.49 2908,-510.49 2908,-474.49 3040,-474.49 3040,-510.49"/>
<text text-anchor="middle" x="2974" y="-487.49" font-family="Times,serif" font-size="20.00">resp_origin</text>
</g>
<!-- SG_1_Node_1&#45;&gt;SG_1_Node_3 -->
<g id="edge26" class="edge">
<title>SG_1_Node_1&#45;&gt;SG_1_Node_3</title>
<path fill="none" stroke="black" d="M2974,-659.47C2974,-627.61 2974,-559.26 2974,-520.95"/>
<polygon fill="black" stroke="black" points="2977.5,-520.55 2974,-510.55 2970.5,-520.55 2977.5,-520.55"/>
<text text-anchor="middle" x="3160.5" y="-592.71" font-family="Times,serif" font-size="20.00">[NA]</text>
<text text-anchor="middle" x="3160.5" y="-570.71" font-family="Times,serif" font-size="20.00">https://sub.headers.websec.saarland</text>
</g>
<!-- SG_1_Node_4 -->
<g id="node21" class="node">
<title>SG_1_Node_4</title>
<polygon fill="none" stroke="black" points="3528,-510.49 3396,-510.49 3396,-474.49 3528,-474.49 3528,-510.49"/>
<text text-anchor="middle" x="3462" y="-487.49" font-family="Times,serif" font-size="20.00">resp_origin</text>
</g>
<!-- SG_1_Node_2&#45;&gt;SG_1_Node_4 -->
<g id="edge17" class="edge">
<title>SG_1_Node_2&#45;&gt;SG_1_Node_4</title>
<path fill="none" stroke="black" d="M3364.47,-659.31C3356.35,-630.16 3344.81,-570.82 3371,-531.71 3375.26,-525.34 3380.81,-520.04 3387.06,-515.61"/>
<polygon fill="black" stroke="black" points="3389.3,-518.34 3395.97,-510.11 3385.62,-512.39 3389.3,-518.34"/>
<text text-anchor="middle" x="3602.5" y="-581.71" font-family="Times,serif" font-size="20.00">[[&#39;Content&#45;Security&#45;Policy&#39;, &quot;script&#45;src &#39;self&#39;&quot;]]</text>
</g>
<!-- SG_1_Node_8 -->
<g id="node22" class="node">
<title>SG_1_Node_8</title>
<ellipse fill="none" stroke="black" cx="3856" cy="-492.49" rx="33.88" ry="21.43"/>
<text text-anchor="middle" x="3856" y="-487.49" font-family="Times,serif" font-size="20.00">1.0</text>
</g>
<!-- SG_1_Node_2&#45;&gt;SG_1_Node_8 -->
<g id="edge18" class="edge">
<title>SG_1_Node_2&#45;&gt;SG_1_Node_8</title>
<path fill="none" stroke="black" d="M3438.61,-676.17C3560.73,-674.55 3805.72,-668.02 3834,-641.71 3865.79,-612.13 3865.48,-558.1 3861.41,-524.09"/>
<polygon fill="black" stroke="black" points="3864.82,-523.23 3859.99,-513.81 3857.89,-524.19 3864.82,-523.23"/>
<text text-anchor="middle" x="4485" y="-625.71" font-family="Times,serif" font-size="20.00">[[&#39;Content&#45;Security&#45;Policy&#39;, &quot;script&#45;src &#39;none&#39;&quot;], [&#39;location&#39;, &#39;https://sub.headers.websec.saarland/_hp/common/empty.html&#39;]]</text>
<text text-anchor="middle" x="4485" y="-603.71" font-family="Times,serif" font-size="20.00">[[&#39;Content&#45;Security&#45;Policy&#39;, &quot;script&#45;src &#39;none&#39;&quot;]]</text>
<text text-anchor="middle" x="4485" y="-581.71" font-family="Times,serif" font-size="20.00">[[&#39;Content&#45;Security&#45;Policy&#39;, &quot;script&#45;src &#39;none&#39;, script&#45;src *, script&#45;src &#39;self&#39;&quot;]]</text>
<text text-anchor="middle" x="4485" y="-559.71" font-family="Times,serif" font-size="20.00">[[&#39;Content&#45;Security&#45;Policy&#39;, &#39;script&#45;src *&#39;], [&#39;location&#39;, &#39;https://sub.headers.websec.saarland/_hp/common/empty.html&#39;]]</text>
<text text-anchor="middle" x="4485" y="-537.71" font-family="Times,serif" font-size="20.00">[[&#39;Content&#45;Security&#45;Policy&#39;, &#39;script&#45;src&#39;]]</text>
</g>
<!-- SG_1_Node_9 -->
<g id="node23" class="node">
<title>SG_1_Node_9</title>
<ellipse fill="none" stroke="black" cx="2604" cy="-260.07" rx="33.88" ry="21.43"/>
<text text-anchor="middle" x="2604" y="-255.07" font-family="Times,serif" font-size="20.00">0.0</text>
</g>
<!-- SG_1_Node_3&#45;&gt;SG_1_Node_9 -->
<g id="edge27" class="edge">
<title>SG_1_Node_3&#45;&gt;SG_1_Node_9</title>
<path fill="none" stroke="black" d="M2907.94,-489.6C2804.44,-485.93 2613.68,-476.14 2593,-453.28 2552.62,-408.65 2574.49,-331.71 2591.01,-289.99"/>
<polygon fill="black" stroke="black" points="2594.28,-291.25 2594.85,-280.67 2587.81,-288.58 2594.28,-291.25"/>
<text text-anchor="middle" x="2800.5" y="-404.28" font-family="Times,serif" font-size="20.00">https://headers.webappsec.eu</text>
<text text-anchor="middle" x="2800.5" y="-382.28" font-family="Times,serif" font-size="20.00">https://headers.websec.saarland</text>
<text text-anchor="middle" x="2800.5" y="-360.28" font-family="Times,serif" font-size="20.00">https://sub.headers.websec.saarland</text>
<text text-anchor="middle" x="2800.5" y="-338.28" font-family="Times,serif" font-size="20.00">https://sub.sub.headers.websec.saarland</text>
</g>
<!-- SG_1_Node_10 -->
<g id="node24" class="node">
<title>SG_1_Node_10</title>
<ellipse fill="none" stroke="black" cx="3034" cy="-260.07" rx="33.88" ry="21.43"/>
<text text-anchor="middle" x="3034" y="-255.07" font-family="Times,serif" font-size="20.00">1.0</text>
</g>
<!-- SG_1_Node_3&#45;&gt;SG_1_Node_10 -->
<g id="edge28" class="edge">
<title>SG_1_Node_3&#45;&gt;SG_1_Node_10</title>
<path fill="none" stroke="black" d="M2995.81,-474.47C3002.05,-468.46 3008.19,-461.2 3012,-453.28 3037.34,-400.6 3038.39,-330.71 3036.47,-291.35"/>
<polygon fill="black" stroke="black" points="3039.96,-291.12 3035.88,-281.34 3032.97,-291.53 3039.96,-291.12"/>
<text text-anchor="middle" x="3239.5" y="-415.28" font-family="Times,serif" font-size="20.00">[NA]</text>
<text text-anchor="middle" x="3239.5" y="-393.28" font-family="Times,serif" font-size="20.00">http://headers.webappsec.eu</text>
<text text-anchor="middle" x="3239.5" y="-371.28" font-family="Times,serif" font-size="20.00">http://headers.websec.saarland</text>
<text text-anchor="middle" x="3239.5" y="-349.28" font-family="Times,serif" font-size="20.00">http://sub.headers.websec.saarland</text>
<text text-anchor="middle" x="3239.5" y="-327.28" font-family="Times,serif" font-size="20.00">http://sub.sub.headers.websec.saarland</text>
</g>
<!-- SG_1_Node_5 -->
<g id="node25" class="node">
<title>SG_1_Node_5</title>
<polygon fill="none" stroke="black" points="3523,-278.07 3401,-278.07 3401,-242.07 3523,-242.07 3523,-278.07"/>
<text text-anchor="middle" x="3462" y="-255.07" font-family="Times,serif" font-size="20.00">org_origin</text>
</g>
<!-- SG_1_Node_4&#45;&gt;SG_1_Node_5 -->
<g id="edge19" class="edge">
<title>SG_1_Node_4&#45;&gt;SG_1_Node_5</title>
<path fill="none" stroke="black" d="M3462,-474.17C3462,-434.46 3462,-336.56 3462,-288.54"/>
<polygon fill="black" stroke="black" points="3465.5,-288.27 3462,-278.27 3458.5,-288.27 3465.5,-288.27"/>
<text text-anchor="middle" x="3648.5" y="-382.28" font-family="Times,serif" font-size="20.00">http://sub.headers.websec.saarland</text>
<text text-anchor="middle" x="3648.5" y="-360.28" font-family="Times,serif" font-size="20.00">https://sub.headers.websec.saarland</text>
</g>
<!-- SG_1_Node_11 -->
<g id="node26" class="node">
<title>SG_1_Node_11</title>
<ellipse fill="none" stroke="black" cx="3858" cy="-260.07" rx="33.88" ry="21.43"/>
<text text-anchor="middle" x="3858" y="-255.07" font-family="Times,serif" font-size="20.00">1.0</text>
</g>
<!-- SG_1_Node_4&#45;&gt;SG_1_Node_11 -->
<g id="edge20" class="edge">
<title>SG_1_Node_4&#45;&gt;SG_1_Node_11</title>
<path fill="none" stroke="black" d="M3528.21,-489.17C3629.78,-484.95 3814.58,-474.44 3836,-453.28 3878.84,-410.95 3872.46,-333.62 3864.8,-291.09"/>
<polygon fill="black" stroke="black" points="3868.19,-290.21 3862.85,-281.07 3861.32,-291.55 3868.19,-290.21"/>
<text text-anchor="middle" x="4077.5" y="-437.28" font-family="Times,serif" font-size="20.00">[NA]</text>
<text text-anchor="middle" x="4077.5" y="-415.28" font-family="Times,serif" font-size="20.00">http://headers.webappsec.eu</text>
<text text-anchor="middle" x="4077.5" y="-393.28" font-family="Times,serif" font-size="20.00">http://headers.websec.saarland</text>
<text text-anchor="middle" x="4077.5" y="-371.28" font-family="Times,serif" font-size="20.00">http://sub.sub.headers.websec.saarland</text>
<text text-anchor="middle" x="4077.5" y="-349.28" font-family="Times,serif" font-size="20.00">https://headers.webappsec.eu</text>
<text text-anchor="middle" x="4077.5" y="-327.28" font-family="Times,serif" font-size="20.00">https://headers.websec.saarland</text>
<text text-anchor="middle" x="4077.5" y="-305.28" font-family="Times,serif" font-size="20.00">https://sub.sub.headers.websec.saarland</text>
</g>
<!-- SG_1_Node_12 -->
<g id="node27" class="node">
<title>SG_1_Node_12</title>
<ellipse fill="none" stroke="black" cx="3269" cy="-137.64" rx="33.88" ry="21.43"/>
<text text-anchor="middle" x="3269" y="-132.64" font-family="Times,serif" font-size="20.00">0.0</text>
</g>
<!-- SG_1_Node_5&#45;&gt;SG_1_Node_12 -->
<g id="edge21" class="edge">
<title>SG_1_Node_5&#45;&gt;SG_1_Node_12</title>
<path fill="none" stroke="black" d="M3400.86,-255.11C3351.1,-250.47 3286.51,-240.72 3270,-220.85 3258.22,-206.67 3258.07,-185.86 3260.82,-168.73"/>
<polygon fill="black" stroke="black" points="3264.31,-169.12 3262.82,-158.63 3257.44,-167.76 3264.31,-169.12"/>
<text text-anchor="middle" x="3451.5" y="-193.85" font-family="Times,serif" font-size="20.00">http://sub.headers.websec.saarland</text>
</g>
<!-- SG_1_Node_6 -->
<g id="node28" class="node">
<title>SG_1_Node_6</title>
<polygon fill="none" stroke="black" points="3721,-155.64 3589,-155.64 3589,-119.64 3721,-119.64 3721,-155.64"/>
<text text-anchor="middle" x="3655" y="-132.64" font-family="Times,serif" font-size="20.00">resp_origin</text>
</g>
<!-- SG_1_Node_5&#45;&gt;SG_1_Node_6 -->
<g id="edge22" class="edge">
<title>SG_1_Node_5&#45;&gt;SG_1_Node_6</title>
<path fill="none" stroke="black" d="M3523.36,-252.1C3565.79,-246.07 3617.3,-235.91 3633,-220.85 3647.73,-206.73 3652.97,-183.91 3654.67,-165.9"/>
<polygon fill="black" stroke="black" points="3658.18,-165.88 3655.32,-155.68 3651.19,-165.44 3658.18,-165.88"/>
<text text-anchor="middle" x="3838.5" y="-204.85" font-family="Times,serif" font-size="20.00">[NA]</text>
<text text-anchor="middle" x="3838.5" y="-182.85" font-family="Times,serif" font-size="20.00">https://sub.headers.websec.saarland</text>
</g>
<!-- SG_1_Node_13 -->
<g id="node29" class="node">
<title>SG_1_Node_13</title>
<ellipse fill="none" stroke="black" cx="3457" cy="-37.21" rx="33.88" ry="21.43"/>
<text text-anchor="middle" x="3457" y="-32.21" font-family="Times,serif" font-size="20.00">0.0</text>
</g>
<!-- SG_1_Node_6&#45;&gt;SG_1_Node_13 -->
<g id="edge23" class="edge">
<title>SG_1_Node_6&#45;&gt;SG_1_Node_13</title>
<path fill="none" stroke="black" d="M3588.75,-132.57C3538.25,-127.93 3474.62,-118.25 3458,-98.43 3451.15,-90.26 3449.6,-79.04 3450.21,-68.5"/>
<polygon fill="black" stroke="black" points="3453.72,-68.67 3451.43,-58.32 3446.76,-67.83 3453.72,-68.67"/>
<text text-anchor="middle" x="3644.5" y="-82.43" font-family="Times,serif" font-size="20.00">https://sub.headers.websec.saarland</text>
</g>
<!-- SG_1_Node_14 -->
<g id="node30" class="node">
<title>SG_1_Node_14</title>
<ellipse fill="none" stroke="black" cx="3853" cy="-37.21" rx="33.88" ry="21.43"/>
<text text-anchor="middle" x="3853" y="-32.21" font-family="Times,serif" font-size="20.00">1.0</text>
</g>
<!-- SG_1_Node_6&#45;&gt;SG_1_Node_14 -->
<g id="edge24" class="edge">
<title>SG_1_Node_6&#45;&gt;SG_1_Node_14</title>
<path fill="none" stroke="black" d="M3721.42,-128.94C3764.14,-122.75 3814.62,-112.71 3831,-98.43 3839.71,-90.83 3844.97,-79.49 3848.15,-68.7"/>
<polygon fill="black" stroke="black" points="3851.63,-69.2 3850.61,-58.65 3844.83,-67.54 3851.63,-69.2"/>
<text text-anchor="middle" x="4026.5" y="-82.43" font-family="Times,serif" font-size="20.00">http://sub.headers.websec.saarland</text>
</g>
</g>
</svg>
