<?xml version="1.0" encoding="UTF-8" standalone="no"?>
<!DOCTYPE svg PUBLIC "-//W3C//DTD SVG 1.1//EN"
 "http://www.w3.org/Graphics/SVG/1.1/DTD/svg11.dtd">
<!-- Generated by graphviz version 2.43.0 (0)
 -->
<!-- Title: G Pages: 1 -->
<svg width="4995pt" height="759pt"
 viewBox="0.00 0.00 4995.00 759.28" xmlns="http://www.w3.org/2000/svg" xmlns:xlink="http://www.w3.org/1999/xlink">
<g id="graph0" class="graph" transform="scale(1 1) rotate(0) translate(4 755.28)">
<title>G</title>
<polygon fill="white" stroke="transparent" points="-4,4 -4,-755.28 4991,-755.28 4991,4 -4,4"/>
<g id="clust1" class="cluster">
<title>cluster_0</title>
<polygon fill="none" stroke="black" points="8,-8 8,-743.28 2047,-743.28 2047,-8 8,-8"/>
<text text-anchor="middle" x="1027.5" y="-707.28" font-family="Times,serif" font-size="40.00">Tree 0, Class error</text>
</g>
<g id="clust6" class="cluster">
<title>cluster_1</title>
<polygon fill="none" stroke="black" points="2055,-8 2055,-743.28 4094,-743.28 4094,-8 2055,-8"/>
<text text-anchor="middle" x="3074.5" y="-707.28" font-family="Times,serif" font-size="40.00">Tree 0, Class load</text>
</g>
<g id="clust11" class="cluster">
<title>cluster_2</title>
<polygon fill="none" stroke="black" points="4102,-196.43 4102,-743.28 4979,-743.28 4979,-196.43 4102,-196.43"/>
<text text-anchor="middle" x="4540.5" y="-707.28" font-family="Times,serif" font-size="40.00">Tree 0, Class message timeout</text>
</g>
<!-- SG_0_Node_0 -->
<g id="node1" class="node">
<title>SG_0_Node_0</title>
<polygon fill="none" stroke="black" points="504.5,-683.28 367.5,-683.28 367.5,-647.28 504.5,-647.28 504.5,-683.28"/>
<text text-anchor="middle" x="436" y="-660.28" font-family="Times,serif" font-size="20.00">raw_header</text>
</g>
<!-- SG_0_Node_3 -->
<g id="node2" class="node">
<title>SG_0_Node_3</title>
<ellipse fill="none" stroke="black" cx="50" cy="-414.07" rx="33.88" ry="21.43"/>
<text text-anchor="middle" x="50" y="-409.07" font-family="Times,serif" font-size="20.00">0.0</text>
</g>
<!-- SG_0_Node_0&#45;&gt;SG_0_Node_3 -->
<g id="edge1" class="edge">
<title>SG_0_Node_0&#45;&gt;SG_0_Node_3</title>
<path fill="none" stroke="black" d="M367.13,-663.29C257.48,-661 53.21,-653.5 31,-629.28 -21.88,-571.64 13.11,-529.43 31,-453.28 31.76,-450.03 32.84,-446.75 34.11,-443.54"/>
<polygon fill="black" stroke="black" points="37.38,-444.8 38.32,-434.24 31,-441.91 37.38,-444.8"/>
<text text-anchor="middle" x="396" y="-613.28" font-family="Times,serif" font-size="20.00">[NA]</text>
<text text-anchor="middle" x="396" y="-591.28" font-family="Times,serif" font-size="20.00">[[&#39;Cross&#45;Origin&#45;Resource&#45;Policy&#39;, &#39;&#39;]]</text>
<text text-anchor="middle" x="396" y="-569.28" font-family="Times,serif" font-size="20.00">[[&#39;Cross&#45;Origin&#45;Resource&#45;Policy&#39;, &#39;*&#39;]]</text>
<text text-anchor="middle" x="396" y="-547.28" font-family="Times,serif" font-size="20.00">[[&#39;Cross&#45;Origin&#45;Resource&#45;Policy&#39;, &#39;cross&#45;origin&#39;]]</text>
<text text-anchor="middle" x="396" y="-525.28" font-family="Times,serif" font-size="20.00">[[&#39;Cross&#45;Origin&#45;Resource&#45;Policy&#39;, &#39;null&#39;]]</text>
<text text-anchor="middle" x="396" y="-503.28" font-family="Times,serif" font-size="20.00">[[&#39;Cross&#45;Origin&#45;Resource&#45;Policy&#39;, &#39;unsafe&#45;none&#39;]]</text>
<text text-anchor="middle" x="396" y="-481.28" font-family="Times,serif" font-size="20.00">[[&#39;Cross&#45;Origin&#45;Resource&#45;Policy&#39;, &#39;unsafe&#45;none, same&#45;site, cross&#45;origin&#39;]]</text>
<text text-anchor="middle" x="396" y="-459.28" font-family="Times,serif" font-size="20.00">[]</text>
</g>
<!-- SG_0_Node_1 -->
<g id="node3" class="node">
<title>SG_0_Node_1</title>
<polygon fill="none" stroke="black" points="848,-432.07 726,-432.07 726,-396.07 848,-396.07 848,-432.07"/>
<text text-anchor="middle" x="787" y="-409.07" font-family="Times,serif" font-size="20.00">org_origin</text>
</g>
<!-- SG_0_Node_0&#45;&gt;SG_0_Node_1 -->
<g id="edge2" class="edge">
<title>SG_0_Node_0&#45;&gt;SG_0_Node_1</title>
<path fill="none" stroke="black" d="M504.76,-661.52C595.8,-657.18 747.01,-647.34 765,-629.28 790.56,-603.63 790.03,-494.13 788.27,-442.38"/>
<polygon fill="black" stroke="black" points="791.76,-442.12 787.88,-432.26 784.76,-442.39 791.76,-442.12"/>
<text text-anchor="middle" x="1414" y="-569.28" font-family="Times,serif" font-size="20.00">[[&#39;Cross&#45;Origin&#45;Resource&#45;Policy&#39;, &#39;same&#45;origin&#39;], [&#39;location&#39;, &#39;https://sub.headers.websec.saarland/_hp/common/empty.html&#39;]]</text>
<text text-anchor="middle" x="1414" y="-547.28" font-family="Times,serif" font-size="20.00">[[&#39;Cross&#45;Origin&#45;Resource&#45;Policy&#39;, &#39;same&#45;origin&#39;]]</text>
<text text-anchor="middle" x="1414" y="-525.28" font-family="Times,serif" font-size="20.00">[[&#39;Cross&#45;Origin&#45;Resource&#45;Policy&#39;, &#39;same&#45;site&#39;], [&#39;location&#39;, &#39;https://sub.headers.websec.saarland/_hp/common/empty.html&#39;]]</text>
<text text-anchor="middle" x="1414" y="-503.28" font-family="Times,serif" font-size="20.00">[[&#39;Cross&#45;Origin&#45;Resource&#45;Policy&#39;, &#39;same&#45;site&#39;]]</text>
</g>
<!-- SG_0_Node_2 -->
<g id="node4" class="node">
<title>SG_0_Node_2</title>
<polygon fill="none" stroke="black" points="500,-243.64 368,-243.64 368,-207.64 500,-207.64 500,-243.64"/>
<text text-anchor="middle" x="434" y="-220.64" font-family="Times,serif" font-size="20.00">resp_origin</text>
</g>
<!-- SG_0_Node_1&#45;&gt;SG_0_Node_2 -->
<g id="edge3" class="edge">
<title>SG_0_Node_1&#45;&gt;SG_0_Node_2</title>
<path fill="none" stroke="black" d="M725.65,-410.86C629.01,-406.76 450.29,-396.33 431,-374.85 401.51,-342.03 412.87,-286.7 423.58,-253.72"/>
<polygon fill="black" stroke="black" points="427.03,-254.46 426.99,-243.86 420.42,-252.17 427.03,-254.46"/>
<text text-anchor="middle" x="617.5" y="-314.85" font-family="Times,serif" font-size="20.00">https://sub.headers.websec.saarland</text>
</g>
<!-- SG_0_Node_4 -->
<g id="node5" class="node">
<title>SG_0_Node_4</title>
<ellipse fill="none" stroke="black" cx="830" cy="-225.64" rx="33.88" ry="21.43"/>
<text text-anchor="middle" x="830" y="-220.64" font-family="Times,serif" font-size="20.00">1.0</text>
</g>
<!-- SG_0_Node_1&#45;&gt;SG_0_Node_4 -->
<g id="edge4" class="edge">
<title>SG_0_Node_1&#45;&gt;SG_0_Node_4</title>
<path fill="none" stroke="black" d="M798.2,-395.78C801.85,-389.43 805.58,-382.03 808,-374.85 821.22,-335.6 826.51,-287.84 828.61,-257.34"/>
<polygon fill="black" stroke="black" points="832.11,-257.51 829.23,-247.31 825.12,-257.08 832.11,-257.51"/>
<text text-anchor="middle" x="1008.5" y="-325.85" font-family="Times,serif" font-size="20.00">[NA]</text>
<text text-anchor="middle" x="1008.5" y="-303.85" font-family="Times,serif" font-size="20.00">http://sub.headers.websec.saarland</text>
</g>
<!-- SG_0_Node_5 -->
<g id="node6" class="node">
<title>SG_0_Node_5</title>
<ellipse fill="none" stroke="black" cx="242" cy="-37.21" rx="33.88" ry="21.43"/>
<text text-anchor="middle" x="242" y="-32.21" font-family="Times,serif" font-size="20.00">0.0</text>
</g>
<!-- SG_0_Node_2&#45;&gt;SG_0_Node_5 -->
<g id="edge5" class="edge">
<title>SG_0_Node_2&#45;&gt;SG_0_Node_5</title>
<path fill="none" stroke="black" d="M367.71,-220.13C319.04,-215.28 258.77,-205.53 243,-186.43 215.8,-153.48 223.46,-100.92 232.21,-68.06"/>
<polygon fill="black" stroke="black" points="235.66,-68.7 235.04,-58.13 228.93,-66.78 235.66,-68.7"/>
<text text-anchor="middle" x="445.5" y="-159.43" font-family="Times,serif" font-size="20.00">http://headers.webappsec.eu</text>
<text text-anchor="middle" x="445.5" y="-137.43" font-family="Times,serif" font-size="20.00">http://headers.websec.saarland</text>
<text text-anchor="middle" x="445.5" y="-115.43" font-family="Times,serif" font-size="20.00">http://sub.headers.websec.saarland</text>
<text text-anchor="middle" x="445.5" y="-93.43" font-family="Times,serif" font-size="20.00">http://sub.sub.headers.websec.saarland</text>
</g>
<!-- SG_0_Node_6 -->
<g id="node7" class="node">
<title>SG_0_Node_6</title>
<ellipse fill="none" stroke="black" cx="670" cy="-37.21" rx="33.88" ry="21.43"/>
<text text-anchor="middle" x="670" y="-32.21" font-family="Times,serif" font-size="20.00">1.0</text>
</g>
<!-- SG_0_Node_2&#45;&gt;SG_0_Node_6 -->
<g id="edge6" class="edge">
<title>SG_0_Node_2&#45;&gt;SG_0_Node_6</title>
<path fill="none" stroke="black" d="M500.01,-221.14C555.14,-216.77 627.85,-207.17 648,-186.43 678.17,-155.36 678.4,-102.02 674.88,-68.51"/>
<polygon fill="black" stroke="black" points="678.33,-67.88 673.63,-58.38 671.38,-68.73 678.33,-67.88"/>
<text text-anchor="middle" x="883.5" y="-170.43" font-family="Times,serif" font-size="20.00">[NA]</text>
<text text-anchor="middle" x="883.5" y="-148.43" font-family="Times,serif" font-size="20.00">https://headers.webappsec.eu</text>
<text text-anchor="middle" x="883.5" y="-126.43" font-family="Times,serif" font-size="20.00">https://headers.websec.saarland</text>
<text text-anchor="middle" x="883.5" y="-104.43" font-family="Times,serif" font-size="20.00">https://sub.headers.websec.saarland</text>
<text text-anchor="middle" x="883.5" y="-82.43" font-family="Times,serif" font-size="20.00">https://sub.sub.headers.websec.saarland</text>
</g>
<!-- SG_1_Node_0 -->
<g id="node8" class="node">
<title>SG_1_Node_0</title>
<polygon fill="none" stroke="black" points="2812.5,-683.28 2675.5,-683.28 2675.5,-647.28 2812.5,-647.28 2812.5,-683.28"/>
<text text-anchor="middle" x="2744" y="-660.28" font-family="Times,serif" font-size="20.00">raw_header</text>
</g>
<!-- SG_1_Node_3 -->
<g id="node9" class="node">
<title>SG_1_Node_3</title>
<ellipse fill="none" stroke="black" cx="2097" cy="-414.07" rx="33.88" ry="21.43"/>
<text text-anchor="middle" x="2097" y="-409.07" font-family="Times,serif" font-size="20.00">0.0</text>
</g>
<!-- SG_1_Node_0&#45;&gt;SG_1_Node_3 -->
<g id="edge7" class="edge">
<title>SG_1_Node_0&#45;&gt;SG_1_Node_3</title>
<path fill="none" stroke="black" d="M2675.24,-663.18C2509.17,-660.21 2098.32,-650.7 2078,-629.28 2051.08,-600.91 2069.06,-491.35 2078,-453.28 2078.76,-450.03 2079.84,-446.75 2081.11,-443.54"/>
<polygon fill="black" stroke="black" points="2084.38,-444.8 2085.32,-434.24 2078,-441.91 2084.38,-444.8"/>
<text text-anchor="middle" x="2704" y="-569.28" font-family="Times,serif" font-size="20.00">[[&#39;Cross&#45;Origin&#45;Resource&#45;Policy&#39;, &#39;same&#45;origin&#39;], [&#39;location&#39;, &#39;https://sub.headers.websec.saarland/_hp/common/empty.html&#39;]]</text>
<text text-anchor="middle" x="2704" y="-547.28" font-family="Times,serif" font-size="20.00">[[&#39;Cross&#45;Origin&#45;Resource&#45;Policy&#39;, &#39;same&#45;origin&#39;]]</text>
<text text-anchor="middle" x="2704" y="-525.28" font-family="Times,serif" font-size="20.00">[[&#39;Cross&#45;Origin&#45;Resource&#45;Policy&#39;, &#39;same&#45;site&#39;], [&#39;location&#39;, &#39;https://sub.headers.websec.saarland/_hp/common/empty.html&#39;]]</text>
<text text-anchor="middle" x="2704" y="-503.28" font-family="Times,serif" font-size="20.00">[[&#39;Cross&#45;Origin&#45;Resource&#45;Policy&#39;, &#39;same&#45;site&#39;]]</text>
</g>
<!-- SG_1_Node_1 -->
<g id="node10" class="node">
<title>SG_1_Node_1</title>
<polygon fill="none" stroke="black" points="3417,-432.07 3295,-432.07 3295,-396.07 3417,-396.07 3417,-432.07"/>
<text text-anchor="middle" x="3356" y="-409.07" font-family="Times,serif" font-size="20.00">org_origin</text>
</g>
<!-- SG_1_Node_0&#45;&gt;SG_1_Node_1 -->
<g id="edge8" class="edge">
<title>SG_1_Node_0&#45;&gt;SG_1_Node_1</title>
<path fill="none" stroke="black" d="M2812.55,-662.57C2964.04,-658.46 3315.43,-647.07 3334,-629.28 3360.15,-604.23 3359.32,-494.43 3357.37,-442.48"/>
<polygon fill="black" stroke="black" points="3360.86,-442.17 3356.95,-432.33 3353.87,-442.47 3360.86,-442.17"/>
<text text-anchor="middle" x="3723" y="-613.28" font-family="Times,serif" font-size="20.00">[NA]</text>
<text text-anchor="middle" x="3723" y="-591.28" font-family="Times,serif" font-size="20.00">[[&#39;Cross&#45;Origin&#45;Resource&#45;Policy&#39;, &#39;&#39;]]</text>
<text text-anchor="middle" x="3723" y="-569.28" font-family="Times,serif" font-size="20.00">[[&#39;Cross&#45;Origin&#45;Resource&#45;Policy&#39;, &#39;*&#39;]]</text>
<text text-anchor="middle" x="3723" y="-547.28" font-family="Times,serif" font-size="20.00">[[&#39;Cross&#45;Origin&#45;Resource&#45;Policy&#39;, &#39;cross&#45;origin&#39;]]</text>
<text text-anchor="middle" x="3723" y="-525.28" font-family="Times,serif" font-size="20.00">[[&#39;Cross&#45;Origin&#45;Resource&#45;Policy&#39;, &#39;null&#39;]]</text>
<text text-anchor="middle" x="3723" y="-503.28" font-family="Times,serif" font-size="20.00">[[&#39;Cross&#45;Origin&#45;Resource&#45;Policy&#39;, &#39;unsafe&#45;none&#39;]]</text>
<text text-anchor="middle" x="3723" y="-481.28" font-family="Times,serif" font-size="20.00">[[&#39;Cross&#45;Origin&#45;Resource&#45;Policy&#39;, &#39;unsafe&#45;none, same&#45;site, cross&#45;origin&#39;]]</text>
<text text-anchor="middle" x="3723" y="-459.28" font-family="Times,serif" font-size="20.00">[]</text>
</g>
<!-- SG_1_Node_2 -->
<g id="node11" class="node">
<title>SG_1_Node_2</title>
<polygon fill="none" stroke="black" points="3209,-243.64 3077,-243.64 3077,-207.64 3209,-207.64 3209,-243.64"/>
<text text-anchor="middle" x="3143" y="-220.64" font-family="Times,serif" font-size="20.00">resp_origin</text>
</g>
<!-- SG_1_Node_1&#45;&gt;SG_1_Node_2 -->
<g id="edge9" class="edge">
<title>SG_1_Node_1&#45;&gt;SG_1_Node_2</title>
<path fill="none" stroke="black" d="M3294.85,-410.76C3238.07,-407.17 3159.45,-398.05 3140,-374.85 3111.65,-341.04 3122.62,-286.04 3132.96,-253.4"/>
<polygon fill="black" stroke="black" points="3136.37,-254.24 3136.24,-243.64 3129.73,-252 3136.37,-254.24"/>
<text text-anchor="middle" x="3326.5" y="-314.85" font-family="Times,serif" font-size="20.00">https://sub.headers.websec.saarland</text>
</g>
<!-- SG_1_Node_4 -->
<g id="node12" class="node">
<title>SG_1_Node_4</title>
<ellipse fill="none" stroke="black" cx="3539" cy="-225.64" rx="33.88" ry="21.43"/>
<text text-anchor="middle" x="3539" y="-220.64" font-family="Times,serif" font-size="20.00">1.0</text>
</g>
<!-- SG_1_Node_1&#45;&gt;SG_1_Node_4 -->
<g id="edge10" class="edge">
<title>SG_1_Node_1&#45;&gt;SG_1_Node_4</title>
<path fill="none" stroke="black" d="M3417.26,-405.7C3456.86,-399.64 3503.45,-389.62 3517,-374.85 3546.2,-343.03 3546.78,-290.14 3543.58,-256.9"/>
<polygon fill="black" stroke="black" points="3547.04,-256.39 3542.44,-246.85 3540.09,-257.18 3547.04,-256.39"/>
<text text-anchor="middle" x="3725.5" y="-325.85" font-family="Times,serif" font-size="20.00">[NA]</text>
<text text-anchor="middle" x="3725.5" y="-303.85" font-family="Times,serif" font-size="20.00">http://sub.headers.websec.saarland</text>
</g>
<!-- SG_1_Node_5 -->
<g id="node13" class="node">
<title>SG_1_Node_5</title>
<ellipse fill="none" stroke="black" cx="2929" cy="-37.21" rx="33.88" ry="21.43"/>
<text text-anchor="middle" x="2929" y="-32.21" font-family="Times,serif" font-size="20.00">0.0</text>
</g>
<!-- SG_1_Node_2&#45;&gt;SG_1_Node_5 -->
<g id="edge11" class="edge">
<title>SG_1_Node_2&#45;&gt;SG_1_Node_5</title>
<path fill="none" stroke="black" d="M3076.84,-221.77C3021.46,-217.83 2948.58,-208.48 2930,-186.43 2902.48,-153.75 2910.23,-101.12 2919.09,-68.16"/>
<polygon fill="black" stroke="black" points="2922.55,-68.77 2921.95,-58.2 2915.82,-66.84 2922.55,-68.77"/>
<text text-anchor="middle" x="3132.5" y="-159.43" font-family="Times,serif" font-size="20.00">http://headers.webappsec.eu</text>
<text text-anchor="middle" x="3132.5" y="-137.43" font-family="Times,serif" font-size="20.00">http://headers.websec.saarland</text>
<text text-anchor="middle" x="3132.5" y="-115.43" font-family="Times,serif" font-size="20.00">http://sub.headers.websec.saarland</text>
<text text-anchor="middle" x="3132.5" y="-93.43" font-family="Times,serif" font-size="20.00">http://sub.sub.headers.websec.saarland</text>
</g>
<!-- SG_1_Node_6 -->
<g id="node14" class="node">
<title>SG_1_Node_6</title>
<ellipse fill="none" stroke="black" cx="3357" cy="-37.21" rx="33.88" ry="21.43"/>
<text text-anchor="middle" x="3357" y="-32.21" font-family="Times,serif" font-size="20.00">1.0</text>
</g>
<!-- SG_1_Node_2&#45;&gt;SG_1_Node_6 -->
<g id="edge12" class="edge">
<title>SG_1_Node_2&#45;&gt;SG_1_Node_6</title>
<path fill="none" stroke="black" d="M3209.41,-219.49C3257.85,-214.3 3317.89,-204.4 3335,-186.43 3364.78,-155.15 3365.19,-102.1 3361.79,-68.67"/>
<polygon fill="black" stroke="black" points="3365.25,-68.08 3360.59,-58.56 3358.3,-68.91 3365.25,-68.08"/>
<text text-anchor="middle" x="3570.5" y="-170.43" font-family="Times,serif" font-size="20.00">[NA]</text>
<text text-anchor="middle" x="3570.5" y="-148.43" font-family="Times,serif" font-size="20.00">https://headers.webappsec.eu</text>
<text text-anchor="middle" x="3570.5" y="-126.43" font-family="Times,serif" font-size="20.00">https://headers.websec.saarland</text>
<text text-anchor="middle" x="3570.5" y="-104.43" font-family="Times,serif" font-size="20.00">https://sub.headers.websec.saarland</text>
<text text-anchor="middle" x="3570.5" y="-82.43" font-family="Times,serif" font-size="20.00">https://sub.sub.headers.websec.saarland</text>
</g>
<!-- SG_2_Node_0 -->
<g id="node15" class="node">
<title>SG_2_Node_0</title>
<polygon fill="none" stroke="black" points="4411,-683.28 4289,-683.28 4289,-647.28 4411,-647.28 4411,-683.28"/>
<text text-anchor="middle" x="4350" y="-660.28" font-family="Times,serif" font-size="20.00">org_origin</text>
</g>
<!-- SG_2_Node_2 -->
<g id="node16" class="node">
<title>SG_2_Node_2</title>
<ellipse fill="none" stroke="black" cx="4162" cy="-414.07" rx="33.88" ry="21.43"/>
<text text-anchor="middle" x="4162" y="-409.07" font-family="Times,serif" font-size="20.00">0.0</text>
</g>
<!-- SG_2_Node_0&#45;&gt;SG_2_Node_2 -->
<g id="edge13" class="edge">
<title>SG_2_Node_0&#45;&gt;SG_2_Node_2</title>
<path fill="none" stroke="black" d="M4288.53,-661.03C4240.34,-657.05 4178.87,-648.3 4163,-629.28 4119.37,-576.97 4137.66,-489.87 4151.6,-444.53"/>
<polygon fill="black" stroke="black" points="4154.93,-445.58 4154.66,-434.99 4148.27,-443.44 4154.93,-445.58"/>
<text text-anchor="middle" x="4344.5" y="-536.28" font-family="Times,serif" font-size="20.00">http://sub.headers.websec.saarland</text>
</g>
<!-- SG_2_Node_1 -->
<g id="node17" class="node">
<title>SG_2_Node_1</title>
<polygon fill="none" stroke="black" points="4614,-432.07 4482,-432.07 4482,-396.07 4614,-396.07 4614,-432.07"/>
<text text-anchor="middle" x="4548" y="-409.07" font-family="Times,serif" font-size="20.00">resp_origin</text>
</g>
<!-- SG_2_Node_0&#45;&gt;SG_2_Node_1 -->
<g id="edge14" class="edge">
<title>SG_2_Node_0&#45;&gt;SG_2_Node_1</title>
<path fill="none" stroke="black" d="M4411.08,-659.76C4455.6,-655.12 4510.69,-646.1 4526,-629.28 4573.06,-577.58 4563.11,-487.1 4554.32,-442.09"/>
<polygon fill="black" stroke="black" points="4557.72,-441.26 4552.26,-432.18 4550.87,-442.69 4557.72,-441.26"/>
<text text-anchor="middle" x="4747.5" y="-547.28" font-family="Times,serif" font-size="20.00">[NA]</text>
<text text-anchor="middle" x="4747.5" y="-525.28" font-family="Times,serif" font-size="20.00">https://sub.headers.websec.saarland</text>
</g>
<!-- SG_2_Node_3 -->
<g id="node18" class="node">
<title>SG_2_Node_3</title>
<ellipse fill="none" stroke="black" cx="4144" cy="-225.64" rx="33.88" ry="21.43"/>
<text text-anchor="middle" x="4144" y="-220.64" font-family="Times,serif" font-size="20.00">0.0</text>
</g>
<!-- SG_2_Node_1&#45;&gt;SG_2_Node_3 -->
<g id="edge15" class="edge">
<title>SG_2_Node_1&#45;&gt;SG_2_Node_3</title>
<path fill="none" stroke="black" d="M4481.62,-409.29C4367.14,-402.46 4143.61,-387.58 4132,-374.85 4102.75,-342.79 4117.09,-288.93 4130.38,-255.72"/>
<polygon fill="black" stroke="black" points="4133.77,-256.7 4134.43,-246.12 4127.32,-253.98 4133.77,-256.7"/>
<text text-anchor="middle" x="4339.5" y="-347.85" font-family="Times,serif" font-size="20.00">https://headers.webappsec.eu</text>
<text text-anchor="middle" x="4339.5" y="-325.85" font-family="Times,serif" font-size="20.00">https://headers.websec.saarland</text>
<text text-anchor="middle" x="4339.5" y="-303.85" font-family="Times,serif" font-size="20.00">https://sub.headers.websec.saarland</text>
<text text-anchor="middle" x="4339.5" y="-281.85" font-family="Times,serif" font-size="20.00">https://sub.sub.headers.websec.saarland</text>
</g>
<!-- SG_2_Node_4 -->
<g id="node19" class="node">
<title>SG_2_Node_4</title>
<ellipse fill="none" stroke="black" cx="4566" cy="-225.64" rx="33.88" ry="21.43"/>
<text text-anchor="middle" x="4566" y="-220.64" font-family="Times,serif" font-size="20.00">1.0</text>
</g>
<!-- SG_2_Node_1&#45;&gt;SG_2_Node_4 -->
<g id="edge16" class="edge">
<title>SG_2_Node_1&#45;&gt;SG_2_Node_4</title>
<path fill="none" stroke="black" d="M4549.66,-395.86C4552.71,-364.24 4559.25,-296.5 4563.07,-256.99"/>
<polygon fill="black" stroke="black" points="4566.57,-257.17 4564.05,-246.88 4559.6,-256.5 4566.57,-257.17"/>
<text text-anchor="middle" x="4764.5" y="-358.85" font-family="Times,serif" font-size="20.00">[NA]</text>
<text text-anchor="middle" x="4764.5" y="-336.85" font-family="Times,serif" font-size="20.00">http://headers.webappsec.eu</text>
<text text-anchor="middle" x="4764.5" y="-314.85" font-family="Times,serif" font-size="20.00">http://headers.websec.saarland</text>
<text text-anchor="middle" x="4764.5" y="-292.85" font-family="Times,serif" font-size="20.00">http://sub.headers.websec.saarland</text>
<text text-anchor="middle" x="4764.5" y="-270.85" font-family="Times,serif" font-size="20.00">http://sub.sub.headers.websec.saarland</text>
</g>
</g>
</svg>
