<?xml version="1.0" encoding="UTF-8" standalone="no"?>
<!DOCTYPE svg PUBLIC "-//W3C//DTD SVG 1.1//EN"
 "http://www.w3.org/Graphics/SVG/1.1/DTD/svg11.dtd">
<!-- Generated by graphviz version 2.43.0 (0)
 -->
<!-- Title: G Pages: 1 -->
<svg width="8204pt" height="1334pt"
 viewBox="0.00 0.00 8204.00 1334.13" xmlns="http://www.w3.org/2000/svg" xmlns:xlink="http://www.w3.org/1999/xlink">
<g id="graph0" class="graph" transform="scale(1 1) rotate(0) translate(4 1330.13)">
<title>G</title>
<polygon fill="white" stroke="transparent" points="-4,4 -4,-1330.13 8200,-1330.13 8200,4 -4,4"/>
<g id="clust1" class="cluster">
<title>cluster_0</title>
<polygon fill="none" stroke="black" points="8,-516.85 8,-1318.13 885,-1318.13 885,-516.85 8,-516.85"/>
<text text-anchor="middle" x="446.5" y="-1282.13" font-family="Times,serif" font-size="40.00">Tree 0, Class message timeout</text>
</g>
<g id="clust6" class="cluster">
<title>cluster_1</title>
<polygon fill="none" stroke="black" points="893,-196.43 893,-1318.13 4497,-1318.13 4497,-196.43 893,-196.43"/>
<text text-anchor="middle" x="2695" y="-1282.13" font-family="Times,serif" font-size="40.00">Tree 0, Class {&#39;image&#45;events&#39;: {&#39;swag.jpg&#39;: &#39;error&#39;, &#39;swag&#45;same&#45;site.jpg&#39;: &#39;error&#39;, &#39;swag&#45;cross&#45;site.jpg&#39;: &#39;load&#39;, &#39;swag&#45;same&#45;origin.jpg&#39;: &#39;error&#39;}, &#39;window.crossOriginIsolated&#39;: False}</text>
</g>
<g id="clust12" class="cluster">
<title>cluster_2</title>
<polygon fill="none" stroke="black" points="4505,-8 4505,-1318.13 8180,-1318.13 8180,-8 4505,-8"/>
<text text-anchor="middle" x="6342.5" y="-1282.13" font-family="Times,serif" font-size="40.00">Tree 0, Class {&#39;image&#45;events&#39;: {&#39;swag.jpg&#39;: &#39;load&#39;, &#39;swag&#45;same&#45;site.jpg&#39;: &#39;error&#39;, &#39;swag&#45;cross&#45;site.jpg&#39;: &#39;load&#39;, &#39;swag&#45;same&#45;origin.jpg&#39;: &#39;error&#39;}, &#39;window.crossOriginIsolated&#39;: False}</text>
</g>
<!-- SG_0_Node_0 -->
<g id="node1" class="node">
<title>SG_0_Node_0</title>
<polygon fill="none" stroke="black" points="184.5,-1258.13 47.5,-1258.13 47.5,-1222.13 184.5,-1222.13 184.5,-1258.13"/>
<text text-anchor="middle" x="116" y="-1235.13" font-family="Times,serif" font-size="20.00">status_code</text>
</g>
<!-- SG_0_Node_1 -->
<g id="node2" class="node">
<title>SG_0_Node_1</title>
<polygon fill="none" stroke="black" points="157,-940.92 35,-940.92 35,-904.92 157,-904.92 157,-940.92"/>
<text text-anchor="middle" x="96" y="-917.92" font-family="Times,serif" font-size="20.00">org_origin</text>
</g>
<!-- SG_0_Node_0&#45;&gt;SG_0_Node_1 -->
<g id="edge1" class="edge">
<title>SG_0_Node_0&#45;&gt;SG_0_Node_1</title>
<path fill="none" stroke="black" d="M114.9,-1221.74C111.59,-1169.64 101.75,-1014.58 97.74,-951.29"/>
<polygon fill="black" stroke="black" points="101.23,-951.02 97.1,-941.26 94.24,-951.46 101.23,-951.02"/>
<text text-anchor="middle" x="136.5" y="-1089.13" font-family="Times,serif" font-size="20.00">[NA]</text>
<text text-anchor="middle" x="136.5" y="-1067.13" font-family="Times,serif" font-size="20.00">200</text>
</g>
<!-- SG_0_Node_3 -->
<g id="node3" class="node">
<title>SG_0_Node_3</title>
<ellipse fill="none" stroke="black" cx="209" cy="-922.92" rx="33.88" ry="21.43"/>
<text text-anchor="middle" x="209" y="-917.92" font-family="Times,serif" font-size="20.00">1.0</text>
</g>
<!-- SG_0_Node_0&#45;&gt;SG_0_Node_3 -->
<g id="edge2" class="edge">
<title>SG_0_Node_0&#45;&gt;SG_0_Node_3</title>
<path fill="none" stroke="black" d="M147.25,-1221.85C153.7,-1216.92 159.8,-1210.99 164,-1204.13 212.89,-1124.39 214.02,-1008.82 211.33,-954.41"/>
<polygon fill="black" stroke="black" points="214.82,-954.16 210.76,-944.37 207.84,-954.56 214.82,-954.16"/>
<text text-anchor="middle" x="231.5" y="-1078.13" font-family="Times,serif" font-size="20.00">302</text>
</g>
<!-- SG_0_Node_4 -->
<g id="node4" class="node">
<title>SG_0_Node_4</title>
<ellipse fill="none" stroke="black" cx="68" cy="-734.49" rx="33.88" ry="21.43"/>
<text text-anchor="middle" x="68" y="-729.49" font-family="Times,serif" font-size="20.00">0.0</text>
</g>
<!-- SG_0_Node_1&#45;&gt;SG_0_Node_4 -->
<g id="edge3" class="edge">
<title>SG_0_Node_1&#45;&gt;SG_0_Node_4</title>
<path fill="none" stroke="black" d="M80.62,-904.88C75.96,-898.66 71.44,-891.28 69,-883.71 56.39,-844.48 59.17,-796.34 63.01,-765.78"/>
<polygon fill="black" stroke="black" points="66.5,-766.13 64.39,-755.75 59.56,-765.18 66.5,-766.13"/>
<text text-anchor="middle" x="250.5" y="-823.71" font-family="Times,serif" font-size="20.00">http://sub.headers.websec.saarland</text>
</g>
<!-- SG_0_Node_2 -->
<g id="node5" class="node">
<title>SG_0_Node_2</title>
<polygon fill="none" stroke="black" points="520,-752.49 388,-752.49 388,-716.49 520,-716.49 520,-752.49"/>
<text text-anchor="middle" x="454" y="-729.49" font-family="Times,serif" font-size="20.00">resp_origin</text>
</g>
<!-- SG_0_Node_1&#45;&gt;SG_0_Node_2 -->
<g id="edge4" class="edge">
<title>SG_0_Node_1&#45;&gt;SG_0_Node_2</title>
<path fill="none" stroke="black" d="M150.76,-904.91C155.88,-903.68 161.02,-902.58 166,-901.71 195.17,-896.57 410.23,-903.8 432,-883.71 464.94,-853.29 463.5,-796.65 459.04,-762.88"/>
<polygon fill="black" stroke="black" points="462.47,-762.16 457.53,-752.79 455.55,-763.2 462.47,-762.16"/>
<text text-anchor="middle" x="647.5" y="-834.71" font-family="Times,serif" font-size="20.00">[NA]</text>
<text text-anchor="middle" x="647.5" y="-812.71" font-family="Times,serif" font-size="20.00">https://sub.headers.websec.saarland</text>
</g>
<!-- SG_0_Node_5 -->
<g id="node6" class="node">
<title>SG_0_Node_5</title>
<ellipse fill="none" stroke="black" cx="50" cy="-546.07" rx="33.88" ry="21.43"/>
<text text-anchor="middle" x="50" y="-541.07" font-family="Times,serif" font-size="20.00">0.0</text>
</g>
<!-- SG_0_Node_2&#45;&gt;SG_0_Node_5 -->
<g id="edge5" class="edge">
<title>SG_0_Node_2&#45;&gt;SG_0_Node_5</title>
<path fill="none" stroke="black" d="M387.62,-729.72C273.14,-722.89 49.61,-708 38,-695.28 8.75,-663.22 23.09,-609.35 36.38,-576.14"/>
<polygon fill="black" stroke="black" points="39.77,-577.12 40.43,-566.55 33.32,-574.4 39.77,-577.12"/>
<text text-anchor="middle" x="245.5" y="-668.28" font-family="Times,serif" font-size="20.00">https://headers.webappsec.eu</text>
<text text-anchor="middle" x="245.5" y="-646.28" font-family="Times,serif" font-size="20.00">https://headers.websec.saarland</text>
<text text-anchor="middle" x="245.5" y="-624.28" font-family="Times,serif" font-size="20.00">https://sub.headers.websec.saarland</text>
<text text-anchor="middle" x="245.5" y="-602.28" font-family="Times,serif" font-size="20.00">https://sub.sub.headers.websec.saarland</text>
</g>
<!-- SG_0_Node_6 -->
<g id="node7" class="node">
<title>SG_0_Node_6</title>
<ellipse fill="none" stroke="black" cx="472" cy="-546.07" rx="33.88" ry="21.43"/>
<text text-anchor="middle" x="472" y="-541.07" font-family="Times,serif" font-size="20.00">1.0</text>
</g>
<!-- SG_0_Node_2&#45;&gt;SG_0_Node_6 -->
<g id="edge6" class="edge">
<title>SG_0_Node_2&#45;&gt;SG_0_Node_6</title>
<path fill="none" stroke="black" d="M455.66,-716.29C458.71,-684.66 465.25,-616.92 469.07,-577.41"/>
<polygon fill="black" stroke="black" points="472.57,-577.6 470.05,-567.31 465.6,-576.92 472.57,-577.6"/>
<text text-anchor="middle" x="670.5" y="-679.28" font-family="Times,serif" font-size="20.00">[NA]</text>
<text text-anchor="middle" x="670.5" y="-657.28" font-family="Times,serif" font-size="20.00">http://headers.webappsec.eu</text>
<text text-anchor="middle" x="670.5" y="-635.28" font-family="Times,serif" font-size="20.00">http://headers.websec.saarland</text>
<text text-anchor="middle" x="670.5" y="-613.28" font-family="Times,serif" font-size="20.00">http://sub.headers.websec.saarland</text>
<text text-anchor="middle" x="670.5" y="-591.28" font-family="Times,serif" font-size="20.00">http://sub.sub.headers.websec.saarland</text>
</g>
<!-- SG_1_Node_0 -->
<g id="node8" class="node">
<title>SG_1_Node_0</title>
<polygon fill="none" stroke="black" points="1674.5,-1258.13 1537.5,-1258.13 1537.5,-1222.13 1674.5,-1222.13 1674.5,-1258.13"/>
<text text-anchor="middle" x="1606" y="-1235.13" font-family="Times,serif" font-size="20.00">raw_header</text>
</g>
<!-- SG_1_Node_4 -->
<g id="node9" class="node">
<title>SG_1_Node_4</title>
<ellipse fill="none" stroke="black" cx="1270" cy="-922.92" rx="33.88" ry="21.43"/>
<text text-anchor="middle" x="1270" y="-917.92" font-family="Times,serif" font-size="20.00">0.0</text>
</g>
<!-- SG_1_Node_0&#45;&gt;SG_1_Node_4 -->
<g id="edge7" class="edge">
<title>SG_1_Node_0&#45;&gt;SG_1_Node_4</title>
<path fill="none" stroke="black" d="M1537.29,-1236.77C1444.47,-1232.87 1288.5,-1223.49 1271,-1204.13 1207.88,-1134.32 1239.59,-1010 1258.85,-953.42"/>
<polygon fill="black" stroke="black" points="1262.26,-954.27 1262.27,-943.67 1255.66,-951.95 1262.26,-954.27"/>
<text text-anchor="middle" x="1913.5" y="-1188.13" font-family="Times,serif" font-size="20.00">[NA]</text>
<text text-anchor="middle" x="1913.5" y="-1166.13" font-family="Times,serif" font-size="20.00">[[&#39;Cross&#45;Origin&#45;Embedder&#45;Policy&#39;, &#39;&#39;]]</text>
<text text-anchor="middle" x="1913.5" y="-1144.13" font-family="Times,serif" font-size="20.00">[[&#39;Cross&#45;Origin&#45;Embedder&#45;Policy&#39;, &#39;*&#39;]]</text>
<text text-anchor="middle" x="1913.5" y="-1122.13" font-family="Times,serif" font-size="20.00">[[&#39;Cross&#45;Origin&#45;Embedder&#45;Policy&#39;, &#39;credentialless&#39;], [&#39;location&#39;, &#39;https://sub.headers.websec.saarland/_hp/common/empty.html&#39;]]</text>
<text text-anchor="middle" x="1913.5" y="-1100.13" font-family="Times,serif" font-size="20.00">[[&#39;Cross&#45;Origin&#45;Embedder&#45;Policy&#39;, &#39;credentialless&#39;]]</text>
<text text-anchor="middle" x="1913.5" y="-1078.13" font-family="Times,serif" font-size="20.00">[[&#39;Cross&#45;Origin&#45;Embedder&#45;Policy&#39;, &#39;cross&#45;origin&#39;]]</text>
<text text-anchor="middle" x="1913.5" y="-1056.13" font-family="Times,serif" font-size="20.00">[[&#39;Cross&#45;Origin&#45;Embedder&#45;Policy&#39;, &#39;null&#39;]]</text>
<text text-anchor="middle" x="1913.5" y="-1034.13" font-family="Times,serif" font-size="20.00">[[&#39;Cross&#45;Origin&#45;Embedder&#45;Policy&#39;, &#39;require&#45;corp&#39;], [&#39;location&#39;, &#39;https://sub.headers.websec.saarland/_hp/common/empty.html&#39;]]</text>
<text text-anchor="middle" x="1913.5" y="-1012.13" font-family="Times,serif" font-size="20.00">[[&#39;Cross&#45;Origin&#45;Embedder&#45;Policy&#39;, &#39;unsafe&#45;none&#39;]]</text>
<text text-anchor="middle" x="1913.5" y="-990.13" font-family="Times,serif" font-size="20.00">[[&#39;Cross&#45;Origin&#45;Embedder&#45;Policy&#39;, &#39;unsafe&#45;none, credentialless, cross&#45;origin&#39;]]</text>
<text text-anchor="middle" x="1913.5" y="-968.13" font-family="Times,serif" font-size="20.00">[]</text>
</g>
<!-- SG_1_Node_1 -->
<g id="node10" class="node">
<title>SG_1_Node_1</title>
<polygon fill="none" stroke="black" points="2644,-940.92 2512,-940.92 2512,-904.92 2644,-904.92 2644,-940.92"/>
<text text-anchor="middle" x="2578" y="-917.92" font-family="Times,serif" font-size="20.00">resp_origin</text>
</g>
<!-- SG_1_Node_0&#45;&gt;SG_1_Node_1 -->
<g id="edge8" class="edge">
<title>SG_1_Node_0&#45;&gt;SG_1_Node_1</title>
<path fill="none" stroke="black" d="M1674.72,-1239.08C1887.69,-1238.58 2524.29,-1234.55 2556,-1204.13 2625.47,-1137.49 2600.93,-1007.14 2586.02,-950.86"/>
<polygon fill="black" stroke="black" points="2589.32,-949.65 2583.29,-940.94 2582.57,-951.51 2589.32,-949.65"/>
<text text-anchor="middle" x="2852.5" y="-1078.13" font-family="Times,serif" font-size="20.00">[[&#39;Cross&#45;Origin&#45;Embedder&#45;Policy&#39;, &#39;require&#45;corp&#39;]]</text>
</g>
<!-- SG_1_Node_5 -->
<g id="node11" class="node">
<title>SG_1_Node_5</title>
<ellipse fill="none" stroke="black" cx="2364" cy="-734.49" rx="33.88" ry="21.43"/>
<text text-anchor="middle" x="2364" y="-729.49" font-family="Times,serif" font-size="20.00">0.0</text>
</g>
<!-- SG_1_Node_1&#45;&gt;SG_1_Node_5 -->
<g id="edge9" class="edge">
<title>SG_1_Node_1&#45;&gt;SG_1_Node_5</title>
<path fill="none" stroke="black" d="M2511.84,-919.05C2456.46,-915.1 2383.58,-905.76 2365,-883.71 2337.48,-851.03 2345.23,-798.4 2354.09,-765.44"/>
<polygon fill="black" stroke="black" points="2357.55,-766.05 2356.95,-755.48 2350.82,-764.12 2357.55,-766.05"/>
<text text-anchor="middle" x="2567.5" y="-856.71" font-family="Times,serif" font-size="20.00">http://headers.webappsec.eu</text>
<text text-anchor="middle" x="2567.5" y="-834.71" font-family="Times,serif" font-size="20.00">http://headers.websec.saarland</text>
<text text-anchor="middle" x="2567.5" y="-812.71" font-family="Times,serif" font-size="20.00">http://sub.headers.websec.saarland</text>
<text text-anchor="middle" x="2567.5" y="-790.71" font-family="Times,serif" font-size="20.00">http://sub.sub.headers.websec.saarland</text>
</g>
<!-- SG_1_Node_2 -->
<g id="node12" class="node">
<title>SG_1_Node_2</title>
<polygon fill="none" stroke="black" points="2853,-752.49 2731,-752.49 2731,-716.49 2853,-716.49 2853,-752.49"/>
<text text-anchor="middle" x="2792" y="-729.49" font-family="Times,serif" font-size="20.00">org_origin</text>
</g>
<!-- SG_1_Node_1&#45;&gt;SG_1_Node_2 -->
<g id="edge10" class="edge">
<title>SG_1_Node_1&#45;&gt;SG_1_Node_2</title>
<path fill="none" stroke="black" d="M2644.41,-916.77C2692.85,-911.58 2752.89,-901.67 2770,-883.71 2800.75,-851.4 2800.18,-795.89 2796.45,-762.75"/>
<polygon fill="black" stroke="black" points="2799.92,-762.3 2795.16,-752.83 2792.98,-763.2 2799.92,-762.3"/>
<text text-anchor="middle" x="3005.5" y="-867.71" font-family="Times,serif" font-size="20.00">[NA]</text>
<text text-anchor="middle" x="3005.5" y="-845.71" font-family="Times,serif" font-size="20.00">https://headers.webappsec.eu</text>
<text text-anchor="middle" x="3005.5" y="-823.71" font-family="Times,serif" font-size="20.00">https://headers.websec.saarland</text>
<text text-anchor="middle" x="3005.5" y="-801.71" font-family="Times,serif" font-size="20.00">https://sub.headers.websec.saarland</text>
<text text-anchor="middle" x="3005.5" y="-779.71" font-family="Times,serif" font-size="20.00">https://sub.sub.headers.websec.saarland</text>
</g>
<!-- SG_1_Node_3 -->
<g id="node13" class="node">
<title>SG_1_Node_3</title>
<polygon fill="none" stroke="black" points="2649.5,-564.07 2548.5,-564.07 2548.5,-528.07 2649.5,-528.07 2649.5,-564.07"/>
<text text-anchor="middle" x="2599" y="-541.07" font-family="Times,serif" font-size="20.00">browser</text>
</g>
<!-- SG_1_Node_2&#45;&gt;SG_1_Node_3 -->
<g id="edge11" class="edge">
<title>SG_1_Node_2&#45;&gt;SG_1_Node_3</title>
<path fill="none" stroke="black" d="M2730.83,-729.56C2681.06,-724.93 2616.45,-715.19 2600,-695.28 2572.05,-661.45 2580.89,-606.92 2589.92,-574.28"/>
<polygon fill="black" stroke="black" points="2593.33,-575.09 2592.8,-564.5 2586.61,-573.1 2593.33,-575.09"/>
<text text-anchor="middle" x="2781.5" y="-635.28" font-family="Times,serif" font-size="20.00">http://sub.headers.websec.saarland</text>
</g>
<!-- SG_1_Node_6 -->
<g id="node14" class="node">
<title>SG_1_Node_6</title>
<ellipse fill="none" stroke="black" cx="2985" cy="-546.07" rx="33.88" ry="21.43"/>
<text text-anchor="middle" x="2985" y="-541.07" font-family="Times,serif" font-size="20.00">1.0</text>
</g>
<!-- SG_1_Node_2&#45;&gt;SG_1_Node_6 -->
<g id="edge12" class="edge">
<title>SG_1_Node_2&#45;&gt;SG_1_Node_6</title>
<path fill="none" stroke="black" d="M2853.43,-727.1C2896.21,-721.33 2948.14,-711.26 2963,-695.28 2992.41,-663.65 2992.93,-610.71 2989.66,-577.4"/>
<polygon fill="black" stroke="black" points="2993.12,-576.86 2988.49,-567.33 2986.16,-577.66 2993.12,-576.86"/>
<text text-anchor="middle" x="3177.5" y="-646.28" font-family="Times,serif" font-size="20.00">[NA]</text>
<text text-anchor="middle" x="3177.5" y="-624.28" font-family="Times,serif" font-size="20.00">https://sub.headers.websec.saarland</text>
</g>
<!-- SG_1_Node_7 -->
<g id="node15" class="node">
<title>SG_1_Node_7</title>
<ellipse fill="none" stroke="black" cx="2542" cy="-225.64" rx="33.88" ry="21.43"/>
<text text-anchor="middle" x="2542" y="-220.64" font-family="Times,serif" font-size="20.00">0.0</text>
</g>
<!-- SG_1_Node_3&#45;&gt;SG_1_Node_7 -->
<g id="edge13" class="edge">
<title>SG_1_Node_3&#45;&gt;SG_1_Node_7</title>
<path fill="none" stroke="black" d="M2562.83,-527.92C2554.89,-522.36 2547.52,-515.38 2543,-506.85 2499.72,-425.27 2520.08,-310.59 2533.49,-256.76"/>
<polygon fill="black" stroke="black" points="2536.95,-257.39 2536.06,-246.84 2530.17,-255.64 2536.95,-257.39"/>
<text text-anchor="middle" x="2588.5" y="-391.85" font-family="Times,serif" font-size="20.00">[NA]</text>
<text text-anchor="middle" x="2588.5" y="-369.85" font-family="Times,serif" font-size="20.00">18 levels</text>
</g>
<!-- SG_1_Node_8 -->
<g id="node16" class="node">
<title>SG_1_Node_8</title>
<ellipse fill="none" stroke="black" cx="2656" cy="-225.64" rx="33.88" ry="21.43"/>
<text text-anchor="middle" x="2656" y="-220.64" font-family="Times,serif" font-size="20.00">1.0</text>
</g>
<!-- SG_1_Node_3&#45;&gt;SG_1_Node_8 -->
<g id="edge14" class="edge">
<title>SG_1_Node_3&#45;&gt;SG_1_Node_8</title>
<path fill="none" stroke="black" d="M2619.26,-527.84C2625.02,-521.82 2630.63,-514.61 2634,-506.85 2670.66,-422.48 2665.26,-310.42 2659.86,-257.2"/>
<polygon fill="black" stroke="black" points="2663.32,-256.63 2658.76,-247.07 2656.36,-257.39 2663.32,-256.63"/>
<text text-anchor="middle" x="2854" y="-380.85" font-family="Times,serif" font-size="20.00">safari macOS 14.0 17.0 selenium real</text>
</g>
<!-- SG_2_Node_0 -->
<g id="node17" class="node">
<title>SG_2_Node_0</title>
<polygon fill="none" stroke="black" points="5856.5,-1258.13 5719.5,-1258.13 5719.5,-1222.13 5856.5,-1222.13 5856.5,-1258.13"/>
<text text-anchor="middle" x="5788" y="-1235.13" font-family="Times,serif" font-size="20.00">status_code</text>
</g>
<!-- SG_2_Node_7 -->
<g id="node18" class="node">
<title>SG_2_Node_7</title>
<ellipse fill="none" stroke="black" cx="5732" cy="-922.92" rx="33.88" ry="21.43"/>
<text text-anchor="middle" x="5732" y="-917.92" font-family="Times,serif" font-size="20.00">0.0</text>
</g>
<!-- SG_2_Node_0&#45;&gt;SG_2_Node_7 -->
<g id="edge15" class="edge">
<title>SG_2_Node_0&#45;&gt;SG_2_Node_7</title>
<path fill="none" stroke="black" d="M5778.41,-1222.12C5775.63,-1216.54 5772.85,-1210.21 5771,-1204.13 5744.25,-1116.17 5735.77,-1007.03 5733.14,-954.71"/>
<polygon fill="black" stroke="black" points="5736.62,-954.26 5732.66,-944.43 5729.63,-954.59 5736.62,-954.26"/>
<text text-anchor="middle" x="5790.5" y="-1078.13" font-family="Times,serif" font-size="20.00">302</text>
</g>
<!-- SG_2_Node_1 -->
<g id="node19" class="node">
<title>SG_2_Node_1</title>
<polygon fill="none" stroke="black" points="5906,-940.92 5784,-940.92 5784,-904.92 5906,-904.92 5906,-940.92"/>
<text text-anchor="middle" x="5845" y="-917.92" font-family="Times,serif" font-size="20.00">org_origin</text>
</g>
<!-- SG_2_Node_0&#45;&gt;SG_2_Node_1 -->
<g id="edge16" class="edge">
<title>SG_2_Node_0&#45;&gt;SG_2_Node_1</title>
<path fill="none" stroke="black" d="M5800.79,-1222.1C5804.32,-1216.62 5807.78,-1210.35 5810,-1204.13 5841.62,-1115.51 5845.5,-1002.28 5845.46,-951.14"/>
<polygon fill="black" stroke="black" points="5848.96,-950.9 5845.4,-940.93 5841.96,-950.95 5848.96,-950.9"/>
<text text-anchor="middle" x="5868.5" y="-1089.13" font-family="Times,serif" font-size="20.00">[NA]</text>
<text text-anchor="middle" x="5868.5" y="-1067.13" font-family="Times,serif" font-size="20.00">200</text>
</g>
<!-- SG_2_Node_2 -->
<g id="node20" class="node">
<title>SG_2_Node_2</title>
<polygon fill="none" stroke="black" points="5275,-752.49 5143,-752.49 5143,-716.49 5275,-716.49 5275,-752.49"/>
<text text-anchor="middle" x="5209" y="-729.49" font-family="Times,serif" font-size="20.00">resp_origin</text>
</g>
<!-- SG_2_Node_1&#45;&gt;SG_2_Node_2 -->
<g id="edge17" class="edge">
<title>SG_2_Node_1&#45;&gt;SG_2_Node_2</title>
<path fill="none" stroke="black" d="M5789.84,-904.88C5784.85,-903.67 5779.85,-902.59 5775,-901.71 5675.87,-883.64 5646.75,-908.17 5549,-883.71 5434.33,-855 5309.28,-791.25 5247.71,-757.48"/>
<polygon fill="black" stroke="black" points="5249.18,-754.29 5238.73,-752.52 5245.8,-760.42 5249.18,-754.29"/>
<text text-anchor="middle" x="5735.5" y="-823.71" font-family="Times,serif" font-size="20.00">https://sub.headers.websec.saarland</text>
</g>
<!-- SG_2_Node_3 -->
<g id="node21" class="node">
<title>SG_2_Node_3</title>
<polygon fill="none" stroke="black" points="6270.5,-752.49 6169.5,-752.49 6169.5,-716.49 6270.5,-716.49 6270.5,-752.49"/>
<text text-anchor="middle" x="6220" y="-729.49" font-family="Times,serif" font-size="20.00">browser</text>
</g>
<!-- SG_2_Node_1&#45;&gt;SG_2_Node_3 -->
<g id="edge18" class="edge">
<title>SG_2_Node_1&#45;&gt;SG_2_Node_3</title>
<path fill="none" stroke="black" d="M5879.27,-904.88C5947.68,-870.87 6101.02,-794.64 6176.44,-757.15"/>
<polygon fill="black" stroke="black" points="6178.28,-760.14 6185.67,-752.56 6175.16,-753.88 6178.28,-760.14"/>
<text text-anchor="middle" x="6320.5" y="-834.71" font-family="Times,serif" font-size="20.00">[NA]</text>
<text text-anchor="middle" x="6320.5" y="-812.71" font-family="Times,serif" font-size="20.00">http://sub.headers.websec.saarland</text>
</g>
<!-- SG_2_Node_8 -->
<g id="node22" class="node">
<title>SG_2_Node_8</title>
<ellipse fill="none" stroke="black" cx="4781" cy="-546.07" rx="33.88" ry="21.43"/>
<text text-anchor="middle" x="4781" y="-541.07" font-family="Times,serif" font-size="20.00">0.0</text>
</g>
<!-- SG_2_Node_2&#45;&gt;SG_2_Node_8 -->
<g id="edge25" class="edge">
<title>SG_2_Node_2&#45;&gt;SG_2_Node_8</title>
<path fill="none" stroke="black" d="M5142.63,-732.43C5027.83,-729.9 4802.09,-721.6 4778,-695.28 4748.87,-663.45 4759.18,-609.74 4769.77,-576.46"/>
<polygon fill="black" stroke="black" points="4773.13,-577.43 4773.02,-566.84 4766.5,-575.19 4773.13,-577.43"/>
<text text-anchor="middle" x="4980.5" y="-668.28" font-family="Times,serif" font-size="20.00">http://headers.webappsec.eu</text>
<text text-anchor="middle" x="4980.5" y="-646.28" font-family="Times,serif" font-size="20.00">http://headers.websec.saarland</text>
<text text-anchor="middle" x="4980.5" y="-624.28" font-family="Times,serif" font-size="20.00">http://sub.headers.websec.saarland</text>
<text text-anchor="middle" x="4980.5" y="-602.28" font-family="Times,serif" font-size="20.00">http://sub.sub.headers.websec.saarland</text>
</g>
<!-- SG_2_Node_4 -->
<g id="node23" class="node">
<title>SG_2_Node_4</title>
<polygon fill="none" stroke="black" points="5123.5,-564.07 4986.5,-564.07 4986.5,-528.07 5123.5,-528.07 5123.5,-564.07"/>
<text text-anchor="middle" x="5055" y="-541.07" font-family="Times,serif" font-size="20.00">raw_header</text>
</g>
<!-- SG_2_Node_2&#45;&gt;SG_2_Node_4 -->
<g id="edge26" class="edge">
<title>SG_2_Node_2&#45;&gt;SG_2_Node_4</title>
<path fill="none" stroke="black" d="M5211.85,-716.44C5215.89,-686.11 5219.52,-622.5 5187,-585.28 5173.31,-569.61 5153.62,-560.18 5133.61,-554.56"/>
<polygon fill="black" stroke="black" points="5134.34,-551.14 5123.79,-552.1 5132.64,-557.92 5134.34,-551.14"/>
<text text-anchor="middle" x="5421.5" y="-679.28" font-family="Times,serif" font-size="20.00">[NA]</text>
<text text-anchor="middle" x="5421.5" y="-657.28" font-family="Times,serif" font-size="20.00">https://headers.webappsec.eu</text>
<text text-anchor="middle" x="5421.5" y="-635.28" font-family="Times,serif" font-size="20.00">https://headers.websec.saarland</text>
<text text-anchor="middle" x="5421.5" y="-613.28" font-family="Times,serif" font-size="20.00">https://sub.headers.websec.saarland</text>
<text text-anchor="middle" x="5421.5" y="-591.28" font-family="Times,serif" font-size="20.00">https://sub.sub.headers.websec.saarland</text>
</g>
<!-- SG_2_Node_5 -->
<g id="node24" class="node">
<title>SG_2_Node_5</title>
<polygon fill="none" stroke="black" points="6431.5,-564.07 6294.5,-564.07 6294.5,-528.07 6431.5,-528.07 6431.5,-564.07"/>
<text text-anchor="middle" x="6363" y="-541.07" font-family="Times,serif" font-size="20.00">raw_header</text>
</g>
<!-- SG_2_Node_3&#45;&gt;SG_2_Node_5 -->
<g id="edge19" class="edge">
<title>SG_2_Node_3&#45;&gt;SG_2_Node_5</title>
<path fill="none" stroke="black" d="M6214.06,-716.26C6204.9,-686.22 6191.28,-623.78 6221,-585.28 6229.48,-574.3 6256.35,-565.75 6284.47,-559.55"/>
<polygon fill="black" stroke="black" points="6285.38,-562.94 6294.44,-557.46 6283.94,-556.09 6285.38,-562.94"/>
<text text-anchor="middle" x="6412" y="-635.28" font-family="Times,serif" font-size="20.00">safari macOS 14.0 17.0 selenium real</text>
</g>
<!-- SG_2_Node_9 -->
<g id="node25" class="node">
<title>SG_2_Node_9</title>
<ellipse fill="none" stroke="black" cx="6625" cy="-546.07" rx="33.88" ry="21.43"/>
<text text-anchor="middle" x="6625" y="-541.07" font-family="Times,serif" font-size="20.00">1.0</text>
</g>
<!-- SG_2_Node_3&#45;&gt;SG_2_Node_9 -->
<g id="edge20" class="edge">
<title>SG_2_Node_3&#45;&gt;SG_2_Node_9</title>
<path fill="none" stroke="black" d="M6270.86,-731.85C6369.54,-728.16 6579.42,-717.76 6603,-695.28 6634.43,-665.32 6634.23,-611.41 6630.28,-577.52"/>
<polygon fill="black" stroke="black" points="6633.7,-576.73 6628.9,-567.28 6626.77,-577.66 6633.7,-576.73"/>
<text text-anchor="middle" x="6677.5" y="-646.28" font-family="Times,serif" font-size="20.00">[NA]</text>
<text text-anchor="middle" x="6677.5" y="-624.28" font-family="Times,serif" font-size="20.00">18 levels</text>
</g>
<!-- SG_2_Node_10 -->
<g id="node26" class="node">
<title>SG_2_Node_10</title>
<ellipse fill="none" stroke="black" cx="4547" cy="-225.64" rx="33.88" ry="21.43"/>
<text text-anchor="middle" x="4547" y="-220.64" font-family="Times,serif" font-size="20.00">0.0</text>
</g>
<!-- SG_2_Node_4&#45;&gt;SG_2_Node_10 -->
<g id="edge27" class="edge">
<title>SG_2_Node_4&#45;&gt;SG_2_Node_10</title>
<path fill="none" stroke="black" d="M4986.42,-535.14C4940.55,-528.88 4878.78,-521.19 4824,-516.85 4808.82,-515.65 4560.63,-517.76 4550,-506.85 4484.01,-439.14 4516.48,-312.76 4535.95,-255.8"/>
<polygon fill="black" stroke="black" points="4539.27,-256.91 4539.29,-246.32 4532.67,-254.59 4539.27,-256.91"/>
<text text-anchor="middle" x="4800.5" y="-380.85" font-family="Times,serif" font-size="20.00">[[&#39;Cross&#45;Origin&#45;Embedder&#45;Policy&#39;, &#39;require&#45;corp&#39;]]</text>
</g>
<!-- SG_2_Node_11 -->
<g id="node27" class="node">
<title>SG_2_Node_11</title>
<ellipse fill="none" stroke="black" cx="5055" cy="-225.64" rx="33.88" ry="21.43"/>
<text text-anchor="middle" x="5055" y="-220.64" font-family="Times,serif" font-size="20.00">1.0</text>
</g>
<!-- SG_2_Node_4&#45;&gt;SG_2_Node_11 -->
<g id="edge28" class="edge">
<title>SG_2_Node_4&#45;&gt;SG_2_Node_11</title>
<path fill="none" stroke="black" d="M5055,-527.95C5055,-476.55 5055,-323.1 5055,-257.23"/>
<polygon fill="black" stroke="black" points="5058.5,-257.07 5055,-247.07 5051.5,-257.07 5058.5,-257.07"/>
<text text-anchor="middle" x="5697.5" y="-490.85" font-family="Times,serif" font-size="20.00">[NA]</text>
<text text-anchor="middle" x="5697.5" y="-468.85" font-family="Times,serif" font-size="20.00">[[&#39;Cross&#45;Origin&#45;Embedder&#45;Policy&#39;, &#39;&#39;]]</text>
<text text-anchor="middle" x="5697.5" y="-446.85" font-family="Times,serif" font-size="20.00">[[&#39;Cross&#45;Origin&#45;Embedder&#45;Policy&#39;, &#39;*&#39;]]</text>
<text text-anchor="middle" x="5697.5" y="-424.85" font-family="Times,serif" font-size="20.00">[[&#39;Cross&#45;Origin&#45;Embedder&#45;Policy&#39;, &#39;credentialless&#39;], [&#39;location&#39;, &#39;https://sub.headers.websec.saarland/_hp/common/empty.html&#39;]]</text>
<text text-anchor="middle" x="5697.5" y="-402.85" font-family="Times,serif" font-size="20.00">[[&#39;Cross&#45;Origin&#45;Embedder&#45;Policy&#39;, &#39;credentialless&#39;]]</text>
<text text-anchor="middle" x="5697.5" y="-380.85" font-family="Times,serif" font-size="20.00">[[&#39;Cross&#45;Origin&#45;Embedder&#45;Policy&#39;, &#39;cross&#45;origin&#39;]]</text>
<text text-anchor="middle" x="5697.5" y="-358.85" font-family="Times,serif" font-size="20.00">[[&#39;Cross&#45;Origin&#45;Embedder&#45;Policy&#39;, &#39;null&#39;]]</text>
<text text-anchor="middle" x="5697.5" y="-336.85" font-family="Times,serif" font-size="20.00">[[&#39;Cross&#45;Origin&#45;Embedder&#45;Policy&#39;, &#39;require&#45;corp&#39;], [&#39;location&#39;, &#39;https://sub.headers.websec.saarland/_hp/common/empty.html&#39;]]</text>
<text text-anchor="middle" x="5697.5" y="-314.85" font-family="Times,serif" font-size="20.00">[[&#39;Cross&#45;Origin&#45;Embedder&#45;Policy&#39;, &#39;unsafe&#45;none&#39;]]</text>
<text text-anchor="middle" x="5697.5" y="-292.85" font-family="Times,serif" font-size="20.00">[[&#39;Cross&#45;Origin&#45;Embedder&#45;Policy&#39;, &#39;unsafe&#45;none, credentialless, cross&#45;origin&#39;]]</text>
<text text-anchor="middle" x="5697.5" y="-270.85" font-family="Times,serif" font-size="20.00">[]</text>
</g>
<!-- SG_2_Node_6 -->
<g id="node28" class="node">
<title>SG_2_Node_6</title>
<polygon fill="none" stroke="black" points="6429,-243.64 6297,-243.64 6297,-207.64 6429,-207.64 6429,-243.64"/>
<text text-anchor="middle" x="6363" y="-220.64" font-family="Times,serif" font-size="20.00">resp_origin</text>
</g>
<!-- SG_2_Node_5&#45;&gt;SG_2_Node_6 -->
<g id="edge21" class="edge">
<title>SG_2_Node_5&#45;&gt;SG_2_Node_6</title>
<path fill="none" stroke="black" d="M6363,-527.95C6363,-475.68 6363,-317.87 6363,-253.95"/>
<polygon fill="black" stroke="black" points="6366.5,-253.84 6363,-243.84 6359.5,-253.84 6366.5,-253.84"/>
<text text-anchor="middle" x="6613.5" y="-380.85" font-family="Times,serif" font-size="20.00">[[&#39;Cross&#45;Origin&#45;Embedder&#45;Policy&#39;, &#39;require&#45;corp&#39;]]</text>
</g>
<!-- SG_2_Node_12 -->
<g id="node29" class="node">
<title>SG_2_Node_12</title>
<ellipse fill="none" stroke="black" cx="6887" cy="-225.64" rx="33.88" ry="21.43"/>
<text text-anchor="middle" x="6887" y="-220.64" font-family="Times,serif" font-size="20.00">1.0</text>
</g>
<!-- SG_2_Node_5&#45;&gt;SG_2_Node_12 -->
<g id="edge22" class="edge">
<title>SG_2_Node_5&#45;&gt;SG_2_Node_12</title>
<path fill="none" stroke="black" d="M6431.87,-534.53C6474.92,-528.36 6531.57,-520.98 6582,-516.85 6597.68,-515.57 6853.64,-517.74 6865,-506.85 6933.34,-441.39 6910.76,-314.31 6895.8,-256.53"/>
<polygon fill="black" stroke="black" points="6899.1,-255.32 6893.12,-246.57 6892.34,-257.14 6899.1,-255.32"/>
<text text-anchor="middle" x="7553.5" y="-490.85" font-family="Times,serif" font-size="20.00">[NA]</text>
<text text-anchor="middle" x="7553.5" y="-468.85" font-family="Times,serif" font-size="20.00">[[&#39;Cross&#45;Origin&#45;Embedder&#45;Policy&#39;, &#39;&#39;]]</text>
<text text-anchor="middle" x="7553.5" y="-446.85" font-family="Times,serif" font-size="20.00">[[&#39;Cross&#45;Origin&#45;Embedder&#45;Policy&#39;, &#39;*&#39;]]</text>
<text text-anchor="middle" x="7553.5" y="-424.85" font-family="Times,serif" font-size="20.00">[[&#39;Cross&#45;Origin&#45;Embedder&#45;Policy&#39;, &#39;credentialless&#39;], [&#39;location&#39;, &#39;https://sub.headers.websec.saarland/_hp/common/empty.html&#39;]]</text>
<text text-anchor="middle" x="7553.5" y="-402.85" font-family="Times,serif" font-size="20.00">[[&#39;Cross&#45;Origin&#45;Embedder&#45;Policy&#39;, &#39;credentialless&#39;]]</text>
<text text-anchor="middle" x="7553.5" y="-380.85" font-family="Times,serif" font-size="20.00">[[&#39;Cross&#45;Origin&#45;Embedder&#45;Policy&#39;, &#39;cross&#45;origin&#39;]]</text>
<text text-anchor="middle" x="7553.5" y="-358.85" font-family="Times,serif" font-size="20.00">[[&#39;Cross&#45;Origin&#45;Embedder&#45;Policy&#39;, &#39;null&#39;]]</text>
<text text-anchor="middle" x="7553.5" y="-336.85" font-family="Times,serif" font-size="20.00">[[&#39;Cross&#45;Origin&#45;Embedder&#45;Policy&#39;, &#39;require&#45;corp&#39;], [&#39;location&#39;, &#39;https://sub.headers.websec.saarland/_hp/common/empty.html&#39;]]</text>
<text text-anchor="middle" x="7553.5" y="-314.85" font-family="Times,serif" font-size="20.00">[[&#39;Cross&#45;Origin&#45;Embedder&#45;Policy&#39;, &#39;unsafe&#45;none&#39;]]</text>
<text text-anchor="middle" x="7553.5" y="-292.85" font-family="Times,serif" font-size="20.00">[[&#39;Cross&#45;Origin&#45;Embedder&#45;Policy&#39;, &#39;unsafe&#45;none, credentialless, cross&#45;origin&#39;]]</text>
<text text-anchor="middle" x="7553.5" y="-270.85" font-family="Times,serif" font-size="20.00">[]</text>
</g>
<!-- SG_2_Node_13 -->
<g id="node30" class="node">
<title>SG_2_Node_13</title>
<ellipse fill="none" stroke="black" cx="6144" cy="-37.21" rx="33.88" ry="21.43"/>
<text text-anchor="middle" x="6144" y="-32.21" font-family="Times,serif" font-size="20.00">0.0</text>
</g>
<!-- SG_2_Node_6&#45;&gt;SG_2_Node_13 -->
<g id="edge23" class="edge">
<title>SG_2_Node_6&#45;&gt;SG_2_Node_13</title>
<path fill="none" stroke="black" d="M6296.96,-222.11C6240.09,-218.38 6164.23,-209.16 6145,-186.43 6117.41,-153.81 6125.19,-101.15 6134.06,-68.18"/>
<polygon fill="black" stroke="black" points="6137.53,-68.79 6136.94,-58.21 6130.8,-66.85 6137.53,-68.79"/>
<text text-anchor="middle" x="6352.5" y="-159.43" font-family="Times,serif" font-size="20.00">https://headers.webappsec.eu</text>
<text text-anchor="middle" x="6352.5" y="-137.43" font-family="Times,serif" font-size="20.00">https://headers.websec.saarland</text>
<text text-anchor="middle" x="6352.5" y="-115.43" font-family="Times,serif" font-size="20.00">https://sub.headers.websec.saarland</text>
<text text-anchor="middle" x="6352.5" y="-93.43" font-family="Times,serif" font-size="20.00">https://sub.sub.headers.websec.saarland</text>
</g>
<!-- SG_2_Node_14 -->
<g id="node31" class="node">
<title>SG_2_Node_14</title>
<ellipse fill="none" stroke="black" cx="6582" cy="-37.21" rx="33.88" ry="21.43"/>
<text text-anchor="middle" x="6582" y="-32.21" font-family="Times,serif" font-size="20.00">1.0</text>
</g>
<!-- SG_2_Node_6&#45;&gt;SG_2_Node_14 -->
<g id="edge24" class="edge">
<title>SG_2_Node_6&#45;&gt;SG_2_Node_14</title>
<path fill="none" stroke="black" d="M6429.09,-219.92C6479.12,-214.92 6542.18,-205.05 6560,-186.43 6589.94,-155.13 6590.24,-101.86 6586.79,-68.43"/>
<polygon fill="black" stroke="black" points="6590.25,-67.83 6585.57,-58.32 6583.3,-68.67 6590.25,-67.83"/>
<text text-anchor="middle" x="6790.5" y="-170.43" font-family="Times,serif" font-size="20.00">[NA]</text>
<text text-anchor="middle" x="6790.5" y="-148.43" font-family="Times,serif" font-size="20.00">http://headers.webappsec.eu</text>
<text text-anchor="middle" x="6790.5" y="-126.43" font-family="Times,serif" font-size="20.00">http://headers.websec.saarland</text>
<text text-anchor="middle" x="6790.5" y="-104.43" font-family="Times,serif" font-size="20.00">http://sub.headers.websec.saarland</text>
<text text-anchor="middle" x="6790.5" y="-82.43" font-family="Times,serif" font-size="20.00">http://sub.sub.headers.websec.saarland</text>
</g>
</g>
</svg>
