<?xml version="1.0" encoding="UTF-8" standalone="no"?>
<!DOCTYPE svg PUBLIC "-//W3C//DTD SVG 1.1//EN"
 "http://www.w3.org/Graphics/SVG/1.1/DTD/svg11.dtd">
<!-- Generated by graphviz version 2.43.0 (0)
 -->
<!-- Title: G Pages: 1 -->
<svg width="4322pt" height="1274pt"
 viewBox="0.00 0.00 4322.00 1274.13" xmlns="http://www.w3.org/2000/svg" xmlns:xlink="http://www.w3.org/1999/xlink">
<g id="graph0" class="graph" transform="scale(1 1) rotate(0) translate(4 1270.13)">
<title>G</title>
<polygon fill="white" stroke="transparent" points="-4,4 -4,-1270.13 4318,-1270.13 4318,4 -4,4"/>
<g id="clust1" class="cluster">
<title>cluster_0</title>
<polygon fill="none" stroke="black" points="8,-8 8,-1258.13 2153,-1258.13 2153,-8 8,-8"/>
<text text-anchor="middle" x="1080.5" y="-1222.13" font-family="Times,serif" font-size="40.00">Tree 0, Class error</text>
</g>
<g id="clust9" class="cluster">
<title>cluster_1</title>
<polygon fill="none" stroke="black" points="2161,-8 2161,-1258.13 4306,-1258.13 4306,-8 2161,-8"/>
<text text-anchor="middle" x="3233.5" y="-1222.13" font-family="Times,serif" font-size="40.00">Tree 0, Class load</text>
</g>
<!-- SG_0_Node_0 -->
<g id="node1" class="node">
<title>SG_0_Node_0</title>
<polygon fill="none" stroke="black" points="584.5,-1198.13 447.5,-1198.13 447.5,-1162.13 584.5,-1162.13 584.5,-1198.13"/>
<text text-anchor="middle" x="516" y="-1175.13" font-family="Times,serif" font-size="20.00">raw_header</text>
</g>
<!-- SG_0_Node_1 -->
<g id="node2" class="node">
<title>SG_0_Node_1</title>
<polygon fill="none" stroke="black" points="208.5,-928.13 71.5,-928.13 71.5,-892.13 208.5,-892.13 208.5,-928.13"/>
<text text-anchor="middle" x="140" y="-905.13" font-family="Times,serif" font-size="20.00">raw_header</text>
</g>
<!-- SG_0_Node_0&#45;&gt;SG_0_Node_1 -->
<g id="edge1" class="edge">
<title>SG_0_Node_0&#45;&gt;SG_0_Node_1</title>
<path fill="none" stroke="black" d="M447.26,-1177.61C344.64,-1174.63 161.22,-1166.23 141,-1144.13 88.98,-1087.27 113.83,-985.99 129.95,-937.9"/>
<polygon fill="black" stroke="black" points="133.34,-938.81 133.33,-928.22 126.73,-936.51 133.34,-938.81"/>
<text text-anchor="middle" x="506" y="-1128.13" font-family="Times,serif" font-size="20.00">[NA]</text>
<text text-anchor="middle" x="506" y="-1106.13" font-family="Times,serif" font-size="20.00">[[&#39;Cross&#45;Origin&#45;Resource&#45;Policy&#39;, &#39;&#39;]]</text>
<text text-anchor="middle" x="506" y="-1084.13" font-family="Times,serif" font-size="20.00">[[&#39;Cross&#45;Origin&#45;Resource&#45;Policy&#39;, &#39;*&#39;]]</text>
<text text-anchor="middle" x="506" y="-1062.13" font-family="Times,serif" font-size="20.00">[[&#39;Cross&#45;Origin&#45;Resource&#45;Policy&#39;, &#39;cross&#45;origin&#39;]]</text>
<text text-anchor="middle" x="506" y="-1040.13" font-family="Times,serif" font-size="20.00">[[&#39;Cross&#45;Origin&#45;Resource&#45;Policy&#39;, &#39;null&#39;]]</text>
<text text-anchor="middle" x="506" y="-1018.13" font-family="Times,serif" font-size="20.00">[[&#39;Cross&#45;Origin&#45;Resource&#45;Policy&#39;, &#39;same&#45;site&#39;]]</text>
<text text-anchor="middle" x="506" y="-996.13" font-family="Times,serif" font-size="20.00">[[&#39;Cross&#45;Origin&#45;Resource&#45;Policy&#39;, &#39;unsafe&#45;none&#39;]]</text>
<text text-anchor="middle" x="506" y="-974.13" font-family="Times,serif" font-size="20.00">[[&#39;Cross&#45;Origin&#45;Resource&#45;Policy&#39;, &#39;unsafe&#45;none, same&#45;site, cross&#45;origin&#39;]]</text>
<text text-anchor="middle" x="506" y="-952.13" font-family="Times,serif" font-size="20.00">[]</text>
</g>
<!-- SG_0_Node_2 -->
<g id="node3" class="node">
<title>SG_0_Node_2</title>
<polygon fill="none" stroke="black" points="1336,-928.13 1204,-928.13 1204,-892.13 1336,-892.13 1336,-928.13"/>
<text text-anchor="middle" x="1270" y="-905.13" font-family="Times,serif" font-size="20.00">resp_origin</text>
</g>
<!-- SG_0_Node_0&#45;&gt;SG_0_Node_2 -->
<g id="edge2" class="edge">
<title>SG_0_Node_0&#45;&gt;SG_0_Node_2</title>
<path fill="none" stroke="black" d="M584.68,-1176.78C681.98,-1172.79 850.51,-1163.2 871,-1144.13 936.36,-1083.3 839.56,-1006.87 905,-946.13 925.69,-926.92 1093,-917.53 1193.77,-913.57"/>
<polygon fill="black" stroke="black" points="1194.05,-917.06 1203.91,-913.18 1193.78,-910.07 1194.05,-917.06"/>
<text text-anchor="middle" x="1531" y="-1062.13" font-family="Times,serif" font-size="20.00">[[&#39;Cross&#45;Origin&#45;Resource&#45;Policy&#39;, &#39;same&#45;origin&#39;], [&#39;location&#39;, &#39;https://sub.headers.websec.saarland/_hp/common/empty.html&#39;]]</text>
<text text-anchor="middle" x="1531" y="-1040.13" font-family="Times,serif" font-size="20.00">[[&#39;Cross&#45;Origin&#45;Resource&#45;Policy&#39;, &#39;same&#45;origin&#39;]]</text>
<text text-anchor="middle" x="1531" y="-1018.13" font-family="Times,serif" font-size="20.00">[[&#39;Cross&#45;Origin&#45;Resource&#45;Policy&#39;, &#39;same&#45;site&#39;], [&#39;location&#39;, &#39;https://sub.headers.websec.saarland/_hp/common/empty.html&#39;]]</text>
</g>
<!-- SG_0_Node_11 -->
<g id="node4" class="node">
<title>SG_0_Node_11</title>
<ellipse fill="none" stroke="black" cx="50" cy="-658.92" rx="33.88" ry="21.43"/>
<text text-anchor="middle" x="50" y="-653.92" font-family="Times,serif" font-size="20.00">0.0</text>
</g>
<!-- SG_0_Node_1&#45;&gt;SG_0_Node_11 -->
<g id="edge15" class="edge">
<title>SG_0_Node_1&#45;&gt;SG_0_Node_11</title>
<path fill="none" stroke="black" d="M71.28,-899.64C57.1,-894.39 43.82,-886.37 35,-874.13 -4.82,-818.88 19.83,-733.4 37.22,-688.97"/>
<polygon fill="black" stroke="black" points="40.49,-690.21 41,-679.62 34,-687.58 40.49,-690.21"/>
<text text-anchor="middle" x="400" y="-858.13" font-family="Times,serif" font-size="20.00">[NA]</text>
<text text-anchor="middle" x="400" y="-836.13" font-family="Times,serif" font-size="20.00">[[&#39;Cross&#45;Origin&#45;Resource&#45;Policy&#39;, &#39;&#39;]]</text>
<text text-anchor="middle" x="400" y="-814.13" font-family="Times,serif" font-size="20.00">[[&#39;Cross&#45;Origin&#45;Resource&#45;Policy&#39;, &#39;*&#39;]]</text>
<text text-anchor="middle" x="400" y="-792.13" font-family="Times,serif" font-size="20.00">[[&#39;Cross&#45;Origin&#45;Resource&#45;Policy&#39;, &#39;cross&#45;origin&#39;]]</text>
<text text-anchor="middle" x="400" y="-770.13" font-family="Times,serif" font-size="20.00">[[&#39;Cross&#45;Origin&#45;Resource&#45;Policy&#39;, &#39;null&#39;]]</text>
<text text-anchor="middle" x="400" y="-748.13" font-family="Times,serif" font-size="20.00">[[&#39;Cross&#45;Origin&#45;Resource&#45;Policy&#39;, &#39;unsafe&#45;none&#39;]]</text>
<text text-anchor="middle" x="400" y="-726.13" font-family="Times,serif" font-size="20.00">[[&#39;Cross&#45;Origin&#45;Resource&#45;Policy&#39;, &#39;unsafe&#45;none, same&#45;site, cross&#45;origin&#39;]]</text>
<text text-anchor="middle" x="400" y="-704.13" font-family="Times,serif" font-size="20.00">[]</text>
</g>
<!-- SG_0_Node_3 -->
<g id="node5" class="node">
<title>SG_0_Node_3</title>
<polygon fill="none" stroke="black" points="821,-676.92 689,-676.92 689,-640.92 821,-640.92 821,-676.92"/>
<text text-anchor="middle" x="755" y="-653.92" font-family="Times,serif" font-size="20.00">resp_origin</text>
</g>
<!-- SG_0_Node_1&#45;&gt;SG_0_Node_3 -->
<g id="edge16" class="edge">
<title>SG_0_Node_1&#45;&gt;SG_0_Node_3</title>
<path fill="none" stroke="black" d="M208.59,-907.79C366.97,-904.36 746.12,-894.1 765,-874.13 813.04,-823.33 785.21,-731.79 766.98,-686.61"/>
<polygon fill="black" stroke="black" points="770.13,-685.07 763.04,-677.2 763.67,-687.77 770.13,-685.07"/>
<text text-anchor="middle" x="1021" y="-781.13" font-family="Times,serif" font-size="20.00">[[&#39;Cross&#45;Origin&#45;Resource&#45;Policy&#39;, &#39;same&#45;site&#39;]]</text>
</g>
<!-- SG_0_Node_4 -->
<g id="node6" class="node">
<title>SG_0_Node_4</title>
<polygon fill="none" stroke="black" points="1338.5,-676.92 1201.5,-676.92 1201.5,-640.92 1338.5,-640.92 1338.5,-676.92"/>
<text text-anchor="middle" x="1270" y="-653.92" font-family="Times,serif" font-size="20.00">status_code</text>
</g>
<!-- SG_0_Node_2&#45;&gt;SG_0_Node_4 -->
<g id="edge3" class="edge">
<title>SG_0_Node_2&#45;&gt;SG_0_Node_4</title>
<path fill="none" stroke="black" d="M1270,-892C1270,-849.5 1270,-738.91 1270,-687.25"/>
<polygon fill="black" stroke="black" points="1273.5,-687.17 1270,-677.17 1266.5,-687.17 1273.5,-687.17"/>
<text text-anchor="middle" x="1456.5" y="-792.13" font-family="Times,serif" font-size="20.00">http://sub.headers.websec.saarland</text>
<text text-anchor="middle" x="1456.5" y="-770.13" font-family="Times,serif" font-size="20.00">https://sub.headers.websec.saarland</text>
</g>
<!-- SG_0_Node_12 -->
<g id="node7" class="node">
<title>SG_0_Node_12</title>
<ellipse fill="none" stroke="black" cx="1666" cy="-658.92" rx="33.88" ry="21.43"/>
<text text-anchor="middle" x="1666" y="-653.92" font-family="Times,serif" font-size="20.00">1.0</text>
</g>
<!-- SG_0_Node_2&#45;&gt;SG_0_Node_12 -->
<g id="edge4" class="edge">
<title>SG_0_Node_2&#45;&gt;SG_0_Node_12</title>
<path fill="none" stroke="black" d="M1336.23,-907.42C1437.8,-904.14 1622.63,-895.31 1644,-874.13 1692.78,-825.79 1682.88,-736.53 1673.4,-689.97"/>
<polygon fill="black" stroke="black" points="1676.76,-688.93 1671.22,-679.9 1669.92,-690.41 1676.76,-688.93"/>
<text text-anchor="middle" x="1888.5" y="-847.13" font-family="Times,serif" font-size="20.00">[NA]</text>
<text text-anchor="middle" x="1888.5" y="-825.13" font-family="Times,serif" font-size="20.00">http://headers.webappsec.eu</text>
<text text-anchor="middle" x="1888.5" y="-803.13" font-family="Times,serif" font-size="20.00">http://headers.websec.saarland</text>
<text text-anchor="middle" x="1888.5" y="-781.13" font-family="Times,serif" font-size="20.00">http://sub.sub.headers.websec.saarland</text>
<text text-anchor="middle" x="1888.5" y="-759.13" font-family="Times,serif" font-size="20.00">https://headers.webappsec.eu</text>
<text text-anchor="middle" x="1888.5" y="-737.13" font-family="Times,serif" font-size="20.00">https://headers.websec.saarland</text>
<text text-anchor="middle" x="1888.5" y="-715.13" font-family="Times,serif" font-size="20.00">https://sub.sub.headers.websec.saarland</text>
</g>
<!-- SG_0_Node_13 -->
<g id="node8" class="node">
<title>SG_0_Node_13</title>
<ellipse fill="none" stroke="black" cx="327" cy="-448.49" rx="33.88" ry="21.43"/>
<text text-anchor="middle" x="327" y="-443.49" font-family="Times,serif" font-size="20.00">0.0</text>
</g>
<!-- SG_0_Node_3&#45;&gt;SG_0_Node_13 -->
<g id="edge17" class="edge">
<title>SG_0_Node_3&#45;&gt;SG_0_Node_13</title>
<path fill="none" stroke="black" d="M688.63,-656.86C573.83,-654.33 348.09,-646.03 324,-619.71 289.34,-581.84 303.09,-517.01 315.52,-479.23"/>
<polygon fill="black" stroke="black" points="318.98,-479.93 318.94,-469.34 312.36,-477.64 318.98,-479.93"/>
<text text-anchor="middle" x="526.5" y="-570.71" font-family="Times,serif" font-size="20.00">http://headers.websec.saarland</text>
<text text-anchor="middle" x="526.5" y="-548.71" font-family="Times,serif" font-size="20.00">http://sub.headers.websec.saarland</text>
<text text-anchor="middle" x="526.5" y="-526.71" font-family="Times,serif" font-size="20.00">http://sub.sub.headers.websec.saarland</text>
</g>
<!-- SG_0_Node_5 -->
<g id="node9" class="node">
<title>SG_0_Node_5</title>
<polygon fill="none" stroke="black" points="725,-466.49 603,-466.49 603,-430.49 725,-430.49 725,-466.49"/>
<text text-anchor="middle" x="664" y="-443.49" font-family="Times,serif" font-size="20.00">org_origin</text>
</g>
<!-- SG_0_Node_3&#45;&gt;SG_0_Node_5 -->
<g id="edge18" class="edge">
<title>SG_0_Node_3&#45;&gt;SG_0_Node_5</title>
<path fill="none" stroke="black" d="M757.53,-640.71C761.41,-607.86 765.32,-535.27 733,-487.71 728.93,-481.71 723.59,-476.56 717.68,-472.16"/>
<polygon fill="black" stroke="black" points="719.6,-469.24 709.34,-466.62 715.73,-475.07 719.6,-469.24"/>
<text text-anchor="middle" x="967.5" y="-603.71" font-family="Times,serif" font-size="20.00">[NA]</text>
<text text-anchor="middle" x="967.5" y="-581.71" font-family="Times,serif" font-size="20.00">http://headers.webappsec.eu</text>
<text text-anchor="middle" x="967.5" y="-559.71" font-family="Times,serif" font-size="20.00">https://headers.webappsec.eu</text>
<text text-anchor="middle" x="967.5" y="-537.71" font-family="Times,serif" font-size="20.00">https://headers.websec.saarland</text>
<text text-anchor="middle" x="967.5" y="-515.71" font-family="Times,serif" font-size="20.00">https://sub.headers.websec.saarland</text>
<text text-anchor="middle" x="967.5" y="-493.71" font-family="Times,serif" font-size="20.00">https://sub.sub.headers.websec.saarland</text>
</g>
<!-- SG_0_Node_6 -->
<g id="node10" class="node">
<title>SG_0_Node_6</title>
<polygon fill="none" stroke="black" points="1263,-466.49 1141,-466.49 1141,-430.49 1263,-430.49 1263,-466.49"/>
<text text-anchor="middle" x="1202" y="-443.49" font-family="Times,serif" font-size="20.00">org_origin</text>
</g>
<!-- SG_0_Node_4&#45;&gt;SG_0_Node_6 -->
<g id="edge5" class="edge">
<title>SG_0_Node_4&#45;&gt;SG_0_Node_6</title>
<path fill="none" stroke="black" d="M1250.63,-640.84C1244.78,-634.72 1238.88,-627.42 1235,-619.71 1211.6,-573.25 1204.76,-511.96 1202.78,-477.02"/>
<polygon fill="black" stroke="black" points="1206.26,-476.48 1202.29,-466.66 1199.26,-476.81 1206.26,-476.48"/>
<text text-anchor="middle" x="1254.5" y="-548.71" font-family="Times,serif" font-size="20.00">200</text>
</g>
<!-- SG_0_Node_14 -->
<g id="node11" class="node">
<title>SG_0_Node_14</title>
<ellipse fill="none" stroke="black" cx="1315" cy="-448.49" rx="33.88" ry="21.43"/>
<text text-anchor="middle" x="1315" y="-443.49" font-family="Times,serif" font-size="20.00">1.0</text>
</g>
<!-- SG_0_Node_4&#45;&gt;SG_0_Node_14 -->
<g id="edge6" class="edge">
<title>SG_0_Node_4&#45;&gt;SG_0_Node_14</title>
<path fill="none" stroke="black" d="M1273.68,-640.86C1281.3,-605.58 1298.88,-524.17 1308.47,-479.75"/>
<polygon fill="black" stroke="black" points="1311.92,-480.33 1310.61,-469.82 1305.08,-478.86 1311.92,-480.33"/>
<text text-anchor="middle" x="1329.5" y="-559.71" font-family="Times,serif" font-size="20.00">[NA]</text>
<text text-anchor="middle" x="1329.5" y="-537.71" font-family="Times,serif" font-size="20.00">302</text>
</g>
<!-- SG_0_Node_7 -->
<g id="node12" class="node">
<title>SG_0_Node_7</title>
<polygon fill="none" stroke="black" points="334,-344.07 202,-344.07 202,-308.07 334,-308.07 334,-344.07"/>
<text text-anchor="middle" x="268" y="-321.07" font-family="Times,serif" font-size="20.00">resp_origin</text>
</g>
<!-- SG_0_Node_5&#45;&gt;SG_0_Node_7 -->
<g id="edge19" class="edge">
<title>SG_0_Node_5&#45;&gt;SG_0_Node_7</title>
<path fill="none" stroke="black" d="M602.85,-443.15C499.12,-435.53 298.68,-419.57 287,-409.28 271.66,-395.76 267.4,-372.54 266.7,-354.21"/>
<polygon fill="black" stroke="black" points="270.2,-354.08 266.64,-344.1 263.2,-354.12 270.2,-354.08"/>
<text text-anchor="middle" x="473.5" y="-382.28" font-family="Times,serif" font-size="20.00">https://sub.headers.websec.saarland</text>
</g>
<!-- SG_0_Node_15 -->
<g id="node13" class="node">
<title>SG_0_Node_15</title>
<ellipse fill="none" stroke="black" cx="664" cy="-326.07" rx="33.88" ry="21.43"/>
<text text-anchor="middle" x="664" y="-321.07" font-family="Times,serif" font-size="20.00">1.0</text>
</g>
<!-- SG_0_Node_5&#45;&gt;SG_0_Node_15 -->
<g id="edge20" class="edge">
<title>SG_0_Node_5&#45;&gt;SG_0_Node_15</title>
<path fill="none" stroke="black" d="M664,-430.24C664,-411.37 664,-380.77 664,-357.78"/>
<polygon fill="black" stroke="black" points="667.5,-357.51 664,-347.51 660.5,-357.51 667.5,-357.51"/>
<text text-anchor="middle" x="845.5" y="-393.28" font-family="Times,serif" font-size="20.00">[NA]</text>
<text text-anchor="middle" x="845.5" y="-371.28" font-family="Times,serif" font-size="20.00">http://sub.headers.websec.saarland</text>
</g>
<!-- SG_0_Node_8 -->
<g id="node14" class="node">
<title>SG_0_Node_8</title>
<polygon fill="none" stroke="black" points="964.5,-344.07 863.5,-344.07 863.5,-308.07 964.5,-308.07 964.5,-344.07"/>
<text text-anchor="middle" x="914" y="-321.07" font-family="Times,serif" font-size="20.00">browser</text>
</g>
<!-- SG_0_Node_6&#45;&gt;SG_0_Node_8 -->
<g id="edge7" class="edge">
<title>SG_0_Node_6&#45;&gt;SG_0_Node_8</title>
<path fill="none" stroke="black" d="M1140.65,-445.05C1109.52,-440.91 1072.91,-431.21 1047,-409.28 1030.74,-395.52 1043.68,-379.69 1028,-365.28 1013.21,-351.69 993.43,-342.91 974.51,-337.26"/>
<polygon fill="black" stroke="black" points="975.29,-333.84 964.72,-334.57 973.44,-340.59 975.29,-333.84"/>
<text text-anchor="middle" x="1233.5" y="-382.28" font-family="Times,serif" font-size="20.00">https://sub.headers.websec.saarland</text>
</g>
<!-- SG_0_Node_9 -->
<g id="node15" class="node">
<title>SG_0_Node_9</title>
<polygon fill="none" stroke="black" points="1512,-344.07 1380,-344.07 1380,-308.07 1512,-308.07 1512,-344.07"/>
<text text-anchor="middle" x="1446" y="-321.07" font-family="Times,serif" font-size="20.00">resp_origin</text>
</g>
<!-- SG_0_Node_6&#45;&gt;SG_0_Node_9 -->
<g id="edge8" class="edge">
<title>SG_0_Node_6&#45;&gt;SG_0_Node_9</title>
<path fill="none" stroke="black" d="M1257.96,-430.46C1262.69,-429.29 1267.41,-428.21 1272,-427.28 1305.34,-420.54 1398.29,-431.54 1424,-409.28 1439.59,-395.78 1444.72,-372.55 1446.16,-354.23"/>
<polygon fill="black" stroke="black" points="1449.66,-354.26 1446.64,-344.11 1442.67,-353.94 1449.66,-354.26"/>
<text text-anchor="middle" x="1625.5" y="-393.28" font-family="Times,serif" font-size="20.00">[NA]</text>
<text text-anchor="middle" x="1625.5" y="-371.28" font-family="Times,serif" font-size="20.00">http://sub.headers.websec.saarland</text>
</g>
<!-- SG_0_Node_16 -->
<g id="node16" class="node">
<title>SG_0_Node_16</title>
<ellipse fill="none" stroke="black" cx="50" cy="-137.64" rx="33.88" ry="21.43"/>
<text text-anchor="middle" x="50" y="-132.64" font-family="Times,serif" font-size="20.00">0.0</text>
</g>
<!-- SG_0_Node_7&#45;&gt;SG_0_Node_16 -->
<g id="edge21" class="edge">
<title>SG_0_Node_7&#45;&gt;SG_0_Node_16</title>
<path fill="none" stroke="black" d="M201.84,-323.67C139.52,-320.79 52.58,-312.2 31,-286.85 2.6,-253.51 19.92,-199.68 35.01,-166.89"/>
<polygon fill="black" stroke="black" points="38.19,-168.36 39.37,-157.83 31.88,-165.33 38.19,-168.36"/>
<text text-anchor="middle" x="238.5" y="-259.85" font-family="Times,serif" font-size="20.00">[NA]</text>
<text text-anchor="middle" x="238.5" y="-237.85" font-family="Times,serif" font-size="20.00">https://headers.websec.saarland</text>
<text text-anchor="middle" x="238.5" y="-215.85" font-family="Times,serif" font-size="20.00">https://sub.headers.websec.saarland</text>
<text text-anchor="middle" x="238.5" y="-193.85" font-family="Times,serif" font-size="20.00">https://sub.sub.headers.websec.saarland</text>
</g>
<!-- SG_0_Node_17 -->
<g id="node17" class="node">
<title>SG_0_Node_17</title>
<ellipse fill="none" stroke="black" cx="472" cy="-137.64" rx="33.88" ry="21.43"/>
<text text-anchor="middle" x="472" y="-132.64" font-family="Times,serif" font-size="20.00">1.0</text>
</g>
<!-- SG_0_Node_7&#45;&gt;SG_0_Node_17 -->
<g id="edge22" class="edge">
<title>SG_0_Node_7&#45;&gt;SG_0_Node_17</title>
<path fill="none" stroke="black" d="M334.3,-319.07C379.62,-313.54 434.23,-303.6 450,-286.85 479.62,-255.42 480.07,-202.41 476.73,-169.04"/>
<polygon fill="black" stroke="black" points="480.19,-168.47 475.55,-158.95 473.24,-169.29 480.19,-168.47"/>
<text text-anchor="middle" x="630.5" y="-237.85" font-family="Times,serif" font-size="20.00">http://headers.webappsec.eu</text>
<text text-anchor="middle" x="630.5" y="-215.85" font-family="Times,serif" font-size="20.00">https://headers.webappsec.eu</text>
</g>
<!-- SG_0_Node_18 -->
<g id="node18" class="node">
<title>SG_0_Node_18</title>
<ellipse fill="none" stroke="black" cx="798" cy="-137.64" rx="33.88" ry="21.43"/>
<text text-anchor="middle" x="798" y="-132.64" font-family="Times,serif" font-size="20.00">0.0</text>
</g>
<!-- SG_0_Node_8&#45;&gt;SG_0_Node_18 -->
<g id="edge11" class="edge">
<title>SG_0_Node_8&#45;&gt;SG_0_Node_18</title>
<path fill="none" stroke="black" d="M863.38,-315.38C846.86,-309.74 829.96,-300.85 819,-286.85 792.65,-253.22 791.48,-201.65 794.02,-169.06"/>
<polygon fill="black" stroke="black" points="797.54,-169.07 794.99,-158.79 790.57,-168.41 797.54,-169.07"/>
<text text-anchor="middle" x="864.5" y="-237.85" font-family="Times,serif" font-size="20.00">[NA]</text>
<text text-anchor="middle" x="864.5" y="-215.85" font-family="Times,serif" font-size="20.00">14 levels</text>
</g>
<!-- SG_0_Node_10 -->
<g id="node19" class="node">
<title>SG_0_Node_10</title>
<polygon fill="none" stroke="black" points="982,-155.64 850,-155.64 850,-119.64 982,-119.64 982,-155.64"/>
<text text-anchor="middle" x="916" y="-132.64" font-family="Times,serif" font-size="20.00">resp_origin</text>
</g>
<!-- SG_0_Node_8&#45;&gt;SG_0_Node_10 -->
<g id="edge12" class="edge">
<title>SG_0_Node_8&#45;&gt;SG_0_Node_10</title>
<path fill="none" stroke="black" d="M914.01,-307.72C914.05,-280.05 914.22,-224.19 915,-176.85 915.06,-173.29 915.14,-169.55 915.22,-165.85"/>
<polygon fill="black" stroke="black" points="918.72,-165.84 915.48,-155.76 911.73,-165.67 918.72,-165.84"/>
<text text-anchor="middle" x="1139.5" y="-270.85" font-family="Times,serif" font-size="20.00">firefox Ubuntu 22.04 119 selenium headless</text>
<text text-anchor="middle" x="1139.5" y="-248.85" font-family="Times,serif" font-size="20.00">firefox Ubuntu 22.04 119 selenium xvfb</text>
<text text-anchor="middle" x="1139.5" y="-226.85" font-family="Times,serif" font-size="20.00">firefox macOS 14.0 119 selenium headless</text>
<text text-anchor="middle" x="1139.5" y="-204.85" font-family="Times,serif" font-size="20.00">firefox macOS 14.0 119 selenium real</text>
<text text-anchor="middle" x="1139.5" y="-182.85" font-family="Times,serif" font-size="20.00">safari macOS 14.0 17.0 selenium real</text>
</g>
<!-- SG_0_Node_19 -->
<g id="node20" class="node">
<title>SG_0_Node_19</title>
<ellipse fill="none" stroke="black" cx="1386" cy="-137.64" rx="33.88" ry="21.43"/>
<text text-anchor="middle" x="1386" y="-132.64" font-family="Times,serif" font-size="20.00">0.0</text>
</g>
<!-- SG_0_Node_9&#45;&gt;SG_0_Node_19 -->
<g id="edge9" class="edge">
<title>SG_0_Node_9&#45;&gt;SG_0_Node_19</title>
<path fill="none" stroke="black" d="M1407.64,-308.06C1399.4,-302.53 1391.75,-295.52 1387,-286.85 1366.89,-250.16 1371.92,-200.28 1378.27,-168.77"/>
<polygon fill="black" stroke="black" points="1381.73,-169.35 1380.44,-158.83 1374.89,-167.86 1381.73,-169.35"/>
<text text-anchor="middle" x="1568.5" y="-226.85" font-family="Times,serif" font-size="20.00">http://sub.headers.websec.saarland</text>
</g>
<!-- SG_0_Node_20 -->
<g id="node21" class="node">
<title>SG_0_Node_20</title>
<ellipse fill="none" stroke="black" cx="1772" cy="-137.64" rx="33.88" ry="21.43"/>
<text text-anchor="middle" x="1772" y="-132.64" font-family="Times,serif" font-size="20.00">1.0</text>
</g>
<!-- SG_0_Node_9&#45;&gt;SG_0_Node_20 -->
<g id="edge10" class="edge">
<title>SG_0_Node_9&#45;&gt;SG_0_Node_20</title>
<path fill="none" stroke="black" d="M1512.15,-325.75C1591.31,-325.09 1717.29,-318.84 1750,-286.85 1781.05,-256.49 1780.96,-202.7 1777.14,-168.95"/>
<polygon fill="black" stroke="black" points="1780.57,-168.21 1775.8,-158.75 1773.63,-169.12 1780.57,-168.21"/>
<text text-anchor="middle" x="1964.5" y="-226.85" font-family="Times,serif" font-size="20.00">https://sub.headers.websec.saarland</text>
</g>
<!-- SG_0_Node_21 -->
<g id="node22" class="node">
<title>SG_0_Node_21</title>
<ellipse fill="none" stroke="black" cx="718" cy="-37.21" rx="33.88" ry="21.43"/>
<text text-anchor="middle" x="718" y="-32.21" font-family="Times,serif" font-size="20.00">0.0</text>
</g>
<!-- SG_0_Node_10&#45;&gt;SG_0_Node_21 -->
<g id="edge13" class="edge">
<title>SG_0_Node_10&#45;&gt;SG_0_Node_21</title>
<path fill="none" stroke="black" d="M855.15,-119.6C850.38,-118.46 845.62,-117.39 841,-116.43 814.17,-110.85 737.08,-119.02 719,-98.43 711.84,-90.27 710.32,-78.83 711.05,-68.1"/>
<polygon fill="black" stroke="black" points="714.52,-68.54 712.32,-58.17 707.58,-67.65 714.52,-68.54"/>
<text text-anchor="middle" x="905.5" y="-82.43" font-family="Times,serif" font-size="20.00">https://sub.headers.websec.saarland</text>
</g>
<!-- SG_0_Node_22 -->
<g id="node23" class="node">
<title>SG_0_Node_22</title>
<ellipse fill="none" stroke="black" cx="1114" cy="-37.21" rx="33.88" ry="21.43"/>
<text text-anchor="middle" x="1114" y="-32.21" font-family="Times,serif" font-size="20.00">1.0</text>
</g>
<!-- SG_0_Node_10&#45;&gt;SG_0_Node_22 -->
<g id="edge14" class="edge">
<title>SG_0_Node_10&#45;&gt;SG_0_Node_22</title>
<path fill="none" stroke="black" d="M982.42,-128.94C1025.14,-122.75 1075.62,-112.71 1092,-98.43 1100.71,-90.83 1105.97,-79.49 1109.15,-68.7"/>
<polygon fill="black" stroke="black" points="1112.63,-69.2 1111.61,-58.65 1105.83,-67.54 1112.63,-69.2"/>
<text text-anchor="middle" x="1287.5" y="-82.43" font-family="Times,serif" font-size="20.00">http://sub.headers.websec.saarland</text>
</g>
<!-- SG_1_Node_0 -->
<g id="node24" class="node">
<title>SG_1_Node_0</title>
<polygon fill="none" stroke="black" points="2942.5,-1198.13 2805.5,-1198.13 2805.5,-1162.13 2942.5,-1162.13 2942.5,-1198.13"/>
<text text-anchor="middle" x="2874" y="-1175.13" font-family="Times,serif" font-size="20.00">raw_header</text>
</g>
<!-- SG_1_Node_1 -->
<g id="node25" class="node">
<title>SG_1_Node_1</title>
<polygon fill="none" stroke="black" points="2309,-928.13 2177,-928.13 2177,-892.13 2309,-892.13 2309,-928.13"/>
<text text-anchor="middle" x="2243" y="-905.13" font-family="Times,serif" font-size="20.00">resp_origin</text>
</g>
<!-- SG_1_Node_0&#45;&gt;SG_1_Node_1 -->
<g id="edge23" class="edge">
<title>SG_1_Node_0&#45;&gt;SG_1_Node_1</title>
<path fill="none" stroke="black" d="M2805.46,-1177.82C2646.18,-1174.43 2263.1,-1164.23 2244,-1144.13 2190.81,-1088.14 2216.4,-986.07 2232.85,-937.79"/>
<polygon fill="black" stroke="black" points="2236.15,-938.94 2236.19,-928.35 2229.56,-936.61 2236.15,-938.94"/>
<text text-anchor="middle" x="2870" y="-1062.13" font-family="Times,serif" font-size="20.00">[[&#39;Cross&#45;Origin&#45;Resource&#45;Policy&#39;, &#39;same&#45;origin&#39;], [&#39;location&#39;, &#39;https://sub.headers.websec.saarland/_hp/common/empty.html&#39;]]</text>
<text text-anchor="middle" x="2870" y="-1040.13" font-family="Times,serif" font-size="20.00">[[&#39;Cross&#45;Origin&#45;Resource&#45;Policy&#39;, &#39;same&#45;origin&#39;]]</text>
<text text-anchor="middle" x="2870" y="-1018.13" font-family="Times,serif" font-size="20.00">[[&#39;Cross&#45;Origin&#45;Resource&#45;Policy&#39;, &#39;same&#45;site&#39;], [&#39;location&#39;, &#39;https://sub.headers.websec.saarland/_hp/common/empty.html&#39;]]</text>
</g>
<!-- SG_1_Node_2 -->
<g id="node26" class="node">
<title>SG_1_Node_2</title>
<polygon fill="none" stroke="black" points="3586.5,-928.13 3449.5,-928.13 3449.5,-892.13 3586.5,-892.13 3586.5,-928.13"/>
<text text-anchor="middle" x="3518" y="-905.13" font-family="Times,serif" font-size="20.00">raw_header</text>
</g>
<!-- SG_1_Node_0&#45;&gt;SG_1_Node_2 -->
<g id="edge24" class="edge">
<title>SG_1_Node_0&#45;&gt;SG_1_Node_2</title>
<path fill="none" stroke="black" d="M2942.73,-1177.65C3100.43,-1173.91 3476.33,-1163.07 3496,-1144.13 3551.9,-1090.31 3536.64,-987.11 3525.28,-938.17"/>
<polygon fill="black" stroke="black" points="3528.65,-937.2 3522.87,-928.31 3521.85,-938.86 3528.65,-937.2"/>
<text text-anchor="middle" x="3901" y="-1128.13" font-family="Times,serif" font-size="20.00">[NA]</text>
<text text-anchor="middle" x="3901" y="-1106.13" font-family="Times,serif" font-size="20.00">[[&#39;Cross&#45;Origin&#45;Resource&#45;Policy&#39;, &#39;&#39;]]</text>
<text text-anchor="middle" x="3901" y="-1084.13" font-family="Times,serif" font-size="20.00">[[&#39;Cross&#45;Origin&#45;Resource&#45;Policy&#39;, &#39;*&#39;]]</text>
<text text-anchor="middle" x="3901" y="-1062.13" font-family="Times,serif" font-size="20.00">[[&#39;Cross&#45;Origin&#45;Resource&#45;Policy&#39;, &#39;cross&#45;origin&#39;]]</text>
<text text-anchor="middle" x="3901" y="-1040.13" font-family="Times,serif" font-size="20.00">[[&#39;Cross&#45;Origin&#45;Resource&#45;Policy&#39;, &#39;null&#39;]]</text>
<text text-anchor="middle" x="3901" y="-1018.13" font-family="Times,serif" font-size="20.00">[[&#39;Cross&#45;Origin&#45;Resource&#45;Policy&#39;, &#39;same&#45;site&#39;]]</text>
<text text-anchor="middle" x="3901" y="-996.13" font-family="Times,serif" font-size="20.00">[[&#39;Cross&#45;Origin&#45;Resource&#45;Policy&#39;, &#39;unsafe&#45;none&#39;]]</text>
<text text-anchor="middle" x="3901" y="-974.13" font-family="Times,serif" font-size="20.00">[[&#39;Cross&#45;Origin&#45;Resource&#45;Policy&#39;, &#39;unsafe&#45;none, same&#45;site, cross&#45;origin&#39;]]</text>
<text text-anchor="middle" x="3901" y="-952.13" font-family="Times,serif" font-size="20.00">[]</text>
</g>
<!-- SG_1_Node_11 -->
<g id="node27" class="node">
<title>SG_1_Node_11</title>
<ellipse fill="none" stroke="black" cx="2223" cy="-658.92" rx="33.88" ry="21.43"/>
<text text-anchor="middle" x="2223" y="-653.92" font-family="Times,serif" font-size="20.00">0.0</text>
</g>
<!-- SG_1_Node_1&#45;&gt;SG_1_Node_11 -->
<g id="edge33" class="edge">
<title>SG_1_Node_1&#45;&gt;SG_1_Node_11</title>
<path fill="none" stroke="black" d="M2231.54,-892.03C2228.48,-886.55 2225.58,-880.29 2224,-874.13 2207.64,-810.34 2213.44,-732.3 2218.56,-690.25"/>
<polygon fill="black" stroke="black" points="2222.06,-690.49 2219.87,-680.12 2215.12,-689.59 2222.06,-690.49"/>
<text text-anchor="middle" x="2431.5" y="-847.13" font-family="Times,serif" font-size="20.00">[NA]</text>
<text text-anchor="middle" x="2431.5" y="-825.13" font-family="Times,serif" font-size="20.00">http://headers.webappsec.eu</text>
<text text-anchor="middle" x="2431.5" y="-803.13" font-family="Times,serif" font-size="20.00">http://headers.websec.saarland</text>
<text text-anchor="middle" x="2431.5" y="-781.13" font-family="Times,serif" font-size="20.00">http://sub.sub.headers.websec.saarland</text>
<text text-anchor="middle" x="2431.5" y="-759.13" font-family="Times,serif" font-size="20.00">https://headers.webappsec.eu</text>
<text text-anchor="middle" x="2431.5" y="-737.13" font-family="Times,serif" font-size="20.00">https://headers.websec.saarland</text>
<text text-anchor="middle" x="2431.5" y="-715.13" font-family="Times,serif" font-size="20.00">https://sub.sub.headers.websec.saarland</text>
</g>
<!-- SG_1_Node_3 -->
<g id="node28" class="node">
<title>SG_1_Node_3</title>
<polygon fill="none" stroke="black" points="2729.5,-676.92 2592.5,-676.92 2592.5,-640.92 2729.5,-640.92 2729.5,-676.92"/>
<text text-anchor="middle" x="2661" y="-653.92" font-family="Times,serif" font-size="20.00">status_code</text>
</g>
<!-- SG_1_Node_1&#45;&gt;SG_1_Node_3 -->
<g id="edge34" class="edge">
<title>SG_1_Node_1&#45;&gt;SG_1_Node_3</title>
<path fill="none" stroke="black" d="M2309.22,-907.8C2415.85,-905 2616.05,-896.75 2639,-874.13 2664.79,-848.71 2664.14,-739.1 2662.31,-687.27"/>
<polygon fill="black" stroke="black" points="2665.8,-686.99 2661.9,-677.14 2658.8,-687.27 2665.8,-686.99"/>
<text text-anchor="middle" x="2849.5" y="-792.13" font-family="Times,serif" font-size="20.00">http://sub.headers.websec.saarland</text>
<text text-anchor="middle" x="2849.5" y="-770.13" font-family="Times,serif" font-size="20.00">https://sub.headers.websec.saarland</text>
</g>
<!-- SG_1_Node_4 -->
<g id="node29" class="node">
<title>SG_1_Node_4</title>
<polygon fill="none" stroke="black" points="3242,-676.92 3110,-676.92 3110,-640.92 3242,-640.92 3242,-676.92"/>
<text text-anchor="middle" x="3176" y="-653.92" font-family="Times,serif" font-size="20.00">resp_origin</text>
</g>
<!-- SG_1_Node_2&#45;&gt;SG_1_Node_4 -->
<g id="edge25" class="edge">
<title>SG_1_Node_2&#45;&gt;SG_1_Node_4</title>
<path fill="none" stroke="black" d="M3449.04,-908.61C3332.38,-907.01 3106.34,-900.5 3082,-874.13 3028.95,-816.65 3038.33,-763.03 3082,-698.13 3086.88,-690.88 3093.39,-685.01 3100.73,-680.25"/>
<polygon fill="black" stroke="black" points="3102.71,-683.15 3109.67,-675.16 3099.25,-677.07 3102.71,-683.15"/>
<text text-anchor="middle" x="3312" y="-781.13" font-family="Times,serif" font-size="20.00">[[&#39;Cross&#45;Origin&#45;Resource&#45;Policy&#39;, &#39;same&#45;site&#39;]]</text>
</g>
<!-- SG_1_Node_12 -->
<g id="node30" class="node">
<title>SG_1_Node_12</title>
<ellipse fill="none" stroke="black" cx="3568" cy="-658.92" rx="33.88" ry="21.43"/>
<text text-anchor="middle" x="3568" y="-653.92" font-family="Times,serif" font-size="20.00">1.0</text>
</g>
<!-- SG_1_Node_2&#45;&gt;SG_1_Node_12 -->
<g id="edge26" class="edge">
<title>SG_1_Node_2&#45;&gt;SG_1_Node_12</title>
<path fill="none" stroke="black" d="M3535,-891.88C3539.29,-886.59 3543.41,-880.47 3546,-874.13 3571.2,-812.57 3572,-733.11 3570.14,-690.36"/>
<polygon fill="black" stroke="black" points="3573.63,-690.13 3569.63,-680.32 3566.64,-690.49 3573.63,-690.13"/>
<text text-anchor="middle" x="3935" y="-858.13" font-family="Times,serif" font-size="20.00">[NA]</text>
<text text-anchor="middle" x="3935" y="-836.13" font-family="Times,serif" font-size="20.00">[[&#39;Cross&#45;Origin&#45;Resource&#45;Policy&#39;, &#39;&#39;]]</text>
<text text-anchor="middle" x="3935" y="-814.13" font-family="Times,serif" font-size="20.00">[[&#39;Cross&#45;Origin&#45;Resource&#45;Policy&#39;, &#39;*&#39;]]</text>
<text text-anchor="middle" x="3935" y="-792.13" font-family="Times,serif" font-size="20.00">[[&#39;Cross&#45;Origin&#45;Resource&#45;Policy&#39;, &#39;cross&#45;origin&#39;]]</text>
<text text-anchor="middle" x="3935" y="-770.13" font-family="Times,serif" font-size="20.00">[[&#39;Cross&#45;Origin&#45;Resource&#45;Policy&#39;, &#39;null&#39;]]</text>
<text text-anchor="middle" x="3935" y="-748.13" font-family="Times,serif" font-size="20.00">[[&#39;Cross&#45;Origin&#45;Resource&#45;Policy&#39;, &#39;unsafe&#45;none&#39;]]</text>
<text text-anchor="middle" x="3935" y="-726.13" font-family="Times,serif" font-size="20.00">[[&#39;Cross&#45;Origin&#45;Resource&#45;Policy&#39;, &#39;unsafe&#45;none, same&#45;site, cross&#45;origin&#39;]]</text>
<text text-anchor="middle" x="3935" y="-704.13" font-family="Times,serif" font-size="20.00">[]</text>
</g>
<!-- SG_1_Node_13 -->
<g id="node31" class="node">
<title>SG_1_Node_13</title>
<ellipse fill="none" stroke="black" cx="2609" cy="-448.49" rx="33.88" ry="21.43"/>
<text text-anchor="middle" x="2609" y="-443.49" font-family="Times,serif" font-size="20.00">0.0</text>
</g>
<!-- SG_1_Node_3&#45;&gt;SG_1_Node_13 -->
<g id="edge35" class="edge">
<title>SG_1_Node_3&#45;&gt;SG_1_Node_13</title>
<path fill="none" stroke="black" d="M2645.06,-640.84C2640.1,-634.62 2635.12,-627.25 2632,-619.71 2612.91,-573.5 2608.96,-514.81 2608.51,-479.81"/>
<polygon fill="black" stroke="black" points="2612.01,-479.73 2608.47,-469.74 2605.01,-479.76 2612.01,-479.73"/>
<text text-anchor="middle" x="2655.5" y="-559.71" font-family="Times,serif" font-size="20.00">[NA]</text>
<text text-anchor="middle" x="2655.5" y="-537.71" font-family="Times,serif" font-size="20.00">302</text>
</g>
<!-- SG_1_Node_5 -->
<g id="node32" class="node">
<title>SG_1_Node_5</title>
<polygon fill="none" stroke="black" points="2783,-466.49 2661,-466.49 2661,-430.49 2783,-430.49 2783,-466.49"/>
<text text-anchor="middle" x="2722" y="-443.49" font-family="Times,serif" font-size="20.00">org_origin</text>
</g>
<!-- SG_1_Node_3&#45;&gt;SG_1_Node_5 -->
<g id="edge36" class="edge">
<title>SG_1_Node_3&#45;&gt;SG_1_Node_5</title>
<path fill="none" stroke="black" d="M2669.97,-640.72C2673.11,-634.24 2676.48,-626.75 2679,-619.71 2696.62,-570.51 2709.92,-510.86 2716.79,-476.83"/>
<polygon fill="black" stroke="black" points="2720.28,-477.22 2718.79,-466.73 2713.42,-475.86 2720.28,-477.22"/>
<text text-anchor="middle" x="2733.5" y="-548.71" font-family="Times,serif" font-size="20.00">200</text>
</g>
<!-- SG_1_Node_6 -->
<g id="node33" class="node">
<title>SG_1_Node_6</title>
<polygon fill="none" stroke="black" points="3328,-466.49 3206,-466.49 3206,-430.49 3328,-430.49 3328,-466.49"/>
<text text-anchor="middle" x="3267" y="-443.49" font-family="Times,serif" font-size="20.00">org_origin</text>
</g>
<!-- SG_1_Node_4&#45;&gt;SG_1_Node_6 -->
<g id="edge27" class="edge">
<title>SG_1_Node_4&#45;&gt;SG_1_Node_6</title>
<path fill="none" stroke="black" d="M3170.41,-640.69C3160.87,-607.81 3145.38,-535.17 3177,-487.71 3182.11,-480.03 3189.11,-473.89 3196.96,-468.98"/>
<polygon fill="black" stroke="black" points="3198.71,-472.01 3205.77,-464.12 3195.32,-465.89 3198.71,-472.01"/>
<text text-anchor="middle" x="3384.5" y="-603.71" font-family="Times,serif" font-size="20.00">[NA]</text>
<text text-anchor="middle" x="3384.5" y="-581.71" font-family="Times,serif" font-size="20.00">http://headers.webappsec.eu</text>
<text text-anchor="middle" x="3384.5" y="-559.71" font-family="Times,serif" font-size="20.00">https://headers.webappsec.eu</text>
<text text-anchor="middle" x="3384.5" y="-537.71" font-family="Times,serif" font-size="20.00">https://headers.websec.saarland</text>
<text text-anchor="middle" x="3384.5" y="-515.71" font-family="Times,serif" font-size="20.00">https://sub.headers.websec.saarland</text>
<text text-anchor="middle" x="3384.5" y="-493.71" font-family="Times,serif" font-size="20.00">https://sub.sub.headers.websec.saarland</text>
</g>
<!-- SG_1_Node_14 -->
<g id="node34" class="node">
<title>SG_1_Node_14</title>
<ellipse fill="none" stroke="black" cx="3614" cy="-448.49" rx="33.88" ry="21.43"/>
<text text-anchor="middle" x="3614" y="-443.49" font-family="Times,serif" font-size="20.00">1.0</text>
</g>
<!-- SG_1_Node_4&#45;&gt;SG_1_Node_14 -->
<g id="edge28" class="edge">
<title>SG_1_Node_4&#45;&gt;SG_1_Node_14</title>
<path fill="none" stroke="black" d="M3242.38,-656.3C3353.48,-652.93 3567.39,-643.42 3592,-619.71 3629.26,-583.8 3626.09,-518.27 3620.2,-479.84"/>
<polygon fill="black" stroke="black" points="3623.61,-479.04 3618.5,-469.77 3616.71,-480.21 3623.61,-479.04"/>
<text text-anchor="middle" x="3825.5" y="-570.71" font-family="Times,serif" font-size="20.00">http://headers.websec.saarland</text>
<text text-anchor="middle" x="3825.5" y="-548.71" font-family="Times,serif" font-size="20.00">http://sub.headers.websec.saarland</text>
<text text-anchor="middle" x="3825.5" y="-526.71" font-family="Times,serif" font-size="20.00">http://sub.sub.headers.websec.saarland</text>
</g>
<!-- SG_1_Node_7 -->
<g id="node35" class="node">
<title>SG_1_Node_7</title>
<polygon fill="none" stroke="black" points="2551,-344.07 2419,-344.07 2419,-308.07 2551,-308.07 2551,-344.07"/>
<text text-anchor="middle" x="2485" y="-321.07" font-family="Times,serif" font-size="20.00">resp_origin</text>
</g>
<!-- SG_1_Node_5&#45;&gt;SG_1_Node_7 -->
<g id="edge37" class="edge">
<title>SG_1_Node_5&#45;&gt;SG_1_Node_7</title>
<path fill="none" stroke="black" d="M2666.05,-430.41C2661.32,-429.25 2656.59,-428.18 2652,-427.28 2615.59,-420.11 2510.95,-436.74 2486,-409.28 2472.76,-394.71 2473.5,-371.97 2476.99,-354.1"/>
<polygon fill="black" stroke="black" points="2480.43,-354.77 2479.29,-344.24 2473.61,-353.19 2480.43,-354.77"/>
<text text-anchor="middle" x="2667.5" y="-382.28" font-family="Times,serif" font-size="20.00">http://sub.headers.websec.saarland</text>
</g>
<!-- SG_1_Node_8 -->
<g id="node36" class="node">
<title>SG_1_Node_8</title>
<polygon fill="none" stroke="black" points="3019.5,-344.07 2918.5,-344.07 2918.5,-308.07 3019.5,-308.07 3019.5,-344.07"/>
<text text-anchor="middle" x="2969" y="-321.07" font-family="Times,serif" font-size="20.00">browser</text>
</g>
<!-- SG_1_Node_5&#45;&gt;SG_1_Node_8 -->
<g id="edge38" class="edge">
<title>SG_1_Node_5&#45;&gt;SG_1_Node_8</title>
<path fill="none" stroke="black" d="M2783.25,-436.03C2805.08,-430.19 2829.16,-421.62 2849,-409.28 2871.7,-395.16 2868.49,-381.15 2890,-365.28 2898.36,-359.11 2907.88,-353.52 2917.33,-348.63"/>
<polygon fill="black" stroke="black" points="2918.94,-351.74 2926.35,-344.16 2915.83,-345.47 2918.94,-351.74"/>
<text text-anchor="middle" x="3076.5" y="-393.28" font-family="Times,serif" font-size="20.00">[NA]</text>
<text text-anchor="middle" x="3076.5" y="-371.28" font-family="Times,serif" font-size="20.00">https://sub.headers.websec.saarland</text>
</g>
<!-- SG_1_Node_15 -->
<g id="node37" class="node">
<title>SG_1_Node_15</title>
<ellipse fill="none" stroke="black" cx="3267" cy="-326.07" rx="33.88" ry="21.43"/>
<text text-anchor="middle" x="3267" y="-321.07" font-family="Times,serif" font-size="20.00">0.0</text>
</g>
<!-- SG_1_Node_6&#45;&gt;SG_1_Node_15 -->
<g id="edge29" class="edge">
<title>SG_1_Node_6&#45;&gt;SG_1_Node_15</title>
<path fill="none" stroke="black" d="M3267,-430.24C3267,-411.37 3267,-380.77 3267,-357.78"/>
<polygon fill="black" stroke="black" points="3270.5,-357.51 3267,-347.51 3263.5,-357.51 3270.5,-357.51"/>
<text text-anchor="middle" x="3448.5" y="-382.28" font-family="Times,serif" font-size="20.00">http://sub.headers.websec.saarland</text>
</g>
<!-- SG_1_Node_9 -->
<g id="node38" class="node">
<title>SG_1_Node_9</title>
<polygon fill="none" stroke="black" points="3719,-344.07 3587,-344.07 3587,-308.07 3719,-308.07 3719,-344.07"/>
<text text-anchor="middle" x="3653" y="-321.07" font-family="Times,serif" font-size="20.00">resp_origin</text>
</g>
<!-- SG_1_Node_6&#45;&gt;SG_1_Node_9 -->
<g id="edge30" class="edge">
<title>SG_1_Node_6&#45;&gt;SG_1_Node_9</title>
<path fill="none" stroke="black" d="M3328.33,-444.81C3426.07,-439.98 3608.5,-428.5 3631,-409.28 3646.68,-395.88 3651.8,-372.65 3653.22,-354.29"/>
<polygon fill="black" stroke="black" points="3656.72,-354.3 3653.67,-344.16 3649.73,-353.99 3656.72,-354.3"/>
<text text-anchor="middle" x="3837.5" y="-393.28" font-family="Times,serif" font-size="20.00">[NA]</text>
<text text-anchor="middle" x="3837.5" y="-371.28" font-family="Times,serif" font-size="20.00">https://sub.headers.websec.saarland</text>
</g>
<!-- SG_1_Node_16 -->
<g id="node39" class="node">
<title>SG_1_Node_16</title>
<ellipse fill="none" stroke="black" cx="2203" cy="-137.64" rx="33.88" ry="21.43"/>
<text text-anchor="middle" x="2203" y="-132.64" font-family="Times,serif" font-size="20.00">0.0</text>
</g>
<!-- SG_1_Node_7&#45;&gt;SG_1_Node_16 -->
<g id="edge43" class="edge">
<title>SG_1_Node_7&#45;&gt;SG_1_Node_16</title>
<path fill="none" stroke="black" d="M2418.96,-321.25C2335.07,-315.72 2199.28,-304.19 2184,-286.85 2155.05,-253.99 2172.55,-200.01 2187.82,-167.06"/>
<polygon fill="black" stroke="black" points="2191.02,-168.48 2192.23,-157.95 2184.72,-165.43 2191.02,-168.48"/>
<text text-anchor="middle" x="2370.5" y="-226.85" font-family="Times,serif" font-size="20.00">https://sub.headers.websec.saarland</text>
</g>
<!-- SG_1_Node_17 -->
<g id="node40" class="node">
<title>SG_1_Node_17</title>
<ellipse fill="none" stroke="black" cx="2583" cy="-137.64" rx="33.88" ry="21.43"/>
<text text-anchor="middle" x="2583" y="-132.64" font-family="Times,serif" font-size="20.00">1.0</text>
</g>
<!-- SG_1_Node_7&#45;&gt;SG_1_Node_17 -->
<g id="edge44" class="edge">
<title>SG_1_Node_7&#45;&gt;SG_1_Node_17</title>
<path fill="none" stroke="black" d="M2535.91,-308.01C2545.54,-302.64 2554.6,-295.71 2561,-286.85 2585.93,-252.39 2587.99,-201.48 2586.22,-169.2"/>
<polygon fill="black" stroke="black" points="2589.7,-168.75 2585.5,-159.02 2582.71,-169.24 2589.7,-168.75"/>
<text text-anchor="middle" x="2767.5" y="-226.85" font-family="Times,serif" font-size="20.00">http://sub.headers.websec.saarland</text>
</g>
<!-- SG_1_Node_10 -->
<g id="node41" class="node">
<title>SG_1_Node_10</title>
<polygon fill="none" stroke="black" points="3035,-155.64 2903,-155.64 2903,-119.64 3035,-119.64 3035,-155.64"/>
<text text-anchor="middle" x="2969" y="-132.64" font-family="Times,serif" font-size="20.00">resp_origin</text>
</g>
<!-- SG_1_Node_8&#45;&gt;SG_1_Node_10 -->
<g id="edge39" class="edge">
<title>SG_1_Node_8&#45;&gt;SG_1_Node_10</title>
<path fill="none" stroke="black" d="M2969,-307.86C2969,-275.4 2969,-204.88 2969,-165.9"/>
<polygon fill="black" stroke="black" points="2972.5,-165.8 2969,-155.8 2965.5,-165.8 2972.5,-165.8"/>
<text text-anchor="middle" x="3193.5" y="-270.85" font-family="Times,serif" font-size="20.00">firefox Ubuntu 22.04 119 selenium headless</text>
<text text-anchor="middle" x="3193.5" y="-248.85" font-family="Times,serif" font-size="20.00">firefox Ubuntu 22.04 119 selenium xvfb</text>
<text text-anchor="middle" x="3193.5" y="-226.85" font-family="Times,serif" font-size="20.00">firefox macOS 14.0 119 selenium headless</text>
<text text-anchor="middle" x="3193.5" y="-204.85" font-family="Times,serif" font-size="20.00">firefox macOS 14.0 119 selenium real</text>
<text text-anchor="middle" x="3193.5" y="-182.85" font-family="Times,serif" font-size="20.00">safari macOS 14.0 17.0 selenium real</text>
</g>
<!-- SG_1_Node_18 -->
<g id="node42" class="node">
<title>SG_1_Node_18</title>
<ellipse fill="none" stroke="black" cx="3441" cy="-137.64" rx="33.88" ry="21.43"/>
<text text-anchor="middle" x="3441" y="-132.64" font-family="Times,serif" font-size="20.00">1.0</text>
</g>
<!-- SG_1_Node_8&#45;&gt;SG_1_Node_18 -->
<g id="edge40" class="edge">
<title>SG_1_Node_8&#45;&gt;SG_1_Node_18</title>
<path fill="none" stroke="black" d="M3019.51,-320.98C3136.68,-311.47 3417.19,-288.55 3419,-286.85 3435.6,-271.27 3439.78,-207.7 3440.77,-169.06"/>
<polygon fill="black" stroke="black" points="3444.27,-168.94 3440.97,-158.88 3437.27,-168.81 3444.27,-168.94"/>
<text text-anchor="middle" x="3485.5" y="-237.85" font-family="Times,serif" font-size="20.00">[NA]</text>
<text text-anchor="middle" x="3485.5" y="-215.85" font-family="Times,serif" font-size="20.00">14 levels</text>
</g>
<!-- SG_1_Node_19 -->
<g id="node43" class="node">
<title>SG_1_Node_19</title>
<ellipse fill="none" stroke="black" cx="3555" cy="-137.64" rx="33.88" ry="21.43"/>
<text text-anchor="middle" x="3555" y="-132.64" font-family="Times,serif" font-size="20.00">0.0</text>
</g>
<!-- SG_1_Node_9&#45;&gt;SG_1_Node_19 -->
<g id="edge31" class="edge">
<title>SG_1_Node_9&#45;&gt;SG_1_Node_19</title>
<path fill="none" stroke="black" d="M3586.62,-311.11C3574.57,-305.54 3563.47,-297.75 3556,-286.85 3532.03,-251.91 3538.49,-200.59 3546.14,-168.42"/>
<polygon fill="black" stroke="black" points="3549.54,-169.25 3548.63,-158.7 3542.76,-167.52 3549.54,-169.25"/>
<text text-anchor="middle" x="3708.5" y="-237.85" font-family="Times,serif" font-size="20.00">http://headers.webappsec.eu</text>
<text text-anchor="middle" x="3708.5" y="-215.85" font-family="Times,serif" font-size="20.00">https://headers.webappsec.eu</text>
</g>
<!-- SG_1_Node_20 -->
<g id="node44" class="node">
<title>SG_1_Node_20</title>
<ellipse fill="none" stroke="black" cx="3883" cy="-137.64" rx="33.88" ry="21.43"/>
<text text-anchor="middle" x="3883" y="-132.64" font-family="Times,serif" font-size="20.00">1.0</text>
</g>
<!-- SG_1_Node_9&#45;&gt;SG_1_Node_20 -->
<g id="edge32" class="edge">
<title>SG_1_Node_9&#45;&gt;SG_1_Node_20</title>
<path fill="none" stroke="black" d="M3719.02,-321.16C3772.38,-316.56 3841.67,-306.85 3861,-286.85 3891.09,-255.71 3891.35,-202.39 3887.85,-168.91"/>
<polygon fill="black" stroke="black" points="3891.3,-168.29 3886.61,-158.79 3884.35,-169.14 3891.3,-168.29"/>
<text text-anchor="middle" x="4096.5" y="-259.85" font-family="Times,serif" font-size="20.00">[NA]</text>
<text text-anchor="middle" x="4096.5" y="-237.85" font-family="Times,serif" font-size="20.00">https://headers.websec.saarland</text>
<text text-anchor="middle" x="4096.5" y="-215.85" font-family="Times,serif" font-size="20.00">https://sub.headers.websec.saarland</text>
<text text-anchor="middle" x="4096.5" y="-193.85" font-family="Times,serif" font-size="20.00">https://sub.sub.headers.websec.saarland</text>
</g>
<!-- SG_1_Node_21 -->
<g id="node45" class="node">
<title>SG_1_Node_21</title>
<ellipse fill="none" stroke="black" cx="2776" cy="-37.21" rx="33.88" ry="21.43"/>
<text text-anchor="middle" x="2776" y="-32.21" font-family="Times,serif" font-size="20.00">0.0</text>
</g>
<!-- SG_1_Node_10&#45;&gt;SG_1_Node_21 -->
<g id="edge41" class="edge">
<title>SG_1_Node_10&#45;&gt;SG_1_Node_21</title>
<path fill="none" stroke="black" d="M2902.92,-132.19C2853.94,-127.36 2793.01,-117.61 2777,-98.43 2770.17,-90.24 2768.62,-79.02 2769.23,-68.48"/>
<polygon fill="black" stroke="black" points="2772.74,-68.65 2770.45,-58.3 2765.79,-67.82 2772.74,-68.65"/>
<text text-anchor="middle" x="2958.5" y="-82.43" font-family="Times,serif" font-size="20.00">http://sub.headers.websec.saarland</text>
</g>
<!-- SG_1_Node_22 -->
<g id="node46" class="node">
<title>SG_1_Node_22</title>
<ellipse fill="none" stroke="black" cx="3162" cy="-37.21" rx="33.88" ry="21.43"/>
<text text-anchor="middle" x="3162" y="-32.21" font-family="Times,serif" font-size="20.00">1.0</text>
</g>
<!-- SG_1_Node_10&#45;&gt;SG_1_Node_22 -->
<g id="edge42" class="edge">
<title>SG_1_Node_10&#45;&gt;SG_1_Node_22</title>
<path fill="none" stroke="black" d="M3035.34,-128.45C3076.46,-122.15 3124.34,-112.17 3140,-98.43 3148.69,-90.81 3153.94,-79.46 3157.13,-68.67"/>
<polygon fill="black" stroke="black" points="3160.61,-69.18 3159.59,-58.63 3153.81,-67.51 3160.61,-69.18"/>
<text text-anchor="middle" x="3340.5" y="-82.43" font-family="Times,serif" font-size="20.00">https://sub.headers.websec.saarland</text>
</g>
</g>
</svg>
