<?xml version="1.0" encoding="UTF-8" standalone="no"?>
<!DOCTYPE svg PUBLIC "-//W3C//DTD SVG 1.1//EN"
 "http://www.w3.org/Graphics/SVG/1.1/DTD/svg11.dtd">
<!-- Generated by graphviz version 2.43.0 (0)
 -->
<!-- Title: G Pages: 1 -->
<svg width="1460pt" height="257pt"
 viewBox="0.00 0.00 1460.00 256.85" xmlns="http://www.w3.org/2000/svg" xmlns:xlink="http://www.w3.org/1999/xlink">
<g id="graph0" class="graph" transform="scale(1 1) rotate(0) translate(4 252.85)">
<title>G</title>
<polygon fill="white" stroke="transparent" points="-4,4 -4,-252.85 1456,-252.85 1456,4 -4,4"/>
<g id="clust1" class="cluster">
<title>cluster_0</title>
<polygon fill="none" stroke="black" points="8,-8 8,-237.64 407,-237.64 407,-8 8,-8"/>
<text text-anchor="middle" x="207.5" y="-201.64" font-family="Times,serif" font-size="40.00">Tree 0, Class error</text>
</g>
<g id="clust4" class="cluster">
<title>cluster_1</title>
<polygon fill="none" stroke="black" points="415,-8 415,-237.64 796,-237.64 796,-8 415,-8"/>
<text text-anchor="middle" x="605.5" y="-201.64" font-family="Times,serif" font-size="40.00">Tree 0, Class load</text>
</g>
<g id="clust7" class="cluster">
<title>cluster_2</title>
<polygon fill="none" stroke="black" points="804,-130.43 804,-240.85 1444,-240.85 1444,-130.43 804,-130.43"/>
<text text-anchor="middle" x="1124" y="-204.85" font-family="Times,serif" font-size="40.00">Tree 0, Class message timeout</text>
</g>
<!-- SG_0_Node_0 -->
<g id="node1" class="node">
<title>SG_0_Node_0</title>
<polygon fill="none" stroke="black" points="170.5,-177.64 33.5,-177.64 33.5,-141.64 170.5,-141.64 170.5,-177.64"/>
<text text-anchor="middle" x="102" y="-154.64" font-family="Times,serif" font-size="20.00">status_code</text>
</g>
<!-- SG_0_Node_2 -->
<g id="node2" class="node">
<title>SG_0_Node_2</title>
<ellipse fill="none" stroke="black" cx="76" cy="-37.21" rx="33.88" ry="21.43"/>
<text text-anchor="middle" x="76" y="-32.21" font-family="Times,serif" font-size="20.00">0.0</text>
</g>
<!-- SG_0_Node_0&#45;&gt;SG_0_Node_2 -->
<g id="edge1" class="edge">
<title>SG_0_Node_0&#45;&gt;SG_0_Node_2</title>
<path fill="none" stroke="black" d="M95.41,-141.32C93.13,-134.84 90.72,-127.37 89,-120.43 84.83,-103.56 81.71,-84.4 79.57,-68.82"/>
<polygon fill="black" stroke="black" points="83.01,-68.14 78.25,-58.68 76.07,-69.05 83.01,-68.14"/>
<text text-anchor="middle" x="112.5" y="-104.43" font-family="Times,serif" font-size="20.00">[NA]</text>
<text text-anchor="middle" x="112.5" y="-82.43" font-family="Times,serif" font-size="20.00">200</text>
</g>
<!-- SG_0_Node_3 -->
<g id="node3" class="node">
<title>SG_0_Node_3</title>
<ellipse fill="none" stroke="black" cx="162" cy="-37.21" rx="33.88" ry="21.43"/>
<text text-anchor="middle" x="162" y="-32.21" font-family="Times,serif" font-size="20.00">0.5</text>
</g>
<!-- SG_0_Node_0&#45;&gt;SG_0_Node_3 -->
<g id="edge2" class="edge">
<title>SG_0_Node_0&#45;&gt;SG_0_Node_3</title>
<path fill="none" stroke="black" d="M119.95,-141.59C125.71,-135.37 131.7,-127.99 136,-120.43 145.16,-104.3 151.54,-84.54 155.69,-68.43"/>
<polygon fill="black" stroke="black" points="159.16,-68.98 158.1,-58.44 152.35,-67.34 159.16,-68.98"/>
<text text-anchor="middle" x="172.5" y="-93.43" font-family="Times,serif" font-size="20.00">302</text>
</g>
<!-- SG_1_Node_0 -->
<g id="node4" class="node">
<title>SG_1_Node_0</title>
<polygon fill="none" stroke="black" points="573.5,-177.64 436.5,-177.64 436.5,-141.64 573.5,-141.64 573.5,-177.64"/>
<text text-anchor="middle" x="505" y="-154.64" font-family="Times,serif" font-size="20.00">status_code</text>
</g>
<!-- SG_1_Node_2 -->
<g id="node5" class="node">
<title>SG_1_Node_2</title>
<ellipse fill="none" stroke="black" cx="481" cy="-37.21" rx="33.88" ry="21.43"/>
<text text-anchor="middle" x="481" y="-32.21" font-family="Times,serif" font-size="20.00">0.0</text>
</g>
<!-- SG_1_Node_0&#45;&gt;SG_1_Node_2 -->
<g id="edge3" class="edge">
<title>SG_1_Node_0&#45;&gt;SG_1_Node_2</title>
<path fill="none" stroke="black" d="M501.56,-141.39C497.78,-122.44 491.65,-91.64 487.06,-68.62"/>
<polygon fill="black" stroke="black" points="490.46,-67.78 485.07,-58.66 483.6,-69.15 490.46,-67.78"/>
<text text-anchor="middle" x="516.5" y="-93.43" font-family="Times,serif" font-size="20.00">302</text>
</g>
<!-- SG_1_Node_3 -->
<g id="node6" class="node">
<title>SG_1_Node_3</title>
<ellipse fill="none" stroke="black" cx="567" cy="-37.21" rx="33.88" ry="21.43"/>
<text text-anchor="middle" x="567" y="-32.21" font-family="Times,serif" font-size="20.00">0.5</text>
</g>
<!-- SG_1_Node_0&#45;&gt;SG_1_Node_3 -->
<g id="edge4" class="edge">
<title>SG_1_Node_0&#45;&gt;SG_1_Node_3</title>
<path fill="none" stroke="black" d="M522.86,-141.53C528.61,-135.31 534.62,-127.95 539,-120.43 548.4,-104.29 555.26,-84.52 559.84,-68.41"/>
<polygon fill="black" stroke="black" points="563.31,-69 562.52,-58.43 556.55,-67.18 563.31,-69"/>
<text text-anchor="middle" x="580.5" y="-104.43" font-family="Times,serif" font-size="20.00">[NA]</text>
<text text-anchor="middle" x="580.5" y="-82.43" font-family="Times,serif" font-size="20.00">200</text>
</g>
<!-- SG_2_Node_0 -->
<g id="node7" class="node">
<title>SG_2_Node_0</title>
<ellipse fill="none" stroke="black" cx="1124" cy="-159.64" rx="33.88" ry="21.43"/>
<text text-anchor="middle" x="1124" y="-154.64" font-family="Times,serif" font-size="20.00">0.5</text>
</g>
</g>
</svg>
