<?xml version="1.0" encoding="UTF-8" standalone="no"?>
<!DOCTYPE svg PUBLIC "-//W3C//DTD SVG 1.1//EN"
 "http://www.w3.org/Graphics/SVG/1.1/DTD/svg11.dtd">
<!-- Generated by graphviz version 2.43.0 (0)
 -->
<!-- Title: G Pages: 1 -->
<svg width="3192pt" height="395pt"
 viewBox="0.00 0.00 3192.00 394.85" xmlns="http://www.w3.org/2000/svg" xmlns:xlink="http://www.w3.org/1999/xlink">
<g id="graph0" class="graph" transform="scale(1 1) rotate(0) translate(4 390.85)">
<title>G</title>
<polygon fill="white" stroke="transparent" points="-4,4 -4,-390.85 3188,-390.85 3188,4 -4,4"/>
<g id="clust1" class="cluster">
<title>cluster_0</title>
<polygon fill="none" stroke="black" points="8,-8 8,-378.85 1588,-378.85 1588,-8 8,-8"/>
<text text-anchor="middle" x="798" y="-342.85" font-family="Times,serif" font-size="40.00">Tree 0, Class {&#39;response.redirected&#39;: False}</text>
</g>
<g id="clust5" class="cluster">
<title>cluster_1</title>
<polygon fill="none" stroke="black" points="1596,-8 1596,-378.85 3176,-378.85 3176,-8 1596,-8"/>
<text text-anchor="middle" x="2386" y="-342.85" font-family="Times,serif" font-size="40.00">Tree 0, Class {&#39;response.redirected&#39;: True}</text>
</g>
<!-- SG_0_Node_0 -->
<g id="node1" class="node">
<title>SG_0_Node_0</title>
<polygon fill="none" stroke="black" points="855.5,-318.85 718.5,-318.85 718.5,-282.85 855.5,-282.85 855.5,-318.85"/>
<text text-anchor="middle" x="787" y="-295.85" font-family="Times,serif" font-size="20.00">raw_header</text>
</g>
<!-- SG_0_Node_1 -->
<g id="node2" class="node">
<title>SG_0_Node_1</title>
<polygon fill="none" stroke="black" points="148,-177.64 16,-177.64 16,-141.64 148,-141.64 148,-177.64"/>
<text text-anchor="middle" x="82" y="-154.64" font-family="Times,serif" font-size="20.00">resp_origin</text>
</g>
<!-- SG_0_Node_0&#45;&gt;SG_0_Node_1 -->
<g id="edge1" class="edge">
<title>SG_0_Node_0&#45;&gt;SG_0_Node_1</title>
<path fill="none" stroke="black" d="M718.41,-299.21C536.6,-297.19 54.53,-289.5 31,-264.85 10.74,-243.64 17.88,-225.09 31,-198.85 33.7,-193.46 37.55,-188.64 41.95,-184.38"/>
<polygon fill="black" stroke="black" points="44.4,-186.89 49.77,-177.75 39.88,-181.55 44.4,-186.89"/>
<text text-anchor="middle" x="747" y="-248.85" font-family="Times,serif" font-size="20.00">[[&#39;Strict&#45;Transport&#45;Security&#39;, &#39;max&#45;age=20; includeSubDomains&#39;], [&#39;location&#39;, &#39;https://sub.headers.websec.saarland/_hp/common/empty.html&#39;]]</text>
<text text-anchor="middle" x="747" y="-226.85" font-family="Times,serif" font-size="20.00">[[&#39;Strict&#45;Transport&#45;Security&#39;, &#39;max&#45;age=20; includeSubDomains&#39;]]</text>
<text text-anchor="middle" x="747" y="-204.85" font-family="Times,serif" font-size="20.00">[[&#39;Strict&#45;Transport&#45;Security&#39;, &#39;max&#45;age=20; includeSubDomains; preload&#39;]]</text>
</g>
<!-- SG_0_Node_2 -->
<g id="node3" class="node">
<title>SG_0_Node_2</title>
<ellipse fill="none" stroke="black" cx="1489" cy="-159.64" rx="33.88" ry="21.43"/>
<text text-anchor="middle" x="1489" y="-154.64" font-family="Times,serif" font-size="20.00">1.0</text>
</g>
<!-- SG_0_Node_0&#45;&gt;SG_0_Node_2 -->
<g id="edge2" class="edge">
<title>SG_0_Node_0&#45;&gt;SG_0_Node_2</title>
<path fill="none" stroke="black" d="M855.7,-298.56C1023.83,-295.09 1444.03,-284.48 1467,-264.85 1487.72,-247.14 1491.88,-215.27 1491.67,-191.42"/>
<polygon fill="black" stroke="black" points="1495.16,-190.98 1491.31,-181.11 1488.16,-191.22 1495.16,-190.98"/>
<text text-anchor="middle" x="1536.5" y="-237.85" font-family="Times,serif" font-size="20.00">[NA]</text>
<text text-anchor="middle" x="1536.5" y="-215.85" font-family="Times,serif" font-size="20.00">11 levels</text>
</g>
<!-- SG_0_Node_3 -->
<g id="node4" class="node">
<title>SG_0_Node_3</title>
<ellipse fill="none" stroke="black" cx="66" cy="-37.21" rx="33.88" ry="21.43"/>
<text text-anchor="middle" x="66" y="-32.21" font-family="Times,serif" font-size="20.00">0.0</text>
</g>
<!-- SG_0_Node_1&#45;&gt;SG_0_Node_3 -->
<g id="edge3" class="edge">
<title>SG_0_Node_1&#45;&gt;SG_0_Node_3</title>
<path fill="none" stroke="black" d="M73.76,-141.54C71.06,-135.08 68.4,-127.56 67,-120.43 63.71,-103.58 63.29,-84.42 63.77,-68.84"/>
<polygon fill="black" stroke="black" points="67.27,-68.84 64.22,-58.69 60.28,-68.53 67.27,-68.84"/>
<text text-anchor="middle" x="253.5" y="-93.43" font-family="Times,serif" font-size="20.00">https://sub.headers.websec.saarland</text>
</g>
<!-- SG_0_Node_4 -->
<g id="node5" class="node">
<title>SG_0_Node_4</title>
<ellipse fill="none" stroke="black" cx="462" cy="-37.21" rx="33.88" ry="21.43"/>
<text text-anchor="middle" x="462" y="-32.21" font-family="Times,serif" font-size="20.00">1.0</text>
</g>
<!-- SG_0_Node_1&#45;&gt;SG_0_Node_4 -->
<g id="edge4" class="edge">
<title>SG_0_Node_1&#45;&gt;SG_0_Node_4</title>
<path fill="none" stroke="black" d="M148.23,-155.58C245.62,-150.49 418.33,-138.97 440,-120.43 454.76,-107.8 460.16,-86.46 461.92,-68.69"/>
<polygon fill="black" stroke="black" points="465.43,-68.67 462.59,-58.46 458.45,-68.21 465.43,-68.67"/>
<text text-anchor="middle" x="641.5" y="-104.43" font-family="Times,serif" font-size="20.00">[NA]</text>
<text text-anchor="middle" x="641.5" y="-82.43" font-family="Times,serif" font-size="20.00">http://sub.headers.websec.saarland</text>
</g>
<!-- SG_1_Node_0 -->
<g id="node6" class="node">
<title>SG_1_Node_0</title>
<polygon fill="none" stroke="black" points="1772.5,-318.85 1635.5,-318.85 1635.5,-282.85 1772.5,-282.85 1772.5,-318.85"/>
<text text-anchor="middle" x="1704" y="-295.85" font-family="Times,serif" font-size="20.00">raw_header</text>
</g>
<!-- SG_1_Node_2 -->
<g id="node7" class="node">
<title>SG_1_Node_2</title>
<ellipse fill="none" stroke="black" cx="1638" cy="-159.64" rx="33.88" ry="21.43"/>
<text text-anchor="middle" x="1638" y="-154.64" font-family="Times,serif" font-size="20.00">0.0</text>
</g>
<!-- SG_1_Node_0&#45;&gt;SG_1_Node_2 -->
<g id="edge5" class="edge">
<title>SG_1_Node_0&#45;&gt;SG_1_Node_2</title>
<path fill="none" stroke="black" d="M1641.2,-282.63C1633.62,-278.03 1626.86,-272.21 1622,-264.85 1607.24,-242.5 1614.58,-211.65 1623.58,-189.32"/>
<polygon fill="black" stroke="black" points="1626.85,-190.59 1627.62,-180.02 1620.43,-187.8 1626.85,-190.59"/>
<text text-anchor="middle" x="1667.5" y="-237.85" font-family="Times,serif" font-size="20.00">[NA]</text>
<text text-anchor="middle" x="1667.5" y="-215.85" font-family="Times,serif" font-size="20.00">11 levels</text>
</g>
<!-- SG_1_Node_1 -->
<g id="node8" class="node">
<title>SG_1_Node_1</title>
<polygon fill="none" stroke="black" points="1822,-177.64 1690,-177.64 1690,-141.64 1822,-141.64 1822,-177.64"/>
<text text-anchor="middle" x="1756" y="-154.64" font-family="Times,serif" font-size="20.00">resp_origin</text>
</g>
<!-- SG_1_Node_0&#45;&gt;SG_1_Node_1 -->
<g id="edge6" class="edge">
<title>SG_1_Node_0&#45;&gt;SG_1_Node_1</title>
<path fill="none" stroke="black" d="M1710.38,-282.78C1719.26,-258.99 1735.47,-215.6 1745.98,-187.46"/>
<polygon fill="black" stroke="black" points="1749.35,-188.44 1749.57,-177.85 1742.79,-185.99 1749.35,-188.44"/>
<text text-anchor="middle" x="2456" y="-248.85" font-family="Times,serif" font-size="20.00">[[&#39;Strict&#45;Transport&#45;Security&#39;, &#39;max&#45;age=20; includeSubDomains&#39;], [&#39;location&#39;, &#39;https://sub.headers.websec.saarland/_hp/common/empty.html&#39;]]</text>
<text text-anchor="middle" x="2456" y="-226.85" font-family="Times,serif" font-size="20.00">[[&#39;Strict&#45;Transport&#45;Security&#39;, &#39;max&#45;age=20; includeSubDomains&#39;]]</text>
<text text-anchor="middle" x="2456" y="-204.85" font-family="Times,serif" font-size="20.00">[[&#39;Strict&#45;Transport&#45;Security&#39;, &#39;max&#45;age=20; includeSubDomains; preload&#39;]]</text>
</g>
<!-- SG_1_Node_3 -->
<g id="node9" class="node">
<title>SG_1_Node_3</title>
<ellipse fill="none" stroke="black" cx="1697" cy="-37.21" rx="33.88" ry="21.43"/>
<text text-anchor="middle" x="1697" y="-32.21" font-family="Times,serif" font-size="20.00">0.0</text>
</g>
<!-- SG_1_Node_1&#45;&gt;SG_1_Node_3 -->
<g id="edge7" class="edge">
<title>SG_1_Node_1&#45;&gt;SG_1_Node_3</title>
<path fill="none" stroke="black" d="M1718.31,-141.5C1710.21,-135.97 1702.68,-129 1698,-120.43 1689.46,-104.81 1689.01,-84.9 1690.78,-68.59"/>
<polygon fill="black" stroke="black" points="1694.28,-68.86 1692.21,-58.47 1687.35,-67.88 1694.28,-68.86"/>
<text text-anchor="middle" x="1879.5" y="-93.43" font-family="Times,serif" font-size="20.00">http://sub.headers.websec.saarland</text>
</g>
<!-- SG_1_Node_4 -->
<g id="node10" class="node">
<title>SG_1_Node_4</title>
<ellipse fill="none" stroke="black" cx="2083" cy="-37.21" rx="33.88" ry="21.43"/>
<text text-anchor="middle" x="2083" y="-32.21" font-family="Times,serif" font-size="20.00">1.0</text>
</g>
<!-- SG_1_Node_1&#45;&gt;SG_1_Node_4 -->
<g id="edge8" class="edge">
<title>SG_1_Node_1&#45;&gt;SG_1_Node_4</title>
<path fill="none" stroke="black" d="M1822.13,-158.73C1900.98,-157.45 2026.46,-150.54 2061,-120.43 2075.48,-107.8 2080.93,-86.8 2082.78,-69.18"/>
<polygon fill="black" stroke="black" points="2086.3,-68.97 2083.52,-58.75 2079.32,-68.48 2086.3,-68.97"/>
<text text-anchor="middle" x="2267.5" y="-104.43" font-family="Times,serif" font-size="20.00">[NA]</text>
<text text-anchor="middle" x="2267.5" y="-82.43" font-family="Times,serif" font-size="20.00">https://sub.headers.websec.saarland</text>
</g>
</g>
</svg>
