<?xml version="1.0" encoding="UTF-8" standalone="no"?>
<!DOCTYPE svg PUBLIC "-//W3C//DTD SVG 1.1//EN"
 "http://www.w3.org/Graphics/SVG/1.1/DTD/svg11.dtd">
<!-- Generated by graphviz version 2.43.0 (0)
 -->
<!-- Title: G Pages: 1 -->
<svg width="6497pt" height="941pt"
 viewBox="0.00 0.00 6497.09 941.28" xmlns="http://www.w3.org/2000/svg" xmlns:xlink="http://www.w3.org/1999/xlink">
<g id="graph0" class="graph" transform="scale(1 1) rotate(0) translate(4 937.28)">
<title>G</title>
<polygon fill="white" stroke="transparent" points="-4,4 -4,-937.28 6493.09,-937.28 6493.09,4 -4,4"/>
<g id="clust1" class="cluster">
<title>cluster_0</title>
<polygon fill="none" stroke="black" points="20.09,-8 20.09,-925.28 3244.09,-925.28 3244.09,-8 20.09,-8"/>
<text text-anchor="middle" x="1632.09" y="-889.28" font-family="Times,serif" font-size="40.00">Tree 0, Class {&#39;response.redirected&#39;: False}</text>
</g>
<g id="clust7" class="cluster">
<title>cluster_1</title>
<polygon fill="none" stroke="black" points="3252.09,-8 3252.09,-925.28 6476.09,-925.28 6476.09,-8 3252.09,-8"/>
<text text-anchor="middle" x="4864.09" y="-889.28" font-family="Times,serif" font-size="40.00">Tree 0, Class {&#39;response.redirected&#39;: True}</text>
</g>
<!-- SG_0_Node_0 -->
<g id="node1" class="node">
<title>SG_0_Node_0</title>
<polygon fill="none" stroke="black" points="867.59,-865.28 730.59,-865.28 730.59,-829.28 867.59,-829.28 867.59,-865.28"/>
<text text-anchor="middle" x="799.09" y="-842.28" font-family="Times,serif" font-size="20.00">raw_header</text>
</g>
<!-- SG_0_Node_1 -->
<g id="node2" class="node">
<title>SG_0_Node_1</title>
<polygon fill="none" stroke="black" points="160.09,-573.28 28.09,-573.28 28.09,-537.28 160.09,-537.28 160.09,-573.28"/>
<text text-anchor="middle" x="94.09" y="-550.28" font-family="Times,serif" font-size="20.00">resp_origin</text>
</g>
<!-- SG_0_Node_0&#45;&gt;SG_0_Node_1 -->
<g id="edge1" class="edge">
<title>SG_0_Node_0&#45;&gt;SG_0_Node_1</title>
<path fill="none" stroke="black" d="M730.5,-845.64C548.69,-843.61 66.62,-835.93 43.09,-811.28 -24.43,-740.56 -2.47,-677.8 43.09,-591.28 45.26,-587.16 48.16,-583.43 51.47,-580.08"/>
<polygon fill="black" stroke="black" points="54,-582.52 59.29,-573.34 49.43,-577.22 54,-582.52"/>
<text text-anchor="middle" x="759.09" y="-740.28" font-family="Times,serif" font-size="20.00">[[&#39;Strict&#45;Transport&#45;Security&#39;, &#39;max&#45;age=20&#39;], [&#39;location&#39;, &#39;https://sub.headers.websec.saarland/_hp/common/empty.html&#39;]]</text>
<text text-anchor="middle" x="759.09" y="-718.28" font-family="Times,serif" font-size="20.00">[[&#39;Strict&#45;Transport&#45;Security&#39;, &#39;max&#45;age=20&#39;]]</text>
<text text-anchor="middle" x="759.09" y="-696.28" font-family="Times,serif" font-size="20.00">[[&#39;Strict&#45;Transport&#45;Security&#39;, &#39;max&#45;age=20; includeSubDomains&#39;], [&#39;location&#39;, &#39;https://sub.headers.websec.saarland/_hp/common/empty.html&#39;]]</text>
<text text-anchor="middle" x="759.09" y="-674.28" font-family="Times,serif" font-size="20.00">[[&#39;Strict&#45;Transport&#45;Security&#39;, &#39;max&#45;age=20; includeSubDomains&#39;]]</text>
<text text-anchor="middle" x="759.09" y="-652.28" font-family="Times,serif" font-size="20.00">[[&#39;Strict&#45;Transport&#45;Security&#39;, &#39;max&#45;age=20; includeSubDomains; preload&#39;]]</text>
</g>
<!-- SG_0_Node_2 -->
<g id="node3" class="node">
<title>SG_0_Node_2</title>
<polygon fill="none" stroke="black" points="1551.59,-573.28 1450.59,-573.28 1450.59,-537.28 1551.59,-537.28 1551.59,-573.28"/>
<text text-anchor="middle" x="1501.09" y="-550.28" font-family="Times,serif" font-size="20.00">browser</text>
</g>
<!-- SG_0_Node_0&#45;&gt;SG_0_Node_2 -->
<g id="edge2" class="edge">
<title>SG_0_Node_0&#45;&gt;SG_0_Node_2</title>
<path fill="none" stroke="black" d="M867.63,-845.15C1035.91,-842.07 1457.34,-832.29 1479.09,-811.28 1510.98,-780.47 1506.52,-642.72 1503,-583.49"/>
<polygon fill="black" stroke="black" points="1506.49,-583.15 1502.37,-573.39 1499.5,-583.59 1506.49,-583.15"/>
<text text-anchor="middle" x="2372.59" y="-795.28" font-family="Times,serif" font-size="20.00">[NA]</text>
<text text-anchor="middle" x="2372.59" y="-773.28" font-family="Times,serif" font-size="20.00">[[&#39;Strict&#45;Transport&#45;Security&#39;, &#39;&#39;]]</text>
<text text-anchor="middle" x="2372.59" y="-751.28" font-family="Times,serif" font-size="20.00">[[&#39;Strict&#45;Transport&#45;Security&#39;, &#39;*&#39;]]</text>
<text text-anchor="middle" x="2372.59" y="-729.28" font-family="Times,serif" font-size="20.00">[[&#39;Strict&#45;Transport&#45;Security&#39;, &#39;abc, max&#45;age=20&#39;]]</text>
<text text-anchor="middle" x="2372.59" y="-707.28" font-family="Times,serif" font-size="20.00">[[&#39;Strict&#45;Transport&#45;Security&#39;, &#39;includeSubDomains&#39;]]</text>
<text text-anchor="middle" x="2372.59" y="-685.28" font-family="Times,serif" font-size="20.00">[[&#39;Strict&#45;Transport&#45;Security&#39;, &#39;max&#45;age=&#45;5&#39;]]</text>
<text text-anchor="middle" x="2372.59" y="-663.28" font-family="Times,serif" font-size="20.00">[[&#39;Strict&#45;Transport&#45;Security&#39;, &#39;max&#45;age=0&#39;]]</text>
<text text-anchor="middle" x="2372.59" y="-641.28" font-family="Times,serif" font-size="20.00">[[&#39;Strict&#45;Transport&#45;Security&#39;, &#39;max&#45;age=20, max&#45;age=20; includeSubDomains, includeSubDomains, , max&#45;age=20; includeSubDomains; preload, max&#45;age=0, max&#45;age=&#45;5&#39;]]</text>
<text text-anchor="middle" x="2372.59" y="-619.28" font-family="Times,serif" font-size="20.00">[[&#39;Strict&#45;Transport&#45;Security&#39;, &#39;null&#39;]]</text>
<text text-anchor="middle" x="2372.59" y="-597.28" font-family="Times,serif" font-size="20.00">[]</text>
</g>
<!-- SG_0_Node_5 -->
<g id="node4" class="node">
<title>SG_0_Node_5</title>
<ellipse fill="none" stroke="black" cx="78.09" cy="-436.07" rx="33.88" ry="21.43"/>
<text text-anchor="middle" x="78.09" y="-431.07" font-family="Times,serif" font-size="20.00">0.0</text>
</g>
<!-- SG_0_Node_1&#45;&gt;SG_0_Node_5 -->
<g id="edge9" class="edge">
<title>SG_0_Node_1&#45;&gt;SG_0_Node_5</title>
<path fill="none" stroke="black" d="M85.22,-537.27C82.74,-531.69 80.38,-525.36 79.09,-519.28 75.54,-502.49 75.1,-483.33 75.64,-467.74"/>
<polygon fill="black" stroke="black" points="79.14,-467.74 76.14,-457.58 72.15,-467.4 79.14,-467.74"/>
<text text-anchor="middle" x="265.59" y="-492.28" font-family="Times,serif" font-size="20.00">https://sub.headers.websec.saarland</text>
</g>
<!-- SG_0_Node_6 -->
<g id="node5" class="node">
<title>SG_0_Node_6</title>
<ellipse fill="none" stroke="black" cx="474.09" cy="-436.07" rx="33.88" ry="21.43"/>
<text text-anchor="middle" x="474.09" y="-431.07" font-family="Times,serif" font-size="20.00">1.0</text>
</g>
<!-- SG_0_Node_1&#45;&gt;SG_0_Node_6 -->
<g id="edge10" class="edge">
<title>SG_0_Node_1&#45;&gt;SG_0_Node_6</title>
<path fill="none" stroke="black" d="M160.3,-551.84C257.67,-547.65 430.36,-537.71 452.09,-519.28 466.97,-506.66 472.36,-485.18 474.08,-467.34"/>
<polygon fill="black" stroke="black" points="477.57,-467.55 474.71,-457.35 470.59,-467.1 477.57,-467.55"/>
<text text-anchor="middle" x="653.59" y="-503.28" font-family="Times,serif" font-size="20.00">[NA]</text>
<text text-anchor="middle" x="653.59" y="-481.28" font-family="Times,serif" font-size="20.00">http://sub.headers.websec.saarland</text>
</g>
<!-- SG_0_Node_3 -->
<g id="node6" class="node">
<title>SG_0_Node_3</title>
<polygon fill="none" stroke="black" points="1367.59,-454.07 1230.59,-454.07 1230.59,-418.07 1367.59,-418.07 1367.59,-454.07"/>
<text text-anchor="middle" x="1299.09" y="-431.07" font-family="Times,serif" font-size="20.00">raw_header</text>
</g>
<!-- SG_0_Node_2&#45;&gt;SG_0_Node_3 -->
<g id="edge3" class="edge">
<title>SG_0_Node_2&#45;&gt;SG_0_Node_3</title>
<path fill="none" stroke="black" d="M1450.13,-552.59C1397.06,-549.64 1319.03,-541.53 1300.09,-519.28 1287.41,-504.38 1288.02,-481.86 1291.33,-464.16"/>
<polygon fill="black" stroke="black" points="1294.75,-464.9 1293.51,-454.38 1287.91,-463.38 1294.75,-464.9"/>
<text text-anchor="middle" x="1491.09" y="-492.28" font-family="Times,serif" font-size="20.00">safari macOS 14.0 17.0 selenium real</text>
</g>
<!-- SG_0_Node_7 -->
<g id="node7" class="node">
<title>SG_0_Node_7</title>
<ellipse fill="none" stroke="black" cx="1704.09" cy="-436.07" rx="33.88" ry="21.43"/>
<text text-anchor="middle" x="1704.09" y="-431.07" font-family="Times,serif" font-size="20.00">1.0</text>
</g>
<!-- SG_0_Node_2&#45;&gt;SG_0_Node_7 -->
<g id="edge4" class="edge">
<title>SG_0_Node_2&#45;&gt;SG_0_Node_7</title>
<path fill="none" stroke="black" d="M1551.78,-550.44C1598.57,-545.87 1663.53,-536.57 1682.09,-519.28 1696.14,-506.18 1701.6,-485.18 1703.56,-467.69"/>
<polygon fill="black" stroke="black" points="1707.08,-467.59 1704.38,-457.35 1700.1,-467.04 1707.08,-467.59"/>
<text text-anchor="middle" x="1747.59" y="-503.28" font-family="Times,serif" font-size="20.00">[NA]</text>
<text text-anchor="middle" x="1747.59" y="-481.28" font-family="Times,serif" font-size="20.00">18 levels</text>
</g>
<!-- SG_0_Node_4 -->
<g id="node8" class="node">
<title>SG_0_Node_4</title>
<polygon fill="none" stroke="black" points="342.09,-177.64 210.09,-177.64 210.09,-141.64 342.09,-141.64 342.09,-177.64"/>
<text text-anchor="middle" x="276.09" y="-154.64" font-family="Times,serif" font-size="20.00">resp_origin</text>
</g>
<!-- SG_0_Node_3&#45;&gt;SG_0_Node_4 -->
<g id="edge5" class="edge">
<title>SG_0_Node_3&#45;&gt;SG_0_Node_4</title>
<path fill="none" stroke="black" d="M1230.25,-433.77C1002.92,-429.35 289.72,-414.11 273.09,-396.85 218.63,-340.33 247.28,-236.3 265.21,-187.38"/>
<polygon fill="black" stroke="black" points="268.56,-188.41 268.84,-177.82 262.01,-185.93 268.56,-188.41"/>
<text text-anchor="middle" x="1140.59" y="-292.85" font-family="Times,serif" font-size="20.00">[[&#39;Strict&#45;Transport&#45;Security&#39;, &#39;max&#45;age=20, max&#45;age=20; includeSubDomains, includeSubDomains, , max&#45;age=20; includeSubDomains; preload, max&#45;age=0, max&#45;age=&#45;5&#39;]]</text>
</g>
<!-- SG_0_Node_8 -->
<g id="node9" class="node">
<title>SG_0_Node_8</title>
<ellipse fill="none" stroke="black" cx="2034.09" cy="-159.64" rx="33.88" ry="21.43"/>
<text text-anchor="middle" x="2034.09" y="-154.64" font-family="Times,serif" font-size="20.00">1.0</text>
</g>
<!-- SG_0_Node_3&#45;&gt;SG_0_Node_8 -->
<g id="edge6" class="edge">
<title>SG_0_Node_3&#45;&gt;SG_0_Node_8</title>
<path fill="none" stroke="black" d="M1367.81,-431.14C1440.62,-426.99 1558.95,-420.32 1661.09,-414.85 1680.59,-413.81 1998,-410.37 2012.09,-396.85 2067.87,-343.35 2053.69,-241.36 2042.15,-190.72"/>
<polygon fill="black" stroke="black" points="2045.49,-189.64 2039.75,-180.73 2038.68,-191.27 2045.49,-189.64"/>
<text text-anchor="middle" x="2313.59" y="-380.85" font-family="Times,serif" font-size="20.00">[NA]</text>
<text text-anchor="middle" x="2313.59" y="-358.85" font-family="Times,serif" font-size="20.00">[[&#39;Strict&#45;Transport&#45;Security&#39;, &#39;&#39;]]</text>
<text text-anchor="middle" x="2313.59" y="-336.85" font-family="Times,serif" font-size="20.00">[[&#39;Strict&#45;Transport&#45;Security&#39;, &#39;*&#39;]]</text>
<text text-anchor="middle" x="2313.59" y="-314.85" font-family="Times,serif" font-size="20.00">[[&#39;Strict&#45;Transport&#45;Security&#39;, &#39;abc, max&#45;age=20&#39;]]</text>
<text text-anchor="middle" x="2313.59" y="-292.85" font-family="Times,serif" font-size="20.00">[[&#39;Strict&#45;Transport&#45;Security&#39;, &#39;includeSubDomains&#39;]]</text>
<text text-anchor="middle" x="2313.59" y="-270.85" font-family="Times,serif" font-size="20.00">[[&#39;Strict&#45;Transport&#45;Security&#39;, &#39;max&#45;age=&#45;5&#39;]]</text>
<text text-anchor="middle" x="2313.59" y="-248.85" font-family="Times,serif" font-size="20.00">[[&#39;Strict&#45;Transport&#45;Security&#39;, &#39;max&#45;age=0&#39;]]</text>
<text text-anchor="middle" x="2313.59" y="-226.85" font-family="Times,serif" font-size="20.00">[[&#39;Strict&#45;Transport&#45;Security&#39;, &#39;null&#39;]]</text>
<text text-anchor="middle" x="2313.59" y="-204.85" font-family="Times,serif" font-size="20.00">[]</text>
</g>
<!-- SG_0_Node_9 -->
<g id="node10" class="node">
<title>SG_0_Node_9</title>
<ellipse fill="none" stroke="black" cx="169.09" cy="-37.21" rx="33.88" ry="21.43"/>
<text text-anchor="middle" x="169.09" y="-32.21" font-family="Times,serif" font-size="20.00">0.0</text>
</g>
<!-- SG_0_Node_4&#45;&gt;SG_0_Node_9 -->
<g id="edge7" class="edge">
<title>SG_0_Node_4&#45;&gt;SG_0_Node_9</title>
<path fill="none" stroke="black" d="M210.02,-148.3C194.48,-142.63 179.67,-133.89 170.09,-120.43 159.54,-105.59 159.25,-85.14 161.62,-68.34"/>
<polygon fill="black" stroke="black" points="165.08,-68.89 163.37,-58.44 158.18,-67.68 165.08,-68.89"/>
<text text-anchor="middle" x="356.59" y="-93.43" font-family="Times,serif" font-size="20.00">https://sub.headers.websec.saarland</text>
</g>
<!-- SG_0_Node_10 -->
<g id="node11" class="node">
<title>SG_0_Node_10</title>
<ellipse fill="none" stroke="black" cx="565.09" cy="-37.21" rx="33.88" ry="21.43"/>
<text text-anchor="middle" x="565.09" y="-32.21" font-family="Times,serif" font-size="20.00">1.0</text>
</g>
<!-- SG_0_Node_4&#45;&gt;SG_0_Node_10 -->
<g id="edge8" class="edge">
<title>SG_0_Node_4&#45;&gt;SG_0_Node_10</title>
<path fill="none" stroke="black" d="M342.36,-157.31C411.63,-154.53 514.19,-146.07 543.09,-120.43 557.46,-107.68 562.91,-86.67 564.79,-69.09"/>
<polygon fill="black" stroke="black" points="568.31,-68.91 565.55,-58.68 561.33,-68.4 568.31,-68.91"/>
<text text-anchor="middle" x="744.59" y="-104.43" font-family="Times,serif" font-size="20.00">[NA]</text>
<text text-anchor="middle" x="744.59" y="-82.43" font-family="Times,serif" font-size="20.00">http://sub.headers.websec.saarland</text>
</g>
<!-- SG_1_Node_0 -->
<g id="node12" class="node">
<title>SG_1_Node_0</title>
<polygon fill="none" stroke="black" points="4250.59,-865.28 4113.59,-865.28 4113.59,-829.28 4250.59,-829.28 4250.59,-865.28"/>
<text text-anchor="middle" x="4182.09" y="-842.28" font-family="Times,serif" font-size="20.00">raw_header</text>
</g>
<!-- SG_1_Node_1 -->
<g id="node13" class="node">
<title>SG_1_Node_1</title>
<polygon fill="none" stroke="black" points="3361.59,-573.28 3260.59,-573.28 3260.59,-537.28 3361.59,-537.28 3361.59,-573.28"/>
<text text-anchor="middle" x="3311.09" y="-550.28" font-family="Times,serif" font-size="20.00">browser</text>
</g>
<!-- SG_1_Node_0&#45;&gt;SG_1_Node_1 -->
<g id="edge11" class="edge">
<title>SG_1_Node_0&#45;&gt;SG_1_Node_1</title>
<path fill="none" stroke="black" d="M4113.49,-846.2C3907.06,-845.63 3304.04,-841.37 3275.09,-811.28 3241.19,-776.05 3256.06,-636.31 3275.09,-591.28 3276.65,-587.59 3278.81,-584.1 3281.3,-580.85"/>
<polygon fill="black" stroke="black" points="3283.98,-583.1 3288.03,-573.31 3278.76,-578.44 3283.98,-583.1"/>
<text text-anchor="middle" x="4142.59" y="-795.28" font-family="Times,serif" font-size="20.00">[NA]</text>
<text text-anchor="middle" x="4142.59" y="-773.28" font-family="Times,serif" font-size="20.00">[[&#39;Strict&#45;Transport&#45;Security&#39;, &#39;&#39;]]</text>
<text text-anchor="middle" x="4142.59" y="-751.28" font-family="Times,serif" font-size="20.00">[[&#39;Strict&#45;Transport&#45;Security&#39;, &#39;*&#39;]]</text>
<text text-anchor="middle" x="4142.59" y="-729.28" font-family="Times,serif" font-size="20.00">[[&#39;Strict&#45;Transport&#45;Security&#39;, &#39;abc, max&#45;age=20&#39;]]</text>
<text text-anchor="middle" x="4142.59" y="-707.28" font-family="Times,serif" font-size="20.00">[[&#39;Strict&#45;Transport&#45;Security&#39;, &#39;includeSubDomains&#39;]]</text>
<text text-anchor="middle" x="4142.59" y="-685.28" font-family="Times,serif" font-size="20.00">[[&#39;Strict&#45;Transport&#45;Security&#39;, &#39;max&#45;age=&#45;5&#39;]]</text>
<text text-anchor="middle" x="4142.59" y="-663.28" font-family="Times,serif" font-size="20.00">[[&#39;Strict&#45;Transport&#45;Security&#39;, &#39;max&#45;age=0&#39;]]</text>
<text text-anchor="middle" x="4142.59" y="-641.28" font-family="Times,serif" font-size="20.00">[[&#39;Strict&#45;Transport&#45;Security&#39;, &#39;max&#45;age=20, max&#45;age=20; includeSubDomains, includeSubDomains, , max&#45;age=20; includeSubDomains; preload, max&#45;age=0, max&#45;age=&#45;5&#39;]]</text>
<text text-anchor="middle" x="4142.59" y="-619.28" font-family="Times,serif" font-size="20.00">[[&#39;Strict&#45;Transport&#45;Security&#39;, &#39;null&#39;]]</text>
<text text-anchor="middle" x="4142.59" y="-597.28" font-family="Times,serif" font-size="20.00">[]</text>
</g>
<!-- SG_1_Node_2 -->
<g id="node14" class="node">
<title>SG_1_Node_2</title>
<polygon fill="none" stroke="black" points="5102.09,-573.28 4970.09,-573.28 4970.09,-537.28 5102.09,-537.28 5102.09,-573.28"/>
<text text-anchor="middle" x="5036.09" y="-550.28" font-family="Times,serif" font-size="20.00">resp_origin</text>
</g>
<!-- SG_1_Node_0&#45;&gt;SG_1_Node_2 -->
<g id="edge12" class="edge">
<title>SG_1_Node_0&#45;&gt;SG_1_Node_2</title>
<path fill="none" stroke="black" d="M4250.72,-845.83C4445.02,-844.25 4986.69,-837.5 5014.09,-811.28 5076.41,-751.64 5056.87,-635.82 5043.78,-583.32"/>
<polygon fill="black" stroke="black" points="5047.1,-582.2 5041.19,-573.4 5040.33,-583.96 5047.1,-582.2"/>
<text text-anchor="middle" x="5773.09" y="-740.28" font-family="Times,serif" font-size="20.00">[[&#39;Strict&#45;Transport&#45;Security&#39;, &#39;max&#45;age=20&#39;], [&#39;location&#39;, &#39;https://sub.headers.websec.saarland/_hp/common/empty.html&#39;]]</text>
<text text-anchor="middle" x="5773.09" y="-718.28" font-family="Times,serif" font-size="20.00">[[&#39;Strict&#45;Transport&#45;Security&#39;, &#39;max&#45;age=20&#39;]]</text>
<text text-anchor="middle" x="5773.09" y="-696.28" font-family="Times,serif" font-size="20.00">[[&#39;Strict&#45;Transport&#45;Security&#39;, &#39;max&#45;age=20; includeSubDomains&#39;], [&#39;location&#39;, &#39;https://sub.headers.websec.saarland/_hp/common/empty.html&#39;]]</text>
<text text-anchor="middle" x="5773.09" y="-674.28" font-family="Times,serif" font-size="20.00">[[&#39;Strict&#45;Transport&#45;Security&#39;, &#39;max&#45;age=20; includeSubDomains&#39;]]</text>
<text text-anchor="middle" x="5773.09" y="-652.28" font-family="Times,serif" font-size="20.00">[[&#39;Strict&#45;Transport&#45;Security&#39;, &#39;max&#45;age=20; includeSubDomains; preload&#39;]]</text>
</g>
<!-- SG_1_Node_5 -->
<g id="node15" class="node">
<title>SG_1_Node_5</title>
<ellipse fill="none" stroke="black" cx="3302.09" cy="-436.07" rx="33.88" ry="21.43"/>
<text text-anchor="middle" x="3302.09" y="-431.07" font-family="Times,serif" font-size="20.00">0.0</text>
</g>
<!-- SG_1_Node_1&#45;&gt;SG_1_Node_5 -->
<g id="edge15" class="edge">
<title>SG_1_Node_1&#45;&gt;SG_1_Node_5</title>
<path fill="none" stroke="black" d="M3308.33,-537.23C3307.49,-531.53 3306.65,-525.15 3306.09,-519.28 3304.46,-502.17 3303.47,-483 3302.89,-467.47"/>
<polygon fill="black" stroke="black" points="3306.39,-467.25 3302.55,-457.38 3299.39,-467.49 3306.39,-467.25"/>
<text text-anchor="middle" x="3351.59" y="-503.28" font-family="Times,serif" font-size="20.00">[NA]</text>
<text text-anchor="middle" x="3351.59" y="-481.28" font-family="Times,serif" font-size="20.00">18 levels</text>
</g>
<!-- SG_1_Node_3 -->
<g id="node16" class="node">
<title>SG_1_Node_3</title>
<polygon fill="none" stroke="black" points="3490.59,-454.07 3353.59,-454.07 3353.59,-418.07 3490.59,-418.07 3490.59,-454.07"/>
<text text-anchor="middle" x="3422.09" y="-431.07" font-family="Times,serif" font-size="20.00">raw_header</text>
</g>
<!-- SG_1_Node_1&#45;&gt;SG_1_Node_3 -->
<g id="edge16" class="edge">
<title>SG_1_Node_1&#45;&gt;SG_1_Node_3</title>
<path fill="none" stroke="black" d="M3361.68,-542.2C3374.68,-537 3387.64,-529.64 3397.09,-519.28 3410.75,-504.31 3416.95,-482.09 3419.76,-464.52"/>
<polygon fill="black" stroke="black" points="3423.28,-464.66 3421.12,-454.29 3416.34,-463.74 3423.28,-464.66"/>
<text text-anchor="middle" x="3608.09" y="-492.28" font-family="Times,serif" font-size="20.00">safari macOS 14.0 17.0 selenium real</text>
</g>
<!-- SG_1_Node_6 -->
<g id="node17" class="node">
<title>SG_1_Node_6</title>
<ellipse fill="none" stroke="black" cx="4843.09" cy="-436.07" rx="33.88" ry="21.43"/>
<text text-anchor="middle" x="4843.09" y="-431.07" font-family="Times,serif" font-size="20.00">0.0</text>
</g>
<!-- SG_1_Node_2&#45;&gt;SG_1_Node_6 -->
<g id="edge13" class="edge">
<title>SG_1_Node_2&#45;&gt;SG_1_Node_6</title>
<path fill="none" stroke="black" d="M4970.05,-550.99C4921.08,-547.02 4860.16,-538.31 4844.09,-519.28 4832.19,-505.19 4832.05,-484.39 4834.82,-467.23"/>
<polygon fill="black" stroke="black" points="4838.32,-467.6 4836.85,-457.11 4831.46,-466.23 4838.32,-467.6"/>
<text text-anchor="middle" x="5025.59" y="-492.28" font-family="Times,serif" font-size="20.00">http://sub.headers.websec.saarland</text>
</g>
<!-- SG_1_Node_7 -->
<g id="node18" class="node">
<title>SG_1_Node_7</title>
<ellipse fill="none" stroke="black" cx="5229.09" cy="-436.07" rx="33.88" ry="21.43"/>
<text text-anchor="middle" x="5229.09" y="-431.07" font-family="Times,serif" font-size="20.00">1.0</text>
</g>
<!-- SG_1_Node_2&#45;&gt;SG_1_Node_7 -->
<g id="edge14" class="edge">
<title>SG_1_Node_2&#45;&gt;SG_1_Node_7</title>
<path fill="none" stroke="black" d="M5102.34,-547.91C5143.72,-542.6 5191.93,-533.57 5207.09,-519.28 5221.07,-506.11 5226.53,-485.11 5228.51,-467.63"/>
<polygon fill="black" stroke="black" points="5232.03,-467.55 5229.34,-457.31 5225.05,-466.99 5232.03,-467.55"/>
<text text-anchor="middle" x="5413.59" y="-503.28" font-family="Times,serif" font-size="20.00">[NA]</text>
<text text-anchor="middle" x="5413.59" y="-481.28" font-family="Times,serif" font-size="20.00">https://sub.headers.websec.saarland</text>
</g>
<!-- SG_1_Node_8 -->
<g id="node19" class="node">
<title>SG_1_Node_8</title>
<ellipse fill="none" stroke="black" cx="3358.09" cy="-159.64" rx="33.88" ry="21.43"/>
<text text-anchor="middle" x="3358.09" y="-154.64" font-family="Times,serif" font-size="20.00">0.0</text>
</g>
<!-- SG_1_Node_3&#45;&gt;SG_1_Node_8 -->
<g id="edge17" class="edge">
<title>SG_1_Node_3&#45;&gt;SG_1_Node_8</title>
<path fill="none" stroke="black" d="M3380.2,-417.93C3371.77,-412.48 3364,-405.54 3359.09,-396.85 3321.92,-331.15 3337.69,-237.8 3349.48,-190.54"/>
<polygon fill="black" stroke="black" points="3352.93,-191.2 3352.06,-180.64 3346.15,-189.43 3352.93,-191.2"/>
<text text-anchor="middle" x="3620.59" y="-380.85" font-family="Times,serif" font-size="20.00">[NA]</text>
<text text-anchor="middle" x="3620.59" y="-358.85" font-family="Times,serif" font-size="20.00">[[&#39;Strict&#45;Transport&#45;Security&#39;, &#39;&#39;]]</text>
<text text-anchor="middle" x="3620.59" y="-336.85" font-family="Times,serif" font-size="20.00">[[&#39;Strict&#45;Transport&#45;Security&#39;, &#39;*&#39;]]</text>
<text text-anchor="middle" x="3620.59" y="-314.85" font-family="Times,serif" font-size="20.00">[[&#39;Strict&#45;Transport&#45;Security&#39;, &#39;abc, max&#45;age=20&#39;]]</text>
<text text-anchor="middle" x="3620.59" y="-292.85" font-family="Times,serif" font-size="20.00">[[&#39;Strict&#45;Transport&#45;Security&#39;, &#39;includeSubDomains&#39;]]</text>
<text text-anchor="middle" x="3620.59" y="-270.85" font-family="Times,serif" font-size="20.00">[[&#39;Strict&#45;Transport&#45;Security&#39;, &#39;max&#45;age=&#45;5&#39;]]</text>
<text text-anchor="middle" x="3620.59" y="-248.85" font-family="Times,serif" font-size="20.00">[[&#39;Strict&#45;Transport&#45;Security&#39;, &#39;max&#45;age=0&#39;]]</text>
<text text-anchor="middle" x="3620.59" y="-226.85" font-family="Times,serif" font-size="20.00">[[&#39;Strict&#45;Transport&#45;Security&#39;, &#39;null&#39;]]</text>
<text text-anchor="middle" x="3620.59" y="-204.85" font-family="Times,serif" font-size="20.00">[]</text>
</g>
<!-- SG_1_Node_4 -->
<g id="node20" class="node">
<title>SG_1_Node_4</title>
<polygon fill="none" stroke="black" points="3970.09,-177.64 3838.09,-177.64 3838.09,-141.64 3970.09,-141.64 3970.09,-177.64"/>
<text text-anchor="middle" x="3904.09" y="-154.64" font-family="Times,serif" font-size="20.00">resp_origin</text>
</g>
<!-- SG_1_Node_3&#45;&gt;SG_1_Node_4 -->
<g id="edge18" class="edge">
<title>SG_1_Node_3&#45;&gt;SG_1_Node_4</title>
<path fill="none" stroke="black" d="M3490.74,-434.13C3612.22,-431.8 3854.9,-423.77 3882.09,-396.85 3937.99,-341.51 3922.73,-237.27 3911.37,-187.9"/>
<polygon fill="black" stroke="black" points="3914.72,-186.85 3908.96,-177.96 3907.91,-188.5 3914.72,-186.85"/>
<text text-anchor="middle" x="4789.59" y="-292.85" font-family="Times,serif" font-size="20.00">[[&#39;Strict&#45;Transport&#45;Security&#39;, &#39;max&#45;age=20, max&#45;age=20; includeSubDomains, includeSubDomains, , max&#45;age=20; includeSubDomains; preload, max&#45;age=0, max&#45;age=&#45;5&#39;]]</text>
</g>
<!-- SG_1_Node_9 -->
<g id="node21" class="node">
<title>SG_1_Node_9</title>
<ellipse fill="none" stroke="black" cx="3711.09" cy="-37.21" rx="33.88" ry="21.43"/>
<text text-anchor="middle" x="3711.09" y="-32.21" font-family="Times,serif" font-size="20.00">0.0</text>
</g>
<!-- SG_1_Node_4&#45;&gt;SG_1_Node_9 -->
<g id="edge19" class="edge">
<title>SG_1_Node_4&#45;&gt;SG_1_Node_9</title>
<path fill="none" stroke="black" d="M3837.99,-154.21C3788.99,-149.39 3728.05,-139.64 3712.09,-120.43 3700.31,-106.24 3700.16,-85.44 3702.91,-68.31"/>
<polygon fill="black" stroke="black" points="3706.4,-68.7 3704.92,-58.21 3699.53,-67.33 3706.4,-68.7"/>
<text text-anchor="middle" x="3893.59" y="-93.43" font-family="Times,serif" font-size="20.00">http://sub.headers.websec.saarland</text>
</g>
<!-- SG_1_Node_10 -->
<g id="node22" class="node">
<title>SG_1_Node_10</title>
<ellipse fill="none" stroke="black" cx="4097.09" cy="-37.21" rx="33.88" ry="21.43"/>
<text text-anchor="middle" x="4097.09" y="-32.21" font-family="Times,serif" font-size="20.00">1.0</text>
</g>
<!-- SG_1_Node_4&#45;&gt;SG_1_Node_10 -->
<g id="edge20" class="edge">
<title>SG_1_Node_4&#45;&gt;SG_1_Node_10</title>
<path fill="none" stroke="black" d="M3970.39,-150.96C4011.79,-144.85 4060,-134.9 4075.09,-120.43 4088.87,-107.21 4094.34,-86.4 4096.38,-69.02"/>
<polygon fill="black" stroke="black" points="4099.9,-69 4097.26,-58.74 4092.92,-68.41 4099.9,-69"/>
<text text-anchor="middle" x="4280.59" y="-104.43" font-family="Times,serif" font-size="20.00">[NA]</text>
<text text-anchor="middle" x="4280.59" y="-82.43" font-family="Times,serif" font-size="20.00">https://sub.headers.websec.saarland</text>
</g>
</g>
</svg>
