<?xml version="1.0" encoding="UTF-8" standalone="no"?>
<!DOCTYPE svg PUBLIC "-//W3C//DTD SVG 1.1//EN"
 "http://www.w3.org/Graphics/SVG/1.1/DTD/svg11.dtd">
<!-- Generated by graphviz version 2.43.0 (0)
 -->
<!-- Title: G Pages: 1 -->
<svg width="8769pt" height="1444pt"
 viewBox="0.00 0.00 8769.00 1444.13" xmlns="http://www.w3.org/2000/svg" xmlns:xlink="http://www.w3.org/1999/xlink">
<g id="graph0" class="graph" transform="scale(1 1) rotate(0) translate(4 1440.13)">
<title>G</title>
<polygon fill="white" stroke="transparent" points="-4,4 -4,-1440.13 8765,-1440.13 8765,4 -4,4"/>
<g id="clust1" class="cluster">
<title>cluster_0</title>
<polygon fill="none" stroke="black" points="8,-284.43 8,-1428.13 2288,-1428.13 2288,-284.43 8,-284.43"/>
<text text-anchor="middle" x="1148" y="-1392.13" font-family="Times,serif" font-size="40.00">Tree 0, Class {&#39;window.open.opener&#39;: &#39;null&#39;}</text>
</g>
<g id="clust7" class="cluster">
<title>cluster_1</title>
<polygon fill="none" stroke="black" points="2296,-1069.71 2296,-1428.13 4494,-1428.13 4494,-1069.71 2296,-1069.71"/>
<text text-anchor="middle" x="3395" y="-1392.13" font-family="Times,serif" font-size="40.00">Tree 0, Class {&#39;window.open.opener&#39;: &#39;object TypeError: Cannot read properties of null (reading &#39;opener&#39;)&#39;}</text>
</g>
<g id="clust10" class="cluster">
<title>cluster_2</title>
<polygon fill="none" stroke="black" points="4502,-1069.71 4502,-1428.13 6465,-1428.13 6465,-1069.71 4502,-1069.71"/>
<text text-anchor="middle" x="5483.5" y="-1392.13" font-family="Times,serif" font-size="40.00">Tree 0, Class {&#39;window.open.opener&#39;: &#39;object TypeError: Cannot read property &#39;opener&#39; of null&#39;}</text>
</g>
<g id="clust13" class="cluster">
<title>cluster_3</title>
<polygon fill="none" stroke="black" points="6473,-8 6473,-1428.13 8753,-1428.13 8753,-8 6473,-8"/>
<text text-anchor="middle" x="7613" y="-1392.13" font-family="Times,serif" font-size="40.00">Tree 0, Class {&#39;window.open.opener&#39;: &#39;object [object Window]&#39;}</text>
</g>
<!-- SG_0_Node_0 -->
<g id="node1" class="node">
<title>SG_0_Node_0</title>
<polygon fill="none" stroke="black" points="563.5,-1368.13 426.5,-1368.13 426.5,-1332.13 563.5,-1332.13 563.5,-1368.13"/>
<text text-anchor="middle" x="495" y="-1345.13" font-family="Times,serif" font-size="20.00">raw_header</text>
</g>
<!-- SG_0_Node_6 -->
<g id="node2" class="node">
<title>SG_0_Node_6</title>
<ellipse fill="none" stroke="black" cx="50" cy="-1098.92" rx="33.88" ry="21.43"/>
<text text-anchor="middle" x="50" y="-1093.92" font-family="Times,serif" font-size="20.00">0.0</text>
</g>
<!-- SG_0_Node_0&#45;&gt;SG_0_Node_6 -->
<g id="edge1" class="edge">
<title>SG_0_Node_0&#45;&gt;SG_0_Node_6</title>
<path fill="none" stroke="black" d="M426.49,-1348.99C303.89,-1348.01 57.3,-1342.49 31,-1314.13 -22.19,-1256.78 13.11,-1214.28 31,-1138.13 31.76,-1134.89 32.84,-1131.6 34.11,-1128.39"/>
<polygon fill="black" stroke="black" points="37.38,-1129.65 38.32,-1119.1 31,-1126.76 37.38,-1129.65"/>
<text text-anchor="middle" x="455" y="-1298.13" font-family="Times,serif" font-size="20.00">[NA]</text>
<text text-anchor="middle" x="455" y="-1276.13" font-family="Times,serif" font-size="20.00">[[&#39;Cross&#45;Origin&#45;Opener&#45;Policy&#39;, &#39;&#39;]]</text>
<text text-anchor="middle" x="455" y="-1254.13" font-family="Times,serif" font-size="20.00">[[&#39;Cross&#45;Origin&#45;Opener&#45;Policy&#39;, &#39;*&#39;]]</text>
<text text-anchor="middle" x="455" y="-1232.13" font-family="Times,serif" font-size="20.00">[[&#39;Cross&#45;Origin&#45;Opener&#45;Policy&#39;, &#39;null&#39;]]</text>
<text text-anchor="middle" x="455" y="-1210.13" font-family="Times,serif" font-size="20.00">[[&#39;Cross&#45;Origin&#45;Opener&#45;Policy&#39;, &#39;same&#45;origin&#45;plus&#45;COEP&#39;]]</text>
<text text-anchor="middle" x="455" y="-1188.13" font-family="Times,serif" font-size="20.00">[[&#39;Cross&#45;Origin&#45;Opener&#45;Policy&#39;, &#39;unsafe&#45;none&#39;]]</text>
<text text-anchor="middle" x="455" y="-1166.13" font-family="Times,serif" font-size="20.00">[[&#39;Cross&#45;Origin&#45;Opener&#45;Policy&#39;, &#39;unsafe&#45;none, same&#45;origin, same&#45;origin&#45;plus&#45;COEP&#39;]]</text>
<text text-anchor="middle" x="455" y="-1144.13" font-family="Times,serif" font-size="20.00">[]</text>
</g>
<!-- SG_0_Node_1 -->
<g id="node3" class="node">
<title>SG_0_Node_1</title>
<polygon fill="none" stroke="black" points="955.5,-1116.92 854.5,-1116.92 854.5,-1080.92 955.5,-1080.92 955.5,-1116.92"/>
<text text-anchor="middle" x="905" y="-1093.92" font-family="Times,serif" font-size="20.00">browser</text>
</g>
<!-- SG_0_Node_0&#45;&gt;SG_0_Node_1 -->
<g id="edge2" class="edge">
<title>SG_0_Node_0&#45;&gt;SG_0_Node_1</title>
<path fill="none" stroke="black" d="M563.7,-1347.6C669.07,-1344.56 860.8,-1336.05 883,-1314.13 908.76,-1288.69 908.13,-1179.09 906.3,-1127.27"/>
<polygon fill="black" stroke="black" points="909.79,-1126.99 905.9,-1117.14 902.8,-1127.27 909.79,-1126.99"/>
<text text-anchor="middle" x="1594.5" y="-1254.13" font-family="Times,serif" font-size="20.00">[[&#39;Cross&#45;Origin&#45;Opener&#45;Policy&#39;, &#39;same&#45;origin&#39;], [&#39;location&#39;, &#39;https://sub.headers.websec.saarland/_hp/common/empty.html&#39;]]</text>
<text text-anchor="middle" x="1594.5" y="-1232.13" font-family="Times,serif" font-size="20.00">[[&#39;Cross&#45;Origin&#45;Opener&#45;Policy&#39;, &#39;same&#45;origin&#39;]]</text>
<text text-anchor="middle" x="1594.5" y="-1210.13" font-family="Times,serif" font-size="20.00">[[&#39;Cross&#45;Origin&#45;Opener&#45;Policy&#39;, &#39;same&#45;origin&#45;allow&#45;popups&#39;], [&#39;location&#39;, &#39;https://sub.headers.websec.saarland/_hp/common/empty.html&#39;]]</text>
<text text-anchor="middle" x="1594.5" y="-1188.13" font-family="Times,serif" font-size="20.00">[[&#39;Cross&#45;Origin&#45;Opener&#45;Policy&#39;, &#39;same&#45;origin&#45;allow&#45;popups&#39;]]</text>
</g>
<!-- SG_0_Node_2 -->
<g id="node4" class="node">
<title>SG_0_Node_2</title>
<polygon fill="none" stroke="black" points="780,-818.49 648,-818.49 648,-782.49 780,-782.49 780,-818.49"/>
<text text-anchor="middle" x="714" y="-795.49" font-family="Times,serif" font-size="20.00">resp_origin</text>
</g>
<!-- SG_0_Node_1&#45;&gt;SG_0_Node_2 -->
<g id="edge3" class="edge">
<title>SG_0_Node_1&#45;&gt;SG_0_Node_2</title>
<path fill="none" stroke="black" d="M854.43,-1094.8C804.24,-1090.53 732.36,-1080.82 715,-1059.71 660,-992.81 687.44,-879.83 704.22,-828.41"/>
<polygon fill="black" stroke="black" points="707.62,-829.29 707.5,-818.7 700.98,-827.05 707.62,-829.29"/>
<text text-anchor="middle" x="955.5" y="-1032.71" font-family="Times,serif" font-size="20.00">[NA]</text>
<text text-anchor="middle" x="955.5" y="-1010.71" font-family="Times,serif" font-size="20.00">brave Android 11 1.60.116 intent real</text>
<text text-anchor="middle" x="955.5" y="-988.71" font-family="Times,serif" font-size="20.00">edge Ubuntu 22.04 119 selenium headless&#45;new</text>
<text text-anchor="middle" x="955.5" y="-966.71" font-family="Times,serif" font-size="20.00">edge Ubuntu 22.04 119 selenium xvfb</text>
<text text-anchor="middle" x="955.5" y="-944.71" font-family="Times,serif" font-size="20.00">firefox Ubuntu 22.04 119 selenium headless</text>
<text text-anchor="middle" x="955.5" y="-922.71" font-family="Times,serif" font-size="20.00">firefox Ubuntu 22.04 119 selenium xvfb</text>
<text text-anchor="middle" x="955.5" y="-900.71" font-family="Times,serif" font-size="20.00">firefox_beta Android 11 122.0b1 intent real</text>
<text text-anchor="middle" x="955.5" y="-878.71" font-family="Times,serif" font-size="20.00">opera Android 11 78.4.4143.75735 intent real</text>
<text text-anchor="middle" x="955.5" y="-856.71" font-family="Times,serif" font-size="20.00">ucmobile Android 11 13.3.8.1305 intent real</text>
</g>
<!-- SG_0_Node_3 -->
<g id="node5" class="node">
<title>SG_0_Node_3</title>
<polygon fill="none" stroke="black" points="1284,-818.49 1152,-818.49 1152,-782.49 1284,-782.49 1284,-818.49"/>
<text text-anchor="middle" x="1218" y="-795.49" font-family="Times,serif" font-size="20.00">resp_origin</text>
</g>
<!-- SG_0_Node_1&#45;&gt;SG_0_Node_3 -->
<g id="edge4" class="edge">
<title>SG_0_Node_1&#45;&gt;SG_0_Node_3</title>
<path fill="none" stroke="black" d="M955.55,-1098.59C1030.03,-1098.42 1163.92,-1093.28 1196,-1059.71 1256.34,-996.56 1237.82,-880.7 1225.34,-828.39"/>
<polygon fill="black" stroke="black" points="1228.69,-827.37 1222.87,-818.52 1221.9,-829.07 1228.69,-827.37"/>
<text text-anchor="middle" x="1597.5" y="-1010.71" font-family="Times,serif" font-size="20.00">brave Ubuntu 22.04 1.59.120 (118.0.5993.88) selenium headless&#45;new</text>
<text text-anchor="middle" x="1597.5" y="-988.71" font-family="Times,serif" font-size="20.00">brave Ubuntu 22.04 1.59.120 (118.0.5993.88) selenium xvfb</text>
<text text-anchor="middle" x="1597.5" y="-966.71" font-family="Times,serif" font-size="20.00">brave Ubuntu 22.04 1.60.114 (119.0.6045.124) selenium headless&#45;new</text>
<text text-anchor="middle" x="1597.5" y="-944.71" font-family="Times,serif" font-size="20.00">brave Ubuntu 22.04 1.60.114 (119.0.6045.124) selenium xvfb</text>
<text text-anchor="middle" x="1597.5" y="-922.71" font-family="Times,serif" font-size="20.00">chrome Android 11 120.0.6099.44 intent real</text>
<text text-anchor="middle" x="1597.5" y="-900.71" font-family="Times,serif" font-size="20.00">chrome Ubuntu 22.04 119 selenium headless&#45;new</text>
<text text-anchor="middle" x="1597.5" y="-878.71" font-family="Times,serif" font-size="20.00">chrome Ubuntu 22.04 119 selenium xvfb</text>
</g>
<!-- SG_0_Node_7 -->
<g id="node6" class="node">
<title>SG_0_Node_7</title>
<ellipse fill="none" stroke="black" cx="286" cy="-546.07" rx="33.88" ry="21.43"/>
<text text-anchor="middle" x="286" y="-541.07" font-family="Times,serif" font-size="20.00">0.0</text>
</g>
<!-- SG_0_Node_2&#45;&gt;SG_0_Node_7 -->
<g id="edge9" class="edge">
<title>SG_0_Node_2&#45;&gt;SG_0_Node_7</title>
<path fill="none" stroke="black" d="M647.76,-797.86C538.14,-794.51 328.65,-785.04 305,-761.28 256.52,-712.57 267.93,-623.15 278.18,-576.75"/>
<polygon fill="black" stroke="black" points="281.59,-577.54 280.45,-567 274.77,-575.94 281.59,-577.54"/>
<text text-anchor="middle" x="507.5" y="-701.28" font-family="Times,serif" font-size="20.00">http://headers.webappsec.eu</text>
<text text-anchor="middle" x="507.5" y="-679.28" font-family="Times,serif" font-size="20.00">http://headers.websec.saarland</text>
<text text-anchor="middle" x="507.5" y="-657.28" font-family="Times,serif" font-size="20.00">http://sub.headers.websec.saarland</text>
<text text-anchor="middle" x="507.5" y="-635.28" font-family="Times,serif" font-size="20.00">http://sub.sub.headers.websec.saarland</text>
</g>
<!-- SG_0_Node_4 -->
<g id="node7" class="node">
<title>SG_0_Node_4</title>
<polygon fill="none" stroke="black" points="764.5,-564.07 663.5,-564.07 663.5,-528.07 764.5,-528.07 764.5,-564.07"/>
<text text-anchor="middle" x="714" y="-541.07" font-family="Times,serif" font-size="20.00">browser</text>
</g>
<!-- SG_0_Node_2&#45;&gt;SG_0_Node_4 -->
<g id="edge10" class="edge">
<title>SG_0_Node_2&#45;&gt;SG_0_Node_4</title>
<path fill="none" stroke="black" d="M714,-782.14C714,-738.99 714,-626.53 714,-574.37"/>
<polygon fill="black" stroke="black" points="717.5,-574.2 714,-564.2 710.5,-574.2 717.5,-574.2"/>
<text text-anchor="middle" x="921.5" y="-712.28" font-family="Times,serif" font-size="20.00">[NA]</text>
<text text-anchor="middle" x="921.5" y="-690.28" font-family="Times,serif" font-size="20.00">https://headers.webappsec.eu</text>
<text text-anchor="middle" x="921.5" y="-668.28" font-family="Times,serif" font-size="20.00">https://headers.websec.saarland</text>
<text text-anchor="middle" x="921.5" y="-646.28" font-family="Times,serif" font-size="20.00">https://sub.headers.websec.saarland</text>
<text text-anchor="middle" x="921.5" y="-624.28" font-family="Times,serif" font-size="20.00">https://sub.sub.headers.websec.saarland</text>
</g>
<!-- SG_0_Node_5 -->
<g id="node8" class="node">
<title>SG_0_Node_5</title>
<polygon fill="none" stroke="black" points="1279,-564.07 1157,-564.07 1157,-528.07 1279,-528.07 1279,-564.07"/>
<text text-anchor="middle" x="1218" y="-541.07" font-family="Times,serif" font-size="20.00">org_origin</text>
</g>
<!-- SG_0_Node_3&#45;&gt;SG_0_Node_5 -->
<g id="edge5" class="edge">
<title>SG_0_Node_3&#45;&gt;SG_0_Node_5</title>
<path fill="none" stroke="black" d="M1218,-782.14C1218,-738.99 1218,-626.53 1218,-574.37"/>
<polygon fill="black" stroke="black" points="1221.5,-574.2 1218,-564.2 1214.5,-574.2 1221.5,-574.2"/>
<text text-anchor="middle" x="1399.5" y="-668.28" font-family="Times,serif" font-size="20.00">http://sub.headers.websec.saarland</text>
</g>
<!-- SG_0_Node_8 -->
<g id="node9" class="node">
<title>SG_0_Node_8</title>
<ellipse fill="none" stroke="black" cx="1604" cy="-546.07" rx="33.88" ry="21.43"/>
<text text-anchor="middle" x="1604" y="-541.07" font-family="Times,serif" font-size="20.00">1.0</text>
</g>
<!-- SG_0_Node_3&#45;&gt;SG_0_Node_8 -->
<g id="edge6" class="edge">
<title>SG_0_Node_3&#45;&gt;SG_0_Node_8</title>
<path fill="none" stroke="black" d="M1284.09,-797C1383.32,-792.6 1561.41,-781.91 1582,-761.28 1630.48,-712.69 1620.74,-623.6 1611.35,-577.11"/>
<polygon fill="black" stroke="black" points="1614.77,-576.37 1609.25,-567.32 1607.92,-577.84 1614.77,-576.37"/>
<text text-anchor="middle" x="1826.5" y="-745.28" font-family="Times,serif" font-size="20.00">[NA]</text>
<text text-anchor="middle" x="1826.5" y="-723.28" font-family="Times,serif" font-size="20.00">http://headers.webappsec.eu</text>
<text text-anchor="middle" x="1826.5" y="-701.28" font-family="Times,serif" font-size="20.00">http://headers.websec.saarland</text>
<text text-anchor="middle" x="1826.5" y="-679.28" font-family="Times,serif" font-size="20.00">http://sub.sub.headers.websec.saarland</text>
<text text-anchor="middle" x="1826.5" y="-657.28" font-family="Times,serif" font-size="20.00">https://headers.webappsec.eu</text>
<text text-anchor="middle" x="1826.5" y="-635.28" font-family="Times,serif" font-size="20.00">https://headers.websec.saarland</text>
<text text-anchor="middle" x="1826.5" y="-613.28" font-family="Times,serif" font-size="20.00">https://sub.headers.websec.saarland</text>
<text text-anchor="middle" x="1826.5" y="-591.28" font-family="Times,serif" font-size="20.00">https://sub.sub.headers.websec.saarland</text>
</g>
<!-- SG_0_Node_9 -->
<g id="node10" class="node">
<title>SG_0_Node_9</title>
<ellipse fill="none" stroke="black" cx="240" cy="-313.64" rx="33.88" ry="21.43"/>
<text text-anchor="middle" x="240" y="-308.64" font-family="Times,serif" font-size="20.00">0.0</text>
</g>
<!-- SG_0_Node_4&#45;&gt;SG_0_Node_9 -->
<g id="edge11" class="edge">
<title>SG_0_Node_4&#45;&gt;SG_0_Node_9</title>
<path fill="none" stroke="black" d="M663.28,-542.54C547.63,-536.53 273.24,-520.88 259,-506.85 216.17,-464.65 224.02,-387.27 232.56,-344.7"/>
<polygon fill="black" stroke="black" points="236.04,-345.18 234.72,-334.66 229.2,-343.7 236.04,-345.18"/>
<text text-anchor="middle" x="484.5" y="-435.85" font-family="Times,serif" font-size="20.00">brave Android 11 1.60.116 intent real</text>
<text text-anchor="middle" x="484.5" y="-413.85" font-family="Times,serif" font-size="20.00">ucmobile Android 11 13.3.8.1305 intent real</text>
</g>
<!-- SG_0_Node_10 -->
<g id="node11" class="node">
<title>SG_0_Node_10</title>
<ellipse fill="none" stroke="black" cx="714" cy="-313.64" rx="33.88" ry="21.43"/>
<text text-anchor="middle" x="714" y="-308.64" font-family="Times,serif" font-size="20.00">1.0</text>
</g>
<!-- SG_0_Node_4&#45;&gt;SG_0_Node_10 -->
<g id="edge12" class="edge">
<title>SG_0_Node_4&#45;&gt;SG_0_Node_10</title>
<path fill="none" stroke="black" d="M714,-527.75C714,-488.84 714,-394.1 714,-345.1"/>
<polygon fill="black" stroke="black" points="717.5,-345.1 714,-335.1 710.5,-345.1 717.5,-345.1"/>
<text text-anchor="middle" x="954.5" y="-490.85" font-family="Times,serif" font-size="20.00">[NA]</text>
<text text-anchor="middle" x="954.5" y="-468.85" font-family="Times,serif" font-size="20.00">edge Ubuntu 22.04 119 selenium headless&#45;new</text>
<text text-anchor="middle" x="954.5" y="-446.85" font-family="Times,serif" font-size="20.00">edge Ubuntu 22.04 119 selenium xvfb</text>
<text text-anchor="middle" x="954.5" y="-424.85" font-family="Times,serif" font-size="20.00">firefox Ubuntu 22.04 119 selenium headless</text>
<text text-anchor="middle" x="954.5" y="-402.85" font-family="Times,serif" font-size="20.00">firefox Ubuntu 22.04 119 selenium xvfb</text>
<text text-anchor="middle" x="954.5" y="-380.85" font-family="Times,serif" font-size="20.00">firefox_beta Android 11 122.0b1 intent real</text>
<text text-anchor="middle" x="954.5" y="-358.85" font-family="Times,serif" font-size="20.00">opera Android 11 78.4.4143.75735 intent real</text>
</g>
<!-- SG_0_Node_11 -->
<g id="node12" class="node">
<title>SG_0_Node_11</title>
<ellipse fill="none" stroke="black" cx="1218" cy="-313.64" rx="33.88" ry="21.43"/>
<text text-anchor="middle" x="1218" y="-308.64" font-family="Times,serif" font-size="20.00">0.0</text>
</g>
<!-- SG_0_Node_5&#45;&gt;SG_0_Node_11 -->
<g id="edge7" class="edge">
<title>SG_0_Node_5&#45;&gt;SG_0_Node_11</title>
<path fill="none" stroke="black" d="M1218,-527.75C1218,-488.84 1218,-394.1 1218,-345.1"/>
<polygon fill="black" stroke="black" points="1221.5,-345.1 1218,-335.1 1214.5,-345.1 1221.5,-345.1"/>
<text text-anchor="middle" x="1399.5" y="-424.85" font-family="Times,serif" font-size="20.00">http://sub.headers.websec.saarland</text>
</g>
<!-- SG_0_Node_12 -->
<g id="node13" class="node">
<title>SG_0_Node_12</title>
<ellipse fill="none" stroke="black" cx="1604" cy="-313.64" rx="33.88" ry="21.43"/>
<text text-anchor="middle" x="1604" y="-308.64" font-family="Times,serif" font-size="20.00">1.0</text>
</g>
<!-- SG_0_Node_5&#45;&gt;SG_0_Node_12 -->
<g id="edge8" class="edge">
<title>SG_0_Node_5&#45;&gt;SG_0_Node_12</title>
<path fill="none" stroke="black" d="M1279.26,-542.76C1377.38,-538.46 1560.95,-527.7 1582,-506.85 1624.67,-464.58 1618.46,-387.56 1610.84,-344.97"/>
<polygon fill="black" stroke="black" points="1614.23,-344.09 1608.9,-334.93 1607.36,-345.41 1614.23,-344.09"/>
<text text-anchor="middle" x="1802.5" y="-435.85" font-family="Times,serif" font-size="20.00">[NA]</text>
<text text-anchor="middle" x="1802.5" y="-413.85" font-family="Times,serif" font-size="20.00">https://sub.headers.websec.saarland</text>
</g>
<!-- SG_1_Node_0 -->
<g id="node14" class="node">
<title>SG_1_Node_0</title>
<polygon fill="none" stroke="black" points="2453.5,-1368.13 2352.5,-1368.13 2352.5,-1332.13 2453.5,-1332.13 2453.5,-1368.13"/>
<text text-anchor="middle" x="2403" y="-1345.13" font-family="Times,serif" font-size="20.00">browser</text>
</g>
<!-- SG_1_Node_1 -->
<g id="node15" class="node">
<title>SG_1_Node_1</title>
<ellipse fill="none" stroke="black" cx="2370" cy="-1098.92" rx="33.88" ry="21.43"/>
<text text-anchor="middle" x="2370" y="-1093.92" font-family="Times,serif" font-size="20.00">0.0</text>
</g>
<!-- SG_1_Node_0&#45;&gt;SG_1_Node_1 -->
<g id="edge13" class="edge">
<title>SG_1_Node_0&#45;&gt;SG_1_Node_1</title>
<path fill="none" stroke="black" d="M2382.82,-1332.05C2378.04,-1326.84 2373.58,-1320.73 2371,-1314.13 2346.85,-1252.34 2355.87,-1172.66 2363.56,-1130.01"/>
<polygon fill="black" stroke="black" points="2367.03,-1130.48 2365.46,-1120 2360.16,-1129.17 2367.03,-1130.48"/>
<text text-anchor="middle" x="2416.5" y="-1232.13" font-family="Times,serif" font-size="20.00">[NA]</text>
<text text-anchor="middle" x="2416.5" y="-1210.13" font-family="Times,serif" font-size="20.00">14 levels</text>
</g>
<!-- SG_1_Node_2 -->
<g id="node16" class="node">
<title>SG_1_Node_2</title>
<ellipse fill="none" stroke="black" cx="2484" cy="-1098.92" rx="33.88" ry="21.43"/>
<text text-anchor="middle" x="2484" y="-1093.92" font-family="Times,serif" font-size="20.00">1.0</text>
</g>
<!-- SG_1_Node_0&#45;&gt;SG_1_Node_2 -->
<g id="edge14" class="edge">
<title>SG_1_Node_0&#45;&gt;SG_1_Node_2</title>
<path fill="none" stroke="black" d="M2443.47,-1332.08C2450.69,-1327.29 2457.38,-1321.36 2462,-1314.13 2498.28,-1257.39 2494.39,-1174.43 2488.91,-1130.25"/>
<polygon fill="black" stroke="black" points="2492.35,-1129.59 2487.54,-1120.15 2485.41,-1130.53 2492.35,-1129.59"/>
<text text-anchor="middle" x="2684.5" y="-1221.13" font-family="Times,serif" font-size="20.00">brave Android 11 1.60.116 intent real</text>
</g>
<!-- SG_2_Node_0 -->
<g id="node17" class="node">
<title>SG_2_Node_0</title>
<polygon fill="none" stroke="black" points="4659.5,-1368.13 4558.5,-1368.13 4558.5,-1332.13 4659.5,-1332.13 4659.5,-1368.13"/>
<text text-anchor="middle" x="4609" y="-1345.13" font-family="Times,serif" font-size="20.00">browser</text>
</g>
<!-- SG_2_Node_1 -->
<g id="node18" class="node">
<title>SG_2_Node_1</title>
<ellipse fill="none" stroke="black" cx="4576" cy="-1098.92" rx="33.88" ry="21.43"/>
<text text-anchor="middle" x="4576" y="-1093.92" font-family="Times,serif" font-size="20.00">0.0</text>
</g>
<!-- SG_2_Node_0&#45;&gt;SG_2_Node_1 -->
<g id="edge15" class="edge">
<title>SG_2_Node_0&#45;&gt;SG_2_Node_1</title>
<path fill="none" stroke="black" d="M4588.82,-1332.05C4584.04,-1326.84 4579.58,-1320.73 4577,-1314.13 4552.85,-1252.34 4561.87,-1172.66 4569.56,-1130.01"/>
<polygon fill="black" stroke="black" points="4573.03,-1130.48 4571.46,-1120 4566.16,-1129.17 4573.03,-1130.48"/>
<text text-anchor="middle" x="4622.5" y="-1232.13" font-family="Times,serif" font-size="20.00">[NA]</text>
<text text-anchor="middle" x="4622.5" y="-1210.13" font-family="Times,serif" font-size="20.00">14 levels</text>
</g>
<!-- SG_2_Node_2 -->
<g id="node19" class="node">
<title>SG_2_Node_2</title>
<ellipse fill="none" stroke="black" cx="4690" cy="-1098.92" rx="33.88" ry="21.43"/>
<text text-anchor="middle" x="4690" y="-1093.92" font-family="Times,serif" font-size="20.00">1.0</text>
</g>
<!-- SG_2_Node_0&#45;&gt;SG_2_Node_2 -->
<g id="edge16" class="edge">
<title>SG_2_Node_0&#45;&gt;SG_2_Node_2</title>
<path fill="none" stroke="black" d="M4649.47,-1332.08C4656.69,-1327.29 4663.38,-1321.36 4668,-1314.13 4704.28,-1257.39 4700.39,-1174.43 4694.91,-1130.25"/>
<polygon fill="black" stroke="black" points="4698.35,-1129.59 4693.54,-1120.15 4691.41,-1130.53 4698.35,-1129.59"/>
<text text-anchor="middle" x="4923.5" y="-1221.13" font-family="Times,serif" font-size="20.00">ucmobile Android 11 13.3.8.1305 intent real</text>
</g>
<!-- SG_3_Node_0 -->
<g id="node20" class="node">
<title>SG_3_Node_0</title>
<polygon fill="none" stroke="black" points="7291.5,-1368.13 7154.5,-1368.13 7154.5,-1332.13 7291.5,-1332.13 7291.5,-1368.13"/>
<text text-anchor="middle" x="7223" y="-1345.13" font-family="Times,serif" font-size="20.00">raw_header</text>
</g>
<!-- SG_3_Node_1 -->
<g id="node21" class="node">
<title>SG_3_Node_1</title>
<polygon fill="none" stroke="black" points="6605.5,-1116.92 6504.5,-1116.92 6504.5,-1080.92 6605.5,-1080.92 6605.5,-1116.92"/>
<text text-anchor="middle" x="6555" y="-1093.92" font-family="Times,serif" font-size="20.00">browser</text>
</g>
<!-- SG_3_Node_0&#45;&gt;SG_3_Node_1 -->
<g id="edge17" class="edge">
<title>SG_3_Node_0&#45;&gt;SG_3_Node_1</title>
<path fill="none" stroke="black" d="M7154.23,-1348.34C6977.98,-1345.97 6522.35,-1337.59 6500,-1314.13 6473.02,-1285.82 6481.88,-1172.79 6500,-1138.13 6502.93,-1132.52 6507.11,-1127.57 6511.87,-1123.24"/>
<polygon fill="black" stroke="black" points="6514.09,-1125.95 6519.72,-1116.97 6509.72,-1120.48 6514.09,-1125.95"/>
<text text-anchor="middle" x="7187.5" y="-1254.13" font-family="Times,serif" font-size="20.00">[[&#39;Cross&#45;Origin&#45;Opener&#45;Policy&#39;, &#39;same&#45;origin&#39;], [&#39;location&#39;, &#39;https://sub.headers.websec.saarland/_hp/common/empty.html&#39;]]</text>
<text text-anchor="middle" x="7187.5" y="-1232.13" font-family="Times,serif" font-size="20.00">[[&#39;Cross&#45;Origin&#45;Opener&#45;Policy&#39;, &#39;same&#45;origin&#39;]]</text>
<text text-anchor="middle" x="7187.5" y="-1210.13" font-family="Times,serif" font-size="20.00">[[&#39;Cross&#45;Origin&#45;Opener&#45;Policy&#39;, &#39;same&#45;origin&#45;allow&#45;popups&#39;], [&#39;location&#39;, &#39;https://sub.headers.websec.saarland/_hp/common/empty.html&#39;]]</text>
<text text-anchor="middle" x="7187.5" y="-1188.13" font-family="Times,serif" font-size="20.00">[[&#39;Cross&#45;Origin&#45;Opener&#45;Policy&#39;, &#39;same&#45;origin&#45;allow&#45;popups&#39;]]</text>
</g>
<!-- SG_3_Node_2 -->
<g id="node22" class="node">
<title>SG_3_Node_2</title>
<polygon fill="none" stroke="black" points="7947.5,-1116.92 7846.5,-1116.92 7846.5,-1080.92 7947.5,-1080.92 7947.5,-1116.92"/>
<text text-anchor="middle" x="7897" y="-1093.92" font-family="Times,serif" font-size="20.00">browser</text>
</g>
<!-- SG_3_Node_0&#45;&gt;SG_3_Node_2 -->
<g id="edge18" class="edge">
<title>SG_3_Node_0&#45;&gt;SG_3_Node_2</title>
<path fill="none" stroke="black" d="M7291.68,-1347.82C7454.93,-1344.39 7854.13,-1334.01 7875,-1314.13 7925.98,-1265.57 7913.86,-1172.53 7903.89,-1126.73"/>
<polygon fill="black" stroke="black" points="7907.29,-1125.89 7901.63,-1116.93 7900.47,-1127.46 7907.29,-1125.89"/>
<text text-anchor="middle" x="8336" y="-1298.13" font-family="Times,serif" font-size="20.00">[NA]</text>
<text text-anchor="middle" x="8336" y="-1276.13" font-family="Times,serif" font-size="20.00">[[&#39;Cross&#45;Origin&#45;Opener&#45;Policy&#39;, &#39;&#39;]]</text>
<text text-anchor="middle" x="8336" y="-1254.13" font-family="Times,serif" font-size="20.00">[[&#39;Cross&#45;Origin&#45;Opener&#45;Policy&#39;, &#39;*&#39;]]</text>
<text text-anchor="middle" x="8336" y="-1232.13" font-family="Times,serif" font-size="20.00">[[&#39;Cross&#45;Origin&#45;Opener&#45;Policy&#39;, &#39;null&#39;]]</text>
<text text-anchor="middle" x="8336" y="-1210.13" font-family="Times,serif" font-size="20.00">[[&#39;Cross&#45;Origin&#45;Opener&#45;Policy&#39;, &#39;same&#45;origin&#45;plus&#45;COEP&#39;]]</text>
<text text-anchor="middle" x="8336" y="-1188.13" font-family="Times,serif" font-size="20.00">[[&#39;Cross&#45;Origin&#45;Opener&#45;Policy&#39;, &#39;unsafe&#45;none&#39;]]</text>
<text text-anchor="middle" x="8336" y="-1166.13" font-family="Times,serif" font-size="20.00">[[&#39;Cross&#45;Origin&#45;Opener&#45;Policy&#39;, &#39;unsafe&#45;none, same&#45;origin, same&#45;origin&#45;plus&#45;COEP&#39;]]</text>
<text text-anchor="middle" x="8336" y="-1144.13" font-family="Times,serif" font-size="20.00">[]</text>
</g>
<!-- SG_3_Node_3 -->
<g id="node23" class="node">
<title>SG_3_Node_3</title>
<polygon fill="none" stroke="black" points="6621,-818.49 6489,-818.49 6489,-782.49 6621,-782.49 6621,-818.49"/>
<text text-anchor="middle" x="6555" y="-795.49" font-family="Times,serif" font-size="20.00">resp_origin</text>
</g>
<!-- SG_3_Node_1&#45;&gt;SG_3_Node_3 -->
<g id="edge21" class="edge">
<title>SG_3_Node_1&#45;&gt;SG_3_Node_3</title>
<path fill="none" stroke="black" d="M6555,-1080.7C6555,-1031.38 6555,-889.26 6555,-829.01"/>
<polygon fill="black" stroke="black" points="6558.5,-828.76 6555,-818.76 6551.5,-828.76 6558.5,-828.76"/>
<text text-anchor="middle" x="6914.5" y="-1043.71" font-family="Times,serif" font-size="20.00">[NA]</text>
<text text-anchor="middle" x="6914.5" y="-1021.71" font-family="Times,serif" font-size="20.00">brave Android 11 1.60.116 intent real</text>
<text text-anchor="middle" x="6914.5" y="-999.71" font-family="Times,serif" font-size="20.00">brave Ubuntu 22.04 1.59.120 (118.0.5993.88) selenium headless&#45;new</text>
<text text-anchor="middle" x="6914.5" y="-977.71" font-family="Times,serif" font-size="20.00">brave Ubuntu 22.04 1.59.120 (118.0.5993.88) selenium xvfb</text>
<text text-anchor="middle" x="6914.5" y="-955.71" font-family="Times,serif" font-size="20.00">brave Ubuntu 22.04 1.60.114 (119.0.6045.124) selenium headless&#45;new</text>
<text text-anchor="middle" x="6914.5" y="-933.71" font-family="Times,serif" font-size="20.00">brave Ubuntu 22.04 1.60.114 (119.0.6045.124) selenium xvfb</text>
<text text-anchor="middle" x="6914.5" y="-911.71" font-family="Times,serif" font-size="20.00">chrome Android 11 120.0.6099.44 intent real</text>
<text text-anchor="middle" x="6914.5" y="-889.71" font-family="Times,serif" font-size="20.00">chrome Ubuntu 22.04 119 selenium headless&#45;new</text>
<text text-anchor="middle" x="6914.5" y="-867.71" font-family="Times,serif" font-size="20.00">chrome Ubuntu 22.04 119 selenium xvfb</text>
<text text-anchor="middle" x="6914.5" y="-845.71" font-family="Times,serif" font-size="20.00">ucmobile Android 11 13.3.8.1305 intent real</text>
</g>
<!-- SG_3_Node_4 -->
<g id="node24" class="node">
<title>SG_3_Node_4</title>
<polygon fill="none" stroke="black" points="7397,-818.49 7265,-818.49 7265,-782.49 7397,-782.49 7397,-818.49"/>
<text text-anchor="middle" x="7331" y="-795.49" font-family="Times,serif" font-size="20.00">resp_origin</text>
</g>
<!-- SG_3_Node_1&#45;&gt;SG_3_Node_4 -->
<g id="edge22" class="edge">
<title>SG_3_Node_1&#45;&gt;SG_3_Node_4</title>
<path fill="none" stroke="black" d="M6605.78,-1096.92C6766.12,-1093.56 7252.56,-1081.6 7278,-1059.71 7345.5,-1001.62 7341.01,-882.64 7334.97,-828.91"/>
<polygon fill="black" stroke="black" points="7338.41,-828.27 7333.72,-818.77 7331.47,-829.13 7338.41,-828.27"/>
<text text-anchor="middle" x="7578.5" y="-999.71" font-family="Times,serif" font-size="20.00">edge Ubuntu 22.04 119 selenium headless&#45;new</text>
<text text-anchor="middle" x="7578.5" y="-977.71" font-family="Times,serif" font-size="20.00">edge Ubuntu 22.04 119 selenium xvfb</text>
<text text-anchor="middle" x="7578.5" y="-955.71" font-family="Times,serif" font-size="20.00">firefox Ubuntu 22.04 119 selenium headless</text>
<text text-anchor="middle" x="7578.5" y="-933.71" font-family="Times,serif" font-size="20.00">firefox Ubuntu 22.04 119 selenium xvfb</text>
<text text-anchor="middle" x="7578.5" y="-911.71" font-family="Times,serif" font-size="20.00">firefox_beta Android 11 122.0b1 intent real</text>
<text text-anchor="middle" x="7578.5" y="-889.71" font-family="Times,serif" font-size="20.00">opera Android 11 78.4.4143.75735 intent real</text>
</g>
<!-- SG_3_Node_7 -->
<g id="node25" class="node">
<title>SG_3_Node_7</title>
<ellipse fill="none" stroke="black" cx="7858" cy="-800.49" rx="33.88" ry="21.43"/>
<text text-anchor="middle" x="7858" y="-795.49" font-family="Times,serif" font-size="20.00">0.0</text>
</g>
<!-- SG_3_Node_2&#45;&gt;SG_3_Node_7 -->
<g id="edge19" class="edge">
<title>SG_3_Node_2&#45;&gt;SG_3_Node_7</title>
<path fill="none" stroke="black" d="M7874.26,-1080.75C7868.13,-1074.83 7862.3,-1067.66 7859,-1059.71 7827.07,-982.74 7840.98,-881.43 7850.99,-831.69"/>
<polygon fill="black" stroke="black" points="7854.48,-832.11 7853.12,-821.6 7847.63,-830.67 7854.48,-832.11"/>
<text text-anchor="middle" x="8084.5" y="-955.71" font-family="Times,serif" font-size="20.00">brave Android 11 1.60.116 intent real</text>
<text text-anchor="middle" x="8084.5" y="-933.71" font-family="Times,serif" font-size="20.00">ucmobile Android 11 13.3.8.1305 intent real</text>
</g>
<!-- SG_3_Node_8 -->
<g id="node26" class="node">
<title>SG_3_Node_8</title>
<ellipse fill="none" stroke="black" cx="8332" cy="-800.49" rx="33.88" ry="21.43"/>
<text text-anchor="middle" x="8332" y="-795.49" font-family="Times,serif" font-size="20.00">1.0</text>
</g>
<!-- SG_3_Node_2&#45;&gt;SG_3_Node_8 -->
<g id="edge20" class="edge">
<title>SG_3_Node_2&#45;&gt;SG_3_Node_8</title>
<path fill="none" stroke="black" d="M7947.52,-1096.81C8052.15,-1094 8284.92,-1084.97 8310,-1059.71 8370.47,-998.79 8353.03,-885.26 8340.22,-831.37"/>
<polygon fill="black" stroke="black" points="8343.55,-830.28 8337.74,-821.42 8336.76,-831.97 8343.55,-830.28"/>
<text text-anchor="middle" x="8397.5" y="-955.71" font-family="Times,serif" font-size="20.00">[NA]</text>
<text text-anchor="middle" x="8397.5" y="-933.71" font-family="Times,serif" font-size="20.00">13 levels</text>
</g>
<!-- SG_3_Node_9 -->
<g id="node27" class="node">
<title>SG_3_Node_9</title>
<ellipse fill="none" stroke="black" cx="6515" cy="-546.07" rx="33.88" ry="21.43"/>
<text text-anchor="middle" x="6515" y="-541.07" font-family="Times,serif" font-size="20.00">0.0</text>
</g>
<!-- SG_3_Node_3&#45;&gt;SG_3_Node_9 -->
<g id="edge25" class="edge">
<title>SG_3_Node_3&#45;&gt;SG_3_Node_9</title>
<path fill="none" stroke="black" d="M6525.49,-782.12C6518.46,-776.44 6511.89,-769.45 6508,-761.28 6479.28,-700.9 6494.32,-619.75 6505.85,-576.73"/>
<polygon fill="black" stroke="black" points="6509.27,-577.47 6508.6,-566.9 6502.53,-575.59 6509.27,-577.47"/>
<text text-anchor="middle" x="6715.5" y="-745.28" font-family="Times,serif" font-size="20.00">[NA]</text>
<text text-anchor="middle" x="6715.5" y="-723.28" font-family="Times,serif" font-size="20.00">http://headers.webappsec.eu</text>
<text text-anchor="middle" x="6715.5" y="-701.28" font-family="Times,serif" font-size="20.00">http://headers.websec.saarland</text>
<text text-anchor="middle" x="6715.5" y="-679.28" font-family="Times,serif" font-size="20.00">http://sub.sub.headers.websec.saarland</text>
<text text-anchor="middle" x="6715.5" y="-657.28" font-family="Times,serif" font-size="20.00">https://headers.webappsec.eu</text>
<text text-anchor="middle" x="6715.5" y="-635.28" font-family="Times,serif" font-size="20.00">https://headers.websec.saarland</text>
<text text-anchor="middle" x="6715.5" y="-613.28" font-family="Times,serif" font-size="20.00">https://sub.headers.websec.saarland</text>
<text text-anchor="middle" x="6715.5" y="-591.28" font-family="Times,serif" font-size="20.00">https://sub.sub.headers.websec.saarland</text>
</g>
<!-- SG_3_Node_5 -->
<g id="node28" class="node">
<title>SG_3_Node_5</title>
<polygon fill="none" stroke="black" points="7006,-564.07 6884,-564.07 6884,-528.07 7006,-528.07 7006,-564.07"/>
<text text-anchor="middle" x="6945" y="-541.07" font-family="Times,serif" font-size="20.00">org_origin</text>
</g>
<!-- SG_3_Node_3&#45;&gt;SG_3_Node_5 -->
<g id="edge26" class="edge">
<title>SG_3_Node_3&#45;&gt;SG_3_Node_5</title>
<path fill="none" stroke="black" d="M6621.41,-797.07C6721.64,-792.75 6902.15,-782.16 6923,-761.28 6972.53,-711.69 6961.32,-619.85 6951.76,-574.24"/>
<polygon fill="black" stroke="black" points="6955.12,-573.21 6949.53,-564.2 6948.29,-574.73 6955.12,-573.21"/>
<text text-anchor="middle" x="7141.5" y="-668.28" font-family="Times,serif" font-size="20.00">http://sub.headers.websec.saarland</text>
</g>
<!-- SG_3_Node_10 -->
<g id="node29" class="node">
<title>SG_3_Node_10</title>
<ellipse fill="none" stroke="black" cx="7331" cy="-546.07" rx="33.88" ry="21.43"/>
<text text-anchor="middle" x="7331" y="-541.07" font-family="Times,serif" font-size="20.00">0.0</text>
</g>
<!-- SG_3_Node_4&#45;&gt;SG_3_Node_10 -->
<g id="edge23" class="edge">
<title>SG_3_Node_4&#45;&gt;SG_3_Node_10</title>
<path fill="none" stroke="black" d="M7331,-782.14C7331,-739.83 7331,-630.92 7331,-577.51"/>
<polygon fill="black" stroke="black" points="7334.5,-577.31 7331,-567.31 7327.5,-577.31 7334.5,-577.31"/>
<text text-anchor="middle" x="7538.5" y="-701.28" font-family="Times,serif" font-size="20.00">https://headers.webappsec.eu</text>
<text text-anchor="middle" x="7538.5" y="-679.28" font-family="Times,serif" font-size="20.00">https://headers.websec.saarland</text>
<text text-anchor="middle" x="7538.5" y="-657.28" font-family="Times,serif" font-size="20.00">https://sub.headers.websec.saarland</text>
<text text-anchor="middle" x="7538.5" y="-635.28" font-family="Times,serif" font-size="20.00">https://sub.sub.headers.websec.saarland</text>
</g>
<!-- SG_3_Node_11 -->
<g id="node30" class="node">
<title>SG_3_Node_11</title>
<ellipse fill="none" stroke="black" cx="7769" cy="-546.07" rx="33.88" ry="21.43"/>
<text text-anchor="middle" x="7769" y="-541.07" font-family="Times,serif" font-size="20.00">1.0</text>
</g>
<!-- SG_3_Node_4&#45;&gt;SG_3_Node_11 -->
<g id="edge24" class="edge">
<title>SG_3_Node_4&#45;&gt;SG_3_Node_11</title>
<path fill="none" stroke="black" d="M7397,-797.95C7508.07,-794.7 7722.67,-785.35 7747,-761.28 7795.92,-712.88 7785.86,-623.33 7776.35,-576.83"/>
<polygon fill="black" stroke="black" points="7779.77,-576.08 7774.23,-567.05 7772.93,-577.57 7779.77,-576.08"/>
<text text-anchor="middle" x="7986.5" y="-712.28" font-family="Times,serif" font-size="20.00">[NA]</text>
<text text-anchor="middle" x="7986.5" y="-690.28" font-family="Times,serif" font-size="20.00">http://headers.webappsec.eu</text>
<text text-anchor="middle" x="7986.5" y="-668.28" font-family="Times,serif" font-size="20.00">http://headers.websec.saarland</text>
<text text-anchor="middle" x="7986.5" y="-646.28" font-family="Times,serif" font-size="20.00">http://sub.headers.websec.saarland</text>
<text text-anchor="middle" x="7986.5" y="-624.28" font-family="Times,serif" font-size="20.00">http://sub.sub.headers.websec.saarland</text>
</g>
<!-- SG_3_Node_12 -->
<g id="node31" class="node">
<title>SG_3_Node_12</title>
<ellipse fill="none" stroke="black" cx="6747" cy="-313.64" rx="33.88" ry="21.43"/>
<text text-anchor="middle" x="6747" y="-308.64" font-family="Times,serif" font-size="20.00">0.0</text>
</g>
<!-- SG_3_Node_5&#45;&gt;SG_3_Node_12 -->
<g id="edge27" class="edge">
<title>SG_3_Node_5&#45;&gt;SG_3_Node_12</title>
<path fill="none" stroke="black" d="M6883.75,-541.49C6832.49,-537.08 6765.07,-527.44 6748,-506.85 6710.01,-461.03 6724.48,-385.74 6736.74,-344.3"/>
<polygon fill="black" stroke="black" points="6740.15,-345.12 6739.78,-334.53 6733.47,-343.04 6740.15,-345.12"/>
<text text-anchor="middle" x="6934.5" y="-435.85" font-family="Times,serif" font-size="20.00">[NA]</text>
<text text-anchor="middle" x="6934.5" y="-413.85" font-family="Times,serif" font-size="20.00">https://sub.headers.websec.saarland</text>
</g>
<!-- SG_3_Node_6 -->
<g id="node32" class="node">
<title>SG_3_Node_6</title>
<polygon fill="none" stroke="black" points="7193.5,-331.64 7092.5,-331.64 7092.5,-295.64 7193.5,-295.64 7193.5,-331.64"/>
<text text-anchor="middle" x="7143" y="-308.64" font-family="Times,serif" font-size="20.00">browser</text>
</g>
<!-- SG_3_Node_5&#45;&gt;SG_3_Node_6 -->
<g id="edge28" class="edge">
<title>SG_3_Node_5&#45;&gt;SG_3_Node_6</title>
<path fill="none" stroke="black" d="M7006.08,-539.34C7050.59,-533.83 7105.69,-523.78 7121,-506.85 7162.15,-461.37 7155.79,-382.98 7148.76,-341.76"/>
<polygon fill="black" stroke="black" points="7152.19,-341.09 7146.94,-331.89 7145.31,-342.36 7152.19,-341.09"/>
<text text-anchor="middle" x="7334.5" y="-424.85" font-family="Times,serif" font-size="20.00">http://sub.headers.websec.saarland</text>
</g>
<!-- SG_3_Node_13 -->
<g id="node33" class="node">
<title>SG_3_Node_13</title>
<ellipse fill="none" stroke="black" cx="6939" cy="-37.21" rx="33.88" ry="21.43"/>
<text text-anchor="middle" x="6939" y="-32.21" font-family="Times,serif" font-size="20.00">0.0</text>
</g>
<!-- SG_3_Node_6&#45;&gt;SG_3_Node_13 -->
<g id="edge29" class="edge">
<title>SG_3_Node_6&#45;&gt;SG_3_Node_13</title>
<path fill="none" stroke="black" d="M7092.43,-310.27C7038.75,-306.58 6959.05,-297.3 6940,-274.43 6890.99,-215.59 6912.94,-116.92 6928.41,-67.82"/>
<polygon fill="black" stroke="black" points="6931.8,-68.72 6931.59,-58.13 6925.15,-66.54 6931.8,-68.72"/>
<text text-anchor="middle" x="7132.5" y="-170.43" font-family="Times,serif" font-size="20.00">brave Android 11 1.60.116 intent real</text>
</g>
<!-- SG_3_Node_14 -->
<g id="node34" class="node">
<title>SG_3_Node_14</title>
<ellipse fill="none" stroke="black" cx="7347" cy="-37.21" rx="33.88" ry="21.43"/>
<text text-anchor="middle" x="7347" y="-32.21" font-family="Times,serif" font-size="20.00">1.0</text>
</g>
<!-- SG_3_Node_6&#45;&gt;SG_3_Node_14 -->
<g id="edge30" class="edge">
<title>SG_3_Node_6&#45;&gt;SG_3_Node_14</title>
<path fill="none" stroke="black" d="M7193.78,-308.63C7241.43,-303.75 7307.86,-293.64 7325,-274.43 7376.19,-217.04 7364.41,-117.7 7354.29,-68.14"/>
<polygon fill="black" stroke="black" points="7357.7,-67.39 7352.17,-58.35 7350.86,-68.87 7357.7,-67.39"/>
<text text-anchor="middle" x="7722.5" y="-258.43" font-family="Times,serif" font-size="20.00">[NA]</text>
<text text-anchor="middle" x="7722.5" y="-236.43" font-family="Times,serif" font-size="20.00">brave Ubuntu 22.04 1.59.120 (118.0.5993.88) selenium headless&#45;new</text>
<text text-anchor="middle" x="7722.5" y="-214.43" font-family="Times,serif" font-size="20.00">brave Ubuntu 22.04 1.59.120 (118.0.5993.88) selenium xvfb</text>
<text text-anchor="middle" x="7722.5" y="-192.43" font-family="Times,serif" font-size="20.00">brave Ubuntu 22.04 1.60.114 (119.0.6045.124) selenium headless&#45;new</text>
<text text-anchor="middle" x="7722.5" y="-170.43" font-family="Times,serif" font-size="20.00">brave Ubuntu 22.04 1.60.114 (119.0.6045.124) selenium xvfb</text>
<text text-anchor="middle" x="7722.5" y="-148.43" font-family="Times,serif" font-size="20.00">chrome Android 11 120.0.6099.44 intent real</text>
<text text-anchor="middle" x="7722.5" y="-126.43" font-family="Times,serif" font-size="20.00">chrome Ubuntu 22.04 119 selenium headless&#45;new</text>
<text text-anchor="middle" x="7722.5" y="-104.43" font-family="Times,serif" font-size="20.00">chrome Ubuntu 22.04 119 selenium xvfb</text>
<text text-anchor="middle" x="7722.5" y="-82.43" font-family="Times,serif" font-size="20.00">ucmobile Android 11 13.3.8.1305 intent real</text>
</g>
</g>
</svg>
