<?xml version="1.0" encoding="UTF-8" standalone="no"?>
<!DOCTYPE svg PUBLIC "-//W3C//DTD SVG 1.1//EN"
 "http://www.w3.org/Graphics/SVG/1.1/DTD/svg11.dtd">
<!-- Generated by graphviz version 2.43.0 (0)
 -->
<!-- Title: G Pages: 1 -->
<svg width="1590pt" height="272pt"
 viewBox="0.00 0.00 1590.00 272.43" xmlns="http://www.w3.org/2000/svg" xmlns:xlink="http://www.w3.org/1999/xlink">
<g id="graph0" class="graph" transform="scale(1 1) rotate(0) translate(4 268.43)">
<title>G</title>
<polygon fill="white" stroke="transparent" points="-4,4 -4,-268.43 1586,-268.43 1586,4 -4,4"/>
<g id="clust1" class="cluster">
<title>cluster_0</title>
<polygon fill="none" stroke="black" points="8,-8 8,-256.43 793,-256.43 793,-8 8,-8"/>
<text text-anchor="middle" x="400.5" y="-220.43" font-family="Times,serif" font-size="40.00">Tree 0, Class fullscreenEnabled: false</text>
</g>
<g id="clust4" class="cluster">
<title>cluster_1</title>
<polygon fill="none" stroke="black" points="801,-8 801,-256.43 1574,-256.43 1574,-8 801,-8"/>
<text text-anchor="middle" x="1187.5" y="-220.43" font-family="Times,serif" font-size="40.00">Tree 0, Class fullscreenEnabled: true</text>
</g>
<!-- SG_0_Node_0 -->
<g id="node1" class="node">
<title>SG_0_Node_0</title>
<polygon fill="none" stroke="black" points="344.5,-196.43 243.5,-196.43 243.5,-160.43 344.5,-160.43 344.5,-196.43"/>
<text text-anchor="middle" x="294" y="-173.43" font-family="Times,serif" font-size="20.00">browser</text>
</g>
<!-- SG_0_Node_1 -->
<g id="node2" class="node">
<title>SG_0_Node_1</title>
<ellipse fill="none" stroke="black" cx="136" cy="-37.21" rx="33.88" ry="21.43"/>
<text text-anchor="middle" x="136" y="-32.21" font-family="Times,serif" font-size="20.00">0.0</text>
</g>
<!-- SG_0_Node_0&#45;&gt;SG_0_Node_1 -->
<g id="edge1" class="edge">
<title>SG_0_Node_0&#45;&gt;SG_0_Node_1</title>
<path fill="none" stroke="black" d="M243.13,-172.86C202.51,-168.05 150.27,-158.81 137,-142.43 120.41,-121.94 122.38,-91.02 127.16,-68.18"/>
<polygon fill="black" stroke="black" points="130.59,-68.85 129.49,-58.31 123.78,-67.24 130.59,-68.85"/>
<text text-anchor="middle" x="361.5" y="-126.43" font-family="Times,serif" font-size="20.00">firefox Ubuntu 22.04 119 selenium headless</text>
<text text-anchor="middle" x="361.5" y="-104.43" font-family="Times,serif" font-size="20.00">firefox Ubuntu 22.04 119 selenium xvfb</text>
<text text-anchor="middle" x="361.5" y="-82.43" font-family="Times,serif" font-size="20.00">firefox_beta Android 11 122.0b1 intent real</text>
</g>
<!-- SG_0_Node_2 -->
<g id="node3" class="node">
<title>SG_0_Node_2</title>
<ellipse fill="none" stroke="black" cx="608" cy="-37.21" rx="33.88" ry="21.43"/>
<text text-anchor="middle" x="608" y="-32.21" font-family="Times,serif" font-size="20.00">1.0</text>
</g>
<!-- SG_0_Node_0&#45;&gt;SG_0_Node_2 -->
<g id="edge2" class="edge">
<title>SG_0_Node_0&#45;&gt;SG_0_Node_2</title>
<path fill="none" stroke="black" d="M344.8,-178.21C418.96,-178.24 551.77,-173.75 586,-142.43 606.11,-124.02 610.36,-92.26 610.34,-68.62"/>
<polygon fill="black" stroke="black" points="613.83,-68.31 610.07,-58.41 606.83,-68.5 613.83,-68.31"/>
<text text-anchor="middle" x="655.5" y="-115.43" font-family="Times,serif" font-size="20.00">[NA]</text>
<text text-anchor="middle" x="655.5" y="-93.43" font-family="Times,serif" font-size="20.00">11 levels</text>
</g>
<!-- SG_1_Node_0 -->
<g id="node4" class="node">
<title>SG_1_Node_0</title>
<polygon fill="none" stroke="black" points="958.5,-196.43 857.5,-196.43 857.5,-160.43 958.5,-160.43 958.5,-196.43"/>
<text text-anchor="middle" x="908" y="-173.43" font-family="Times,serif" font-size="20.00">browser</text>
</g>
<!-- SG_1_Node_1 -->
<g id="node5" class="node">
<title>SG_1_Node_1</title>
<ellipse fill="none" stroke="black" cx="875" cy="-37.21" rx="33.88" ry="21.43"/>
<text text-anchor="middle" x="875" y="-32.21" font-family="Times,serif" font-size="20.00">0.0</text>
</g>
<!-- SG_1_Node_0&#45;&gt;SG_1_Node_1 -->
<g id="edge3" class="edge">
<title>SG_1_Node_0&#45;&gt;SG_1_Node_1</title>
<path fill="none" stroke="black" d="M887.84,-160.34C883.06,-155.13 878.59,-149.01 876,-142.43 866.76,-118.95 867.29,-90.13 869.68,-68.75"/>
<polygon fill="black" stroke="black" points="873.18,-68.99 871.02,-58.62 866.24,-68.07 873.18,-68.99"/>
<text text-anchor="middle" x="921.5" y="-115.43" font-family="Times,serif" font-size="20.00">[NA]</text>
<text text-anchor="middle" x="921.5" y="-93.43" font-family="Times,serif" font-size="20.00">11 levels</text>
</g>
<!-- SG_1_Node_2 -->
<g id="node6" class="node">
<title>SG_1_Node_2</title>
<ellipse fill="none" stroke="black" cx="989" cy="-37.21" rx="33.88" ry="21.43"/>
<text text-anchor="middle" x="989" y="-32.21" font-family="Times,serif" font-size="20.00">1.0</text>
</g>
<!-- SG_1_Node_0&#45;&gt;SG_1_Node_2 -->
<g id="edge4" class="edge">
<title>SG_1_Node_0&#45;&gt;SG_1_Node_2</title>
<path fill="none" stroke="black" d="M947.28,-160.37C954.77,-155.54 961.87,-149.59 967,-142.43 982.36,-120.98 987.44,-91.08 988.92,-68.8"/>
<polygon fill="black" stroke="black" points="992.42,-68.69 989.38,-58.55 985.43,-68.38 992.42,-68.69"/>
<text text-anchor="middle" x="1212.5" y="-126.43" font-family="Times,serif" font-size="20.00">firefox Ubuntu 22.04 119 selenium headless</text>
<text text-anchor="middle" x="1212.5" y="-104.43" font-family="Times,serif" font-size="20.00">firefox Ubuntu 22.04 119 selenium xvfb</text>
<text text-anchor="middle" x="1212.5" y="-82.43" font-family="Times,serif" font-size="20.00">firefox_beta Android 11 122.0b1 intent real</text>
</g>
</g>
</svg>
