<?xml version="1.0" encoding="UTF-8" standalone="no"?>
<!DOCTYPE svg PUBLIC "-//W3C//DTD SVG 1.1//EN"
 "http://www.w3.org/Graphics/SVG/1.1/DTD/svg11.dtd">
<!-- Generated by graphviz version 2.43.0 (0)
 -->
<!-- Title: G Pages: 1 -->
<svg width="2711pt" height="294pt"
 viewBox="0.00 0.00 2711.00 294.43" xmlns="http://www.w3.org/2000/svg" xmlns:xlink="http://www.w3.org/1999/xlink">
<g id="graph0" class="graph" transform="scale(1 1) rotate(0) translate(4 290.43)">
<title>G</title>
<polygon fill="white" stroke="transparent" points="-4,4 -4,-290.43 2707,-290.43 2707,4 -4,4"/>
<g id="clust1" class="cluster">
<title>cluster_0</title>
<polygon fill="none" stroke="black" points="8,-8 8,-278.43 648,-278.43 648,-8 8,-8"/>
<text text-anchor="middle" x="328" y="-242.43" font-family="Times,serif" font-size="40.00">Tree 0, Class message timeout</text>
</g>
<g id="clust4" class="cluster">
<title>cluster_1</title>
<polygon fill="none" stroke="black" points="656,-8 656,-278.43 1612,-278.43 1612,-8 656,-8"/>
<text text-anchor="middle" x="1134" y="-242.43" font-family="Times,serif" font-size="40.00">Tree 0, Class window.originAgentCluster: true</text>
</g>
<g id="clust7" class="cluster">
<title>cluster_2</title>
<polygon fill="none" stroke="black" points="1620,-8 1620,-278.43 2695,-278.43 2695,-8 1620,-8"/>
<text text-anchor="middle" x="2157.5" y="-242.43" font-family="Times,serif" font-size="40.00">Tree 0, Class window.originAgentCluster: undefined</text>
</g>
<!-- SG_0_Node_0 -->
<g id="node1" class="node">
<title>SG_0_Node_0</title>
<polygon fill="none" stroke="black" points="165.5,-218.43 64.5,-218.43 64.5,-182.43 165.5,-182.43 165.5,-218.43"/>
<text text-anchor="middle" x="115" y="-195.43" font-family="Times,serif" font-size="20.00">browser</text>
</g>
<!-- SG_0_Node_1 -->
<g id="node2" class="node">
<title>SG_0_Node_1</title>
<ellipse fill="none" stroke="black" cx="62" cy="-37.21" rx="33.88" ry="21.43"/>
<text text-anchor="middle" x="62" y="-32.21" font-family="Times,serif" font-size="20.00">0.0</text>
</g>
<!-- SG_0_Node_0&#45;&gt;SG_0_Node_1 -->
<g id="edge1" class="edge">
<title>SG_0_Node_0&#45;&gt;SG_0_Node_1</title>
<path fill="none" stroke="black" d="M79.3,-182.26C72.77,-177.44 66.81,-171.52 63,-164.43 47.07,-134.78 49.89,-95.27 54.7,-68.4"/>
<polygon fill="black" stroke="black" points="58.17,-68.92 56.69,-58.43 51.31,-67.55 58.17,-68.92"/>
<text text-anchor="middle" x="108.5" y="-126.43" font-family="Times,serif" font-size="20.00">[NA]</text>
<text text-anchor="middle" x="108.5" y="-104.43" font-family="Times,serif" font-size="20.00">14 levels</text>
</g>
<!-- SG_0_Node_2 -->
<g id="node3" class="node">
<title>SG_0_Node_2</title>
<ellipse fill="none" stroke="black" cx="176" cy="-37.21" rx="33.88" ry="21.43"/>
<text text-anchor="middle" x="176" y="-32.21" font-family="Times,serif" font-size="20.00">1.0</text>
</g>
<!-- SG_0_Node_0&#45;&gt;SG_0_Node_2 -->
<g id="edge2" class="edge">
<title>SG_0_Node_0&#45;&gt;SG_0_Node_2</title>
<path fill="none" stroke="black" d="M139.14,-182.31C144.82,-177.18 150.3,-171.11 154,-164.43 170.39,-134.84 175.07,-95.88 176.17,-69.11"/>
<polygon fill="black" stroke="black" points="179.68,-68.89 176.44,-58.8 172.68,-68.7 179.68,-68.89"/>
<text text-anchor="middle" x="400.5" y="-115.43" font-family="Times,serif" font-size="20.00">ucmobile Android 11 13.3.8.1305 intent real</text>
</g>
<!-- SG_1_Node_0 -->
<g id="node4" class="node">
<title>SG_1_Node_0</title>
<polygon fill="none" stroke="black" points="993.5,-218.43 892.5,-218.43 892.5,-182.43 993.5,-182.43 993.5,-218.43"/>
<text text-anchor="middle" x="943" y="-195.43" font-family="Times,serif" font-size="20.00">browser</text>
</g>
<!-- SG_1_Node_1 -->
<g id="node5" class="node">
<title>SG_1_Node_1</title>
<ellipse fill="none" stroke="black" cx="820" cy="-37.21" rx="33.88" ry="21.43"/>
<text text-anchor="middle" x="820" y="-32.21" font-family="Times,serif" font-size="20.00">0.0</text>
</g>
<!-- SG_1_Node_0&#45;&gt;SG_1_Node_1 -->
<g id="edge3" class="edge">
<title>SG_1_Node_0&#45;&gt;SG_1_Node_1</title>
<path fill="none" stroke="black" d="M892.32,-198.46C866.67,-195.08 837.53,-186.18 821,-164.43 800.31,-137.2 804.48,-96.26 810.88,-68.45"/>
<polygon fill="black" stroke="black" points="814.34,-69.04 813.4,-58.49 807.55,-67.33 814.34,-69.04"/>
<text text-anchor="middle" x="1046.5" y="-148.43" font-family="Times,serif" font-size="20.00">firefox Ubuntu 22.04 119 selenium headless</text>
<text text-anchor="middle" x="1046.5" y="-126.43" font-family="Times,serif" font-size="20.00">firefox Ubuntu 22.04 119 selenium xvfb</text>
<text text-anchor="middle" x="1046.5" y="-104.43" font-family="Times,serif" font-size="20.00">firefox_beta Android 11 122.0b1 intent real</text>
<text text-anchor="middle" x="1046.5" y="-82.43" font-family="Times,serif" font-size="20.00">ucmobile Android 11 13.3.8.1305 intent real</text>
</g>
<!-- SG_1_Node_2 -->
<g id="node6" class="node">
<title>SG_1_Node_2</title>
<ellipse fill="none" stroke="black" cx="1294" cy="-37.21" rx="33.88" ry="21.43"/>
<text text-anchor="middle" x="1294" y="-32.21" font-family="Times,serif" font-size="20.00">1.0</text>
</g>
<!-- SG_1_Node_0&#45;&gt;SG_1_Node_2 -->
<g id="edge4" class="edge">
<title>SG_1_Node_0&#45;&gt;SG_1_Node_2</title>
<path fill="none" stroke="black" d="M993.7,-197.35C1080.95,-193.29 1252.1,-183.04 1272,-164.43 1297.75,-140.34 1300.04,-97.68 1298.06,-68.69"/>
<polygon fill="black" stroke="black" points="1301.54,-68.34 1297.17,-58.69 1294.57,-68.96 1301.54,-68.34"/>
<text text-anchor="middle" x="1343.5" y="-126.43" font-family="Times,serif" font-size="20.00">[NA]</text>
<text text-anchor="middle" x="1343.5" y="-104.43" font-family="Times,serif" font-size="20.00">11 levels</text>
</g>
<!-- SG_2_Node_0 -->
<g id="node7" class="node">
<title>SG_2_Node_0</title>
<polygon fill="none" stroke="black" points="1777.5,-218.43 1676.5,-218.43 1676.5,-182.43 1777.5,-182.43 1777.5,-218.43"/>
<text text-anchor="middle" x="1727" y="-195.43" font-family="Times,serif" font-size="20.00">browser</text>
</g>
<!-- SG_2_Node_1 -->
<g id="node8" class="node">
<title>SG_2_Node_1</title>
<ellipse fill="none" stroke="black" cx="1694" cy="-37.21" rx="33.88" ry="21.43"/>
<text text-anchor="middle" x="1694" y="-32.21" font-family="Times,serif" font-size="20.00">0.0</text>
</g>
<!-- SG_2_Node_0&#45;&gt;SG_2_Node_1 -->
<g id="edge5" class="edge">
<title>SG_2_Node_0&#45;&gt;SG_2_Node_1</title>
<path fill="none" stroke="black" d="M1706.83,-182.34C1702.05,-177.13 1697.59,-171.02 1695,-164.43 1682.82,-133.41 1684.75,-94.72 1688.34,-68.4"/>
<polygon fill="black" stroke="black" points="1691.83,-68.7 1689.88,-58.28 1684.91,-67.64 1691.83,-68.7"/>
<text text-anchor="middle" x="1740.5" y="-126.43" font-family="Times,serif" font-size="20.00">[NA]</text>
<text text-anchor="middle" x="1740.5" y="-104.43" font-family="Times,serif" font-size="20.00">12 levels</text>
</g>
<!-- SG_2_Node_2 -->
<g id="node9" class="node">
<title>SG_2_Node_2</title>
<ellipse fill="none" stroke="black" cx="1808" cy="-37.21" rx="33.88" ry="21.43"/>
<text text-anchor="middle" x="1808" y="-32.21" font-family="Times,serif" font-size="20.00">1.0</text>
</g>
<!-- SG_2_Node_0&#45;&gt;SG_2_Node_2 -->
<g id="edge6" class="edge">
<title>SG_2_Node_0&#45;&gt;SG_2_Node_2</title>
<path fill="none" stroke="black" d="M1766.77,-182.31C1774.14,-177.5 1781.06,-171.58 1786,-164.43 1805.52,-136.14 1809.49,-96.03 1809.57,-68.67"/>
<polygon fill="black" stroke="black" points="1813.07,-68.45 1809.43,-58.5 1806.07,-68.55 1813.07,-68.45"/>
<text text-anchor="middle" x="2033.5" y="-137.43" font-family="Times,serif" font-size="20.00">firefox Ubuntu 22.04 119 selenium headless</text>
<text text-anchor="middle" x="2033.5" y="-115.43" font-family="Times,serif" font-size="20.00">firefox Ubuntu 22.04 119 selenium xvfb</text>
<text text-anchor="middle" x="2033.5" y="-93.43" font-family="Times,serif" font-size="20.00">firefox_beta Android 11 122.0b1 intent real</text>
</g>
</g>
</svg>
