<?xml version="1.0" encoding="UTF-8" standalone="no"?>
<!DOCTYPE svg PUBLIC "-//W3C//DTD SVG 1.1//EN"
 "http://www.w3.org/Graphics/SVG/1.1/DTD/svg11.dtd">
<!-- Generated by graphviz version 2.43.0 (0)
 -->
<!-- Title: G Pages: 1 -->
<svg width="6153pt" height="794pt"
 viewBox="0.00 0.00 6153.00 793.71" xmlns="http://www.w3.org/2000/svg" xmlns:xlink="http://www.w3.org/1999/xlink">
<g id="graph0" class="graph" transform="scale(1 1) rotate(0) translate(4 789.71)">
<title>G</title>
<polygon fill="white" stroke="transparent" points="-4,4 -4,-789.71 6149,-789.71 6149,4 -4,4"/>
<g id="clust1" class="cluster">
<title>cluster_0</title>
<polygon fill="none" stroke="black" points="8,-252.85 8,-777.71 885,-777.71 885,-252.85 8,-252.85"/>
<text text-anchor="middle" x="446.5" y="-741.71" font-family="Times,serif" font-size="40.00">Tree 0, Class No performance entry</text>
</g>
<g id="clust5" class="cluster">
<title>cluster_1</title>
<polygon fill="none" stroke="black" points="893,-8 893,-777.71 3943,-777.71 3943,-8 893,-8"/>
<text text-anchor="middle" x="2418" y="-741.71" font-family="Times,serif" font-size="40.00">Tree 0, Class {&#39;requestStart != 0&#39;: False}</text>
</g>
<g id="clust11" class="cluster">
<title>cluster_2</title>
<polygon fill="none" stroke="black" points="3951,-8 3951,-777.71 6135,-777.71 6135,-8 3951,-8"/>
<text text-anchor="middle" x="5043" y="-741.71" font-family="Times,serif" font-size="40.00">Tree 0, Class {&#39;requestStart != 0&#39;: True}</text>
</g>
<!-- SG_0_Node_0 -->
<g id="node1" class="node">
<title>SG_0_Node_0</title>
<polygon fill="none" stroke="black" points="336.5,-717.71 235.5,-717.71 235.5,-681.71 336.5,-681.71 336.5,-717.71"/>
<text text-anchor="middle" x="286" y="-694.71" font-family="Times,serif" font-size="20.00">browser</text>
</g>
<!-- SG_0_Node_2 -->
<g id="node2" class="node">
<title>SG_0_Node_2</title>
<ellipse fill="none" stroke="black" cx="50" cy="-558.49" rx="33.88" ry="21.43"/>
<text text-anchor="middle" x="50" y="-553.49" font-family="Times,serif" font-size="20.00">0.0</text>
</g>
<!-- SG_0_Node_0&#45;&gt;SG_0_Node_2 -->
<g id="edge1" class="edge">
<title>SG_0_Node_0&#45;&gt;SG_0_Node_2</title>
<path fill="none" stroke="black" d="M235.48,-699.01C170.75,-698.2 63.92,-692.4 39,-663.71 21.26,-643.27 27.85,-611.4 36.48,-588.28"/>
<polygon fill="black" stroke="black" points="39.75,-589.55 40.24,-578.97 33.25,-586.93 39.75,-589.55"/>
<text text-anchor="middle" x="263.5" y="-647.71" font-family="Times,serif" font-size="20.00">firefox Ubuntu 22.04 119 selenium headless</text>
<text text-anchor="middle" x="263.5" y="-625.71" font-family="Times,serif" font-size="20.00">firefox Ubuntu 22.04 119 selenium xvfb</text>
<text text-anchor="middle" x="263.5" y="-603.71" font-family="Times,serif" font-size="20.00">firefox_beta Android 11 122.0b1 intent real</text>
</g>
<!-- SG_0_Node_1 -->
<g id="node3" class="node">
<title>SG_0_Node_1</title>
<polygon fill="none" stroke="black" points="538,-576.49 406,-576.49 406,-540.49 538,-540.49 538,-576.49"/>
<text text-anchor="middle" x="472" y="-553.49" font-family="Times,serif" font-size="20.00">resp_origin</text>
</g>
<!-- SG_0_Node_0&#45;&gt;SG_0_Node_1 -->
<g id="edge2" class="edge">
<title>SG_0_Node_0&#45;&gt;SG_0_Node_1</title>
<path fill="none" stroke="black" d="M336.79,-697.32C391.24,-694.64 472.52,-686.78 492,-663.71 510.28,-642.06 499.38,-608.8 487.76,-585.7"/>
<polygon fill="black" stroke="black" points="490.79,-583.96 482.99,-576.79 484.62,-587.26 490.79,-583.96"/>
<text text-anchor="middle" x="546.5" y="-636.71" font-family="Times,serif" font-size="20.00">[NA]</text>
<text text-anchor="middle" x="546.5" y="-614.71" font-family="Times,serif" font-size="20.00">11 levels</text>
</g>
<!-- SG_0_Node_3 -->
<g id="node4" class="node">
<title>SG_0_Node_3</title>
<ellipse fill="none" stroke="black" cx="50" cy="-282.07" rx="33.88" ry="21.43"/>
<text text-anchor="middle" x="50" y="-277.07" font-family="Times,serif" font-size="20.00">0.0</text>
</g>
<!-- SG_0_Node_1&#45;&gt;SG_0_Node_3 -->
<g id="edge3" class="edge">
<title>SG_0_Node_1&#45;&gt;SG_0_Node_3</title>
<path fill="none" stroke="black" d="M405.74,-556.22C293.64,-553.37 76.43,-544.62 53,-519.28 0.77,-462.8 23.47,-362.27 39.34,-312.56"/>
<polygon fill="black" stroke="black" points="42.67,-313.64 42.49,-303.05 36.02,-311.44 42.67,-313.64"/>
<text text-anchor="middle" x="260.5" y="-437.28" font-family="Times,serif" font-size="20.00">https://headers.webappsec.eu</text>
<text text-anchor="middle" x="260.5" y="-415.28" font-family="Times,serif" font-size="20.00">https://headers.websec.saarland</text>
<text text-anchor="middle" x="260.5" y="-393.28" font-family="Times,serif" font-size="20.00">https://sub.sub.headers.websec.saarland</text>
</g>
<!-- SG_0_Node_4 -->
<g id="node5" class="node">
<title>SG_0_Node_4</title>
<ellipse fill="none" stroke="black" cx="472" cy="-282.07" rx="33.88" ry="21.43"/>
<text text-anchor="middle" x="472" y="-277.07" font-family="Times,serif" font-size="20.00">1.0</text>
</g>
<!-- SG_0_Node_1&#45;&gt;SG_0_Node_4 -->
<g id="edge4" class="edge">
<title>SG_0_Node_1&#45;&gt;SG_0_Node_4</title>
<path fill="none" stroke="black" d="M472,-540.33C472,-495.02 472,-371.74 472,-313.86"/>
<polygon fill="black" stroke="black" points="475.5,-313.52 472,-303.52 468.5,-313.52 475.5,-313.52"/>
<text text-anchor="middle" x="674.5" y="-459.28" font-family="Times,serif" font-size="20.00">[NA]</text>
<text text-anchor="middle" x="674.5" y="-437.28" font-family="Times,serif" font-size="20.00">http://headers.webappsec.eu</text>
<text text-anchor="middle" x="674.5" y="-415.28" font-family="Times,serif" font-size="20.00">http://headers.websec.saarland</text>
<text text-anchor="middle" x="674.5" y="-393.28" font-family="Times,serif" font-size="20.00">http://sub.headers.websec.saarland</text>
<text text-anchor="middle" x="674.5" y="-371.28" font-family="Times,serif" font-size="20.00">http://sub.sub.headers.websec.saarland</text>
</g>
<!-- SG_1_Node_0 -->
<g id="node6" class="node">
<title>SG_1_Node_0</title>
<polygon fill="none" stroke="black" points="1535.5,-717.71 1434.5,-717.71 1434.5,-681.71 1535.5,-681.71 1535.5,-717.71"/>
<text text-anchor="middle" x="1485" y="-694.71" font-family="Times,serif" font-size="20.00">browser</text>
</g>
<!-- SG_1_Node_1 -->
<g id="node7" class="node">
<title>SG_1_Node_1</title>
<polygon fill="none" stroke="black" points="1413,-576.49 1281,-576.49 1281,-540.49 1413,-540.49 1413,-576.49"/>
<text text-anchor="middle" x="1347" y="-553.49" font-family="Times,serif" font-size="20.00">resp_origin</text>
</g>
<!-- SG_1_Node_0&#45;&gt;SG_1_Node_1 -->
<g id="edge5" class="edge">
<title>SG_1_Node_0&#45;&gt;SG_1_Node_1</title>
<path fill="none" stroke="black" d="M1468.08,-681.64C1443.87,-657.21 1399.21,-612.16 1371.42,-584.13"/>
<polygon fill="black" stroke="black" points="1373.59,-581.34 1364.06,-576.7 1368.61,-586.27 1373.59,-581.34"/>
<text text-anchor="middle" x="1492.5" y="-636.71" font-family="Times,serif" font-size="20.00">[NA]</text>
<text text-anchor="middle" x="1492.5" y="-614.71" font-family="Times,serif" font-size="20.00">11 levels</text>
</g>
<!-- SG_1_Node_2 -->
<g id="node8" class="node">
<title>SG_1_Node_2</title>
<polygon fill="none" stroke="black" points="1853.5,-576.49 1716.5,-576.49 1716.5,-540.49 1853.5,-540.49 1853.5,-576.49"/>
<text text-anchor="middle" x="1785" y="-553.49" font-family="Times,serif" font-size="20.00">raw_header</text>
</g>
<!-- SG_1_Node_0&#45;&gt;SG_1_Node_2 -->
<g id="edge6" class="edge">
<title>SG_1_Node_0&#45;&gt;SG_1_Node_2</title>
<path fill="none" stroke="black" d="M1521.79,-681.64C1576.44,-656.27 1679.04,-608.66 1738.72,-580.97"/>
<polygon fill="black" stroke="black" points="1740.32,-584.09 1747.91,-576.7 1737.37,-577.74 1740.32,-584.09"/>
<text text-anchor="middle" x="1920.5" y="-647.71" font-family="Times,serif" font-size="20.00">firefox Ubuntu 22.04 119 selenium headless</text>
<text text-anchor="middle" x="1920.5" y="-625.71" font-family="Times,serif" font-size="20.00">firefox Ubuntu 22.04 119 selenium xvfb</text>
<text text-anchor="middle" x="1920.5" y="-603.71" font-family="Times,serif" font-size="20.00">firefox_beta Android 11 122.0b1 intent real</text>
</g>
<!-- SG_1_Node_5 -->
<g id="node9" class="node">
<title>SG_1_Node_5</title>
<ellipse fill="none" stroke="black" cx="935" cy="-282.07" rx="33.88" ry="21.43"/>
<text text-anchor="middle" x="935" y="-277.07" font-family="Times,serif" font-size="20.00">0.0</text>
</g>
<!-- SG_1_Node_1&#45;&gt;SG_1_Node_5 -->
<g id="edge13" class="edge">
<title>SG_1_Node_1&#45;&gt;SG_1_Node_5</title>
<path fill="none" stroke="black" d="M1280.57,-556.05C1170.65,-552.98 960.73,-543.91 938,-519.28 885.83,-462.74 908.5,-362.24 924.35,-312.55"/>
<polygon fill="black" stroke="black" points="927.68,-313.63 927.5,-303.04 921.03,-311.43 927.68,-313.63"/>
<text text-anchor="middle" x="1140.5" y="-459.28" font-family="Times,serif" font-size="20.00">[NA]</text>
<text text-anchor="middle" x="1140.5" y="-437.28" font-family="Times,serif" font-size="20.00">http://headers.webappsec.eu</text>
<text text-anchor="middle" x="1140.5" y="-415.28" font-family="Times,serif" font-size="20.00">http://headers.websec.saarland</text>
<text text-anchor="middle" x="1140.5" y="-393.28" font-family="Times,serif" font-size="20.00">http://sub.headers.websec.saarland</text>
<text text-anchor="middle" x="1140.5" y="-371.28" font-family="Times,serif" font-size="20.00">http://sub.sub.headers.websec.saarland</text>
</g>
<!-- SG_1_Node_6 -->
<g id="node10" class="node">
<title>SG_1_Node_6</title>
<ellipse fill="none" stroke="black" cx="1347" cy="-282.07" rx="33.88" ry="21.43"/>
<text text-anchor="middle" x="1347" y="-277.07" font-family="Times,serif" font-size="20.00">1.0</text>
</g>
<!-- SG_1_Node_1&#45;&gt;SG_1_Node_6 -->
<g id="edge14" class="edge">
<title>SG_1_Node_1&#45;&gt;SG_1_Node_6</title>
<path fill="none" stroke="black" d="M1347,-540.33C1347,-495.02 1347,-371.74 1347,-313.86"/>
<polygon fill="black" stroke="black" points="1350.5,-313.52 1347,-303.52 1343.5,-313.52 1350.5,-313.52"/>
<text text-anchor="middle" x="1554.5" y="-437.28" font-family="Times,serif" font-size="20.00">https://headers.webappsec.eu</text>
<text text-anchor="middle" x="1554.5" y="-415.28" font-family="Times,serif" font-size="20.00">https://headers.websec.saarland</text>
<text text-anchor="middle" x="1554.5" y="-393.28" font-family="Times,serif" font-size="20.00">https://sub.sub.headers.websec.saarland</text>
</g>
<!-- SG_1_Node_3 -->
<g id="node11" class="node">
<title>SG_1_Node_3</title>
<polygon fill="none" stroke="black" points="1835.5,-300.07 1734.5,-300.07 1734.5,-264.07 1835.5,-264.07 1835.5,-300.07"/>
<text text-anchor="middle" x="1785" y="-277.07" font-family="Times,serif" font-size="20.00">browser</text>
</g>
<!-- SG_1_Node_2&#45;&gt;SG_1_Node_3 -->
<g id="edge7" class="edge">
<title>SG_1_Node_2&#45;&gt;SG_1_Node_3</title>
<path fill="none" stroke="black" d="M1785,-540.33C1785,-494.12 1785,-366.83 1785,-310.5"/>
<polygon fill="black" stroke="black" points="1788.5,-310.23 1785,-300.23 1781.5,-310.23 1788.5,-310.23"/>
<text text-anchor="middle" x="2309.5" y="-459.28" font-family="Times,serif" font-size="20.00">[[&#39;Timing&#45;Allow&#45;Origin&#39;, &#39;*&#39;], [&#39;location&#39;, &#39;https://sub.headers.websec.saarland/_hp/common/empty.html&#39;]]</text>
<text text-anchor="middle" x="2309.5" y="-437.28" font-family="Times,serif" font-size="20.00">[[&#39;Timing&#45;Allow&#45;Origin&#39;, &#39;*&#39;]]</text>
<text text-anchor="middle" x="2309.5" y="-415.28" font-family="Times,serif" font-size="20.00">[[&#39;Timing&#45;Allow&#45;Origin&#39;, &#39;https://sub.headers.websec.saarland&#39;], [&#39;Timing&#45;Allow&#45;Origin&#39;, &#39;*&#39;]]</text>
<text text-anchor="middle" x="2309.5" y="-393.28" font-family="Times,serif" font-size="20.00">[[&#39;Timing&#45;Allow&#45;Origin&#39;, &#39;https://sub.headers.websec.saarland&#39;]]</text>
<text text-anchor="middle" x="2309.5" y="-371.28" font-family="Times,serif" font-size="20.00">[[&#39;Timing&#45;Allow&#45;Origin&#39;, &#39;null&#39;], [&#39;Timing&#45;Allow&#45;Origin&#39;, &#39;*&#39;]]</text>
</g>
<!-- SG_1_Node_7 -->
<g id="node12" class="node">
<title>SG_1_Node_7</title>
<ellipse fill="none" stroke="black" cx="2857" cy="-282.07" rx="33.88" ry="21.43"/>
<text text-anchor="middle" x="2857" y="-277.07" font-family="Times,serif" font-size="20.00">1.0</text>
</g>
<!-- SG_1_Node_2&#45;&gt;SG_1_Node_7 -->
<g id="edge8" class="edge">
<title>SG_1_Node_2&#45;&gt;SG_1_Node_7</title>
<path fill="none" stroke="black" d="M1853.63,-557.46C2081.32,-557.03 2799.33,-552.99 2835,-519.28 2863.9,-491.97 2861.72,-371.51 2858.9,-313.93"/>
<polygon fill="black" stroke="black" points="2862.38,-313.42 2858.36,-303.62 2855.39,-313.79 2862.38,-313.42"/>
<text text-anchor="middle" x="3399" y="-503.28" font-family="Times,serif" font-size="20.00">[NA]</text>
<text text-anchor="middle" x="3399" y="-481.28" font-family="Times,serif" font-size="20.00">[[&#39;Timing&#45;Allow&#45;Origin&#39;, &#39;http://sub.headers.websec.saarland&#39;]]</text>
<text text-anchor="middle" x="3399" y="-459.28" font-family="Times,serif" font-size="20.00">[[&#39;Timing&#45;Allow&#45;Origin&#39;, &#39;https://headers.websec.saarland&#39;]]</text>
<text text-anchor="middle" x="3399" y="-437.28" font-family="Times,serif" font-size="20.00">[[&#39;Timing&#45;Allow&#45;Origin&#39;, &#39;https://sub.headers.websec.saarland/&#39;]]</text>
<text text-anchor="middle" x="3399" y="-415.28" font-family="Times,serif" font-size="20.00">[[&#39;Timing&#45;Allow&#45;Origin&#39;, &#39;https://sub.headers.websec.saarland:443&#39;]]</text>
<text text-anchor="middle" x="3399" y="-393.28" font-family="Times,serif" font-size="20.00">[[&#39;Timing&#45;Allow&#45;Origin&#39;, &#39;null&#39;], [&#39;location&#39;, &#39;https://sub.headers.websec.saarland/_hp/common/empty.html&#39;]]</text>
<text text-anchor="middle" x="3399" y="-371.28" font-family="Times,serif" font-size="20.00">[[&#39;Timing&#45;Allow&#45;Origin&#39;, &#39;null&#39;]]</text>
<text text-anchor="middle" x="3399" y="-349.28" font-family="Times,serif" font-size="20.00">[[&#39;Timing&#45;Allow&#45;Origin&#39;, &#39;sub.headers.websec.saarland&#39;]]</text>
<text text-anchor="middle" x="3399" y="-327.28" font-family="Times,serif" font-size="20.00">[]</text>
</g>
<!-- SG_1_Node_8 -->
<g id="node13" class="node">
<title>SG_1_Node_8</title>
<ellipse fill="none" stroke="black" cx="1549" cy="-159.64" rx="33.88" ry="21.43"/>
<text text-anchor="middle" x="1549" y="-154.64" font-family="Times,serif" font-size="20.00">0.0</text>
</g>
<!-- SG_1_Node_3&#45;&gt;SG_1_Node_8 -->
<g id="edge9" class="edge">
<title>SG_1_Node_3&#45;&gt;SG_1_Node_8</title>
<path fill="none" stroke="black" d="M1734.27,-280.16C1672.45,-277.87 1573.33,-269.95 1550,-242.85 1537.97,-228.88 1537.82,-208.07 1540.64,-190.89"/>
<polygon fill="black" stroke="black" points="1544.13,-191.24 1542.69,-180.75 1537.27,-189.86 1544.13,-191.24"/>
<text text-anchor="middle" x="1774.5" y="-226.85" font-family="Times,serif" font-size="20.00">firefox Ubuntu 22.04 119 selenium headless</text>
<text text-anchor="middle" x="1774.5" y="-204.85" font-family="Times,serif" font-size="20.00">firefox Ubuntu 22.04 119 selenium xvfb</text>
</g>
<!-- SG_1_Node_4 -->
<g id="node14" class="node">
<title>SG_1_Node_4</title>
<polygon fill="none" stroke="black" points="2089.5,-177.64 1952.5,-177.64 1952.5,-141.64 2089.5,-141.64 2089.5,-177.64"/>
<text text-anchor="middle" x="2021" y="-154.64" font-family="Times,serif" font-size="20.00">status_code</text>
</g>
<!-- SG_1_Node_3&#45;&gt;SG_1_Node_4 -->
<g id="edge10" class="edge">
<title>SG_1_Node_3&#45;&gt;SG_1_Node_4</title>
<path fill="none" stroke="black" d="M1835.7,-278.19C1891.29,-274 1975.72,-264.24 1999,-242.85 2014.1,-228.98 2019.29,-205.99 2020.88,-187.85"/>
<polygon fill="black" stroke="black" points="2024.38,-188.01 2021.45,-177.83 2017.39,-187.61 2024.38,-188.01"/>
<text text-anchor="middle" x="2240" y="-215.85" font-family="Times,serif" font-size="20.00">firefox_beta Android 11 122.0b1 intent real</text>
</g>
<!-- SG_1_Node_9 -->
<g id="node15" class="node">
<title>SG_1_Node_9</title>
<ellipse fill="none" stroke="black" cx="1980" cy="-37.21" rx="33.88" ry="21.43"/>
<text text-anchor="middle" x="1980" y="-32.21" font-family="Times,serif" font-size="20.00">0.0</text>
</g>
<!-- SG_1_Node_4&#45;&gt;SG_1_Node_9 -->
<g id="edge11" class="edge">
<title>SG_1_Node_4&#45;&gt;SG_1_Node_9</title>
<path fill="none" stroke="black" d="M2002.94,-141.47C1997.57,-135.35 1992.26,-128.07 1989,-120.43 1982.14,-104.33 1979.77,-84.93 1979.17,-69.01"/>
<polygon fill="black" stroke="black" points="1982.66,-68.58 1979.01,-58.64 1975.66,-68.69 1982.66,-68.58"/>
<text text-anchor="middle" x="2012.5" y="-104.43" font-family="Times,serif" font-size="20.00">[NA]</text>
<text text-anchor="middle" x="2012.5" y="-82.43" font-family="Times,serif" font-size="20.00">200</text>
</g>
<!-- SG_1_Node_10 -->
<g id="node16" class="node">
<title>SG_1_Node_10</title>
<ellipse fill="none" stroke="black" cx="2066" cy="-37.21" rx="33.88" ry="21.43"/>
<text text-anchor="middle" x="2066" y="-32.21" font-family="Times,serif" font-size="20.00">1.0</text>
</g>
<!-- SG_1_Node_4&#45;&gt;SG_1_Node_10 -->
<g id="edge12" class="edge">
<title>SG_1_Node_4&#45;&gt;SG_1_Node_10</title>
<path fill="none" stroke="black" d="M2027.81,-141.55C2030.41,-134.96 2033.38,-127.36 2036,-120.43 2042.58,-103.06 2049.71,-83.53 2055.37,-67.87"/>
<polygon fill="black" stroke="black" points="2058.76,-68.79 2058.86,-58.2 2052.18,-66.42 2058.76,-68.79"/>
<text text-anchor="middle" x="2070.5" y="-93.43" font-family="Times,serif" font-size="20.00">302</text>
</g>
<!-- SG_2_Node_0 -->
<g id="node17" class="node">
<title>SG_2_Node_0</title>
<polygon fill="none" stroke="black" points="4108.5,-717.71 4007.5,-717.71 4007.5,-681.71 4108.5,-681.71 4108.5,-717.71"/>
<text text-anchor="middle" x="4058" y="-694.71" font-family="Times,serif" font-size="20.00">browser</text>
</g>
<!-- SG_2_Node_4 -->
<g id="node18" class="node">
<title>SG_2_Node_4</title>
<ellipse fill="none" stroke="black" cx="4025" cy="-558.49" rx="33.88" ry="21.43"/>
<text text-anchor="middle" x="4025" y="-553.49" font-family="Times,serif" font-size="20.00">0.0</text>
</g>
<!-- SG_2_Node_0&#45;&gt;SG_2_Node_4 -->
<g id="edge15" class="edge">
<title>SG_2_Node_0&#45;&gt;SG_2_Node_4</title>
<path fill="none" stroke="black" d="M4040.78,-681.55C4036.49,-676.25 4032.42,-670.11 4030,-663.71 4021.07,-640.08 4020.39,-611.27 4021.61,-589.94"/>
<polygon fill="black" stroke="black" points="4025.11,-590.06 4022.37,-579.83 4018.13,-589.54 4025.11,-590.06"/>
<text text-anchor="middle" x="4075.5" y="-636.71" font-family="Times,serif" font-size="20.00">[NA]</text>
<text text-anchor="middle" x="4075.5" y="-614.71" font-family="Times,serif" font-size="20.00">11 levels</text>
</g>
<!-- SG_2_Node_1 -->
<g id="node19" class="node">
<title>SG_2_Node_1</title>
<polygon fill="none" stroke="black" points="4213.5,-576.49 4076.5,-576.49 4076.5,-540.49 4213.5,-540.49 4213.5,-576.49"/>
<text text-anchor="middle" x="4145" y="-553.49" font-family="Times,serif" font-size="20.00">raw_header</text>
</g>
<!-- SG_2_Node_0&#45;&gt;SG_2_Node_1 -->
<g id="edge16" class="edge">
<title>SG_2_Node_0&#45;&gt;SG_2_Node_1</title>
<path fill="none" stroke="black" d="M4100.46,-681.61C4108.23,-676.82 4115.58,-670.9 4121,-663.71 4137.69,-641.52 4143.07,-609.7 4144.66,-587.06"/>
<polygon fill="black" stroke="black" points="4148.17,-586.93 4145.17,-576.77 4141.18,-586.59 4148.17,-586.93"/>
<text text-anchor="middle" x="4367.5" y="-647.71" font-family="Times,serif" font-size="20.00">firefox Ubuntu 22.04 119 selenium headless</text>
<text text-anchor="middle" x="4367.5" y="-625.71" font-family="Times,serif" font-size="20.00">firefox Ubuntu 22.04 119 selenium xvfb</text>
<text text-anchor="middle" x="4367.5" y="-603.71" font-family="Times,serif" font-size="20.00">firefox_beta Android 11 122.0b1 intent real</text>
</g>
<!-- SG_2_Node_5 -->
<g id="node20" class="node">
<title>SG_2_Node_5</title>
<ellipse fill="none" stroke="black" cx="3993" cy="-282.07" rx="33.88" ry="21.43"/>
<text text-anchor="middle" x="3993" y="-277.07" font-family="Times,serif" font-size="20.00">0.0</text>
</g>
<!-- SG_2_Node_1&#45;&gt;SG_2_Node_5 -->
<g id="edge17" class="edge">
<title>SG_2_Node_1&#45;&gt;SG_2_Node_5</title>
<path fill="none" stroke="black" d="M4081.21,-540.43C4076.74,-539.34 4072.31,-538.27 4068,-537.28 4028.25,-528.1 4003.86,-550.83 3978,-519.28 3929.13,-459.67 3959.93,-360.6 3979.89,-311.89"/>
<polygon fill="black" stroke="black" points="3983.15,-313.15 3983.83,-302.57 3976.71,-310.42 3983.15,-313.15"/>
<text text-anchor="middle" x="4517" y="-503.28" font-family="Times,serif" font-size="20.00">[NA]</text>
<text text-anchor="middle" x="4517" y="-481.28" font-family="Times,serif" font-size="20.00">[[&#39;Timing&#45;Allow&#45;Origin&#39;, &#39;http://sub.headers.websec.saarland&#39;]]</text>
<text text-anchor="middle" x="4517" y="-459.28" font-family="Times,serif" font-size="20.00">[[&#39;Timing&#45;Allow&#45;Origin&#39;, &#39;https://headers.websec.saarland&#39;]]</text>
<text text-anchor="middle" x="4517" y="-437.28" font-family="Times,serif" font-size="20.00">[[&#39;Timing&#45;Allow&#45;Origin&#39;, &#39;https://sub.headers.websec.saarland/&#39;]]</text>
<text text-anchor="middle" x="4517" y="-415.28" font-family="Times,serif" font-size="20.00">[[&#39;Timing&#45;Allow&#45;Origin&#39;, &#39;https://sub.headers.websec.saarland:443&#39;]]</text>
<text text-anchor="middle" x="4517" y="-393.28" font-family="Times,serif" font-size="20.00">[[&#39;Timing&#45;Allow&#45;Origin&#39;, &#39;null&#39;], [&#39;location&#39;, &#39;https://sub.headers.websec.saarland/_hp/common/empty.html&#39;]]</text>
<text text-anchor="middle" x="4517" y="-371.28" font-family="Times,serif" font-size="20.00">[[&#39;Timing&#45;Allow&#45;Origin&#39;, &#39;null&#39;]]</text>
<text text-anchor="middle" x="4517" y="-349.28" font-family="Times,serif" font-size="20.00">[[&#39;Timing&#45;Allow&#45;Origin&#39;, &#39;sub.headers.websec.saarland&#39;]]</text>
<text text-anchor="middle" x="4517" y="-327.28" font-family="Times,serif" font-size="20.00">[]</text>
</g>
<!-- SG_2_Node_2 -->
<g id="node21" class="node">
<title>SG_2_Node_2</title>
<polygon fill="none" stroke="black" points="5128.5,-300.07 5027.5,-300.07 5027.5,-264.07 5128.5,-264.07 5128.5,-300.07"/>
<text text-anchor="middle" x="5078" y="-277.07" font-family="Times,serif" font-size="20.00">browser</text>
</g>
<!-- SG_2_Node_1&#45;&gt;SG_2_Node_2 -->
<g id="edge18" class="edge">
<title>SG_2_Node_1&#45;&gt;SG_2_Node_2</title>
<path fill="none" stroke="black" d="M4213.79,-557.05C4420.79,-555.42 5025.59,-548.18 5056,-519.28 5113.16,-464.96 5097.13,-359.77 5085.41,-310.18"/>
<polygon fill="black" stroke="black" points="5088.74,-309.07 5082.93,-300.21 5081.95,-310.76 5088.74,-309.07"/>
<text text-anchor="middle" x="5620.5" y="-459.28" font-family="Times,serif" font-size="20.00">[[&#39;Timing&#45;Allow&#45;Origin&#39;, &#39;*&#39;], [&#39;location&#39;, &#39;https://sub.headers.websec.saarland/_hp/common/empty.html&#39;]]</text>
<text text-anchor="middle" x="5620.5" y="-437.28" font-family="Times,serif" font-size="20.00">[[&#39;Timing&#45;Allow&#45;Origin&#39;, &#39;*&#39;]]</text>
<text text-anchor="middle" x="5620.5" y="-415.28" font-family="Times,serif" font-size="20.00">[[&#39;Timing&#45;Allow&#45;Origin&#39;, &#39;https://sub.headers.websec.saarland&#39;], [&#39;Timing&#45;Allow&#45;Origin&#39;, &#39;*&#39;]]</text>
<text text-anchor="middle" x="5620.5" y="-393.28" font-family="Times,serif" font-size="20.00">[[&#39;Timing&#45;Allow&#45;Origin&#39;, &#39;https://sub.headers.websec.saarland&#39;]]</text>
<text text-anchor="middle" x="5620.5" y="-371.28" font-family="Times,serif" font-size="20.00">[[&#39;Timing&#45;Allow&#45;Origin&#39;, &#39;null&#39;], [&#39;Timing&#45;Allow&#45;Origin&#39;, &#39;*&#39;]]</text>
</g>
<!-- SG_2_Node_3 -->
<g id="node22" class="node">
<title>SG_2_Node_3</title>
<polygon fill="none" stroke="black" points="4913.5,-177.64 4776.5,-177.64 4776.5,-141.64 4913.5,-141.64 4913.5,-177.64"/>
<text text-anchor="middle" x="4845" y="-154.64" font-family="Times,serif" font-size="20.00">status_code</text>
</g>
<!-- SG_2_Node_2&#45;&gt;SG_2_Node_3 -->
<g id="edge19" class="edge">
<title>SG_2_Node_2&#45;&gt;SG_2_Node_3</title>
<path fill="none" stroke="black" d="M5027.27,-280.25C4965.15,-278.06 4865.3,-270.23 4842,-242.85 4829.31,-227.94 4831.07,-205.42 4835.45,-187.72"/>
<polygon fill="black" stroke="black" points="4838.86,-188.53 4838.23,-177.95 4832.12,-186.61 4838.86,-188.53"/>
<text text-anchor="middle" x="5063" y="-215.85" font-family="Times,serif" font-size="20.00">firefox_beta Android 11 122.0b1 intent real</text>
</g>
<!-- SG_2_Node_6 -->
<g id="node23" class="node">
<title>SG_2_Node_6</title>
<ellipse fill="none" stroke="black" cx="5310" cy="-159.64" rx="33.88" ry="21.43"/>
<text text-anchor="middle" x="5310" y="-154.64" font-family="Times,serif" font-size="20.00">1.0</text>
</g>
<!-- SG_2_Node_2&#45;&gt;SG_2_Node_6 -->
<g id="edge20" class="edge">
<title>SG_2_Node_2&#45;&gt;SG_2_Node_6</title>
<path fill="none" stroke="black" d="M5128.74,-277.99C5183.31,-273.64 5265.32,-263.76 5288,-242.85 5302.13,-229.83 5307.58,-208.83 5309.52,-191.32"/>
<polygon fill="black" stroke="black" points="5313.04,-191.2 5310.33,-180.96 5306.06,-190.66 5313.04,-191.2"/>
<text text-anchor="middle" x="5532.5" y="-226.85" font-family="Times,serif" font-size="20.00">firefox Ubuntu 22.04 119 selenium headless</text>
<text text-anchor="middle" x="5532.5" y="-204.85" font-family="Times,serif" font-size="20.00">firefox Ubuntu 22.04 119 selenium xvfb</text>
</g>
<!-- SG_2_Node_7 -->
<g id="node24" class="node">
<title>SG_2_Node_7</title>
<ellipse fill="none" stroke="black" cx="4814" cy="-37.21" rx="33.88" ry="21.43"/>
<text text-anchor="middle" x="4814" y="-32.21" font-family="Times,serif" font-size="20.00">0.0</text>
</g>
<!-- SG_2_Node_3&#45;&gt;SG_2_Node_7 -->
<g id="edge21" class="edge">
<title>SG_2_Node_3&#45;&gt;SG_2_Node_7</title>
<path fill="none" stroke="black" d="M4835.68,-141.55C4832.5,-135.09 4829.2,-127.58 4827,-120.43 4821.85,-103.71 4818.67,-84.41 4816.74,-68.72"/>
<polygon fill="black" stroke="black" points="4820.19,-68.06 4815.6,-58.51 4813.23,-68.84 4820.19,-68.06"/>
<text text-anchor="middle" x="4846.5" y="-93.43" font-family="Times,serif" font-size="20.00">302</text>
</g>
<!-- SG_2_Node_8 -->
<g id="node25" class="node">
<title>SG_2_Node_8</title>
<ellipse fill="none" stroke="black" cx="4900" cy="-37.21" rx="33.88" ry="21.43"/>
<text text-anchor="middle" x="4900" y="-32.21" font-family="Times,serif" font-size="20.00">1.0</text>
</g>
<!-- SG_2_Node_3&#45;&gt;SG_2_Node_8 -->
<g id="edge22" class="edge">
<title>SG_2_Node_3&#45;&gt;SG_2_Node_8</title>
<path fill="none" stroke="black" d="M4855.03,-141.35C4858.65,-134.87 4862.66,-127.39 4866,-120.43 4874.22,-103.29 4882.39,-83.63 4888.67,-67.84"/>
<polygon fill="black" stroke="black" points="4892.1,-68.67 4892.49,-58.08 4885.58,-66.11 4892.1,-68.67"/>
<text text-anchor="middle" x="4907.5" y="-104.43" font-family="Times,serif" font-size="20.00">[NA]</text>
<text text-anchor="middle" x="4907.5" y="-82.43" font-family="Times,serif" font-size="20.00">200</text>
</g>
</g>
</svg>
