<?xml version="1.0" encoding="UTF-8" standalone="no"?>
<!DOCTYPE svg PUBLIC "-//W3C//DTD SVG 1.1//EN"
 "http://www.w3.org/Graphics/SVG/1.1/DTD/svg11.dtd">
<!-- Generated by graphviz version 2.43.0 (0)
 -->
<!-- Title: G Pages: 1 -->
<svg width="1226pt" height="272pt"
 viewBox="0.00 0.00 1226.00 272.43" xmlns="http://www.w3.org/2000/svg" xmlns:xlink="http://www.w3.org/1999/xlink">
<g id="graph0" class="graph" transform="scale(1 1) rotate(0) translate(4 268.43)">
<title>G</title>
<polygon fill="white" stroke="transparent" points="-4,4 -4,-268.43 1222,-268.43 1222,4 -4,4"/>
<g id="clust1" class="cluster">
<title>cluster_0</title>
<polygon fill="none" stroke="black" points="8,-8 8,-256.43 605,-256.43 605,-8 8,-8"/>
<text text-anchor="middle" x="306.5" y="-220.43" font-family="Times,serif" font-size="40.00">Tree 0, Class error</text>
</g>
<g id="clust4" class="cluster">
<title>cluster_1</title>
<polygon fill="none" stroke="black" points="613,-8 613,-256.43 1210,-256.43 1210,-8 613,-8"/>
<text text-anchor="middle" x="911.5" y="-220.43" font-family="Times,serif" font-size="40.00">Tree 0, Class load</text>
</g>
<!-- SG_0_Node_0 -->
<g id="node1" class="node">
<title>SG_0_Node_0</title>
<polygon fill="none" stroke="black" points="157.5,-196.43 56.5,-196.43 56.5,-160.43 157.5,-160.43 157.5,-196.43"/>
<text text-anchor="middle" x="107" y="-173.43" font-family="Times,serif" font-size="20.00">browser</text>
</g>
<!-- SG_0_Node_1 -->
<g id="node2" class="node">
<title>SG_0_Node_1</title>
<ellipse fill="none" stroke="black" cx="50" cy="-37.21" rx="33.88" ry="21.43"/>
<text text-anchor="middle" x="50" y="-32.21" font-family="Times,serif" font-size="20.00">0.0</text>
</g>
<!-- SG_0_Node_0&#45;&gt;SG_0_Node_1 -->
<g id="edge1" class="edge">
<title>SG_0_Node_0&#45;&gt;SG_0_Node_1</title>
<path fill="none" stroke="black" d="M56.34,-163.84C46.31,-158.77 37.03,-151.85 31,-142.43 16.49,-119.76 24.77,-88.95 34.54,-66.72"/>
<polygon fill="black" stroke="black" points="37.8,-68 38.9,-57.47 31.47,-65.02 37.8,-68"/>
<text text-anchor="middle" x="76.5" y="-115.43" font-family="Times,serif" font-size="20.00">[NA]</text>
<text text-anchor="middle" x="76.5" y="-93.43" font-family="Times,serif" font-size="20.00">11 levels</text>
</g>
<!-- SG_0_Node_2 -->
<g id="node3" class="node">
<title>SG_0_Node_2</title>
<ellipse fill="none" stroke="black" cx="148" cy="-37.21" rx="33.88" ry="21.43"/>
<text text-anchor="middle" x="148" y="-32.21" font-family="Times,serif" font-size="20.00">1.0</text>
</g>
<!-- SG_0_Node_0&#45;&gt;SG_0_Node_2 -->
<g id="edge2" class="edge">
<title>SG_0_Node_0&#45;&gt;SG_0_Node_2</title>
<path fill="none" stroke="black" d="M117.7,-160.09C120.73,-154.59 123.8,-148.4 126,-142.43 134.85,-118.38 140.57,-89.83 143.95,-68.69"/>
<polygon fill="black" stroke="black" points="147.43,-69.09 145.47,-58.68 140.51,-68.04 147.43,-69.09"/>
<text text-anchor="middle" x="366.5" y="-126.43" font-family="Times,serif" font-size="20.00">firefox Ubuntu 22.04 119 selenium headless</text>
<text text-anchor="middle" x="366.5" y="-104.43" font-family="Times,serif" font-size="20.00">firefox Ubuntu 22.04 119 selenium xvfb</text>
<text text-anchor="middle" x="366.5" y="-82.43" font-family="Times,serif" font-size="20.00">firefox_beta Android 11 122.0b1 intent real</text>
</g>
<!-- SG_1_Node_0 -->
<g id="node4" class="node">
<title>SG_1_Node_0</title>
<polygon fill="none" stroke="black" points="941.5,-196.43 840.5,-196.43 840.5,-160.43 941.5,-160.43 941.5,-196.43"/>
<text text-anchor="middle" x="891" y="-173.43" font-family="Times,serif" font-size="20.00">browser</text>
</g>
<!-- SG_1_Node_1 -->
<g id="node5" class="node">
<title>SG_1_Node_1</title>
<ellipse fill="none" stroke="black" cx="655" cy="-37.21" rx="33.88" ry="21.43"/>
<text text-anchor="middle" x="655" y="-32.21" font-family="Times,serif" font-size="20.00">0.0</text>
</g>
<!-- SG_1_Node_0&#45;&gt;SG_1_Node_1 -->
<g id="edge3" class="edge">
<title>SG_1_Node_0&#45;&gt;SG_1_Node_1</title>
<path fill="none" stroke="black" d="M840.28,-178C773.63,-177.54 661.96,-172.19 636,-142.43 617.83,-121.6 627.55,-89.3 638.66,-66.19"/>
<polygon fill="black" stroke="black" points="641.82,-67.71 643.27,-57.21 635.59,-64.51 641.82,-67.71"/>
<text text-anchor="middle" x="860.5" y="-126.43" font-family="Times,serif" font-size="20.00">firefox Ubuntu 22.04 119 selenium headless</text>
<text text-anchor="middle" x="860.5" y="-104.43" font-family="Times,serif" font-size="20.00">firefox Ubuntu 22.04 119 selenium xvfb</text>
<text text-anchor="middle" x="860.5" y="-82.43" font-family="Times,serif" font-size="20.00">firefox_beta Android 11 122.0b1 intent real</text>
</g>
<!-- SG_1_Node_2 -->
<g id="node6" class="node">
<title>SG_1_Node_2</title>
<ellipse fill="none" stroke="black" cx="1111" cy="-37.21" rx="33.88" ry="21.43"/>
<text text-anchor="middle" x="1111" y="-32.21" font-family="Times,serif" font-size="20.00">1.0</text>
</g>
<!-- SG_1_Node_0&#45;&gt;SG_1_Node_2 -->
<g id="edge4" class="edge">
<title>SG_1_Node_0&#45;&gt;SG_1_Node_2</title>
<path fill="none" stroke="black" d="M941.84,-174.79C993.41,-171.04 1068.49,-162.27 1089,-142.43 1108.48,-123.58 1112.86,-92.16 1113.05,-68.74"/>
<polygon fill="black" stroke="black" points="1116.55,-68.55 1112.89,-58.61 1109.55,-68.67 1116.55,-68.55"/>
<text text-anchor="middle" x="1157.5" y="-115.43" font-family="Times,serif" font-size="20.00">[NA]</text>
<text text-anchor="middle" x="1157.5" y="-93.43" font-family="Times,serif" font-size="20.00">11 levels</text>
</g>
</g>
</svg>
