<?xml version="1.0" encoding="UTF-8" standalone="no"?>
<!DOCTYPE svg PUBLIC "-//W3C//DTD SVG 1.1//EN"
 "http://www.w3.org/Graphics/SVG/1.1/DTD/svg11.dtd">
<!-- Generated by graphviz version 2.43.0 (0)
 -->
<!-- Title: G Pages: 1 -->
<svg width="2593pt" height="360pt"
 viewBox="0.00 0.00 2593.00 360.43" xmlns="http://www.w3.org/2000/svg" xmlns:xlink="http://www.w3.org/1999/xlink">
<g id="graph0" class="graph" transform="scale(1 1) rotate(0) translate(4 356.43)">
<title>G</title>
<polygon fill="white" stroke="transparent" points="-4,4 -4,-356.43 2589,-356.43 2589,4 -4,4"/>
<g id="clust1" class="cluster">
<title>cluster_0</title>
<polygon fill="none" stroke="black" points="8,-8 8,-344.43 1265,-344.43 1265,-8 8,-8"/>
<text text-anchor="middle" x="636.5" y="-308.43" font-family="Times,serif" font-size="40.00">Tree 0, Class {&#39;window.open.opener&#39;: &#39;null&#39;}</text>
</g>
<g id="clust4" class="cluster">
<title>cluster_1</title>
<polygon fill="none" stroke="black" points="1273,-8 1273,-344.43 2577,-344.43 2577,-8 1273,-8"/>
<text text-anchor="middle" x="1925" y="-308.43" font-family="Times,serif" font-size="40.00">Tree 0, Class {&#39;window.open.opener&#39;: &#39;object [object Window]&#39;}</text>
</g>
<!-- SG_0_Node_0 -->
<g id="node1" class="node">
<title>SG_0_Node_0</title>
<polygon fill="none" stroke="black" points="352.5,-284.43 251.5,-284.43 251.5,-248.43 352.5,-248.43 352.5,-284.43"/>
<text text-anchor="middle" x="302" y="-261.43" font-family="Times,serif" font-size="20.00">browser</text>
</g>
<!-- SG_0_Node_1 -->
<g id="node2" class="node">
<title>SG_0_Node_1</title>
<ellipse fill="none" stroke="black" cx="50" cy="-37.21" rx="33.88" ry="21.43"/>
<text text-anchor="middle" x="50" y="-32.21" font-family="Times,serif" font-size="20.00">0.0</text>
</g>
<!-- SG_0_Node_0&#45;&gt;SG_0_Node_1 -->
<g id="edge1" class="edge">
<title>SG_0_Node_0&#45;&gt;SG_0_Node_1</title>
<path fill="none" stroke="black" d="M251.34,-262.45C176.93,-257.55 45.29,-246.68 31,-230.43 -14.19,-179.02 15.35,-143.06 31,-76.43 31.76,-73.18 32.84,-69.9 34.11,-66.68"/>
<polygon fill="black" stroke="black" points="37.38,-67.94 38.32,-57.39 31,-65.06 37.38,-67.94"/>
<text text-anchor="middle" x="271.5" y="-181.43" font-family="Times,serif" font-size="20.00">edge Ubuntu 22.04 119 selenium headless&#45;new</text>
<text text-anchor="middle" x="271.5" y="-159.43" font-family="Times,serif" font-size="20.00">edge Ubuntu 22.04 119 selenium xvfb</text>
<text text-anchor="middle" x="271.5" y="-137.43" font-family="Times,serif" font-size="20.00">firefox Ubuntu 22.04 119 selenium headless</text>
<text text-anchor="middle" x="271.5" y="-115.43" font-family="Times,serif" font-size="20.00">firefox Ubuntu 22.04 119 selenium xvfb</text>
</g>
<!-- SG_0_Node_2 -->
<g id="node3" class="node">
<title>SG_0_Node_2</title>
<ellipse fill="none" stroke="black" cx="538" cy="-37.21" rx="33.88" ry="21.43"/>
<text text-anchor="middle" x="538" y="-32.21" font-family="Times,serif" font-size="20.00">1.0</text>
</g>
<!-- SG_0_Node_0&#45;&gt;SG_0_Node_2 -->
<g id="edge2" class="edge">
<title>SG_0_Node_0&#45;&gt;SG_0_Node_2</title>
<path fill="none" stroke="black" d="M352.74,-263.98C408.84,-261.24 494.18,-253.32 516,-230.43 557.44,-186.94 551.72,-110.4 544.5,-68.22"/>
<polygon fill="black" stroke="black" points="547.92,-67.47 542.66,-58.27 541.04,-68.74 547.92,-67.47"/>
<text text-anchor="middle" x="908.5" y="-214.43" font-family="Times,serif" font-size="20.00">[NA]</text>
<text text-anchor="middle" x="908.5" y="-192.43" font-family="Times,serif" font-size="20.00">brave Ubuntu 22.04 1.59.120 (118.0.5993.88) selenium headless&#45;new</text>
<text text-anchor="middle" x="908.5" y="-170.43" font-family="Times,serif" font-size="20.00">brave Ubuntu 22.04 1.59.120 (118.0.5993.88) selenium xvfb</text>
<text text-anchor="middle" x="908.5" y="-148.43" font-family="Times,serif" font-size="20.00">brave Ubuntu 22.04 1.60.114 (119.0.6045.124) selenium headless&#45;new</text>
<text text-anchor="middle" x="908.5" y="-126.43" font-family="Times,serif" font-size="20.00">brave Ubuntu 22.04 1.60.114 (119.0.6045.124) selenium xvfb</text>
<text text-anchor="middle" x="908.5" y="-104.43" font-family="Times,serif" font-size="20.00">chrome Ubuntu 22.04 119 selenium headless&#45;new</text>
<text text-anchor="middle" x="908.5" y="-82.43" font-family="Times,serif" font-size="20.00">chrome Ubuntu 22.04 119 selenium xvfb</text>
</g>
<!-- SG_1_Node_0 -->
<g id="node4" class="node">
<title>SG_1_Node_0</title>
<polygon fill="none" stroke="black" points="1744.5,-284.43 1643.5,-284.43 1643.5,-248.43 1744.5,-248.43 1744.5,-284.43"/>
<text text-anchor="middle" x="1694" y="-261.43" font-family="Times,serif" font-size="20.00">browser</text>
</g>
<!-- SG_1_Node_1 -->
<g id="node5" class="node">
<title>SG_1_Node_1</title>
<ellipse fill="none" stroke="black" cx="1330" cy="-37.21" rx="33.88" ry="21.43"/>
<text text-anchor="middle" x="1330" y="-32.21" font-family="Times,serif" font-size="20.00">0.0</text>
</g>
<!-- SG_1_Node_0&#45;&gt;SG_1_Node_1 -->
<g id="edge3" class="edge">
<title>SG_1_Node_0&#45;&gt;SG_1_Node_1</title>
<path fill="none" stroke="black" d="M1643.35,-264.23C1548.47,-261.47 1351.65,-253.05 1331,-230.43 1290.67,-186.26 1306.32,-109.72 1319.33,-67.79"/>
<polygon fill="black" stroke="black" points="1322.7,-68.75 1322.47,-58.16 1316.05,-66.59 1322.7,-68.75"/>
<text text-anchor="middle" x="1690.5" y="-214.43" font-family="Times,serif" font-size="20.00">[NA]</text>
<text text-anchor="middle" x="1690.5" y="-192.43" font-family="Times,serif" font-size="20.00">brave Ubuntu 22.04 1.59.120 (118.0.5993.88) selenium headless&#45;new</text>
<text text-anchor="middle" x="1690.5" y="-170.43" font-family="Times,serif" font-size="20.00">brave Ubuntu 22.04 1.59.120 (118.0.5993.88) selenium xvfb</text>
<text text-anchor="middle" x="1690.5" y="-148.43" font-family="Times,serif" font-size="20.00">brave Ubuntu 22.04 1.60.114 (119.0.6045.124) selenium headless&#45;new</text>
<text text-anchor="middle" x="1690.5" y="-126.43" font-family="Times,serif" font-size="20.00">brave Ubuntu 22.04 1.60.114 (119.0.6045.124) selenium xvfb</text>
<text text-anchor="middle" x="1690.5" y="-104.43" font-family="Times,serif" font-size="20.00">chrome Ubuntu 22.04 119 selenium headless&#45;new</text>
<text text-anchor="middle" x="1690.5" y="-82.43" font-family="Times,serif" font-size="20.00">chrome Ubuntu 22.04 119 selenium xvfb</text>
</g>
<!-- SG_1_Node_2 -->
<g id="node6" class="node">
<title>SG_1_Node_2</title>
<ellipse fill="none" stroke="black" cx="2072" cy="-37.21" rx="33.88" ry="21.43"/>
<text text-anchor="middle" x="2072" y="-32.21" font-family="Times,serif" font-size="20.00">1.0</text>
</g>
<!-- SG_1_Node_0&#45;&gt;SG_1_Node_2 -->
<g id="edge4" class="edge">
<title>SG_1_Node_0&#45;&gt;SG_1_Node_2</title>
<path fill="none" stroke="black" d="M1744.55,-263.92C1837.64,-260.64 2028.67,-251.42 2050,-230.43 2092.92,-188.18 2086.51,-110.82 2078.82,-68.26"/>
<polygon fill="black" stroke="black" points="2082.21,-67.37 2076.86,-58.23 2075.34,-68.71 2082.21,-67.37"/>
<text text-anchor="middle" x="2324.5" y="-181.43" font-family="Times,serif" font-size="20.00">edge Ubuntu 22.04 119 selenium headless&#45;new</text>
<text text-anchor="middle" x="2324.5" y="-159.43" font-family="Times,serif" font-size="20.00">edge Ubuntu 22.04 119 selenium xvfb</text>
<text text-anchor="middle" x="2324.5" y="-137.43" font-family="Times,serif" font-size="20.00">firefox Ubuntu 22.04 119 selenium headless</text>
<text text-anchor="middle" x="2324.5" y="-115.43" font-family="Times,serif" font-size="20.00">firefox Ubuntu 22.04 119 selenium xvfb</text>
</g>
</g>
</svg>
