<?xml version="1.0" encoding="UTF-8" standalone="no"?>
<!DOCTYPE svg PUBLIC "-//W3C//DTD SVG 1.1//EN"
 "http://www.w3.org/Graphics/SVG/1.1/DTD/svg11.dtd">
<!-- Generated by graphviz version 2.43.0 (0)
 -->
<!-- Title: G Pages: 1 -->
<svg width="5678pt" height="1325pt"
 viewBox="0.00 0.00 5678.28 1324.56" xmlns="http://www.w3.org/2000/svg" xmlns:xlink="http://www.w3.org/1999/xlink">
<g id="graph0" class="graph" transform="scale(1 1) rotate(0) translate(4 1320.56)">
<title>G</title>
<polygon fill="white" stroke="transparent" points="-4,4 -4,-1320.56 5674.28,-1320.56 5674.28,4 -4,4"/>
<g id="clust1" class="cluster">
<title>cluster_0</title>
<polygon fill="none" stroke="black" points="13.28,-8 13.28,-1308.56 2709.28,-1308.56 2709.28,-8 13.28,-8"/>
<text text-anchor="middle" x="1361.28" y="-1272.56" font-family="Times,serif" font-size="40.00">Tree 0, Class window.originAgentCluster: false</text>
</g>
<g id="clust9" class="cluster">
<title>cluster_1</title>
<polygon fill="none" stroke="black" points="2717.28,-8 2717.28,-1308.56 4428.28,-1308.56 4428.28,-8 2717.28,-8"/>
<text text-anchor="middle" x="3572.78" y="-1272.56" font-family="Times,serif" font-size="40.00">Tree 0, Class window.originAgentCluster: true</text>
</g>
<g id="clust17" class="cluster">
<title>cluster_2</title>
<polygon fill="none" stroke="black" points="4436.28,-928.13 4436.28,-1308.56 5661.28,-1308.56 5661.28,-928.13 4436.28,-928.13"/>
<text text-anchor="middle" x="5048.78" y="-1272.56" font-family="Times,serif" font-size="40.00">Tree 0, Class window.originAgentCluster: undefined</text>
</g>
<!-- SG_0_Node_0 -->
<g id="node1" class="node">
<title>SG_0_Node_0</title>
<polygon fill="none" stroke="black" points="1211.28,-1248.56 1079.28,-1248.56 1079.28,-1212.56 1211.28,-1212.56 1211.28,-1248.56"/>
<text text-anchor="middle" x="1145.28" y="-1225.56" font-family="Times,serif" font-size="20.00">resp_origin</text>
</g>
<!-- SG_0_Node_1 -->
<g id="node2" class="node">
<title>SG_0_Node_1</title>
<polygon fill="none" stroke="black" points="831.78,-975.35 730.78,-975.35 730.78,-939.35 831.78,-939.35 831.78,-975.35"/>
<text text-anchor="middle" x="781.28" y="-952.35" font-family="Times,serif" font-size="20.00">browser</text>
</g>
<!-- SG_0_Node_0&#45;&gt;SG_0_Node_1 -->
<g id="edge1" class="edge">
<title>SG_0_Node_0&#45;&gt;SG_0_Node_1</title>
<path fill="none" stroke="black" d="M1079.03,-1221.96C1053.17,-1216.9 1024.08,-1208.5 1000.28,-1194.56 906.94,-1139.86 829.61,-1032.94 797.39,-983.96"/>
<polygon fill="black" stroke="black" points="800.29,-981.99 791.91,-975.51 794.42,-985.81 800.29,-981.99"/>
<text text-anchor="middle" x="1207.78" y="-1134.56" font-family="Times,serif" font-size="20.00">[NA]</text>
<text text-anchor="middle" x="1207.78" y="-1112.56" font-family="Times,serif" font-size="20.00">https://headers.webappsec.eu</text>
<text text-anchor="middle" x="1207.78" y="-1090.56" font-family="Times,serif" font-size="20.00">https://headers.websec.saarland</text>
<text text-anchor="middle" x="1207.78" y="-1068.56" font-family="Times,serif" font-size="20.00">https://sub.headers.websec.saarland</text>
<text text-anchor="middle" x="1207.78" y="-1046.56" font-family="Times,serif" font-size="20.00">https://sub.sub.headers.websec.saarland</text>
</g>
<!-- SG_0_Node_2 -->
<g id="node3" class="node">
<title>SG_0_Node_2</title>
<polygon fill="none" stroke="black" points="1560.78,-975.35 1459.78,-975.35 1459.78,-939.35 1560.78,-939.35 1560.78,-975.35"/>
<text text-anchor="middle" x="1510.28" y="-952.35" font-family="Times,serif" font-size="20.00">browser</text>
</g>
<!-- SG_0_Node_0&#45;&gt;SG_0_Node_2 -->
<g id="edge2" class="edge">
<title>SG_0_Node_0&#45;&gt;SG_0_Node_2</title>
<path fill="none" stroke="black" d="M1211.37,-1228.49C1280.88,-1226.09 1384.4,-1218.46 1415.28,-1194.56 1482.37,-1142.64 1502.26,-1035.81 1508.01,-985.58"/>
<polygon fill="black" stroke="black" points="1511.51,-985.79 1509.07,-975.48 1504.55,-985.06 1511.51,-985.79"/>
<text text-anchor="middle" x="1707.78" y="-1123.56" font-family="Times,serif" font-size="20.00">http://headers.webappsec.eu</text>
<text text-anchor="middle" x="1707.78" y="-1101.56" font-family="Times,serif" font-size="20.00">http://headers.websec.saarland</text>
<text text-anchor="middle" x="1707.78" y="-1079.56" font-family="Times,serif" font-size="20.00">http://sub.headers.websec.saarland</text>
<text text-anchor="middle" x="1707.78" y="-1057.56" font-family="Times,serif" font-size="20.00">http://sub.sub.headers.websec.saarland</text>
</g>
<!-- SG_0_Node_3 -->
<g id="node4" class="node">
<title>SG_0_Node_3</title>
<polygon fill="none" stroke="black" points="158.78,-698.92 21.78,-698.92 21.78,-662.92 158.78,-662.92 158.78,-698.92"/>
<text text-anchor="middle" x="90.28" y="-675.92" font-family="Times,serif" font-size="20.00">raw_header</text>
</g>
<!-- SG_0_Node_1&#45;&gt;SG_0_Node_3 -->
<g id="edge5" class="edge">
<title>SG_0_Node_1&#45;&gt;SG_0_Node_3</title>
<path fill="none" stroke="black" d="M730.63,-955.63C567.06,-953.09 62.12,-943.23 38.28,-918.13 -22.32,-854.33 -1.46,-798.65 38.28,-720.13 41,-714.75 44.88,-709.95 49.3,-705.71"/>
<polygon fill="black" stroke="black" points="51.75,-708.23 57.16,-699.12 47.25,-702.87 51.75,-708.23"/>
<text text-anchor="middle" x="397.78" y="-902.13" font-family="Times,serif" font-size="20.00">[NA]</text>
<text text-anchor="middle" x="397.78" y="-880.13" font-family="Times,serif" font-size="20.00">brave Ubuntu 22.04 1.60.114 (119.0.6045.124) selenium headless&#45;new</text>
<text text-anchor="middle" x="397.78" y="-858.13" font-family="Times,serif" font-size="20.00">brave Ubuntu 22.04 1.60.114 (119.0.6045.124) selenium xvfb</text>
<text text-anchor="middle" x="397.78" y="-836.13" font-family="Times,serif" font-size="20.00">chrome Ubuntu 22.04 119 selenium headless&#45;new</text>
<text text-anchor="middle" x="397.78" y="-814.13" font-family="Times,serif" font-size="20.00">chrome Ubuntu 22.04 119 selenium xvfb</text>
<text text-anchor="middle" x="397.78" y="-792.13" font-family="Times,serif" font-size="20.00">edge Ubuntu 22.04 119 selenium headless&#45;new</text>
<text text-anchor="middle" x="397.78" y="-770.13" font-family="Times,serif" font-size="20.00">edge Ubuntu 22.04 119 selenium xvfb</text>
<text text-anchor="middle" x="397.78" y="-748.13" font-family="Times,serif" font-size="20.00">firefox Ubuntu 22.04 119 selenium headless</text>
<text text-anchor="middle" x="397.78" y="-726.13" font-family="Times,serif" font-size="20.00">firefox Ubuntu 22.04 119 selenium xvfb</text>
</g>
<!-- SG_0_Node_4 -->
<g id="node5" class="node">
<title>SG_0_Node_4</title>
<polygon fill="none" stroke="black" points="1231.78,-698.92 1094.78,-698.92 1094.78,-662.92 1231.78,-662.92 1231.78,-698.92"/>
<text text-anchor="middle" x="1163.28" y="-675.92" font-family="Times,serif" font-size="20.00">raw_header</text>
</g>
<!-- SG_0_Node_1&#45;&gt;SG_0_Node_4 -->
<g id="edge6" class="edge">
<title>SG_0_Node_1&#45;&gt;SG_0_Node_4</title>
<path fill="none" stroke="black" d="M776.23,-939.14C764.63,-895.66 741.38,-780.5 800.28,-720.13 819.72,-700.21 983.49,-689.63 1084.3,-684.96"/>
<polygon fill="black" stroke="black" points="1084.63,-688.45 1094.46,-684.5 1084.31,-681.45 1084.63,-688.45"/>
<text text-anchor="middle" x="1153.28" y="-825.13" font-family="Times,serif" font-size="20.00">brave Ubuntu 22.04 1.59.120 (118.0.5993.88) selenium headless&#45;new</text>
<text text-anchor="middle" x="1153.28" y="-803.13" font-family="Times,serif" font-size="20.00">brave Ubuntu 22.04 1.59.120 (118.0.5993.88) selenium xvfb</text>
</g>
<!-- SG_0_Node_10 -->
<g id="node6" class="node">
<title>SG_0_Node_10</title>
<ellipse fill="none" stroke="black" cx="1510.28" cy="-680.92" rx="33.88" ry="21.43"/>
<text text-anchor="middle" x="1510.28" y="-675.92" font-family="Times,serif" font-size="20.00">0.0</text>
</g>
<!-- SG_0_Node_2&#45;&gt;SG_0_Node_10 -->
<g id="edge3" class="edge">
<title>SG_0_Node_2&#45;&gt;SG_0_Node_10</title>
<path fill="none" stroke="black" d="M1510.28,-939.18C1510.28,-893.87 1510.28,-770.59 1510.28,-712.71"/>
<polygon fill="black" stroke="black" points="1513.78,-712.37 1510.28,-702.37 1506.78,-712.37 1513.78,-712.37"/>
<text text-anchor="middle" x="1734.78" y="-825.13" font-family="Times,serif" font-size="20.00">firefox Ubuntu 22.04 119 selenium headless</text>
<text text-anchor="middle" x="1734.78" y="-803.13" font-family="Times,serif" font-size="20.00">firefox Ubuntu 22.04 119 selenium xvfb</text>
</g>
<!-- SG_0_Node_11 -->
<g id="node7" class="node">
<title>SG_0_Node_11</title>
<ellipse fill="none" stroke="black" cx="1982.28" cy="-680.92" rx="33.88" ry="21.43"/>
<text text-anchor="middle" x="1982.28" y="-675.92" font-family="Times,serif" font-size="20.00">1.0</text>
</g>
<!-- SG_0_Node_2&#45;&gt;SG_0_Node_11 -->
<g id="edge4" class="edge">
<title>SG_0_Node_2&#45;&gt;SG_0_Node_11</title>
<path fill="none" stroke="black" d="M1561.05,-955.63C1672.8,-953.55 1932.41,-945.77 1960.28,-918.13 1988.51,-890.13 1986.67,-770.03 1984.06,-712.66"/>
<polygon fill="black" stroke="black" points="1987.55,-712.2 1983.56,-702.39 1980.56,-712.55 1987.55,-712.2"/>
<text text-anchor="middle" x="2344.78" y="-902.13" font-family="Times,serif" font-size="20.00">[NA]</text>
<text text-anchor="middle" x="2344.78" y="-880.13" font-family="Times,serif" font-size="20.00">brave Ubuntu 22.04 1.59.120 (118.0.5993.88) selenium headless&#45;new</text>
<text text-anchor="middle" x="2344.78" y="-858.13" font-family="Times,serif" font-size="20.00">brave Ubuntu 22.04 1.59.120 (118.0.5993.88) selenium xvfb</text>
<text text-anchor="middle" x="2344.78" y="-836.13" font-family="Times,serif" font-size="20.00">brave Ubuntu 22.04 1.60.114 (119.0.6045.124) selenium headless&#45;new</text>
<text text-anchor="middle" x="2344.78" y="-814.13" font-family="Times,serif" font-size="20.00">brave Ubuntu 22.04 1.60.114 (119.0.6045.124) selenium xvfb</text>
<text text-anchor="middle" x="2344.78" y="-792.13" font-family="Times,serif" font-size="20.00">chrome Ubuntu 22.04 119 selenium headless&#45;new</text>
<text text-anchor="middle" x="2344.78" y="-770.13" font-family="Times,serif" font-size="20.00">chrome Ubuntu 22.04 119 selenium xvfb</text>
<text text-anchor="middle" x="2344.78" y="-748.13" font-family="Times,serif" font-size="20.00">edge Ubuntu 22.04 119 selenium headless&#45;new</text>
<text text-anchor="middle" x="2344.78" y="-726.13" font-family="Times,serif" font-size="20.00">edge Ubuntu 22.04 119 selenium xvfb</text>
</g>
<!-- SG_0_Node_12 -->
<g id="node8" class="node">
<title>SG_0_Node_12</title>
<ellipse fill="none" stroke="black" cx="72.28" cy="-558.49" rx="33.88" ry="21.43"/>
<text text-anchor="middle" x="72.28" y="-553.49" font-family="Times,serif" font-size="20.00">0.0</text>
</g>
<!-- SG_0_Node_3&#45;&gt;SG_0_Node_12 -->
<g id="edge13" class="edge">
<title>SG_0_Node_3&#45;&gt;SG_0_Node_12</title>
<path fill="none" stroke="black" d="M80.77,-662.54C77.77,-656.18 74.83,-648.8 73.28,-641.71 69.59,-624.82 69.16,-605.52 69.74,-589.87"/>
<polygon fill="black" stroke="black" points="73.25,-589.85 70.28,-579.68 66.26,-589.49 73.25,-589.85"/>
<text text-anchor="middle" x="118.78" y="-625.71" font-family="Times,serif" font-size="20.00">[NA]</text>
<text text-anchor="middle" x="118.78" y="-603.71" font-family="Times,serif" font-size="20.00">11 levels</text>
</g>
<!-- SG_0_Node_5 -->
<g id="node9" class="node">
<title>SG_0_Node_5</title>
<polygon fill="none" stroke="black" points="236.78,-576.49 135.78,-576.49 135.78,-540.49 236.78,-540.49 236.78,-576.49"/>
<text text-anchor="middle" x="186.28" y="-553.49" font-family="Times,serif" font-size="20.00">browser</text>
</g>
<!-- SG_0_Node_3&#45;&gt;SG_0_Node_5 -->
<g id="edge14" class="edge">
<title>SG_0_Node_3&#45;&gt;SG_0_Node_5</title>
<path fill="none" stroke="black" d="M137.98,-662.72C147.82,-657.29 157.3,-650.38 164.28,-641.71 176.79,-626.17 182.22,-604.16 184.57,-586.82"/>
<polygon fill="black" stroke="black" points="188.06,-587.05 185.66,-576.73 181.1,-586.3 188.06,-587.05"/>
<text text-anchor="middle" x="327.28" y="-614.71" font-family="Times,serif" font-size="20.00">[[&#39;origin&#45;agent&#45;cluster&#39;, &#39;?0&#39;]]</text>
</g>
<!-- SG_0_Node_6 -->
<g id="node10" class="node">
<title>SG_0_Node_6</title>
<polygon fill="none" stroke="black" points="1327.28,-576.49 1195.28,-576.49 1195.28,-540.49 1327.28,-540.49 1327.28,-576.49"/>
<text text-anchor="middle" x="1261.28" y="-553.49" font-family="Times,serif" font-size="20.00">resp_origin</text>
</g>
<!-- SG_0_Node_4&#45;&gt;SG_0_Node_6 -->
<g id="edge7" class="edge">
<title>SG_0_Node_4&#45;&gt;SG_0_Node_6</title>
<path fill="none" stroke="black" d="M1158.35,-662.83C1154.28,-644.95 1151.07,-616.86 1164.28,-597.71 1169.85,-589.63 1177.41,-583.27 1185.86,-578.24"/>
<polygon fill="black" stroke="black" points="1187.71,-581.22 1194.95,-573.48 1184.46,-575.02 1187.71,-581.22"/>
<text text-anchor="middle" x="1309.28" y="-614.71" font-family="Times,serif" font-size="20.00">[[&#39;origin&#45;agent&#45;cluster&#39;, &#39;?1&#39;]]</text>
</g>
<!-- SG_0_Node_13 -->
<g id="node11" class="node">
<title>SG_0_Node_13</title>
<ellipse fill="none" stroke="black" cx="1476.28" cy="-558.49" rx="33.88" ry="21.43"/>
<text text-anchor="middle" x="1476.28" y="-553.49" font-family="Times,serif" font-size="20.00">1.0</text>
</g>
<!-- SG_0_Node_4&#45;&gt;SG_0_Node_13 -->
<g id="edge8" class="edge">
<title>SG_0_Node_4&#45;&gt;SG_0_Node_13</title>
<path fill="none" stroke="black" d="M1232.07,-679.46C1307.52,-677.52 1422.2,-669.84 1454.28,-641.71 1468.72,-629.04 1474.17,-608.03 1476.03,-590.43"/>
<polygon fill="black" stroke="black" points="1479.56,-590.23 1476.78,-580.01 1472.58,-589.73 1479.56,-590.23"/>
<text text-anchor="middle" x="1519.78" y="-625.71" font-family="Times,serif" font-size="20.00">[NA]</text>
<text text-anchor="middle" x="1519.78" y="-603.71" font-family="Times,serif" font-size="20.00">11 levels</text>
</g>
<!-- SG_0_Node_14 -->
<g id="node12" class="node">
<title>SG_0_Node_14</title>
<ellipse fill="none" stroke="black" cx="55.28" cy="-326.07" rx="33.88" ry="21.43"/>
<text text-anchor="middle" x="55.28" y="-321.07" font-family="Times,serif" font-size="20.00">0.0</text>
</g>
<!-- SG_0_Node_5&#45;&gt;SG_0_Node_14 -->
<g id="edge15" class="edge">
<title>SG_0_Node_5&#45;&gt;SG_0_Node_14</title>
<path fill="none" stroke="black" d="M135.5,-542.94C128.71,-541.02 121.83,-539.09 115.28,-537.28 85.56,-529.06 67.04,-543.75 48.28,-519.28 12.04,-472.01 29.7,-397.29 43.75,-356.32"/>
<polygon fill="black" stroke="black" points="47.12,-357.27 47.2,-346.67 40.53,-354.91 47.12,-357.27"/>
<text text-anchor="middle" x="272.78" y="-448.28" font-family="Times,serif" font-size="20.00">firefox Ubuntu 22.04 119 selenium headless</text>
<text text-anchor="middle" x="272.78" y="-426.28" font-family="Times,serif" font-size="20.00">firefox Ubuntu 22.04 119 selenium xvfb</text>
</g>
<!-- SG_0_Node_7 -->
<g id="node13" class="node">
<title>SG_0_Node_7</title>
<polygon fill="none" stroke="black" points="585.28,-344.07 453.28,-344.07 453.28,-308.07 585.28,-308.07 585.28,-344.07"/>
<text text-anchor="middle" x="519.28" y="-321.07" font-family="Times,serif" font-size="20.00">resp_origin</text>
</g>
<!-- SG_0_Node_5&#45;&gt;SG_0_Node_7 -->
<g id="edge16" class="edge">
<title>SG_0_Node_5&#45;&gt;SG_0_Node_7</title>
<path fill="none" stroke="black" d="M236.98,-554.66C320.42,-549.5 479.3,-537.41 497.28,-519.28 540.69,-475.51 533.17,-395.71 525.43,-354.04"/>
<polygon fill="black" stroke="black" points="528.83,-353.19 523.43,-344.07 521.96,-354.56 528.83,-353.19"/>
<text text-anchor="middle" x="890.78" y="-503.28" font-family="Times,serif" font-size="20.00">[NA]</text>
<text text-anchor="middle" x="890.78" y="-481.28" font-family="Times,serif" font-size="20.00">brave Ubuntu 22.04 1.60.114 (119.0.6045.124) selenium headless&#45;new</text>
<text text-anchor="middle" x="890.78" y="-459.28" font-family="Times,serif" font-size="20.00">brave Ubuntu 22.04 1.60.114 (119.0.6045.124) selenium xvfb</text>
<text text-anchor="middle" x="890.78" y="-437.28" font-family="Times,serif" font-size="20.00">chrome Ubuntu 22.04 119 selenium headless&#45;new</text>
<text text-anchor="middle" x="890.78" y="-415.28" font-family="Times,serif" font-size="20.00">chrome Ubuntu 22.04 119 selenium xvfb</text>
<text text-anchor="middle" x="890.78" y="-393.28" font-family="Times,serif" font-size="20.00">edge Ubuntu 22.04 119 selenium headless&#45;new</text>
<text text-anchor="middle" x="890.78" y="-371.28" font-family="Times,serif" font-size="20.00">edge Ubuntu 22.04 119 selenium xvfb</text>
</g>
<!-- SG_0_Node_15 -->
<g id="node14" class="node">
<title>SG_0_Node_15</title>
<ellipse fill="none" stroke="black" cx="1261.28" cy="-326.07" rx="33.88" ry="21.43"/>
<text text-anchor="middle" x="1261.28" y="-321.07" font-family="Times,serif" font-size="20.00">0.0</text>
</g>
<!-- SG_0_Node_6&#45;&gt;SG_0_Node_15 -->
<g id="edge9" class="edge">
<title>SG_0_Node_6&#45;&gt;SG_0_Node_15</title>
<path fill="none" stroke="black" d="M1261.28,-540.17C1261.28,-501.27 1261.28,-406.52 1261.28,-357.53"/>
<polygon fill="black" stroke="black" points="1264.78,-357.52 1261.28,-347.52 1257.78,-357.52 1264.78,-357.52"/>
<text text-anchor="middle" x="1468.78" y="-470.28" font-family="Times,serif" font-size="20.00">[NA]</text>
<text text-anchor="middle" x="1468.78" y="-448.28" font-family="Times,serif" font-size="20.00">https://headers.webappsec.eu</text>
<text text-anchor="middle" x="1468.78" y="-426.28" font-family="Times,serif" font-size="20.00">https://headers.websec.saarland</text>
<text text-anchor="middle" x="1468.78" y="-404.28" font-family="Times,serif" font-size="20.00">https://sub.sub.headers.websec.saarland</text>
</g>
<!-- SG_0_Node_8 -->
<g id="node15" class="node">
<title>SG_0_Node_8</title>
<polygon fill="none" stroke="black" points="1760.28,-344.07 1638.28,-344.07 1638.28,-308.07 1760.28,-308.07 1760.28,-344.07"/>
<text text-anchor="middle" x="1699.28" y="-321.07" font-family="Times,serif" font-size="20.00">org_origin</text>
</g>
<!-- SG_0_Node_6&#45;&gt;SG_0_Node_8 -->
<g id="edge10" class="edge">
<title>SG_0_Node_6&#45;&gt;SG_0_Node_8</title>
<path fill="none" stroke="black" d="M1327.37,-549.05C1359.33,-545.14 1398.26,-540.63 1433.28,-537.28 1460.34,-534.69 1657.68,-538.11 1677.28,-519.28 1721.74,-476.58 1713.76,-396.32 1705.68,-354.29"/>
<polygon fill="black" stroke="black" points="1709.05,-353.32 1703.6,-344.24 1702.2,-354.74 1709.05,-353.32"/>
<text text-anchor="middle" x="1897.78" y="-437.28" font-family="Times,serif" font-size="20.00">https://sub.headers.websec.saarland</text>
</g>
<!-- SG_0_Node_9 -->
<g id="node16" class="node">
<title>SG_0_Node_9</title>
<polygon fill="none" stroke="black" points="444.28,-177.64 322.28,-177.64 322.28,-141.64 444.28,-141.64 444.28,-177.64"/>
<text text-anchor="middle" x="383.28" y="-154.64" font-family="Times,serif" font-size="20.00">org_origin</text>
</g>
<!-- SG_0_Node_7&#45;&gt;SG_0_Node_9 -->
<g id="edge17" class="edge">
<title>SG_0_Node_7&#45;&gt;SG_0_Node_9</title>
<path fill="none" stroke="black" d="M452.96,-314.01C423.36,-307.6 393.14,-298.47 384.28,-286.85 362.72,-258.58 368.09,-215.44 374.91,-187.64"/>
<polygon fill="black" stroke="black" points="378.34,-188.36 377.55,-177.8 371.58,-186.55 378.34,-188.36"/>
<text text-anchor="middle" x="570.78" y="-237.85" font-family="Times,serif" font-size="20.00">https://sub.headers.websec.saarland</text>
</g>
<!-- SG_0_Node_16 -->
<g id="node17" class="node">
<title>SG_0_Node_16</title>
<ellipse fill="none" stroke="black" cx="779.28" cy="-159.64" rx="33.88" ry="21.43"/>
<text text-anchor="middle" x="779.28" y="-154.64" font-family="Times,serif" font-size="20.00">1.0</text>
</g>
<!-- SG_0_Node_7&#45;&gt;SG_0_Node_16 -->
<g id="edge18" class="edge">
<title>SG_0_Node_7&#45;&gt;SG_0_Node_16</title>
<path fill="none" stroke="black" d="M585.4,-322.85C647.25,-319.33 733.56,-310.26 757.28,-286.85 782.27,-262.2 784.81,-219.97 783.08,-191.2"/>
<polygon fill="black" stroke="black" points="786.54,-190.59 782.25,-180.91 779.57,-191.16 786.54,-190.59"/>
<text text-anchor="middle" x="990.78" y="-270.85" font-family="Times,serif" font-size="20.00">[NA]</text>
<text text-anchor="middle" x="990.78" y="-248.85" font-family="Times,serif" font-size="20.00">https://headers.webappsec.eu</text>
<text text-anchor="middle" x="990.78" y="-226.85" font-family="Times,serif" font-size="20.00">https://headers.websec.saarland</text>
<text text-anchor="middle" x="990.78" y="-204.85" font-family="Times,serif" font-size="20.00">https://sub.sub.headers.websec.saarland</text>
</g>
<!-- SG_0_Node_17 -->
<g id="node18" class="node">
<title>SG_0_Node_17</title>
<ellipse fill="none" stroke="black" cx="1506.28" cy="-159.64" rx="33.88" ry="21.43"/>
<text text-anchor="middle" x="1506.28" y="-154.64" font-family="Times,serif" font-size="20.00">0.0</text>
</g>
<!-- SG_0_Node_8&#45;&gt;SG_0_Node_17 -->
<g id="edge11" class="edge">
<title>SG_0_Node_8&#45;&gt;SG_0_Node_17</title>
<path fill="none" stroke="black" d="M1638.12,-321.12C1588.35,-316.5 1523.75,-306.76 1507.28,-286.85 1485.26,-260.24 1489.98,-218.54 1496.86,-190.43"/>
<polygon fill="black" stroke="black" points="1500.25,-191.31 1499.45,-180.74 1493.49,-189.5 1500.25,-191.31"/>
<text text-anchor="middle" x="1688.78" y="-248.85" font-family="Times,serif" font-size="20.00">[NA]</text>
<text text-anchor="middle" x="1688.78" y="-226.85" font-family="Times,serif" font-size="20.00">http://sub.headers.websec.saarland</text>
</g>
<!-- SG_0_Node_18 -->
<g id="node19" class="node">
<title>SG_0_Node_18</title>
<ellipse fill="none" stroke="black" cx="1892.28" cy="-159.64" rx="33.88" ry="21.43"/>
<text text-anchor="middle" x="1892.28" y="-154.64" font-family="Times,serif" font-size="20.00">1.0</text>
</g>
<!-- SG_0_Node_8&#45;&gt;SG_0_Node_18 -->
<g id="edge12" class="edge">
<title>SG_0_Node_8&#45;&gt;SG_0_Node_18</title>
<path fill="none" stroke="black" d="M1760.6,-318.56C1803.31,-312.74 1855.22,-302.65 1870.28,-286.85 1894.38,-261.59 1897.2,-219.86 1895.77,-191.36"/>
<polygon fill="black" stroke="black" points="1899.24,-190.87 1895.05,-181.14 1892.26,-191.36 1899.24,-190.87"/>
<text text-anchor="middle" x="2081.78" y="-237.85" font-family="Times,serif" font-size="20.00">https://sub.headers.websec.saarland</text>
</g>
<!-- SG_0_Node_19 -->
<g id="node20" class="node">
<title>SG_0_Node_19</title>
<ellipse fill="none" stroke="black" cx="151.28" cy="-37.21" rx="33.88" ry="21.43"/>
<text text-anchor="middle" x="151.28" y="-32.21" font-family="Times,serif" font-size="20.00">0.0</text>
</g>
<!-- SG_0_Node_9&#45;&gt;SG_0_Node_19 -->
<g id="edge19" class="edge">
<title>SG_0_Node_9&#45;&gt;SG_0_Node_19</title>
<path fill="none" stroke="black" d="M322.27,-157.37C260.23,-154.64 170.21,-146.21 148.28,-120.43 136.25,-106.28 137.21,-85.3 141.08,-68.07"/>
<polygon fill="black" stroke="black" points="144.59,-68.49 143.76,-57.93 137.82,-66.7 144.59,-68.49"/>
<text text-anchor="middle" x="334.78" y="-104.43" font-family="Times,serif" font-size="20.00">[NA]</text>
<text text-anchor="middle" x="334.78" y="-82.43" font-family="Times,serif" font-size="20.00">https://sub.headers.websec.saarland</text>
</g>
<!-- SG_0_Node_20 -->
<g id="node21" class="node">
<title>SG_0_Node_20</title>
<ellipse fill="none" stroke="black" cx="547.28" cy="-37.21" rx="33.88" ry="21.43"/>
<text text-anchor="middle" x="547.28" y="-32.21" font-family="Times,serif" font-size="20.00">1.0</text>
</g>
<!-- SG_0_Node_9&#45;&gt;SG_0_Node_20 -->
<g id="edge20" class="edge">
<title>SG_0_Node_9&#45;&gt;SG_0_Node_20</title>
<path fill="none" stroke="black" d="M444.39,-155.83C472.43,-151.44 504.08,-141.65 525.28,-120.43 538.77,-106.92 544.25,-86.11 546.36,-68.8"/>
<polygon fill="black" stroke="black" points="549.87,-68.86 547.29,-58.58 542.9,-68.22 549.87,-68.86"/>
<text text-anchor="middle" x="725.78" y="-93.43" font-family="Times,serif" font-size="20.00">http://sub.headers.websec.saarland</text>
</g>
<!-- SG_1_Node_0 -->
<g id="node22" class="node">
<title>SG_1_Node_0</title>
<polygon fill="none" stroke="black" points="3235.78,-1248.56 3134.78,-1248.56 3134.78,-1212.56 3235.78,-1212.56 3235.78,-1248.56"/>
<text text-anchor="middle" x="3185.28" y="-1225.56" font-family="Times,serif" font-size="20.00">browser</text>
</g>
<!-- SG_1_Node_1 -->
<g id="node23" class="node">
<title>SG_1_Node_1</title>
<polygon fill="none" stroke="black" points="2889.78,-975.35 2752.78,-975.35 2752.78,-939.35 2889.78,-939.35 2889.78,-975.35"/>
<text text-anchor="middle" x="2821.28" y="-952.35" font-family="Times,serif" font-size="20.00">raw_header</text>
</g>
<!-- SG_1_Node_0&#45;&gt;SG_1_Node_1 -->
<g id="edge21" class="edge">
<title>SG_1_Node_0&#45;&gt;SG_1_Node_1</title>
<path fill="none" stroke="black" d="M3134.63,-1228.36C3039.75,-1225.6 2842.92,-1217.19 2822.28,-1194.56 2769.52,-1136.71 2794.9,-1033.77 2811.21,-985.17"/>
<polygon fill="black" stroke="black" points="2814.54,-986.25 2814.52,-975.65 2807.93,-983.95 2814.54,-986.25"/>
<text text-anchor="middle" x="3175.28" y="-1123.56" font-family="Times,serif" font-size="20.00">brave Ubuntu 22.04 1.59.120 (118.0.5993.88) selenium headless&#45;new</text>
<text text-anchor="middle" x="3175.28" y="-1101.56" font-family="Times,serif" font-size="20.00">brave Ubuntu 22.04 1.59.120 (118.0.5993.88) selenium xvfb</text>
<text text-anchor="middle" x="3175.28" y="-1079.56" font-family="Times,serif" font-size="20.00">firefox Ubuntu 22.04 119 selenium headless</text>
<text text-anchor="middle" x="3175.28" y="-1057.56" font-family="Times,serif" font-size="20.00">firefox Ubuntu 22.04 119 selenium xvfb</text>
</g>
<!-- SG_1_Node_2 -->
<g id="node24" class="node">
<title>SG_1_Node_2</title>
<polygon fill="none" stroke="black" points="3616.28,-975.35 3484.28,-975.35 3484.28,-939.35 3616.28,-939.35 3616.28,-975.35"/>
<text text-anchor="middle" x="3550.28" y="-952.35" font-family="Times,serif" font-size="20.00">resp_origin</text>
</g>
<!-- SG_1_Node_0&#45;&gt;SG_1_Node_2 -->
<g id="edge22" class="edge">
<title>SG_1_Node_0&#45;&gt;SG_1_Node_2</title>
<path fill="none" stroke="black" d="M3235.79,-1227.89C3326.18,-1224.4 3508.11,-1214.91 3528.28,-1194.56 3583.66,-1138.69 3568.65,-1034.71 3557.46,-985.5"/>
<polygon fill="black" stroke="black" points="3560.82,-984.5 3555.09,-975.59 3554.01,-986.13 3560.82,-984.5"/>
<text text-anchor="middle" x="3926.78" y="-1156.56" font-family="Times,serif" font-size="20.00">[NA]</text>
<text text-anchor="middle" x="3926.78" y="-1134.56" font-family="Times,serif" font-size="20.00">brave Ubuntu 22.04 1.60.114 (119.0.6045.124) selenium headless&#45;new</text>
<text text-anchor="middle" x="3926.78" y="-1112.56" font-family="Times,serif" font-size="20.00">brave Ubuntu 22.04 1.60.114 (119.0.6045.124) selenium xvfb</text>
<text text-anchor="middle" x="3926.78" y="-1090.56" font-family="Times,serif" font-size="20.00">chrome Ubuntu 22.04 119 selenium headless&#45;new</text>
<text text-anchor="middle" x="3926.78" y="-1068.56" font-family="Times,serif" font-size="20.00">chrome Ubuntu 22.04 119 selenium xvfb</text>
<text text-anchor="middle" x="3926.78" y="-1046.56" font-family="Times,serif" font-size="20.00">edge Ubuntu 22.04 119 selenium headless&#45;new</text>
<text text-anchor="middle" x="3926.78" y="-1024.56" font-family="Times,serif" font-size="20.00">edge Ubuntu 22.04 119 selenium xvfb</text>
</g>
<!-- SG_1_Node_10 -->
<g id="node25" class="node">
<title>SG_1_Node_10</title>
<ellipse fill="none" stroke="black" cx="2790.28" cy="-680.92" rx="33.88" ry="21.43"/>
<text text-anchor="middle" x="2790.28" y="-675.92" font-family="Times,serif" font-size="20.00">0.0</text>
</g>
<!-- SG_1_Node_1&#45;&gt;SG_1_Node_10 -->
<g id="edge31" class="edge">
<title>SG_1_Node_1&#45;&gt;SG_1_Node_10</title>
<path fill="none" stroke="black" d="M2803.89,-939.18C2798.83,-933.06 2793.94,-925.78 2791.28,-918.13 2766.77,-847.7 2776.58,-758.15 2784.31,-712.17"/>
<polygon fill="black" stroke="black" points="2787.77,-712.71 2786.07,-702.25 2780.88,-711.49 2787.77,-712.71"/>
<text text-anchor="middle" x="2836.78" y="-825.13" font-family="Times,serif" font-size="20.00">[NA]</text>
<text text-anchor="middle" x="2836.78" y="-803.13" font-family="Times,serif" font-size="20.00">11 levels</text>
</g>
<!-- SG_1_Node_3 -->
<g id="node26" class="node">
<title>SG_1_Node_3</title>
<polygon fill="none" stroke="black" points="2954.78,-698.92 2853.78,-698.92 2853.78,-662.92 2954.78,-662.92 2954.78,-698.92"/>
<text text-anchor="middle" x="2904.28" y="-675.92" font-family="Times,serif" font-size="20.00">browser</text>
</g>
<!-- SG_1_Node_1&#45;&gt;SG_1_Node_3 -->
<g id="edge32" class="edge">
<title>SG_1_Node_1&#45;&gt;SG_1_Node_3</title>
<path fill="none" stroke="black" d="M2860.38,-939.27C2868.92,-933.74 2876.97,-926.75 2882.28,-918.13 2922.96,-852.09 2915.69,-755.38 2909.01,-708.86"/>
<polygon fill="black" stroke="black" points="2912.46,-708.3 2907.48,-698.95 2905.54,-709.36 2912.46,-708.3"/>
<text text-anchor="middle" x="3058.28" y="-814.13" font-family="Times,serif" font-size="20.00">[[&#39;origin&#45;agent&#45;cluster&#39;, &#39;?1&#39;]]</text>
</g>
<!-- SG_1_Node_11 -->
<g id="node27" class="node">
<title>SG_1_Node_11</title>
<ellipse fill="none" stroke="black" cx="3544.28" cy="-680.92" rx="33.88" ry="21.43"/>
<text text-anchor="middle" x="3544.28" y="-675.92" font-family="Times,serif" font-size="20.00">0.0</text>
</g>
<!-- SG_1_Node_2&#45;&gt;SG_1_Node_11 -->
<g id="edge23" class="edge">
<title>SG_1_Node_2&#45;&gt;SG_1_Node_11</title>
<path fill="none" stroke="black" d="M3547.58,-939.27C3546.66,-932.68 3545.75,-925.07 3545.28,-918.13 3540.32,-844.42 3541.85,-757.48 3543.19,-712.43"/>
<polygon fill="black" stroke="black" points="3546.69,-712.28 3543.51,-702.17 3539.7,-712.06 3546.69,-712.28"/>
<text text-anchor="middle" x="3747.78" y="-847.13" font-family="Times,serif" font-size="20.00">http://headers.webappsec.eu</text>
<text text-anchor="middle" x="3747.78" y="-825.13" font-family="Times,serif" font-size="20.00">http://headers.websec.saarland</text>
<text text-anchor="middle" x="3747.78" y="-803.13" font-family="Times,serif" font-size="20.00">http://sub.headers.websec.saarland</text>
<text text-anchor="middle" x="3747.78" y="-781.13" font-family="Times,serif" font-size="20.00">http://sub.sub.headers.websec.saarland</text>
</g>
<!-- SG_1_Node_4 -->
<g id="node28" class="node">
<title>SG_1_Node_4</title>
<polygon fill="none" stroke="black" points="4040.78,-698.92 3903.78,-698.92 3903.78,-662.92 4040.78,-662.92 4040.78,-698.92"/>
<text text-anchor="middle" x="3972.28" y="-675.92" font-family="Times,serif" font-size="20.00">raw_header</text>
</g>
<!-- SG_1_Node_2&#45;&gt;SG_1_Node_4 -->
<g id="edge24" class="edge">
<title>SG_1_Node_2&#45;&gt;SG_1_Node_4</title>
<path fill="none" stroke="black" d="M3616.34,-954.56C3723.89,-950.99 3927.22,-941.25 3950.28,-918.13 4005.84,-862.44 3990.74,-758.38 3979.49,-709.11"/>
<polygon fill="black" stroke="black" points="3982.85,-708.1 3977.11,-699.19 3976.04,-709.73 3982.85,-708.1"/>
<text text-anchor="middle" x="4196.78" y="-858.13" font-family="Times,serif" font-size="20.00">[NA]</text>
<text text-anchor="middle" x="4196.78" y="-836.13" font-family="Times,serif" font-size="20.00">https://headers.webappsec.eu</text>
<text text-anchor="middle" x="4196.78" y="-814.13" font-family="Times,serif" font-size="20.00">https://headers.websec.saarland</text>
<text text-anchor="middle" x="4196.78" y="-792.13" font-family="Times,serif" font-size="20.00">https://sub.headers.websec.saarland</text>
<text text-anchor="middle" x="4196.78" y="-770.13" font-family="Times,serif" font-size="20.00">https://sub.sub.headers.websec.saarland</text>
</g>
<!-- SG_1_Node_12 -->
<g id="node29" class="node">
<title>SG_1_Node_12</title>
<ellipse fill="none" stroke="black" cx="2759.28" cy="-558.49" rx="33.88" ry="21.43"/>
<text text-anchor="middle" x="2759.28" y="-553.49" font-family="Times,serif" font-size="20.00">0.0</text>
</g>
<!-- SG_1_Node_3&#45;&gt;SG_1_Node_12 -->
<g id="edge33" class="edge">
<title>SG_1_Node_3&#45;&gt;SG_1_Node_12</title>
<path fill="none" stroke="black" d="M2853.57,-665.09C2846.77,-663.22 2839.87,-661.37 2833.28,-659.71 2797.53,-650.65 2775.36,-670.47 2752.28,-641.71 2740.59,-627.13 2742.63,-606.07 2747.44,-588.92"/>
<polygon fill="black" stroke="black" points="2750.79,-589.94 2750.51,-579.35 2744.12,-587.8 2750.79,-589.94"/>
<text text-anchor="middle" x="2976.78" y="-625.71" font-family="Times,serif" font-size="20.00">firefox Ubuntu 22.04 119 selenium headless</text>
<text text-anchor="middle" x="2976.78" y="-603.71" font-family="Times,serif" font-size="20.00">firefox Ubuntu 22.04 119 selenium xvfb</text>
</g>
<!-- SG_1_Node_5 -->
<g id="node30" class="node">
<title>SG_1_Node_5</title>
<polygon fill="none" stroke="black" points="3237.28,-576.49 3105.28,-576.49 3105.28,-540.49 3237.28,-540.49 3237.28,-576.49"/>
<text text-anchor="middle" x="3171.28" y="-553.49" font-family="Times,serif" font-size="20.00">resp_origin</text>
</g>
<!-- SG_1_Node_3&#45;&gt;SG_1_Node_5 -->
<g id="edge34" class="edge">
<title>SG_1_Node_3&#45;&gt;SG_1_Node_5</title>
<path fill="none" stroke="black" d="M2954.85,-677C3035.36,-671.84 3185.29,-659.88 3201.28,-641.71 3214.2,-627.02 3207.67,-616.19 3201.28,-597.71 3199.75,-593.28 3197.48,-588.98 3194.85,-584.95"/>
<polygon fill="black" stroke="black" points="3197.46,-582.6 3188.69,-576.65 3191.83,-586.76 3197.46,-582.6"/>
<text text-anchor="middle" x="3561.28" y="-625.71" font-family="Times,serif" font-size="20.00">brave Ubuntu 22.04 1.59.120 (118.0.5993.88) selenium headless&#45;new</text>
<text text-anchor="middle" x="3561.28" y="-603.71" font-family="Times,serif" font-size="20.00">brave Ubuntu 22.04 1.59.120 (118.0.5993.88) selenium xvfb</text>
</g>
<!-- SG_1_Node_6 -->
<g id="node31" class="node">
<title>SG_1_Node_6</title>
<polygon fill="none" stroke="black" points="4031.28,-576.49 3899.28,-576.49 3899.28,-540.49 4031.28,-540.49 4031.28,-576.49"/>
<text text-anchor="middle" x="3965.28" y="-553.49" font-family="Times,serif" font-size="20.00">resp_origin</text>
</g>
<!-- SG_1_Node_4&#45;&gt;SG_1_Node_6 -->
<g id="edge25" class="edge">
<title>SG_1_Node_4&#45;&gt;SG_1_Node_6</title>
<path fill="none" stroke="black" d="M3969.07,-662.86C3967.97,-656.28 3966.87,-648.67 3966.28,-641.71 3964.74,-623.45 3964.5,-602.83 3964.63,-586.8"/>
<polygon fill="black" stroke="black" points="3968.14,-586.58 3964.78,-576.53 3961.14,-586.48 3968.14,-586.58"/>
<text text-anchor="middle" x="4111.28" y="-614.71" font-family="Times,serif" font-size="20.00">[[&#39;origin&#45;agent&#45;cluster&#39;, &#39;?0&#39;]]</text>
</g>
<!-- SG_1_Node_13 -->
<g id="node32" class="node">
<title>SG_1_Node_13</title>
<ellipse fill="none" stroke="black" cx="4278.28" cy="-558.49" rx="33.88" ry="21.43"/>
<text text-anchor="middle" x="4278.28" y="-553.49" font-family="Times,serif" font-size="20.00">1.0</text>
</g>
<!-- SG_1_Node_4&#45;&gt;SG_1_Node_13 -->
<g id="edge26" class="edge">
<title>SG_1_Node_4&#45;&gt;SG_1_Node_13</title>
<path fill="none" stroke="black" d="M4041.08,-679.19C4114.74,-676.98 4225.23,-669.02 4256.28,-641.71 4270.7,-629.02 4276.15,-608.01 4278.02,-590.41"/>
<polygon fill="black" stroke="black" points="4281.54,-590.22 4278.77,-579.99 4274.56,-589.72 4281.54,-590.22"/>
<text text-anchor="middle" x="4321.78" y="-625.71" font-family="Times,serif" font-size="20.00">[NA]</text>
<text text-anchor="middle" x="4321.78" y="-603.71" font-family="Times,serif" font-size="20.00">11 levels</text>
</g>
<!-- SG_1_Node_14 -->
<g id="node33" class="node">
<title>SG_1_Node_14</title>
<ellipse fill="none" stroke="black" cx="2759.28" cy="-326.07" rx="33.88" ry="21.43"/>
<text text-anchor="middle" x="2759.28" y="-321.07" font-family="Times,serif" font-size="20.00">0.0</text>
</g>
<!-- SG_1_Node_5&#45;&gt;SG_1_Node_14 -->
<g id="edge35" class="edge">
<title>SG_1_Node_5&#45;&gt;SG_1_Node_14</title>
<path fill="none" stroke="black" d="M3104.86,-556.04C2994.95,-552.96 2785.05,-543.88 2762.28,-519.28 2721.66,-475.38 2736.44,-398.74 2748.97,-356.72"/>
<polygon fill="black" stroke="black" points="2752.34,-357.65 2751.99,-347.07 2745.66,-355.56 2752.34,-357.65"/>
<text text-anchor="middle" x="2964.78" y="-470.28" font-family="Times,serif" font-size="20.00">http://headers.webappsec.eu</text>
<text text-anchor="middle" x="2964.78" y="-448.28" font-family="Times,serif" font-size="20.00">http://headers.websec.saarland</text>
<text text-anchor="middle" x="2964.78" y="-426.28" font-family="Times,serif" font-size="20.00">http://sub.headers.websec.saarland</text>
<text text-anchor="middle" x="2964.78" y="-404.28" font-family="Times,serif" font-size="20.00">http://sub.sub.headers.websec.saarland</text>
</g>
<!-- SG_1_Node_7 -->
<g id="node34" class="node">
<title>SG_1_Node_7</title>
<polygon fill="none" stroke="black" points="3237.28,-344.07 3105.28,-344.07 3105.28,-308.07 3237.28,-308.07 3237.28,-344.07"/>
<text text-anchor="middle" x="3171.28" y="-321.07" font-family="Times,serif" font-size="20.00">resp_origin</text>
</g>
<!-- SG_1_Node_5&#45;&gt;SG_1_Node_7 -->
<g id="edge36" class="edge">
<title>SG_1_Node_5&#45;&gt;SG_1_Node_7</title>
<path fill="none" stroke="black" d="M3171.28,-540.17C3171.28,-500.46 3171.28,-402.56 3171.28,-354.54"/>
<polygon fill="black" stroke="black" points="3174.78,-354.27 3171.28,-344.27 3167.78,-354.27 3174.78,-354.27"/>
<text text-anchor="middle" x="3378.78" y="-481.28" font-family="Times,serif" font-size="20.00">[NA]</text>
<text text-anchor="middle" x="3378.78" y="-459.28" font-family="Times,serif" font-size="20.00">https://headers.webappsec.eu</text>
<text text-anchor="middle" x="3378.78" y="-437.28" font-family="Times,serif" font-size="20.00">https://headers.websec.saarland</text>
<text text-anchor="middle" x="3378.78" y="-415.28" font-family="Times,serif" font-size="20.00">https://sub.headers.websec.saarland</text>
<text text-anchor="middle" x="3378.78" y="-393.28" font-family="Times,serif" font-size="20.00">https://sub.sub.headers.websec.saarland</text>
</g>
<!-- SG_1_Node_15 -->
<g id="node35" class="node">
<title>SG_1_Node_15</title>
<ellipse fill="none" stroke="black" cx="3609.28" cy="-326.07" rx="33.88" ry="21.43"/>
<text text-anchor="middle" x="3609.28" y="-321.07" font-family="Times,serif" font-size="20.00">0.0</text>
</g>
<!-- SG_1_Node_6&#45;&gt;SG_1_Node_15 -->
<g id="edge27" class="edge">
<title>SG_1_Node_6&#45;&gt;SG_1_Node_15</title>
<path fill="none" stroke="black" d="M3899.03,-555.14C3800.67,-550.97 3625.45,-540.6 3606.28,-519.28 3585.59,-496.27 3596.45,-405.71 3604.01,-357.55"/>
<polygon fill="black" stroke="black" points="3607.51,-357.83 3605.65,-347.4 3600.6,-356.72 3607.51,-357.83"/>
<text text-anchor="middle" x="3813.78" y="-470.28" font-family="Times,serif" font-size="20.00">[NA]</text>
<text text-anchor="middle" x="3813.78" y="-448.28" font-family="Times,serif" font-size="20.00">https://headers.webappsec.eu</text>
<text text-anchor="middle" x="3813.78" y="-426.28" font-family="Times,serif" font-size="20.00">https://headers.websec.saarland</text>
<text text-anchor="middle" x="3813.78" y="-404.28" font-family="Times,serif" font-size="20.00">https://sub.sub.headers.websec.saarland</text>
</g>
<!-- SG_1_Node_8 -->
<g id="node36" class="node">
<title>SG_1_Node_8</title>
<polygon fill="none" stroke="black" points="4108.28,-344.07 3986.28,-344.07 3986.28,-308.07 4108.28,-308.07 4108.28,-344.07"/>
<text text-anchor="middle" x="4047.28" y="-321.07" font-family="Times,serif" font-size="20.00">org_origin</text>
</g>
<!-- SG_1_Node_6&#45;&gt;SG_1_Node_8 -->
<g id="edge28" class="edge">
<title>SG_1_Node_6&#45;&gt;SG_1_Node_8</title>
<path fill="none" stroke="black" d="M4003.32,-540.43C4011.83,-534.87 4019.91,-527.87 4025.28,-519.28 4057.34,-468.02 4055.19,-393.82 4051.09,-354.28"/>
<polygon fill="black" stroke="black" points="4054.57,-353.85 4049.94,-344.32 4047.61,-354.66 4054.57,-353.85"/>
<text text-anchor="middle" x="4239.78" y="-437.28" font-family="Times,serif" font-size="20.00">https://sub.headers.websec.saarland</text>
</g>
<!-- SG_1_Node_9 -->
<g id="node37" class="node">
<title>SG_1_Node_9</title>
<polygon fill="none" stroke="black" points="2867.28,-177.64 2745.28,-177.64 2745.28,-141.64 2867.28,-141.64 2867.28,-177.64"/>
<text text-anchor="middle" x="2806.28" y="-154.64" font-family="Times,serif" font-size="20.00">org_origin</text>
</g>
<!-- SG_1_Node_7&#45;&gt;SG_1_Node_9 -->
<g id="edge37" class="edge">
<title>SG_1_Node_7&#45;&gt;SG_1_Node_9</title>
<path fill="none" stroke="black" d="M3105.02,-322.91C3004.52,-318.94 2823.07,-308.8 2803.28,-286.85 2779.23,-260.18 2787.2,-215.93 2796.05,-187.55"/>
<polygon fill="black" stroke="black" points="2799.44,-188.46 2799.29,-177.87 2792.8,-186.24 2799.44,-188.46"/>
<text text-anchor="middle" x="2989.78" y="-237.85" font-family="Times,serif" font-size="20.00">https://sub.headers.websec.saarland</text>
</g>
<!-- SG_1_Node_16 -->
<g id="node38" class="node">
<title>SG_1_Node_16</title>
<ellipse fill="none" stroke="black" cx="3202.28" cy="-159.64" rx="33.88" ry="21.43"/>
<text text-anchor="middle" x="3202.28" y="-154.64" font-family="Times,serif" font-size="20.00">1.0</text>
</g>
<!-- SG_1_Node_7&#45;&gt;SG_1_Node_16 -->
<g id="edge38" class="edge">
<title>SG_1_Node_7&#45;&gt;SG_1_Node_16</title>
<path fill="none" stroke="black" d="M3175.53,-307.99C3177.11,-301.41 3178.86,-293.8 3180.28,-286.85 3186.96,-254.25 3193.34,-216.64 3197.5,-191.02"/>
<polygon fill="black" stroke="black" points="3201.01,-191.25 3199.14,-180.82 3194.1,-190.14 3201.01,-191.25"/>
<text text-anchor="middle" x="3402.78" y="-270.85" font-family="Times,serif" font-size="20.00">[NA]</text>
<text text-anchor="middle" x="3402.78" y="-248.85" font-family="Times,serif" font-size="20.00">https://headers.webappsec.eu</text>
<text text-anchor="middle" x="3402.78" y="-226.85" font-family="Times,serif" font-size="20.00">https://headers.websec.saarland</text>
<text text-anchor="middle" x="3402.78" y="-204.85" font-family="Times,serif" font-size="20.00">https://sub.sub.headers.websec.saarland</text>
</g>
<!-- SG_1_Node_17 -->
<g id="node39" class="node">
<title>SG_1_Node_17</title>
<ellipse fill="none" stroke="black" cx="3661.28" cy="-159.64" rx="33.88" ry="21.43"/>
<text text-anchor="middle" x="3661.28" y="-154.64" font-family="Times,serif" font-size="20.00">0.0</text>
</g>
<!-- SG_1_Node_8&#45;&gt;SG_1_Node_17 -->
<g id="edge29" class="edge">
<title>SG_1_Node_8&#45;&gt;SG_1_Node_17</title>
<path fill="none" stroke="black" d="M3985.99,-322.73C3887.28,-318.37 3701.91,-307.51 3680.28,-286.85 3654.88,-262.59 3653.65,-219.97 3656.4,-191.04"/>
<polygon fill="black" stroke="black" points="3659.88,-191.4 3657.56,-181.06 3652.93,-190.59 3659.88,-191.4"/>
<text text-anchor="middle" x="3861.78" y="-237.85" font-family="Times,serif" font-size="20.00">http://sub.headers.websec.saarland</text>
</g>
<!-- SG_1_Node_18 -->
<g id="node40" class="node">
<title>SG_1_Node_18</title>
<ellipse fill="none" stroke="black" cx="4047.28" cy="-159.64" rx="33.88" ry="21.43"/>
<text text-anchor="middle" x="4047.28" y="-154.64" font-family="Times,serif" font-size="20.00">1.0</text>
</g>
<!-- SG_1_Node_8&#45;&gt;SG_1_Node_18 -->
<g id="edge30" class="edge">
<title>SG_1_Node_8&#45;&gt;SG_1_Node_18</title>
<path fill="none" stroke="black" d="M4047.28,-307.78C4047.28,-280.18 4047.28,-225.77 4047.28,-191.4"/>
<polygon fill="black" stroke="black" points="4050.78,-191.01 4047.28,-181.01 4043.78,-191.01 4050.78,-191.01"/>
<text text-anchor="middle" x="4233.78" y="-248.85" font-family="Times,serif" font-size="20.00">[NA]</text>
<text text-anchor="middle" x="4233.78" y="-226.85" font-family="Times,serif" font-size="20.00">https://sub.headers.websec.saarland</text>
</g>
<!-- SG_1_Node_19 -->
<g id="node41" class="node">
<title>SG_1_Node_19</title>
<ellipse fill="none" stroke="black" cx="2782.28" cy="-37.21" rx="33.88" ry="21.43"/>
<text text-anchor="middle" x="2782.28" y="-32.21" font-family="Times,serif" font-size="20.00">0.0</text>
</g>
<!-- SG_1_Node_9&#45;&gt;SG_1_Node_19 -->
<g id="edge39" class="edge">
<title>SG_1_Node_9&#45;&gt;SG_1_Node_19</title>
<path fill="none" stroke="black" d="M2793.18,-141.28C2789.21,-135.04 2785.36,-127.73 2783.28,-120.43 2778.56,-103.8 2778.08,-84.52 2778.88,-68.8"/>
<polygon fill="black" stroke="black" points="2782.39,-68.8 2779.61,-58.57 2775.41,-68.3 2782.39,-68.8"/>
<text text-anchor="middle" x="2969.78" y="-93.43" font-family="Times,serif" font-size="20.00">https://sub.headers.websec.saarland</text>
</g>
<!-- SG_1_Node_20 -->
<g id="node42" class="node">
<title>SG_1_Node_20</title>
<ellipse fill="none" stroke="black" cx="3178.28" cy="-37.21" rx="33.88" ry="21.43"/>
<text text-anchor="middle" x="3178.28" y="-32.21" font-family="Times,serif" font-size="20.00">1.0</text>
</g>
<!-- SG_1_Node_9&#45;&gt;SG_1_Node_20 -->
<g id="edge40" class="edge">
<title>SG_1_Node_9&#45;&gt;SG_1_Node_20</title>
<path fill="none" stroke="black" d="M2867.55,-155.68C2962.07,-150.56 3134.85,-138.81 3156.28,-120.43 3171.02,-107.78 3176.43,-86.44 3178.19,-68.67"/>
<polygon fill="black" stroke="black" points="3181.7,-68.66 3178.87,-58.45 3174.72,-68.2 3181.7,-68.66"/>
<text text-anchor="middle" x="3357.78" y="-104.43" font-family="Times,serif" font-size="20.00">[NA]</text>
<text text-anchor="middle" x="3357.78" y="-82.43" font-family="Times,serif" font-size="20.00">http://sub.headers.websec.saarland</text>
</g>
<!-- SG_2_Node_0 -->
<g id="node43" class="node">
<title>SG_2_Node_0</title>
<polygon fill="none" stroke="black" points="4899.78,-1248.56 4798.78,-1248.56 4798.78,-1212.56 4899.78,-1212.56 4899.78,-1248.56"/>
<text text-anchor="middle" x="4849.28" y="-1225.56" font-family="Times,serif" font-size="20.00">browser</text>
</g>
<!-- SG_2_Node_1 -->
<g id="node44" class="node">
<title>SG_2_Node_1</title>
<ellipse fill="none" stroke="black" cx="4478.28" cy="-957.35" rx="33.88" ry="21.43"/>
<text text-anchor="middle" x="4478.28" y="-952.35" font-family="Times,serif" font-size="20.00">0.0</text>
</g>
<!-- SG_2_Node_0&#45;&gt;SG_2_Node_1 -->
<g id="edge41" class="edge">
<title>SG_2_Node_0&#45;&gt;SG_2_Node_1</title>
<path fill="none" stroke="black" d="M4798.76,-1228.74C4698.43,-1226.6 4481.76,-1219.14 4459.28,-1194.56 4429.59,-1162.09 4449.22,-1039.39 4459.28,-996.56 4460.04,-993.31 4461.13,-990.03 4462.39,-986.82"/>
<polygon fill="black" stroke="black" points="4465.66,-988.08 4466.6,-977.52 4459.29,-985.19 4465.66,-988.08"/>
<text text-anchor="middle" x="4818.78" y="-1178.56" font-family="Times,serif" font-size="20.00">[NA]</text>
<text text-anchor="middle" x="4818.78" y="-1156.56" font-family="Times,serif" font-size="20.00">brave Ubuntu 22.04 1.59.120 (118.0.5993.88) selenium headless&#45;new</text>
<text text-anchor="middle" x="4818.78" y="-1134.56" font-family="Times,serif" font-size="20.00">brave Ubuntu 22.04 1.59.120 (118.0.5993.88) selenium xvfb</text>
<text text-anchor="middle" x="4818.78" y="-1112.56" font-family="Times,serif" font-size="20.00">brave Ubuntu 22.04 1.60.114 (119.0.6045.124) selenium headless&#45;new</text>
<text text-anchor="middle" x="4818.78" y="-1090.56" font-family="Times,serif" font-size="20.00">brave Ubuntu 22.04 1.60.114 (119.0.6045.124) selenium xvfb</text>
<text text-anchor="middle" x="4818.78" y="-1068.56" font-family="Times,serif" font-size="20.00">chrome Ubuntu 22.04 119 selenium headless&#45;new</text>
<text text-anchor="middle" x="4818.78" y="-1046.56" font-family="Times,serif" font-size="20.00">chrome Ubuntu 22.04 119 selenium xvfb</text>
<text text-anchor="middle" x="4818.78" y="-1024.56" font-family="Times,serif" font-size="20.00">edge Ubuntu 22.04 119 selenium headless&#45;new</text>
<text text-anchor="middle" x="4818.78" y="-1002.56" font-family="Times,serif" font-size="20.00">edge Ubuntu 22.04 119 selenium xvfb</text>
</g>
<!-- SG_2_Node_2 -->
<g id="node45" class="node">
<title>SG_2_Node_2</title>
<ellipse fill="none" stroke="black" cx="5204.28" cy="-957.35" rx="33.88" ry="21.43"/>
<text text-anchor="middle" x="5204.28" y="-952.35" font-family="Times,serif" font-size="20.00">1.0</text>
</g>
<!-- SG_2_Node_0&#45;&gt;SG_2_Node_2 -->
<g id="edge42" class="edge">
<title>SG_2_Node_0&#45;&gt;SG_2_Node_2</title>
<path fill="none" stroke="black" d="M4900.05,-1227.71C4988.38,-1223.99 5162.85,-1214.22 5182.28,-1194.56 5236.47,-1139.72 5223.18,-1038.79 5212.11,-988.49"/>
<polygon fill="black" stroke="black" points="5215.48,-987.51 5209.81,-978.56 5208.66,-989.09 5215.48,-987.51"/>
<text text-anchor="middle" x="5445.78" y="-1101.56" font-family="Times,serif" font-size="20.00">firefox Ubuntu 22.04 119 selenium headless</text>
<text text-anchor="middle" x="5445.78" y="-1079.56" font-family="Times,serif" font-size="20.00">firefox Ubuntu 22.04 119 selenium xvfb</text>
</g>
</g>
</svg>
