<?xml version="1.0" encoding="UTF-8" standalone="no"?>
<!DOCTYPE svg PUBLIC "-//W3C//DTD SVG 1.1//EN"
 "http://www.w3.org/Graphics/SVG/1.1/DTD/svg11.dtd">
<!-- Generated by graphviz version 2.43.0 (0)
 -->
<!-- Title: G Pages: 1 -->
<svg width="2483pt" height="404pt"
 viewBox="0.00 0.00 2483.00 404.43" xmlns="http://www.w3.org/2000/svg" xmlns:xlink="http://www.w3.org/1999/xlink">
<g id="graph0" class="graph" transform="scale(1 1) rotate(0) translate(4 400.43)">
<title>G</title>
<polygon fill="white" stroke="transparent" points="-4,4 -4,-400.43 2479,-400.43 2479,4 -4,4"/>
<g id="clust1" class="cluster">
<title>cluster_0</title>
<polygon fill="none" stroke="black" points="8,-8 8,-388.43 1233,-388.43 1233,-8 8,-8"/>
<text text-anchor="middle" x="620.5" y="-352.43" font-family="Times,serif" font-size="40.00">Tree 0, Class window.originAgentCluster: true</text>
</g>
<g id="clust4" class="cluster">
<title>cluster_1</title>
<polygon fill="none" stroke="black" points="1241,-8 1241,-388.43 2466,-388.43 2466,-8 1241,-8"/>
<text text-anchor="middle" x="1853.5" y="-352.43" font-family="Times,serif" font-size="40.00">Tree 0, Class window.originAgentCluster: undefined</text>
</g>
<!-- SG_0_Node_0 -->
<g id="node1" class="node">
<title>SG_0_Node_0</title>
<polygon fill="none" stroke="black" points="336.5,-328.43 235.5,-328.43 235.5,-292.43 336.5,-292.43 336.5,-328.43"/>
<text text-anchor="middle" x="286" y="-305.43" font-family="Times,serif" font-size="20.00">browser</text>
</g>
<!-- SG_0_Node_1 -->
<g id="node2" class="node">
<title>SG_0_Node_1</title>
<ellipse fill="none" stroke="black" cx="50" cy="-37.21" rx="33.88" ry="21.43"/>
<text text-anchor="middle" x="50" y="-32.21" font-family="Times,serif" font-size="20.00">0.0</text>
</g>
<!-- SG_0_Node_0&#45;&gt;SG_0_Node_1 -->
<g id="edge1" class="edge">
<title>SG_0_Node_0&#45;&gt;SG_0_Node_1</title>
<path fill="none" stroke="black" d="M235.28,-310C168.63,-309.54 56.96,-304.19 31,-274.43 -26.84,-208.11 10.88,-162.09 31,-76.43 31.76,-73.18 32.84,-69.9 34.11,-66.68"/>
<polygon fill="black" stroke="black" points="37.38,-67.94 38.32,-57.39 31,-65.06 37.38,-67.94"/>
<text text-anchor="middle" x="255.5" y="-181.43" font-family="Times,serif" font-size="20.00">firefox Ubuntu 22.04 119 selenium headless</text>
<text text-anchor="middle" x="255.5" y="-159.43" font-family="Times,serif" font-size="20.00">firefox Ubuntu 22.04 119 selenium xvfb</text>
</g>
<!-- SG_0_Node_2 -->
<g id="node3" class="node">
<title>SG_0_Node_2</title>
<ellipse fill="none" stroke="black" cx="506" cy="-37.21" rx="33.88" ry="21.43"/>
<text text-anchor="middle" x="506" y="-32.21" font-family="Times,serif" font-size="20.00">1.0</text>
</g>
<!-- SG_0_Node_0&#45;&gt;SG_0_Node_2 -->
<g id="edge2" class="edge">
<title>SG_0_Node_0&#45;&gt;SG_0_Node_2</title>
<path fill="none" stroke="black" d="M336.82,-307.27C388.8,-303.92 464.61,-295.48 484,-274.43 510.94,-245.18 509.76,-125.71 507.55,-68.73"/>
<polygon fill="black" stroke="black" points="511.04,-68.37 507.12,-58.53 504.04,-68.67 511.04,-68.37"/>
<text text-anchor="middle" x="867.5" y="-258.43" font-family="Times,serif" font-size="20.00">[NA]</text>
<text text-anchor="middle" x="867.5" y="-236.43" font-family="Times,serif" font-size="20.00">brave Ubuntu 22.04 1.59.120 (118.0.5993.88) selenium headless&#45;new</text>
<text text-anchor="middle" x="867.5" y="-214.43" font-family="Times,serif" font-size="20.00">brave Ubuntu 22.04 1.59.120 (118.0.5993.88) selenium xvfb</text>
<text text-anchor="middle" x="867.5" y="-192.43" font-family="Times,serif" font-size="20.00">brave Ubuntu 22.04 1.60.114 (119.0.6045.124) selenium headless&#45;new</text>
<text text-anchor="middle" x="867.5" y="-170.43" font-family="Times,serif" font-size="20.00">brave Ubuntu 22.04 1.60.114 (119.0.6045.124) selenium xvfb</text>
<text text-anchor="middle" x="867.5" y="-148.43" font-family="Times,serif" font-size="20.00">chrome Ubuntu 22.04 119 selenium headless&#45;new</text>
<text text-anchor="middle" x="867.5" y="-126.43" font-family="Times,serif" font-size="20.00">chrome Ubuntu 22.04 119 selenium xvfb</text>
<text text-anchor="middle" x="867.5" y="-104.43" font-family="Times,serif" font-size="20.00">edge Ubuntu 22.04 119 selenium headless&#45;new</text>
<text text-anchor="middle" x="867.5" y="-82.43" font-family="Times,serif" font-size="20.00">edge Ubuntu 22.04 119 selenium xvfb</text>
</g>
<!-- SG_1_Node_0 -->
<g id="node4" class="node">
<title>SG_1_Node_0</title>
<polygon fill="none" stroke="black" points="1704.5,-328.43 1603.5,-328.43 1603.5,-292.43 1704.5,-292.43 1704.5,-328.43"/>
<text text-anchor="middle" x="1654" y="-305.43" font-family="Times,serif" font-size="20.00">browser</text>
</g>
<!-- SG_1_Node_1 -->
<g id="node5" class="node">
<title>SG_1_Node_1</title>
<ellipse fill="none" stroke="black" cx="1283" cy="-37.21" rx="33.88" ry="21.43"/>
<text text-anchor="middle" x="1283" y="-32.21" font-family="Times,serif" font-size="20.00">0.0</text>
</g>
<!-- SG_1_Node_0&#45;&gt;SG_1_Node_1 -->
<g id="edge3" class="edge">
<title>SG_1_Node_0&#45;&gt;SG_1_Node_1</title>
<path fill="none" stroke="black" d="M1603.48,-308.61C1503.15,-306.47 1286.48,-299.01 1264,-274.43 1234.31,-241.95 1253.94,-119.26 1264,-76.43 1264.76,-73.18 1265.84,-69.9 1267.11,-66.68"/>
<polygon fill="black" stroke="black" points="1270.38,-67.94 1271.32,-57.39 1264,-65.06 1270.38,-67.94"/>
<text text-anchor="middle" x="1623.5" y="-258.43" font-family="Times,serif" font-size="20.00">[NA]</text>
<text text-anchor="middle" x="1623.5" y="-236.43" font-family="Times,serif" font-size="20.00">brave Ubuntu 22.04 1.59.120 (118.0.5993.88) selenium headless&#45;new</text>
<text text-anchor="middle" x="1623.5" y="-214.43" font-family="Times,serif" font-size="20.00">brave Ubuntu 22.04 1.59.120 (118.0.5993.88) selenium xvfb</text>
<text text-anchor="middle" x="1623.5" y="-192.43" font-family="Times,serif" font-size="20.00">brave Ubuntu 22.04 1.60.114 (119.0.6045.124) selenium headless&#45;new</text>
<text text-anchor="middle" x="1623.5" y="-170.43" font-family="Times,serif" font-size="20.00">brave Ubuntu 22.04 1.60.114 (119.0.6045.124) selenium xvfb</text>
<text text-anchor="middle" x="1623.5" y="-148.43" font-family="Times,serif" font-size="20.00">chrome Ubuntu 22.04 119 selenium headless&#45;new</text>
<text text-anchor="middle" x="1623.5" y="-126.43" font-family="Times,serif" font-size="20.00">chrome Ubuntu 22.04 119 selenium xvfb</text>
<text text-anchor="middle" x="1623.5" y="-104.43" font-family="Times,serif" font-size="20.00">edge Ubuntu 22.04 119 selenium headless&#45;new</text>
<text text-anchor="middle" x="1623.5" y="-82.43" font-family="Times,serif" font-size="20.00">edge Ubuntu 22.04 119 selenium xvfb</text>
</g>
<!-- SG_1_Node_2 -->
<g id="node6" class="node">
<title>SG_1_Node_2</title>
<ellipse fill="none" stroke="black" cx="2009" cy="-37.21" rx="33.88" ry="21.43"/>
<text text-anchor="middle" x="2009" y="-32.21" font-family="Times,serif" font-size="20.00">1.0</text>
</g>
<!-- SG_1_Node_0&#45;&gt;SG_1_Node_2 -->
<g id="edge4" class="edge">
<title>SG_1_Node_0&#45;&gt;SG_1_Node_2</title>
<path fill="none" stroke="black" d="M1704.77,-307.58C1793.1,-303.86 1967.57,-294.09 1987,-274.43 2041.19,-219.59 2027.9,-118.66 2016.83,-68.35"/>
<polygon fill="black" stroke="black" points="2020.2,-67.38 2014.53,-58.42 2013.38,-68.96 2020.2,-67.38"/>
<text text-anchor="middle" x="2250.5" y="-181.43" font-family="Times,serif" font-size="20.00">firefox Ubuntu 22.04 119 selenium headless</text>
<text text-anchor="middle" x="2250.5" y="-159.43" font-family="Times,serif" font-size="20.00">firefox Ubuntu 22.04 119 selenium xvfb</text>
</g>
</g>
</svg>
