<?xml version="1.0" encoding="UTF-8" standalone="no"?>
<!DOCTYPE svg PUBLIC "-//W3C//DTD SVG 1.1//EN"
 "http://www.w3.org/Graphics/SVG/1.1/DTD/svg11.dtd">
<!-- Generated by graphviz version 2.43.0 (0)
 -->
<!-- Title: G Pages: 1 -->
<svg width="6499pt" height="681pt"
 viewBox="0.00 0.00 6499.00 680.85" xmlns="http://www.w3.org/2000/svg" xmlns:xlink="http://www.w3.org/1999/xlink">
<g id="graph0" class="graph" transform="scale(1 1) rotate(0) translate(4 676.85)">
<title>G</title>
<polygon fill="white" stroke="transparent" points="-4,4 -4,-676.85 6495,-676.85 6495,4 -4,4"/>
<g id="clust1" class="cluster">
<title>cluster_0</title>
<polygon fill="none" stroke="black" points="8,-8 8,-664.85 1233,-664.85 1233,-8 8,-8"/>
<text text-anchor="middle" x="620.5" y="-628.85" font-family="Times,serif" font-size="40.00">Tree 0, Class No performance entry</text>
</g>
<g id="clust5" class="cluster">
<title>cluster_1</title>
<polygon fill="none" stroke="black" points="1241,-8 1241,-664.85 4291,-664.85 4291,-8 1241,-8"/>
<text text-anchor="middle" x="2766" y="-628.85" font-family="Times,serif" font-size="40.00">Tree 0, Class {&#39;requestStart != 0&#39;: False}</text>
</g>
<g id="clust9" class="cluster">
<title>cluster_2</title>
<polygon fill="none" stroke="black" points="4299,-8 4299,-664.85 6483,-664.85 6483,-8 4299,-8"/>
<text text-anchor="middle" x="5391" y="-628.85" font-family="Times,serif" font-size="40.00">Tree 0, Class {&#39;requestStart != 0&#39;: True}</text>
</g>
<!-- SG_0_Node_0 -->
<g id="node1" class="node">
<title>SG_0_Node_0</title>
<polygon fill="none" stroke="black" points="336.5,-604.85 235.5,-604.85 235.5,-568.85 336.5,-568.85 336.5,-604.85"/>
<text text-anchor="middle" x="286" y="-581.85" font-family="Times,serif" font-size="20.00">browser</text>
</g>
<!-- SG_0_Node_2 -->
<g id="node2" class="node">
<title>SG_0_Node_2</title>
<ellipse fill="none" stroke="black" cx="50" cy="-313.64" rx="33.88" ry="21.43"/>
<text text-anchor="middle" x="50" y="-308.64" font-family="Times,serif" font-size="20.00">0.0</text>
</g>
<!-- SG_0_Node_0&#45;&gt;SG_0_Node_2 -->
<g id="edge1" class="edge">
<title>SG_0_Node_0&#45;&gt;SG_0_Node_2</title>
<path fill="none" stroke="black" d="M235.28,-586.42C168.63,-585.96 56.96,-580.62 31,-550.85 -26.84,-484.53 10.88,-438.52 31,-352.85 31.76,-349.61 32.84,-346.32 34.11,-343.11"/>
<polygon fill="black" stroke="black" points="37.38,-344.37 38.32,-333.82 31,-341.48 37.38,-344.37"/>
<text text-anchor="middle" x="255.5" y="-457.85" font-family="Times,serif" font-size="20.00">firefox Ubuntu 22.04 119 selenium headless</text>
<text text-anchor="middle" x="255.5" y="-435.85" font-family="Times,serif" font-size="20.00">firefox Ubuntu 22.04 119 selenium xvfb</text>
</g>
<!-- SG_0_Node_1 -->
<g id="node3" class="node">
<title>SG_0_Node_1</title>
<polygon fill="none" stroke="black" points="572,-331.64 440,-331.64 440,-295.64 572,-295.64 572,-331.64"/>
<text text-anchor="middle" x="506" y="-308.64" font-family="Times,serif" font-size="20.00">resp_origin</text>
</g>
<!-- SG_0_Node_0&#45;&gt;SG_0_Node_1 -->
<g id="edge2" class="edge">
<title>SG_0_Node_0&#45;&gt;SG_0_Node_1</title>
<path fill="none" stroke="black" d="M336.82,-583.7C388.8,-580.35 464.61,-571.91 484,-550.85 511.47,-521.03 509.7,-397.38 507.42,-341.85"/>
<polygon fill="black" stroke="black" points="510.91,-341.53 506.96,-331.7 503.91,-341.84 510.91,-341.53"/>
<text text-anchor="middle" x="867.5" y="-534.85" font-family="Times,serif" font-size="20.00">[NA]</text>
<text text-anchor="middle" x="867.5" y="-512.85" font-family="Times,serif" font-size="20.00">brave Ubuntu 22.04 1.59.120 (118.0.5993.88) selenium headless&#45;new</text>
<text text-anchor="middle" x="867.5" y="-490.85" font-family="Times,serif" font-size="20.00">brave Ubuntu 22.04 1.59.120 (118.0.5993.88) selenium xvfb</text>
<text text-anchor="middle" x="867.5" y="-468.85" font-family="Times,serif" font-size="20.00">brave Ubuntu 22.04 1.60.114 (119.0.6045.124) selenium headless&#45;new</text>
<text text-anchor="middle" x="867.5" y="-446.85" font-family="Times,serif" font-size="20.00">brave Ubuntu 22.04 1.60.114 (119.0.6045.124) selenium xvfb</text>
<text text-anchor="middle" x="867.5" y="-424.85" font-family="Times,serif" font-size="20.00">chrome Ubuntu 22.04 119 selenium headless&#45;new</text>
<text text-anchor="middle" x="867.5" y="-402.85" font-family="Times,serif" font-size="20.00">chrome Ubuntu 22.04 119 selenium xvfb</text>
<text text-anchor="middle" x="867.5" y="-380.85" font-family="Times,serif" font-size="20.00">edge Ubuntu 22.04 119 selenium headless&#45;new</text>
<text text-anchor="middle" x="867.5" y="-358.85" font-family="Times,serif" font-size="20.00">edge Ubuntu 22.04 119 selenium xvfb</text>
</g>
<!-- SG_0_Node_3 -->
<g id="node4" class="node">
<title>SG_0_Node_3</title>
<ellipse fill="none" stroke="black" cx="225" cy="-37.21" rx="33.88" ry="21.43"/>
<text text-anchor="middle" x="225" y="-32.21" font-family="Times,serif" font-size="20.00">0.0</text>
</g>
<!-- SG_0_Node_1&#45;&gt;SG_0_Node_3 -->
<g id="edge3" class="edge">
<title>SG_0_Node_1&#45;&gt;SG_0_Node_3</title>
<path fill="none" stroke="black" d="M439.81,-313.37C364.92,-312.61 249.71,-306.12 222,-274.43 171.36,-216.52 196.54,-116.65 213.62,-67.4"/>
<polygon fill="black" stroke="black" points="216.92,-68.57 217.01,-57.98 210.33,-66.21 216.92,-68.57"/>
<text text-anchor="middle" x="429.5" y="-192.43" font-family="Times,serif" font-size="20.00">https://headers.webappsec.eu</text>
<text text-anchor="middle" x="429.5" y="-170.43" font-family="Times,serif" font-size="20.00">https://headers.websec.saarland</text>
<text text-anchor="middle" x="429.5" y="-148.43" font-family="Times,serif" font-size="20.00">https://sub.sub.headers.websec.saarland</text>
</g>
<!-- SG_0_Node_4 -->
<g id="node5" class="node">
<title>SG_0_Node_4</title>
<ellipse fill="none" stroke="black" cx="663" cy="-37.21" rx="33.88" ry="21.43"/>
<text text-anchor="middle" x="663" y="-32.21" font-family="Times,serif" font-size="20.00">1.0</text>
</g>
<!-- SG_0_Node_1&#45;&gt;SG_0_Node_4 -->
<g id="edge4" class="edge">
<title>SG_0_Node_1&#45;&gt;SG_0_Node_4</title>
<path fill="none" stroke="black" d="M572.32,-309.37C597.52,-304.61 624.18,-294.65 641,-274.43 689.96,-215.58 679.42,-117.67 669.98,-68.44"/>
<polygon fill="black" stroke="black" points="673.36,-67.52 667.94,-58.42 666.5,-68.92 673.36,-67.52"/>
<text text-anchor="middle" x="879.5" y="-214.43" font-family="Times,serif" font-size="20.00">[NA]</text>
<text text-anchor="middle" x="879.5" y="-192.43" font-family="Times,serif" font-size="20.00">http://headers.webappsec.eu</text>
<text text-anchor="middle" x="879.5" y="-170.43" font-family="Times,serif" font-size="20.00">http://headers.websec.saarland</text>
<text text-anchor="middle" x="879.5" y="-148.43" font-family="Times,serif" font-size="20.00">http://sub.headers.websec.saarland</text>
<text text-anchor="middle" x="879.5" y="-126.43" font-family="Times,serif" font-size="20.00">http://sub.sub.headers.websec.saarland</text>
</g>
<!-- SG_1_Node_0 -->
<g id="node6" class="node">
<title>SG_1_Node_0</title>
<polygon fill="none" stroke="black" points="1964.5,-604.85 1863.5,-604.85 1863.5,-568.85 1964.5,-568.85 1964.5,-604.85"/>
<text text-anchor="middle" x="1914" y="-581.85" font-family="Times,serif" font-size="20.00">browser</text>
</g>
<!-- SG_1_Node_1 -->
<g id="node7" class="node">
<title>SG_1_Node_1</title>
<polygon fill="none" stroke="black" points="1609,-331.64 1477,-331.64 1477,-295.64 1609,-295.64 1609,-331.64"/>
<text text-anchor="middle" x="1543" y="-308.64" font-family="Times,serif" font-size="20.00">resp_origin</text>
</g>
<!-- SG_1_Node_0&#45;&gt;SG_1_Node_1 -->
<g id="edge5" class="edge">
<title>SG_1_Node_0&#45;&gt;SG_1_Node_1</title>
<path fill="none" stroke="black" d="M1863.49,-584.76C1767.23,-582.16 1565.14,-573.98 1544,-550.85 1491.19,-493.05 1516.59,-390.09 1532.92,-341.47"/>
<polygon fill="black" stroke="black" points="1536.25,-342.55 1536.24,-331.96 1529.64,-340.25 1536.25,-342.55"/>
<text text-anchor="middle" x="1903.5" y="-534.85" font-family="Times,serif" font-size="20.00">[NA]</text>
<text text-anchor="middle" x="1903.5" y="-512.85" font-family="Times,serif" font-size="20.00">brave Ubuntu 22.04 1.59.120 (118.0.5993.88) selenium headless&#45;new</text>
<text text-anchor="middle" x="1903.5" y="-490.85" font-family="Times,serif" font-size="20.00">brave Ubuntu 22.04 1.59.120 (118.0.5993.88) selenium xvfb</text>
<text text-anchor="middle" x="1903.5" y="-468.85" font-family="Times,serif" font-size="20.00">brave Ubuntu 22.04 1.60.114 (119.0.6045.124) selenium headless&#45;new</text>
<text text-anchor="middle" x="1903.5" y="-446.85" font-family="Times,serif" font-size="20.00">brave Ubuntu 22.04 1.60.114 (119.0.6045.124) selenium xvfb</text>
<text text-anchor="middle" x="1903.5" y="-424.85" font-family="Times,serif" font-size="20.00">chrome Ubuntu 22.04 119 selenium headless&#45;new</text>
<text text-anchor="middle" x="1903.5" y="-402.85" font-family="Times,serif" font-size="20.00">chrome Ubuntu 22.04 119 selenium xvfb</text>
<text text-anchor="middle" x="1903.5" y="-380.85" font-family="Times,serif" font-size="20.00">edge Ubuntu 22.04 119 selenium headless&#45;new</text>
<text text-anchor="middle" x="1903.5" y="-358.85" font-family="Times,serif" font-size="20.00">edge Ubuntu 22.04 119 selenium xvfb</text>
</g>
<!-- SG_1_Node_2 -->
<g id="node8" class="node">
<title>SG_1_Node_2</title>
<polygon fill="none" stroke="black" points="2353.5,-331.64 2216.5,-331.64 2216.5,-295.64 2353.5,-295.64 2353.5,-331.64"/>
<text text-anchor="middle" x="2285" y="-308.64" font-family="Times,serif" font-size="20.00">raw_header</text>
</g>
<!-- SG_1_Node_0&#45;&gt;SG_1_Node_2 -->
<g id="edge6" class="edge">
<title>SG_1_Node_0&#45;&gt;SG_1_Node_2</title>
<path fill="none" stroke="black" d="M1964.67,-584.27C2056.39,-580.91 2242.41,-571.59 2263,-550.85 2318.42,-495.03 2303.4,-391.03 2292.19,-341.81"/>
<polygon fill="black" stroke="black" points="2295.55,-340.8 2289.81,-331.9 2288.74,-342.44 2295.55,-340.8"/>
<text text-anchor="middle" x="2526.5" y="-457.85" font-family="Times,serif" font-size="20.00">firefox Ubuntu 22.04 119 selenium headless</text>
<text text-anchor="middle" x="2526.5" y="-435.85" font-family="Times,serif" font-size="20.00">firefox Ubuntu 22.04 119 selenium xvfb</text>
</g>
<!-- SG_1_Node_3 -->
<g id="node9" class="node">
<title>SG_1_Node_3</title>
<ellipse fill="none" stroke="black" cx="1283" cy="-37.21" rx="33.88" ry="21.43"/>
<text text-anchor="middle" x="1283" y="-32.21" font-family="Times,serif" font-size="20.00">0.0</text>
</g>
<!-- SG_1_Node_1&#45;&gt;SG_1_Node_3 -->
<g id="edge9" class="edge">
<title>SG_1_Node_1&#45;&gt;SG_1_Node_3</title>
<path fill="none" stroke="black" d="M1476.99,-313.18C1403.38,-312.2 1291.08,-305.47 1264,-274.43 1235.08,-241.27 1253.94,-119.26 1264,-76.43 1264.76,-73.18 1265.84,-69.9 1267.11,-66.68"/>
<polygon fill="black" stroke="black" points="1270.38,-67.94 1271.32,-57.39 1264,-65.06 1270.38,-67.94"/>
<text text-anchor="middle" x="1466.5" y="-214.43" font-family="Times,serif" font-size="20.00">[NA]</text>
<text text-anchor="middle" x="1466.5" y="-192.43" font-family="Times,serif" font-size="20.00">http://headers.webappsec.eu</text>
<text text-anchor="middle" x="1466.5" y="-170.43" font-family="Times,serif" font-size="20.00">http://headers.websec.saarland</text>
<text text-anchor="middle" x="1466.5" y="-148.43" font-family="Times,serif" font-size="20.00">http://sub.headers.websec.saarland</text>
<text text-anchor="middle" x="1466.5" y="-126.43" font-family="Times,serif" font-size="20.00">http://sub.sub.headers.websec.saarland</text>
</g>
<!-- SG_1_Node_4 -->
<g id="node10" class="node">
<title>SG_1_Node_4</title>
<ellipse fill="none" stroke="black" cx="1695" cy="-37.21" rx="33.88" ry="21.43"/>
<text text-anchor="middle" x="1695" y="-32.21" font-family="Times,serif" font-size="20.00">1.0</text>
</g>
<!-- SG_1_Node_1&#45;&gt;SG_1_Node_4 -->
<g id="edge10" class="edge">
<title>SG_1_Node_1&#45;&gt;SG_1_Node_4</title>
<path fill="none" stroke="black" d="M1609.28,-308.27C1632.84,-303.25 1657.37,-293.4 1673,-274.43 1698.21,-243.81 1697.94,-125.57 1696.26,-68.88"/>
<polygon fill="black" stroke="black" points="1699.75,-68.6 1695.92,-58.72 1692.76,-68.83 1699.75,-68.6"/>
<text text-anchor="middle" x="1903.5" y="-192.43" font-family="Times,serif" font-size="20.00">https://headers.webappsec.eu</text>
<text text-anchor="middle" x="1903.5" y="-170.43" font-family="Times,serif" font-size="20.00">https://headers.websec.saarland</text>
<text text-anchor="middle" x="1903.5" y="-148.43" font-family="Times,serif" font-size="20.00">https://sub.sub.headers.websec.saarland</text>
</g>
<!-- SG_1_Node_5 -->
<g id="node11" class="node">
<title>SG_1_Node_5</title>
<ellipse fill="none" stroke="black" cx="2133" cy="-37.21" rx="33.88" ry="21.43"/>
<text text-anchor="middle" x="2133" y="-32.21" font-family="Times,serif" font-size="20.00">0.0</text>
</g>
<!-- SG_1_Node_2&#45;&gt;SG_1_Node_5 -->
<g id="edge7" class="edge">
<title>SG_1_Node_2&#45;&gt;SG_1_Node_5</title>
<path fill="none" stroke="black" d="M2216.26,-303.54C2181.53,-297.39 2144.54,-287.9 2134,-274.43 2109.68,-243.32 2121.38,-125.33 2128.68,-68.79"/>
<polygon fill="black" stroke="black" points="2132.17,-69.03 2130.02,-58.66 2125.24,-68.11 2132.17,-69.03"/>
<text text-anchor="middle" x="2658.5" y="-214.43" font-family="Times,serif" font-size="20.00">[[&#39;Timing&#45;Allow&#45;Origin&#39;, &#39;*&#39;], [&#39;location&#39;, &#39;https://sub.headers.websec.saarland/_hp/common/empty.html&#39;]]</text>
<text text-anchor="middle" x="2658.5" y="-192.43" font-family="Times,serif" font-size="20.00">[[&#39;Timing&#45;Allow&#45;Origin&#39;, &#39;*&#39;]]</text>
<text text-anchor="middle" x="2658.5" y="-170.43" font-family="Times,serif" font-size="20.00">[[&#39;Timing&#45;Allow&#45;Origin&#39;, &#39;https://sub.headers.websec.saarland&#39;], [&#39;Timing&#45;Allow&#45;Origin&#39;, &#39;*&#39;]]</text>
<text text-anchor="middle" x="2658.5" y="-148.43" font-family="Times,serif" font-size="20.00">[[&#39;Timing&#45;Allow&#45;Origin&#39;, &#39;https://sub.headers.websec.saarland&#39;]]</text>
<text text-anchor="middle" x="2658.5" y="-126.43" font-family="Times,serif" font-size="20.00">[[&#39;Timing&#45;Allow&#45;Origin&#39;, &#39;null&#39;], [&#39;Timing&#45;Allow&#45;Origin&#39;, &#39;*&#39;]]</text>
</g>
<!-- SG_1_Node_6 -->
<g id="node12" class="node">
<title>SG_1_Node_6</title>
<ellipse fill="none" stroke="black" cx="3205" cy="-37.21" rx="33.88" ry="21.43"/>
<text text-anchor="middle" x="3205" y="-32.21" font-family="Times,serif" font-size="20.00">1.0</text>
</g>
<!-- SG_1_Node_2&#45;&gt;SG_1_Node_6 -->
<g id="edge8" class="edge">
<title>SG_1_Node_2&#45;&gt;SG_1_Node_6</title>
<path fill="none" stroke="black" d="M2353.53,-312.16C2558.26,-310.41 3153.07,-302.89 3183,-274.43 3211.81,-247.03 3209.68,-126.62 3206.89,-69.06"/>
<polygon fill="black" stroke="black" points="3210.37,-68.56 3206.35,-58.76 3203.38,-68.93 3210.37,-68.56"/>
<text text-anchor="middle" x="3747" y="-258.43" font-family="Times,serif" font-size="20.00">[NA]</text>
<text text-anchor="middle" x="3747" y="-236.43" font-family="Times,serif" font-size="20.00">[[&#39;Timing&#45;Allow&#45;Origin&#39;, &#39;http://sub.headers.websec.saarland&#39;]]</text>
<text text-anchor="middle" x="3747" y="-214.43" font-family="Times,serif" font-size="20.00">[[&#39;Timing&#45;Allow&#45;Origin&#39;, &#39;https://headers.websec.saarland&#39;]]</text>
<text text-anchor="middle" x="3747" y="-192.43" font-family="Times,serif" font-size="20.00">[[&#39;Timing&#45;Allow&#45;Origin&#39;, &#39;https://sub.headers.websec.saarland/&#39;]]</text>
<text text-anchor="middle" x="3747" y="-170.43" font-family="Times,serif" font-size="20.00">[[&#39;Timing&#45;Allow&#45;Origin&#39;, &#39;https://sub.headers.websec.saarland:443&#39;]]</text>
<text text-anchor="middle" x="3747" y="-148.43" font-family="Times,serif" font-size="20.00">[[&#39;Timing&#45;Allow&#45;Origin&#39;, &#39;null&#39;], [&#39;location&#39;, &#39;https://sub.headers.websec.saarland/_hp/common/empty.html&#39;]]</text>
<text text-anchor="middle" x="3747" y="-126.43" font-family="Times,serif" font-size="20.00">[[&#39;Timing&#45;Allow&#45;Origin&#39;, &#39;null&#39;]]</text>
<text text-anchor="middle" x="3747" y="-104.43" font-family="Times,serif" font-size="20.00">[[&#39;Timing&#45;Allow&#45;Origin&#39;, &#39;sub.headers.websec.saarland&#39;]]</text>
<text text-anchor="middle" x="3747" y="-82.43" font-family="Times,serif" font-size="20.00">[]</text>
</g>
<!-- SG_2_Node_0 -->
<g id="node13" class="node">
<title>SG_2_Node_0</title>
<polygon fill="none" stroke="black" points="4770.5,-604.85 4669.5,-604.85 4669.5,-568.85 4770.5,-568.85 4770.5,-604.85"/>
<text text-anchor="middle" x="4720" y="-581.85" font-family="Times,serif" font-size="20.00">browser</text>
</g>
<!-- SG_2_Node_2 -->
<g id="node14" class="node">
<title>SG_2_Node_2</title>
<ellipse fill="none" stroke="black" cx="4512" cy="-313.64" rx="33.88" ry="21.43"/>
<text text-anchor="middle" x="4512" y="-308.64" font-family="Times,serif" font-size="20.00">0.0</text>
</g>
<!-- SG_2_Node_0&#45;&gt;SG_2_Node_2 -->
<g id="edge11" class="edge">
<title>SG_2_Node_0&#45;&gt;SG_2_Node_2</title>
<path fill="none" stroke="black" d="M4669.48,-584.52C4614.78,-581.88 4532.69,-574.06 4513,-550.85 4463.45,-492.47 4485.65,-393.59 4501.29,-344.35"/>
<polygon fill="black" stroke="black" points="4504.69,-345.22 4504.5,-334.63 4498.04,-343.03 4504.69,-345.22"/>
<text text-anchor="middle" x="4872.5" y="-534.85" font-family="Times,serif" font-size="20.00">[NA]</text>
<text text-anchor="middle" x="4872.5" y="-512.85" font-family="Times,serif" font-size="20.00">brave Ubuntu 22.04 1.59.120 (118.0.5993.88) selenium headless&#45;new</text>
<text text-anchor="middle" x="4872.5" y="-490.85" font-family="Times,serif" font-size="20.00">brave Ubuntu 22.04 1.59.120 (118.0.5993.88) selenium xvfb</text>
<text text-anchor="middle" x="4872.5" y="-468.85" font-family="Times,serif" font-size="20.00">brave Ubuntu 22.04 1.60.114 (119.0.6045.124) selenium headless&#45;new</text>
<text text-anchor="middle" x="4872.5" y="-446.85" font-family="Times,serif" font-size="20.00">brave Ubuntu 22.04 1.60.114 (119.0.6045.124) selenium xvfb</text>
<text text-anchor="middle" x="4872.5" y="-424.85" font-family="Times,serif" font-size="20.00">chrome Ubuntu 22.04 119 selenium headless&#45;new</text>
<text text-anchor="middle" x="4872.5" y="-402.85" font-family="Times,serif" font-size="20.00">chrome Ubuntu 22.04 119 selenium xvfb</text>
<text text-anchor="middle" x="4872.5" y="-380.85" font-family="Times,serif" font-size="20.00">edge Ubuntu 22.04 119 selenium headless&#45;new</text>
<text text-anchor="middle" x="4872.5" y="-358.85" font-family="Times,serif" font-size="20.00">edge Ubuntu 22.04 119 selenium xvfb</text>
</g>
<!-- SG_2_Node_1 -->
<g id="node15" class="node">
<title>SG_2_Node_1</title>
<polygon fill="none" stroke="black" points="5322.5,-331.64 5185.5,-331.64 5185.5,-295.64 5322.5,-295.64 5322.5,-331.64"/>
<text text-anchor="middle" x="5254" y="-308.64" font-family="Times,serif" font-size="20.00">raw_header</text>
</g>
<!-- SG_2_Node_0&#45;&gt;SG_2_Node_1 -->
<g id="edge12" class="edge">
<title>SG_2_Node_0&#45;&gt;SG_2_Node_1</title>
<path fill="none" stroke="black" d="M4770.77,-586.04C4893.66,-585.97 5199.48,-582.59 5232,-550.85 5288.44,-495.79 5272.77,-390.97 5261.27,-341.62"/>
<polygon fill="black" stroke="black" points="5264.62,-340.57 5258.84,-331.69 5257.82,-342.23 5264.62,-340.57"/>
<text text-anchor="middle" x="5496.5" y="-457.85" font-family="Times,serif" font-size="20.00">firefox Ubuntu 22.04 119 selenium headless</text>
<text text-anchor="middle" x="5496.5" y="-435.85" font-family="Times,serif" font-size="20.00">firefox Ubuntu 22.04 119 selenium xvfb</text>
</g>
<!-- SG_2_Node_3 -->
<g id="node16" class="node">
<title>SG_2_Node_3</title>
<ellipse fill="none" stroke="black" cx="4341" cy="-37.21" rx="33.88" ry="21.43"/>
<text text-anchor="middle" x="4341" y="-32.21" font-family="Times,serif" font-size="20.00">0.0</text>
</g>
<!-- SG_2_Node_1&#45;&gt;SG_2_Node_3 -->
<g id="edge13" class="edge">
<title>SG_2_Node_1&#45;&gt;SG_2_Node_3</title>
<path fill="none" stroke="black" d="M5185.21,-311.08C4972.22,-306.11 4336.93,-289.98 4322,-274.43 4291.53,-242.68 4311.94,-119.26 4322,-76.43 4322.76,-73.18 4323.84,-69.9 4325.11,-66.68"/>
<polygon fill="black" stroke="black" points="4328.38,-67.94 4329.32,-57.39 4322,-65.06 4328.38,-67.94"/>
<text text-anchor="middle" x="4861" y="-258.43" font-family="Times,serif" font-size="20.00">[NA]</text>
<text text-anchor="middle" x="4861" y="-236.43" font-family="Times,serif" font-size="20.00">[[&#39;Timing&#45;Allow&#45;Origin&#39;, &#39;http://sub.headers.websec.saarland&#39;]]</text>
<text text-anchor="middle" x="4861" y="-214.43" font-family="Times,serif" font-size="20.00">[[&#39;Timing&#45;Allow&#45;Origin&#39;, &#39;https://headers.websec.saarland&#39;]]</text>
<text text-anchor="middle" x="4861" y="-192.43" font-family="Times,serif" font-size="20.00">[[&#39;Timing&#45;Allow&#45;Origin&#39;, &#39;https://sub.headers.websec.saarland/&#39;]]</text>
<text text-anchor="middle" x="4861" y="-170.43" font-family="Times,serif" font-size="20.00">[[&#39;Timing&#45;Allow&#45;Origin&#39;, &#39;https://sub.headers.websec.saarland:443&#39;]]</text>
<text text-anchor="middle" x="4861" y="-148.43" font-family="Times,serif" font-size="20.00">[[&#39;Timing&#45;Allow&#45;Origin&#39;, &#39;null&#39;], [&#39;location&#39;, &#39;https://sub.headers.websec.saarland/_hp/common/empty.html&#39;]]</text>
<text text-anchor="middle" x="4861" y="-126.43" font-family="Times,serif" font-size="20.00">[[&#39;Timing&#45;Allow&#45;Origin&#39;, &#39;null&#39;]]</text>
<text text-anchor="middle" x="4861" y="-104.43" font-family="Times,serif" font-size="20.00">[[&#39;Timing&#45;Allow&#45;Origin&#39;, &#39;sub.headers.websec.saarland&#39;]]</text>
<text text-anchor="middle" x="4861" y="-82.43" font-family="Times,serif" font-size="20.00">[]</text>
</g>
<!-- SG_2_Node_4 -->
<g id="node17" class="node">
<title>SG_2_Node_4</title>
<ellipse fill="none" stroke="black" cx="5426" cy="-37.21" rx="33.88" ry="21.43"/>
<text text-anchor="middle" x="5426" y="-32.21" font-family="Times,serif" font-size="20.00">1.0</text>
</g>
<!-- SG_2_Node_1&#45;&gt;SG_2_Node_4 -->
<g id="edge14" class="edge">
<title>SG_2_Node_1&#45;&gt;SG_2_Node_4</title>
<path fill="none" stroke="black" d="M5322.66,-302.97C5356.78,-296.68 5393.05,-287.25 5404,-274.43 5453.73,-216.23 5442.85,-118.03 5433.15,-68.58"/>
<polygon fill="black" stroke="black" points="5436.52,-67.6 5431.06,-58.52 5429.67,-69.03 5436.52,-67.6"/>
<text text-anchor="middle" x="5965.5" y="-214.43" font-family="Times,serif" font-size="20.00">[[&#39;Timing&#45;Allow&#45;Origin&#39;, &#39;*&#39;], [&#39;location&#39;, &#39;https://sub.headers.websec.saarland/_hp/common/empty.html&#39;]]</text>
<text text-anchor="middle" x="5965.5" y="-192.43" font-family="Times,serif" font-size="20.00">[[&#39;Timing&#45;Allow&#45;Origin&#39;, &#39;*&#39;]]</text>
<text text-anchor="middle" x="5965.5" y="-170.43" font-family="Times,serif" font-size="20.00">[[&#39;Timing&#45;Allow&#45;Origin&#39;, &#39;https://sub.headers.websec.saarland&#39;], [&#39;Timing&#45;Allow&#45;Origin&#39;, &#39;*&#39;]]</text>
<text text-anchor="middle" x="5965.5" y="-148.43" font-family="Times,serif" font-size="20.00">[[&#39;Timing&#45;Allow&#45;Origin&#39;, &#39;https://sub.headers.websec.saarland&#39;]]</text>
<text text-anchor="middle" x="5965.5" y="-126.43" font-family="Times,serif" font-size="20.00">[[&#39;Timing&#45;Allow&#45;Origin&#39;, &#39;null&#39;], [&#39;Timing&#45;Allow&#45;Origin&#39;, &#39;*&#39;]]</text>
</g>
</g>
</svg>
