<?xml version="1.0" encoding="UTF-8" standalone="no"?>
<!DOCTYPE svg PUBLIC "-//W3C//DTD SVG 1.1//EN"
 "http://www.w3.org/Graphics/SVG/1.1/DTD/svg11.dtd">
<!-- Generated by graphviz version 2.43.0 (0)
 -->
<!-- Title: G Pages: 1 -->
<svg width="2483pt" height="404pt"
 viewBox="0.00 0.00 2482.65 404.43" xmlns="http://www.w3.org/2000/svg" xmlns:xlink="http://www.w3.org/1999/xlink">
<g id="graph0" class="graph" transform="scale(1 1) rotate(0) translate(4 400.43)">
<title>G</title>
<polygon fill="white" stroke="transparent" points="-4,4 -4,-400.43 2478.65,-400.43 2478.65,4 -4,4"/>
<g id="clust1" class="cluster">
<title>cluster_0</title>
<polygon fill="none" stroke="black" points="8.65,-8 8.65,-388.43 1233.65,-388.43 1233.65,-8 8.65,-8"/>
<text text-anchor="middle" x="621.15" y="-352.43" font-family="Times,serif" font-size="40.00">Tree 0, Class error</text>
</g>
<g id="clust4" class="cluster">
<title>cluster_1</title>
<polygon fill="none" stroke="black" points="1241.65,-8 1241.65,-388.43 2466.65,-388.43 2466.65,-8 1241.65,-8"/>
<text text-anchor="middle" x="1854.15" y="-352.43" font-family="Times,serif" font-size="40.00">Tree 0, Class load</text>
</g>
<!-- SG_0_Node_0 -->
<g id="node1" class="node">
<title>SG_0_Node_0</title>
<polygon fill="none" stroke="black" points="472.15,-328.43 371.15,-328.43 371.15,-292.43 472.15,-292.43 472.15,-328.43"/>
<text text-anchor="middle" x="421.65" y="-305.43" font-family="Times,serif" font-size="20.00">browser</text>
</g>
<!-- SG_0_Node_1 -->
<g id="node2" class="node">
<title>SG_0_Node_1</title>
<ellipse fill="none" stroke="black" cx="50.65" cy="-37.21" rx="33.88" ry="21.43"/>
<text text-anchor="middle" x="50.65" y="-32.21" font-family="Times,serif" font-size="20.00">0.0</text>
</g>
<!-- SG_0_Node_0&#45;&gt;SG_0_Node_1 -->
<g id="edge1" class="edge">
<title>SG_0_Node_0&#45;&gt;SG_0_Node_1</title>
<path fill="none" stroke="black" d="M371.12,-308.61C270.79,-306.47 54.12,-299.01 31.65,-274.43 -27.73,-209.48 11.52,-162.09 31.65,-76.43 32.41,-73.18 33.49,-69.9 34.75,-66.68"/>
<polygon fill="black" stroke="black" points="38.03,-67.94 38.96,-57.39 31.65,-65.06 38.03,-67.94"/>
<text text-anchor="middle" x="391.15" y="-258.43" font-family="Times,serif" font-size="20.00">[NA]</text>
<text text-anchor="middle" x="391.15" y="-236.43" font-family="Times,serif" font-size="20.00">brave Ubuntu 22.04 1.59.120 (118.0.5993.88) selenium headless&#45;new</text>
<text text-anchor="middle" x="391.15" y="-214.43" font-family="Times,serif" font-size="20.00">brave Ubuntu 22.04 1.59.120 (118.0.5993.88) selenium xvfb</text>
<text text-anchor="middle" x="391.15" y="-192.43" font-family="Times,serif" font-size="20.00">brave Ubuntu 22.04 1.60.114 (119.0.6045.124) selenium headless&#45;new</text>
<text text-anchor="middle" x="391.15" y="-170.43" font-family="Times,serif" font-size="20.00">brave Ubuntu 22.04 1.60.114 (119.0.6045.124) selenium xvfb</text>
<text text-anchor="middle" x="391.15" y="-148.43" font-family="Times,serif" font-size="20.00">chrome Ubuntu 22.04 119 selenium headless&#45;new</text>
<text text-anchor="middle" x="391.15" y="-126.43" font-family="Times,serif" font-size="20.00">chrome Ubuntu 22.04 119 selenium xvfb</text>
<text text-anchor="middle" x="391.15" y="-104.43" font-family="Times,serif" font-size="20.00">edge Ubuntu 22.04 119 selenium headless&#45;new</text>
<text text-anchor="middle" x="391.15" y="-82.43" font-family="Times,serif" font-size="20.00">edge Ubuntu 22.04 119 selenium xvfb</text>
</g>
<!-- SG_0_Node_2 -->
<g id="node3" class="node">
<title>SG_0_Node_2</title>
<ellipse fill="none" stroke="black" cx="776.65" cy="-37.21" rx="33.88" ry="21.43"/>
<text text-anchor="middle" x="776.65" y="-32.21" font-family="Times,serif" font-size="20.00">1.0</text>
</g>
<!-- SG_0_Node_0&#45;&gt;SG_0_Node_2 -->
<g id="edge2" class="edge">
<title>SG_0_Node_0&#45;&gt;SG_0_Node_2</title>
<path fill="none" stroke="black" d="M472.42,-307.58C560.75,-303.86 735.21,-294.09 754.65,-274.43 782.59,-246.15 780.9,-126.18 778.38,-68.9"/>
<polygon fill="black" stroke="black" points="781.86,-68.47 777.89,-58.65 774.87,-68.8 781.86,-68.47"/>
<text text-anchor="middle" x="1004.15" y="-181.43" font-family="Times,serif" font-size="20.00">firefox Ubuntu 22.04 119 selenium headless</text>
<text text-anchor="middle" x="1004.15" y="-159.43" font-family="Times,serif" font-size="20.00">firefox Ubuntu 22.04 119 selenium xvfb</text>
</g>
<!-- SG_1_Node_0 -->
<g id="node4" class="node">
<title>SG_1_Node_0</title>
<polygon fill="none" stroke="black" points="1570.15,-328.43 1469.15,-328.43 1469.15,-292.43 1570.15,-292.43 1570.15,-328.43"/>
<text text-anchor="middle" x="1519.65" y="-305.43" font-family="Times,serif" font-size="20.00">browser</text>
</g>
<!-- SG_1_Node_1 -->
<g id="node5" class="node">
<title>SG_1_Node_1</title>
<ellipse fill="none" stroke="black" cx="1283.65" cy="-37.21" rx="33.88" ry="21.43"/>
<text text-anchor="middle" x="1283.65" y="-32.21" font-family="Times,serif" font-size="20.00">0.0</text>
</g>
<!-- SG_1_Node_0&#45;&gt;SG_1_Node_1 -->
<g id="edge3" class="edge">
<title>SG_1_Node_0&#45;&gt;SG_1_Node_1</title>
<path fill="none" stroke="black" d="M1468.93,-310C1402.27,-309.54 1290.6,-304.19 1264.65,-274.43 1235.73,-241.27 1254.58,-119.26 1264.65,-76.43 1265.41,-73.18 1266.49,-69.9 1267.75,-66.68"/>
<polygon fill="black" stroke="black" points="1271.03,-67.94 1271.96,-57.39 1264.65,-65.06 1271.03,-67.94"/>
<text text-anchor="middle" x="1489.15" y="-181.43" font-family="Times,serif" font-size="20.00">firefox Ubuntu 22.04 119 selenium headless</text>
<text text-anchor="middle" x="1489.15" y="-159.43" font-family="Times,serif" font-size="20.00">firefox Ubuntu 22.04 119 selenium xvfb</text>
</g>
<!-- SG_1_Node_2 -->
<g id="node6" class="node">
<title>SG_1_Node_2</title>
<ellipse fill="none" stroke="black" cx="1739.65" cy="-37.21" rx="33.88" ry="21.43"/>
<text text-anchor="middle" x="1739.65" y="-32.21" font-family="Times,serif" font-size="20.00">1.0</text>
</g>
<!-- SG_1_Node_0&#45;&gt;SG_1_Node_2 -->
<g id="edge4" class="edge">
<title>SG_1_Node_0&#45;&gt;SG_1_Node_2</title>
<path fill="none" stroke="black" d="M1570.47,-307.27C1622.45,-303.92 1698.25,-295.48 1717.65,-274.43 1769.75,-217.86 1757.55,-118.15 1747.13,-68.32"/>
<polygon fill="black" stroke="black" points="1750.53,-67.49 1744.96,-58.48 1743.7,-69 1750.53,-67.49"/>
<text text-anchor="middle" x="2115.15" y="-258.43" font-family="Times,serif" font-size="20.00">[NA]</text>
<text text-anchor="middle" x="2115.15" y="-236.43" font-family="Times,serif" font-size="20.00">brave Ubuntu 22.04 1.59.120 (118.0.5993.88) selenium headless&#45;new</text>
<text text-anchor="middle" x="2115.15" y="-214.43" font-family="Times,serif" font-size="20.00">brave Ubuntu 22.04 1.59.120 (118.0.5993.88) selenium xvfb</text>
<text text-anchor="middle" x="2115.15" y="-192.43" font-family="Times,serif" font-size="20.00">brave Ubuntu 22.04 1.60.114 (119.0.6045.124) selenium headless&#45;new</text>
<text text-anchor="middle" x="2115.15" y="-170.43" font-family="Times,serif" font-size="20.00">brave Ubuntu 22.04 1.60.114 (119.0.6045.124) selenium xvfb</text>
<text text-anchor="middle" x="2115.15" y="-148.43" font-family="Times,serif" font-size="20.00">chrome Ubuntu 22.04 119 selenium headless&#45;new</text>
<text text-anchor="middle" x="2115.15" y="-126.43" font-family="Times,serif" font-size="20.00">chrome Ubuntu 22.04 119 selenium xvfb</text>
<text text-anchor="middle" x="2115.15" y="-104.43" font-family="Times,serif" font-size="20.00">edge Ubuntu 22.04 119 selenium headless&#45;new</text>
<text text-anchor="middle" x="2115.15" y="-82.43" font-family="Times,serif" font-size="20.00">edge Ubuntu 22.04 119 selenium xvfb</text>
</g>
</g>
</svg>
