<?xml version="1.0" encoding="UTF-8" standalone="no"?>
<!DOCTYPE svg PUBLIC "-//W3C//DTD SVG 1.1//EN"
 "http://www.w3.org/Graphics/SVG/1.1/DTD/svg11.dtd">
<!-- Generated by graphviz version 2.43.0 (0)
 -->
<!-- Title: G Pages: 1 -->
<svg width="4956pt" height="520pt"
 viewBox="0.00 0.00 4956.00 520.43" xmlns="http://www.w3.org/2000/svg" xmlns:xlink="http://www.w3.org/1999/xlink">
<g id="graph0" class="graph" transform="scale(1 1) rotate(0) translate(4 516.43)">
<title>G</title>
<polygon fill="white" stroke="transparent" points="-4,4 -4,-516.43 4952,-516.43 4952,4 -4,4"/>
<g id="clust1" class="cluster">
<title>cluster_0</title>
<polygon fill="none" stroke="black" points="8,-8 8,-504.43 2469,-504.43 2469,-8 8,-8"/>
<text text-anchor="middle" x="1238.5" y="-468.43" font-family="Times,serif" font-size="40.00">Tree 0, Class message send</text>
</g>
<g id="clust5" class="cluster">
<title>cluster_1</title>
<polygon fill="none" stroke="black" points="2477,-8 2477,-504.43 4938,-504.43 4938,-8 2477,-8"/>
<text text-anchor="middle" x="3707.5" y="-468.43" font-family="Times,serif" font-size="40.00">Tree 0, Class message timeout</text>
</g>
<!-- SG_0_Node_0 -->
<g id="node1" class="node">
<title>SG_0_Node_0</title>
<polygon fill="none" stroke="black" points="1090.5,-444.43 953.5,-444.43 953.5,-408.43 1090.5,-408.43 1090.5,-444.43"/>
<text text-anchor="middle" x="1022" y="-421.43" font-family="Times,serif" font-size="20.00">raw_header</text>
</g>
<!-- SG_0_Node_1 -->
<g id="node2" class="node">
<title>SG_0_Node_1</title>
<polygon fill="none" stroke="black" points="837.5,-328.43 736.5,-328.43 736.5,-292.43 837.5,-292.43 837.5,-328.43"/>
<text text-anchor="middle" x="787" y="-305.43" font-family="Times,serif" font-size="20.00">browser</text>
</g>
<!-- SG_0_Node_0&#45;&gt;SG_0_Node_1 -->
<g id="edge1" class="edge">
<title>SG_0_Node_0&#45;&gt;SG_0_Node_1</title>
<path fill="none" stroke="black" d="M986.82,-408.36C945.46,-388.3 876.75,-354.96 831.67,-333.09"/>
<polygon fill="black" stroke="black" points="832.95,-329.83 822.42,-328.61 829.89,-336.12 832.95,-329.83"/>
<text text-anchor="middle" x="997" y="-363.43" font-family="Times,serif" font-size="20.00">118 levels</text>
</g>
<!-- SG_0_Node_2 -->
<g id="node3" class="node">
<title>SG_0_Node_2</title>
<polygon fill="none" stroke="black" points="1309.5,-328.43 1208.5,-328.43 1208.5,-292.43 1309.5,-292.43 1309.5,-328.43"/>
<text text-anchor="middle" x="1259" y="-305.43" font-family="Times,serif" font-size="20.00">browser</text>
</g>
<!-- SG_0_Node_0&#45;&gt;SG_0_Node_2 -->
<g id="edge2" class="edge">
<title>SG_0_Node_0&#45;&gt;SG_0_Node_2</title>
<path fill="none" stroke="black" d="M1057.48,-408.36C1099.28,-388.25 1168.78,-354.83 1214.24,-332.96"/>
<polygon fill="black" stroke="black" points="1215.78,-336.1 1223.28,-328.61 1212.75,-329.79 1215.78,-336.1"/>
<text text-anchor="middle" x="1234" y="-374.43" font-family="Times,serif" font-size="20.00">[NA]</text>
<text text-anchor="middle" x="1234" y="-352.43" font-family="Times,serif" font-size="20.00">104 levels</text>
</g>
<!-- SG_0_Node_3 -->
<g id="node4" class="node">
<title>SG_0_Node_3</title>
<ellipse fill="none" stroke="black" cx="50" cy="-37.21" rx="33.88" ry="21.43"/>
<text text-anchor="middle" x="50" y="-32.21" font-family="Times,serif" font-size="20.00">0.0</text>
</g>
<!-- SG_0_Node_1&#45;&gt;SG_0_Node_3 -->
<g id="edge5" class="edge">
<title>SG_0_Node_1&#45;&gt;SG_0_Node_3</title>
<path fill="none" stroke="black" d="M736.41,-308.9C574.27,-306.95 76.72,-298.99 53,-274.43 -0.57,-218.95 22.94,-117.52 39.2,-67.58"/>
<polygon fill="black" stroke="black" points="42.54,-68.62 42.43,-58.03 35.91,-66.38 42.54,-68.62"/>
<text text-anchor="middle" x="418" y="-258.43" font-family="Times,serif" font-size="20.00">[NA]</text>
<text text-anchor="middle" x="418" y="-236.43" font-family="Times,serif" font-size="20.00">brave Android 11 1.60.116 intent real</text>
<text text-anchor="middle" x="418" y="-214.43" font-family="Times,serif" font-size="20.00">brave Ubuntu 22.04 v1.62.156 (121.0.6167.139) selenium headless&#45;new</text>
<text text-anchor="middle" x="418" y="-192.43" font-family="Times,serif" font-size="20.00">chrome Android 11 120.0.6099.44 intent real</text>
<text text-anchor="middle" x="418" y="-170.43" font-family="Times,serif" font-size="20.00">chrome Ubuntu 22.04 120 selenium headless&#45;new</text>
<text text-anchor="middle" x="418" y="-148.43" font-family="Times,serif" font-size="20.00">chrome Ubuntu 22.04 121 selenium headless&#45;new</text>
<text text-anchor="middle" x="418" y="-126.43" font-family="Times,serif" font-size="20.00">chrome Ubuntu 22.04 122 selenium headless&#45;new</text>
<text text-anchor="middle" x="418" y="-104.43" font-family="Times,serif" font-size="20.00">edge Ubuntu 22.04 121 selenium headless&#45;new</text>
<text text-anchor="middle" x="418" y="-82.43" font-family="Times,serif" font-size="20.00">opera Android 11 78.4.4143.75735 intent real</text>
</g>
<!-- SG_0_Node_4 -->
<g id="node5" class="node">
<title>SG_0_Node_4</title>
<ellipse fill="none" stroke="black" cx="787" cy="-37.21" rx="33.88" ry="21.43"/>
<text text-anchor="middle" x="787" y="-32.21" font-family="Times,serif" font-size="20.00">1.0</text>
</g>
<!-- SG_0_Node_1&#45;&gt;SG_0_Node_4 -->
<g id="edge6" class="edge">
<title>SG_0_Node_1&#45;&gt;SG_0_Node_4</title>
<path fill="none" stroke="black" d="M787,-292.05C787,-247.02 787,-126.08 787,-68.93"/>
<polygon fill="black" stroke="black" points="790.5,-68.71 787,-58.71 783.5,-68.71 790.5,-68.71"/>
<text text-anchor="middle" x="1011.5" y="-192.43" font-family="Times,serif" font-size="20.00">firefox Ubuntu 22.04 121 selenium headless</text>
<text text-anchor="middle" x="1011.5" y="-170.43" font-family="Times,serif" font-size="20.00">firefox Ubuntu 22.04 122 selenium headless</text>
<text text-anchor="middle" x="1011.5" y="-148.43" font-family="Times,serif" font-size="20.00">firefox_beta Android 11 122.0b1 intent real</text>
</g>
<!-- SG_0_Node_5 -->
<g id="node6" class="node">
<title>SG_0_Node_5</title>
<ellipse fill="none" stroke="black" cx="1259" cy="-37.21" rx="33.88" ry="21.43"/>
<text text-anchor="middle" x="1259" y="-32.21" font-family="Times,serif" font-size="20.00">0.0</text>
</g>
<!-- SG_0_Node_2&#45;&gt;SG_0_Node_5 -->
<g id="edge3" class="edge">
<title>SG_0_Node_2&#45;&gt;SG_0_Node_5</title>
<path fill="none" stroke="black" d="M1259,-292.05C1259,-247.02 1259,-126.08 1259,-68.93"/>
<polygon fill="black" stroke="black" points="1262.5,-68.71 1259,-58.71 1255.5,-68.71 1262.5,-68.71"/>
<text text-anchor="middle" x="1483.5" y="-192.43" font-family="Times,serif" font-size="20.00">firefox Ubuntu 22.04 121 selenium headless</text>
<text text-anchor="middle" x="1483.5" y="-170.43" font-family="Times,serif" font-size="20.00">firefox Ubuntu 22.04 122 selenium headless</text>
<text text-anchor="middle" x="1483.5" y="-148.43" font-family="Times,serif" font-size="20.00">firefox_beta Android 11 122.0b1 intent real</text>
</g>
<!-- SG_0_Node_6 -->
<g id="node7" class="node">
<title>SG_0_Node_6</title>
<ellipse fill="none" stroke="black" cx="1731" cy="-37.21" rx="33.88" ry="21.43"/>
<text text-anchor="middle" x="1731" y="-32.21" font-family="Times,serif" font-size="20.00">1.0</text>
</g>
<!-- SG_0_Node_2&#45;&gt;SG_0_Node_6 -->
<g id="edge4" class="edge">
<title>SG_0_Node_2&#45;&gt;SG_0_Node_6</title>
<path fill="none" stroke="black" d="M1309.75,-309.09C1421.48,-307.83 1681.05,-301.95 1709,-274.43 1737.33,-246.53 1735.44,-126.37 1732.8,-68.97"/>
<polygon fill="black" stroke="black" points="1736.28,-68.51 1732.29,-58.7 1729.29,-68.86 1736.28,-68.51"/>
<text text-anchor="middle" x="2099" y="-258.43" font-family="Times,serif" font-size="20.00">[NA]</text>
<text text-anchor="middle" x="2099" y="-236.43" font-family="Times,serif" font-size="20.00">brave Android 11 1.60.116 intent real</text>
<text text-anchor="middle" x="2099" y="-214.43" font-family="Times,serif" font-size="20.00">brave Ubuntu 22.04 v1.62.156 (121.0.6167.139) selenium headless&#45;new</text>
<text text-anchor="middle" x="2099" y="-192.43" font-family="Times,serif" font-size="20.00">chrome Android 11 120.0.6099.44 intent real</text>
<text text-anchor="middle" x="2099" y="-170.43" font-family="Times,serif" font-size="20.00">chrome Ubuntu 22.04 120 selenium headless&#45;new</text>
<text text-anchor="middle" x="2099" y="-148.43" font-family="Times,serif" font-size="20.00">chrome Ubuntu 22.04 121 selenium headless&#45;new</text>
<text text-anchor="middle" x="2099" y="-126.43" font-family="Times,serif" font-size="20.00">chrome Ubuntu 22.04 122 selenium headless&#45;new</text>
<text text-anchor="middle" x="2099" y="-104.43" font-family="Times,serif" font-size="20.00">edge Ubuntu 22.04 121 selenium headless&#45;new</text>
<text text-anchor="middle" x="2099" y="-82.43" font-family="Times,serif" font-size="20.00">opera Android 11 78.4.4143.75735 intent real</text>
</g>
<!-- SG_1_Node_0 -->
<g id="node8" class="node">
<title>SG_1_Node_0</title>
<polygon fill="none" stroke="black" points="3559.5,-444.43 3422.5,-444.43 3422.5,-408.43 3559.5,-408.43 3559.5,-444.43"/>
<text text-anchor="middle" x="3491" y="-421.43" font-family="Times,serif" font-size="20.00">raw_header</text>
</g>
<!-- SG_1_Node_1 -->
<g id="node9" class="node">
<title>SG_1_Node_1</title>
<polygon fill="none" stroke="black" points="3306.5,-328.43 3205.5,-328.43 3205.5,-292.43 3306.5,-292.43 3306.5,-328.43"/>
<text text-anchor="middle" x="3256" y="-305.43" font-family="Times,serif" font-size="20.00">browser</text>
</g>
<!-- SG_1_Node_0&#45;&gt;SG_1_Node_1 -->
<g id="edge7" class="edge">
<title>SG_1_Node_0&#45;&gt;SG_1_Node_1</title>
<path fill="none" stroke="black" d="M3455.82,-408.36C3414.46,-388.3 3345.75,-354.96 3300.67,-333.09"/>
<polygon fill="black" stroke="black" points="3301.95,-329.83 3291.42,-328.61 3298.89,-336.12 3301.95,-329.83"/>
<text text-anchor="middle" x="3466" y="-374.43" font-family="Times,serif" font-size="20.00">[NA]</text>
<text text-anchor="middle" x="3466" y="-352.43" font-family="Times,serif" font-size="20.00">104 levels</text>
</g>
<!-- SG_1_Node_2 -->
<g id="node10" class="node">
<title>SG_1_Node_2</title>
<polygon fill="none" stroke="black" points="3778.5,-328.43 3677.5,-328.43 3677.5,-292.43 3778.5,-292.43 3778.5,-328.43"/>
<text text-anchor="middle" x="3728" y="-305.43" font-family="Times,serif" font-size="20.00">browser</text>
</g>
<!-- SG_1_Node_0&#45;&gt;SG_1_Node_2 -->
<g id="edge8" class="edge">
<title>SG_1_Node_0&#45;&gt;SG_1_Node_2</title>
<path fill="none" stroke="black" d="M3526.48,-408.36C3568.28,-388.25 3637.78,-354.83 3683.24,-332.96"/>
<polygon fill="black" stroke="black" points="3684.78,-336.1 3692.28,-328.61 3681.75,-329.79 3684.78,-336.1"/>
<text text-anchor="middle" x="3703" y="-363.43" font-family="Times,serif" font-size="20.00">118 levels</text>
</g>
<!-- SG_1_Node_3 -->
<g id="node11" class="node">
<title>SG_1_Node_3</title>
<ellipse fill="none" stroke="black" cx="2519" cy="-37.21" rx="33.88" ry="21.43"/>
<text text-anchor="middle" x="2519" y="-32.21" font-family="Times,serif" font-size="20.00">0.0</text>
</g>
<!-- SG_1_Node_1&#45;&gt;SG_1_Node_3 -->
<g id="edge11" class="edge">
<title>SG_1_Node_1&#45;&gt;SG_1_Node_3</title>
<path fill="none" stroke="black" d="M3205.41,-308.9C3043.27,-306.95 2545.72,-298.99 2522,-274.43 2468.43,-218.95 2491.94,-117.52 2508.2,-67.58"/>
<polygon fill="black" stroke="black" points="2511.54,-68.62 2511.43,-58.03 2504.91,-66.38 2511.54,-68.62"/>
<text text-anchor="middle" x="2887" y="-258.43" font-family="Times,serif" font-size="20.00">[NA]</text>
<text text-anchor="middle" x="2887" y="-236.43" font-family="Times,serif" font-size="20.00">brave Android 11 1.60.116 intent real</text>
<text text-anchor="middle" x="2887" y="-214.43" font-family="Times,serif" font-size="20.00">brave Ubuntu 22.04 v1.62.156 (121.0.6167.139) selenium headless&#45;new</text>
<text text-anchor="middle" x="2887" y="-192.43" font-family="Times,serif" font-size="20.00">chrome Android 11 120.0.6099.44 intent real</text>
<text text-anchor="middle" x="2887" y="-170.43" font-family="Times,serif" font-size="20.00">chrome Ubuntu 22.04 120 selenium headless&#45;new</text>
<text text-anchor="middle" x="2887" y="-148.43" font-family="Times,serif" font-size="20.00">chrome Ubuntu 22.04 121 selenium headless&#45;new</text>
<text text-anchor="middle" x="2887" y="-126.43" font-family="Times,serif" font-size="20.00">chrome Ubuntu 22.04 122 selenium headless&#45;new</text>
<text text-anchor="middle" x="2887" y="-104.43" font-family="Times,serif" font-size="20.00">edge Ubuntu 22.04 121 selenium headless&#45;new</text>
<text text-anchor="middle" x="2887" y="-82.43" font-family="Times,serif" font-size="20.00">opera Android 11 78.4.4143.75735 intent real</text>
</g>
<!-- SG_1_Node_4 -->
<g id="node12" class="node">
<title>SG_1_Node_4</title>
<ellipse fill="none" stroke="black" cx="3256" cy="-37.21" rx="33.88" ry="21.43"/>
<text text-anchor="middle" x="3256" y="-32.21" font-family="Times,serif" font-size="20.00">1.0</text>
</g>
<!-- SG_1_Node_1&#45;&gt;SG_1_Node_4 -->
<g id="edge12" class="edge">
<title>SG_1_Node_1&#45;&gt;SG_1_Node_4</title>
<path fill="none" stroke="black" d="M3256,-292.05C3256,-247.02 3256,-126.08 3256,-68.93"/>
<polygon fill="black" stroke="black" points="3259.5,-68.71 3256,-58.71 3252.5,-68.71 3259.5,-68.71"/>
<text text-anchor="middle" x="3480.5" y="-192.43" font-family="Times,serif" font-size="20.00">firefox Ubuntu 22.04 121 selenium headless</text>
<text text-anchor="middle" x="3480.5" y="-170.43" font-family="Times,serif" font-size="20.00">firefox Ubuntu 22.04 122 selenium headless</text>
<text text-anchor="middle" x="3480.5" y="-148.43" font-family="Times,serif" font-size="20.00">firefox_beta Android 11 122.0b1 intent real</text>
</g>
<!-- SG_1_Node_5 -->
<g id="node13" class="node">
<title>SG_1_Node_5</title>
<ellipse fill="none" stroke="black" cx="3728" cy="-37.21" rx="33.88" ry="21.43"/>
<text text-anchor="middle" x="3728" y="-32.21" font-family="Times,serif" font-size="20.00">0.0</text>
</g>
<!-- SG_1_Node_2&#45;&gt;SG_1_Node_5 -->
<g id="edge9" class="edge">
<title>SG_1_Node_2&#45;&gt;SG_1_Node_5</title>
<path fill="none" stroke="black" d="M3728,-292.05C3728,-247.02 3728,-126.08 3728,-68.93"/>
<polygon fill="black" stroke="black" points="3731.5,-68.71 3728,-58.71 3724.5,-68.71 3731.5,-68.71"/>
<text text-anchor="middle" x="3952.5" y="-192.43" font-family="Times,serif" font-size="20.00">firefox Ubuntu 22.04 121 selenium headless</text>
<text text-anchor="middle" x="3952.5" y="-170.43" font-family="Times,serif" font-size="20.00">firefox Ubuntu 22.04 122 selenium headless</text>
<text text-anchor="middle" x="3952.5" y="-148.43" font-family="Times,serif" font-size="20.00">firefox_beta Android 11 122.0b1 intent real</text>
</g>
<!-- SG_1_Node_6 -->
<g id="node14" class="node">
<title>SG_1_Node_6</title>
<ellipse fill="none" stroke="black" cx="4200" cy="-37.21" rx="33.88" ry="21.43"/>
<text text-anchor="middle" x="4200" y="-32.21" font-family="Times,serif" font-size="20.00">1.0</text>
</g>
<!-- SG_1_Node_2&#45;&gt;SG_1_Node_6 -->
<g id="edge10" class="edge">
<title>SG_1_Node_2&#45;&gt;SG_1_Node_6</title>
<path fill="none" stroke="black" d="M3778.75,-309.09C3890.48,-307.83 4150.05,-301.95 4178,-274.43 4233.07,-220.19 4219.22,-118.55 4207.91,-68.14"/>
<polygon fill="black" stroke="black" points="4211.26,-67.12 4205.56,-58.19 4204.45,-68.73 4211.26,-67.12"/>
<text text-anchor="middle" x="4583" y="-258.43" font-family="Times,serif" font-size="20.00">[NA]</text>
<text text-anchor="middle" x="4583" y="-236.43" font-family="Times,serif" font-size="20.00">brave Android 11 1.60.116 intent real</text>
<text text-anchor="middle" x="4583" y="-214.43" font-family="Times,serif" font-size="20.00">brave Ubuntu 22.04 v1.62.156 (121.0.6167.139) selenium headless&#45;new</text>
<text text-anchor="middle" x="4583" y="-192.43" font-family="Times,serif" font-size="20.00">chrome Android 11 120.0.6099.44 intent real</text>
<text text-anchor="middle" x="4583" y="-170.43" font-family="Times,serif" font-size="20.00">chrome Ubuntu 22.04 120 selenium headless&#45;new</text>
<text text-anchor="middle" x="4583" y="-148.43" font-family="Times,serif" font-size="20.00">chrome Ubuntu 22.04 121 selenium headless&#45;new</text>
<text text-anchor="middle" x="4583" y="-126.43" font-family="Times,serif" font-size="20.00">chrome Ubuntu 22.04 122 selenium headless&#45;new</text>
<text text-anchor="middle" x="4583" y="-104.43" font-family="Times,serif" font-size="20.00">edge Ubuntu 22.04 121 selenium headless&#45;new</text>
<text text-anchor="middle" x="4583" y="-82.43" font-family="Times,serif" font-size="20.00">opera Android 11 78.4.4143.75735 intent real</text>
</g>
</g>
</svg>
