<?xml version="1.0" encoding="UTF-8" standalone="no"?>
<!DOCTYPE svg PUBLIC "-//W3C//DTD SVG 1.1//EN"
 "http://www.w3.org/Graphics/SVG/1.1/DTD/svg11.dtd">
<!-- Generated by graphviz version 2.43.0 (0)
 -->
<!-- Title: G Pages: 1 -->
<svg width="4217pt" height="869pt"
 viewBox="0.00 0.00 4217.00 869.28" xmlns="http://www.w3.org/2000/svg" xmlns:xlink="http://www.w3.org/1999/xlink">
<g id="graph0" class="graph" transform="scale(1 1) rotate(0) translate(4 865.28)">
<title>G</title>
<polygon fill="white" stroke="transparent" points="-4,4 -4,-865.28 4213,-865.28 4213,4 -4,4"/>
<g id="clust1" class="cluster">
<title>cluster_0</title>
<polygon fill="none" stroke="black" points="8,-8 8,-853.28 1687,-853.28 1687,-8 8,-8"/>
<text text-anchor="middle" x="847.5" y="-817.28" font-family="Times,serif" font-size="40.00">Tree 0, Class fullscreenEnabled: false</text>
</g>
<g id="clust6" class="cluster">
<title>cluster_1</title>
<polygon fill="none" stroke="black" points="1695,-262.43 1695,-853.28 2931,-853.28 2931,-262.43 1695,-262.43"/>
<text text-anchor="middle" x="2313" y="-817.28" font-family="Times,serif" font-size="40.00">Tree 0, Class fullscreenEnabled: true</text>
</g>
<g id="clust10" class="cluster">
<title>cluster_2</title>
<polygon fill="none" stroke="black" points="2939,-262.43 2939,-853.28 4194,-853.28 4194,-262.43 2939,-262.43"/>
<text text-anchor="middle" x="3566.5" y="-817.28" font-family="Times,serif" font-size="40.00">Tree 0, Class message timeout</text>
</g>
<!-- SG_0_Node_0 -->
<g id="node1" class="node">
<title>SG_0_Node_0</title>
<polygon fill="none" stroke="black" points="699.5,-793.28 598.5,-793.28 598.5,-757.28 699.5,-757.28 699.5,-793.28"/>
<text text-anchor="middle" x="649" y="-770.28" font-family="Times,serif" font-size="20.00">browser</text>
</g>
<!-- SG_0_Node_1 -->
<g id="node2" class="node">
<title>SG_0_Node_1</title>
<polygon fill="none" stroke="black" points="479,-476.07 347,-476.07 347,-440.07 479,-440.07 479,-476.07"/>
<text text-anchor="middle" x="413" y="-453.07" font-family="Times,serif" font-size="20.00">resp_origin</text>
</g>
<!-- SG_0_Node_0&#45;&gt;SG_0_Node_1 -->
<g id="edge1" class="edge">
<title>SG_0_Node_0&#45;&gt;SG_0_Node_1</title>
<path fill="none" stroke="black" d="M598.27,-774.14C536.46,-772.76 437.35,-766.26 414,-739.28 351.5,-667.04 384.28,-540.78 402.96,-485.85"/>
<polygon fill="black" stroke="black" points="406.35,-486.75 406.36,-476.16 399.75,-484.43 406.35,-486.75"/>
<text text-anchor="middle" x="638.5" y="-635.28" font-family="Times,serif" font-size="20.00">firefox Ubuntu 22.04 121 selenium headless</text>
<text text-anchor="middle" x="638.5" y="-613.28" font-family="Times,serif" font-size="20.00">firefox Ubuntu 22.04 122 selenium headless</text>
<text text-anchor="middle" x="638.5" y="-591.28" font-family="Times,serif" font-size="20.00">firefox_beta Android 11 122.0b1 intent real</text>
</g>
<!-- SG_0_Node_2 -->
<g id="node3" class="node">
<title>SG_0_Node_2</title>
<polygon fill="none" stroke="black" points="951,-476.07 819,-476.07 819,-440.07 951,-440.07 951,-476.07"/>
<text text-anchor="middle" x="885" y="-453.07" font-family="Times,serif" font-size="20.00">resp_origin</text>
</g>
<!-- SG_0_Node_0&#45;&gt;SG_0_Node_2 -->
<g id="edge2" class="edge">
<title>SG_0_Node_0&#45;&gt;SG_0_Node_2</title>
<path fill="none" stroke="black" d="M699.89,-772.97C756.12,-770.36 841.6,-762.56 863,-739.28 927.85,-668.75 906.17,-541.57 892.54,-486.13"/>
<polygon fill="black" stroke="black" points="895.9,-485.16 890.03,-476.34 889.12,-486.9 895.9,-485.16"/>
<text text-anchor="middle" x="1272" y="-701.28" font-family="Times,serif" font-size="20.00">[NA]</text>
<text text-anchor="middle" x="1272" y="-679.28" font-family="Times,serif" font-size="20.00">brave Android 11 1.60.116 intent real</text>
<text text-anchor="middle" x="1272" y="-657.28" font-family="Times,serif" font-size="20.00">brave Ubuntu 22.04 v1.62.156 (121.0.6167.139) selenium headless&#45;new</text>
<text text-anchor="middle" x="1272" y="-635.28" font-family="Times,serif" font-size="20.00">chrome Android 11 120.0.6099.44 intent real</text>
<text text-anchor="middle" x="1272" y="-613.28" font-family="Times,serif" font-size="20.00">chrome Ubuntu 22.04 120 selenium headless&#45;new</text>
<text text-anchor="middle" x="1272" y="-591.28" font-family="Times,serif" font-size="20.00">chrome Ubuntu 22.04 121 selenium headless&#45;new</text>
<text text-anchor="middle" x="1272" y="-569.28" font-family="Times,serif" font-size="20.00">chrome Ubuntu 22.04 122 selenium headless&#45;new</text>
<text text-anchor="middle" x="1272" y="-547.28" font-family="Times,serif" font-size="20.00">edge Ubuntu 22.04 121 selenium headless&#45;new</text>
<text text-anchor="middle" x="1272" y="-525.28" font-family="Times,serif" font-size="20.00">opera Android 11 78.4.4143.75735 intent real</text>
</g>
<!-- SG_0_Node_4 -->
<g id="node4" class="node">
<title>SG_0_Node_4</title>
<ellipse fill="none" stroke="black" cx="50" cy="-291.64" rx="33.88" ry="21.43"/>
<text text-anchor="middle" x="50" y="-286.64" font-family="Times,serif" font-size="20.00">0.0</text>
</g>
<!-- SG_0_Node_1&#45;&gt;SG_0_Node_4 -->
<g id="edge7" class="edge">
<title>SG_0_Node_1&#45;&gt;SG_0_Node_4</title>
<path fill="none" stroke="black" d="M346.67,-455C244.98,-451.15 60.12,-441.14 40,-418.85 16.42,-392.73 26.25,-349.91 36.92,-321.5"/>
<polygon fill="black" stroke="black" points="40.21,-322.68 40.67,-312.1 33.71,-320.09 40.21,-322.68"/>
<text text-anchor="middle" x="226.5" y="-391.85" font-family="Times,serif" font-size="20.00">[NA]</text>
<text text-anchor="middle" x="226.5" y="-369.85" font-family="Times,serif" font-size="20.00">http://sub.headers.websec.saarland</text>
<text text-anchor="middle" x="226.5" y="-347.85" font-family="Times,serif" font-size="20.00">https://sub.headers.websec.saarland</text>
</g>
<!-- SG_0_Node_5 -->
<g id="node5" class="node">
<title>SG_0_Node_5</title>
<ellipse fill="none" stroke="black" cx="430" cy="-291.64" rx="33.88" ry="21.43"/>
<text text-anchor="middle" x="430" y="-286.64" font-family="Times,serif" font-size="20.00">1.0</text>
</g>
<!-- SG_0_Node_1&#45;&gt;SG_0_Node_5 -->
<g id="edge8" class="edge">
<title>SG_0_Node_1&#45;&gt;SG_0_Node_5</title>
<path fill="none" stroke="black" d="M414.79,-439.78C417.65,-412.06 423.32,-357.29 426.87,-322.96"/>
<polygon fill="black" stroke="black" points="430.35,-323.32 427.89,-313.01 423.38,-322.6 430.35,-323.32"/>
<text text-anchor="middle" x="632.5" y="-391.85" font-family="Times,serif" font-size="20.00">https://headers.webappsec.eu</text>
<text text-anchor="middle" x="632.5" y="-369.85" font-family="Times,serif" font-size="20.00">https://headers.websec.saarland</text>
<text text-anchor="middle" x="632.5" y="-347.85" font-family="Times,serif" font-size="20.00">https://sub.sub.headers.websec.saarland</text>
</g>
<!-- SG_0_Node_3 -->
<g id="node6" class="node">
<title>SG_0_Node_3</title>
<polygon fill="none" stroke="black" points="918.5,-309.64 817.5,-309.64 817.5,-273.64 918.5,-273.64 918.5,-309.64"/>
<text text-anchor="middle" x="868" y="-286.64" font-family="Times,serif" font-size="20.00">browser</text>
</g>
<!-- SG_0_Node_2&#45;&gt;SG_0_Node_3 -->
<g id="edge3" class="edge">
<title>SG_0_Node_2&#45;&gt;SG_0_Node_3</title>
<path fill="none" stroke="black" d="M876.2,-440.02C873.31,-433.57 870.47,-426.04 869,-418.85 862.15,-385.42 863.26,-345.95 865.19,-320.16"/>
<polygon fill="black" stroke="black" points="868.69,-320.27 866.04,-310.01 861.71,-319.68 868.69,-320.27"/>
<text text-anchor="middle" x="1076.5" y="-380.85" font-family="Times,serif" font-size="20.00">https://headers.websec.saarland</text>
<text text-anchor="middle" x="1076.5" y="-358.85" font-family="Times,serif" font-size="20.00">https://sub.sub.headers.websec.saarland</text>
</g>
<!-- SG_0_Node_6 -->
<g id="node7" class="node">
<title>SG_0_Node_6</title>
<ellipse fill="none" stroke="black" cx="1306" cy="-291.64" rx="33.88" ry="21.43"/>
<text text-anchor="middle" x="1306" y="-286.64" font-family="Times,serif" font-size="20.00">1.0</text>
</g>
<!-- SG_0_Node_2&#45;&gt;SG_0_Node_6 -->
<g id="edge4" class="edge">
<title>SG_0_Node_2&#45;&gt;SG_0_Node_6</title>
<path fill="none" stroke="black" d="M951.13,-455.05C1058.23,-451.16 1260.13,-440.95 1284,-418.85 1309.88,-394.9 1312.14,-352.21 1310.11,-323.18"/>
<polygon fill="black" stroke="black" points="1313.59,-322.8 1309.21,-313.16 1306.62,-323.43 1313.59,-322.8"/>
<text text-anchor="middle" x="1496.5" y="-402.85" font-family="Times,serif" font-size="20.00">[NA]</text>
<text text-anchor="middle" x="1496.5" y="-380.85" font-family="Times,serif" font-size="20.00">http://sub.headers.websec.saarland</text>
<text text-anchor="middle" x="1496.5" y="-358.85" font-family="Times,serif" font-size="20.00">https://headers.webappsec.eu</text>
<text text-anchor="middle" x="1496.5" y="-336.85" font-family="Times,serif" font-size="20.00">https://sub.headers.websec.saarland</text>
</g>
<!-- SG_0_Node_7 -->
<g id="node8" class="node">
<title>SG_0_Node_7</title>
<ellipse fill="none" stroke="black" cx="417" cy="-37.21" rx="33.88" ry="21.43"/>
<text text-anchor="middle" x="417" y="-32.21" font-family="Times,serif" font-size="20.00">0.0</text>
</g>
<!-- SG_0_Node_3&#45;&gt;SG_0_Node_7 -->
<g id="edge5" class="edge">
<title>SG_0_Node_3&#45;&gt;SG_0_Node_7</title>
<path fill="none" stroke="black" d="M817.26,-287.27C700.21,-279.37 420.77,-259.79 414,-252.43 367.66,-202.02 389.51,-113.35 405.45,-67.5"/>
<polygon fill="black" stroke="black" points="408.82,-68.46 408.93,-57.87 402.24,-66.08 408.82,-68.46"/>
<text text-anchor="middle" x="648" y="-159.43" font-family="Times,serif" font-size="20.00">opera Android 11 78.4.4143.75735 intent real</text>
</g>
<!-- SG_0_Node_8 -->
<g id="node9" class="node">
<title>SG_0_Node_8</title>
<ellipse fill="none" stroke="black" cx="908" cy="-37.21" rx="33.88" ry="21.43"/>
<text text-anchor="middle" x="908" y="-32.21" font-family="Times,serif" font-size="20.00">1.0</text>
</g>
<!-- SG_0_Node_3&#45;&gt;SG_0_Node_8 -->
<g id="edge6" class="edge">
<title>SG_0_Node_3&#45;&gt;SG_0_Node_8</title>
<path fill="none" stroke="black" d="M877.53,-273.62C880.73,-267.16 884,-259.63 886,-252.43 903.69,-188.81 907.44,-111.01 908.07,-68.88"/>
<polygon fill="black" stroke="black" points="911.57,-68.75 908.17,-58.72 904.57,-68.68 911.57,-68.75"/>
<text text-anchor="middle" x="1272" y="-236.43" font-family="Times,serif" font-size="20.00">[NA]</text>
<text text-anchor="middle" x="1272" y="-214.43" font-family="Times,serif" font-size="20.00">brave Android 11 1.60.116 intent real</text>
<text text-anchor="middle" x="1272" y="-192.43" font-family="Times,serif" font-size="20.00">brave Ubuntu 22.04 v1.62.156 (121.0.6167.139) selenium headless&#45;new</text>
<text text-anchor="middle" x="1272" y="-170.43" font-family="Times,serif" font-size="20.00">chrome Android 11 120.0.6099.44 intent real</text>
<text text-anchor="middle" x="1272" y="-148.43" font-family="Times,serif" font-size="20.00">chrome Ubuntu 22.04 120 selenium headless&#45;new</text>
<text text-anchor="middle" x="1272" y="-126.43" font-family="Times,serif" font-size="20.00">chrome Ubuntu 22.04 121 selenium headless&#45;new</text>
<text text-anchor="middle" x="1272" y="-104.43" font-family="Times,serif" font-size="20.00">chrome Ubuntu 22.04 122 selenium headless&#45;new</text>
<text text-anchor="middle" x="1272" y="-82.43" font-family="Times,serif" font-size="20.00">edge Ubuntu 22.04 121 selenium headless&#45;new</text>
</g>
<!-- SG_1_Node_0 -->
<g id="node10" class="node">
<title>SG_1_Node_0</title>
<polygon fill="none" stroke="black" points="2164.5,-793.28 2063.5,-793.28 2063.5,-757.28 2164.5,-757.28 2164.5,-793.28"/>
<text text-anchor="middle" x="2114" y="-770.28" font-family="Times,serif" font-size="20.00">browser</text>
</g>
<!-- SG_1_Node_2 -->
<g id="node11" class="node">
<title>SG_1_Node_2</title>
<ellipse fill="none" stroke="black" cx="1737" cy="-458.07" rx="33.88" ry="21.43"/>
<text text-anchor="middle" x="1737" y="-453.07" font-family="Times,serif" font-size="20.00">0.0</text>
</g>
<!-- SG_1_Node_0&#45;&gt;SG_1_Node_2 -->
<g id="edge9" class="edge">
<title>SG_1_Node_0&#45;&gt;SG_1_Node_2</title>
<path fill="none" stroke="black" d="M2063.48,-773.54C1961.96,-771.53 1740.89,-764.29 1718,-739.28 1681.69,-699.61 1705.7,-549.63 1718,-497.28 1718.76,-494.03 1719.84,-490.75 1721.11,-487.54"/>
<polygon fill="black" stroke="black" points="1724.38,-488.8 1725.32,-478.24 1718,-485.91 1724.38,-488.8"/>
<text text-anchor="middle" x="2083" y="-701.28" font-family="Times,serif" font-size="20.00">[NA]</text>
<text text-anchor="middle" x="2083" y="-679.28" font-family="Times,serif" font-size="20.00">brave Android 11 1.60.116 intent real</text>
<text text-anchor="middle" x="2083" y="-657.28" font-family="Times,serif" font-size="20.00">brave Ubuntu 22.04 v1.62.156 (121.0.6167.139) selenium headless&#45;new</text>
<text text-anchor="middle" x="2083" y="-635.28" font-family="Times,serif" font-size="20.00">chrome Android 11 120.0.6099.44 intent real</text>
<text text-anchor="middle" x="2083" y="-613.28" font-family="Times,serif" font-size="20.00">chrome Ubuntu 22.04 120 selenium headless&#45;new</text>
<text text-anchor="middle" x="2083" y="-591.28" font-family="Times,serif" font-size="20.00">chrome Ubuntu 22.04 121 selenium headless&#45;new</text>
<text text-anchor="middle" x="2083" y="-569.28" font-family="Times,serif" font-size="20.00">chrome Ubuntu 22.04 122 selenium headless&#45;new</text>
<text text-anchor="middle" x="2083" y="-547.28" font-family="Times,serif" font-size="20.00">edge Ubuntu 22.04 121 selenium headless&#45;new</text>
<text text-anchor="middle" x="2083" y="-525.28" font-family="Times,serif" font-size="20.00">opera Android 11 78.4.4143.75735 intent real</text>
</g>
<!-- SG_1_Node_1 -->
<g id="node12" class="node">
<title>SG_1_Node_1</title>
<polygon fill="none" stroke="black" points="2540,-476.07 2408,-476.07 2408,-440.07 2540,-440.07 2540,-476.07"/>
<text text-anchor="middle" x="2474" y="-453.07" font-family="Times,serif" font-size="20.00">resp_origin</text>
</g>
<!-- SG_1_Node_0&#45;&gt;SG_1_Node_1 -->
<g id="edge10" class="edge">
<title>SG_1_Node_0&#45;&gt;SG_1_Node_1</title>
<path fill="none" stroke="black" d="M2164.5,-772.56C2253.86,-769 2432.33,-759.44 2452,-739.28 2486.47,-703.95 2480.2,-549.48 2476.05,-486.22"/>
<polygon fill="black" stroke="black" points="2479.54,-485.94 2475.36,-476.2 2472.56,-486.42 2479.54,-485.94"/>
<text text-anchor="middle" x="2703.5" y="-635.28" font-family="Times,serif" font-size="20.00">firefox Ubuntu 22.04 121 selenium headless</text>
<text text-anchor="middle" x="2703.5" y="-613.28" font-family="Times,serif" font-size="20.00">firefox Ubuntu 22.04 122 selenium headless</text>
<text text-anchor="middle" x="2703.5" y="-591.28" font-family="Times,serif" font-size="20.00">firefox_beta Android 11 122.0b1 intent real</text>
</g>
<!-- SG_1_Node_3 -->
<g id="node13" class="node">
<title>SG_1_Node_3</title>
<ellipse fill="none" stroke="black" cx="2074" cy="-291.64" rx="33.88" ry="21.43"/>
<text text-anchor="middle" x="2074" y="-286.64" font-family="Times,serif" font-size="20.00">0.0</text>
</g>
<!-- SG_1_Node_1&#45;&gt;SG_1_Node_3 -->
<g id="edge11" class="edge">
<title>SG_1_Node_1&#45;&gt;SG_1_Node_3</title>
<path fill="none" stroke="black" d="M2407.64,-455.56C2299.05,-452.39 2093.17,-443.22 2071,-418.85 2047.62,-393.15 2054.35,-350.88 2062.86,-322.42"/>
<polygon fill="black" stroke="black" points="2066.28,-323.2 2066.02,-312.61 2059.62,-321.05 2066.28,-323.2"/>
<text text-anchor="middle" x="2278.5" y="-391.85" font-family="Times,serif" font-size="20.00">https://headers.webappsec.eu</text>
<text text-anchor="middle" x="2278.5" y="-369.85" font-family="Times,serif" font-size="20.00">https://headers.websec.saarland</text>
<text text-anchor="middle" x="2278.5" y="-347.85" font-family="Times,serif" font-size="20.00">https://sub.sub.headers.websec.saarland</text>
</g>
<!-- SG_1_Node_4 -->
<g id="node14" class="node">
<title>SG_1_Node_4</title>
<ellipse fill="none" stroke="black" cx="2512" cy="-291.64" rx="33.88" ry="21.43"/>
<text text-anchor="middle" x="2512" y="-286.64" font-family="Times,serif" font-size="20.00">1.0</text>
</g>
<!-- SG_1_Node_1&#45;&gt;SG_1_Node_4 -->
<g id="edge12" class="edge">
<title>SG_1_Node_1&#45;&gt;SG_1_Node_4</title>
<path fill="none" stroke="black" d="M2482.17,-439.86C2484.98,-433.39 2487.94,-425.89 2490,-418.85 2499.38,-386.77 2505.33,-348.85 2508.64,-323.02"/>
<polygon fill="black" stroke="black" points="2512.12,-323.42 2509.87,-313.07 2505.17,-322.57 2512.12,-323.42"/>
<text text-anchor="middle" x="2693.5" y="-391.85" font-family="Times,serif" font-size="20.00">[NA]</text>
<text text-anchor="middle" x="2693.5" y="-369.85" font-family="Times,serif" font-size="20.00">http://sub.headers.websec.saarland</text>
<text text-anchor="middle" x="2693.5" y="-347.85" font-family="Times,serif" font-size="20.00">https://sub.headers.websec.saarland</text>
</g>
<!-- SG_2_Node_0 -->
<g id="node15" class="node">
<title>SG_2_Node_0</title>
<polygon fill="none" stroke="black" points="3408.5,-793.28 3307.5,-793.28 3307.5,-757.28 3408.5,-757.28 3408.5,-793.28"/>
<text text-anchor="middle" x="3358" y="-770.28" font-family="Times,serif" font-size="20.00">browser</text>
</g>
<!-- SG_2_Node_2 -->
<g id="node16" class="node">
<title>SG_2_Node_2</title>
<ellipse fill="none" stroke="black" cx="2981" cy="-458.07" rx="33.88" ry="21.43"/>
<text text-anchor="middle" x="2981" y="-453.07" font-family="Times,serif" font-size="20.00">0.0</text>
</g>
<!-- SG_2_Node_0&#45;&gt;SG_2_Node_2 -->
<g id="edge13" class="edge">
<title>SG_2_Node_0&#45;&gt;SG_2_Node_2</title>
<path fill="none" stroke="black" d="M3307.48,-773.54C3205.96,-771.53 2984.89,-764.29 2962,-739.28 2925.69,-699.61 2949.7,-549.63 2962,-497.28 2962.76,-494.03 2963.84,-490.75 2965.11,-487.54"/>
<polygon fill="black" stroke="black" points="2968.38,-488.8 2969.32,-478.24 2962,-485.91 2968.38,-488.8"/>
<text text-anchor="middle" x="3327" y="-723.28" font-family="Times,serif" font-size="20.00">[NA]</text>
<text text-anchor="middle" x="3327" y="-701.28" font-family="Times,serif" font-size="20.00">brave Android 11 1.60.116 intent real</text>
<text text-anchor="middle" x="3327" y="-679.28" font-family="Times,serif" font-size="20.00">brave Ubuntu 22.04 v1.62.156 (121.0.6167.139) selenium headless&#45;new</text>
<text text-anchor="middle" x="3327" y="-657.28" font-family="Times,serif" font-size="20.00">chrome Android 11 120.0.6099.44 intent real</text>
<text text-anchor="middle" x="3327" y="-635.28" font-family="Times,serif" font-size="20.00">chrome Ubuntu 22.04 120 selenium headless&#45;new</text>
<text text-anchor="middle" x="3327" y="-613.28" font-family="Times,serif" font-size="20.00">chrome Ubuntu 22.04 121 selenium headless&#45;new</text>
<text text-anchor="middle" x="3327" y="-591.28" font-family="Times,serif" font-size="20.00">chrome Ubuntu 22.04 122 selenium headless&#45;new</text>
<text text-anchor="middle" x="3327" y="-569.28" font-family="Times,serif" font-size="20.00">edge Ubuntu 22.04 121 selenium headless&#45;new</text>
<text text-anchor="middle" x="3327" y="-547.28" font-family="Times,serif" font-size="20.00">firefox Ubuntu 22.04 121 selenium headless</text>
<text text-anchor="middle" x="3327" y="-525.28" font-family="Times,serif" font-size="20.00">firefox Ubuntu 22.04 122 selenium headless</text>
<text text-anchor="middle" x="3327" y="-503.28" font-family="Times,serif" font-size="20.00">firefox_beta Android 11 122.0b1 intent real</text>
</g>
<!-- SG_2_Node_1 -->
<g id="node17" class="node">
<title>SG_2_Node_1</title>
<polygon fill="none" stroke="black" points="3784,-476.07 3652,-476.07 3652,-440.07 3784,-440.07 3784,-476.07"/>
<text text-anchor="middle" x="3718" y="-453.07" font-family="Times,serif" font-size="20.00">resp_origin</text>
</g>
<!-- SG_2_Node_0&#45;&gt;SG_2_Node_1 -->
<g id="edge14" class="edge">
<title>SG_2_Node_0&#45;&gt;SG_2_Node_1</title>
<path fill="none" stroke="black" d="M3408.5,-772.56C3497.86,-769 3676.33,-759.44 3696,-739.28 3763.06,-670.53 3740.01,-541.87 3725.77,-486.05"/>
<polygon fill="black" stroke="black" points="3729.1,-484.96 3723.15,-476.2 3722.34,-486.76 3729.1,-484.96"/>
<text text-anchor="middle" x="3975" y="-613.28" font-family="Times,serif" font-size="20.00">opera Android 11 78.4.4143.75735 intent real</text>
</g>
<!-- SG_2_Node_3 -->
<g id="node18" class="node">
<title>SG_2_Node_3</title>
<ellipse fill="none" stroke="black" cx="3348" cy="-291.64" rx="33.88" ry="21.43"/>
<text text-anchor="middle" x="3348" y="-286.64" font-family="Times,serif" font-size="20.00">0.0</text>
</g>
<!-- SG_2_Node_1&#45;&gt;SG_2_Node_3 -->
<g id="edge15" class="edge">
<title>SG_2_Node_1&#45;&gt;SG_2_Node_3</title>
<path fill="none" stroke="black" d="M3651.61,-454.96C3550.38,-451.06 3366.98,-441 3347,-418.85 3323.73,-393.06 3329.66,-350.81 3337.56,-322.38"/>
<polygon fill="black" stroke="black" points="3340.97,-323.17 3340.5,-312.59 3334.27,-321.15 3340.97,-323.17"/>
<text text-anchor="middle" x="3533.5" y="-402.85" font-family="Times,serif" font-size="20.00">[NA]</text>
<text text-anchor="middle" x="3533.5" y="-380.85" font-family="Times,serif" font-size="20.00">http://sub.headers.websec.saarland</text>
<text text-anchor="middle" x="3533.5" y="-358.85" font-family="Times,serif" font-size="20.00">https://headers.webappsec.eu</text>
<text text-anchor="middle" x="3533.5" y="-336.85" font-family="Times,serif" font-size="20.00">https://sub.headers.websec.saarland</text>
</g>
<!-- SG_2_Node_4 -->
<g id="node19" class="node">
<title>SG_2_Node_4</title>
<ellipse fill="none" stroke="black" cx="3744" cy="-291.64" rx="33.88" ry="21.43"/>
<text text-anchor="middle" x="3744" y="-286.64" font-family="Times,serif" font-size="20.00">1.0</text>
</g>
<!-- SG_2_Node_1&#45;&gt;SG_2_Node_4 -->
<g id="edge16" class="edge">
<title>SG_2_Node_1&#45;&gt;SG_2_Node_4</title>
<path fill="none" stroke="black" d="M3720.73,-439.78C3725.12,-412.06 3733.78,-357.29 3739.21,-322.96"/>
<polygon fill="black" stroke="black" points="3742.67,-323.43 3740.78,-313.01 3735.76,-322.34 3742.67,-323.43"/>
<text text-anchor="middle" x="3944.5" y="-380.85" font-family="Times,serif" font-size="20.00">https://headers.websec.saarland</text>
<text text-anchor="middle" x="3944.5" y="-358.85" font-family="Times,serif" font-size="20.00">https://sub.sub.headers.websec.saarland</text>
</g>
</g>
</svg>
