<?xml version="1.0" encoding="UTF-8" standalone="no"?>
<!DOCTYPE svg PUBLIC "-//W3C//DTD SVG 1.1//EN"
 "http://www.w3.org/Graphics/SVG/1.1/DTD/svg11.dtd">
<!-- Generated by graphviz version 2.43.0 (0)
 -->
<!-- Title: G Pages: 1 -->
<svg width="4602pt" height="1510pt"
 viewBox="0.00 0.00 4602.00 1510.13" xmlns="http://www.w3.org/2000/svg" xmlns:xlink="http://www.w3.org/1999/xlink">
<g id="graph0" class="graph" transform="scale(1 1) rotate(0) translate(4 1506.13)">
<title>G</title>
<polygon fill="white" stroke="transparent" points="-4,4 -4,-1506.13 4598,-1506.13 4598,4 -4,4"/>
<g id="clust1" class="cluster">
<title>cluster_0</title>
<polygon fill="none" stroke="black" points="8,-8 8,-1494.13 1335,-1494.13 1335,-8 8,-8"/>
<text text-anchor="middle" x="671.5" y="-1458.13" font-family="Times,serif" font-size="40.00">Tree 0, Class fullscreenEnabled: false</text>
</g>
<g id="clust8" class="cluster">
<title>cluster_1</title>
<polygon fill="none" stroke="black" points="1343,-815.28 1343,-1494.13 2802,-1494.13 2802,-815.28 1343,-815.28"/>
<text text-anchor="middle" x="2072.5" y="-1458.13" font-family="Times,serif" font-size="40.00">Tree 0, Class fullscreenEnabled: true</text>
</g>
<g id="clust12" class="cluster">
<title>cluster_2</title>
<polygon fill="none" stroke="black" points="2810,-8 2810,-1494.13 4582,-1494.13 4582,-8 2810,-8"/>
<text text-anchor="middle" x="3696" y="-1458.13" font-family="Times,serif" font-size="40.00">Tree 0, Class message timeout</text>
</g>
<!-- SG_0_Node_0 -->
<g id="node1" class="node">
<title>SG_0_Node_0</title>
<polygon fill="none" stroke="black" points="344.5,-1434.13 243.5,-1434.13 243.5,-1398.13 344.5,-1398.13 344.5,-1434.13"/>
<text text-anchor="middle" x="294" y="-1411.13" font-family="Times,serif" font-size="20.00">browser</text>
</g>
<!-- SG_0_Node_5 -->
<g id="node2" class="node">
<title>SG_0_Node_5</title>
<ellipse fill="none" stroke="black" cx="87" cy="-1142.92" rx="33.88" ry="21.43"/>
<text text-anchor="middle" x="87" y="-1137.92" font-family="Times,serif" font-size="20.00">0.0</text>
</g>
<!-- SG_0_Node_0&#45;&gt;SG_0_Node_5 -->
<g id="edge1" class="edge">
<title>SG_0_Node_0&#45;&gt;SG_0_Node_5</title>
<path fill="none" stroke="black" d="M243.23,-1413.74C188.8,-1411.04 107.53,-1403.16 88,-1380.13 38.47,-1321.73 60.66,-1222.86 76.3,-1173.62"/>
<polygon fill="black" stroke="black" points="79.7,-1174.5 79.51,-1163.9 73.05,-1172.3 79.7,-1174.5"/>
<text text-anchor="middle" x="312.5" y="-1298.13" font-family="Times,serif" font-size="20.00">firefox Ubuntu 22.04 121 selenium headless</text>
<text text-anchor="middle" x="312.5" y="-1276.13" font-family="Times,serif" font-size="20.00">firefox Ubuntu 22.04 122 selenium headless</text>
<text text-anchor="middle" x="312.5" y="-1254.13" font-family="Times,serif" font-size="20.00">firefox_beta Android 11 122.0b1 intent real</text>
</g>
<!-- SG_0_Node_1 -->
<g id="node3" class="node">
<title>SG_0_Node_1</title>
<polygon fill="none" stroke="black" points="627.5,-1160.92 490.5,-1160.92 490.5,-1124.92 627.5,-1124.92 627.5,-1160.92"/>
<text text-anchor="middle" x="559" y="-1137.92" font-family="Times,serif" font-size="20.00">raw_header</text>
</g>
<!-- SG_0_Node_0&#45;&gt;SG_0_Node_1 -->
<g id="edge2" class="edge">
<title>SG_0_Node_0&#45;&gt;SG_0_Node_1</title>
<path fill="none" stroke="black" d="M344.68,-1414.94C408.07,-1413.53 511.41,-1407.04 537,-1380.13 591.21,-1323.13 576.78,-1219.71 565.95,-1170.86"/>
<polygon fill="black" stroke="black" points="569.34,-1169.97 563.66,-1161.02 562.52,-1171.56 569.34,-1169.97"/>
<text text-anchor="middle" x="941" y="-1364.13" font-family="Times,serif" font-size="20.00">[NA]</text>
<text text-anchor="middle" x="941" y="-1342.13" font-family="Times,serif" font-size="20.00">brave Android 11 1.60.116 intent real</text>
<text text-anchor="middle" x="941" y="-1320.13" font-family="Times,serif" font-size="20.00">brave Ubuntu 22.04 v1.62.156 (121.0.6167.139) selenium headless&#45;new</text>
<text text-anchor="middle" x="941" y="-1298.13" font-family="Times,serif" font-size="20.00">chrome Android 11 120.0.6099.44 intent real</text>
<text text-anchor="middle" x="941" y="-1276.13" font-family="Times,serif" font-size="20.00">chrome Ubuntu 22.04 120 selenium headless&#45;new</text>
<text text-anchor="middle" x="941" y="-1254.13" font-family="Times,serif" font-size="20.00">chrome Ubuntu 22.04 121 selenium headless&#45;new</text>
<text text-anchor="middle" x="941" y="-1232.13" font-family="Times,serif" font-size="20.00">chrome Ubuntu 22.04 122 selenium headless&#45;new</text>
<text text-anchor="middle" x="941" y="-1210.13" font-family="Times,serif" font-size="20.00">edge Ubuntu 22.04 121 selenium headless&#45;new</text>
<text text-anchor="middle" x="941" y="-1188.13" font-family="Times,serif" font-size="20.00">opera Android 11 78.4.4143.75735 intent real</text>
</g>
<!-- SG_0_Node_6 -->
<g id="node4" class="node">
<title>SG_0_Node_6</title>
<ellipse fill="none" stroke="black" cx="50" cy="-844.49" rx="33.88" ry="21.43"/>
<text text-anchor="middle" x="50" y="-839.49" font-family="Times,serif" font-size="20.00">0.0</text>
</g>
<!-- SG_0_Node_1&#45;&gt;SG_0_Node_6 -->
<g id="edge3" class="edge">
<title>SG_0_Node_1&#45;&gt;SG_0_Node_6</title>
<path fill="none" stroke="black" d="M490.24,-1139.37C351.58,-1133.88 50.27,-1120.13 35,-1103.71 -23.58,-1040.7 13.92,-927.39 36.5,-874.35"/>
<polygon fill="black" stroke="black" points="39.71,-875.74 40.52,-865.17 33.3,-872.93 39.71,-875.74"/>
<text text-anchor="middle" x="618" y="-1087.71" font-family="Times,serif" font-size="20.00">[[&#39;x00permissions&#45;policy&#39;, &#39;fullscreen=()&#39;]]</text>
<text text-anchor="middle" x="618" y="-1065.71" font-family="Times,serif" font-size="20.00">[[&#39;x00permissions&#45;policy&#39;, &#39;fullscreen=(*)&#39;]]</text>
<text text-anchor="middle" x="618" y="-1043.71" font-family="Times,serif" font-size="20.00">[[&#39;x00permissions&#45;policy&#39;, &#39;fullscreen=(self)&#39;]]</text>
<text text-anchor="middle" x="618" y="-1021.71" font-family="Times,serif" font-size="20.00">[[&#39;permissiox00ns&#45;policy&#39;, &#39;fullscreen=()&#39;]]</text>
<text text-anchor="middle" x="618" y="-999.71" font-family="Times,serif" font-size="20.00">[[&#39;permissiox00ns&#45;policy&#39;, &#39;fullscreen=(*)&#39;]]</text>
<text text-anchor="middle" x="618" y="-977.71" font-family="Times,serif" font-size="20.00">[[&#39;permissiox00ns&#45;policy&#39;, &#39;fullscreen=(self)&#39;]]</text>
<text text-anchor="middle" x="618" y="-955.71" font-family="Times,serif" font-size="20.00">[[&#39;permissions&#45;policy&#39;, &#39;fullscreen=(*)&#39;], [&#39;location&#39;, &#39;https://sub.headers.websec.saarland/_hp/common/empty.html&#39;]]</text>
<text text-anchor="middle" x="618" y="-933.71" font-family="Times,serif" font-size="20.00">[[&#39;permissions&#45;policyx00&#39;, &#39;fullscreen=()&#39;]]</text>
<text text-anchor="middle" x="618" y="-911.71" font-family="Times,serif" font-size="20.00">[[&#39;permissions&#45;policyx00&#39;, &#39;fullscreen=(*)&#39;]]</text>
<text text-anchor="middle" x="618" y="-889.71" font-family="Times,serif" font-size="20.00">[[&#39;permissions&#45;policyx00&#39;, &#39;fullscreen=(self)&#39;]]</text>
</g>
<!-- SG_0_Node_2 -->
<g id="node5" class="node">
<title>SG_0_Node_2</title>
<polygon fill="none" stroke="black" points="1236.5,-862.49 1099.5,-862.49 1099.5,-826.49 1236.5,-826.49 1236.5,-862.49"/>
<text text-anchor="middle" x="1168" y="-839.49" font-family="Times,serif" font-size="20.00">raw_header</text>
</g>
<!-- SG_0_Node_1&#45;&gt;SG_0_Node_2 -->
<g id="edge4" class="edge">
<title>SG_0_Node_1&#45;&gt;SG_0_Node_2</title>
<path fill="none" stroke="black" d="M627.66,-1140.33C789.27,-1136.27 1181.57,-1124.33 1201,-1103.71 1234.53,-1068.12 1218.05,-929.53 1201,-883.71 1199.29,-879.12 1196.76,-874.72 1193.85,-870.64"/>
<polygon fill="black" stroke="black" points="1196.48,-868.33 1187.47,-862.76 1191.04,-872.73 1196.48,-868.33"/>
<text text-anchor="middle" x="1272" y="-999.71" font-family="Times,serif" font-size="20.00">[NA]</text>
<text text-anchor="middle" x="1272" y="-977.71" font-family="Times,serif" font-size="20.00">346 levels</text>
</g>
<!-- SG_0_Node_3 -->
<g id="node6" class="node">
<title>SG_0_Node_3</title>
<polygon fill="none" stroke="black" points="647.5,-586.07 546.5,-586.07 546.5,-550.07 647.5,-550.07 647.5,-586.07"/>
<text text-anchor="middle" x="597" y="-563.07" font-family="Times,serif" font-size="20.00">browser</text>
</g>
<!-- SG_0_Node_2&#45;&gt;SG_0_Node_3 -->
<g id="edge5" class="edge">
<title>SG_0_Node_2&#45;&gt;SG_0_Node_3</title>
<path fill="none" stroke="black" d="M1099.44,-843.25C1002.59,-841.83 831.52,-835.03 778,-805.28 690.58,-756.69 631.87,-646.5 608.44,-595.67"/>
<polygon fill="black" stroke="black" points="611.53,-594.01 604.23,-586.33 605.15,-596.89 611.53,-594.01"/>
<text text-anchor="middle" x="971" y="-701.28" font-family="Times,serif" font-size="20.00">[[&#39;Feature&#45;Policy&#39;, &quot;fullscreen &#39;none&#39;&quot;]]</text>
</g>
<!-- SG_0_Node_7 -->
<g id="node7" class="node">
<title>SG_0_Node_7</title>
<ellipse fill="none" stroke="black" cx="1168" cy="-568.07" rx="33.88" ry="21.43"/>
<text text-anchor="middle" x="1168" y="-563.07" font-family="Times,serif" font-size="20.00">1.0</text>
</g>
<!-- SG_0_Node_2&#45;&gt;SG_0_Node_7 -->
<g id="edge6" class="edge">
<title>SG_0_Node_2&#45;&gt;SG_0_Node_7</title>
<path fill="none" stroke="black" d="M1168,-826.33C1168,-781.02 1168,-657.74 1168,-599.86"/>
<polygon fill="black" stroke="black" points="1171.5,-599.52 1168,-589.52 1164.5,-599.52 1171.5,-599.52"/>
<text text-anchor="middle" x="1220" y="-712.28" font-family="Times,serif" font-size="20.00">[NA]</text>
<text text-anchor="middle" x="1220" y="-690.28" font-family="Times,serif" font-size="20.00">345 levels</text>
</g>
<!-- SG_0_Node_4 -->
<g id="node8" class="node">
<title>SG_0_Node_4</title>
<polygon fill="none" stroke="black" points="172,-265.64 40,-265.64 40,-229.64 172,-229.64 172,-265.64"/>
<text text-anchor="middle" x="106" y="-242.64" font-family="Times,serif" font-size="20.00">resp_origin</text>
</g>
<!-- SG_0_Node_3&#45;&gt;SG_0_Node_4 -->
<g id="edge7" class="edge">
<title>SG_0_Node_3&#45;&gt;SG_0_Node_4</title>
<path fill="none" stroke="black" d="M546.32,-566.62C430.49,-565.09 154.13,-558.36 125,-528.85 57.59,-460.55 82.6,-331.65 97.77,-275.69"/>
<polygon fill="black" stroke="black" points="101.21,-276.39 100.55,-265.82 94.47,-274.5 101.21,-276.39"/>
<text text-anchor="middle" x="359" y="-402.85" font-family="Times,serif" font-size="20.00">opera Android 11 78.4.4143.75735 intent real</text>
</g>
<!-- SG_0_Node_8 -->
<g id="node9" class="node">
<title>SG_0_Node_8</title>
<ellipse fill="none" stroke="black" cx="597" cy="-247.64" rx="33.88" ry="21.43"/>
<text text-anchor="middle" x="597" y="-242.64" font-family="Times,serif" font-size="20.00">1.0</text>
</g>
<!-- SG_0_Node_3&#45;&gt;SG_0_Node_8 -->
<g id="edge8" class="edge">
<title>SG_0_Node_3&#45;&gt;SG_0_Node_8</title>
<path fill="none" stroke="black" d="M597,-549.95C597,-498.55 597,-345.1 597,-279.23"/>
<polygon fill="black" stroke="black" points="600.5,-279.07 597,-269.07 593.5,-279.07 600.5,-279.07"/>
<text text-anchor="middle" x="962" y="-479.85" font-family="Times,serif" font-size="20.00">[NA]</text>
<text text-anchor="middle" x="962" y="-457.85" font-family="Times,serif" font-size="20.00">brave Android 11 1.60.116 intent real</text>
<text text-anchor="middle" x="962" y="-435.85" font-family="Times,serif" font-size="20.00">brave Ubuntu 22.04 v1.62.156 (121.0.6167.139) selenium headless&#45;new</text>
<text text-anchor="middle" x="962" y="-413.85" font-family="Times,serif" font-size="20.00">chrome Android 11 120.0.6099.44 intent real</text>
<text text-anchor="middle" x="962" y="-391.85" font-family="Times,serif" font-size="20.00">chrome Ubuntu 22.04 120 selenium headless&#45;new</text>
<text text-anchor="middle" x="962" y="-369.85" font-family="Times,serif" font-size="20.00">chrome Ubuntu 22.04 121 selenium headless&#45;new</text>
<text text-anchor="middle" x="962" y="-347.85" font-family="Times,serif" font-size="20.00">chrome Ubuntu 22.04 122 selenium headless&#45;new</text>
<text text-anchor="middle" x="962" y="-325.85" font-family="Times,serif" font-size="20.00">edge Ubuntu 22.04 121 selenium headless&#45;new</text>
</g>
<!-- SG_0_Node_9 -->
<g id="node10" class="node">
<title>SG_0_Node_9</title>
<ellipse fill="none" stroke="black" cx="78" cy="-37.21" rx="33.88" ry="21.43"/>
<text text-anchor="middle" x="78" y="-32.21" font-family="Times,serif" font-size="20.00">0.0</text>
</g>
<!-- SG_0_Node_4&#45;&gt;SG_0_Node_9 -->
<g id="edge9" class="edge">
<title>SG_0_Node_4&#45;&gt;SG_0_Node_9</title>
<path fill="none" stroke="black" d="M90.62,-229.6C85.96,-223.38 81.43,-216.01 79,-208.43 63.9,-161.38 68.1,-103.18 72.83,-68.46"/>
<polygon fill="black" stroke="black" points="76.3,-68.88 74.29,-58.48 69.38,-67.87 76.3,-68.88"/>
<text text-anchor="middle" x="286.5" y="-159.43" font-family="Times,serif" font-size="20.00">https://headers.webappsec.eu</text>
<text text-anchor="middle" x="286.5" y="-137.43" font-family="Times,serif" font-size="20.00">https://headers.websec.saarland</text>
<text text-anchor="middle" x="286.5" y="-115.43" font-family="Times,serif" font-size="20.00">https://sub.sub.headers.websec.saarland</text>
</g>
<!-- SG_0_Node_10 -->
<g id="node11" class="node">
<title>SG_0_Node_10</title>
<ellipse fill="none" stroke="black" cx="516" cy="-37.21" rx="33.88" ry="21.43"/>
<text text-anchor="middle" x="516" y="-32.21" font-family="Times,serif" font-size="20.00">1.0</text>
</g>
<!-- SG_0_Node_4&#45;&gt;SG_0_Node_10 -->
<g id="edge10" class="edge">
<title>SG_0_Node_4&#45;&gt;SG_0_Node_10</title>
<path fill="none" stroke="black" d="M172.1,-244.55C276.82,-240.58 471.41,-230.34 494,-208.43 531.14,-172.39 528.02,-106.91 522.16,-68.52"/>
<polygon fill="black" stroke="black" points="525.58,-67.74 520.47,-58.46 518.68,-68.9 525.58,-67.74"/>
<text text-anchor="middle" x="727.5" y="-192.43" font-family="Times,serif" font-size="20.00">[NA]</text>
<text text-anchor="middle" x="727.5" y="-170.43" font-family="Times,serif" font-size="20.00">http://headers.webappsec.eu</text>
<text text-anchor="middle" x="727.5" y="-148.43" font-family="Times,serif" font-size="20.00">http://headers.websec.saarland</text>
<text text-anchor="middle" x="727.5" y="-126.43" font-family="Times,serif" font-size="20.00">http://sub.headers.websec.saarland</text>
<text text-anchor="middle" x="727.5" y="-104.43" font-family="Times,serif" font-size="20.00">http://sub.sub.headers.websec.saarland</text>
<text text-anchor="middle" x="727.5" y="-82.43" font-family="Times,serif" font-size="20.00">https://sub.headers.websec.saarland</text>
</g>
<!-- SG_1_Node_0 -->
<g id="node12" class="node">
<title>SG_1_Node_0</title>
<polygon fill="none" stroke="black" points="1994.5,-1434.13 1893.5,-1434.13 1893.5,-1398.13 1994.5,-1398.13 1994.5,-1434.13"/>
<text text-anchor="middle" x="1944" y="-1411.13" font-family="Times,serif" font-size="20.00">browser</text>
</g>
<!-- SG_1_Node_1 -->
<g id="node13" class="node">
<title>SG_1_Node_1</title>
<polygon fill="none" stroke="black" points="1564.5,-1160.92 1427.5,-1160.92 1427.5,-1124.92 1564.5,-1124.92 1564.5,-1160.92"/>
<text text-anchor="middle" x="1496" y="-1137.92" font-family="Times,serif" font-size="20.00">raw_header</text>
</g>
<!-- SG_1_Node_0&#45;&gt;SG_1_Node_1 -->
<g id="edge11" class="edge">
<title>SG_1_Node_0&#45;&gt;SG_1_Node_1</title>
<path fill="none" stroke="black" d="M1893.49,-1414.02C1791.95,-1411.31 1570.53,-1402.83 1545,-1380.13 1485.08,-1326.85 1487.38,-1221.15 1492.35,-1171.23"/>
<polygon fill="black" stroke="black" points="1495.84,-1171.52 1493.46,-1161.19 1488.88,-1170.74 1495.84,-1171.52"/>
<text text-anchor="middle" x="1910" y="-1364.13" font-family="Times,serif" font-size="20.00">[NA]</text>
<text text-anchor="middle" x="1910" y="-1342.13" font-family="Times,serif" font-size="20.00">brave Android 11 1.60.116 intent real</text>
<text text-anchor="middle" x="1910" y="-1320.13" font-family="Times,serif" font-size="20.00">brave Ubuntu 22.04 v1.62.156 (121.0.6167.139) selenium headless&#45;new</text>
<text text-anchor="middle" x="1910" y="-1298.13" font-family="Times,serif" font-size="20.00">chrome Android 11 120.0.6099.44 intent real</text>
<text text-anchor="middle" x="1910" y="-1276.13" font-family="Times,serif" font-size="20.00">chrome Ubuntu 22.04 120 selenium headless&#45;new</text>
<text text-anchor="middle" x="1910" y="-1254.13" font-family="Times,serif" font-size="20.00">chrome Ubuntu 22.04 121 selenium headless&#45;new</text>
<text text-anchor="middle" x="1910" y="-1232.13" font-family="Times,serif" font-size="20.00">chrome Ubuntu 22.04 122 selenium headless&#45;new</text>
<text text-anchor="middle" x="1910" y="-1210.13" font-family="Times,serif" font-size="20.00">edge Ubuntu 22.04 121 selenium headless&#45;new</text>
<text text-anchor="middle" x="1910" y="-1188.13" font-family="Times,serif" font-size="20.00">opera Android 11 78.4.4143.75735 intent real</text>
</g>
<!-- SG_1_Node_2 -->
<g id="node14" class="node">
<title>SG_1_Node_2</title>
<polygon fill="none" stroke="black" points="2753.5,-1160.92 2616.5,-1160.92 2616.5,-1124.92 2753.5,-1124.92 2753.5,-1160.92"/>
<text text-anchor="middle" x="2685" y="-1137.92" font-family="Times,serif" font-size="20.00">status_code</text>
</g>
<!-- SG_1_Node_0&#45;&gt;SG_1_Node_2 -->
<g id="edge12" class="edge">
<title>SG_1_Node_0&#45;&gt;SG_1_Node_2</title>
<path fill="none" stroke="black" d="M1994.73,-1415.93C2076.31,-1416.21 2231.89,-1412.34 2275,-1380.13 2351.3,-1323.12 2281.01,-1239.55 2357,-1182.13 2395.02,-1153.4 2521.98,-1145.87 2606.33,-1144.12"/>
<polygon fill="black" stroke="black" points="2606.46,-1147.62 2616.4,-1143.94 2606.34,-1140.62 2606.46,-1147.62"/>
<text text-anchor="middle" x="2581.5" y="-1298.13" font-family="Times,serif" font-size="20.00">firefox Ubuntu 22.04 121 selenium headless</text>
<text text-anchor="middle" x="2581.5" y="-1276.13" font-family="Times,serif" font-size="20.00">firefox Ubuntu 22.04 122 selenium headless</text>
<text text-anchor="middle" x="2581.5" y="-1254.13" font-family="Times,serif" font-size="20.00">firefox_beta Android 11 122.0b1 intent real</text>
</g>
<!-- SG_1_Node_3 -->
<g id="node15" class="node">
<title>SG_1_Node_3</title>
<ellipse fill="none" stroke="black" cx="1385" cy="-844.49" rx="33.88" ry="21.43"/>
<text text-anchor="middle" x="1385" y="-839.49" font-family="Times,serif" font-size="20.00">0.0</text>
</g>
<!-- SG_1_Node_1&#45;&gt;SG_1_Node_3 -->
<g id="edge15" class="edge">
<title>SG_1_Node_1&#45;&gt;SG_1_Node_3</title>
<path fill="none" stroke="black" d="M1427.3,-1131.34C1411.98,-1125.66 1397.49,-1116.97 1388,-1103.71 1338.81,-1034.98 1360.44,-927.45 1375.26,-875.54"/>
<polygon fill="black" stroke="black" points="1378.71,-876.21 1378.2,-865.63 1372,-874.22 1378.71,-876.21"/>
<text text-anchor="middle" x="1440" y="-999.71" font-family="Times,serif" font-size="20.00">[NA]</text>
<text text-anchor="middle" x="1440" y="-977.71" font-family="Times,serif" font-size="20.00">355 levels</text>
</g>
<!-- SG_1_Node_4 -->
<g id="node16" class="node">
<title>SG_1_Node_4</title>
<ellipse fill="none" stroke="black" cx="1496" cy="-844.49" rx="33.88" ry="21.43"/>
<text text-anchor="middle" x="1496" y="-839.49" font-family="Times,serif" font-size="20.00">1.0</text>
</g>
<!-- SG_1_Node_1&#45;&gt;SG_1_Node_4 -->
<g id="edge16" class="edge">
<title>SG_1_Node_1&#45;&gt;SG_1_Node_4</title>
<path fill="none" stroke="black" d="M1496,-1124.7C1496,-1076.21 1496,-938.02 1496,-876.13"/>
<polygon fill="black" stroke="black" points="1499.5,-875.84 1496,-865.84 1492.5,-875.84 1499.5,-875.84"/>
<text text-anchor="middle" x="2079" y="-988.71" font-family="Times,serif" font-size="20.00">[[&#39;permissions&#45;policy&#39;, &#39;fullscreen=(*)&#39;], [&#39;location&#39;, &#39;https://sub.headers.websec.saarland/_hp/common/empty.html&#39;]]</text>
</g>
<!-- SG_1_Node_5 -->
<g id="node17" class="node">
<title>SG_1_Node_5</title>
<ellipse fill="none" stroke="black" cx="2667" cy="-844.49" rx="33.88" ry="21.43"/>
<text text-anchor="middle" x="2667" y="-839.49" font-family="Times,serif" font-size="20.00">0.0</text>
</g>
<!-- SG_1_Node_2&#45;&gt;SG_1_Node_5 -->
<g id="edge13" class="edge">
<title>SG_1_Node_2&#45;&gt;SG_1_Node_5</title>
<path fill="none" stroke="black" d="M2683.95,-1124.7C2681.01,-1076.21 2672.62,-938.02 2668.86,-876.13"/>
<polygon fill="black" stroke="black" points="2672.34,-875.61 2668.24,-865.84 2665.35,-876.03 2672.34,-875.61"/>
<text text-anchor="middle" x="2701.5" y="-988.71" font-family="Times,serif" font-size="20.00">300</text>
</g>
<!-- SG_1_Node_6 -->
<g id="node18" class="node">
<title>SG_1_Node_6</title>
<ellipse fill="none" stroke="black" cx="2753" cy="-844.49" rx="33.88" ry="21.43"/>
<text text-anchor="middle" x="2753" y="-839.49" font-family="Times,serif" font-size="20.00">1.0</text>
</g>
<!-- SG_1_Node_2&#45;&gt;SG_1_Node_6 -->
<g id="edge14" class="edge">
<title>SG_1_Node_2&#45;&gt;SG_1_Node_6</title>
<path fill="none" stroke="black" d="M2708.4,-1124.72C2714.83,-1118.79 2721.09,-1111.63 2725,-1103.71 2762.07,-1028.54 2760.07,-926.41 2756.19,-876.09"/>
<polygon fill="black" stroke="black" points="2759.66,-875.55 2755.32,-865.88 2752.69,-876.14 2759.66,-875.55"/>
<text text-anchor="middle" x="2781.5" y="-1076.71" font-family="Times,serif" font-size="20.00">[NA]</text>
<text text-anchor="middle" x="2781.5" y="-1054.71" font-family="Times,serif" font-size="20.00">200</text>
<text text-anchor="middle" x="2781.5" y="-1032.71" font-family="Times,serif" font-size="20.00">201</text>
<text text-anchor="middle" x="2781.5" y="-1010.71" font-family="Times,serif" font-size="20.00">203</text>
<text text-anchor="middle" x="2781.5" y="-988.71" font-family="Times,serif" font-size="20.00">400</text>
<text text-anchor="middle" x="2781.5" y="-966.71" font-family="Times,serif" font-size="20.00">403</text>
<text text-anchor="middle" x="2781.5" y="-944.71" font-family="Times,serif" font-size="20.00">404</text>
<text text-anchor="middle" x="2781.5" y="-922.71" font-family="Times,serif" font-size="20.00">418</text>
<text text-anchor="middle" x="2781.5" y="-900.71" font-family="Times,serif" font-size="20.00">500</text>
</g>
<!-- SG_2_Node_0 -->
<g id="node19" class="node">
<title>SG_2_Node_0</title>
<polygon fill="none" stroke="black" points="3408.5,-1434.13 3271.5,-1434.13 3271.5,-1398.13 3408.5,-1398.13 3408.5,-1434.13"/>
<text text-anchor="middle" x="3340" y="-1411.13" font-family="Times,serif" font-size="20.00">raw_header</text>
</g>
<!-- SG_2_Node_1 -->
<g id="node20" class="node">
<title>SG_2_Node_1</title>
<polygon fill="none" stroke="black" points="3340.5,-1160.92 3203.5,-1160.92 3203.5,-1124.92 3340.5,-1124.92 3340.5,-1160.92"/>
<text text-anchor="middle" x="3272" y="-1137.92" font-family="Times,serif" font-size="20.00">status_code</text>
</g>
<!-- SG_2_Node_0&#45;&gt;SG_2_Node_1 -->
<g id="edge17" class="edge">
<title>SG_2_Node_0&#45;&gt;SG_2_Node_1</title>
<path fill="none" stroke="black" d="M3297.86,-1398.03C3290.77,-1393.28 3284.33,-1387.38 3280,-1380.13 3240.48,-1313.95 3254.66,-1217.69 3265,-1171.14"/>
<polygon fill="black" stroke="black" points="3268.45,-1171.74 3267.32,-1161.21 3261.64,-1170.15 3268.45,-1171.74"/>
<text text-anchor="middle" x="3332" y="-1287.13" font-family="Times,serif" font-size="20.00">[NA]</text>
<text text-anchor="middle" x="3332" y="-1265.13" font-family="Times,serif" font-size="20.00">347 levels</text>
</g>
<!-- SG_2_Node_2 -->
<g id="node21" class="node">
<title>SG_2_Node_2</title>
<polygon fill="none" stroke="black" points="3459.5,-1160.92 3358.5,-1160.92 3358.5,-1124.92 3459.5,-1124.92 3459.5,-1160.92"/>
<text text-anchor="middle" x="3409" y="-1137.92" font-family="Times,serif" font-size="20.00">browser</text>
</g>
<!-- SG_2_Node_0&#45;&gt;SG_2_Node_2 -->
<g id="edge18" class="edge">
<title>SG_2_Node_0&#45;&gt;SG_2_Node_2</title>
<path fill="none" stroke="black" d="M3368.47,-1397.96C3374.54,-1392.96 3380.24,-1386.98 3384,-1380.13 3421.21,-1312.37 3417.33,-1217.18 3412.58,-1171.07"/>
<polygon fill="black" stroke="black" points="3416.04,-1170.51 3411.45,-1160.97 3409.09,-1171.29 3416.04,-1170.51"/>
<text text-anchor="middle" x="3645.5" y="-1364.13" font-family="Times,serif" font-size="20.00">[[&#39;x00permissions&#45;policy&#39;, &#39;fullscreen=()&#39;]]</text>
<text text-anchor="middle" x="3645.5" y="-1342.13" font-family="Times,serif" font-size="20.00">[[&#39;x00permissions&#45;policy&#39;, &#39;fullscreen=(*)&#39;]]</text>
<text text-anchor="middle" x="3645.5" y="-1320.13" font-family="Times,serif" font-size="20.00">[[&#39;x00permissions&#45;policy&#39;, &#39;fullscreen=(self)&#39;]]</text>
<text text-anchor="middle" x="3645.5" y="-1298.13" font-family="Times,serif" font-size="20.00">[[&#39;permissiox00ns&#45;policy&#39;, &#39;fullscreen=()&#39;]]</text>
<text text-anchor="middle" x="3645.5" y="-1276.13" font-family="Times,serif" font-size="20.00">[[&#39;permissiox00ns&#45;policy&#39;, &#39;fullscreen=(*)&#39;]]</text>
<text text-anchor="middle" x="3645.5" y="-1254.13" font-family="Times,serif" font-size="20.00">[[&#39;permissiox00ns&#45;policy&#39;, &#39;fullscreen=(self)&#39;]]</text>
<text text-anchor="middle" x="3645.5" y="-1232.13" font-family="Times,serif" font-size="20.00">[[&#39;permissions&#45;policyx00&#39;, &#39;fullscreen=()&#39;]]</text>
<text text-anchor="middle" x="3645.5" y="-1210.13" font-family="Times,serif" font-size="20.00">[[&#39;permissions&#45;policyx00&#39;, &#39;fullscreen=(*)&#39;]]</text>
<text text-anchor="middle" x="3645.5" y="-1188.13" font-family="Times,serif" font-size="20.00">[[&#39;permissions&#45;policyx00&#39;, &#39;fullscreen=(self)&#39;]]</text>
</g>
<!-- SG_2_Node_3 -->
<g id="node22" class="node">
<title>SG_2_Node_3</title>
<polygon fill="none" stroke="black" points="3031.5,-862.49 2894.5,-862.49 2894.5,-826.49 3031.5,-826.49 3031.5,-862.49"/>
<text text-anchor="middle" x="2963" y="-839.49" font-family="Times,serif" font-size="20.00">raw_header</text>
</g>
<!-- SG_2_Node_1&#45;&gt;SG_2_Node_3 -->
<g id="edge21" class="edge">
<title>SG_2_Node_1&#45;&gt;SG_2_Node_3</title>
<path fill="none" stroke="black" d="M3244.73,-1124.87C3235.33,-1118.6 3224.93,-1111.19 3216,-1103.71 3122.99,-1025.81 3026.18,-918.31 2984.35,-870.34"/>
<polygon fill="black" stroke="black" points="2986.85,-867.89 2977.65,-862.63 2981.57,-872.48 2986.85,-867.89"/>
<text text-anchor="middle" x="3239.5" y="-1076.71" font-family="Times,serif" font-size="20.00">[NA]</text>
<text text-anchor="middle" x="3239.5" y="-1054.71" font-family="Times,serif" font-size="20.00">200</text>
<text text-anchor="middle" x="3239.5" y="-1032.71" font-family="Times,serif" font-size="20.00">201</text>
<text text-anchor="middle" x="3239.5" y="-1010.71" font-family="Times,serif" font-size="20.00">203</text>
<text text-anchor="middle" x="3239.5" y="-988.71" font-family="Times,serif" font-size="20.00">400</text>
<text text-anchor="middle" x="3239.5" y="-966.71" font-family="Times,serif" font-size="20.00">403</text>
<text text-anchor="middle" x="3239.5" y="-944.71" font-family="Times,serif" font-size="20.00">404</text>
<text text-anchor="middle" x="3239.5" y="-922.71" font-family="Times,serif" font-size="20.00">418</text>
<text text-anchor="middle" x="3239.5" y="-900.71" font-family="Times,serif" font-size="20.00">500</text>
</g>
<!-- SG_2_Node_4 -->
<g id="node23" class="node">
<title>SG_2_Node_4</title>
<polygon fill="none" stroke="black" points="3382.5,-862.49 3281.5,-862.49 3281.5,-826.49 3382.5,-826.49 3382.5,-862.49"/>
<text text-anchor="middle" x="3332" y="-839.49" font-family="Times,serif" font-size="20.00">browser</text>
</g>
<!-- SG_2_Node_1&#45;&gt;SG_2_Node_4 -->
<g id="edge22" class="edge">
<title>SG_2_Node_1&#45;&gt;SG_2_Node_4</title>
<path fill="none" stroke="black" d="M3270.21,-1124.7C3266.48,-1081.86 3261.05,-967.86 3298,-883.71 3299.99,-879.17 3302.73,-874.79 3305.8,-870.72"/>
<polygon fill="black" stroke="black" points="3308.66,-872.76 3312.42,-862.85 3303.3,-868.25 3308.66,-872.76"/>
<text text-anchor="middle" x="3317.5" y="-988.71" font-family="Times,serif" font-size="20.00">300</text>
</g>
<!-- SG_2_Node_7 -->
<g id="node24" class="node">
<title>SG_2_Node_7</title>
<ellipse fill="none" stroke="black" cx="3434" cy="-844.49" rx="33.88" ry="21.43"/>
<text text-anchor="middle" x="3434" y="-839.49" font-family="Times,serif" font-size="20.00">0.0</text>
</g>
<!-- SG_2_Node_2&#45;&gt;SG_2_Node_7 -->
<g id="edge19" class="edge">
<title>SG_2_Node_2&#45;&gt;SG_2_Node_7</title>
<path fill="none" stroke="black" d="M3387.41,-1124.56C3381.61,-1118.63 3376.09,-1111.5 3373,-1103.71 3336.93,-1012.82 3325.64,-969.25 3373,-883.71 3376.21,-877.91 3387.21,-870.37 3399.01,-863.51"/>
<polygon fill="black" stroke="black" points="3401.05,-866.38 3408.07,-858.44 3397.64,-860.27 3401.05,-866.38"/>
<text text-anchor="middle" x="3597.5" y="-1010.71" font-family="Times,serif" font-size="20.00">firefox Ubuntu 22.04 121 selenium headless</text>
<text text-anchor="middle" x="3597.5" y="-988.71" font-family="Times,serif" font-size="20.00">firefox Ubuntu 22.04 122 selenium headless</text>
<text text-anchor="middle" x="3597.5" y="-966.71" font-family="Times,serif" font-size="20.00">firefox_beta Android 11 122.0b1 intent real</text>
</g>
<!-- SG_2_Node_8 -->
<g id="node25" class="node">
<title>SG_2_Node_8</title>
<ellipse fill="none" stroke="black" cx="3844" cy="-844.49" rx="33.88" ry="21.43"/>
<text text-anchor="middle" x="3844" y="-839.49" font-family="Times,serif" font-size="20.00">1.0</text>
</g>
<!-- SG_2_Node_2&#45;&gt;SG_2_Node_8 -->
<g id="edge20" class="edge">
<title>SG_2_Node_2&#45;&gt;SG_2_Node_8</title>
<path fill="none" stroke="black" d="M3459.52,-1140.81C3564.15,-1138 3796.92,-1128.97 3822,-1103.71 3882.47,-1042.79 3865.03,-929.26 3852.22,-875.37"/>
<polygon fill="black" stroke="black" points="3855.55,-874.28 3849.74,-865.42 3848.76,-875.97 3855.55,-874.28"/>
<text text-anchor="middle" x="4229" y="-1076.71" font-family="Times,serif" font-size="20.00">[NA]</text>
<text text-anchor="middle" x="4229" y="-1054.71" font-family="Times,serif" font-size="20.00">brave Android 11 1.60.116 intent real</text>
<text text-anchor="middle" x="4229" y="-1032.71" font-family="Times,serif" font-size="20.00">brave Ubuntu 22.04 v1.62.156 (121.0.6167.139) selenium headless&#45;new</text>
<text text-anchor="middle" x="4229" y="-1010.71" font-family="Times,serif" font-size="20.00">chrome Android 11 120.0.6099.44 intent real</text>
<text text-anchor="middle" x="4229" y="-988.71" font-family="Times,serif" font-size="20.00">chrome Ubuntu 22.04 120 selenium headless&#45;new</text>
<text text-anchor="middle" x="4229" y="-966.71" font-family="Times,serif" font-size="20.00">chrome Ubuntu 22.04 121 selenium headless&#45;new</text>
<text text-anchor="middle" x="4229" y="-944.71" font-family="Times,serif" font-size="20.00">chrome Ubuntu 22.04 122 selenium headless&#45;new</text>
<text text-anchor="middle" x="4229" y="-922.71" font-family="Times,serif" font-size="20.00">edge Ubuntu 22.04 121 selenium headless&#45;new</text>
<text text-anchor="middle" x="4229" y="-900.71" font-family="Times,serif" font-size="20.00">opera Android 11 78.4.4143.75735 intent real</text>
</g>
<!-- SG_2_Node_9 -->
<g id="node26" class="node">
<title>SG_2_Node_9</title>
<ellipse fill="none" stroke="black" cx="2852" cy="-568.07" rx="33.88" ry="21.43"/>
<text text-anchor="middle" x="2852" y="-563.07" font-family="Times,serif" font-size="20.00">0.0</text>
</g>
<!-- SG_2_Node_3&#45;&gt;SG_2_Node_9 -->
<g id="edge25" class="edge">
<title>SG_2_Node_3&#45;&gt;SG_2_Node_9</title>
<path fill="none" stroke="black" d="M2894.31,-832.9C2878.99,-827.22 2864.5,-818.54 2855,-805.28 2810.71,-743.47 2829,-647.3 2842.45,-598.95"/>
<polygon fill="black" stroke="black" points="2845.88,-599.69 2845.31,-589.12 2839.16,-597.74 2845.88,-599.69"/>
<text text-anchor="middle" x="2907" y="-712.28" font-family="Times,serif" font-size="20.00">[NA]</text>
<text text-anchor="middle" x="2907" y="-690.28" font-family="Times,serif" font-size="20.00">346 levels</text>
</g>
<!-- SG_2_Node_5 -->
<g id="node27" class="node">
<title>SG_2_Node_5</title>
<polygon fill="none" stroke="black" points="3013.5,-586.07 2912.5,-586.07 2912.5,-550.07 3013.5,-550.07 3013.5,-586.07"/>
<text text-anchor="middle" x="2963" y="-563.07" font-family="Times,serif" font-size="20.00">browser</text>
</g>
<!-- SG_2_Node_3&#45;&gt;SG_2_Node_5 -->
<g id="edge26" class="edge">
<title>SG_2_Node_3&#45;&gt;SG_2_Node_5</title>
<path fill="none" stroke="black" d="M2963,-826.33C2963,-780.12 2963,-652.83 2963,-596.5"/>
<polygon fill="black" stroke="black" points="2966.5,-596.23 2963,-586.23 2959.5,-596.23 2966.5,-596.23"/>
<text text-anchor="middle" x="3156" y="-701.28" font-family="Times,serif" font-size="20.00">[[&#39;Feature&#45;Policy&#39;, &quot;fullscreen &#39;none&#39;&quot;]]</text>
</g>
<!-- SG_2_Node_10 -->
<g id="node28" class="node">
<title>SG_2_Node_10</title>
<ellipse fill="none" stroke="black" cx="3372" cy="-568.07" rx="33.88" ry="21.43"/>
<text text-anchor="middle" x="3372" y="-563.07" font-family="Times,serif" font-size="20.00">0.0</text>
</g>
<!-- SG_2_Node_4&#45;&gt;SG_2_Node_10 -->
<g id="edge23" class="edge">
<title>SG_2_Node_4&#45;&gt;SG_2_Node_10</title>
<path fill="none" stroke="black" d="M3341.57,-826.48C3344.77,-820.03 3348.03,-812.5 3350,-805.28 3369.63,-733.37 3372.5,-645.07 3372.5,-599.5"/>
<polygon fill="black" stroke="black" points="3376,-599.38 3372.45,-589.39 3369,-599.41 3376,-599.38"/>
<text text-anchor="middle" x="3737" y="-789.28" font-family="Times,serif" font-size="20.00">[NA]</text>
<text text-anchor="middle" x="3737" y="-767.28" font-family="Times,serif" font-size="20.00">brave Android 11 1.60.116 intent real</text>
<text text-anchor="middle" x="3737" y="-745.28" font-family="Times,serif" font-size="20.00">brave Ubuntu 22.04 v1.62.156 (121.0.6167.139) selenium headless&#45;new</text>
<text text-anchor="middle" x="3737" y="-723.28" font-family="Times,serif" font-size="20.00">chrome Android 11 120.0.6099.44 intent real</text>
<text text-anchor="middle" x="3737" y="-701.28" font-family="Times,serif" font-size="20.00">chrome Ubuntu 22.04 120 selenium headless&#45;new</text>
<text text-anchor="middle" x="3737" y="-679.28" font-family="Times,serif" font-size="20.00">chrome Ubuntu 22.04 121 selenium headless&#45;new</text>
<text text-anchor="middle" x="3737" y="-657.28" font-family="Times,serif" font-size="20.00">chrome Ubuntu 22.04 122 selenium headless&#45;new</text>
<text text-anchor="middle" x="3737" y="-635.28" font-family="Times,serif" font-size="20.00">edge Ubuntu 22.04 121 selenium headless&#45;new</text>
<text text-anchor="middle" x="3737" y="-613.28" font-family="Times,serif" font-size="20.00">opera Android 11 78.4.4143.75735 intent real</text>
</g>
<!-- SG_2_Node_11 -->
<g id="node29" class="node">
<title>SG_2_Node_11</title>
<ellipse fill="none" stroke="black" cx="4125" cy="-568.07" rx="33.88" ry="21.43"/>
<text text-anchor="middle" x="4125" y="-563.07" font-family="Times,serif" font-size="20.00">1.0</text>
</g>
<!-- SG_2_Node_4&#45;&gt;SG_2_Node_11 -->
<g id="edge24" class="edge">
<title>SG_2_Node_4&#45;&gt;SG_2_Node_11</title>
<path fill="none" stroke="black" d="M3361.4,-826.38C3370.58,-821.88 3380.94,-817.64 3391,-815.28 3410.26,-810.77 4088.47,-818.7 4103,-805.28 4159.88,-752.71 4145.07,-649.92 4133.2,-599.05"/>
<polygon fill="black" stroke="black" points="4136.59,-598.19 4130.81,-589.31 4129.79,-599.86 4136.59,-598.19"/>
<text text-anchor="middle" x="4368.5" y="-723.28" font-family="Times,serif" font-size="20.00">firefox Ubuntu 22.04 121 selenium headless</text>
<text text-anchor="middle" x="4368.5" y="-701.28" font-family="Times,serif" font-size="20.00">firefox Ubuntu 22.04 122 selenium headless</text>
<text text-anchor="middle" x="4368.5" y="-679.28" font-family="Times,serif" font-size="20.00">firefox_beta Android 11 122.0b1 intent real</text>
</g>
<!-- SG_2_Node_12 -->
<g id="node30" class="node">
<title>SG_2_Node_12</title>
<ellipse fill="none" stroke="black" cx="2907" cy="-247.64" rx="33.88" ry="21.43"/>
<text text-anchor="middle" x="2907" y="-242.64" font-family="Times,serif" font-size="20.00">0.0</text>
</g>
<!-- SG_2_Node_5&#45;&gt;SG_2_Node_12 -->
<g id="edge27" class="edge">
<title>SG_2_Node_5&#45;&gt;SG_2_Node_12</title>
<path fill="none" stroke="black" d="M2927.74,-550C2919.85,-544.42 2912.49,-537.4 2908,-528.85 2865.06,-447.09 2885.26,-332.49 2898.56,-278.73"/>
<polygon fill="black" stroke="black" points="2902.01,-279.37 2901.11,-268.81 2895.23,-277.63 2902.01,-279.37"/>
<text text-anchor="middle" x="3273" y="-512.85" font-family="Times,serif" font-size="20.00">[NA]</text>
<text text-anchor="middle" x="3273" y="-490.85" font-family="Times,serif" font-size="20.00">brave Android 11 1.60.116 intent real</text>
<text text-anchor="middle" x="3273" y="-468.85" font-family="Times,serif" font-size="20.00">brave Ubuntu 22.04 v1.62.156 (121.0.6167.139) selenium headless&#45;new</text>
<text text-anchor="middle" x="3273" y="-446.85" font-family="Times,serif" font-size="20.00">chrome Android 11 120.0.6099.44 intent real</text>
<text text-anchor="middle" x="3273" y="-424.85" font-family="Times,serif" font-size="20.00">chrome Ubuntu 22.04 120 selenium headless&#45;new</text>
<text text-anchor="middle" x="3273" y="-402.85" font-family="Times,serif" font-size="20.00">chrome Ubuntu 22.04 121 selenium headless&#45;new</text>
<text text-anchor="middle" x="3273" y="-380.85" font-family="Times,serif" font-size="20.00">chrome Ubuntu 22.04 122 selenium headless&#45;new</text>
<text text-anchor="middle" x="3273" y="-358.85" font-family="Times,serif" font-size="20.00">edge Ubuntu 22.04 121 selenium headless&#45;new</text>
<text text-anchor="middle" x="3273" y="-336.85" font-family="Times,serif" font-size="20.00">firefox Ubuntu 22.04 121 selenium headless</text>
<text text-anchor="middle" x="3273" y="-314.85" font-family="Times,serif" font-size="20.00">firefox Ubuntu 22.04 122 selenium headless</text>
<text text-anchor="middle" x="3273" y="-292.85" font-family="Times,serif" font-size="20.00">firefox_beta Android 11 122.0b1 intent real</text>
</g>
<!-- SG_2_Node_6 -->
<g id="node31" class="node">
<title>SG_2_Node_6</title>
<polygon fill="none" stroke="black" points="3726,-265.64 3594,-265.64 3594,-229.64 3726,-229.64 3726,-265.64"/>
<text text-anchor="middle" x="3660" y="-242.64" font-family="Times,serif" font-size="20.00">resp_origin</text>
</g>
<!-- SG_2_Node_5&#45;&gt;SG_2_Node_6 -->
<g id="edge28" class="edge">
<title>SG_2_Node_5&#45;&gt;SG_2_Node_6</title>
<path fill="none" stroke="black" d="M3013.68,-564.25C3170.48,-555.54 3637.3,-529.54 3638,-528.85 3706.65,-461.69 3682.74,-332.17 3668.02,-275.88"/>
<polygon fill="black" stroke="black" points="3671.32,-274.67 3665.32,-265.94 3664.57,-276.51 3671.32,-274.67"/>
<text text-anchor="middle" x="3918" y="-402.85" font-family="Times,serif" font-size="20.00">opera Android 11 78.4.4143.75735 intent real</text>
</g>
<!-- SG_2_Node_13 -->
<g id="node32" class="node">
<title>SG_2_Node_13</title>
<ellipse fill="none" stroke="black" cx="3446" cy="-37.21" rx="33.88" ry="21.43"/>
<text text-anchor="middle" x="3446" y="-32.21" font-family="Times,serif" font-size="20.00">0.0</text>
</g>
<!-- SG_2_Node_6&#45;&gt;SG_2_Node_13 -->
<g id="edge29" class="edge">
<title>SG_2_Node_6&#45;&gt;SG_2_Node_13</title>
<path fill="none" stroke="black" d="M3593.83,-243.78C3538.45,-239.83 3465.57,-230.49 3447,-208.43 3414.04,-169.26 3425.23,-105.17 3435.91,-67.81"/>
<polygon fill="black" stroke="black" points="3439.32,-68.61 3438.87,-58.03 3432.62,-66.59 3439.32,-68.61"/>
<text text-anchor="middle" x="3649.5" y="-192.43" font-family="Times,serif" font-size="20.00">[NA]</text>
<text text-anchor="middle" x="3649.5" y="-170.43" font-family="Times,serif" font-size="20.00">http://headers.webappsec.eu</text>
<text text-anchor="middle" x="3649.5" y="-148.43" font-family="Times,serif" font-size="20.00">http://headers.websec.saarland</text>
<text text-anchor="middle" x="3649.5" y="-126.43" font-family="Times,serif" font-size="20.00">http://sub.headers.websec.saarland</text>
<text text-anchor="middle" x="3649.5" y="-104.43" font-family="Times,serif" font-size="20.00">http://sub.sub.headers.websec.saarland</text>
<text text-anchor="middle" x="3649.5" y="-82.43" font-family="Times,serif" font-size="20.00">https://sub.headers.websec.saarland</text>
</g>
<!-- SG_2_Node_14 -->
<g id="node33" class="node">
<title>SG_2_Node_14</title>
<ellipse fill="none" stroke="black" cx="3874" cy="-37.21" rx="33.88" ry="21.43"/>
<text text-anchor="middle" x="3874" y="-32.21" font-family="Times,serif" font-size="20.00">1.0</text>
</g>
<!-- SG_2_Node_6&#45;&gt;SG_2_Node_14 -->
<g id="edge30" class="edge">
<title>SG_2_Node_6&#45;&gt;SG_2_Node_14</title>
<path fill="none" stroke="black" d="M3726,-241.63C3774.58,-236.5 3835,-226.62 3852,-208.43 3887.24,-170.71 3884.86,-106.11 3879.64,-68.27"/>
<polygon fill="black" stroke="black" points="3883.09,-67.71 3878.12,-58.35 3876.18,-68.77 3883.09,-67.71"/>
<text text-anchor="middle" x="4089.5" y="-159.43" font-family="Times,serif" font-size="20.00">https://headers.webappsec.eu</text>
<text text-anchor="middle" x="4089.5" y="-137.43" font-family="Times,serif" font-size="20.00">https://headers.websec.saarland</text>
<text text-anchor="middle" x="4089.5" y="-115.43" font-family="Times,serif" font-size="20.00">https://sub.sub.headers.websec.saarland</text>
</g>
</g>
</svg>
