<?xml version="1.0" encoding="UTF-8" standalone="no"?>
<!DOCTYPE svg PUBLIC "-//W3C//DTD SVG 1.1//EN"
 "http://www.w3.org/Graphics/SVG/1.1/DTD/svg11.dtd">
<!-- Generated by graphviz version 2.43.0 (0)
 -->
<!-- Title: G Pages: 1 -->
<svg width="2556pt" height="448pt"
 viewBox="0.00 0.00 2555.96 448.43" xmlns="http://www.w3.org/2000/svg" xmlns:xlink="http://www.w3.org/1999/xlink">
<g id="graph0" class="graph" transform="scale(1 1) rotate(0) translate(4 444.43)">
<title>G</title>
<polygon fill="white" stroke="transparent" points="-4,4 -4,-444.43 2551.96,-444.43 2551.96,4 -4,4"/>
<g id="clust1" class="cluster">
<title>cluster_0</title>
<polygon fill="none" stroke="black" points="14.96,-8 14.96,-432.43 1269.96,-432.43 1269.96,-8 14.96,-8"/>
<text text-anchor="middle" x="642.46" y="-396.43" font-family="Times,serif" font-size="40.00">Tree 0, Class fullscreenEnabled: false</text>
</g>
<g id="clust4" class="cluster">
<title>cluster_1</title>
<polygon fill="none" stroke="black" points="1277.96,-8 1277.96,-432.43 2532.96,-432.43 2532.96,-8 1277.96,-8"/>
<text text-anchor="middle" x="1905.46" y="-396.43" font-family="Times,serif" font-size="40.00">Tree 0, Class message timeout</text>
</g>
<!-- SG_0_Node_0 -->
<g id="node1" class="node">
<title>SG_0_Node_0</title>
<polygon fill="none" stroke="black" points="353.46,-372.43 252.46,-372.43 252.46,-336.43 353.46,-336.43 353.46,-372.43"/>
<text text-anchor="middle" x="302.96" y="-349.43" font-family="Times,serif" font-size="20.00">browser</text>
</g>
<!-- SG_0_Node_1 -->
<g id="node2" class="node">
<title>SG_0_Node_1</title>
<ellipse fill="none" stroke="black" cx="56.96" cy="-37.21" rx="33.88" ry="21.43"/>
<text text-anchor="middle" x="56.96" y="-32.21" font-family="Times,serif" font-size="20.00">0.0</text>
</g>
<!-- SG_0_Node_0&#45;&gt;SG_0_Node_1 -->
<g id="edge1" class="edge">
<title>SG_0_Node_0&#45;&gt;SG_0_Node_1</title>
<path fill="none" stroke="black" d="M252.31,-354.31C183.33,-354.3 65.26,-349.57 37.96,-318.43 -32.94,-237.55 13.36,-181.13 37.96,-76.43 38.72,-73.18 39.8,-69.9 41.07,-66.68"/>
<polygon fill="black" stroke="black" points="44.34,-67.94 45.28,-57.39 37.96,-65.06 44.34,-67.94"/>
<text text-anchor="middle" x="271.96" y="-192.43" font-family="Times,serif" font-size="20.00">opera Android 11 78.4.4143.75735 intent real</text>
</g>
<!-- SG_0_Node_2 -->
<g id="node3" class="node">
<title>SG_0_Node_2</title>
<ellipse fill="none" stroke="black" cx="531.96" cy="-37.21" rx="33.88" ry="21.43"/>
<text text-anchor="middle" x="531.96" y="-32.21" font-family="Times,serif" font-size="20.00">1.0</text>
</g>
<!-- SG_0_Node_0&#45;&gt;SG_0_Node_2 -->
<g id="edge2" class="edge">
<title>SG_0_Node_0&#45;&gt;SG_0_Node_2</title>
<path fill="none" stroke="black" d="M353.66,-351.79C408.08,-348.89 489.48,-340.82 509.96,-318.43 542.71,-282.61 537.85,-133.26 534.05,-68.45"/>
<polygon fill="black" stroke="black" points="537.54,-68.21 533.43,-58.44 530.56,-68.64 537.54,-68.21"/>
<text text-anchor="middle" x="900.96" y="-302.43" font-family="Times,serif" font-size="20.00">[NA]</text>
<text text-anchor="middle" x="900.96" y="-280.43" font-family="Times,serif" font-size="20.00">brave Android 11 1.60.116 intent real</text>
<text text-anchor="middle" x="900.96" y="-258.43" font-family="Times,serif" font-size="20.00">brave Ubuntu 22.04 v1.62.156 (121.0.6167.139) selenium headless&#45;new</text>
<text text-anchor="middle" x="900.96" y="-236.43" font-family="Times,serif" font-size="20.00">chrome Android 11 120.0.6099.44 intent real</text>
<text text-anchor="middle" x="900.96" y="-214.43" font-family="Times,serif" font-size="20.00">chrome Ubuntu 22.04 120 selenium headless&#45;new</text>
<text text-anchor="middle" x="900.96" y="-192.43" font-family="Times,serif" font-size="20.00">chrome Ubuntu 22.04 121 selenium headless&#45;new</text>
<text text-anchor="middle" x="900.96" y="-170.43" font-family="Times,serif" font-size="20.00">chrome Ubuntu 22.04 122 selenium headless&#45;new</text>
<text text-anchor="middle" x="900.96" y="-148.43" font-family="Times,serif" font-size="20.00">edge Ubuntu 22.04 121 selenium headless&#45;new</text>
<text text-anchor="middle" x="900.96" y="-126.43" font-family="Times,serif" font-size="20.00">firefox Ubuntu 22.04 121 selenium headless</text>
<text text-anchor="middle" x="900.96" y="-104.43" font-family="Times,serif" font-size="20.00">firefox Ubuntu 22.04 122 selenium headless</text>
<text text-anchor="middle" x="900.96" y="-82.43" font-family="Times,serif" font-size="20.00">firefox_beta Android 11 122.0b1 intent real</text>
</g>
<!-- SG_1_Node_0 -->
<g id="node4" class="node">
<title>SG_1_Node_0</title>
<polygon fill="none" stroke="black" points="1747.46,-372.43 1646.46,-372.43 1646.46,-336.43 1747.46,-336.43 1747.46,-372.43"/>
<text text-anchor="middle" x="1696.96" y="-349.43" font-family="Times,serif" font-size="20.00">browser</text>
</g>
<!-- SG_1_Node_1 -->
<g id="node5" class="node">
<title>SG_1_Node_1</title>
<ellipse fill="none" stroke="black" cx="1319.96" cy="-37.21" rx="33.88" ry="21.43"/>
<text text-anchor="middle" x="1319.96" y="-32.21" font-family="Times,serif" font-size="20.00">0.0</text>
</g>
<!-- SG_1_Node_0&#45;&gt;SG_1_Node_1 -->
<g id="edge3" class="edge">
<title>SG_1_Node_0&#45;&gt;SG_1_Node_1</title>
<path fill="none" stroke="black" d="M1646.44,-352.69C1544.91,-350.67 1323.85,-343.43 1300.96,-318.43 1264.64,-278.76 1288.66,-128.78 1300.96,-76.43 1301.72,-73.18 1302.8,-69.9 1304.07,-66.68"/>
<polygon fill="black" stroke="black" points="1307.34,-67.94 1308.28,-57.39 1300.96,-65.06 1307.34,-67.94"/>
<text text-anchor="middle" x="1665.96" y="-302.43" font-family="Times,serif" font-size="20.00">[NA]</text>
<text text-anchor="middle" x="1665.96" y="-280.43" font-family="Times,serif" font-size="20.00">brave Android 11 1.60.116 intent real</text>
<text text-anchor="middle" x="1665.96" y="-258.43" font-family="Times,serif" font-size="20.00">brave Ubuntu 22.04 v1.62.156 (121.0.6167.139) selenium headless&#45;new</text>
<text text-anchor="middle" x="1665.96" y="-236.43" font-family="Times,serif" font-size="20.00">chrome Android 11 120.0.6099.44 intent real</text>
<text text-anchor="middle" x="1665.96" y="-214.43" font-family="Times,serif" font-size="20.00">chrome Ubuntu 22.04 120 selenium headless&#45;new</text>
<text text-anchor="middle" x="1665.96" y="-192.43" font-family="Times,serif" font-size="20.00">chrome Ubuntu 22.04 121 selenium headless&#45;new</text>
<text text-anchor="middle" x="1665.96" y="-170.43" font-family="Times,serif" font-size="20.00">chrome Ubuntu 22.04 122 selenium headless&#45;new</text>
<text text-anchor="middle" x="1665.96" y="-148.43" font-family="Times,serif" font-size="20.00">edge Ubuntu 22.04 121 selenium headless&#45;new</text>
<text text-anchor="middle" x="1665.96" y="-126.43" font-family="Times,serif" font-size="20.00">firefox Ubuntu 22.04 121 selenium headless</text>
<text text-anchor="middle" x="1665.96" y="-104.43" font-family="Times,serif" font-size="20.00">firefox Ubuntu 22.04 122 selenium headless</text>
<text text-anchor="middle" x="1665.96" y="-82.43" font-family="Times,serif" font-size="20.00">firefox_beta Android 11 122.0b1 intent real</text>
</g>
<!-- SG_1_Node_2 -->
<g id="node6" class="node">
<title>SG_1_Node_2</title>
<ellipse fill="none" stroke="black" cx="2056.96" cy="-37.21" rx="33.88" ry="21.43"/>
<text text-anchor="middle" x="2056.96" y="-32.21" font-family="Times,serif" font-size="20.00">1.0</text>
</g>
<!-- SG_1_Node_0&#45;&gt;SG_1_Node_2 -->
<g id="edge4" class="edge">
<title>SG_1_Node_0&#45;&gt;SG_1_Node_2</title>
<path fill="none" stroke="black" d="M1747.46,-351.7C1836.82,-348.15 2015.29,-338.59 2034.96,-318.43 2100.88,-250.85 2079.73,-125.38 2065.46,-68.11"/>
<polygon fill="black" stroke="black" points="2068.8,-67.04 2062.9,-58.24 2062.03,-68.8 2068.8,-67.04"/>
<text text-anchor="middle" x="2313.96" y="-192.43" font-family="Times,serif" font-size="20.00">opera Android 11 78.4.4143.75735 intent real</text>
</g>
</g>
</svg>
