<?xml version="1.0" encoding="UTF-8" standalone="no"?>
<!DOCTYPE svg PUBLIC "-//W3C//DTD SVG 1.1//EN"
 "http://www.w3.org/Graphics/SVG/1.1/DTD/svg11.dtd">
<!-- Generated by graphviz version 2.43.0 (0)
 -->
<!-- Title: G Pages: 1 -->
<svg width="3885pt" height="951pt"
 viewBox="0.00 0.00 3885.10 950.85" xmlns="http://www.w3.org/2000/svg" xmlns:xlink="http://www.w3.org/1999/xlink">
<g id="graph0" class="graph" transform="scale(1 1) rotate(0) translate(4 946.85)">
<title>G</title>
<polygon fill="white" stroke="transparent" points="-4,4 -4,-946.85 3881.1,-946.85 3881.1,4 -4,4"/>
<g id="clust1" class="cluster">
<title>cluster_0</title>
<polygon fill="none" stroke="black" points="11.1,-284.43 11.1,-934.85 1247.1,-934.85 1247.1,-284.43 11.1,-284.43"/>
<text text-anchor="middle" x="629.1" y="-898.85" font-family="Times,serif" font-size="40.00">Tree 0, Class error</text>
</g>
<g id="clust5" class="cluster">
<title>cluster_1</title>
<polygon fill="none" stroke="black" points="1255.1,-284.43 1255.1,-934.85 2491.1,-934.85 2491.1,-284.43 1255.1,-284.43"/>
<text text-anchor="middle" x="1873.1" y="-898.85" font-family="Times,serif" font-size="40.00">Tree 0, Class load</text>
</g>
<g id="clust9" class="cluster">
<title>cluster_2</title>
<polygon fill="none" stroke="black" points="2499.1,-8 2499.1,-934.85 3867.1,-934.85 3867.1,-8 2499.1,-8"/>
<text text-anchor="middle" x="3183.1" y="-898.85" font-family="Times,serif" font-size="40.00">Tree 0, Class message timeout</text>
</g>
<!-- SG_0_Node_0 -->
<g id="node1" class="node">
<title>SG_0_Node_0</title>
<polygon fill="none" stroke="black" points="480.6,-874.85 379.6,-874.85 379.6,-838.85 480.6,-838.85 480.6,-874.85"/>
<text text-anchor="middle" x="430.1" y="-851.85" font-family="Times,serif" font-size="20.00">browser</text>
</g>
<!-- SG_0_Node_1 -->
<g id="node2" class="node">
<title>SG_0_Node_1</title>
<polygon fill="none" stroke="black" points="156.6,-604.85 19.6,-604.85 19.6,-568.85 156.6,-568.85 156.6,-604.85"/>
<text text-anchor="middle" x="88.1" y="-581.85" font-family="Times,serif" font-size="20.00">raw_header</text>
</g>
<!-- SG_0_Node_0&#45;&gt;SG_0_Node_1 -->
<g id="edge1" class="edge">
<title>SG_0_Node_0&#45;&gt;SG_0_Node_1</title>
<path fill="none" stroke="black" d="M379.32,-855.06C278.47,-852.95 60.7,-845.56 38.1,-820.85 -21.3,-755.92 -2.54,-700.91 38.1,-622.85 40.22,-618.78 43.06,-615.08 46.31,-611.75"/>
<polygon fill="black" stroke="black" points="48.75,-614.26 53.96,-605.03 44.14,-608.99 48.75,-614.26"/>
<text text-anchor="middle" x="403.1" y="-804.85" font-family="Times,serif" font-size="20.00">[NA]</text>
<text text-anchor="middle" x="403.1" y="-782.85" font-family="Times,serif" font-size="20.00">brave Android 11 1.60.116 intent real</text>
<text text-anchor="middle" x="403.1" y="-760.85" font-family="Times,serif" font-size="20.00">brave Ubuntu 22.04 v1.62.156 (121.0.6167.139) selenium headless&#45;new</text>
<text text-anchor="middle" x="403.1" y="-738.85" font-family="Times,serif" font-size="20.00">chrome Android 11 120.0.6099.44 intent real</text>
<text text-anchor="middle" x="403.1" y="-716.85" font-family="Times,serif" font-size="20.00">chrome Ubuntu 22.04 120 selenium headless&#45;new</text>
<text text-anchor="middle" x="403.1" y="-694.85" font-family="Times,serif" font-size="20.00">chrome Ubuntu 22.04 121 selenium headless&#45;new</text>
<text text-anchor="middle" x="403.1" y="-672.85" font-family="Times,serif" font-size="20.00">chrome Ubuntu 22.04 122 selenium headless&#45;new</text>
<text text-anchor="middle" x="403.1" y="-650.85" font-family="Times,serif" font-size="20.00">edge Ubuntu 22.04 121 selenium headless&#45;new</text>
<text text-anchor="middle" x="403.1" y="-628.85" font-family="Times,serif" font-size="20.00">opera Android 11 78.4.4143.75735 intent real</text>
</g>
<!-- SG_0_Node_2 -->
<g id="node3" class="node">
<title>SG_0_Node_2</title>
<polygon fill="none" stroke="black" points="858.6,-604.85 721.6,-604.85 721.6,-568.85 858.6,-568.85 858.6,-604.85"/>
<text text-anchor="middle" x="790.1" y="-581.85" font-family="Times,serif" font-size="20.00">raw_header</text>
</g>
<!-- SG_0_Node_0&#45;&gt;SG_0_Node_2 -->
<g id="edge2" class="edge">
<title>SG_0_Node_0&#45;&gt;SG_0_Node_2</title>
<path fill="none" stroke="black" d="M480.92,-854.09C570.35,-850.47 748.3,-840.84 768.1,-820.85 796.19,-792.51 794.12,-670.51 791.64,-615.25"/>
<polygon fill="black" stroke="black" points="795.13,-614.95 791.15,-605.13 788.14,-615.29 795.13,-614.95"/>
<text text-anchor="middle" x="1016.6" y="-738.85" font-family="Times,serif" font-size="20.00">firefox Ubuntu 22.04 121 selenium headless</text>
<text text-anchor="middle" x="1016.6" y="-716.85" font-family="Times,serif" font-size="20.00">firefox Ubuntu 22.04 122 selenium headless</text>
<text text-anchor="middle" x="1016.6" y="-694.85" font-family="Times,serif" font-size="20.00">firefox_beta Android 11 122.0b1 intent real</text>
</g>
<!-- SG_0_Node_3 -->
<g id="node4" class="node">
<title>SG_0_Node_3</title>
<ellipse fill="none" stroke="black" cx="70.1" cy="-313.64" rx="33.88" ry="21.43"/>
<text text-anchor="middle" x="70.1" y="-308.64" font-family="Times,serif" font-size="20.00">0.0</text>
</g>
<!-- SG_0_Node_1&#45;&gt;SG_0_Node_3 -->
<g id="edge5" class="edge">
<title>SG_0_Node_1&#45;&gt;SG_0_Node_3</title>
<path fill="none" stroke="black" d="M77.84,-568.62C75.1,-563.13 72.5,-556.91 71.1,-550.85 54.31,-478.55 60.76,-390.42 65.98,-344.97"/>
<polygon fill="black" stroke="black" points="69.47,-345.25 67.2,-334.9 62.52,-344.4 69.47,-345.25"/>
<text text-anchor="middle" x="123.1" y="-457.85" font-family="Times,serif" font-size="20.00">[NA]</text>
<text text-anchor="middle" x="123.1" y="-435.85" font-family="Times,serif" font-size="20.00">108 levels</text>
</g>
<!-- SG_0_Node_4 -->
<g id="node5" class="node">
<title>SG_0_Node_4</title>
<ellipse fill="none" stroke="black" cx="197.1" cy="-313.64" rx="33.88" ry="21.43"/>
<text text-anchor="middle" x="197.1" y="-308.64" font-family="Times,serif" font-size="20.00">1.0</text>
</g>
<!-- SG_0_Node_1&#45;&gt;SG_0_Node_4 -->
<g id="edge6" class="edge">
<title>SG_0_Node_1&#45;&gt;SG_0_Node_4</title>
<path fill="none" stroke="black" d="M154.03,-568.77C162.16,-564.16 169.55,-558.29 175.1,-550.85 220.74,-489.63 211.81,-393.2 203.42,-344.66"/>
<polygon fill="black" stroke="black" points="206.85,-343.98 201.6,-334.78 199.97,-345.25 206.85,-343.98"/>
<text text-anchor="middle" x="255.6" y="-446.85" font-family="Times,serif" font-size="20.00">15 levels</text>
</g>
<!-- SG_0_Node_5 -->
<g id="node6" class="node">
<title>SG_0_Node_5</title>
<ellipse fill="none" stroke="black" cx="733.1" cy="-313.64" rx="33.88" ry="21.43"/>
<text text-anchor="middle" x="733.1" y="-308.64" font-family="Times,serif" font-size="20.00">0.0</text>
</g>
<!-- SG_0_Node_2&#45;&gt;SG_0_Node_5 -->
<g id="edge3" class="edge">
<title>SG_0_Node_2&#45;&gt;SG_0_Node_5</title>
<path fill="none" stroke="black" d="M751.12,-568.78C744.3,-563.99 738.12,-558.06 734.1,-550.85 697.36,-484.9 712.94,-391.67 724.59,-344.48"/>
<polygon fill="black" stroke="black" points="728.03,-345.15 727.14,-334.6 721.26,-343.4 728.03,-345.15"/>
<text text-anchor="middle" x="779.6" y="-446.85" font-family="Times,serif" font-size="20.00">25 levels</text>
</g>
<!-- SG_0_Node_6 -->
<g id="node7" class="node">
<title>SG_0_Node_6</title>
<ellipse fill="none" stroke="black" cx="847.1" cy="-313.64" rx="33.88" ry="21.43"/>
<text text-anchor="middle" x="847.1" y="-308.64" font-family="Times,serif" font-size="20.00">1.0</text>
</g>
<!-- SG_0_Node_2&#45;&gt;SG_0_Node_6 -->
<g id="edge4" class="edge">
<title>SG_0_Node_2&#45;&gt;SG_0_Node_6</title>
<path fill="none" stroke="black" d="M812.11,-568.53C817.21,-563.4 822.03,-557.39 825.1,-550.85 857.1,-482.72 854.62,-391.48 850.58,-344.85"/>
<polygon fill="black" stroke="black" points="854.06,-344.42 849.63,-334.79 847.09,-345.08 854.06,-344.42"/>
<text text-anchor="middle" x="897.6" y="-457.85" font-family="Times,serif" font-size="20.00">[NA]</text>
<text text-anchor="middle" x="897.6" y="-435.85" font-family="Times,serif" font-size="20.00">98 levels</text>
</g>
<!-- SG_1_Node_0 -->
<g id="node8" class="node">
<title>SG_1_Node_0</title>
<polygon fill="none" stroke="black" points="1583.6,-874.85 1482.6,-874.85 1482.6,-838.85 1583.6,-838.85 1583.6,-874.85"/>
<text text-anchor="middle" x="1533.1" y="-851.85" font-family="Times,serif" font-size="20.00">browser</text>
</g>
<!-- SG_1_Node_1 -->
<g id="node9" class="node">
<title>SG_1_Node_1</title>
<polygon fill="none" stroke="black" points="1400.6,-604.85 1263.6,-604.85 1263.6,-568.85 1400.6,-568.85 1400.6,-604.85"/>
<text text-anchor="middle" x="1332.1" y="-581.85" font-family="Times,serif" font-size="20.00">raw_header</text>
</g>
<!-- SG_1_Node_0&#45;&gt;SG_1_Node_1 -->
<g id="edge7" class="edge">
<title>SG_1_Node_0&#45;&gt;SG_1_Node_1</title>
<path fill="none" stroke="black" d="M1482.33,-856.29C1416.62,-855.65 1307.52,-850.06 1282.1,-820.85 1253.21,-787.66 1261.78,-661.88 1282.1,-622.85 1284.22,-618.78 1287.06,-615.08 1290.31,-611.75"/>
<polygon fill="black" stroke="black" points="1292.75,-614.26 1297.96,-605.03 1288.14,-608.99 1292.75,-614.26"/>
<text text-anchor="middle" x="1506.6" y="-738.85" font-family="Times,serif" font-size="20.00">firefox Ubuntu 22.04 121 selenium headless</text>
<text text-anchor="middle" x="1506.6" y="-716.85" font-family="Times,serif" font-size="20.00">firefox Ubuntu 22.04 122 selenium headless</text>
<text text-anchor="middle" x="1506.6" y="-694.85" font-family="Times,serif" font-size="20.00">firefox_beta Android 11 122.0b1 intent real</text>
</g>
<!-- SG_1_Node_2 -->
<g id="node10" class="node">
<title>SG_1_Node_2</title>
<polygon fill="none" stroke="black" points="1821.6,-604.85 1684.6,-604.85 1684.6,-568.85 1821.6,-568.85 1821.6,-604.85"/>
<text text-anchor="middle" x="1753.1" y="-581.85" font-family="Times,serif" font-size="20.00">raw_header</text>
</g>
<!-- SG_1_Node_0&#45;&gt;SG_1_Node_2 -->
<g id="edge8" class="edge">
<title>SG_1_Node_0&#45;&gt;SG_1_Node_2</title>
<path fill="none" stroke="black" d="M1583.92,-853.69C1635.89,-850.34 1711.69,-841.89 1731.1,-820.85 1758.15,-791.52 1756.64,-670.05 1754.47,-615.08"/>
<polygon fill="black" stroke="black" points="1757.97,-614.87 1754.04,-605.03 1750.98,-615.17 1757.97,-614.87"/>
<text text-anchor="middle" x="2120.1" y="-804.85" font-family="Times,serif" font-size="20.00">[NA]</text>
<text text-anchor="middle" x="2120.1" y="-782.85" font-family="Times,serif" font-size="20.00">brave Android 11 1.60.116 intent real</text>
<text text-anchor="middle" x="2120.1" y="-760.85" font-family="Times,serif" font-size="20.00">brave Ubuntu 22.04 v1.62.156 (121.0.6167.139) selenium headless&#45;new</text>
<text text-anchor="middle" x="2120.1" y="-738.85" font-family="Times,serif" font-size="20.00">chrome Android 11 120.0.6099.44 intent real</text>
<text text-anchor="middle" x="2120.1" y="-716.85" font-family="Times,serif" font-size="20.00">chrome Ubuntu 22.04 120 selenium headless&#45;new</text>
<text text-anchor="middle" x="2120.1" y="-694.85" font-family="Times,serif" font-size="20.00">chrome Ubuntu 22.04 121 selenium headless&#45;new</text>
<text text-anchor="middle" x="2120.1" y="-672.85" font-family="Times,serif" font-size="20.00">chrome Ubuntu 22.04 122 selenium headless&#45;new</text>
<text text-anchor="middle" x="2120.1" y="-650.85" font-family="Times,serif" font-size="20.00">edge Ubuntu 22.04 121 selenium headless&#45;new</text>
<text text-anchor="middle" x="2120.1" y="-628.85" font-family="Times,serif" font-size="20.00">opera Android 11 78.4.4143.75735 intent real</text>
</g>
<!-- SG_1_Node_3 -->
<g id="node11" class="node">
<title>SG_1_Node_3</title>
<ellipse fill="none" stroke="black" cx="1314.1" cy="-313.64" rx="33.88" ry="21.43"/>
<text text-anchor="middle" x="1314.1" y="-308.64" font-family="Times,serif" font-size="20.00">0.0</text>
</g>
<!-- SG_1_Node_1&#45;&gt;SG_1_Node_3 -->
<g id="edge11" class="edge">
<title>SG_1_Node_1&#45;&gt;SG_1_Node_3</title>
<path fill="none" stroke="black" d="M1321.84,-568.62C1319.1,-563.13 1316.5,-556.91 1315.1,-550.85 1298.31,-478.55 1304.76,-390.42 1309.98,-344.97"/>
<polygon fill="black" stroke="black" points="1313.47,-345.25 1311.2,-334.9 1306.52,-344.4 1313.47,-345.25"/>
<text text-anchor="middle" x="1367.1" y="-457.85" font-family="Times,serif" font-size="20.00">[NA]</text>
<text text-anchor="middle" x="1367.1" y="-435.85" font-family="Times,serif" font-size="20.00">101 levels</text>
</g>
<!-- SG_1_Node_4 -->
<g id="node12" class="node">
<title>SG_1_Node_4</title>
<ellipse fill="none" stroke="black" cx="1441.1" cy="-313.64" rx="33.88" ry="21.43"/>
<text text-anchor="middle" x="1441.1" y="-308.64" font-family="Times,serif" font-size="20.00">1.0</text>
</g>
<!-- SG_1_Node_1&#45;&gt;SG_1_Node_4 -->
<g id="edge12" class="edge">
<title>SG_1_Node_1&#45;&gt;SG_1_Node_4</title>
<path fill="none" stroke="black" d="M1398.03,-568.77C1406.16,-564.16 1413.55,-558.29 1419.1,-550.85 1464.74,-489.63 1455.81,-393.2 1447.42,-344.66"/>
<polygon fill="black" stroke="black" points="1450.85,-343.98 1445.6,-334.78 1443.97,-345.25 1450.85,-343.98"/>
<text text-anchor="middle" x="1499.6" y="-446.85" font-family="Times,serif" font-size="20.00">22 levels</text>
</g>
<!-- SG_1_Node_5 -->
<g id="node13" class="node">
<title>SG_1_Node_5</title>
<ellipse fill="none" stroke="black" cx="1696.1" cy="-313.64" rx="33.88" ry="21.43"/>
<text text-anchor="middle" x="1696.1" y="-308.64" font-family="Times,serif" font-size="20.00">0.0</text>
</g>
<!-- SG_1_Node_2&#45;&gt;SG_1_Node_5 -->
<g id="edge9" class="edge">
<title>SG_1_Node_2&#45;&gt;SG_1_Node_5</title>
<path fill="none" stroke="black" d="M1714.12,-568.78C1707.3,-563.99 1701.12,-558.06 1697.1,-550.85 1660.36,-484.9 1675.94,-391.67 1687.59,-344.48"/>
<polygon fill="black" stroke="black" points="1691.03,-345.15 1690.14,-334.6 1684.26,-343.4 1691.03,-345.15"/>
<text text-anchor="middle" x="1742.6" y="-446.85" font-family="Times,serif" font-size="20.00">24 levels</text>
</g>
<!-- SG_1_Node_6 -->
<g id="node14" class="node">
<title>SG_1_Node_6</title>
<ellipse fill="none" stroke="black" cx="1810.1" cy="-313.64" rx="33.88" ry="21.43"/>
<text text-anchor="middle" x="1810.1" y="-308.64" font-family="Times,serif" font-size="20.00">1.0</text>
</g>
<!-- SG_1_Node_2&#45;&gt;SG_1_Node_6 -->
<g id="edge10" class="edge">
<title>SG_1_Node_2&#45;&gt;SG_1_Node_6</title>
<path fill="none" stroke="black" d="M1775.11,-568.53C1780.21,-563.4 1785.03,-557.39 1788.1,-550.85 1820.1,-482.72 1817.62,-391.48 1813.58,-344.85"/>
<polygon fill="black" stroke="black" points="1817.06,-344.42 1812.63,-334.79 1810.09,-345.08 1817.06,-344.42"/>
<text text-anchor="middle" x="1860.6" y="-457.85" font-family="Times,serif" font-size="20.00">[NA]</text>
<text text-anchor="middle" x="1860.6" y="-435.85" font-family="Times,serif" font-size="20.00">99 levels</text>
</g>
<!-- SG_2_Node_0 -->
<g id="node15" class="node">
<title>SG_2_Node_0</title>
<polygon fill="none" stroke="black" points="2707.6,-874.85 2570.6,-874.85 2570.6,-838.85 2707.6,-838.85 2707.6,-874.85"/>
<text text-anchor="middle" x="2639.1" y="-851.85" font-family="Times,serif" font-size="20.00">raw_header</text>
</g>
<!-- SG_2_Node_1 -->
<g id="node16" class="node">
<title>SG_2_Node_1</title>
<polygon fill="none" stroke="black" points="2653.6,-604.85 2516.6,-604.85 2516.6,-568.85 2653.6,-568.85 2653.6,-604.85"/>
<text text-anchor="middle" x="2585.1" y="-581.85" font-family="Times,serif" font-size="20.00">status_code</text>
</g>
<!-- SG_2_Node_0&#45;&gt;SG_2_Node_1 -->
<g id="edge13" class="edge">
<title>SG_2_Node_0&#45;&gt;SG_2_Node_1</title>
<path fill="none" stroke="black" d="M2608.52,-838.7C2602.37,-833.77 2596.69,-827.81 2593.1,-820.85 2558.32,-753.62 2570.09,-660.28 2578.95,-614.85"/>
<polygon fill="black" stroke="black" points="2582.41,-615.39 2581,-604.89 2575.56,-613.98 2582.41,-615.39"/>
<text text-anchor="middle" x="2645.1" y="-727.85" font-family="Times,serif" font-size="20.00">[NA]</text>
<text text-anchor="middle" x="2645.1" y="-705.85" font-family="Times,serif" font-size="20.00">114 levels</text>
</g>
<!-- SG_2_Node_2 -->
<g id="node17" class="node">
<title>SG_2_Node_2</title>
<polygon fill="none" stroke="black" points="2772.6,-604.85 2671.6,-604.85 2671.6,-568.85 2772.6,-568.85 2772.6,-604.85"/>
<text text-anchor="middle" x="2722.1" y="-581.85" font-family="Times,serif" font-size="20.00">browser</text>
</g>
<!-- SG_2_Node_0&#45;&gt;SG_2_Node_2 -->
<g id="edge14" class="edge">
<title>SG_2_Node_0&#45;&gt;SG_2_Node_2</title>
<path fill="none" stroke="black" d="M2678.86,-838.67C2685.97,-833.89 2692.55,-827.99 2697.1,-820.85 2738.09,-756.53 2732.45,-661.47 2726.49,-615.18"/>
<polygon fill="black" stroke="black" points="2729.93,-614.45 2725.08,-605.02 2722.99,-615.41 2729.93,-614.45"/>
<text text-anchor="middle" x="2972.1" y="-804.85" font-family="Times,serif" font-size="20.00">[[&#39;x00content&#45;security&#45;policy&#39;, &quot;img&#45;src &#39;none&#39;&quot;]]</text>
<text text-anchor="middle" x="2972.1" y="-782.85" font-family="Times,serif" font-size="20.00">[[&#39;x00content&#45;security&#45;policy&#39;, &quot;img&#45;src &#39;self&#39;&quot;]]</text>
<text text-anchor="middle" x="2972.1" y="-760.85" font-family="Times,serif" font-size="20.00">[[&#39;x00content&#45;security&#45;policy&#39;, &#39;img&#45;src *&#39;]]</text>
<text text-anchor="middle" x="2972.1" y="-738.85" font-family="Times,serif" font-size="20.00">[[&#39;content&#45;secx00urity&#45;policy&#39;, &quot;img&#45;src &#39;none&#39;&quot;]]</text>
<text text-anchor="middle" x="2972.1" y="-716.85" font-family="Times,serif" font-size="20.00">[[&#39;content&#45;secx00urity&#45;policy&#39;, &quot;img&#45;src &#39;self&#39;&quot;]]</text>
<text text-anchor="middle" x="2972.1" y="-694.85" font-family="Times,serif" font-size="20.00">[[&#39;content&#45;secx00urity&#45;policy&#39;, &#39;img&#45;src *&#39;]]</text>
<text text-anchor="middle" x="2972.1" y="-672.85" font-family="Times,serif" font-size="20.00">[[&#39;content&#45;security&#45;policyx00&#39;, &quot;img&#45;src &#39;none&#39;&quot;]]</text>
<text text-anchor="middle" x="2972.1" y="-650.85" font-family="Times,serif" font-size="20.00">[[&#39;content&#45;security&#45;policyx00&#39;, &quot;img&#45;src &#39;self&#39;&quot;]]</text>
<text text-anchor="middle" x="2972.1" y="-628.85" font-family="Times,serif" font-size="20.00">[[&#39;content&#45;security&#45;policyx00&#39;, &#39;img&#45;src *&#39;]]</text>
</g>
<!-- SG_2_Node_4 -->
<g id="node18" class="node">
<title>SG_2_Node_4</title>
<ellipse fill="none" stroke="black" cx="2541.1" cy="-313.64" rx="33.88" ry="21.43"/>
<text text-anchor="middle" x="2541.1" y="-308.64" font-family="Times,serif" font-size="20.00">0.0</text>
</g>
<!-- SG_2_Node_1&#45;&gt;SG_2_Node_4 -->
<g id="edge17" class="edge">
<title>SG_2_Node_1&#45;&gt;SG_2_Node_4</title>
<path fill="none" stroke="black" d="M2543.45,-568.75C2536.51,-564 2530.22,-558.1 2526.1,-550.85 2482.55,-474.38 2509.74,-439.32 2526.1,-352.85 2526.68,-349.8 2527.49,-346.68 2528.45,-343.6"/>
<polygon fill="black" stroke="black" points="2531.79,-344.65 2531.86,-334.05 2525.2,-342.29 2531.79,-344.65"/>
<text text-anchor="middle" x="2549.6" y="-457.85" font-family="Times,serif" font-size="20.00">[NA]</text>
<text text-anchor="middle" x="2549.6" y="-435.85" font-family="Times,serif" font-size="20.00">200</text>
</g>
<!-- SG_2_Node_3 -->
<g id="node19" class="node">
<title>SG_2_Node_3</title>
<polygon fill="none" stroke="black" points="2693.6,-331.64 2592.6,-331.64 2592.6,-295.64 2693.6,-295.64 2693.6,-331.64"/>
<text text-anchor="middle" x="2643.1" y="-308.64" font-family="Times,serif" font-size="20.00">browser</text>
</g>
<!-- SG_2_Node_1&#45;&gt;SG_2_Node_3 -->
<g id="edge18" class="edge">
<title>SG_2_Node_1&#45;&gt;SG_2_Node_3</title>
<path fill="none" stroke="black" d="M2584.23,-568.66C2582.12,-521.42 2578.18,-390.6 2597.1,-352.85 2599.66,-347.75 2603.24,-343.07 2607.29,-338.88"/>
<polygon fill="black" stroke="black" points="2609.94,-341.19 2614.96,-331.86 2605.22,-336.03 2609.94,-341.19"/>
<text text-anchor="middle" x="2616.6" y="-446.85" font-family="Times,serif" font-size="20.00">300</text>
</g>
<!-- SG_2_Node_5 -->
<g id="node20" class="node">
<title>SG_2_Node_5</title>
<ellipse fill="none" stroke="black" cx="2745.1" cy="-313.64" rx="33.88" ry="21.43"/>
<text text-anchor="middle" x="2745.1" y="-308.64" font-family="Times,serif" font-size="20.00">0.0</text>
</g>
<!-- SG_2_Node_2&#45;&gt;SG_2_Node_5 -->
<g id="edge15" class="edge">
<title>SG_2_Node_2&#45;&gt;SG_2_Node_5</title>
<path fill="none" stroke="black" d="M2676.03,-568.72C2668.87,-564.03 2662.43,-558.15 2658.1,-550.85 2635.66,-513 2633.43,-389.29 2658.1,-352.85 2670.17,-335.02 2683.38,-343.53 2703.1,-334.85 2705.29,-333.89 2707.53,-332.88 2709.78,-331.85"/>
<polygon fill="black" stroke="black" points="2711.44,-334.94 2719.01,-327.53 2708.47,-328.6 2711.44,-334.94"/>
<text text-anchor="middle" x="2882.6" y="-468.85" font-family="Times,serif" font-size="20.00">firefox Ubuntu 22.04 121 selenium headless</text>
<text text-anchor="middle" x="2882.6" y="-446.85" font-family="Times,serif" font-size="20.00">firefox Ubuntu 22.04 122 selenium headless</text>
<text text-anchor="middle" x="2882.6" y="-424.85" font-family="Times,serif" font-size="20.00">firefox_beta Android 11 122.0b1 intent real</text>
</g>
<!-- SG_2_Node_6 -->
<g id="node21" class="node">
<title>SG_2_Node_6</title>
<ellipse fill="none" stroke="black" cx="3129.1" cy="-313.64" rx="33.88" ry="21.43"/>
<text text-anchor="middle" x="3129.1" y="-308.64" font-family="Times,serif" font-size="20.00">1.0</text>
</g>
<!-- SG_2_Node_2&#45;&gt;SG_2_Node_6 -->
<g id="edge16" class="edge">
<title>SG_2_Node_2&#45;&gt;SG_2_Node_6</title>
<path fill="none" stroke="black" d="M2772.93,-584.78C2872.14,-582.19 3083.91,-573.99 3107.1,-550.85 3161.67,-496.4 3148.2,-395.29 3137.01,-344.86"/>
<polygon fill="black" stroke="black" points="3140.37,-343.85 3134.69,-334.91 3133.56,-345.44 3140.37,-343.85"/>
<text text-anchor="middle" x="3512.1" y="-534.85" font-family="Times,serif" font-size="20.00">[NA]</text>
<text text-anchor="middle" x="3512.1" y="-512.85" font-family="Times,serif" font-size="20.00">brave Android 11 1.60.116 intent real</text>
<text text-anchor="middle" x="3512.1" y="-490.85" font-family="Times,serif" font-size="20.00">brave Ubuntu 22.04 v1.62.156 (121.0.6167.139) selenium headless&#45;new</text>
<text text-anchor="middle" x="3512.1" y="-468.85" font-family="Times,serif" font-size="20.00">chrome Android 11 120.0.6099.44 intent real</text>
<text text-anchor="middle" x="3512.1" y="-446.85" font-family="Times,serif" font-size="20.00">chrome Ubuntu 22.04 120 selenium headless&#45;new</text>
<text text-anchor="middle" x="3512.1" y="-424.85" font-family="Times,serif" font-size="20.00">chrome Ubuntu 22.04 121 selenium headless&#45;new</text>
<text text-anchor="middle" x="3512.1" y="-402.85" font-family="Times,serif" font-size="20.00">chrome Ubuntu 22.04 122 selenium headless&#45;new</text>
<text text-anchor="middle" x="3512.1" y="-380.85" font-family="Times,serif" font-size="20.00">edge Ubuntu 22.04 121 selenium headless&#45;new</text>
<text text-anchor="middle" x="3512.1" y="-358.85" font-family="Times,serif" font-size="20.00">opera Android 11 78.4.4143.75735 intent real</text>
</g>
<!-- SG_2_Node_7 -->
<g id="node22" class="node">
<title>SG_2_Node_7</title>
<ellipse fill="none" stroke="black" cx="2592.1" cy="-37.21" rx="33.88" ry="21.43"/>
<text text-anchor="middle" x="2592.1" y="-32.21" font-family="Times,serif" font-size="20.00">0.0</text>
</g>
<!-- SG_2_Node_3&#45;&gt;SG_2_Node_7 -->
<g id="edge19" class="edge">
<title>SG_2_Node_3&#45;&gt;SG_2_Node_7</title>
<path fill="none" stroke="black" d="M2611.77,-295.6C2604.3,-289.91 2597.28,-282.84 2593.1,-274.43 2559.59,-207 2573.63,-114.78 2584.26,-68.02"/>
<polygon fill="black" stroke="black" points="2587.68,-68.76 2586.58,-58.22 2580.87,-67.14 2587.68,-68.76"/>
<text text-anchor="middle" x="2958.1" y="-258.43" font-family="Times,serif" font-size="20.00">[NA]</text>
<text text-anchor="middle" x="2958.1" y="-236.43" font-family="Times,serif" font-size="20.00">brave Android 11 1.60.116 intent real</text>
<text text-anchor="middle" x="2958.1" y="-214.43" font-family="Times,serif" font-size="20.00">brave Ubuntu 22.04 v1.62.156 (121.0.6167.139) selenium headless&#45;new</text>
<text text-anchor="middle" x="2958.1" y="-192.43" font-family="Times,serif" font-size="20.00">chrome Android 11 120.0.6099.44 intent real</text>
<text text-anchor="middle" x="2958.1" y="-170.43" font-family="Times,serif" font-size="20.00">chrome Ubuntu 22.04 120 selenium headless&#45;new</text>
<text text-anchor="middle" x="2958.1" y="-148.43" font-family="Times,serif" font-size="20.00">chrome Ubuntu 22.04 121 selenium headless&#45;new</text>
<text text-anchor="middle" x="2958.1" y="-126.43" font-family="Times,serif" font-size="20.00">chrome Ubuntu 22.04 122 selenium headless&#45;new</text>
<text text-anchor="middle" x="2958.1" y="-104.43" font-family="Times,serif" font-size="20.00">edge Ubuntu 22.04 121 selenium headless&#45;new</text>
<text text-anchor="middle" x="2958.1" y="-82.43" font-family="Times,serif" font-size="20.00">opera Android 11 78.4.4143.75735 intent real</text>
</g>
<!-- SG_2_Node_8 -->
<g id="node23" class="node">
<title>SG_2_Node_8</title>
<ellipse fill="none" stroke="black" cx="3345.1" cy="-37.21" rx="33.88" ry="21.43"/>
<text text-anchor="middle" x="3345.1" y="-32.21" font-family="Times,serif" font-size="20.00">1.0</text>
</g>
<!-- SG_2_Node_3&#45;&gt;SG_2_Node_8 -->
<g id="edge20" class="edge">
<title>SG_2_Node_3&#45;&gt;SG_2_Node_8</title>
<path fill="none" stroke="black" d="M2672.5,-295.54C2681.68,-291.04 2692.04,-286.79 2702.1,-284.43 2718.89,-280.48 3310.44,-286.15 3323.1,-274.43 3379.92,-221.8 3365.14,-119.04 3353.28,-68.19"/>
<polygon fill="black" stroke="black" points="3356.68,-67.33 3350.9,-58.45 3349.88,-68.99 3356.68,-67.33"/>
<text text-anchor="middle" x="3588.6" y="-192.43" font-family="Times,serif" font-size="20.00">firefox Ubuntu 22.04 121 selenium headless</text>
<text text-anchor="middle" x="3588.6" y="-170.43" font-family="Times,serif" font-size="20.00">firefox Ubuntu 22.04 122 selenium headless</text>
<text text-anchor="middle" x="3588.6" y="-148.43" font-family="Times,serif" font-size="20.00">firefox_beta Android 11 122.0b1 intent real</text>
</g>
</g>
</svg>
