<?xml version="1.0" encoding="UTF-8" standalone="no"?>
<!DOCTYPE svg PUBLIC "-//W3C//DTD SVG 1.1//EN"
 "http://www.w3.org/Graphics/SVG/1.1/DTD/svg11.dtd">
<!-- Generated by graphviz version 2.43.0 (0)
 -->
<!-- Title: G Pages: 1 -->
<svg width="5468pt" height="1413pt"
 viewBox="0.00 0.00 5468.00 1412.56" xmlns="http://www.w3.org/2000/svg" xmlns:xlink="http://www.w3.org/1999/xlink">
<g id="graph0" class="graph" transform="scale(1 1) rotate(0) translate(4 1408.56)">
<title>G</title>
<polygon fill="white" stroke="transparent" points="-4,4 -4,-1408.56 5464,-1408.56 5464,4 -4,4"/>
<g id="clust1" class="cluster">
<title>cluster_0</title>
<polygon fill="none" stroke="black" points="8,-8 8,-1396.56 2488,-1396.56 2488,-8 8,-8"/>
<text text-anchor="middle" x="1248" y="-1360.56" font-family="Times,serif" font-size="40.00">Tree 0, Class window.originAgentCluster: false</text>
</g>
<g id="clust9" class="cluster">
<title>cluster_1</title>
<polygon fill="none" stroke="black" points="2496,-8 2496,-1396.56 4207,-1396.56 4207,-8 2496,-8"/>
<text text-anchor="middle" x="3351.5" y="-1360.56" font-family="Times,serif" font-size="40.00">Tree 0, Class window.originAgentCluster: true</text>
</g>
<g id="clust17" class="cluster">
<title>cluster_2</title>
<polygon fill="none" stroke="black" points="4215,-1016.13 4215,-1396.56 5451,-1396.56 5451,-1016.13 4215,-1016.13"/>
<text text-anchor="middle" x="4833" y="-1360.56" font-family="Times,serif" font-size="40.00">Tree 0, Class window.originAgentCluster: undefined</text>
</g>
<!-- SG_0_Node_0 -->
<g id="node1" class="node">
<title>SG_0_Node_0</title>
<polygon fill="none" stroke="black" points="1099,-1336.56 967,-1336.56 967,-1300.56 1099,-1300.56 1099,-1336.56"/>
<text text-anchor="middle" x="1033" y="-1313.56" font-family="Times,serif" font-size="20.00">resp_origin</text>
</g>
<!-- SG_0_Node_1 -->
<g id="node2" class="node">
<title>SG_0_Node_1</title>
<polygon fill="none" stroke="black" points="837.5,-1063.35 736.5,-1063.35 736.5,-1027.35 837.5,-1027.35 837.5,-1063.35"/>
<text text-anchor="middle" x="787" y="-1040.35" font-family="Times,serif" font-size="20.00">browser</text>
</g>
<!-- SG_0_Node_0&#45;&gt;SG_0_Node_1 -->
<g id="edge1" class="edge">
<title>SG_0_Node_0&#45;&gt;SG_0_Node_1</title>
<path fill="none" stroke="black" d="M966.86,-1316.56C906.25,-1314.11 822.74,-1306.36 801,-1282.56 748.22,-1224.77 766.24,-1122.16 778.92,-1073.46"/>
<polygon fill="black" stroke="black" points="782.34,-1074.21 781.59,-1063.65 775.59,-1072.37 782.34,-1074.21"/>
<text text-anchor="middle" x="1008.5" y="-1222.56" font-family="Times,serif" font-size="20.00">[NA]</text>
<text text-anchor="middle" x="1008.5" y="-1200.56" font-family="Times,serif" font-size="20.00">https://headers.webappsec.eu</text>
<text text-anchor="middle" x="1008.5" y="-1178.56" font-family="Times,serif" font-size="20.00">https://headers.websec.saarland</text>
<text text-anchor="middle" x="1008.5" y="-1156.56" font-family="Times,serif" font-size="20.00">https://sub.headers.websec.saarland</text>
<text text-anchor="middle" x="1008.5" y="-1134.56" font-family="Times,serif" font-size="20.00">https://sub.sub.headers.websec.saarland</text>
</g>
<!-- SG_0_Node_2 -->
<g id="node3" class="node">
<title>SG_0_Node_2</title>
<polygon fill="none" stroke="black" points="1328.5,-1063.35 1227.5,-1063.35 1227.5,-1027.35 1328.5,-1027.35 1328.5,-1063.35"/>
<text text-anchor="middle" x="1278" y="-1040.35" font-family="Times,serif" font-size="20.00">browser</text>
</g>
<!-- SG_0_Node_0&#45;&gt;SG_0_Node_2 -->
<g id="edge2" class="edge">
<title>SG_0_Node_0&#45;&gt;SG_0_Node_2</title>
<path fill="none" stroke="black" d="M1099.14,-1312.71C1145.71,-1307.93 1202.72,-1298.9 1220,-1282.56 1278.47,-1227.26 1282.03,-1123.38 1280.03,-1073.9"/>
<polygon fill="black" stroke="black" points="1283.51,-1073.46 1279.5,-1063.65 1276.52,-1073.82 1283.51,-1073.46"/>
<text text-anchor="middle" x="1482.5" y="-1211.56" font-family="Times,serif" font-size="20.00">http://headers.webappsec.eu</text>
<text text-anchor="middle" x="1482.5" y="-1189.56" font-family="Times,serif" font-size="20.00">http://headers.websec.saarland</text>
<text text-anchor="middle" x="1482.5" y="-1167.56" font-family="Times,serif" font-size="20.00">http://sub.headers.websec.saarland</text>
<text text-anchor="middle" x="1482.5" y="-1145.56" font-family="Times,serif" font-size="20.00">http://sub.sub.headers.websec.saarland</text>
</g>
<!-- SG_0_Node_3 -->
<g id="node4" class="node">
<title>SG_0_Node_3</title>
<polygon fill="none" stroke="black" points="153.5,-742.92 16.5,-742.92 16.5,-706.92 153.5,-706.92 153.5,-742.92"/>
<text text-anchor="middle" x="85" y="-719.92" font-family="Times,serif" font-size="20.00">raw_header</text>
</g>
<!-- SG_0_Node_1&#45;&gt;SG_0_Node_3 -->
<g id="edge5" class="edge">
<title>SG_0_Node_1&#45;&gt;SG_0_Node_3</title>
<path fill="none" stroke="black" d="M736.48,-1043.63C573.35,-1041.07 69.77,-1031.16 46,-1006.13 -28.07,-928.14 4.33,-863.29 46,-764.13 48.06,-759.23 51.09,-754.65 54.56,-750.47"/>
<polygon fill="black" stroke="black" points="57.32,-752.64 61.65,-742.97 52.24,-747.83 57.32,-752.64"/>
<text text-anchor="middle" x="411" y="-990.13" font-family="Times,serif" font-size="20.00">[NA]</text>
<text text-anchor="middle" x="411" y="-968.13" font-family="Times,serif" font-size="20.00">brave Android 11 1.60.116 intent real</text>
<text text-anchor="middle" x="411" y="-946.13" font-family="Times,serif" font-size="20.00">brave Ubuntu 22.04 v1.62.156 (121.0.6167.139) selenium headless&#45;new</text>
<text text-anchor="middle" x="411" y="-924.13" font-family="Times,serif" font-size="20.00">chrome Android 11 120.0.6099.44 intent real</text>
<text text-anchor="middle" x="411" y="-902.13" font-family="Times,serif" font-size="20.00">chrome Ubuntu 22.04 120 selenium headless&#45;new</text>
<text text-anchor="middle" x="411" y="-880.13" font-family="Times,serif" font-size="20.00">chrome Ubuntu 22.04 121 selenium headless&#45;new</text>
<text text-anchor="middle" x="411" y="-858.13" font-family="Times,serif" font-size="20.00">chrome Ubuntu 22.04 122 selenium headless&#45;new</text>
<text text-anchor="middle" x="411" y="-836.13" font-family="Times,serif" font-size="20.00">edge Ubuntu 22.04 121 selenium headless&#45;new</text>
<text text-anchor="middle" x="411" y="-814.13" font-family="Times,serif" font-size="20.00">firefox Ubuntu 22.04 121 selenium headless</text>
<text text-anchor="middle" x="411" y="-792.13" font-family="Times,serif" font-size="20.00">firefox Ubuntu 22.04 122 selenium headless</text>
<text text-anchor="middle" x="411" y="-770.13" font-family="Times,serif" font-size="20.00">firefox_beta Android 11 122.0b1 intent real</text>
</g>
<!-- SG_0_Node_4 -->
<g id="node5" class="node">
<title>SG_0_Node_4</title>
<polygon fill="none" stroke="black" points="1187.5,-742.92 1050.5,-742.92 1050.5,-706.92 1187.5,-706.92 1187.5,-742.92"/>
<text text-anchor="middle" x="1119" y="-719.92" font-family="Times,serif" font-size="20.00">raw_header</text>
</g>
<!-- SG_0_Node_1&#45;&gt;SG_0_Node_4 -->
<g id="edge6" class="edge">
<title>SG_0_Node_1&#45;&gt;SG_0_Node_4</title>
<path fill="none" stroke="black" d="M785.47,-1027.25C780.95,-972.37 770.11,-802 806,-764.13 821.87,-747.39 952.56,-736.12 1039.97,-730.39"/>
<polygon fill="black" stroke="black" points="1040.39,-733.87 1050.14,-729.73 1039.94,-726.88 1040.39,-733.87"/>
<text text-anchor="middle" x="1040" y="-880.13" font-family="Times,serif" font-size="20.00">opera Android 11 78.4.4143.75735 intent real</text>
</g>
<!-- SG_0_Node_10 -->
<g id="node6" class="node">
<title>SG_0_Node_10</title>
<ellipse fill="none" stroke="black" cx="1278" cy="-724.92" rx="33.88" ry="21.43"/>
<text text-anchor="middle" x="1278" y="-719.92" font-family="Times,serif" font-size="20.00">0.0</text>
</g>
<!-- SG_0_Node_2&#45;&gt;SG_0_Node_10 -->
<g id="edge3" class="edge">
<title>SG_0_Node_2&#45;&gt;SG_0_Node_10</title>
<path fill="none" stroke="black" d="M1278,-1027.23C1278,-975.83 1278,-822.38 1278,-756.51"/>
<polygon fill="black" stroke="black" points="1281.5,-756.35 1278,-746.35 1274.5,-756.35 1281.5,-756.35"/>
<text text-anchor="middle" x="1502.5" y="-902.13" font-family="Times,serif" font-size="20.00">firefox Ubuntu 22.04 121 selenium headless</text>
<text text-anchor="middle" x="1502.5" y="-880.13" font-family="Times,serif" font-size="20.00">firefox Ubuntu 22.04 122 selenium headless</text>
<text text-anchor="middle" x="1502.5" y="-858.13" font-family="Times,serif" font-size="20.00">firefox_beta Android 11 122.0b1 intent real</text>
</g>
<!-- SG_0_Node_11 -->
<g id="node7" class="node">
<title>SG_0_Node_11</title>
<ellipse fill="none" stroke="black" cx="1750" cy="-724.92" rx="33.88" ry="21.43"/>
<text text-anchor="middle" x="1750" y="-719.92" font-family="Times,serif" font-size="20.00">1.0</text>
</g>
<!-- SG_0_Node_2&#45;&gt;SG_0_Node_11 -->
<g id="edge4" class="edge">
<title>SG_0_Node_2&#45;&gt;SG_0_Node_11</title>
<path fill="none" stroke="black" d="M1328.79,-1043.66C1440.6,-1041.64 1700.33,-1033.98 1728,-1006.13 1762.21,-971.7 1756.54,-821.58 1752.31,-756.36"/>
<polygon fill="black" stroke="black" points="1755.79,-756.03 1751.62,-746.29 1748.81,-756.5 1755.79,-756.03"/>
<text text-anchor="middle" x="2120" y="-968.13" font-family="Times,serif" font-size="20.00">[NA]</text>
<text text-anchor="middle" x="2120" y="-946.13" font-family="Times,serif" font-size="20.00">brave Android 11 1.60.116 intent real</text>
<text text-anchor="middle" x="2120" y="-924.13" font-family="Times,serif" font-size="20.00">brave Ubuntu 22.04 v1.62.156 (121.0.6167.139) selenium headless&#45;new</text>
<text text-anchor="middle" x="2120" y="-902.13" font-family="Times,serif" font-size="20.00">chrome Android 11 120.0.6099.44 intent real</text>
<text text-anchor="middle" x="2120" y="-880.13" font-family="Times,serif" font-size="20.00">chrome Ubuntu 22.04 120 selenium headless&#45;new</text>
<text text-anchor="middle" x="2120" y="-858.13" font-family="Times,serif" font-size="20.00">chrome Ubuntu 22.04 121 selenium headless&#45;new</text>
<text text-anchor="middle" x="2120" y="-836.13" font-family="Times,serif" font-size="20.00">chrome Ubuntu 22.04 122 selenium headless&#45;new</text>
<text text-anchor="middle" x="2120" y="-814.13" font-family="Times,serif" font-size="20.00">edge Ubuntu 22.04 121 selenium headless&#45;new</text>
<text text-anchor="middle" x="2120" y="-792.13" font-family="Times,serif" font-size="20.00">opera Android 11 78.4.4143.75735 intent real</text>
</g>
<!-- SG_0_Node_12 -->
<g id="node8" class="node">
<title>SG_0_Node_12</title>
<ellipse fill="none" stroke="black" cx="68" cy="-580.49" rx="33.88" ry="21.43"/>
<text text-anchor="middle" x="68" y="-575.49" font-family="Times,serif" font-size="20.00">0.0</text>
</g>
<!-- SG_0_Node_3&#45;&gt;SG_0_Node_12 -->
<g id="edge13" class="edge">
<title>SG_0_Node_3&#45;&gt;SG_0_Node_12</title>
<path fill="none" stroke="black" d="M76.2,-706.87C73.32,-700.42 70.48,-692.89 69,-685.71 63.97,-661.26 64.07,-632.9 65.23,-611.94"/>
<polygon fill="black" stroke="black" points="68.74,-611.93 65.91,-601.71 61.76,-611.46 68.74,-611.93"/>
<text text-anchor="middle" x="114.5" y="-658.71" font-family="Times,serif" font-size="20.00">[NA]</text>
<text text-anchor="middle" x="114.5" y="-636.71" font-family="Times,serif" font-size="20.00">11 levels</text>
</g>
<!-- SG_0_Node_5 -->
<g id="node9" class="node">
<title>SG_0_Node_5</title>
<polygon fill="none" stroke="black" points="232.5,-598.49 131.5,-598.49 131.5,-562.49 232.5,-562.49 232.5,-598.49"/>
<text text-anchor="middle" x="182" y="-575.49" font-family="Times,serif" font-size="20.00">browser</text>
</g>
<!-- SG_0_Node_3&#45;&gt;SG_0_Node_5 -->
<g id="edge14" class="edge">
<title>SG_0_Node_3&#45;&gt;SG_0_Node_5</title>
<path fill="none" stroke="black" d="M134.08,-706.88C143.89,-701.47 153.24,-694.52 160,-685.71 176.89,-663.66 181.54,-631.6 182.49,-608.88"/>
<polygon fill="black" stroke="black" points="185.99,-608.93 182.7,-598.86 178.99,-608.78 185.99,-608.93"/>
<text text-anchor="middle" x="326" y="-647.71" font-family="Times,serif" font-size="20.00">[[&#39;origin&#45;agent&#45;cluster&#39;, &#39;?0&#39;]]</text>
</g>
<!-- SG_0_Node_6 -->
<g id="node10" class="node">
<title>SG_0_Node_6</title>
<polygon fill="none" stroke="black" points="1333,-598.49 1201,-598.49 1201,-562.49 1333,-562.49 1333,-598.49"/>
<text text-anchor="middle" x="1267" y="-575.49" font-family="Times,serif" font-size="20.00">resp_origin</text>
</g>
<!-- SG_0_Node_4&#45;&gt;SG_0_Node_6 -->
<g id="edge7" class="edge">
<title>SG_0_Node_4&#45;&gt;SG_0_Node_6</title>
<path fill="none" stroke="black" d="M1113.38,-706.72C1107.2,-684.2 1100.51,-644.66 1120,-619.71 1129.34,-607.75 1159.97,-598.82 1190.87,-592.62"/>
<polygon fill="black" stroke="black" points="1191.73,-596.02 1200.89,-590.7 1190.41,-589.14 1191.73,-596.02"/>
<text text-anchor="middle" x="1265" y="-647.71" font-family="Times,serif" font-size="20.00">[[&#39;origin&#45;agent&#45;cluster&#39;, &#39;?1&#39;]]</text>
</g>
<!-- SG_0_Node_13 -->
<g id="node11" class="node">
<title>SG_0_Node_13</title>
<ellipse fill="none" stroke="black" cx="1432" cy="-580.49" rx="33.88" ry="21.43"/>
<text text-anchor="middle" x="1432" y="-575.49" font-family="Times,serif" font-size="20.00">1.0</text>
</g>
<!-- SG_0_Node_4&#45;&gt;SG_0_Node_13 -->
<g id="edge8" class="edge">
<title>SG_0_Node_4&#45;&gt;SG_0_Node_13</title>
<path fill="none" stroke="black" d="M1187.57,-711.15C1203.13,-708.48 1219.61,-705.84 1235,-703.71 1273.73,-698.35 1380.94,-711.85 1410,-685.71 1430.27,-667.47 1434.49,-635.68 1434.42,-611.99"/>
<polygon fill="black" stroke="black" points="1437.91,-611.65 1434.13,-601.76 1430.92,-611.85 1437.91,-611.65"/>
<text text-anchor="middle" x="1479.5" y="-658.71" font-family="Times,serif" font-size="20.00">[NA]</text>
<text text-anchor="middle" x="1479.5" y="-636.71" font-family="Times,serif" font-size="20.00">11 levels</text>
</g>
<!-- SG_0_Node_14 -->
<g id="node12" class="node">
<title>SG_0_Node_14</title>
<ellipse fill="none" stroke="black" cx="50" cy="-326.07" rx="33.88" ry="21.43"/>
<text text-anchor="middle" x="50" y="-321.07" font-family="Times,serif" font-size="20.00">0.0</text>
</g>
<!-- SG_0_Node_5&#45;&gt;SG_0_Node_14 -->
<g id="edge15" class="edge">
<title>SG_0_Node_5&#45;&gt;SG_0_Node_14</title>
<path fill="none" stroke="black" d="M131.23,-564.91C124.43,-563 117.55,-561.08 111,-559.28 80.85,-551 62.07,-566.05 43,-541.28 1.43,-487.28 22.92,-400.9 38.52,-356.12"/>
<polygon fill="black" stroke="black" points="41.82,-357.29 41.93,-346.7 35.24,-354.91 41.82,-357.29"/>
<text text-anchor="middle" x="267.5" y="-470.28" font-family="Times,serif" font-size="20.00">firefox Ubuntu 22.04 121 selenium headless</text>
<text text-anchor="middle" x="267.5" y="-448.28" font-family="Times,serif" font-size="20.00">firefox Ubuntu 22.04 122 selenium headless</text>
<text text-anchor="middle" x="267.5" y="-426.28" font-family="Times,serif" font-size="20.00">firefox_beta Android 11 122.0b1 intent real</text>
</g>
<!-- SG_0_Node_7 -->
<g id="node13" class="node">
<title>SG_0_Node_7</title>
<polygon fill="none" stroke="black" points="580,-344.07 448,-344.07 448,-308.07 580,-308.07 580,-344.07"/>
<text text-anchor="middle" x="514" y="-321.07" font-family="Times,serif" font-size="20.00">resp_origin</text>
</g>
<!-- SG_0_Node_5&#45;&gt;SG_0_Node_7 -->
<g id="edge16" class="edge">
<title>SG_0_Node_5&#45;&gt;SG_0_Node_7</title>
<path fill="none" stroke="black" d="M232.55,-576.67C315.76,-571.53 474.19,-559.46 492,-541.28 541.05,-491.22 530.06,-399.6 520.66,-354.14"/>
<polygon fill="black" stroke="black" points="524.03,-353.15 518.46,-344.14 517.19,-354.66 524.03,-353.15"/>
<text text-anchor="middle" x="893" y="-525.28" font-family="Times,serif" font-size="20.00">[NA]</text>
<text text-anchor="middle" x="893" y="-503.28" font-family="Times,serif" font-size="20.00">brave Android 11 1.60.116 intent real</text>
<text text-anchor="middle" x="893" y="-481.28" font-family="Times,serif" font-size="20.00">brave Ubuntu 22.04 v1.62.156 (121.0.6167.139) selenium headless&#45;new</text>
<text text-anchor="middle" x="893" y="-459.28" font-family="Times,serif" font-size="20.00">chrome Android 11 120.0.6099.44 intent real</text>
<text text-anchor="middle" x="893" y="-437.28" font-family="Times,serif" font-size="20.00">chrome Ubuntu 22.04 120 selenium headless&#45;new</text>
<text text-anchor="middle" x="893" y="-415.28" font-family="Times,serif" font-size="20.00">chrome Ubuntu 22.04 121 selenium headless&#45;new</text>
<text text-anchor="middle" x="893" y="-393.28" font-family="Times,serif" font-size="20.00">chrome Ubuntu 22.04 122 selenium headless&#45;new</text>
<text text-anchor="middle" x="893" y="-371.28" font-family="Times,serif" font-size="20.00">edge Ubuntu 22.04 121 selenium headless&#45;new</text>
</g>
<!-- SG_0_Node_15 -->
<g id="node14" class="node">
<title>SG_0_Node_15</title>
<ellipse fill="none" stroke="black" cx="1267" cy="-326.07" rx="33.88" ry="21.43"/>
<text text-anchor="middle" x="1267" y="-321.07" font-family="Times,serif" font-size="20.00">0.0</text>
</g>
<!-- SG_0_Node_6&#45;&gt;SG_0_Node_15 -->
<g id="edge9" class="edge">
<title>SG_0_Node_6&#45;&gt;SG_0_Node_15</title>
<path fill="none" stroke="black" d="M1267,-562.14C1267,-519.83 1267,-410.92 1267,-357.51"/>
<polygon fill="black" stroke="black" points="1270.5,-357.31 1267,-347.31 1263.5,-357.31 1270.5,-357.31"/>
<text text-anchor="middle" x="1474.5" y="-481.28" font-family="Times,serif" font-size="20.00">[NA]</text>
<text text-anchor="middle" x="1474.5" y="-459.28" font-family="Times,serif" font-size="20.00">https://headers.webappsec.eu</text>
<text text-anchor="middle" x="1474.5" y="-437.28" font-family="Times,serif" font-size="20.00">https://headers.websec.saarland</text>
<text text-anchor="middle" x="1474.5" y="-415.28" font-family="Times,serif" font-size="20.00">https://sub.sub.headers.websec.saarland</text>
</g>
<!-- SG_0_Node_8 -->
<g id="node15" class="node">
<title>SG_0_Node_8</title>
<polygon fill="none" stroke="black" points="1766,-344.07 1644,-344.07 1644,-308.07 1766,-308.07 1766,-344.07"/>
<text text-anchor="middle" x="1705" y="-321.07" font-family="Times,serif" font-size="20.00">org_origin</text>
</g>
<!-- SG_0_Node_6&#45;&gt;SG_0_Node_8 -->
<g id="edge10" class="edge">
<title>SG_0_Node_6&#45;&gt;SG_0_Node_8</title>
<path fill="none" stroke="black" d="M1333.31,-567.23C1351.33,-564.25 1370.87,-561.33 1389,-559.28 1421.52,-555.6 1659.39,-563.94 1683,-541.28 1733.68,-492.65 1721.82,-400.03 1711.92,-354.18"/>
<polygon fill="black" stroke="black" points="1715.32,-353.32 1709.68,-344.35 1708.49,-354.88 1715.32,-353.32"/>
<text text-anchor="middle" x="1906.5" y="-448.28" font-family="Times,serif" font-size="20.00">https://sub.headers.websec.saarland</text>
</g>
<!-- SG_0_Node_9 -->
<g id="node16" class="node">
<title>SG_0_Node_9</title>
<polygon fill="none" stroke="black" points="444,-177.64 322,-177.64 322,-141.64 444,-141.64 444,-177.64"/>
<text text-anchor="middle" x="383" y="-154.64" font-family="Times,serif" font-size="20.00">org_origin</text>
</g>
<!-- SG_0_Node_7&#45;&gt;SG_0_Node_9 -->
<g id="edge17" class="edge">
<title>SG_0_Node_7&#45;&gt;SG_0_Node_9</title>
<path fill="none" stroke="black" d="M447.88,-321.58C423.89,-316.73 399.02,-306.76 384,-286.85 362.58,-258.47 367.91,-215.36 374.69,-187.59"/>
<polygon fill="black" stroke="black" points="378.12,-188.33 377.31,-177.77 371.35,-186.53 378.12,-188.33"/>
<text text-anchor="middle" x="570.5" y="-237.85" font-family="Times,serif" font-size="20.00">https://sub.headers.websec.saarland</text>
</g>
<!-- SG_0_Node_16 -->
<g id="node17" class="node">
<title>SG_0_Node_16</title>
<ellipse fill="none" stroke="black" cx="779" cy="-159.64" rx="33.88" ry="21.43"/>
<text text-anchor="middle" x="779" y="-154.64" font-family="Times,serif" font-size="20.00">1.0</text>
</g>
<!-- SG_0_Node_7&#45;&gt;SG_0_Node_16 -->
<g id="edge18" class="edge">
<title>SG_0_Node_7&#45;&gt;SG_0_Node_16</title>
<path fill="none" stroke="black" d="M580.02,-323.11C643.25,-319.8 732.57,-310.88 757,-286.85 782.03,-262.24 784.56,-220 782.82,-191.22"/>
<polygon fill="black" stroke="black" points="786.28,-190.6 781.98,-180.92 779.3,-191.17 786.28,-190.6"/>
<text text-anchor="middle" x="990.5" y="-270.85" font-family="Times,serif" font-size="20.00">[NA]</text>
<text text-anchor="middle" x="990.5" y="-248.85" font-family="Times,serif" font-size="20.00">https://headers.webappsec.eu</text>
<text text-anchor="middle" x="990.5" y="-226.85" font-family="Times,serif" font-size="20.00">https://headers.websec.saarland</text>
<text text-anchor="middle" x="990.5" y="-204.85" font-family="Times,serif" font-size="20.00">https://sub.sub.headers.websec.saarland</text>
</g>
<!-- SG_0_Node_17 -->
<g id="node18" class="node">
<title>SG_0_Node_17</title>
<ellipse fill="none" stroke="black" cx="1512" cy="-159.64" rx="33.88" ry="21.43"/>
<text text-anchor="middle" x="1512" y="-154.64" font-family="Times,serif" font-size="20.00">0.0</text>
</g>
<!-- SG_0_Node_8&#45;&gt;SG_0_Node_17 -->
<g id="edge11" class="edge">
<title>SG_0_Node_8&#45;&gt;SG_0_Node_17</title>
<path fill="none" stroke="black" d="M1643.84,-321.12C1594.06,-316.5 1529.46,-306.76 1513,-286.85 1490.98,-260.24 1495.7,-218.54 1502.58,-190.43"/>
<polygon fill="black" stroke="black" points="1505.97,-191.31 1505.16,-180.74 1499.2,-189.5 1505.97,-191.31"/>
<text text-anchor="middle" x="1694.5" y="-237.85" font-family="Times,serif" font-size="20.00">http://sub.headers.websec.saarland</text>
</g>
<!-- SG_0_Node_18 -->
<g id="node19" class="node">
<title>SG_0_Node_18</title>
<ellipse fill="none" stroke="black" cx="1898" cy="-159.64" rx="33.88" ry="21.43"/>
<text text-anchor="middle" x="1898" y="-154.64" font-family="Times,serif" font-size="20.00">1.0</text>
</g>
<!-- SG_0_Node_8&#45;&gt;SG_0_Node_18 -->
<g id="edge12" class="edge">
<title>SG_0_Node_8&#45;&gt;SG_0_Node_18</title>
<path fill="none" stroke="black" d="M1766.32,-318.56C1809.03,-312.74 1860.94,-302.65 1876,-286.85 1900.09,-261.59 1902.91,-219.86 1901.49,-191.36"/>
<polygon fill="black" stroke="black" points="1904.96,-190.87 1900.77,-181.14 1897.98,-191.36 1904.96,-190.87"/>
<text text-anchor="middle" x="2087.5" y="-248.85" font-family="Times,serif" font-size="20.00">[NA]</text>
<text text-anchor="middle" x="2087.5" y="-226.85" font-family="Times,serif" font-size="20.00">https://sub.headers.websec.saarland</text>
</g>
<!-- SG_0_Node_19 -->
<g id="node20" class="node">
<title>SG_0_Node_19</title>
<ellipse fill="none" stroke="black" cx="151" cy="-37.21" rx="33.88" ry="21.43"/>
<text text-anchor="middle" x="151" y="-32.21" font-family="Times,serif" font-size="20.00">0.0</text>
</g>
<!-- SG_0_Node_9&#45;&gt;SG_0_Node_19 -->
<g id="edge19" class="edge">
<title>SG_0_Node_9&#45;&gt;SG_0_Node_19</title>
<path fill="none" stroke="black" d="M321.99,-157.37C259.95,-154.64 169.93,-146.21 148,-120.43 135.97,-106.28 136.93,-85.3 140.79,-68.07"/>
<polygon fill="black" stroke="black" points="144.3,-68.49 143.48,-57.93 137.54,-66.7 144.3,-68.49"/>
<text text-anchor="middle" x="334.5" y="-104.43" font-family="Times,serif" font-size="20.00">[NA]</text>
<text text-anchor="middle" x="334.5" y="-82.43" font-family="Times,serif" font-size="20.00">https://sub.headers.websec.saarland</text>
</g>
<!-- SG_0_Node_20 -->
<g id="node21" class="node">
<title>SG_0_Node_20</title>
<ellipse fill="none" stroke="black" cx="547" cy="-37.21" rx="33.88" ry="21.43"/>
<text text-anchor="middle" x="547" y="-32.21" font-family="Times,serif" font-size="20.00">1.0</text>
</g>
<!-- SG_0_Node_9&#45;&gt;SG_0_Node_20 -->
<g id="edge20" class="edge">
<title>SG_0_Node_9&#45;&gt;SG_0_Node_20</title>
<path fill="none" stroke="black" d="M444.1,-155.83C472.15,-151.44 503.8,-141.65 525,-120.43 538.49,-106.92 543.97,-86.11 546.08,-68.8"/>
<polygon fill="black" stroke="black" points="549.59,-68.86 547.01,-58.58 542.62,-68.22 549.59,-68.86"/>
<text text-anchor="middle" x="725.5" y="-93.43" font-family="Times,serif" font-size="20.00">http://sub.headers.websec.saarland</text>
</g>
<!-- SG_1_Node_0 -->
<g id="node22" class="node">
<title>SG_1_Node_0</title>
<polygon fill="none" stroke="black" points="2872.5,-1336.56 2771.5,-1336.56 2771.5,-1300.56 2872.5,-1300.56 2872.5,-1336.56"/>
<text text-anchor="middle" x="2822" y="-1313.56" font-family="Times,serif" font-size="20.00">browser</text>
</g>
<!-- SG_1_Node_1 -->
<g id="node23" class="node">
<title>SG_1_Node_1</title>
<polygon fill="none" stroke="black" points="2645.5,-1063.35 2508.5,-1063.35 2508.5,-1027.35 2645.5,-1027.35 2645.5,-1063.35"/>
<text text-anchor="middle" x="2577" y="-1040.35" font-family="Times,serif" font-size="20.00">raw_header</text>
</g>
<!-- SG_1_Node_0&#45;&gt;SG_1_Node_1 -->
<g id="edge21" class="edge">
<title>SG_1_Node_0&#45;&gt;SG_1_Node_1</title>
<path fill="none" stroke="black" d="M2771.29,-1317.74C2707.28,-1316.77 2602.55,-1310.76 2578,-1282.56 2526.7,-1223.63 2551.2,-1121.58 2567.09,-1073.23"/>
<polygon fill="black" stroke="black" points="2570.5,-1074.09 2570.42,-1063.5 2563.88,-1071.83 2570.5,-1074.09"/>
<text text-anchor="middle" x="2812" y="-1211.56" font-family="Times,serif" font-size="20.00">firefox Ubuntu 22.04 121 selenium headless</text>
<text text-anchor="middle" x="2812" y="-1189.56" font-family="Times,serif" font-size="20.00">firefox Ubuntu 22.04 122 selenium headless</text>
<text text-anchor="middle" x="2812" y="-1167.56" font-family="Times,serif" font-size="20.00">firefox_beta Android 11 122.0b1 intent real</text>
<text text-anchor="middle" x="2812" y="-1145.56" font-family="Times,serif" font-size="20.00">opera Android 11 78.4.4143.75735 intent real</text>
</g>
<!-- SG_1_Node_2 -->
<g id="node24" class="node">
<title>SG_1_Node_2</title>
<polygon fill="none" stroke="black" points="3134,-1063.35 3002,-1063.35 3002,-1027.35 3134,-1027.35 3134,-1063.35"/>
<text text-anchor="middle" x="3068" y="-1040.35" font-family="Times,serif" font-size="20.00">resp_origin</text>
</g>
<!-- SG_1_Node_0&#45;&gt;SG_1_Node_2 -->
<g id="edge22" class="edge">
<title>SG_1_Node_0&#45;&gt;SG_1_Node_2</title>
<path fill="none" stroke="black" d="M2872.58,-1316.64C2931.29,-1314.42 3023.02,-1307.01 3046,-1282.56 3099.87,-1225.24 3085.6,-1121.97 3074.89,-1073.22"/>
<polygon fill="black" stroke="black" points="3078.28,-1072.36 3072.61,-1063.41 3071.46,-1073.94 3078.28,-1072.36"/>
<text text-anchor="middle" x="3449" y="-1255.56" font-family="Times,serif" font-size="20.00">[NA]</text>
<text text-anchor="middle" x="3449" y="-1233.56" font-family="Times,serif" font-size="20.00">brave Android 11 1.60.116 intent real</text>
<text text-anchor="middle" x="3449" y="-1211.56" font-family="Times,serif" font-size="20.00">brave Ubuntu 22.04 v1.62.156 (121.0.6167.139) selenium headless&#45;new</text>
<text text-anchor="middle" x="3449" y="-1189.56" font-family="Times,serif" font-size="20.00">chrome Android 11 120.0.6099.44 intent real</text>
<text text-anchor="middle" x="3449" y="-1167.56" font-family="Times,serif" font-size="20.00">chrome Ubuntu 22.04 120 selenium headless&#45;new</text>
<text text-anchor="middle" x="3449" y="-1145.56" font-family="Times,serif" font-size="20.00">chrome Ubuntu 22.04 121 selenium headless&#45;new</text>
<text text-anchor="middle" x="3449" y="-1123.56" font-family="Times,serif" font-size="20.00">chrome Ubuntu 22.04 122 selenium headless&#45;new</text>
<text text-anchor="middle" x="3449" y="-1101.56" font-family="Times,serif" font-size="20.00">edge Ubuntu 22.04 121 selenium headless&#45;new</text>
</g>
<!-- SG_1_Node_10 -->
<g id="node25" class="node">
<title>SG_1_Node_10</title>
<ellipse fill="none" stroke="black" cx="2557" cy="-724.92" rx="33.88" ry="21.43"/>
<text text-anchor="middle" x="2557" y="-719.92" font-family="Times,serif" font-size="20.00">0.0</text>
</g>
<!-- SG_1_Node_1&#45;&gt;SG_1_Node_10 -->
<g id="edge31" class="edge">
<title>SG_1_Node_1&#45;&gt;SG_1_Node_10</title>
<path fill="none" stroke="black" d="M2566.33,-1027.1C2562.98,-1020.75 2559.71,-1013.34 2558,-1006.13 2537.02,-917.52 2546.19,-808.68 2552.63,-756.57"/>
<polygon fill="black" stroke="black" points="2556.14,-756.7 2553.95,-746.34 2549.2,-755.8 2556.14,-756.7"/>
<text text-anchor="middle" x="2603.5" y="-891.13" font-family="Times,serif" font-size="20.00">[NA]</text>
<text text-anchor="middle" x="2603.5" y="-869.13" font-family="Times,serif" font-size="20.00">11 levels</text>
</g>
<!-- SG_1_Node_3 -->
<g id="node26" class="node">
<title>SG_1_Node_3</title>
<polygon fill="none" stroke="black" points="2721.5,-742.92 2620.5,-742.92 2620.5,-706.92 2721.5,-706.92 2721.5,-742.92"/>
<text text-anchor="middle" x="2671" y="-719.92" font-family="Times,serif" font-size="20.00">browser</text>
</g>
<!-- SG_1_Node_1&#45;&gt;SG_1_Node_3 -->
<g id="edge32" class="edge">
<title>SG_1_Node_1&#45;&gt;SG_1_Node_3</title>
<path fill="none" stroke="black" d="M2625.72,-1027.14C2634.82,-1021.77 2643.26,-1014.89 2649,-1006.13 2700.96,-926.93 2686.77,-806.71 2676.87,-753.23"/>
<polygon fill="black" stroke="black" points="2680.26,-752.31 2674.91,-743.16 2673.39,-753.65 2680.26,-752.31"/>
<text text-anchor="middle" x="2831" y="-880.13" font-family="Times,serif" font-size="20.00">[[&#39;origin&#45;agent&#45;cluster&#39;, &#39;?1&#39;]]</text>
</g>
<!-- SG_1_Node_11 -->
<g id="node27" class="node">
<title>SG_1_Node_11</title>
<ellipse fill="none" stroke="black" cx="3067" cy="-724.92" rx="33.88" ry="21.43"/>
<text text-anchor="middle" x="3067" y="-719.92" font-family="Times,serif" font-size="20.00">0.0</text>
</g>
<!-- SG_1_Node_2&#45;&gt;SG_1_Node_11 -->
<g id="edge23" class="edge">
<title>SG_1_Node_2&#45;&gt;SG_1_Node_11</title>
<path fill="none" stroke="black" d="M3067.95,-1027.23C3067.78,-975.83 3067.3,-822.38 3067.1,-756.51"/>
<polygon fill="black" stroke="black" points="3070.6,-756.34 3067.06,-746.35 3063.6,-756.36 3070.6,-756.34"/>
<text text-anchor="middle" x="3269.5" y="-913.13" font-family="Times,serif" font-size="20.00">http://headers.webappsec.eu</text>
<text text-anchor="middle" x="3269.5" y="-891.13" font-family="Times,serif" font-size="20.00">http://headers.websec.saarland</text>
<text text-anchor="middle" x="3269.5" y="-869.13" font-family="Times,serif" font-size="20.00">http://sub.headers.websec.saarland</text>
<text text-anchor="middle" x="3269.5" y="-847.13" font-family="Times,serif" font-size="20.00">http://sub.sub.headers.websec.saarland</text>
</g>
<!-- SG_1_Node_4 -->
<g id="node28" class="node">
<title>SG_1_Node_4</title>
<polygon fill="none" stroke="black" points="3563.5,-742.92 3426.5,-742.92 3426.5,-706.92 3563.5,-706.92 3563.5,-742.92"/>
<text text-anchor="middle" x="3495" y="-719.92" font-family="Times,serif" font-size="20.00">raw_header</text>
</g>
<!-- SG_1_Node_2&#45;&gt;SG_1_Node_4 -->
<g id="edge24" class="edge">
<title>SG_1_Node_2&#45;&gt;SG_1_Node_4</title>
<path fill="none" stroke="black" d="M3134.05,-1042.68C3242.76,-1039.28 3449.74,-1029.76 3473,-1006.13 3540.38,-937.69 3517.16,-808.86 3502.82,-752.95"/>
<polygon fill="black" stroke="black" points="3506.15,-751.84 3500.18,-743.08 3499.38,-753.65 3506.15,-751.84"/>
<text text-anchor="middle" x="3725.5" y="-924.13" font-family="Times,serif" font-size="20.00">[NA]</text>
<text text-anchor="middle" x="3725.5" y="-902.13" font-family="Times,serif" font-size="20.00">https://headers.webappsec.eu</text>
<text text-anchor="middle" x="3725.5" y="-880.13" font-family="Times,serif" font-size="20.00">https://headers.websec.saarland</text>
<text text-anchor="middle" x="3725.5" y="-858.13" font-family="Times,serif" font-size="20.00">https://sub.headers.websec.saarland</text>
<text text-anchor="middle" x="3725.5" y="-836.13" font-family="Times,serif" font-size="20.00">https://sub.sub.headers.websec.saarland</text>
</g>
<!-- SG_1_Node_12 -->
<g id="node29" class="node">
<title>SG_1_Node_12</title>
<ellipse fill="none" stroke="black" cx="2538" cy="-580.49" rx="33.88" ry="21.43"/>
<text text-anchor="middle" x="2538" y="-575.49" font-family="Times,serif" font-size="20.00">0.0</text>
</g>
<!-- SG_1_Node_3&#45;&gt;SG_1_Node_12 -->
<g id="edge33" class="edge">
<title>SG_1_Node_3&#45;&gt;SG_1_Node_12</title>
<path fill="none" stroke="black" d="M2620.26,-709.2C2613.46,-707.3 2606.57,-705.43 2600,-703.71 2566.84,-695.01 2546.22,-712.63 2525,-685.71 2508.38,-664.63 2515.18,-633.33 2523.95,-610.54"/>
<polygon fill="black" stroke="black" points="2527.29,-611.61 2527.91,-601.04 2520.83,-608.92 2527.29,-611.61"/>
<text text-anchor="middle" x="2749.5" y="-669.71" font-family="Times,serif" font-size="20.00">firefox Ubuntu 22.04 121 selenium headless</text>
<text text-anchor="middle" x="2749.5" y="-647.71" font-family="Times,serif" font-size="20.00">firefox Ubuntu 22.04 122 selenium headless</text>
<text text-anchor="middle" x="2749.5" y="-625.71" font-family="Times,serif" font-size="20.00">firefox_beta Android 11 122.0b1 intent real</text>
</g>
<!-- SG_1_Node_5 -->
<g id="node30" class="node">
<title>SG_1_Node_5</title>
<polygon fill="none" stroke="black" points="3016,-598.49 2884,-598.49 2884,-562.49 3016,-562.49 3016,-598.49"/>
<text text-anchor="middle" x="2950" y="-575.49" font-family="Times,serif" font-size="20.00">resp_origin</text>
</g>
<!-- SG_1_Node_3&#45;&gt;SG_1_Node_5 -->
<g id="edge34" class="edge">
<title>SG_1_Node_3&#45;&gt;SG_1_Node_5</title>
<path fill="none" stroke="black" d="M2721.6,-721.14C2803.49,-716.12 2957.61,-704.3 2974,-685.71 2993.4,-663.7 2982.12,-647.89 2974,-619.71 2972.8,-615.56 2971.01,-611.42 2968.93,-607.49"/>
<polygon fill="black" stroke="black" points="2971.85,-605.55 2963.71,-598.76 2965.84,-609.14 2971.85,-605.55"/>
<text text-anchor="middle" x="3218" y="-647.71" font-family="Times,serif" font-size="20.00">opera Android 11 78.4.4143.75735 intent real</text>
</g>
<!-- SG_1_Node_6 -->
<g id="node31" class="node">
<title>SG_1_Node_6</title>
<polygon fill="none" stroke="black" points="3558,-598.49 3426,-598.49 3426,-562.49 3558,-562.49 3558,-598.49"/>
<text text-anchor="middle" x="3492" y="-575.49" font-family="Times,serif" font-size="20.00">resp_origin</text>
</g>
<!-- SG_1_Node_4&#45;&gt;SG_1_Node_6 -->
<g id="edge25" class="edge">
<title>SG_1_Node_4&#45;&gt;SG_1_Node_6</title>
<path fill="none" stroke="black" d="M3493.95,-706.81C3493.58,-700.21 3493.21,-692.61 3493,-685.71 3492.19,-659.68 3491.98,-629.98 3491.94,-608.96"/>
<polygon fill="black" stroke="black" points="3495.44,-608.83 3491.94,-598.83 3488.44,-608.83 3495.44,-608.83"/>
<text text-anchor="middle" x="3638" y="-647.71" font-family="Times,serif" font-size="20.00">[[&#39;origin&#45;agent&#45;cluster&#39;, &#39;?0&#39;]]</text>
</g>
<!-- SG_1_Node_13 -->
<g id="node32" class="node">
<title>SG_1_Node_13</title>
<ellipse fill="none" stroke="black" cx="3805" cy="-580.49" rx="33.88" ry="21.43"/>
<text text-anchor="middle" x="3805" y="-575.49" font-family="Times,serif" font-size="20.00">1.0</text>
</g>
<!-- SG_1_Node_4&#45;&gt;SG_1_Node_13 -->
<g id="edge26" class="edge">
<title>SG_1_Node_4&#45;&gt;SG_1_Node_13</title>
<path fill="none" stroke="black" d="M3563.69,-723.66C3638.62,-721.89 3752.06,-714.37 3783,-685.71 3802.88,-667.29 3807.21,-635.8 3807.27,-612.25"/>
<polygon fill="black" stroke="black" points="3810.77,-611.98 3807.05,-602.06 3803.77,-612.14 3810.77,-611.98"/>
<text text-anchor="middle" x="3852.5" y="-658.71" font-family="Times,serif" font-size="20.00">[NA]</text>
<text text-anchor="middle" x="3852.5" y="-636.71" font-family="Times,serif" font-size="20.00">11 levels</text>
</g>
<!-- SG_1_Node_7 -->
<g id="node33" class="node">
<title>SG_1_Node_7</title>
<polygon fill="none" stroke="black" points="2636,-344.07 2504,-344.07 2504,-308.07 2636,-308.07 2636,-344.07"/>
<text text-anchor="middle" x="2570" y="-321.07" font-family="Times,serif" font-size="20.00">resp_origin</text>
</g>
<!-- SG_1_Node_5&#45;&gt;SG_1_Node_7 -->
<g id="edge35" class="edge">
<title>SG_1_Node_5&#45;&gt;SG_1_Node_7</title>
<path fill="none" stroke="black" d="M2883.97,-578.09C2774.13,-575.08 2563.6,-566.09 2541,-541.28 2488.32,-483.45 2516.05,-439.42 2541,-365.28 2542.47,-360.9 2544.67,-356.62 2547.21,-352.61"/>
<polygon fill="black" stroke="black" points="2550.18,-354.47 2553.16,-344.31 2544.49,-350.39 2550.18,-354.47"/>
<text text-anchor="middle" x="2743.5" y="-492.28" font-family="Times,serif" font-size="20.00">http://headers.webappsec.eu</text>
<text text-anchor="middle" x="2743.5" y="-470.28" font-family="Times,serif" font-size="20.00">http://headers.websec.saarland</text>
<text text-anchor="middle" x="2743.5" y="-448.28" font-family="Times,serif" font-size="20.00">http://sub.headers.websec.saarland</text>
<text text-anchor="middle" x="2743.5" y="-426.28" font-family="Times,serif" font-size="20.00">http://sub.sub.headers.websec.saarland</text>
<text text-anchor="middle" x="2743.5" y="-404.28" font-family="Times,serif" font-size="20.00">https://sub.headers.websec.saarland</text>
</g>
<!-- SG_1_Node_14 -->
<g id="node34" class="node">
<title>SG_1_Node_14</title>
<ellipse fill="none" stroke="black" cx="2950" cy="-326.07" rx="33.88" ry="21.43"/>
<text text-anchor="middle" x="2950" y="-321.07" font-family="Times,serif" font-size="20.00">1.0</text>
</g>
<!-- SG_1_Node_5&#45;&gt;SG_1_Node_14 -->
<g id="edge36" class="edge">
<title>SG_1_Node_5&#45;&gt;SG_1_Node_14</title>
<path fill="none" stroke="black" d="M2950,-562.14C2950,-519.83 2950,-410.92 2950,-357.51"/>
<polygon fill="black" stroke="black" points="2953.5,-357.31 2950,-347.31 2946.5,-357.31 2953.5,-357.31"/>
<text text-anchor="middle" x="3157.5" y="-481.28" font-family="Times,serif" font-size="20.00">[NA]</text>
<text text-anchor="middle" x="3157.5" y="-459.28" font-family="Times,serif" font-size="20.00">https://headers.webappsec.eu</text>
<text text-anchor="middle" x="3157.5" y="-437.28" font-family="Times,serif" font-size="20.00">https://headers.websec.saarland</text>
<text text-anchor="middle" x="3157.5" y="-415.28" font-family="Times,serif" font-size="20.00">https://sub.sub.headers.websec.saarland</text>
</g>
<!-- SG_1_Node_15 -->
<g id="node35" class="node">
<title>SG_1_Node_15</title>
<ellipse fill="none" stroke="black" cx="3388" cy="-326.07" rx="33.88" ry="21.43"/>
<text text-anchor="middle" x="3388" y="-321.07" font-family="Times,serif" font-size="20.00">0.0</text>
</g>
<!-- SG_1_Node_6&#45;&gt;SG_1_Node_15 -->
<g id="edge27" class="edge">
<title>SG_1_Node_6&#45;&gt;SG_1_Node_15</title>
<path fill="none" stroke="black" d="M3425.82,-568.09C3411.41,-562.42 3397.85,-553.94 3389,-541.28 3368.87,-512.48 3377.91,-409.46 3384.03,-357.5"/>
<polygon fill="black" stroke="black" points="3387.51,-357.88 3385.24,-347.53 3380.56,-357.03 3387.51,-357.88"/>
<text text-anchor="middle" x="3596.5" y="-481.28" font-family="Times,serif" font-size="20.00">[NA]</text>
<text text-anchor="middle" x="3596.5" y="-459.28" font-family="Times,serif" font-size="20.00">https://headers.webappsec.eu</text>
<text text-anchor="middle" x="3596.5" y="-437.28" font-family="Times,serif" font-size="20.00">https://headers.websec.saarland</text>
<text text-anchor="middle" x="3596.5" y="-415.28" font-family="Times,serif" font-size="20.00">https://sub.sub.headers.websec.saarland</text>
</g>
<!-- SG_1_Node_8 -->
<g id="node36" class="node">
<title>SG_1_Node_8</title>
<polygon fill="none" stroke="black" points="3887,-344.07 3765,-344.07 3765,-308.07 3887,-308.07 3887,-344.07"/>
<text text-anchor="middle" x="3826" y="-321.07" font-family="Times,serif" font-size="20.00">org_origin</text>
</g>
<!-- SG_1_Node_6&#45;&gt;SG_1_Node_8 -->
<g id="edge28" class="edge">
<title>SG_1_Node_6&#45;&gt;SG_1_Node_8</title>
<path fill="none" stroke="black" d="M3558.33,-575.72C3644.82,-570.15 3787.12,-558.5 3804,-541.28 3853.07,-491.24 3842.07,-399.61 3832.66,-354.14"/>
<polygon fill="black" stroke="black" points="3836.03,-353.16 3830.46,-344.14 3829.19,-354.66 3836.03,-353.16"/>
<text text-anchor="middle" x="4026.5" y="-448.28" font-family="Times,serif" font-size="20.00">https://sub.headers.websec.saarland</text>
</g>
<!-- SG_1_Node_16 -->
<g id="node37" class="node">
<title>SG_1_Node_16</title>
<ellipse fill="none" stroke="black" cx="2554" cy="-159.64" rx="33.88" ry="21.43"/>
<text text-anchor="middle" x="2554" y="-154.64" font-family="Times,serif" font-size="20.00">0.0</text>
</g>
<!-- SG_1_Node_7&#45;&gt;SG_1_Node_16 -->
<g id="edge37" class="edge">
<title>SG_1_Node_7&#45;&gt;SG_1_Node_16</title>
<path fill="none" stroke="black" d="M2561.74,-307.97C2559.04,-301.51 2556.38,-293.99 2555,-286.85 2548.78,-254.66 2549.49,-216.99 2551.15,-191.23"/>
<polygon fill="black" stroke="black" points="2554.66,-191.2 2551.9,-180.98 2547.68,-190.69 2554.66,-191.2"/>
<text text-anchor="middle" x="2757.5" y="-270.85" font-family="Times,serif" font-size="20.00">http://headers.webappsec.eu</text>
<text text-anchor="middle" x="2757.5" y="-248.85" font-family="Times,serif" font-size="20.00">http://headers.websec.saarland</text>
<text text-anchor="middle" x="2757.5" y="-226.85" font-family="Times,serif" font-size="20.00">http://sub.headers.websec.saarland</text>
<text text-anchor="middle" x="2757.5" y="-204.85" font-family="Times,serif" font-size="20.00">http://sub.sub.headers.websec.saarland</text>
</g>
<!-- SG_1_Node_9 -->
<g id="node38" class="node">
<title>SG_1_Node_9</title>
<polygon fill="none" stroke="black" points="3043,-177.64 2921,-177.64 2921,-141.64 3043,-141.64 3043,-177.64"/>
<text text-anchor="middle" x="2982" y="-154.64" font-family="Times,serif" font-size="20.00">org_origin</text>
</g>
<!-- SG_1_Node_7&#45;&gt;SG_1_Node_9 -->
<g id="edge38" class="edge">
<title>SG_1_Node_7&#45;&gt;SG_1_Node_9</title>
<path fill="none" stroke="black" d="M2636.33,-322.88C2741.44,-318.79 2936.81,-308.37 2960,-286.85 2986.75,-262.04 2988.25,-217.2 2985.88,-188.19"/>
<polygon fill="black" stroke="black" points="2989.33,-187.51 2984.82,-177.92 2982.36,-188.23 2989.33,-187.51"/>
<text text-anchor="middle" x="3172.5" y="-237.85" font-family="Times,serif" font-size="20.00">https://sub.headers.websec.saarland</text>
</g>
<!-- SG_1_Node_17 -->
<g id="node39" class="node">
<title>SG_1_Node_17</title>
<ellipse fill="none" stroke="black" cx="3440" cy="-159.64" rx="33.88" ry="21.43"/>
<text text-anchor="middle" x="3440" y="-154.64" font-family="Times,serif" font-size="20.00">0.0</text>
</g>
<!-- SG_1_Node_8&#45;&gt;SG_1_Node_17 -->
<g id="edge29" class="edge">
<title>SG_1_Node_8&#45;&gt;SG_1_Node_17</title>
<path fill="none" stroke="black" d="M3764.71,-322.73C3666,-318.37 3480.63,-307.51 3459,-286.85 3433.6,-262.59 3432.37,-219.97 3435.12,-191.04"/>
<polygon fill="black" stroke="black" points="3438.6,-191.4 3436.27,-181.06 3431.65,-190.59 3438.6,-191.4"/>
<text text-anchor="middle" x="3640.5" y="-237.85" font-family="Times,serif" font-size="20.00">http://sub.headers.websec.saarland</text>
</g>
<!-- SG_1_Node_18 -->
<g id="node40" class="node">
<title>SG_1_Node_18</title>
<ellipse fill="none" stroke="black" cx="3826" cy="-159.64" rx="33.88" ry="21.43"/>
<text text-anchor="middle" x="3826" y="-154.64" font-family="Times,serif" font-size="20.00">1.0</text>
</g>
<!-- SG_1_Node_8&#45;&gt;SG_1_Node_18 -->
<g id="edge30" class="edge">
<title>SG_1_Node_8&#45;&gt;SG_1_Node_18</title>
<path fill="none" stroke="black" d="M3826,-307.78C3826,-280.18 3826,-225.77 3826,-191.4"/>
<polygon fill="black" stroke="black" points="3829.5,-191.01 3826,-181.01 3822.5,-191.01 3829.5,-191.01"/>
<text text-anchor="middle" x="4012.5" y="-248.85" font-family="Times,serif" font-size="20.00">[NA]</text>
<text text-anchor="middle" x="4012.5" y="-226.85" font-family="Times,serif" font-size="20.00">https://sub.headers.websec.saarland</text>
</g>
<!-- SG_1_Node_19 -->
<g id="node41" class="node">
<title>SG_1_Node_19</title>
<ellipse fill="none" stroke="black" cx="2784" cy="-37.21" rx="33.88" ry="21.43"/>
<text text-anchor="middle" x="2784" y="-32.21" font-family="Times,serif" font-size="20.00">0.0</text>
</g>
<!-- SG_1_Node_9&#45;&gt;SG_1_Node_19 -->
<g id="edge39" class="edge">
<title>SG_1_Node_9&#45;&gt;SG_1_Node_19</title>
<path fill="none" stroke="black" d="M2920.79,-155.04C2869.55,-150.6 2802.14,-140.95 2785,-120.43 2773.18,-106.27 2773.04,-85.47 2775.79,-68.33"/>
<polygon fill="black" stroke="black" points="2779.28,-68.71 2777.81,-58.22 2772.42,-67.35 2779.28,-68.71"/>
<text text-anchor="middle" x="2971.5" y="-93.43" font-family="Times,serif" font-size="20.00">https://sub.headers.websec.saarland</text>
</g>
<!-- SG_1_Node_20 -->
<g id="node42" class="node">
<title>SG_1_Node_20</title>
<ellipse fill="none" stroke="black" cx="3180" cy="-37.21" rx="33.88" ry="21.43"/>
<text text-anchor="middle" x="3180" y="-32.21" font-family="Times,serif" font-size="20.00">1.0</text>
</g>
<!-- SG_1_Node_9&#45;&gt;SG_1_Node_20 -->
<g id="edge40" class="edge">
<title>SG_1_Node_9&#45;&gt;SG_1_Node_20</title>
<path fill="none" stroke="black" d="M3043.32,-152.14C3087.31,-146.25 3141.59,-136.07 3158,-120.43 3171.81,-107.25 3177.29,-86.44 3179.32,-69.05"/>
<polygon fill="black" stroke="black" points="3182.84,-69.02 3180.19,-58.77 3175.86,-68.44 3182.84,-69.02"/>
<text text-anchor="middle" x="3358.5" y="-104.43" font-family="Times,serif" font-size="20.00">[NA]</text>
<text text-anchor="middle" x="3358.5" y="-82.43" font-family="Times,serif" font-size="20.00">http://sub.headers.websec.saarland</text>
</g>
<!-- SG_2_Node_0 -->
<g id="node43" class="node">
<title>SG_2_Node_0</title>
<polygon fill="none" stroke="black" points="4684.5,-1336.56 4583.5,-1336.56 4583.5,-1300.56 4684.5,-1300.56 4684.5,-1336.56"/>
<text text-anchor="middle" x="4634" y="-1313.56" font-family="Times,serif" font-size="20.00">browser</text>
</g>
<!-- SG_2_Node_1 -->
<g id="node44" class="node">
<title>SG_2_Node_1</title>
<ellipse fill="none" stroke="black" cx="4257" cy="-1045.35" rx="33.88" ry="21.43"/>
<text text-anchor="middle" x="4257" y="-1040.35" font-family="Times,serif" font-size="20.00">0.0</text>
</g>
<!-- SG_2_Node_0&#45;&gt;SG_2_Node_1 -->
<g id="edge41" class="edge">
<title>SG_2_Node_0&#45;&gt;SG_2_Node_1</title>
<path fill="none" stroke="black" d="M4583.48,-1316.82C4481.96,-1314.8 4260.89,-1307.57 4238,-1282.56 4208.29,-1250.11 4227.94,-1127.39 4238,-1084.56 4238.76,-1081.31 4239.84,-1078.03 4241.11,-1074.82"/>
<polygon fill="black" stroke="black" points="4244.38,-1076.08 4245.32,-1065.52 4238,-1073.19 4244.38,-1076.08"/>
<text text-anchor="middle" x="4603" y="-1266.56" font-family="Times,serif" font-size="20.00">[NA]</text>
<text text-anchor="middle" x="4603" y="-1244.56" font-family="Times,serif" font-size="20.00">brave Android 11 1.60.116 intent real</text>
<text text-anchor="middle" x="4603" y="-1222.56" font-family="Times,serif" font-size="20.00">brave Ubuntu 22.04 v1.62.156 (121.0.6167.139) selenium headless&#45;new</text>
<text text-anchor="middle" x="4603" y="-1200.56" font-family="Times,serif" font-size="20.00">chrome Android 11 120.0.6099.44 intent real</text>
<text text-anchor="middle" x="4603" y="-1178.56" font-family="Times,serif" font-size="20.00">chrome Ubuntu 22.04 120 selenium headless&#45;new</text>
<text text-anchor="middle" x="4603" y="-1156.56" font-family="Times,serif" font-size="20.00">chrome Ubuntu 22.04 121 selenium headless&#45;new</text>
<text text-anchor="middle" x="4603" y="-1134.56" font-family="Times,serif" font-size="20.00">chrome Ubuntu 22.04 122 selenium headless&#45;new</text>
<text text-anchor="middle" x="4603" y="-1112.56" font-family="Times,serif" font-size="20.00">edge Ubuntu 22.04 121 selenium headless&#45;new</text>
<text text-anchor="middle" x="4603" y="-1090.56" font-family="Times,serif" font-size="20.00">opera Android 11 78.4.4143.75735 intent real</text>
</g>
<!-- SG_2_Node_2 -->
<g id="node45" class="node">
<title>SG_2_Node_2</title>
<ellipse fill="none" stroke="black" cx="4994" cy="-1045.35" rx="33.88" ry="21.43"/>
<text text-anchor="middle" x="4994" y="-1040.35" font-family="Times,serif" font-size="20.00">1.0</text>
</g>
<!-- SG_2_Node_0&#45;&gt;SG_2_Node_2 -->
<g id="edge42" class="edge">
<title>SG_2_Node_0&#45;&gt;SG_2_Node_2</title>
<path fill="none" stroke="black" d="M4684.82,-1315.79C4774.25,-1312.18 4952.21,-1302.55 4972,-1282.56 5026.23,-1227.76 5012.92,-1126.81 5001.84,-1076.5"/>
<polygon fill="black" stroke="black" points="5005.21,-1075.51 4999.54,-1066.56 4998.39,-1077.09 5005.21,-1075.51"/>
<text text-anchor="middle" x="5235.5" y="-1200.56" font-family="Times,serif" font-size="20.00">firefox Ubuntu 22.04 121 selenium headless</text>
<text text-anchor="middle" x="5235.5" y="-1178.56" font-family="Times,serif" font-size="20.00">firefox Ubuntu 22.04 122 selenium headless</text>
<text text-anchor="middle" x="5235.5" y="-1156.56" font-family="Times,serif" font-size="20.00">firefox_beta Android 11 122.0b1 intent real</text>
</g>
</g>
</svg>
