<?xml version="1.0" encoding="UTF-8" standalone="no"?>
<!DOCTYPE svg PUBLIC "-//W3C//DTD SVG 1.1//EN"
 "http://www.w3.org/Graphics/SVG/1.1/DTD/svg11.dtd">
<!-- Generated by graphviz version 2.43.0 (0)
 -->
<!-- Title: G Pages: 1 -->
<svg width="5182pt" height="979pt"
 viewBox="0.00 0.00 5182.00 979.28" xmlns="http://www.w3.org/2000/svg" xmlns:xlink="http://www.w3.org/1999/xlink">
<g id="graph0" class="graph" transform="scale(1 1) rotate(0) translate(4 975.28)">
<title>G</title>
<polygon fill="white" stroke="transparent" points="-4,4 -4,-975.28 5178,-975.28 5178,4 -4,4"/>
<g id="clust1" class="cluster">
<title>cluster_0</title>
<polygon fill="none" stroke="black" points="8,-306.43 8,-963.28 1244,-963.28 1244,-306.43 8,-306.43"/>
<text text-anchor="middle" x="626" y="-927.28" font-family="Times,serif" font-size="40.00">Tree 0, Class No performance entry</text>
</g>
<g id="clust5" class="cluster">
<title>cluster_1</title>
<polygon fill="none" stroke="black" points="1252,-306.43 1252,-963.28 2695,-963.28 2695,-306.43 1252,-306.43"/>
<text text-anchor="middle" x="1973.5" y="-927.28" font-family="Times,serif" font-size="40.00">Tree 0, Class {&#39;requestStart != 0&#39;: False}</text>
</g>
<g id="clust9" class="cluster">
<title>cluster_2</title>
<polygon fill="none" stroke="black" points="2703,-8 2703,-963.28 5164,-963.28 5164,-8 2703,-8"/>
<text text-anchor="middle" x="3933.5" y="-927.28" font-family="Times,serif" font-size="40.00">Tree 0, Class {&#39;requestStart != 0&#39;: True}</text>
</g>
<!-- SG_0_Node_0 -->
<g id="node1" class="node">
<title>SG_0_Node_0</title>
<polygon fill="none" stroke="black" points="336.5,-903.28 235.5,-903.28 235.5,-867.28 336.5,-867.28 336.5,-903.28"/>
<text text-anchor="middle" x="286" y="-880.28" font-family="Times,serif" font-size="20.00">browser</text>
</g>
<!-- SG_0_Node_2 -->
<g id="node2" class="node">
<title>SG_0_Node_2</title>
<ellipse fill="none" stroke="black" cx="50" cy="-612.07" rx="33.88" ry="21.43"/>
<text text-anchor="middle" x="50" y="-607.07" font-family="Times,serif" font-size="20.00">0.0</text>
</g>
<!-- SG_0_Node_0&#45;&gt;SG_0_Node_2 -->
<g id="edge1" class="edge">
<title>SG_0_Node_0&#45;&gt;SG_0_Node_2</title>
<path fill="none" stroke="black" d="M235.28,-884.85C168.63,-884.39 56.96,-879.04 31,-849.28 -26.84,-782.96 10.88,-736.95 31,-651.28 31.76,-648.03 32.84,-644.75 34.11,-641.54"/>
<polygon fill="black" stroke="black" points="37.38,-642.8 38.32,-632.24 31,-639.91 37.38,-642.8"/>
<text text-anchor="middle" x="255.5" y="-767.28" font-family="Times,serif" font-size="20.00">firefox Ubuntu 22.04 121 selenium headless</text>
<text text-anchor="middle" x="255.5" y="-745.28" font-family="Times,serif" font-size="20.00">firefox Ubuntu 22.04 122 selenium headless</text>
<text text-anchor="middle" x="255.5" y="-723.28" font-family="Times,serif" font-size="20.00">firefox_beta Android 11 122.0b1 intent real</text>
</g>
<!-- SG_0_Node_1 -->
<g id="node3" class="node">
<title>SG_0_Node_1</title>
<polygon fill="none" stroke="black" points="572,-630.07 440,-630.07 440,-594.07 572,-594.07 572,-630.07"/>
<text text-anchor="middle" x="506" y="-607.07" font-family="Times,serif" font-size="20.00">resp_origin</text>
</g>
<!-- SG_0_Node_0&#45;&gt;SG_0_Node_1 -->
<g id="edge2" class="edge">
<title>SG_0_Node_0&#45;&gt;SG_0_Node_1</title>
<path fill="none" stroke="black" d="M336.82,-882.12C388.8,-878.78 464.61,-870.33 484,-849.28 511.47,-819.46 509.7,-695.8 507.42,-640.27"/>
<polygon fill="black" stroke="black" points="510.91,-639.96 506.96,-630.12 503.91,-640.27 510.91,-639.96"/>
<text text-anchor="middle" x="873" y="-833.28" font-family="Times,serif" font-size="20.00">[NA]</text>
<text text-anchor="middle" x="873" y="-811.28" font-family="Times,serif" font-size="20.00">brave Android 11 1.60.116 intent real</text>
<text text-anchor="middle" x="873" y="-789.28" font-family="Times,serif" font-size="20.00">brave Ubuntu 22.04 v1.62.156 (121.0.6167.139) selenium headless&#45;new</text>
<text text-anchor="middle" x="873" y="-767.28" font-family="Times,serif" font-size="20.00">chrome Android 11 120.0.6099.44 intent real</text>
<text text-anchor="middle" x="873" y="-745.28" font-family="Times,serif" font-size="20.00">chrome Ubuntu 22.04 120 selenium headless&#45;new</text>
<text text-anchor="middle" x="873" y="-723.28" font-family="Times,serif" font-size="20.00">chrome Ubuntu 22.04 121 selenium headless&#45;new</text>
<text text-anchor="middle" x="873" y="-701.28" font-family="Times,serif" font-size="20.00">chrome Ubuntu 22.04 122 selenium headless&#45;new</text>
<text text-anchor="middle" x="873" y="-679.28" font-family="Times,serif" font-size="20.00">edge Ubuntu 22.04 121 selenium headless&#45;new</text>
<text text-anchor="middle" x="873" y="-657.28" font-family="Times,serif" font-size="20.00">opera Android 11 78.4.4143.75735 intent real</text>
</g>
<!-- SG_0_Node_3 -->
<g id="node4" class="node">
<title>SG_0_Node_3</title>
<ellipse fill="none" stroke="black" cx="340" cy="-335.64" rx="33.88" ry="21.43"/>
<text text-anchor="middle" x="340" y="-330.64" font-family="Times,serif" font-size="20.00">0.0</text>
</g>
<!-- SG_0_Node_1&#45;&gt;SG_0_Node_3 -->
<g id="edge3" class="edge">
<title>SG_0_Node_1&#45;&gt;SG_0_Node_3</title>
<path fill="none" stroke="black" d="M439.64,-604.53C398.05,-598.9 349.96,-589.07 337,-572.85 289.19,-513.03 312.72,-414.81 328.96,-366.03"/>
<polygon fill="black" stroke="black" points="332.32,-367 332.28,-356.41 325.71,-364.71 332.32,-367"/>
<text text-anchor="middle" x="489.5" y="-468.85" font-family="Times,serif" font-size="20.00">https://headers.webappsec.eu</text>
</g>
<!-- SG_0_Node_4 -->
<g id="node5" class="node">
<title>SG_0_Node_4</title>
<ellipse fill="none" stroke="black" cx="668" cy="-335.64" rx="33.88" ry="21.43"/>
<text text-anchor="middle" x="668" y="-330.64" font-family="Times,serif" font-size="20.00">1.0</text>
</g>
<!-- SG_0_Node_1&#45;&gt;SG_0_Node_4 -->
<g id="edge4" class="edge">
<title>SG_0_Node_1&#45;&gt;SG_0_Node_4</title>
<path fill="none" stroke="black" d="M572.03,-600.45C603.33,-594 636.03,-584.72 646,-572.85 695.23,-514.23 684.57,-416.22 675.04,-366.92"/>
<polygon fill="black" stroke="black" points="678.42,-365.98 672.98,-356.88 671.56,-367.38 678.42,-365.98"/>
<text text-anchor="middle" x="885.5" y="-512.85" font-family="Times,serif" font-size="20.00">[NA]</text>
<text text-anchor="middle" x="885.5" y="-490.85" font-family="Times,serif" font-size="20.00">http://headers.webappsec.eu</text>
<text text-anchor="middle" x="885.5" y="-468.85" font-family="Times,serif" font-size="20.00">http://headers.websec.saarland</text>
<text text-anchor="middle" x="885.5" y="-446.85" font-family="Times,serif" font-size="20.00">http://sub.headers.websec.saarland</text>
<text text-anchor="middle" x="885.5" y="-424.85" font-family="Times,serif" font-size="20.00">http://sub.sub.headers.websec.saarland</text>
</g>
<!-- SG_1_Node_0 -->
<g id="node6" class="node">
<title>SG_1_Node_0</title>
<polygon fill="none" stroke="black" points="1786.5,-903.28 1685.5,-903.28 1685.5,-867.28 1786.5,-867.28 1786.5,-903.28"/>
<text text-anchor="middle" x="1736" y="-880.28" font-family="Times,serif" font-size="20.00">browser</text>
</g>
<!-- SG_1_Node_1 -->
<g id="node7" class="node">
<title>SG_1_Node_1</title>
<polygon fill="none" stroke="black" points="1428.5,-630.07 1291.5,-630.07 1291.5,-594.07 1428.5,-594.07 1428.5,-630.07"/>
<text text-anchor="middle" x="1360" y="-607.07" font-family="Times,serif" font-size="20.00">raw_header</text>
</g>
<!-- SG_1_Node_0&#45;&gt;SG_1_Node_1 -->
<g id="edge5" class="edge">
<title>SG_1_Node_0&#45;&gt;SG_1_Node_1</title>
<path fill="none" stroke="black" d="M1685.19,-883.25C1587.78,-880.75 1382.46,-872.74 1361,-849.28 1308.02,-791.37 1333.7,-688.03 1350.03,-639.55"/>
<polygon fill="black" stroke="black" points="1353.35,-640.66 1353.35,-630.07 1346.74,-638.35 1353.35,-640.66"/>
<text text-anchor="middle" x="1726" y="-833.28" font-family="Times,serif" font-size="20.00">[NA]</text>
<text text-anchor="middle" x="1726" y="-811.28" font-family="Times,serif" font-size="20.00">brave Android 11 1.60.116 intent real</text>
<text text-anchor="middle" x="1726" y="-789.28" font-family="Times,serif" font-size="20.00">brave Ubuntu 22.04 v1.62.156 (121.0.6167.139) selenium headless&#45;new</text>
<text text-anchor="middle" x="1726" y="-767.28" font-family="Times,serif" font-size="20.00">chrome Android 11 120.0.6099.44 intent real</text>
<text text-anchor="middle" x="1726" y="-745.28" font-family="Times,serif" font-size="20.00">chrome Ubuntu 22.04 120 selenium headless&#45;new</text>
<text text-anchor="middle" x="1726" y="-723.28" font-family="Times,serif" font-size="20.00">chrome Ubuntu 22.04 121 selenium headless&#45;new</text>
<text text-anchor="middle" x="1726" y="-701.28" font-family="Times,serif" font-size="20.00">chrome Ubuntu 22.04 122 selenium headless&#45;new</text>
<text text-anchor="middle" x="1726" y="-679.28" font-family="Times,serif" font-size="20.00">edge Ubuntu 22.04 121 selenium headless&#45;new</text>
<text text-anchor="middle" x="1726" y="-657.28" font-family="Times,serif" font-size="20.00">opera Android 11 78.4.4143.75735 intent real</text>
</g>
<!-- SG_1_Node_2 -->
<g id="node8" class="node">
<title>SG_1_Node_2</title>
<polygon fill="none" stroke="black" points="2181.5,-630.07 2044.5,-630.07 2044.5,-594.07 2181.5,-594.07 2181.5,-630.07"/>
<text text-anchor="middle" x="2113" y="-607.07" font-family="Times,serif" font-size="20.00">raw_header</text>
</g>
<!-- SG_1_Node_0&#45;&gt;SG_1_Node_2 -->
<g id="edge6" class="edge">
<title>SG_1_Node_0&#45;&gt;SG_1_Node_2</title>
<path fill="none" stroke="black" d="M1786.81,-882.79C1879.84,-879.55 2069.98,-870.41 2091,-849.28 2146.47,-793.51 2131.42,-689.48 2120.2,-640.24"/>
<polygon fill="black" stroke="black" points="2123.55,-639.23 2117.82,-630.33 2116.75,-640.87 2123.55,-639.23"/>
<text text-anchor="middle" x="2354.5" y="-767.28" font-family="Times,serif" font-size="20.00">firefox Ubuntu 22.04 121 selenium headless</text>
<text text-anchor="middle" x="2354.5" y="-745.28" font-family="Times,serif" font-size="20.00">firefox Ubuntu 22.04 122 selenium headless</text>
<text text-anchor="middle" x="2354.5" y="-723.28" font-family="Times,serif" font-size="20.00">firefox_beta Android 11 122.0b1 intent real</text>
</g>
<!-- SG_1_Node_3 -->
<g id="node9" class="node">
<title>SG_1_Node_3</title>
<ellipse fill="none" stroke="black" cx="1294" cy="-335.64" rx="33.88" ry="21.43"/>
<text text-anchor="middle" x="1294" y="-330.64" font-family="Times,serif" font-size="20.00">0.0</text>
</g>
<!-- SG_1_Node_1&#45;&gt;SG_1_Node_3 -->
<g id="edge9" class="edge">
<title>SG_1_Node_1&#45;&gt;SG_1_Node_3</title>
<path fill="none" stroke="black" d="M1298.62,-593.98C1289.26,-588.7 1280.8,-581.82 1275,-572.85 1227.21,-498.96 1254.88,-460.52 1275,-374.85 1275.76,-371.61 1276.84,-368.32 1278.11,-365.11"/>
<polygon fill="black" stroke="black" points="1281.38,-366.37 1282.32,-355.82 1275,-363.48 1281.38,-366.37"/>
<text text-anchor="middle" x="1320.5" y="-479.85" font-family="Times,serif" font-size="20.00">[NA]</text>
<text text-anchor="middle" x="1320.5" y="-457.85" font-family="Times,serif" font-size="20.00">18 levels</text>
</g>
<!-- SG_1_Node_4 -->
<g id="node10" class="node">
<title>SG_1_Node_4</title>
<ellipse fill="none" stroke="black" cx="1392" cy="-335.64" rx="33.88" ry="21.43"/>
<text text-anchor="middle" x="1392" y="-330.64" font-family="Times,serif" font-size="20.00">1.0</text>
</g>
<!-- SG_1_Node_1&#45;&gt;SG_1_Node_4 -->
<g id="edge10" class="edge">
<title>SG_1_Node_1&#45;&gt;SG_1_Node_4</title>
<path fill="none" stroke="black" d="M1365.18,-593.7C1366.95,-587.21 1368.79,-579.74 1370,-572.85 1382.9,-499.63 1388.55,-412.21 1390.76,-367.03"/>
<polygon fill="black" stroke="black" points="1394.25,-367.16 1391.22,-357.01 1387.26,-366.84 1394.25,-367.16"/>
<text text-anchor="end" x="1628" y="-501.85" font-family="Times,serif" font-size="20.00">[[&#39;timing&#45;allow&#45;origin&#39;, &#39;</text>
<text text-anchor="middle" x="1509" y="-479.85" font-family="Times,serif" font-size="20.00">*&#39;]]</text>
<text text-anchor="end" x="1628" y="-457.85" font-family="Times,serif" font-size="20.00">[[&#39;timing&#45;allow&#45;origin</text>
<text text-anchor="middle" x="1509" y="-435.85" font-family="Times,serif" font-size="20.00">&#39;, &#39;*&#39;]]</text>
</g>
<!-- SG_1_Node_5 -->
<g id="node11" class="node">
<title>SG_1_Node_5</title>
<ellipse fill="none" stroke="black" cx="1653" cy="-335.64" rx="33.88" ry="21.43"/>
<text text-anchor="middle" x="1653" y="-330.64" font-family="Times,serif" font-size="20.00">0.0</text>
</g>
<!-- SG_1_Node_2&#45;&gt;SG_1_Node_5 -->
<g id="edge7" class="edge">
<title>SG_1_Node_2&#45;&gt;SG_1_Node_5</title>
<path fill="none" stroke="black" d="M2044.27,-610.35C1922.66,-608.36 1679.91,-600.89 1654,-572.85 1627.13,-543.78 1640.22,-424.22 1648.28,-367.18"/>
<polygon fill="black" stroke="black" points="1651.79,-367.38 1649.76,-356.98 1644.86,-366.37 1651.79,-367.38"/>
<text text-anchor="middle" x="2114" y="-545.85" font-family="Times,serif" font-size="20.00">[[&#39;Timing&#45;Allow&#45;Origin&#39;, &#39;*&#39;]]</text>
<text text-anchor="middle" x="2114" y="-523.85" font-family="Times,serif" font-size="20.00">[[&#39;Timing&#45;Allow&#45;Origin&#39;, &#39;https://sub.headers.websec.saarland&#39;], [&#39;Timing&#45;Allow&#45;Origin&#39;, &#39;*&#39;]]</text>
<text text-anchor="middle" x="2114" y="-501.85" font-family="Times,serif" font-size="20.00">[[&#39;Timing&#45;Allow&#45;Origin&#39;, &#39;https://sub.headers.websec.saarland&#39;]]</text>
<text text-anchor="middle" x="2114" y="-479.85" font-family="Times,serif" font-size="20.00">[[&#39;Timing&#45;Allow&#45;Origin&#39;, &#39;null&#39;], [&#39;Timing&#45;Allow&#45;Origin&#39;, &#39;*&#39;]]</text>
<text text-anchor="end" x="2574" y="-457.85" font-family="Times,serif" font-size="20.00">[[&#39;timing&#45;allow&#45;origin&#39;, &#39;</text>
<text text-anchor="middle" x="2114" y="-435.85" font-family="Times,serif" font-size="20.00">*&#39;]]</text>
<text text-anchor="end" x="2574" y="-413.85" font-family="Times,serif" font-size="20.00">[[&#39;timing&#45;allow&#45;origin</text>
<text text-anchor="middle" x="2114" y="-391.85" font-family="Times,serif" font-size="20.00">&#39;, &#39;*&#39;]]</text>
</g>
<!-- SG_1_Node_6 -->
<g id="node12" class="node">
<title>SG_1_Node_6</title>
<ellipse fill="none" stroke="black" cx="2596" cy="-335.64" rx="33.88" ry="21.43"/>
<text text-anchor="middle" x="2596" y="-330.64" font-family="Times,serif" font-size="20.00">1.0</text>
</g>
<!-- SG_1_Node_2&#45;&gt;SG_1_Node_6 -->
<g id="edge8" class="edge">
<title>SG_1_Node_2&#45;&gt;SG_1_Node_6</title>
<path fill="none" stroke="black" d="M2181.8,-610.14C2303.54,-607.82 2546.75,-599.83 2574,-572.85 2602.26,-544.88 2600.41,-424.76 2597.79,-367.38"/>
<polygon fill="black" stroke="black" points="2601.27,-366.93 2597.28,-357.11 2594.28,-367.27 2601.27,-366.93"/>
<text text-anchor="middle" x="2644.5" y="-479.85" font-family="Times,serif" font-size="20.00">[NA]</text>
<text text-anchor="middle" x="2644.5" y="-457.85" font-family="Times,serif" font-size="20.00">14 levels</text>
</g>
<!-- SG_2_Node_0 -->
<g id="node13" class="node">
<title>SG_2_Node_0</title>
<polygon fill="none" stroke="black" points="3785.5,-903.28 3648.5,-903.28 3648.5,-867.28 3785.5,-867.28 3785.5,-903.28"/>
<text text-anchor="middle" x="3717" y="-880.28" font-family="Times,serif" font-size="20.00">raw_header</text>
</g>
<!-- SG_2_Node_1 -->
<g id="node14" class="node">
<title>SG_2_Node_1</title>
<polygon fill="none" stroke="black" points="3532.5,-630.07 3431.5,-630.07 3431.5,-594.07 3532.5,-594.07 3532.5,-630.07"/>
<text text-anchor="middle" x="3482" y="-607.07" font-family="Times,serif" font-size="20.00">browser</text>
</g>
<!-- SG_2_Node_0&#45;&gt;SG_2_Node_1 -->
<g id="edge11" class="edge">
<title>SG_2_Node_0&#45;&gt;SG_2_Node_1</title>
<path fill="none" stroke="black" d="M3701.94,-866.9C3661.57,-820.31 3550.78,-692.45 3503.67,-638.07"/>
<polygon fill="black" stroke="black" points="3506.13,-635.57 3496.93,-630.3 3500.84,-640.15 3506.13,-635.57"/>
<text text-anchor="middle" x="3727.5" y="-756.28" font-family="Times,serif" font-size="20.00">[NA]</text>
<text text-anchor="middle" x="3727.5" y="-734.28" font-family="Times,serif" font-size="20.00">15 levels</text>
</g>
<!-- SG_2_Node_2 -->
<g id="node15" class="node">
<title>SG_2_Node_2</title>
<polygon fill="none" stroke="black" points="4004.5,-630.07 3903.5,-630.07 3903.5,-594.07 4004.5,-594.07 4004.5,-630.07"/>
<text text-anchor="middle" x="3954" y="-607.07" font-family="Times,serif" font-size="20.00">browser</text>
</g>
<!-- SG_2_Node_0&#45;&gt;SG_2_Node_2 -->
<g id="edge12" class="edge">
<title>SG_2_Node_0&#45;&gt;SG_2_Node_2</title>
<path fill="none" stroke="black" d="M3751.62,-867.24C3760.38,-862.1 3769.44,-856.02 3777,-849.28 3849.66,-784.53 3911.92,-685.85 3939.23,-639.22"/>
<polygon fill="black" stroke="black" points="3942.38,-640.76 3944.37,-630.35 3936.33,-637.25 3942.38,-640.76"/>
<text text-anchor="end" x="4968" y="-800.28" font-family="Times,serif" font-size="20.00">[[&#39;</text>
<text text-anchor="middle" x="4449.5" y="-778.28" font-family="Times,serif" font-size="20.00">timing&#45;allow&#45;origin&#39;, &#39;*&#39;]]</text>
<text text-anchor="middle" x="4449.5" y="-756.28" font-family="Times,serif" font-size="20.00">[[&#39;timing&#45;allow&#45;origin &#160;&#39;, &#39;*&#39;]]</text>
<text text-anchor="middle" x="4449.5" y="-734.28" font-family="Times,serif" font-size="20.00">[[&#39;timing&#45;allow&#45;origin &#39;, &#39;*&#39;]]</text>
<text text-anchor="middle" x="4449.5" y="-712.28" font-family="Times,serif" font-size="20.00">[[&#39;timing&#45;allow&#45;origin&#39;, &#39;*&#39;], [&#39;location&#39;, &#39;https://sub.headers.websec.saarland/_hp/common/empty.html&#39;]]</text>
<text text-anchor="middle" x="4449.5" y="-690.28" font-family="Times,serif" font-size="20.00">[[&#39;timing&#45;allow&#45;origint&#39;, &#39;*&#39;]]</text>
</g>
<!-- SG_2_Node_4 -->
<g id="node16" class="node">
<title>SG_2_Node_4</title>
<ellipse fill="none" stroke="black" cx="2745" cy="-335.64" rx="33.88" ry="21.43"/>
<text text-anchor="middle" x="2745" y="-330.64" font-family="Times,serif" font-size="20.00">0.0</text>
</g>
<!-- SG_2_Node_1&#45;&gt;SG_2_Node_4 -->
<g id="edge15" class="edge">
<title>SG_2_Node_1&#45;&gt;SG_2_Node_4</title>
<path fill="none" stroke="black" d="M3431.41,-610.31C3269.26,-607.64 2771.67,-597.47 2748,-572.85 2694.55,-517.26 2718,-415.89 2734.22,-365.98"/>
<polygon fill="black" stroke="black" points="2737.56,-367.03 2737.44,-356.44 2730.93,-364.79 2737.56,-367.03"/>
<text text-anchor="middle" x="3113" y="-556.85" font-family="Times,serif" font-size="20.00">[NA]</text>
<text text-anchor="middle" x="3113" y="-534.85" font-family="Times,serif" font-size="20.00">brave Android 11 1.60.116 intent real</text>
<text text-anchor="middle" x="3113" y="-512.85" font-family="Times,serif" font-size="20.00">brave Ubuntu 22.04 v1.62.156 (121.0.6167.139) selenium headless&#45;new</text>
<text text-anchor="middle" x="3113" y="-490.85" font-family="Times,serif" font-size="20.00">chrome Android 11 120.0.6099.44 intent real</text>
<text text-anchor="middle" x="3113" y="-468.85" font-family="Times,serif" font-size="20.00">chrome Ubuntu 22.04 120 selenium headless&#45;new</text>
<text text-anchor="middle" x="3113" y="-446.85" font-family="Times,serif" font-size="20.00">chrome Ubuntu 22.04 121 selenium headless&#45;new</text>
<text text-anchor="middle" x="3113" y="-424.85" font-family="Times,serif" font-size="20.00">chrome Ubuntu 22.04 122 selenium headless&#45;new</text>
<text text-anchor="middle" x="3113" y="-402.85" font-family="Times,serif" font-size="20.00">edge Ubuntu 22.04 121 selenium headless&#45;new</text>
<text text-anchor="middle" x="3113" y="-380.85" font-family="Times,serif" font-size="20.00">opera Android 11 78.4.4143.75735 intent real</text>
</g>
<!-- SG_2_Node_3 -->
<g id="node17" class="node">
<title>SG_2_Node_3</title>
<polygon fill="none" stroke="black" points="3550.5,-353.64 3413.5,-353.64 3413.5,-317.64 3550.5,-317.64 3550.5,-353.64"/>
<text text-anchor="middle" x="3482" y="-330.64" font-family="Times,serif" font-size="20.00">raw_header</text>
</g>
<!-- SG_2_Node_1&#45;&gt;SG_2_Node_3 -->
<g id="edge16" class="edge">
<title>SG_2_Node_1&#45;&gt;SG_2_Node_3</title>
<path fill="none" stroke="black" d="M3482,-593.9C3482,-547.7 3482,-420.41 3482,-364.08"/>
<polygon fill="black" stroke="black" points="3485.5,-363.8 3482,-353.8 3478.5,-363.8 3485.5,-363.8"/>
<text text-anchor="middle" x="3706.5" y="-490.85" font-family="Times,serif" font-size="20.00">firefox Ubuntu 22.04 121 selenium headless</text>
<text text-anchor="middle" x="3706.5" y="-468.85" font-family="Times,serif" font-size="20.00">firefox Ubuntu 22.04 122 selenium headless</text>
<text text-anchor="middle" x="3706.5" y="-446.85" font-family="Times,serif" font-size="20.00">firefox_beta Android 11 122.0b1 intent real</text>
</g>
<!-- SG_2_Node_5 -->
<g id="node18" class="node">
<title>SG_2_Node_5</title>
<ellipse fill="none" stroke="black" cx="3954" cy="-335.64" rx="33.88" ry="21.43"/>
<text text-anchor="middle" x="3954" y="-330.64" font-family="Times,serif" font-size="20.00">0.0</text>
</g>
<!-- SG_2_Node_2&#45;&gt;SG_2_Node_5 -->
<g id="edge13" class="edge">
<title>SG_2_Node_2&#45;&gt;SG_2_Node_5</title>
<path fill="none" stroke="black" d="M3954,-593.9C3954,-548.59 3954,-425.31 3954,-367.43"/>
<polygon fill="black" stroke="black" points="3957.5,-367.09 3954,-357.09 3950.5,-367.09 3957.5,-367.09"/>
<text text-anchor="middle" x="4178.5" y="-490.85" font-family="Times,serif" font-size="20.00">firefox Ubuntu 22.04 121 selenium headless</text>
<text text-anchor="middle" x="4178.5" y="-468.85" font-family="Times,serif" font-size="20.00">firefox Ubuntu 22.04 122 selenium headless</text>
<text text-anchor="middle" x="4178.5" y="-446.85" font-family="Times,serif" font-size="20.00">firefox_beta Android 11 122.0b1 intent real</text>
</g>
<!-- SG_2_Node_6 -->
<g id="node19" class="node">
<title>SG_2_Node_6</title>
<ellipse fill="none" stroke="black" cx="4426" cy="-335.64" rx="33.88" ry="21.43"/>
<text text-anchor="middle" x="4426" y="-330.64" font-family="Times,serif" font-size="20.00">1.0</text>
</g>
<!-- SG_2_Node_2&#45;&gt;SG_2_Node_6 -->
<g id="edge14" class="edge">
<title>SG_2_Node_2&#45;&gt;SG_2_Node_6</title>
<path fill="none" stroke="black" d="M4004.76,-610.35C4116.52,-608.27 4376.13,-600.49 4404,-572.85 4458.87,-518.43 4445.12,-416.87 4433.87,-366.52"/>
<polygon fill="black" stroke="black" points="4437.23,-365.52 4431.53,-356.59 4430.41,-367.13 4437.23,-365.52"/>
<text text-anchor="middle" x="4809" y="-556.85" font-family="Times,serif" font-size="20.00">[NA]</text>
<text text-anchor="middle" x="4809" y="-534.85" font-family="Times,serif" font-size="20.00">brave Android 11 1.60.116 intent real</text>
<text text-anchor="middle" x="4809" y="-512.85" font-family="Times,serif" font-size="20.00">brave Ubuntu 22.04 v1.62.156 (121.0.6167.139) selenium headless&#45;new</text>
<text text-anchor="middle" x="4809" y="-490.85" font-family="Times,serif" font-size="20.00">chrome Android 11 120.0.6099.44 intent real</text>
<text text-anchor="middle" x="4809" y="-468.85" font-family="Times,serif" font-size="20.00">chrome Ubuntu 22.04 120 selenium headless&#45;new</text>
<text text-anchor="middle" x="4809" y="-446.85" font-family="Times,serif" font-size="20.00">chrome Ubuntu 22.04 121 selenium headless&#45;new</text>
<text text-anchor="middle" x="4809" y="-424.85" font-family="Times,serif" font-size="20.00">chrome Ubuntu 22.04 122 selenium headless&#45;new</text>
<text text-anchor="middle" x="4809" y="-402.85" font-family="Times,serif" font-size="20.00">edge Ubuntu 22.04 121 selenium headless&#45;new</text>
<text text-anchor="middle" x="4809" y="-380.85" font-family="Times,serif" font-size="20.00">opera Android 11 78.4.4143.75735 intent real</text>
</g>
<!-- SG_2_Node_7 -->
<g id="node20" class="node">
<title>SG_2_Node_7</title>
<ellipse fill="none" stroke="black" cx="2940" cy="-37.21" rx="33.88" ry="21.43"/>
<text text-anchor="middle" x="2940" y="-32.21" font-family="Times,serif" font-size="20.00">0.0</text>
</g>
<!-- SG_2_Node_3&#45;&gt;SG_2_Node_7 -->
<g id="edge17" class="edge">
<title>SG_2_Node_3&#45;&gt;SG_2_Node_7</title>
<path fill="none" stroke="black" d="M3413.3,-334.88C3274.82,-334.65 2972.62,-330.23 2941,-296.43 2882.45,-233.84 2910.79,-120.73 2928.9,-67.46"/>
<polygon fill="black" stroke="black" points="2932.23,-68.53 2932.25,-57.93 2925.63,-66.21 2932.23,-68.53"/>
<text text-anchor="middle" x="3480" y="-280.43" font-family="Times,serif" font-size="20.00">[NA]</text>
<text text-anchor="middle" x="3480" y="-258.43" font-family="Times,serif" font-size="20.00">[[&#39;Timing&#45;Allow&#45;Origin&#39;, &#39;*&#39;], [&#39;location&#39;, &#39;https://sub.headers.websec.saarland/_hp/common/empty.html&#39;]]</text>
<text text-anchor="middle" x="3480" y="-236.43" font-family="Times,serif" font-size="20.00">[[&#39;Timing&#45;Allow&#45;Origin&#39;, &#39;http://sub.headers.websec.saarland&#39;]]</text>
<text text-anchor="middle" x="3480" y="-214.43" font-family="Times,serif" font-size="20.00">[[&#39;Timing&#45;Allow&#45;Origin&#39;, &#39;https://headers.websec.saarland&#39;]]</text>
<text text-anchor="middle" x="3480" y="-192.43" font-family="Times,serif" font-size="20.00">[[&#39;Timing&#45;Allow&#45;Origin&#39;, &#39;https://sub.headers.websec.saarland/&#39;]]</text>
<text text-anchor="middle" x="3480" y="-170.43" font-family="Times,serif" font-size="20.00">[[&#39;Timing&#45;Allow&#45;Origin&#39;, &#39;https://sub.headers.websec.saarland:443&#39;]]</text>
<text text-anchor="middle" x="3480" y="-148.43" font-family="Times,serif" font-size="20.00">[[&#39;Timing&#45;Allow&#45;Origin&#39;, &#39;null&#39;], [&#39;location&#39;, &#39;https://sub.headers.websec.saarland/_hp/common/empty.html&#39;]]</text>
<text text-anchor="middle" x="3480" y="-126.43" font-family="Times,serif" font-size="20.00">[[&#39;Timing&#45;Allow&#45;Origin&#39;, &#39;null&#39;]]</text>
<text text-anchor="middle" x="3480" y="-104.43" font-family="Times,serif" font-size="20.00">[[&#39;Timing&#45;Allow&#45;Origin&#39;, &#39;sub.headers.websec.saarland&#39;]]</text>
<text text-anchor="middle" x="3480" y="-82.43" font-family="Times,serif" font-size="20.00">[]</text>
</g>
<!-- SG_2_Node_8 -->
<g id="node21" class="node">
<title>SG_2_Node_8</title>
<ellipse fill="none" stroke="black" cx="4041" cy="-37.21" rx="33.88" ry="21.43"/>
<text text-anchor="middle" x="4041" y="-32.21" font-family="Times,serif" font-size="20.00">1.0</text>
</g>
<!-- SG_2_Node_3&#45;&gt;SG_2_Node_8 -->
<g id="edge18" class="edge">
<title>SG_2_Node_3&#45;&gt;SG_2_Node_8</title>
<path fill="none" stroke="black" d="M3550.75,-330.32C3694.69,-321.2 4014.87,-300.49 4019,-296.43 4080.12,-236.16 4062.36,-122.31 4049.34,-68.22"/>
<polygon fill="black" stroke="black" points="4052.66,-67.07 4046.83,-58.23 4045.88,-68.78 4052.66,-67.07"/>
<text text-anchor="middle" x="4522" y="-258.43" font-family="Times,serif" font-size="20.00">[[&#39;Timing&#45;Allow&#45;Origin&#39;, &#39;*&#39;]]</text>
<text text-anchor="middle" x="4522" y="-236.43" font-family="Times,serif" font-size="20.00">[[&#39;Timing&#45;Allow&#45;Origin&#39;, &#39;https://sub.headers.websec.saarland&#39;], [&#39;Timing&#45;Allow&#45;Origin&#39;, &#39;*&#39;]]</text>
<text text-anchor="middle" x="4522" y="-214.43" font-family="Times,serif" font-size="20.00">[[&#39;Timing&#45;Allow&#45;Origin&#39;, &#39;https://sub.headers.websec.saarland&#39;]]</text>
<text text-anchor="middle" x="4522" y="-192.43" font-family="Times,serif" font-size="20.00">[[&#39;Timing&#45;Allow&#45;Origin&#39;, &#39;null&#39;], [&#39;Timing&#45;Allow&#45;Origin&#39;, &#39;*&#39;]]</text>
<text text-anchor="end" x="4982" y="-170.43" font-family="Times,serif" font-size="20.00">[[&#39;timing&#45;allow&#45;origin&#39;, &#39;</text>
<text text-anchor="middle" x="4522" y="-148.43" font-family="Times,serif" font-size="20.00">*&#39;]]</text>
<text text-anchor="end" x="4982" y="-126.43" font-family="Times,serif" font-size="20.00">[[&#39;timing&#45;allow&#45;origin</text>
<text text-anchor="middle" x="4522" y="-104.43" font-family="Times,serif" font-size="20.00">&#39;, &#39;*&#39;]]</text>
</g>
</g>
</svg>
