<?xml version="1.0" encoding="UTF-8" standalone="no"?>
<!DOCTYPE svg PUBLIC "-//W3C//DTD SVG 1.1//EN"
 "http://www.w3.org/Graphics/SVG/1.1/DTD/svg11.dtd">
<!-- Generated by graphviz version 2.43.0 (0)
 -->
<!-- Title: G Pages: 1 -->
<svg width="2507pt" height="520pt"
 viewBox="0.00 0.00 2507.44 520.43" xmlns="http://www.w3.org/2000/svg" xmlns:xlink="http://www.w3.org/1999/xlink">
<g id="graph0" class="graph" transform="scale(1 1) rotate(0) translate(4 516.43)">
<title>G</title>
<polygon fill="white" stroke="transparent" points="-4,4 -4,-516.43 2503.44,-516.43 2503.44,4 -4,4"/>
<g id="clust1" class="cluster">
<title>cluster_0</title>
<polygon fill="none" stroke="black" points="10.44,-8 10.44,-504.43 1246.44,-504.43 1246.44,-8 10.44,-8"/>
<text text-anchor="middle" x="628.44" y="-468.43" font-family="Times,serif" font-size="40.00">Tree 0, Class message send</text>
</g>
<g id="clust5" class="cluster">
<title>cluster_1</title>
<polygon fill="none" stroke="black" points="1254.44,-8 1254.44,-504.43 2490.44,-504.43 2490.44,-8 1254.44,-8"/>
<text text-anchor="middle" x="1872.44" y="-468.43" font-family="Times,serif" font-size="40.00">Tree 0, Class message timeout</text>
</g>
<!-- SG_0_Node_0 -->
<g id="node1" class="node">
<title>SG_0_Node_0</title>
<polygon fill="none" stroke="black" points="338.94,-444.43 237.94,-444.43 237.94,-408.43 338.94,-408.43 338.94,-444.43"/>
<text text-anchor="middle" x="288.44" y="-421.43" font-family="Times,serif" font-size="20.00">browser</text>
</g>
<!-- SG_0_Node_1 -->
<g id="node2" class="node">
<title>SG_0_Node_1</title>
<polygon fill="none" stroke="black" points="155.94,-174.43 18.94,-174.43 18.94,-138.43 155.94,-138.43 155.94,-174.43"/>
<text text-anchor="middle" x="87.44" y="-151.43" font-family="Times,serif" font-size="20.00">raw_header</text>
</g>
<!-- SG_0_Node_0&#45;&gt;SG_0_Node_1 -->
<g id="edge1" class="edge">
<title>SG_0_Node_0&#45;&gt;SG_0_Node_1</title>
<path fill="none" stroke="black" d="M237.67,-425.87C171.96,-425.22 62.86,-419.63 37.44,-390.43 -20.33,-324.04 -3.2,-270.48 37.44,-192.43 39.56,-188.35 42.4,-184.65 45.65,-181.32"/>
<polygon fill="black" stroke="black" points="48.09,-183.83 53.3,-174.6 43.48,-178.57 48.09,-183.83"/>
<text text-anchor="middle" x="261.94" y="-308.43" font-family="Times,serif" font-size="20.00">firefox Ubuntu 22.04 121 selenium headless</text>
<text text-anchor="middle" x="261.94" y="-286.43" font-family="Times,serif" font-size="20.00">firefox Ubuntu 22.04 122 selenium headless</text>
<text text-anchor="middle" x="261.94" y="-264.43" font-family="Times,serif" font-size="20.00">firefox_beta Android 11 122.0b1 intent real</text>
</g>
<!-- SG_0_Node_2 -->
<g id="node3" class="node">
<title>SG_0_Node_2</title>
<polygon fill="none" stroke="black" points="576.94,-174.43 439.94,-174.43 439.94,-138.43 576.94,-138.43 576.94,-174.43"/>
<text text-anchor="middle" x="508.44" y="-151.43" font-family="Times,serif" font-size="20.00">raw_header</text>
</g>
<!-- SG_0_Node_0&#45;&gt;SG_0_Node_2 -->
<g id="edge2" class="edge">
<title>SG_0_Node_0&#45;&gt;SG_0_Node_2</title>
<path fill="none" stroke="black" d="M339.26,-423.27C391.23,-419.91 467.03,-411.47 486.44,-390.43 513.49,-361.1 511.98,-239.62 509.81,-184.66"/>
<polygon fill="black" stroke="black" points="513.31,-184.44 509.38,-174.6 506.32,-184.74 513.31,-184.44"/>
<text text-anchor="middle" x="875.44" y="-374.43" font-family="Times,serif" font-size="20.00">[NA]</text>
<text text-anchor="middle" x="875.44" y="-352.43" font-family="Times,serif" font-size="20.00">brave Android 11 1.60.116 intent real</text>
<text text-anchor="middle" x="875.44" y="-330.43" font-family="Times,serif" font-size="20.00">brave Ubuntu 22.04 v1.62.156 (121.0.6167.139) selenium headless&#45;new</text>
<text text-anchor="middle" x="875.44" y="-308.43" font-family="Times,serif" font-size="20.00">chrome Android 11 120.0.6099.44 intent real</text>
<text text-anchor="middle" x="875.44" y="-286.43" font-family="Times,serif" font-size="20.00">chrome Ubuntu 22.04 120 selenium headless&#45;new</text>
<text text-anchor="middle" x="875.44" y="-264.43" font-family="Times,serif" font-size="20.00">chrome Ubuntu 22.04 121 selenium headless&#45;new</text>
<text text-anchor="middle" x="875.44" y="-242.43" font-family="Times,serif" font-size="20.00">chrome Ubuntu 22.04 122 selenium headless&#45;new</text>
<text text-anchor="middle" x="875.44" y="-220.43" font-family="Times,serif" font-size="20.00">edge Ubuntu 22.04 121 selenium headless&#45;new</text>
<text text-anchor="middle" x="875.44" y="-198.43" font-family="Times,serif" font-size="20.00">opera Android 11 78.4.4143.75735 intent real</text>
</g>
<!-- SG_0_Node_3 -->
<g id="node4" class="node">
<title>SG_0_Node_3</title>
<ellipse fill="none" stroke="black" cx="69.44" cy="-37.21" rx="33.88" ry="21.43"/>
<text text-anchor="middle" x="69.44" y="-32.21" font-family="Times,serif" font-size="20.00">0.0</text>
</g>
<!-- SG_0_Node_1&#45;&gt;SG_0_Node_3 -->
<g id="edge5" class="edge">
<title>SG_0_Node_1&#45;&gt;SG_0_Node_3</title>
<path fill="none" stroke="black" d="M77.21,-138.18C74.47,-132.7 71.87,-126.47 70.44,-120.43 66.46,-103.61 66.02,-84.31 66.67,-68.64"/>
<polygon fill="black" stroke="black" points="70.17,-68.63 67.25,-58.45 63.18,-68.23 70.17,-68.63"/>
<text text-anchor="middle" x="115.94" y="-104.43" font-family="Times,serif" font-size="20.00">[NA]</text>
<text text-anchor="middle" x="115.94" y="-82.43" font-family="Times,serif" font-size="20.00">88 levels</text>
</g>
<!-- SG_0_Node_4 -->
<g id="node5" class="node">
<title>SG_0_Node_4</title>
<ellipse fill="none" stroke="black" cx="183.44" cy="-37.21" rx="33.88" ry="21.43"/>
<text text-anchor="middle" x="183.44" y="-32.21" font-family="Times,serif" font-size="20.00">1.0</text>
</g>
<!-- SG_0_Node_1&#45;&gt;SG_0_Node_4 -->
<g id="edge6" class="edge">
<title>SG_0_Node_1&#45;&gt;SG_0_Node_4</title>
<path fill="none" stroke="black" d="M138.91,-138.32C147.36,-133.62 155.34,-127.74 161.44,-120.43 173.51,-105.96 179.01,-85.5 181.5,-68.61"/>
<polygon fill="black" stroke="black" points="184.98,-68.99 182.69,-58.65 178.03,-68.16 184.98,-68.99"/>
<text text-anchor="middle" x="224.94" y="-93.43" font-family="Times,serif" font-size="20.00">20 levels</text>
</g>
<!-- SG_0_Node_5 -->
<g id="node6" class="node">
<title>SG_0_Node_5</title>
<ellipse fill="none" stroke="black" cx="451.44" cy="-37.21" rx="33.88" ry="21.43"/>
<text text-anchor="middle" x="451.44" y="-32.21" font-family="Times,serif" font-size="20.00">0.0</text>
</g>
<!-- SG_0_Node_2&#45;&gt;SG_0_Node_5 -->
<g id="edge3" class="edge">
<title>SG_0_Node_2&#45;&gt;SG_0_Node_5</title>
<path fill="none" stroke="black" d="M469.51,-138.33C462.68,-133.54 456.48,-127.62 452.44,-120.43 443.72,-104.91 443.25,-85.01 445.07,-68.67"/>
<polygon fill="black" stroke="black" points="448.57,-68.93 446.53,-58.53 441.64,-67.93 448.57,-68.93"/>
<text text-anchor="middle" x="497.94" y="-93.43" font-family="Times,serif" font-size="20.00">20 levels</text>
</g>
<!-- SG_0_Node_6 -->
<g id="node7" class="node">
<title>SG_0_Node_6</title>
<ellipse fill="none" stroke="black" cx="565.44" cy="-37.21" rx="33.88" ry="21.43"/>
<text text-anchor="middle" x="565.44" y="-32.21" font-family="Times,serif" font-size="20.00">1.0</text>
</g>
<!-- SG_0_Node_2&#45;&gt;SG_0_Node_6 -->
<g id="edge4" class="edge">
<title>SG_0_Node_2&#45;&gt;SG_0_Node_6</title>
<path fill="none" stroke="black" d="M529.36,-138.09C534.58,-132.88 539.74,-126.83 543.44,-120.43 552.59,-104.58 558.03,-84.82 561.22,-68.64"/>
<polygon fill="black" stroke="black" points="564.7,-69.07 563,-58.61 557.8,-67.84 564.7,-69.07"/>
<text text-anchor="middle" x="603.94" y="-104.43" font-family="Times,serif" font-size="20.00">[NA]</text>
<text text-anchor="middle" x="603.94" y="-82.43" font-family="Times,serif" font-size="20.00">88 levels</text>
</g>
<!-- SG_1_Node_0 -->
<g id="node8" class="node">
<title>SG_1_Node_0</title>
<polygon fill="none" stroke="black" points="1723.94,-444.43 1622.94,-444.43 1622.94,-408.43 1723.94,-408.43 1723.94,-444.43"/>
<text text-anchor="middle" x="1673.44" y="-421.43" font-family="Times,serif" font-size="20.00">browser</text>
</g>
<!-- SG_1_Node_1 -->
<g id="node9" class="node">
<title>SG_1_Node_1</title>
<polygon fill="none" stroke="black" points="1399.94,-174.43 1262.94,-174.43 1262.94,-138.43 1399.94,-138.43 1399.94,-174.43"/>
<text text-anchor="middle" x="1331.44" y="-151.43" font-family="Times,serif" font-size="20.00">raw_header</text>
</g>
<!-- SG_1_Node_0&#45;&gt;SG_1_Node_1 -->
<g id="edge7" class="edge">
<title>SG_1_Node_0&#45;&gt;SG_1_Node_1</title>
<path fill="none" stroke="black" d="M1622.66,-424.63C1521.81,-422.52 1304.04,-415.13 1281.44,-390.43 1251.74,-357.96 1261.12,-231.45 1281.44,-192.43 1283.56,-188.35 1286.4,-184.65 1289.65,-181.32"/>
<polygon fill="black" stroke="black" points="1292.09,-183.83 1297.3,-174.6 1287.48,-178.57 1292.09,-183.83"/>
<text text-anchor="middle" x="1646.44" y="-374.43" font-family="Times,serif" font-size="20.00">[NA]</text>
<text text-anchor="middle" x="1646.44" y="-352.43" font-family="Times,serif" font-size="20.00">brave Android 11 1.60.116 intent real</text>
<text text-anchor="middle" x="1646.44" y="-330.43" font-family="Times,serif" font-size="20.00">brave Ubuntu 22.04 v1.62.156 (121.0.6167.139) selenium headless&#45;new</text>
<text text-anchor="middle" x="1646.44" y="-308.43" font-family="Times,serif" font-size="20.00">chrome Android 11 120.0.6099.44 intent real</text>
<text text-anchor="middle" x="1646.44" y="-286.43" font-family="Times,serif" font-size="20.00">chrome Ubuntu 22.04 120 selenium headless&#45;new</text>
<text text-anchor="middle" x="1646.44" y="-264.43" font-family="Times,serif" font-size="20.00">chrome Ubuntu 22.04 121 selenium headless&#45;new</text>
<text text-anchor="middle" x="1646.44" y="-242.43" font-family="Times,serif" font-size="20.00">chrome Ubuntu 22.04 122 selenium headless&#45;new</text>
<text text-anchor="middle" x="1646.44" y="-220.43" font-family="Times,serif" font-size="20.00">edge Ubuntu 22.04 121 selenium headless&#45;new</text>
<text text-anchor="middle" x="1646.44" y="-198.43" font-family="Times,serif" font-size="20.00">opera Android 11 78.4.4143.75735 intent real</text>
</g>
<!-- SG_1_Node_2 -->
<g id="node10" class="node">
<title>SG_1_Node_2</title>
<polygon fill="none" stroke="black" points="2101.94,-174.43 1964.94,-174.43 1964.94,-138.43 2101.94,-138.43 2101.94,-174.43"/>
<text text-anchor="middle" x="2033.44" y="-151.43" font-family="Times,serif" font-size="20.00">raw_header</text>
</g>
<!-- SG_1_Node_0&#45;&gt;SG_1_Node_2 -->
<g id="edge8" class="edge">
<title>SG_1_Node_0&#45;&gt;SG_1_Node_2</title>
<path fill="none" stroke="black" d="M1724.26,-423.66C1813.69,-420.04 1991.64,-410.41 2011.44,-390.43 2066.06,-335.31 2051.43,-232.75 2040.47,-184.21"/>
<polygon fill="black" stroke="black" points="2043.87,-183.36 2038.15,-174.44 2037.06,-184.98 2043.87,-183.36"/>
<text text-anchor="middle" x="2274.94" y="-308.43" font-family="Times,serif" font-size="20.00">firefox Ubuntu 22.04 121 selenium headless</text>
<text text-anchor="middle" x="2274.94" y="-286.43" font-family="Times,serif" font-size="20.00">firefox Ubuntu 22.04 122 selenium headless</text>
<text text-anchor="middle" x="2274.94" y="-264.43" font-family="Times,serif" font-size="20.00">firefox_beta Android 11 122.0b1 intent real</text>
</g>
<!-- SG_1_Node_3 -->
<g id="node11" class="node">
<title>SG_1_Node_3</title>
<ellipse fill="none" stroke="black" cx="1313.44" cy="-37.21" rx="33.88" ry="21.43"/>
<text text-anchor="middle" x="1313.44" y="-32.21" font-family="Times,serif" font-size="20.00">0.0</text>
</g>
<!-- SG_1_Node_1&#45;&gt;SG_1_Node_3 -->
<g id="edge11" class="edge">
<title>SG_1_Node_1&#45;&gt;SG_1_Node_3</title>
<path fill="none" stroke="black" d="M1321.21,-138.18C1318.47,-132.7 1315.87,-126.47 1314.44,-120.43 1310.46,-103.61 1310.02,-84.31 1310.67,-68.64"/>
<polygon fill="black" stroke="black" points="1314.17,-68.63 1311.25,-58.45 1307.18,-68.23 1314.17,-68.63"/>
<text text-anchor="middle" x="1359.94" y="-104.43" font-family="Times,serif" font-size="20.00">[NA]</text>
<text text-anchor="middle" x="1359.94" y="-82.43" font-family="Times,serif" font-size="20.00">88 levels</text>
</g>
<!-- SG_1_Node_4 -->
<g id="node12" class="node">
<title>SG_1_Node_4</title>
<ellipse fill="none" stroke="black" cx="1427.44" cy="-37.21" rx="33.88" ry="21.43"/>
<text text-anchor="middle" x="1427.44" y="-32.21" font-family="Times,serif" font-size="20.00">1.0</text>
</g>
<!-- SG_1_Node_1&#45;&gt;SG_1_Node_4 -->
<g id="edge12" class="edge">
<title>SG_1_Node_1&#45;&gt;SG_1_Node_4</title>
<path fill="none" stroke="black" d="M1382.91,-138.32C1391.36,-133.62 1399.34,-127.74 1405.44,-120.43 1417.51,-105.96 1423.01,-85.5 1425.5,-68.61"/>
<polygon fill="black" stroke="black" points="1428.98,-68.99 1426.69,-58.65 1422.03,-68.16 1428.98,-68.99"/>
<text text-anchor="middle" x="1468.94" y="-93.43" font-family="Times,serif" font-size="20.00">20 levels</text>
</g>
<!-- SG_1_Node_5 -->
<g id="node13" class="node">
<title>SG_1_Node_5</title>
<ellipse fill="none" stroke="black" cx="1976.44" cy="-37.21" rx="33.88" ry="21.43"/>
<text text-anchor="middle" x="1976.44" y="-32.21" font-family="Times,serif" font-size="20.00">0.0</text>
</g>
<!-- SG_1_Node_2&#45;&gt;SG_1_Node_5 -->
<g id="edge9" class="edge">
<title>SG_1_Node_2&#45;&gt;SG_1_Node_5</title>
<path fill="none" stroke="black" d="M1994.51,-138.33C1987.68,-133.54 1981.48,-127.62 1977.44,-120.43 1968.72,-104.91 1968.25,-85.01 1970.07,-68.67"/>
<polygon fill="black" stroke="black" points="1973.57,-68.93 1971.53,-58.53 1966.64,-67.93 1973.57,-68.93"/>
<text text-anchor="middle" x="2022.94" y="-93.43" font-family="Times,serif" font-size="20.00">20 levels</text>
</g>
<!-- SG_1_Node_6 -->
<g id="node14" class="node">
<title>SG_1_Node_6</title>
<ellipse fill="none" stroke="black" cx="2090.44" cy="-37.21" rx="33.88" ry="21.43"/>
<text text-anchor="middle" x="2090.44" y="-32.21" font-family="Times,serif" font-size="20.00">1.0</text>
</g>
<!-- SG_1_Node_2&#45;&gt;SG_1_Node_6 -->
<g id="edge10" class="edge">
<title>SG_1_Node_2&#45;&gt;SG_1_Node_6</title>
<path fill="none" stroke="black" d="M2054.36,-138.09C2059.58,-132.88 2064.74,-126.83 2068.44,-120.43 2077.59,-104.58 2083.03,-84.82 2086.22,-68.64"/>
<polygon fill="black" stroke="black" points="2089.7,-69.07 2088,-58.61 2082.8,-67.84 2089.7,-69.07"/>
<text text-anchor="middle" x="2128.94" y="-104.43" font-family="Times,serif" font-size="20.00">[NA]</text>
<text text-anchor="middle" x="2128.94" y="-82.43" font-family="Times,serif" font-size="20.00">88 levels</text>
</g>
</g>
</svg>
