<?xml version="1.0" encoding="UTF-8" standalone="no"?>
<!DOCTYPE svg PUBLIC "-//W3C//DTD SVG 1.1//EN"
 "http://www.w3.org/Graphics/SVG/1.1/DTD/svg11.dtd">
<!-- Generated by graphviz version 2.43.0 (0)
 -->
<!-- Title: G Pages: 1 -->
<svg width="2505pt" height="404pt"
 viewBox="0.00 0.00 2504.66 404.43" xmlns="http://www.w3.org/2000/svg" xmlns:xlink="http://www.w3.org/1999/xlink">
<g id="graph0" class="graph" transform="scale(1 1) rotate(0) translate(4 400.43)">
<title>G</title>
<polygon fill="white" stroke="transparent" points="-4,4 -4,-400.43 2500.66,-400.43 2500.66,4 -4,4"/>
<g id="clust1" class="cluster">
<title>cluster_0</title>
<polygon fill="none" stroke="black" points="8.66,-8 8.66,-388.43 1244.66,-388.43 1244.66,-8 8.66,-8"/>
<text text-anchor="middle" x="626.66" y="-352.43" font-family="Times,serif" font-size="40.00">Tree 0, Class error</text>
</g>
<g id="clust4" class="cluster">
<title>cluster_1</title>
<polygon fill="none" stroke="black" points="1252.66,-8 1252.66,-388.43 2488.66,-388.43 2488.66,-8 1252.66,-8"/>
<text text-anchor="middle" x="1870.66" y="-352.43" font-family="Times,serif" font-size="40.00">Tree 0, Class load</text>
</g>
<!-- SG_0_Node_0 -->
<g id="node1" class="node">
<title>SG_0_Node_0</title>
<polygon fill="none" stroke="black" points="478.16,-328.43 377.16,-328.43 377.16,-292.43 478.16,-292.43 478.16,-328.43"/>
<text text-anchor="middle" x="427.66" y="-305.43" font-family="Times,serif" font-size="20.00">browser</text>
</g>
<!-- SG_0_Node_1 -->
<g id="node2" class="node">
<title>SG_0_Node_1</title>
<ellipse fill="none" stroke="black" cx="50.66" cy="-37.21" rx="33.88" ry="21.43"/>
<text text-anchor="middle" x="50.66" y="-32.21" font-family="Times,serif" font-size="20.00">0.0</text>
</g>
<!-- SG_0_Node_0&#45;&gt;SG_0_Node_1 -->
<g id="edge1" class="edge">
<title>SG_0_Node_0&#45;&gt;SG_0_Node_1</title>
<path fill="none" stroke="black" d="M377.14,-308.69C275.62,-306.67 54.56,-299.43 31.66,-274.43 -27.76,-209.52 11.54,-162.09 31.66,-76.43 32.43,-73.18 33.51,-69.9 34.77,-66.68"/>
<polygon fill="black" stroke="black" points="38.05,-67.94 38.98,-57.39 31.67,-65.06 38.05,-67.94"/>
<text text-anchor="middle" x="396.66" y="-258.43" font-family="Times,serif" font-size="20.00">[NA]</text>
<text text-anchor="middle" x="396.66" y="-236.43" font-family="Times,serif" font-size="20.00">brave Android 11 1.60.116 intent real</text>
<text text-anchor="middle" x="396.66" y="-214.43" font-family="Times,serif" font-size="20.00">brave Ubuntu 22.04 v1.62.156 (121.0.6167.139) selenium headless&#45;new</text>
<text text-anchor="middle" x="396.66" y="-192.43" font-family="Times,serif" font-size="20.00">chrome Android 11 120.0.6099.44 intent real</text>
<text text-anchor="middle" x="396.66" y="-170.43" font-family="Times,serif" font-size="20.00">chrome Ubuntu 22.04 120 selenium headless&#45;new</text>
<text text-anchor="middle" x="396.66" y="-148.43" font-family="Times,serif" font-size="20.00">chrome Ubuntu 22.04 121 selenium headless&#45;new</text>
<text text-anchor="middle" x="396.66" y="-126.43" font-family="Times,serif" font-size="20.00">chrome Ubuntu 22.04 122 selenium headless&#45;new</text>
<text text-anchor="middle" x="396.66" y="-104.43" font-family="Times,serif" font-size="20.00">edge Ubuntu 22.04 121 selenium headless&#45;new</text>
<text text-anchor="middle" x="396.66" y="-82.43" font-family="Times,serif" font-size="20.00">opera Android 11 78.4.4143.75735 intent real</text>
</g>
<!-- SG_0_Node_2 -->
<g id="node3" class="node">
<title>SG_0_Node_2</title>
<ellipse fill="none" stroke="black" cx="787.66" cy="-37.21" rx="33.88" ry="21.43"/>
<text text-anchor="middle" x="787.66" y="-32.21" font-family="Times,serif" font-size="20.00">1.0</text>
</g>
<!-- SG_0_Node_0&#45;&gt;SG_0_Node_2 -->
<g id="edge2" class="edge">
<title>SG_0_Node_0&#45;&gt;SG_0_Node_2</title>
<path fill="none" stroke="black" d="M478.49,-307.66C567.92,-304.05 745.87,-294.42 765.66,-274.43 793.63,-246.17 791.93,-126.19 789.4,-68.91"/>
<polygon fill="black" stroke="black" points="792.88,-68.47 788.91,-58.65 785.89,-68.81 792.88,-68.47"/>
<text text-anchor="middle" x="1015.16" y="-192.43" font-family="Times,serif" font-size="20.00">firefox Ubuntu 22.04 121 selenium headless</text>
<text text-anchor="middle" x="1015.16" y="-170.43" font-family="Times,serif" font-size="20.00">firefox Ubuntu 22.04 122 selenium headless</text>
<text text-anchor="middle" x="1015.16" y="-148.43" font-family="Times,serif" font-size="20.00">firefox_beta Android 11 122.0b1 intent real</text>
</g>
<!-- SG_1_Node_0 -->
<g id="node4" class="node">
<title>SG_1_Node_0</title>
<polygon fill="none" stroke="black" points="1581.16,-328.43 1480.16,-328.43 1480.16,-292.43 1581.16,-292.43 1581.16,-328.43"/>
<text text-anchor="middle" x="1530.66" y="-305.43" font-family="Times,serif" font-size="20.00">browser</text>
</g>
<!-- SG_1_Node_1 -->
<g id="node5" class="node">
<title>SG_1_Node_1</title>
<ellipse fill="none" stroke="black" cx="1294.66" cy="-37.21" rx="33.88" ry="21.43"/>
<text text-anchor="middle" x="1294.66" y="-32.21" font-family="Times,serif" font-size="20.00">0.0</text>
</g>
<!-- SG_1_Node_0&#45;&gt;SG_1_Node_1 -->
<g id="edge3" class="edge">
<title>SG_1_Node_0&#45;&gt;SG_1_Node_1</title>
<path fill="none" stroke="black" d="M1479.94,-310C1413.29,-309.54 1301.62,-304.19 1275.66,-274.43 1246.74,-241.27 1265.6,-119.26 1275.66,-76.43 1276.43,-73.18 1277.51,-69.9 1278.77,-66.68"/>
<polygon fill="black" stroke="black" points="1282.05,-67.94 1282.98,-57.39 1275.67,-65.06 1282.05,-67.94"/>
<text text-anchor="middle" x="1500.16" y="-192.43" font-family="Times,serif" font-size="20.00">firefox Ubuntu 22.04 121 selenium headless</text>
<text text-anchor="middle" x="1500.16" y="-170.43" font-family="Times,serif" font-size="20.00">firefox Ubuntu 22.04 122 selenium headless</text>
<text text-anchor="middle" x="1500.16" y="-148.43" font-family="Times,serif" font-size="20.00">firefox_beta Android 11 122.0b1 intent real</text>
</g>
<!-- SG_1_Node_2 -->
<g id="node6" class="node">
<title>SG_1_Node_2</title>
<ellipse fill="none" stroke="black" cx="1750.66" cy="-37.21" rx="33.88" ry="21.43"/>
<text text-anchor="middle" x="1750.66" y="-32.21" font-family="Times,serif" font-size="20.00">1.0</text>
</g>
<!-- SG_1_Node_0&#45;&gt;SG_1_Node_2 -->
<g id="edge4" class="edge">
<title>SG_1_Node_0&#45;&gt;SG_1_Node_2</title>
<path fill="none" stroke="black" d="M1581.49,-307.27C1633.47,-303.92 1709.27,-295.48 1728.66,-274.43 1780.77,-217.86 1768.57,-118.15 1758.15,-68.32"/>
<polygon fill="black" stroke="black" points="1761.55,-67.49 1755.98,-58.48 1754.72,-69 1761.55,-67.49"/>
<text text-anchor="middle" x="2131.66" y="-258.43" font-family="Times,serif" font-size="20.00">[NA]</text>
<text text-anchor="middle" x="2131.66" y="-236.43" font-family="Times,serif" font-size="20.00">brave Android 11 1.60.116 intent real</text>
<text text-anchor="middle" x="2131.66" y="-214.43" font-family="Times,serif" font-size="20.00">brave Ubuntu 22.04 v1.62.156 (121.0.6167.139) selenium headless&#45;new</text>
<text text-anchor="middle" x="2131.66" y="-192.43" font-family="Times,serif" font-size="20.00">chrome Android 11 120.0.6099.44 intent real</text>
<text text-anchor="middle" x="2131.66" y="-170.43" font-family="Times,serif" font-size="20.00">chrome Ubuntu 22.04 120 selenium headless&#45;new</text>
<text text-anchor="middle" x="2131.66" y="-148.43" font-family="Times,serif" font-size="20.00">chrome Ubuntu 22.04 121 selenium headless&#45;new</text>
<text text-anchor="middle" x="2131.66" y="-126.43" font-family="Times,serif" font-size="20.00">chrome Ubuntu 22.04 122 selenium headless&#45;new</text>
<text text-anchor="middle" x="2131.66" y="-104.43" font-family="Times,serif" font-size="20.00">edge Ubuntu 22.04 121 selenium headless&#45;new</text>
<text text-anchor="middle" x="2131.66" y="-82.43" font-family="Times,serif" font-size="20.00">opera Android 11 78.4.4143.75735 intent real</text>
</g>
</g>
</svg>
