<?xml version="1.0" encoding="UTF-8" standalone="no"?>
<!DOCTYPE svg PUBLIC "-//W3C//DTD SVG 1.1//EN"
 "http://www.w3.org/Graphics/SVG/1.1/DTD/svg11.dtd">
<!-- Generated by graphviz version 2.43.0 (0)
 -->
<!-- Title: G Pages: 1 -->
<svg width="4959pt" height="718pt"
 viewBox="0.00 0.00 4959.00 718.43" xmlns="http://www.w3.org/2000/svg" xmlns:xlink="http://www.w3.org/1999/xlink">
<g id="graph0" class="graph" transform="scale(1 1) rotate(0) translate(4 714.43)">
<title>G</title>
<polygon fill="white" stroke="transparent" points="-4,4 -4,-714.43 4955,-714.43 4955,4 -4,4"/>
<g id="clust1" class="cluster">
<title>cluster_0</title>
<polygon fill="none" stroke="black" points="8,-8 8,-702.43 2469,-702.43 2469,-8 8,-8"/>
<text text-anchor="middle" x="1238.5" y="-666.43" font-family="Times,serif" font-size="40.00">Tree 0, Class error</text>
</g>
<g id="clust5" class="cluster">
<title>cluster_1</title>
<polygon fill="none" stroke="black" points="2477,-8 2477,-702.43 4938,-702.43 4938,-8 2477,-8"/>
<text text-anchor="middle" x="3707.5" y="-666.43" font-family="Times,serif" font-size="40.00">Tree 0, Class load</text>
</g>
<!-- SG_0_Node_0 -->
<g id="node1" class="node">
<title>SG_0_Node_0</title>
<polygon fill="none" stroke="black" points="775.5,-642.43 638.5,-642.43 638.5,-606.43 775.5,-606.43 775.5,-642.43"/>
<text text-anchor="middle" x="707" y="-619.43" font-family="Times,serif" font-size="20.00">raw_header</text>
</g>
<!-- SG_0_Node_1 -->
<g id="node2" class="node">
<title>SG_0_Node_1</title>
<polygon fill="none" stroke="black" points="317.5,-328.43 216.5,-328.43 216.5,-292.43 317.5,-292.43 317.5,-328.43"/>
<text text-anchor="middle" x="267" y="-305.43" font-family="Times,serif" font-size="20.00">browser</text>
</g>
<!-- SG_0_Node_0&#45;&gt;SG_0_Node_1 -->
<g id="edge1" class="edge">
<title>SG_0_Node_0&#45;&gt;SG_0_Node_1</title>
<path fill="none" stroke="black" d="M638.04,-622.94C520.74,-621.39 292.59,-614.96 268,-588.43 203.82,-519.17 237.5,-393.2 256.68,-338.26"/>
<polygon fill="black" stroke="black" points="260.08,-339.15 260.18,-328.55 253.5,-336.77 260.08,-339.15"/>
<text text-anchor="middle" x="888" y="-572.43" font-family="Times,serif" font-size="20.00">[[&#39;Cross&#45;Origin&#45;Resource&#45;Policy&#39;, &#39;same&#45;origin&#39;]]</text>
<text text-anchor="middle" x="888" y="-550.43" font-family="Times,serif" font-size="20.00">[[&#39;cross&#45;origin&#45;resource&#45;policy&#39;, &#39;&#39;], [&#39;cross&#45;origin&#45;resource&#45;policy&#39;, &#39;same&#45;origin&#39;]]</text>
<text text-anchor="middle" x="888" y="-528.43" font-family="Times,serif" font-size="20.00">[[&#39;cross&#45;origin&#45;resource&#45;policy&#39;, &#39;&#39;], [&#39;cross&#45;origin&#45;resource&#45;policy&#39;, &#39;same&#45;site&#39;]]</text>
<text text-anchor="middle" x="888" y="-506.43" font-family="Times,serif" font-size="20.00">[[&#39;cross&#45;origin&#45;resource&#45;policy&#39;, &#39;&#39;], [&#39;location&#39;, &#39;https://sub.headers.websec.saarland/_hp/common/empty.html&#39;]]</text>
<text text-anchor="middle" x="888" y="-484.43" font-family="Times,serif" font-size="20.00">[[&#39;cross&#45;origin&#45;resource&#45;policy&#39;, &#39;cross&#45;origin&#39;], [&#39;location&#39;, &#39;https://sub.headers.websec.saarland/_hp/common/empty.html&#39;]]</text>
<text text-anchor="middle" x="888" y="-462.43" font-family="Times,serif" font-size="20.00">[[&#39;cross&#45;origin&#45;resource&#45;policy&#39;, &#39;same&#45;origin&#39;], [&#39;cross&#45;origin&#45;resource&#45;policy&#39;, &#39;&#39;]]</text>
<text text-anchor="middle" x="888" y="-440.43" font-family="Times,serif" font-size="20.00">[[&#39;cross&#45;origin&#45;resource&#45;policy&#39;, &#39;same&#45;site&#39;], [&#39;cross&#45;origin&#45;resource&#45;policy&#39;, &#39;&#39;]]</text>
<text text-anchor="end" x="1508" y="-418.43" font-family="Times,serif" font-size="20.00">[[&#39;cross&#45;origin&#45;resource&#45;policy</text>
<text text-anchor="middle" x="888" y="-396.43" font-family="Times,serif" font-size="20.00">&#39;, &#39;same&#45;origin&#39;]]</text>
<text text-anchor="end" x="1508" y="-374.43" font-family="Times,serif" font-size="20.00">[[&#39;cross&#45;origin&#45;resource&#45;policy</text>
<text text-anchor="middle" x="888" y="-352.43" font-family="Times,serif" font-size="20.00">&#39;, &#39;same&#45;site&#39;]]</text>
</g>
<!-- SG_0_Node_2 -->
<g id="node3" class="node">
<title>SG_0_Node_2</title>
<polygon fill="none" stroke="black" points="1580.5,-328.43 1479.5,-328.43 1479.5,-292.43 1580.5,-292.43 1580.5,-328.43"/>
<text text-anchor="middle" x="1530" y="-305.43" font-family="Times,serif" font-size="20.00">browser</text>
</g>
<!-- SG_0_Node_0&#45;&gt;SG_0_Node_2 -->
<g id="edge2" class="edge">
<title>SG_0_Node_0&#45;&gt;SG_0_Node_2</title>
<path fill="none" stroke="black" d="M775.78,-622.87C965.13,-621.02 1481.85,-613.66 1508,-588.43 1576.32,-522.49 1552.59,-394.21 1537.97,-338.42"/>
<polygon fill="black" stroke="black" points="1541.29,-337.3 1535.28,-328.58 1534.54,-339.15 1541.29,-337.3"/>
<text text-anchor="middle" x="1599.5" y="-473.43" font-family="Times,serif" font-size="20.00">[NA]</text>
<text text-anchor="middle" x="1599.5" y="-451.43" font-family="Times,serif" font-size="20.00">20 levels</text>
</g>
<!-- SG_0_Node_3 -->
<g id="node4" class="node">
<title>SG_0_Node_3</title>
<ellipse fill="none" stroke="black" cx="50" cy="-37.21" rx="33.88" ry="21.43"/>
<text text-anchor="middle" x="50" y="-32.21" font-family="Times,serif" font-size="20.00">0.0</text>
</g>
<!-- SG_0_Node_1&#45;&gt;SG_0_Node_3 -->
<g id="edge5" class="edge">
<title>SG_0_Node_1&#45;&gt;SG_0_Node_3</title>
<path fill="none" stroke="black" d="M216.37,-309.18C155.29,-307.69 57.91,-301.06 35,-274.43 -15.27,-216 16.18,-116.38 36.58,-67.29"/>
<polygon fill="black" stroke="black" points="39.89,-68.47 40.61,-57.9 33.45,-65.71 39.89,-68.47"/>
<text text-anchor="middle" x="400" y="-258.43" font-family="Times,serif" font-size="20.00">[NA]</text>
<text text-anchor="middle" x="400" y="-236.43" font-family="Times,serif" font-size="20.00">brave Android 11 1.60.116 intent real</text>
<text text-anchor="middle" x="400" y="-214.43" font-family="Times,serif" font-size="20.00">brave Ubuntu 22.04 v1.62.156 (121.0.6167.139) selenium headless&#45;new</text>
<text text-anchor="middle" x="400" y="-192.43" font-family="Times,serif" font-size="20.00">chrome Android 11 120.0.6099.44 intent real</text>
<text text-anchor="middle" x="400" y="-170.43" font-family="Times,serif" font-size="20.00">chrome Ubuntu 22.04 120 selenium headless&#45;new</text>
<text text-anchor="middle" x="400" y="-148.43" font-family="Times,serif" font-size="20.00">chrome Ubuntu 22.04 121 selenium headless&#45;new</text>
<text text-anchor="middle" x="400" y="-126.43" font-family="Times,serif" font-size="20.00">chrome Ubuntu 22.04 122 selenium headless&#45;new</text>
<text text-anchor="middle" x="400" y="-104.43" font-family="Times,serif" font-size="20.00">edge Ubuntu 22.04 121 selenium headless&#45;new</text>
<text text-anchor="middle" x="400" y="-82.43" font-family="Times,serif" font-size="20.00">opera Android 11 78.4.4143.75735 intent real</text>
</g>
<!-- SG_0_Node_4 -->
<g id="node5" class="node">
<title>SG_0_Node_4</title>
<ellipse fill="none" stroke="black" cx="787" cy="-37.21" rx="33.88" ry="21.43"/>
<text text-anchor="middle" x="787" y="-32.21" font-family="Times,serif" font-size="20.00">1.0</text>
</g>
<!-- SG_0_Node_1&#45;&gt;SG_0_Node_4 -->
<g id="edge6" class="edge">
<title>SG_0_Node_1&#45;&gt;SG_0_Node_4</title>
<path fill="none" stroke="black" d="M317.71,-309.5C438.11,-309.18 733.51,-305.21 765,-274.43 779.45,-260.3 784.67,-129.06 786.32,-68.53"/>
<polygon fill="black" stroke="black" points="789.83,-68.52 786.58,-58.43 782.83,-68.34 789.83,-68.52"/>
<text text-anchor="middle" x="1009.5" y="-192.43" font-family="Times,serif" font-size="20.00">firefox Ubuntu 22.04 121 selenium headless</text>
<text text-anchor="middle" x="1009.5" y="-170.43" font-family="Times,serif" font-size="20.00">firefox Ubuntu 22.04 122 selenium headless</text>
<text text-anchor="middle" x="1009.5" y="-148.43" font-family="Times,serif" font-size="20.00">firefox_beta Android 11 122.0b1 intent real</text>
</g>
<!-- SG_0_Node_5 -->
<g id="node6" class="node">
<title>SG_0_Node_5</title>
<ellipse fill="none" stroke="black" cx="1259" cy="-37.21" rx="33.88" ry="21.43"/>
<text text-anchor="middle" x="1259" y="-32.21" font-family="Times,serif" font-size="20.00">0.0</text>
</g>
<!-- SG_0_Node_2&#45;&gt;SG_0_Node_5 -->
<g id="edge3" class="edge">
<title>SG_0_Node_2&#45;&gt;SG_0_Node_5</title>
<path fill="none" stroke="black" d="M1479.4,-306.53C1404.28,-301.7 1270.5,-290.89 1256,-274.43 1229.84,-244.71 1244.84,-125.48 1253.8,-68.64"/>
<polygon fill="black" stroke="black" points="1257.3,-68.9 1255.45,-58.47 1250.39,-67.78 1257.3,-68.9"/>
<text text-anchor="middle" x="1480.5" y="-192.43" font-family="Times,serif" font-size="20.00">firefox Ubuntu 22.04 121 selenium headless</text>
<text text-anchor="middle" x="1480.5" y="-170.43" font-family="Times,serif" font-size="20.00">firefox Ubuntu 22.04 122 selenium headless</text>
<text text-anchor="middle" x="1480.5" y="-148.43" font-family="Times,serif" font-size="20.00">firefox_beta Android 11 122.0b1 intent real</text>
</g>
<!-- SG_0_Node_6 -->
<g id="node7" class="node">
<title>SG_0_Node_6</title>
<ellipse fill="none" stroke="black" cx="1731" cy="-37.21" rx="33.88" ry="21.43"/>
<text text-anchor="middle" x="1731" y="-32.21" font-family="Times,serif" font-size="20.00">1.0</text>
</g>
<!-- SG_0_Node_2&#45;&gt;SG_0_Node_6 -->
<g id="edge4" class="edge">
<title>SG_0_Node_2&#45;&gt;SG_0_Node_6</title>
<path fill="none" stroke="black" d="M1580.79,-306.16C1627.56,-302.02 1692.17,-293.04 1709,-274.43 1735.67,-244.94 1734.63,-125.59 1732.5,-68.68"/>
<polygon fill="black" stroke="black" points="1735.99,-68.35 1732.08,-58.5 1729,-68.63 1735.99,-68.35"/>
<text text-anchor="middle" x="2098" y="-258.43" font-family="Times,serif" font-size="20.00">[NA]</text>
<text text-anchor="middle" x="2098" y="-236.43" font-family="Times,serif" font-size="20.00">brave Android 11 1.60.116 intent real</text>
<text text-anchor="middle" x="2098" y="-214.43" font-family="Times,serif" font-size="20.00">brave Ubuntu 22.04 v1.62.156 (121.0.6167.139) selenium headless&#45;new</text>
<text text-anchor="middle" x="2098" y="-192.43" font-family="Times,serif" font-size="20.00">chrome Android 11 120.0.6099.44 intent real</text>
<text text-anchor="middle" x="2098" y="-170.43" font-family="Times,serif" font-size="20.00">chrome Ubuntu 22.04 120 selenium headless&#45;new</text>
<text text-anchor="middle" x="2098" y="-148.43" font-family="Times,serif" font-size="20.00">chrome Ubuntu 22.04 121 selenium headless&#45;new</text>
<text text-anchor="middle" x="2098" y="-126.43" font-family="Times,serif" font-size="20.00">chrome Ubuntu 22.04 122 selenium headless&#45;new</text>
<text text-anchor="middle" x="2098" y="-104.43" font-family="Times,serif" font-size="20.00">edge Ubuntu 22.04 121 selenium headless&#45;new</text>
<text text-anchor="middle" x="2098" y="-82.43" font-family="Times,serif" font-size="20.00">opera Android 11 78.4.4143.75735 intent real</text>
</g>
<!-- SG_1_Node_0 -->
<g id="node8" class="node">
<title>SG_1_Node_0</title>
<polygon fill="none" stroke="black" points="3541.5,-642.43 3404.5,-642.43 3404.5,-606.43 3541.5,-606.43 3541.5,-642.43"/>
<text text-anchor="middle" x="3473" y="-619.43" font-family="Times,serif" font-size="20.00">raw_header</text>
</g>
<!-- SG_1_Node_1 -->
<g id="node9" class="node">
<title>SG_1_Node_1</title>
<polygon fill="none" stroke="black" points="3306.5,-328.43 3205.5,-328.43 3205.5,-292.43 3306.5,-292.43 3306.5,-328.43"/>
<text text-anchor="middle" x="3256" y="-305.43" font-family="Times,serif" font-size="20.00">browser</text>
</g>
<!-- SG_1_Node_0&#45;&gt;SG_1_Node_1 -->
<g id="edge7" class="edge">
<title>SG_1_Node_0&#45;&gt;SG_1_Node_1</title>
<path fill="none" stroke="black" d="M3461.02,-606.21C3424.86,-554.22 3316.65,-398.62 3273.77,-336.98"/>
<polygon fill="black" stroke="black" points="3276.52,-334.8 3267.94,-328.59 3270.78,-338.8 3276.52,-334.8"/>
<text text-anchor="middle" x="3491.5" y="-473.43" font-family="Times,serif" font-size="20.00">[NA]</text>
<text text-anchor="middle" x="3491.5" y="-451.43" font-family="Times,serif" font-size="20.00">20 levels</text>
</g>
<!-- SG_1_Node_2 -->
<g id="node10" class="node">
<title>SG_1_Node_2</title>
<polygon fill="none" stroke="black" points="3778.5,-328.43 3677.5,-328.43 3677.5,-292.43 3778.5,-292.43 3778.5,-328.43"/>
<text text-anchor="middle" x="3728" y="-305.43" font-family="Times,serif" font-size="20.00">browser</text>
</g>
<!-- SG_1_Node_0&#45;&gt;SG_1_Node_2 -->
<g id="edge8" class="edge">
<title>SG_1_Node_0&#45;&gt;SG_1_Node_2</title>
<path fill="none" stroke="black" d="M3514.32,-606.36C3523.68,-601.39 3533.16,-595.39 3541,-588.43 3625.95,-512.98 3690.35,-390.89 3715.94,-337.65"/>
<polygon fill="black" stroke="black" points="3719.14,-339.07 3720.26,-328.54 3712.81,-336.07 3719.14,-339.07"/>
<text text-anchor="middle" x="4331" y="-572.43" font-family="Times,serif" font-size="20.00">[[&#39;Cross&#45;Origin&#45;Resource&#45;Policy&#39;, &#39;same&#45;origin&#39;]]</text>
<text text-anchor="middle" x="4331" y="-550.43" font-family="Times,serif" font-size="20.00">[[&#39;cross&#45;origin&#45;resource&#45;policy&#39;, &#39;&#39;], [&#39;cross&#45;origin&#45;resource&#45;policy&#39;, &#39;same&#45;origin&#39;]]</text>
<text text-anchor="middle" x="4331" y="-528.43" font-family="Times,serif" font-size="20.00">[[&#39;cross&#45;origin&#45;resource&#45;policy&#39;, &#39;&#39;], [&#39;cross&#45;origin&#45;resource&#45;policy&#39;, &#39;same&#45;site&#39;]]</text>
<text text-anchor="middle" x="4331" y="-506.43" font-family="Times,serif" font-size="20.00">[[&#39;cross&#45;origin&#45;resource&#45;policy&#39;, &#39;&#39;], [&#39;location&#39;, &#39;https://sub.headers.websec.saarland/_hp/common/empty.html&#39;]]</text>
<text text-anchor="middle" x="4331" y="-484.43" font-family="Times,serif" font-size="20.00">[[&#39;cross&#45;origin&#45;resource&#45;policy&#39;, &#39;cross&#45;origin&#39;], [&#39;location&#39;, &#39;https://sub.headers.websec.saarland/_hp/common/empty.html&#39;]]</text>
<text text-anchor="middle" x="4331" y="-462.43" font-family="Times,serif" font-size="20.00">[[&#39;cross&#45;origin&#45;resource&#45;policy&#39;, &#39;same&#45;origin&#39;], [&#39;cross&#45;origin&#45;resource&#45;policy&#39;, &#39;&#39;]]</text>
<text text-anchor="middle" x="4331" y="-440.43" font-family="Times,serif" font-size="20.00">[[&#39;cross&#45;origin&#45;resource&#45;policy&#39;, &#39;same&#45;site&#39;], [&#39;cross&#45;origin&#45;resource&#45;policy&#39;, &#39;&#39;]]</text>
<text text-anchor="end" x="4951" y="-418.43" font-family="Times,serif" font-size="20.00">[[&#39;cross&#45;origin&#45;resource&#45;policy</text>
<text text-anchor="middle" x="4331" y="-396.43" font-family="Times,serif" font-size="20.00">&#39;, &#39;same&#45;origin&#39;]]</text>
<text text-anchor="end" x="4951" y="-374.43" font-family="Times,serif" font-size="20.00">[[&#39;cross&#45;origin&#45;resource&#45;policy</text>
<text text-anchor="middle" x="4331" y="-352.43" font-family="Times,serif" font-size="20.00">&#39;, &#39;same&#45;site&#39;]]</text>
</g>
<!-- SG_1_Node_3 -->
<g id="node11" class="node">
<title>SG_1_Node_3</title>
<ellipse fill="none" stroke="black" cx="2519" cy="-37.21" rx="33.88" ry="21.43"/>
<text text-anchor="middle" x="2519" y="-32.21" font-family="Times,serif" font-size="20.00">0.0</text>
</g>
<!-- SG_1_Node_1&#45;&gt;SG_1_Node_3 -->
<g id="edge11" class="edge">
<title>SG_1_Node_1&#45;&gt;SG_1_Node_3</title>
<path fill="none" stroke="black" d="M3205.41,-308.9C3043.27,-306.95 2545.72,-298.99 2522,-274.43 2468.43,-218.95 2491.94,-117.52 2508.2,-67.58"/>
<polygon fill="black" stroke="black" points="2511.54,-68.62 2511.43,-58.03 2504.91,-66.38 2511.54,-68.62"/>
<text text-anchor="middle" x="2887" y="-258.43" font-family="Times,serif" font-size="20.00">[NA]</text>
<text text-anchor="middle" x="2887" y="-236.43" font-family="Times,serif" font-size="20.00">brave Android 11 1.60.116 intent real</text>
<text text-anchor="middle" x="2887" y="-214.43" font-family="Times,serif" font-size="20.00">brave Ubuntu 22.04 v1.62.156 (121.0.6167.139) selenium headless&#45;new</text>
<text text-anchor="middle" x="2887" y="-192.43" font-family="Times,serif" font-size="20.00">chrome Android 11 120.0.6099.44 intent real</text>
<text text-anchor="middle" x="2887" y="-170.43" font-family="Times,serif" font-size="20.00">chrome Ubuntu 22.04 120 selenium headless&#45;new</text>
<text text-anchor="middle" x="2887" y="-148.43" font-family="Times,serif" font-size="20.00">chrome Ubuntu 22.04 121 selenium headless&#45;new</text>
<text text-anchor="middle" x="2887" y="-126.43" font-family="Times,serif" font-size="20.00">chrome Ubuntu 22.04 122 selenium headless&#45;new</text>
<text text-anchor="middle" x="2887" y="-104.43" font-family="Times,serif" font-size="20.00">edge Ubuntu 22.04 121 selenium headless&#45;new</text>
<text text-anchor="middle" x="2887" y="-82.43" font-family="Times,serif" font-size="20.00">opera Android 11 78.4.4143.75735 intent real</text>
</g>
<!-- SG_1_Node_4 -->
<g id="node12" class="node">
<title>SG_1_Node_4</title>
<ellipse fill="none" stroke="black" cx="3256" cy="-37.21" rx="33.88" ry="21.43"/>
<text text-anchor="middle" x="3256" y="-32.21" font-family="Times,serif" font-size="20.00">1.0</text>
</g>
<!-- SG_1_Node_1&#45;&gt;SG_1_Node_4 -->
<g id="edge12" class="edge">
<title>SG_1_Node_1&#45;&gt;SG_1_Node_4</title>
<path fill="none" stroke="black" d="M3256,-292.05C3256,-247.02 3256,-126.08 3256,-68.93"/>
<polygon fill="black" stroke="black" points="3259.5,-68.71 3256,-58.71 3252.5,-68.71 3259.5,-68.71"/>
<text text-anchor="middle" x="3480.5" y="-192.43" font-family="Times,serif" font-size="20.00">firefox Ubuntu 22.04 121 selenium headless</text>
<text text-anchor="middle" x="3480.5" y="-170.43" font-family="Times,serif" font-size="20.00">firefox Ubuntu 22.04 122 selenium headless</text>
<text text-anchor="middle" x="3480.5" y="-148.43" font-family="Times,serif" font-size="20.00">firefox_beta Android 11 122.0b1 intent real</text>
</g>
<!-- SG_1_Node_5 -->
<g id="node13" class="node">
<title>SG_1_Node_5</title>
<ellipse fill="none" stroke="black" cx="3728" cy="-37.21" rx="33.88" ry="21.43"/>
<text text-anchor="middle" x="3728" y="-32.21" font-family="Times,serif" font-size="20.00">0.0</text>
</g>
<!-- SG_1_Node_2&#45;&gt;SG_1_Node_5 -->
<g id="edge9" class="edge">
<title>SG_1_Node_2&#45;&gt;SG_1_Node_5</title>
<path fill="none" stroke="black" d="M3728,-292.05C3728,-247.02 3728,-126.08 3728,-68.93"/>
<polygon fill="black" stroke="black" points="3731.5,-68.71 3728,-58.71 3724.5,-68.71 3731.5,-68.71"/>
<text text-anchor="middle" x="3952.5" y="-192.43" font-family="Times,serif" font-size="20.00">firefox Ubuntu 22.04 121 selenium headless</text>
<text text-anchor="middle" x="3952.5" y="-170.43" font-family="Times,serif" font-size="20.00">firefox Ubuntu 22.04 122 selenium headless</text>
<text text-anchor="middle" x="3952.5" y="-148.43" font-family="Times,serif" font-size="20.00">firefox_beta Android 11 122.0b1 intent real</text>
</g>
<!-- SG_1_Node_6 -->
<g id="node14" class="node">
<title>SG_1_Node_6</title>
<ellipse fill="none" stroke="black" cx="4200" cy="-37.21" rx="33.88" ry="21.43"/>
<text text-anchor="middle" x="4200" y="-32.21" font-family="Times,serif" font-size="20.00">1.0</text>
</g>
<!-- SG_1_Node_2&#45;&gt;SG_1_Node_6 -->
<g id="edge10" class="edge">
<title>SG_1_Node_2&#45;&gt;SG_1_Node_6</title>
<path fill="none" stroke="black" d="M3778.75,-309.09C3890.48,-307.83 4150.05,-301.95 4178,-274.43 4233.07,-220.19 4219.22,-118.55 4207.91,-68.14"/>
<polygon fill="black" stroke="black" points="4211.26,-67.12 4205.56,-58.19 4204.45,-68.73 4211.26,-67.12"/>
<text text-anchor="middle" x="4583" y="-258.43" font-family="Times,serif" font-size="20.00">[NA]</text>
<text text-anchor="middle" x="4583" y="-236.43" font-family="Times,serif" font-size="20.00">brave Android 11 1.60.116 intent real</text>
<text text-anchor="middle" x="4583" y="-214.43" font-family="Times,serif" font-size="20.00">brave Ubuntu 22.04 v1.62.156 (121.0.6167.139) selenium headless&#45;new</text>
<text text-anchor="middle" x="4583" y="-192.43" font-family="Times,serif" font-size="20.00">chrome Android 11 120.0.6099.44 intent real</text>
<text text-anchor="middle" x="4583" y="-170.43" font-family="Times,serif" font-size="20.00">chrome Ubuntu 22.04 120 selenium headless&#45;new</text>
<text text-anchor="middle" x="4583" y="-148.43" font-family="Times,serif" font-size="20.00">chrome Ubuntu 22.04 121 selenium headless&#45;new</text>
<text text-anchor="middle" x="4583" y="-126.43" font-family="Times,serif" font-size="20.00">chrome Ubuntu 22.04 122 selenium headless&#45;new</text>
<text text-anchor="middle" x="4583" y="-104.43" font-family="Times,serif" font-size="20.00">edge Ubuntu 22.04 121 selenium headless&#45;new</text>
<text text-anchor="middle" x="4583" y="-82.43" font-family="Times,serif" font-size="20.00">opera Android 11 78.4.4143.75735 intent real</text>
</g>
</g>
</svg>
