<?xml version="1.0" encoding="UTF-8" standalone="no"?>
<!DOCTYPE svg PUBLIC "-//W3C//DTD SVG 1.1//EN"
 "http://www.w3.org/Graphics/SVG/1.1/DTD/svg11.dtd">
<!-- Generated by graphviz version 2.43.0 (0)
 -->
<!-- Title: G Pages: 1 -->
<svg width="4881pt" height="448pt"
 viewBox="0.00 0.00 4880.70 448.43" xmlns="http://www.w3.org/2000/svg" xmlns:xlink="http://www.w3.org/1999/xlink">
<g id="graph0" class="graph" transform="scale(1 1) rotate(0) translate(4 444.43)">
<title>G</title>
<polygon fill="white" stroke="transparent" points="-4,4 -4,-444.43 4876.7,-444.43 4876.7,4 -4,4"/>
<g id="clust1" class="cluster">
<title>cluster_0</title>
<polygon fill="none" stroke="black" points="15.7,-8 15.7,-432.43 1270.7,-432.43 1270.7,-8 15.7,-8"/>
<text text-anchor="middle" x="643.2" y="-396.43" font-family="Times,serif" font-size="40.00">Tree 0, Class message timeout</text>
</g>
<g id="clust4" class="cluster">
<title>cluster_1</title>
<polygon fill="none" stroke="black" points="1278.7,-8 1278.7,-432.43 4864.7,-432.43 4864.7,-8 1278.7,-8"/>
<text text-anchor="middle" x="3071.7" y="-396.43" font-family="Times,serif" font-size="40.00">Tree 0, Class {&#39;image&#45;events&#39;: {&#39;swag.jpg&#39;: &#39;load&#39;, &#39;swag&#45;same&#45;site.jpg&#39;: &#39;error&#39;, &#39;swag&#45;cross&#45;site.jpg&#39;: &#39;load&#39;, &#39;swag&#45;same&#45;origin.jpg&#39;: &#39;error&#39;}, &#39;window.crossOriginIsolated&#39;: False}</text>
</g>
<!-- SG_0_Node_0 -->
<g id="node1" class="node">
<title>SG_0_Node_0</title>
<polygon fill="none" stroke="black" points="485.2,-372.43 384.2,-372.43 384.2,-336.43 485.2,-336.43 485.2,-372.43"/>
<text text-anchor="middle" x="434.7" y="-349.43" font-family="Times,serif" font-size="20.00">browser</text>
</g>
<!-- SG_0_Node_1 -->
<g id="node2" class="node">
<title>SG_0_Node_1</title>
<ellipse fill="none" stroke="black" cx="57.7" cy="-37.21" rx="33.88" ry="21.43"/>
<text text-anchor="middle" x="57.7" y="-32.21" font-family="Times,serif" font-size="20.00">0.0</text>
</g>
<!-- SG_0_Node_0&#45;&gt;SG_0_Node_1 -->
<g id="edge1" class="edge">
<title>SG_0_Node_0&#45;&gt;SG_0_Node_1</title>
<path fill="none" stroke="black" d="M384.18,-352.69C282.66,-350.67 61.6,-343.43 38.7,-318.43 -33.93,-239.1 14.11,-181.13 38.7,-76.43 39.46,-73.18 40.54,-69.9 41.81,-66.68"/>
<polygon fill="black" stroke="black" points="45.08,-67.94 46.02,-57.39 38.7,-65.06 45.08,-67.94"/>
<text text-anchor="middle" x="403.7" y="-302.43" font-family="Times,serif" font-size="20.00">[NA]</text>
<text text-anchor="middle" x="403.7" y="-280.43" font-family="Times,serif" font-size="20.00">brave Android 11 1.60.116 intent real</text>
<text text-anchor="middle" x="403.7" y="-258.43" font-family="Times,serif" font-size="20.00">brave Ubuntu 22.04 v1.62.156 (121.0.6167.139) selenium headless&#45;new</text>
<text text-anchor="middle" x="403.7" y="-236.43" font-family="Times,serif" font-size="20.00">chrome Android 11 120.0.6099.44 intent real</text>
<text text-anchor="middle" x="403.7" y="-214.43" font-family="Times,serif" font-size="20.00">chrome Ubuntu 22.04 120 selenium headless&#45;new</text>
<text text-anchor="middle" x="403.7" y="-192.43" font-family="Times,serif" font-size="20.00">chrome Ubuntu 22.04 121 selenium headless&#45;new</text>
<text text-anchor="middle" x="403.7" y="-170.43" font-family="Times,serif" font-size="20.00">chrome Ubuntu 22.04 122 selenium headless&#45;new</text>
<text text-anchor="middle" x="403.7" y="-148.43" font-family="Times,serif" font-size="20.00">edge Ubuntu 22.04 121 selenium headless&#45;new</text>
<text text-anchor="middle" x="403.7" y="-126.43" font-family="Times,serif" font-size="20.00">firefox Ubuntu 22.04 121 selenium headless</text>
<text text-anchor="middle" x="403.7" y="-104.43" font-family="Times,serif" font-size="20.00">firefox Ubuntu 22.04 122 selenium headless</text>
<text text-anchor="middle" x="403.7" y="-82.43" font-family="Times,serif" font-size="20.00">firefox_beta Android 11 122.0b1 intent real</text>
</g>
<!-- SG_0_Node_2 -->
<g id="node3" class="node">
<title>SG_0_Node_2</title>
<ellipse fill="none" stroke="black" cx="794.7" cy="-37.21" rx="33.88" ry="21.43"/>
<text text-anchor="middle" x="794.7" y="-32.21" font-family="Times,serif" font-size="20.00">1.0</text>
</g>
<!-- SG_0_Node_0&#45;&gt;SG_0_Node_2 -->
<g id="edge2" class="edge">
<title>SG_0_Node_0&#45;&gt;SG_0_Node_2</title>
<path fill="none" stroke="black" d="M485.2,-351.7C574.56,-348.15 753.03,-338.59 772.7,-318.43 806.59,-283.68 801.1,-133.74 796.96,-68.61"/>
<polygon fill="black" stroke="black" points="800.45,-68.3 796.29,-58.55 793.46,-68.76 800.45,-68.3"/>
<text text-anchor="middle" x="1033.7" y="-192.43" font-family="Times,serif" font-size="20.00">opera Android 11 78.4.4143.75735 intent real</text>
</g>
<!-- SG_1_Node_0 -->
<g id="node4" class="node">
<title>SG_1_Node_0</title>
<polygon fill="none" stroke="black" points="1625.2,-372.43 1524.2,-372.43 1524.2,-336.43 1625.2,-336.43 1625.2,-372.43"/>
<text text-anchor="middle" x="1574.7" y="-349.43" font-family="Times,serif" font-size="20.00">browser</text>
</g>
<!-- SG_1_Node_1 -->
<g id="node5" class="node">
<title>SG_1_Node_1</title>
<ellipse fill="none" stroke="black" cx="1447.7" cy="-37.21" rx="33.88" ry="21.43"/>
<text text-anchor="middle" x="1447.7" y="-32.21" font-family="Times,serif" font-size="20.00">0.0</text>
</g>
<!-- SG_1_Node_0&#45;&gt;SG_1_Node_1 -->
<g id="edge3" class="edge">
<title>SG_1_Node_0&#45;&gt;SG_1_Node_1</title>
<path fill="none" stroke="black" d="M1524.11,-345.72C1493.3,-339.88 1458.1,-330.75 1448.7,-318.43 1391.89,-243.96 1419.96,-123.03 1437.38,-67.62"/>
<polygon fill="black" stroke="black" points="1440.72,-68.66 1440.48,-58.07 1434.06,-66.5 1440.72,-68.66"/>
<text text-anchor="middle" x="1682.7" y="-192.43" font-family="Times,serif" font-size="20.00">opera Android 11 78.4.4143.75735 intent real</text>
</g>
<!-- SG_1_Node_2 -->
<g id="node6" class="node">
<title>SG_1_Node_2</title>
<ellipse fill="none" stroke="black" cx="1938.7" cy="-37.21" rx="33.88" ry="21.43"/>
<text text-anchor="middle" x="1938.7" y="-32.21" font-family="Times,serif" font-size="20.00">1.0</text>
</g>
<!-- SG_1_Node_0&#45;&gt;SG_1_Node_2 -->
<g id="edge4" class="edge">
<title>SG_1_Node_0&#45;&gt;SG_1_Node_2</title>
<path fill="none" stroke="black" d="M1625.44,-351.76C1715.74,-348.29 1896.76,-338.84 1916.7,-318.43 1982.66,-250.89 1961.49,-125.4 1947.21,-68.12"/>
<polygon fill="black" stroke="black" points="1950.55,-67.05 1944.65,-58.25 1943.78,-68.81 1950.55,-67.05"/>
<text text-anchor="middle" x="2326.7" y="-302.43" font-family="Times,serif" font-size="20.00">[NA]</text>
<text text-anchor="middle" x="2326.7" y="-280.43" font-family="Times,serif" font-size="20.00">brave Android 11 1.60.116 intent real</text>
<text text-anchor="middle" x="2326.7" y="-258.43" font-family="Times,serif" font-size="20.00">brave Ubuntu 22.04 v1.62.156 (121.0.6167.139) selenium headless&#45;new</text>
<text text-anchor="middle" x="2326.7" y="-236.43" font-family="Times,serif" font-size="20.00">chrome Android 11 120.0.6099.44 intent real</text>
<text text-anchor="middle" x="2326.7" y="-214.43" font-family="Times,serif" font-size="20.00">chrome Ubuntu 22.04 120 selenium headless&#45;new</text>
<text text-anchor="middle" x="2326.7" y="-192.43" font-family="Times,serif" font-size="20.00">chrome Ubuntu 22.04 121 selenium headless&#45;new</text>
<text text-anchor="middle" x="2326.7" y="-170.43" font-family="Times,serif" font-size="20.00">chrome Ubuntu 22.04 122 selenium headless&#45;new</text>
<text text-anchor="middle" x="2326.7" y="-148.43" font-family="Times,serif" font-size="20.00">edge Ubuntu 22.04 121 selenium headless&#45;new</text>
<text text-anchor="middle" x="2326.7" y="-126.43" font-family="Times,serif" font-size="20.00">firefox Ubuntu 22.04 121 selenium headless</text>
<text text-anchor="middle" x="2326.7" y="-104.43" font-family="Times,serif" font-size="20.00">firefox Ubuntu 22.04 122 selenium headless</text>
<text text-anchor="middle" x="2326.7" y="-82.43" font-family="Times,serif" font-size="20.00">firefox_beta Android 11 122.0b1 intent real</text>
</g>
</g>
</svg>
